<?xml version="1.0" encoding="utf-8"?>
<svg xmlns="http://www.w3.org/2000/svg" xmlns:xlink="http://www.w3.org/1999/xlink" width="528" height="336" viewBox="0 0 2112 1344">
<defs>
  <clipPath id="clip450">
    <rect x="0" y="0" width="2112" height="1344"/>
  </clipPath>
</defs>
<path clip-path="url(#clip450)" d="M0 1344 L2112 1344 L2112 0 L0 0  Z" fill="#ffffff" fill-rule="evenodd" fill-opacity="1"/>
<defs>
  <clipPath id="clip451">
    <rect x="422" y="0" width="1479" height="1344"/>
  </clipPath>
</defs>
<path clip-path="url(#clip450)" d="M197.187 1173.47 L2064.76 1173.47 L2064.76 47.2441 L197.187 47.2441  Z" fill="#ffffff" fill-rule="evenodd" fill-opacity="1"/>
<defs>
  <clipPath id="clip452">
    <rect x="197" y="47" width="1869" height="1127"/>
  </clipPath>
</defs>
<polyline clip-path="url(#clip452)" style="stroke:#000000; stroke-linecap:round; stroke-linejoin:round; stroke-width:2; stroke-opacity:0.1; fill:none" points="537.354,1173.47 537.354,47.2441 "/>
<polyline clip-path="url(#clip452)" style="stroke:#000000; stroke-linecap:round; stroke-linejoin:round; stroke-width:2; stroke-opacity:0.1; fill:none" points="1012.25,1173.47 1012.25,47.2441 "/>
<polyline clip-path="url(#clip452)" style="stroke:#000000; stroke-linecap:round; stroke-linejoin:round; stroke-width:2; stroke-opacity:0.1; fill:none" points="1487.14,1173.47 1487.14,47.2441 "/>
<polyline clip-path="url(#clip452)" style="stroke:#000000; stroke-linecap:round; stroke-linejoin:round; stroke-width:2; stroke-opacity:0.1; fill:none" points="1962.04,1173.47 1962.04,47.2441 "/>
<polyline clip-path="url(#clip450)" style="stroke:#000000; stroke-linecap:round; stroke-linejoin:round; stroke-width:4; stroke-opacity:1; fill:none" points="197.187,1173.47 2064.76,1173.47 "/>
<polyline clip-path="url(#clip450)" style="stroke:#000000; stroke-linecap:round; stroke-linejoin:round; stroke-width:4; stroke-opacity:1; fill:none" points="537.354,1173.47 537.354,1154.57 "/>
<polyline clip-path="url(#clip450)" style="stroke:#000000; stroke-linecap:round; stroke-linejoin:round; stroke-width:4; stroke-opacity:1; fill:none" points="1012.25,1173.47 1012.25,1154.57 "/>
<polyline clip-path="url(#clip450)" style="stroke:#000000; stroke-linecap:round; stroke-linejoin:round; stroke-width:4; stroke-opacity:1; fill:none" points="1487.14,1173.47 1487.14,1154.57 "/>
<polyline clip-path="url(#clip450)" style="stroke:#000000; stroke-linecap:round; stroke-linejoin:round; stroke-width:4; stroke-opacity:1; fill:none" points="1962.04,1173.47 1962.04,1154.57 "/>
<path clip-path="url(#clip450)" d="M532.007 1229.63 L548.326 1229.63 L548.326 1233.57 L526.382 1233.57 L526.382 1229.63 Q529.044 1226.88 533.627 1222.25 Q538.234 1217.59 539.414 1216.25 Q541.66 1213.73 542.539 1211.99 Q543.442 1210.23 543.442 1208.54 Q543.442 1205.79 541.498 1204.05 Q539.576 1202.32 536.474 1202.32 Q534.275 1202.32 531.822 1203.08 Q529.391 1203.84 526.613 1205.4 L526.613 1200.67 Q529.437 1199.54 531.891 1198.96 Q534.345 1198.38 536.382 1198.38 Q541.752 1198.38 544.947 1201.07 Q548.141 1203.75 548.141 1208.24 Q548.141 1210.37 547.331 1212.29 Q546.544 1214.19 544.437 1216.78 Q543.859 1217.46 540.757 1220.67 Q537.655 1223.87 532.007 1229.63 Z" fill="#000000" fill-rule="nonzero" fill-opacity="1" /><path clip-path="url(#clip450)" d="M1015.26 1203.08 L1003.45 1221.53 L1015.26 1221.53 L1015.26 1203.08 M1014.03 1199.01 L1019.91 1199.01 L1019.91 1221.53 L1024.84 1221.53 L1024.84 1225.42 L1019.91 1225.42 L1019.91 1233.57 L1015.26 1233.57 L1015.26 1225.42 L999.656 1225.42 L999.656 1220.9 L1014.03 1199.01 Z" fill="#000000" fill-rule="nonzero" fill-opacity="1" /><path clip-path="url(#clip450)" d="M1487.55 1214.42 Q1484.4 1214.42 1482.55 1216.58 Q1480.72 1218.73 1480.72 1222.48 Q1480.72 1226.21 1482.55 1228.38 Q1484.4 1230.53 1487.55 1230.53 Q1490.7 1230.53 1492.52 1228.38 Q1494.38 1226.21 1494.38 1222.48 Q1494.38 1218.73 1492.52 1216.58 Q1490.7 1214.42 1487.55 1214.42 M1496.83 1199.77 L1496.83 1204.03 Q1495.07 1203.2 1493.26 1202.76 Q1491.48 1202.32 1489.72 1202.32 Q1485.09 1202.32 1482.64 1205.44 Q1480.21 1208.57 1479.86 1214.89 Q1481.23 1212.87 1483.29 1211.81 Q1485.35 1210.72 1487.83 1210.72 Q1493.03 1210.72 1496.04 1213.89 Q1499.08 1217.04 1499.08 1222.48 Q1499.08 1227.8 1495.93 1231.02 Q1492.78 1234.24 1487.55 1234.24 Q1481.55 1234.24 1478.38 1229.65 Q1475.21 1225.05 1475.21 1216.32 Q1475.21 1208.13 1479.1 1203.27 Q1482.99 1198.38 1489.54 1198.38 Q1491.3 1198.38 1493.08 1198.73 Q1494.89 1199.08 1496.83 1199.77 Z" fill="#000000" fill-rule="nonzero" fill-opacity="1" /><path clip-path="url(#clip450)" d="M1962.04 1217.15 Q1958.7 1217.15 1956.78 1218.94 Q1954.88 1220.72 1954.88 1223.84 Q1954.88 1226.97 1956.78 1228.75 Q1958.7 1230.53 1962.04 1230.53 Q1965.37 1230.53 1967.29 1228.75 Q1969.21 1226.95 1969.21 1223.84 Q1969.21 1220.72 1967.29 1218.94 Q1965.39 1217.15 1962.04 1217.15 M1957.36 1215.16 Q1954.35 1214.42 1952.66 1212.36 Q1950.99 1210.3 1950.99 1207.34 Q1950.99 1203.2 1953.93 1200.79 Q1956.9 1198.38 1962.04 1198.38 Q1967.2 1198.38 1970.14 1200.79 Q1973.08 1203.2 1973.08 1207.34 Q1973.08 1210.3 1971.39 1212.36 Q1969.72 1214.42 1966.74 1215.16 Q1970.11 1215.95 1971.99 1218.24 Q1973.89 1220.53 1973.89 1223.84 Q1973.89 1228.87 1970.81 1231.55 Q1967.75 1234.24 1962.04 1234.24 Q1956.32 1234.24 1953.24 1231.55 Q1950.18 1228.87 1950.18 1223.84 Q1950.18 1220.53 1952.08 1218.24 Q1953.98 1215.95 1957.36 1215.16 M1955.65 1207.78 Q1955.65 1210.47 1957.31 1211.97 Q1959 1213.47 1962.04 1213.47 Q1965.05 1213.47 1966.74 1211.97 Q1968.45 1210.47 1968.45 1207.78 Q1968.45 1205.09 1966.74 1203.59 Q1965.05 1202.09 1962.04 1202.09 Q1959 1202.09 1957.31 1203.59 Q1955.65 1205.09 1955.65 1207.78 Z" fill="#000000" fill-rule="nonzero" fill-opacity="1" /><path clip-path="url(#clip450)" d="M894.47 1307.24 L894.47 1294.47 L883.966 1294.47 L883.966 1289.19 L900.835 1289.19 L900.835 1309.59 Q897.112 1312.23 892.624 1313.6 Q888.136 1314.94 883.043 1314.94 Q871.903 1314.94 865.601 1308.44 Q859.331 1301.92 859.331 1290.3 Q859.331 1278.65 865.601 1272.16 Q871.903 1265.64 883.043 1265.64 Q887.69 1265.64 891.86 1266.78 Q896.061 1267.93 899.594 1270.16 L899.594 1277 Q896.029 1273.97 892.019 1272.45 Q888.009 1270.92 883.584 1270.92 Q874.863 1270.92 870.471 1275.79 Q866.111 1280.66 866.111 1290.3 Q866.111 1299.91 870.471 1304.78 Q874.863 1309.65 883.584 1309.65 Q886.99 1309.65 889.664 1309.08 Q892.337 1308.48 894.47 1307.24 Z" fill="#000000" fill-rule="nonzero" fill-opacity="1" /><path clip-path="url(#clip450)" d="M928.526 1296.1 Q921.429 1296.1 918.691 1297.72 Q915.954 1299.34 915.954 1303.26 Q915.954 1306.38 917.991 1308.22 Q920.06 1310.04 923.593 1310.04 Q928.463 1310.04 931.391 1306.6 Q934.351 1303.13 934.351 1297.4 L934.351 1296.1 L928.526 1296.1 M940.207 1293.68 L940.207 1314.01 L934.351 1314.01 L934.351 1308.6 Q932.346 1311.85 929.354 1313.41 Q926.362 1314.94 922.033 1314.94 Q916.559 1314.94 913.312 1311.88 Q910.098 1308.79 910.098 1303.64 Q910.098 1297.62 914.108 1294.57 Q918.15 1291.51 926.139 1291.51 L934.351 1291.51 L934.351 1290.94 Q934.351 1286.9 931.677 1284.7 Q929.036 1282.47 924.229 1282.47 Q921.174 1282.47 918.278 1283.2 Q915.381 1283.94 912.708 1285.4 L912.708 1279.99 Q915.922 1278.75 918.946 1278.14 Q921.97 1277.51 924.834 1277.51 Q932.569 1277.51 936.388 1281.52 Q940.207 1285.53 940.207 1293.68 Z" fill="#000000" fill-rule="nonzero" fill-opacity="1" /><path clip-path="url(#clip450)" d="M952.27 1264.49 L958.127 1264.49 L958.127 1314.01 L952.27 1314.01 L952.27 1264.49 Z" fill="#000000" fill-rule="nonzero" fill-opacity="1" /><path clip-path="url(#clip450)" d="M976.174 1268.25 L976.174 1278.37 L988.237 1278.37 L988.237 1282.92 L976.174 1282.92 L976.174 1302.27 Q976.174 1306.63 977.351 1307.87 Q978.561 1309.11 982.221 1309.11 L988.237 1309.11 L988.237 1314.01 L982.221 1314.01 Q975.442 1314.01 972.863 1311.5 Q970.285 1308.95 970.285 1302.27 L970.285 1282.92 L965.988 1282.92 L965.988 1278.37 L970.285 1278.37 L970.285 1268.25 L976.174 1268.25 Z" fill="#000000" fill-rule="nonzero" fill-opacity="1" /><path clip-path="url(#clip450)" d="M1009.75 1282.47 Q1005.04 1282.47 1002.3 1286.16 Q999.568 1289.83 999.568 1296.22 Q999.568 1302.62 1002.27 1306.31 Q1005.01 1309.97 1009.75 1309.97 Q1014.43 1309.97 1017.17 1306.28 Q1019.91 1302.59 1019.91 1296.22 Q1019.91 1289.89 1017.17 1286.2 Q1014.43 1282.47 1009.75 1282.47 M1009.75 1277.51 Q1017.39 1277.51 1021.75 1282.47 Q1026.11 1287.44 1026.11 1296.22 Q1026.11 1304.98 1021.75 1309.97 Q1017.39 1314.94 1009.75 1314.94 Q1002.08 1314.94 997.722 1309.97 Q993.393 1304.98 993.393 1296.22 Q993.393 1287.44 997.722 1282.47 Q1002.08 1277.51 1009.75 1277.51 Z" fill="#000000" fill-rule="nonzero" fill-opacity="1" /><path clip-path="url(#clip450)" d="M1065.45 1292.5 L1065.45 1314.01 L1059.6 1314.01 L1059.6 1292.69 Q1059.6 1287.63 1057.62 1285.11 Q1055.65 1282.6 1051.7 1282.6 Q1046.96 1282.6 1044.22 1285.62 Q1041.49 1288.65 1041.49 1293.87 L1041.49 1314.01 L1035.6 1314.01 L1035.6 1278.37 L1041.49 1278.37 L1041.49 1283.9 Q1043.59 1280.69 1046.42 1279.1 Q1049.28 1277.51 1053.01 1277.51 Q1059.15 1277.51 1062.3 1281.33 Q1065.45 1285.11 1065.45 1292.5 Z" fill="#000000" fill-rule="nonzero" fill-opacity="1" /><path clip-path="url(#clip450)" d="M1104.54 1291.32 L1104.54 1308.73 L1114.85 1308.73 Q1120.04 1308.73 1122.52 1306.6 Q1125.04 1304.43 1125.04 1300.01 Q1125.04 1295.55 1122.52 1293.45 Q1120.04 1291.32 1114.85 1291.32 L1104.54 1291.32 M1104.54 1271.78 L1104.54 1286.1 L1114.05 1286.1 Q1118.77 1286.1 1121.06 1284.35 Q1123.38 1282.57 1123.38 1278.94 Q1123.38 1275.34 1121.06 1273.56 Q1118.77 1271.78 1114.05 1271.78 L1104.54 1271.78 M1098.11 1266.49 L1114.53 1266.49 Q1121.88 1266.49 1125.86 1269.55 Q1129.84 1272.61 1129.84 1278.24 Q1129.84 1282.6 1127.8 1285.18 Q1125.77 1287.76 1121.82 1288.39 Q1126.56 1289.41 1129.17 1292.66 Q1131.82 1295.87 1131.82 1300.71 Q1131.82 1307.08 1127.49 1310.55 Q1123.16 1314.01 1115.17 1314.01 L1098.11 1314.01 L1098.11 1266.49 Z" fill="#000000" fill-rule="nonzero" fill-opacity="1" /><path clip-path="url(#clip450)" d="M1156.39 1282.47 Q1151.68 1282.47 1148.94 1286.16 Q1146.2 1289.83 1146.2 1296.22 Q1146.2 1302.62 1148.91 1306.31 Q1151.64 1309.97 1156.39 1309.97 Q1161.07 1309.97 1163.8 1306.28 Q1166.54 1302.59 1166.54 1296.22 Q1166.54 1289.89 1163.8 1286.2 Q1161.07 1282.47 1156.39 1282.47 M1156.39 1277.51 Q1164.03 1277.51 1168.39 1282.47 Q1172.75 1287.44 1172.75 1296.22 Q1172.75 1304.98 1168.39 1309.97 Q1164.03 1314.94 1156.39 1314.94 Q1148.72 1314.94 1144.36 1309.97 Q1140.03 1304.98 1140.03 1296.22 Q1140.03 1287.44 1144.36 1282.47 Q1148.72 1277.51 1156.39 1277.51 Z" fill="#000000" fill-rule="nonzero" fill-opacity="1" /><path clip-path="url(#clip450)" d="M1198.66 1296.1 Q1191.56 1296.1 1188.82 1297.72 Q1186.08 1299.34 1186.08 1303.26 Q1186.08 1306.38 1188.12 1308.22 Q1190.19 1310.04 1193.72 1310.04 Q1198.59 1310.04 1201.52 1306.6 Q1204.48 1303.13 1204.48 1297.4 L1204.48 1296.1 L1198.66 1296.1 M1210.34 1293.68 L1210.34 1314.01 L1204.48 1314.01 L1204.48 1308.6 Q1202.47 1311.85 1199.48 1313.41 Q1196.49 1314.94 1192.16 1314.94 Q1186.69 1314.94 1183.44 1311.88 Q1180.23 1308.79 1180.23 1303.64 Q1180.23 1297.62 1184.24 1294.57 Q1188.28 1291.51 1196.27 1291.51 L1204.48 1291.51 L1204.48 1290.94 Q1204.48 1286.9 1201.81 1284.7 Q1199.16 1282.47 1194.36 1282.47 Q1191.3 1282.47 1188.41 1283.2 Q1185.51 1283.94 1182.84 1285.4 L1182.84 1279.99 Q1186.05 1278.75 1189.07 1278.14 Q1192.1 1277.51 1194.96 1277.51 Q1202.7 1277.51 1206.52 1281.52 Q1210.34 1285.53 1210.34 1293.68 Z" fill="#000000" fill-rule="nonzero" fill-opacity="1" /><path clip-path="url(#clip450)" d="M1243.06 1283.84 Q1242.07 1283.27 1240.89 1283.01 Q1239.75 1282.73 1238.35 1282.73 Q1233.38 1282.73 1230.71 1285.97 Q1228.06 1289.19 1228.06 1295.24 L1228.06 1314.01 L1222.18 1314.01 L1222.18 1278.37 L1228.06 1278.37 L1228.06 1283.9 Q1229.91 1280.66 1232.87 1279.1 Q1235.83 1277.51 1240.06 1277.51 Q1240.67 1277.51 1241.4 1277.6 Q1242.13 1277.67 1243.02 1277.83 L1243.06 1283.84 Z" fill="#000000" fill-rule="nonzero" fill-opacity="1" /><path clip-path="url(#clip450)" d="M1271.51 1283.78 L1271.51 1264.49 L1277.37 1264.49 L1277.37 1314.01 L1271.51 1314.01 L1271.51 1308.67 Q1269.66 1311.85 1266.83 1313.41 Q1264.03 1314.94 1260.08 1314.94 Q1253.62 1314.94 1249.55 1309.78 Q1245.51 1304.63 1245.51 1296.22 Q1245.51 1287.82 1249.55 1282.66 Q1253.62 1277.51 1260.08 1277.51 Q1264.03 1277.51 1266.83 1279.07 Q1269.66 1280.59 1271.51 1283.78 M1251.55 1296.22 Q1251.55 1302.68 1254.2 1306.38 Q1256.87 1310.04 1261.52 1310.04 Q1266.16 1310.04 1268.84 1306.38 Q1271.51 1302.68 1271.51 1296.22 Q1271.51 1289.76 1268.84 1286.1 Q1266.16 1282.41 1261.52 1282.41 Q1256.87 1282.41 1254.2 1286.1 Q1251.55 1289.76 1251.55 1296.22 Z" fill="#000000" fill-rule="nonzero" fill-opacity="1" /><path clip-path="url(#clip450)" d="M1316.83 1291.32 L1316.83 1308.73 L1327.15 1308.73 Q1332.33 1308.73 1334.82 1306.6 Q1337.33 1304.43 1337.33 1300.01 Q1337.33 1295.55 1334.82 1293.45 Q1332.33 1291.32 1327.15 1291.32 L1316.83 1291.32 M1316.83 1271.78 L1316.83 1286.1 L1326.35 1286.1 Q1331.06 1286.1 1333.35 1284.35 Q1335.68 1282.57 1335.68 1278.94 Q1335.68 1275.34 1333.35 1273.56 Q1331.06 1271.78 1326.35 1271.78 L1316.83 1271.78 M1310.41 1266.49 L1326.83 1266.49 Q1334.18 1266.49 1338.16 1269.55 Q1342.14 1272.61 1342.14 1278.24 Q1342.14 1282.6 1340.1 1285.18 Q1338.06 1287.76 1334.12 1288.39 Q1338.86 1289.41 1341.47 1292.66 Q1344.11 1295.87 1344.11 1300.71 Q1344.11 1307.08 1339.78 1310.55 Q1335.45 1314.01 1327.47 1314.01 L1310.41 1314.01 L1310.41 1266.49 Z" fill="#000000" fill-rule="nonzero" fill-opacity="1" /><path clip-path="url(#clip450)" d="M1354.87 1278.37 L1360.73 1278.37 L1360.73 1314.01 L1354.87 1314.01 L1354.87 1278.37 M1354.87 1264.49 L1360.73 1264.49 L1360.73 1271.91 L1354.87 1271.91 L1354.87 1264.49 Z" fill="#000000" fill-rule="nonzero" fill-opacity="1" /><path clip-path="url(#clip450)" d="M1402.61 1292.5 L1402.61 1314.01 L1396.76 1314.01 L1396.76 1292.69 Q1396.76 1287.63 1394.78 1285.11 Q1392.81 1282.6 1388.86 1282.6 Q1384.12 1282.6 1381.38 1285.62 Q1378.65 1288.65 1378.65 1293.87 L1378.65 1314.01 L1372.76 1314.01 L1372.76 1278.37 L1378.65 1278.37 L1378.65 1283.9 Q1380.75 1280.69 1383.58 1279.1 Q1386.44 1277.51 1390.17 1277.51 Q1396.31 1277.51 1399.46 1281.33 Q1402.61 1285.11 1402.61 1292.5 Z" fill="#000000" fill-rule="nonzero" fill-opacity="1" /><polyline clip-path="url(#clip452)" style="stroke:#000000; stroke-linecap:round; stroke-linejoin:round; stroke-width:2; stroke-opacity:0.1; fill:none" points="197.187,1173.47 2064.76,1173.47 "/>
<polyline clip-path="url(#clip452)" style="stroke:#000000; stroke-linecap:round; stroke-linejoin:round; stroke-width:2; stroke-opacity:0.1; fill:none" points="197.187,1000.21 2064.76,1000.21 "/>
<polyline clip-path="url(#clip452)" style="stroke:#000000; stroke-linecap:round; stroke-linejoin:round; stroke-width:2; stroke-opacity:0.1; fill:none" points="197.187,826.939 2064.76,826.939 "/>
<polyline clip-path="url(#clip452)" style="stroke:#000000; stroke-linecap:round; stroke-linejoin:round; stroke-width:2; stroke-opacity:0.1; fill:none" points="197.187,653.674 2064.76,653.674 "/>
<polyline clip-path="url(#clip452)" style="stroke:#000000; stroke-linecap:round; stroke-linejoin:round; stroke-width:2; stroke-opacity:0.1; fill:none" points="197.187,480.408 2064.76,480.408 "/>
<polyline clip-path="url(#clip452)" style="stroke:#000000; stroke-linecap:round; stroke-linejoin:round; stroke-width:2; stroke-opacity:0.1; fill:none" points="197.187,307.143 2064.76,307.143 "/>
<polyline clip-path="url(#clip452)" style="stroke:#000000; stroke-linecap:round; stroke-linejoin:round; stroke-width:2; stroke-opacity:0.1; fill:none" points="197.187,133.877 2064.76,133.877 "/>
<polyline clip-path="url(#clip450)" style="stroke:#000000; stroke-linecap:round; stroke-linejoin:round; stroke-width:4; stroke-opacity:1; fill:none" points="197.187,1173.47 197.187,47.2441 "/>
<polyline clip-path="url(#clip450)" style="stroke:#000000; stroke-linecap:round; stroke-linejoin:round; stroke-width:4; stroke-opacity:1; fill:none" points="197.187,1173.47 216.085,1173.47 "/>
<polyline clip-path="url(#clip450)" style="stroke:#000000; stroke-linecap:round; stroke-linejoin:round; stroke-width:4; stroke-opacity:1; fill:none" points="197.187,1000.21 216.085,1000.21 "/>
<polyline clip-path="url(#clip450)" style="stroke:#000000; stroke-linecap:round; stroke-linejoin:round; stroke-width:4; stroke-opacity:1; fill:none" points="197.187,826.939 216.085,826.939 "/>
<polyline clip-path="url(#clip450)" style="stroke:#000000; stroke-linecap:round; stroke-linejoin:round; stroke-width:4; stroke-opacity:1; fill:none" points="197.187,653.674 216.085,653.674 "/>
<polyline clip-path="url(#clip450)" style="stroke:#000000; stroke-linecap:round; stroke-linejoin:round; stroke-width:4; stroke-opacity:1; fill:none" points="197.187,480.408 216.085,480.408 "/>
<polyline clip-path="url(#clip450)" style="stroke:#000000; stroke-linecap:round; stroke-linejoin:round; stroke-width:4; stroke-opacity:1; fill:none" points="197.187,307.143 216.085,307.143 "/>
<polyline clip-path="url(#clip450)" style="stroke:#000000; stroke-linecap:round; stroke-linejoin:round; stroke-width:4; stroke-opacity:1; fill:none" points="197.187,133.877 216.085,133.877 "/>
<path clip-path="url(#clip450)" d="M153.563 1159.27 Q149.952 1159.27 148.123 1162.83 Q146.318 1166.38 146.318 1173.51 Q146.318 1180.61 148.123 1184.18 Q149.952 1187.72 153.563 1187.72 Q157.197 1187.72 159.003 1184.18 Q160.832 1180.61 160.832 1173.51 Q160.832 1166.38 159.003 1162.83 Q157.197 1159.27 153.563 1159.27 M153.563 1155.57 Q159.373 1155.57 162.429 1160.17 Q165.507 1164.76 165.507 1173.51 Q165.507 1182.23 162.429 1186.84 Q159.373 1191.42 153.563 1191.42 Q147.753 1191.42 144.674 1186.84 Q141.619 1182.23 141.619 1173.51 Q141.619 1164.76 144.674 1160.17 Q147.753 1155.57 153.563 1155.57 Z" fill="#000000" fill-rule="nonzero" fill-opacity="1" /><path clip-path="url(#clip450)" d="M149.188 1013.55 L165.507 1013.55 L165.507 1017.49 L143.563 1017.49 L143.563 1013.55 Q146.225 1010.8 150.808 1006.17 Q155.415 1001.51 156.595 1000.17 Q158.841 997.647 159.72 995.911 Q160.623 994.152 160.623 992.462 Q160.623 989.707 158.679 987.971 Q156.758 986.235 153.656 986.235 Q151.457 986.235 149.003 986.999 Q146.572 987.763 143.795 989.314 L143.795 984.592 Q146.619 983.458 149.072 982.879 Q151.526 982.3 153.563 982.3 Q158.933 982.3 162.128 984.985 Q165.322 987.67 165.322 992.161 Q165.322 994.291 164.512 996.212 Q163.725 998.11 161.619 1000.7 Q161.04 1001.37 157.938 1004.59 Q154.836 1007.79 149.188 1013.55 Z" fill="#000000" fill-rule="nonzero" fill-opacity="1" /><path clip-path="url(#clip450)" d="M155.924 813.734 L144.119 832.182 L155.924 832.182 L155.924 813.734 M154.697 809.659 L160.577 809.659 L160.577 832.182 L165.507 832.182 L165.507 836.071 L160.577 836.071 L160.577 844.219 L155.924 844.219 L155.924 836.071 L140.322 836.071 L140.322 831.558 L154.697 809.659 Z" fill="#000000" fill-rule="nonzero" fill-opacity="1" /><path clip-path="url(#clip450)" d="M153.98 651.81 Q150.832 651.81 148.98 653.963 Q147.151 656.116 147.151 659.866 Q147.151 663.593 148.98 665.769 Q150.832 667.921 153.98 667.921 Q157.128 667.921 158.957 665.769 Q160.808 663.593 160.808 659.866 Q160.808 656.116 158.957 653.963 Q157.128 651.81 153.98 651.81 M163.262 637.158 L163.262 641.417 Q161.503 640.584 159.697 640.144 Q157.915 639.704 156.156 639.704 Q151.526 639.704 149.072 642.829 Q146.642 645.954 146.295 652.273 Q147.66 650.259 149.721 649.195 Q151.781 648.107 154.258 648.107 Q159.466 648.107 162.475 651.278 Q165.507 654.426 165.507 659.866 Q165.507 665.19 162.359 668.408 Q159.211 671.625 153.98 671.625 Q147.984 671.625 144.813 667.042 Q141.642 662.435 141.642 653.709 Q141.642 645.514 145.531 640.653 Q149.42 635.769 155.97 635.769 Q157.73 635.769 159.512 636.116 Q161.318 636.463 163.262 637.158 Z" fill="#000000" fill-rule="nonzero" fill-opacity="1" /><path clip-path="url(#clip450)" d="M153.656 481.276 Q150.322 481.276 148.401 483.059 Q146.503 484.841 146.503 487.966 Q146.503 491.091 148.401 492.873 Q150.322 494.656 153.656 494.656 Q156.989 494.656 158.91 492.873 Q160.832 491.068 160.832 487.966 Q160.832 484.841 158.91 483.059 Q157.012 481.276 153.656 481.276 M148.98 479.286 Q145.971 478.545 144.281 476.485 Q142.614 474.424 142.614 471.461 Q142.614 467.318 145.554 464.911 Q148.517 462.503 153.656 462.503 Q158.818 462.503 161.757 464.911 Q164.697 467.318 164.697 471.461 Q164.697 474.424 163.007 476.485 Q161.341 478.545 158.355 479.286 Q161.734 480.073 163.609 482.364 Q165.507 484.656 165.507 487.966 Q165.507 492.989 162.429 495.674 Q159.373 498.359 153.656 498.359 Q147.938 498.359 144.859 495.674 Q141.804 492.989 141.804 487.966 Q141.804 484.656 143.702 482.364 Q145.6 480.073 148.98 479.286 M147.267 471.901 Q147.267 474.586 148.933 476.091 Q150.623 477.596 153.656 477.596 Q156.665 477.596 158.355 476.091 Q160.068 474.586 160.068 471.901 Q160.068 469.216 158.355 467.712 Q156.665 466.207 153.656 466.207 Q150.623 466.207 148.933 467.712 Q147.267 469.216 147.267 471.901 Z" fill="#000000" fill-rule="nonzero" fill-opacity="1" /><path clip-path="url(#clip450)" d="M114.211 320.487 L121.85 320.487 L121.85 294.122 L113.54 295.788 L113.54 291.529 L121.804 289.863 L126.48 289.863 L126.48 320.487 L134.119 320.487 L134.119 324.423 L114.211 324.423 L114.211 320.487 Z" fill="#000000" fill-rule="nonzero" fill-opacity="1" /><path clip-path="url(#clip450)" d="M153.563 292.941 Q149.952 292.941 148.123 296.506 Q146.318 300.048 146.318 307.177 Q146.318 314.284 148.123 317.849 Q149.952 321.39 153.563 321.39 Q157.197 321.39 159.003 317.849 Q160.832 314.284 160.832 307.177 Q160.832 300.048 159.003 296.506 Q157.197 292.941 153.563 292.941 M153.563 289.238 Q159.373 289.238 162.429 293.844 Q165.507 298.427 165.507 307.177 Q165.507 315.904 162.429 320.511 Q159.373 325.094 153.563 325.094 Q147.753 325.094 144.674 320.511 Q141.619 315.904 141.619 307.177 Q141.619 298.427 144.674 293.844 Q147.753 289.238 153.563 289.238 Z" fill="#000000" fill-rule="nonzero" fill-opacity="1" /><path clip-path="url(#clip450)" d="M115.809 147.222 L123.448 147.222 L123.448 120.856 L115.137 122.523 L115.137 118.264 L123.401 116.597 L128.077 116.597 L128.077 147.222 L135.716 147.222 L135.716 151.157 L115.809 151.157 L115.809 147.222 Z" fill="#000000" fill-rule="nonzero" fill-opacity="1" /><path clip-path="url(#clip450)" d="M149.188 147.222 L165.507 147.222 L165.507 151.157 L143.563 151.157 L143.563 147.222 Q146.225 144.467 150.808 139.838 Q155.415 135.185 156.595 133.842 Q158.841 131.319 159.72 129.583 Q160.623 127.824 160.623 126.134 Q160.623 123.379 158.679 121.643 Q156.758 119.907 153.656 119.907 Q151.457 119.907 149.003 120.671 Q146.572 121.435 143.795 122.986 L143.795 118.264 Q146.619 117.129 149.072 116.551 Q151.526 115.972 153.563 115.972 Q158.933 115.972 162.128 118.657 Q165.322 121.342 165.322 125.833 Q165.322 127.963 164.512 129.884 Q163.725 131.782 161.619 134.375 Q161.04 135.046 157.938 138.263 Q154.836 141.458 149.188 147.222 Z" fill="#000000" fill-rule="nonzero" fill-opacity="1" /><path clip-path="url(#clip450)" d="M44.9104 767.543 L62.3206 767.543 L62.3206 757.23 Q62.3206 752.042 60.1881 749.56 Q58.0238 747.045 53.5996 747.045 Q49.1436 747.045 47.0429 749.56 Q44.9104 752.042 44.9104 757.23 L44.9104 767.543 M25.3677 767.543 L39.6905 767.543 L39.6905 758.026 Q39.6905 753.315 37.94 751.024 Q36.1576 748.7 32.5291 748.7 Q28.9325 748.7 27.1501 751.024 Q25.3677 753.315 25.3677 758.026 L25.3677 767.543 M20.0842 773.972 L20.0842 757.548 Q20.0842 750.196 23.1397 746.218 Q26.1952 742.239 31.8289 742.239 Q36.1894 742.239 38.7675 744.276 Q41.3456 746.313 41.9822 750.26 Q43.0007 745.517 46.2472 742.907 Q49.4619 740.266 54.2998 740.266 Q60.6655 740.266 64.1348 744.594 Q67.6042 748.923 67.6042 756.912 L67.6042 773.972 L20.0842 773.972 Z" fill="#000000" fill-rule="nonzero" fill-opacity="1" /><path clip-path="url(#clip450)" d="M49.6847 713.307 Q49.6847 720.405 51.3079 723.142 Q52.9312 725.879 56.8461 725.879 Q59.9653 725.879 61.8114 723.842 Q63.6256 721.773 63.6256 718.24 Q63.6256 713.37 60.1881 710.442 Q56.7188 707.482 50.9897 707.482 L49.6847 707.482 L49.6847 713.307 M47.2657 701.626 L67.6042 701.626 L67.6042 707.482 L62.1933 707.482 Q65.4398 709.487 66.9994 712.479 Q68.5272 715.471 68.5272 719.8 Q68.5272 725.274 65.4716 728.521 Q62.3843 731.736 57.2281 731.736 Q51.2125 731.736 48.1569 727.725 Q45.1014 723.683 45.1014 715.694 L45.1014 707.482 L44.5285 707.482 Q40.4862 707.482 38.2901 710.156 Q36.0621 712.798 36.0621 717.604 Q36.0621 720.659 36.7941 723.556 Q37.5262 726.452 38.9903 729.126 L33.5795 729.126 Q32.3381 725.911 31.7334 722.887 Q31.0968 719.863 31.0968 716.999 Q31.0968 709.265 35.1072 705.445 Q39.1176 701.626 47.2657 701.626 Z" fill="#000000" fill-rule="nonzero" fill-opacity="1" /><path clip-path="url(#clip450)" d="M18.079 689.563 L18.079 683.706 L67.6042 683.706 L67.6042 689.563 L18.079 689.563 Z" fill="#000000" fill-rule="nonzero" fill-opacity="1" /><path clip-path="url(#clip450)" d="M18.079 671.452 L18.079 665.596 L67.6042 665.596 L67.6042 671.452 L18.079 671.452 Z" fill="#000000" fill-rule="nonzero" fill-opacity="1" /><path clip-path="url(#clip450)" d="M23.7444 596.783 L30.5239 596.783 Q27.5002 600.029 26.0043 603.721 Q24.5083 607.381 24.5083 611.519 Q24.5083 619.667 29.5054 623.996 Q34.4707 628.325 43.8919 628.325 Q53.2813 628.325 58.2784 623.996 Q63.2436 619.667 63.2436 611.519 Q63.2436 607.381 61.7477 603.721 Q60.2518 600.029 57.2281 596.783 L63.9439 596.783 Q66.2355 600.156 67.3814 603.944 Q68.5272 607.7 68.5272 611.901 Q68.5272 622.691 61.9387 628.898 Q55.3183 635.104 43.8919 635.104 Q32.4336 635.104 25.8451 628.898 Q19.2248 622.691 19.2248 611.901 Q19.2248 607.636 20.3706 603.88 Q21.4846 600.093 23.7444 596.783 Z" fill="#000000" fill-rule="nonzero" fill-opacity="1" /><path clip-path="url(#clip450)" d="M36.0621 573.293 Q36.0621 578.004 39.7542 580.741 Q43.4145 583.478 49.812 583.478 Q56.2095 583.478 59.9017 580.773 Q63.5619 578.036 63.5619 573.293 Q63.5619 568.614 59.8698 565.877 Q56.1777 563.14 49.812 563.14 Q43.4781 563.14 39.786 565.877 Q36.0621 568.614 36.0621 573.293 M31.0968 573.293 Q31.0968 565.654 36.0621 561.294 Q41.0273 556.933 49.812 556.933 Q58.5649 556.933 63.5619 561.294 Q68.5272 565.654 68.5272 573.293 Q68.5272 580.964 63.5619 585.324 Q58.5649 589.653 49.812 589.653 Q41.0273 589.653 36.0621 585.324 Q31.0968 580.964 31.0968 573.293 Z" fill="#000000" fill-rule="nonzero" fill-opacity="1" /><path clip-path="url(#clip450)" d="M53.5359 547.83 L31.9562 547.83 L31.9562 541.974 L53.3131 541.974 Q58.3739 541.974 60.9202 540 Q63.4346 538.027 63.4346 534.08 Q63.4346 529.338 60.4109 526.601 Q57.3872 523.832 52.1673 523.832 L31.9562 523.832 L31.9562 517.975 L67.6042 517.975 L67.6042 523.832 L62.1296 523.832 Q65.3762 525.964 66.9676 528.797 Q68.5272 531.598 68.5272 535.322 Q68.5272 541.465 64.7078 544.647 Q60.8883 547.83 53.5359 547.83 M31.0968 533.094 L31.0968 533.094 Z" fill="#000000" fill-rule="nonzero" fill-opacity="1" /><path clip-path="url(#clip450)" d="M46.0881 476.28 L67.6042 476.28 L67.6042 482.136 L46.279 482.136 Q41.2183 482.136 38.7038 484.11 Q36.1894 486.083 36.1894 490.03 Q36.1894 494.772 39.2131 497.509 Q42.2368 500.247 47.4567 500.247 L67.6042 500.247 L67.6042 506.135 L31.9562 506.135 L31.9562 500.247 L37.4944 500.247 Q34.2797 498.146 32.6883 495.313 Q31.0968 492.449 31.0968 488.725 Q31.0968 482.582 34.9163 479.431 Q38.7038 476.28 46.0881 476.28 Z" fill="#000000" fill-rule="nonzero" fill-opacity="1" /><path clip-path="url(#clip450)" d="M21.8347 458.806 L31.9562 458.806 L31.9562 446.743 L36.5077 446.743 L36.5077 458.806 L55.8594 458.806 Q60.2199 458.806 61.4613 457.628 Q62.7026 456.419 62.7026 452.758 L62.7026 446.743 L67.6042 446.743 L67.6042 452.758 Q67.6042 459.538 65.0897 462.116 Q62.5434 464.694 55.8594 464.694 L36.5077 464.694 L36.5077 468.991 L31.9562 468.991 L31.9562 464.694 L21.8347 464.694 L21.8347 458.806 Z" fill="#000000" fill-rule="nonzero" fill-opacity="1" /><path clip-path="url(#clip452)" d="M299.907 1086.84 L299.907 1173.47 L537.354 1173.47 L537.354 1086.84 L299.907 1086.84 L299.907 1086.84  Z" fill="#009af9" fill-rule="evenodd" fill-opacity="1"/>
<polyline clip-path="url(#clip452)" style="stroke:#000000; stroke-linecap:round; stroke-linejoin:round; stroke-width:4; stroke-opacity:1; fill:none" points="299.907,1086.84 299.907,1173.47 537.354,1173.47 537.354,1086.84 299.907,1086.84 "/>
<path clip-path="url(#clip452)" d="M537.354 567.041 L537.354 1173.47 L774.801 1173.47 L774.801 567.041 L537.354 567.041 L537.354 567.041  Z" fill="#009af9" fill-rule="evenodd" fill-opacity="1"/>
<polyline clip-path="url(#clip452)" style="stroke:#000000; stroke-linecap:round; stroke-linejoin:round; stroke-width:4; stroke-opacity:1; fill:none" points="537.354,567.041 537.354,1173.47 774.801,1173.47 774.801,567.041 537.354,567.041 "/>
<path clip-path="url(#clip452)" d="M774.801 567.041 L774.801 1173.47 L1012.25 1173.47 L1012.25 567.041 L774.801 567.041 L774.801 567.041  Z" fill="#009af9" fill-rule="evenodd" fill-opacity="1"/>
<polyline clip-path="url(#clip452)" style="stroke:#000000; stroke-linecap:round; stroke-linejoin:round; stroke-width:4; stroke-opacity:1; fill:none" points="774.801,567.041 774.801,1173.47 1012.25,1173.47 1012.25,567.041 774.801,567.041 "/>
<path clip-path="url(#clip452)" d="M1012.25 47.2441 L1012.25 1173.47 L1249.7 1173.47 L1249.7 47.2441 L1012.25 47.2441 L1012.25 47.2441  Z" fill="#009af9" fill-rule="evenodd" fill-opacity="1"/>
<polyline clip-path="url(#clip452)" style="stroke:#000000; stroke-linecap:round; stroke-linejoin:round; stroke-width:4; stroke-opacity:1; fill:none" points="1012.25,47.2441 1012.25,1173.47 1249.7,1173.47 1249.7,47.2441 1012.25,47.2441 "/>
<path clip-path="url(#clip452)" d="M1249.7 47.2441 L1249.7 1173.47 L1487.14 1173.47 L1487.14 47.2441 L1249.7 47.2441 L1249.7 47.2441  Z" fill="#009af9" fill-rule="evenodd" fill-opacity="1"/>
<polyline clip-path="url(#clip452)" style="stroke:#000000; stroke-linecap:round; stroke-linejoin:round; stroke-width:4; stroke-opacity:1; fill:none" points="1249.7,47.2441 1249.7,1173.47 1487.14,1173.47 1487.14,47.2441 1249.7,47.2441 "/>
<path clip-path="url(#clip452)" d="M1487.14 567.041 L1487.14 1173.47 L1724.59 1173.47 L1724.59 567.041 L1487.14 567.041 L1487.14 567.041  Z" fill="#009af9" fill-rule="evenodd" fill-opacity="1"/>
<polyline clip-path="url(#clip452)" style="stroke:#000000; stroke-linecap:round; stroke-linejoin:round; stroke-width:4; stroke-opacity:1; fill:none" points="1487.14,567.041 1487.14,1173.47 1724.59,1173.47 1724.59,567.041 1487.14,567.041 "/>
<path clip-path="url(#clip452)" d="M1724.59 1000.21 L1724.59 1173.47 L1962.04 1173.47 L1962.04 1000.21 L1724.59 1000.21 L1724.59 1000.21  Z" fill="#009af9" fill-rule="evenodd" fill-opacity="1"/>
<polyline clip-path="url(#clip452)" style="stroke:#000000; stroke-linecap:round; stroke-linejoin:round; stroke-width:4; stroke-opacity:1; fill:none" points="1724.59,1000.21 1724.59,1173.47 1962.04,1173.47 1962.04,1000.21 1724.59,1000.21 "/>
<circle clip-path="url(#clip452)" style="fill:#009af9; stroke:none; fill-opacity:0" cx="418.631" cy="1086.84" r="2"/>
<circle clip-path="url(#clip452)" style="fill:#009af9; stroke:none; fill-opacity:0" cx="656.078" cy="567.041" r="2"/>
<circle clip-path="url(#clip452)" style="fill:#009af9; stroke:none; fill-opacity:0" cx="893.525" cy="567.041" r="2"/>
<circle clip-path="url(#clip452)" style="fill:#009af9; stroke:none; fill-opacity:0" cx="1130.97" cy="47.2441" r="2"/>
<circle clip-path="url(#clip452)" style="fill:#009af9; stroke:none; fill-opacity:0" cx="1368.42" cy="47.2441" r="2"/>
<circle clip-path="url(#clip452)" style="fill:#009af9; stroke:none; fill-opacity:0" cx="1605.87" cy="567.041" r="2"/>
<circle clip-path="url(#clip452)" style="fill:#009af9; stroke:none; fill-opacity:0" cx="1843.31" cy="1000.21" r="2"/>
</svg>
