<?xml version="1.0" encoding="utf-8"?>
<svg xmlns="http://www.w3.org/2000/svg" xmlns:xlink="http://www.w3.org/1999/xlink" width="528" height="336" viewBox="0 0 2112 1344">
<defs>
  <clipPath id="clip810">
    <rect x="0" y="0" width="2112" height="1344"/>
  </clipPath>
</defs>
<path clip-path="url(#clip810)" d="M0 1344 L2112 1344 L2112 0 L0 0  Z" fill="#ffffff" fill-rule="evenodd" fill-opacity="1"/>
<defs>
  <clipPath id="clip811">
    <rect x="422" y="0" width="1479" height="1344"/>
  </clipPath>
</defs>
<path clip-path="url(#clip810)" d="M199.297 1222.85 L2064.76 1222.85 L2064.76 47.2441 L199.297 47.2441  Z" fill="#ffffff" fill-rule="evenodd" fill-opacity="1"/>
<defs>
  <clipPath id="clip812">
    <rect x="199" y="47" width="1866" height="1177"/>
  </clipPath>
</defs>
<polyline clip-path="url(#clip812)" style="stroke:#000000; stroke-linecap:round; stroke-linejoin:round; stroke-width:2; stroke-opacity:0.1; fill:none" points="301.9,1222.85 301.9,47.2441 "/>
<polyline clip-path="url(#clip812)" style="stroke:#000000; stroke-linecap:round; stroke-linejoin:round; stroke-width:2; stroke-opacity:0.1; fill:none" points="769.577,1222.85 769.577,47.2441 "/>
<polyline clip-path="url(#clip812)" style="stroke:#000000; stroke-linecap:round; stroke-linejoin:round; stroke-width:2; stroke-opacity:0.1; fill:none" points="1237.25,1222.85 1237.25,47.2441 "/>
<polyline clip-path="url(#clip812)" style="stroke:#000000; stroke-linecap:round; stroke-linejoin:round; stroke-width:2; stroke-opacity:0.1; fill:none" points="1704.93,1222.85 1704.93,47.2441 "/>
<polyline clip-path="url(#clip810)" style="stroke:#000000; stroke-linecap:round; stroke-linejoin:round; stroke-width:4; stroke-opacity:1; fill:none" points="199.297,1222.85 2064.76,1222.85 "/>
<polyline clip-path="url(#clip810)" style="stroke:#000000; stroke-linecap:round; stroke-linejoin:round; stroke-width:4; stroke-opacity:1; fill:none" points="301.9,1222.85 301.9,1203.96 "/>
<polyline clip-path="url(#clip810)" style="stroke:#000000; stroke-linecap:round; stroke-linejoin:round; stroke-width:4; stroke-opacity:1; fill:none" points="769.577,1222.85 769.577,1203.96 "/>
<polyline clip-path="url(#clip810)" style="stroke:#000000; stroke-linecap:round; stroke-linejoin:round; stroke-width:4; stroke-opacity:1; fill:none" points="1237.25,1222.85 1237.25,1203.96 "/>
<polyline clip-path="url(#clip810)" style="stroke:#000000; stroke-linecap:round; stroke-linejoin:round; stroke-width:4; stroke-opacity:1; fill:none" points="1704.93,1222.85 1704.93,1203.96 "/>
<path clip-path="url(#clip810)" d="M212.885 1294.67 L229.204 1294.67 L229.204 1298.61 L207.26 1298.61 L207.26 1294.67 Q209.922 1291.92 214.505 1287.29 Q219.111 1282.64 220.292 1281.3 Q222.537 1278.77 223.417 1277.04 Q224.32 1275.28 224.32 1273.59 Q224.32 1270.83 222.375 1269.1 Q220.454 1267.36 217.352 1267.36 Q215.153 1267.36 212.699 1268.12 Q210.269 1268.89 207.491 1270.44 L207.491 1265.72 Q210.315 1264.58 212.769 1264 Q215.222 1263.42 217.26 1263.42 Q222.63 1263.42 225.824 1266.11 Q229.019 1268.8 229.019 1273.29 Q229.019 1275.42 228.209 1277.34 Q227.422 1279.24 225.315 1281.83 Q224.736 1282.5 221.634 1285.72 Q218.533 1288.91 212.885 1294.67 Z" fill="#000000" fill-rule="nonzero" fill-opacity="1" /><path clip-path="url(#clip810)" d="M239.019 1292.73 L243.903 1292.73 L243.903 1298.61 L239.019 1298.61 L239.019 1292.73 Z" fill="#000000" fill-rule="nonzero" fill-opacity="1" /><path clip-path="url(#clip810)" d="M264.088 1267.13 Q260.477 1267.13 258.648 1270.69 Q256.843 1274.24 256.843 1281.36 Q256.843 1288.47 258.648 1292.04 Q260.477 1295.58 264.088 1295.58 Q267.722 1295.58 269.528 1292.04 Q271.356 1288.47 271.356 1281.36 Q271.356 1274.24 269.528 1270.69 Q267.722 1267.13 264.088 1267.13 M264.088 1263.42 Q269.898 1263.42 272.954 1268.03 Q276.032 1272.61 276.032 1281.36 Q276.032 1290.09 272.954 1294.7 Q269.898 1299.28 264.088 1299.28 Q258.278 1299.28 255.199 1294.7 Q252.144 1290.09 252.144 1281.36 Q252.144 1272.61 255.199 1268.03 Q258.278 1263.42 264.088 1263.42 Z" fill="#000000" fill-rule="nonzero" fill-opacity="1" /><path clip-path="url(#clip810)" d="M312.421 1273.15 L301.842 1283.77 L312.421 1294.35 L309.666 1297.15 L299.041 1286.53 L288.417 1297.15 L285.685 1294.35 L296.241 1283.77 L285.685 1273.15 L288.417 1270.35 L299.041 1280.97 L309.666 1270.35 L312.421 1273.15 Z" fill="#000000" fill-rule="nonzero" fill-opacity="1" /><path clip-path="url(#clip810)" d="M324.782 1294.67 L332.421 1294.67 L332.421 1268.31 L324.111 1269.98 L324.111 1265.72 L332.375 1264.05 L337.051 1264.05 L337.051 1294.67 L344.689 1294.67 L344.689 1298.61 L324.782 1298.61 L324.782 1294.67 Z" fill="#000000" fill-rule="nonzero" fill-opacity="1" /><path clip-path="url(#clip810)" d="M364.134 1267.13 Q360.523 1267.13 358.694 1270.69 Q356.888 1274.24 356.888 1281.36 Q356.888 1288.47 358.694 1292.04 Q360.523 1295.58 364.134 1295.58 Q367.768 1295.58 369.574 1292.04 Q371.402 1288.47 371.402 1281.36 Q371.402 1274.24 369.574 1270.69 Q367.768 1267.13 364.134 1267.13 M364.134 1263.42 Q369.944 1263.42 372.999 1268.03 Q376.078 1272.61 376.078 1281.36 Q376.078 1290.09 372.999 1294.7 Q369.944 1299.28 364.134 1299.28 Q358.324 1299.28 355.245 1294.7 Q352.189 1290.09 352.189 1281.36 Q352.189 1272.61 355.245 1268.03 Q358.324 1263.42 364.134 1263.42 Z" fill="#000000" fill-rule="nonzero" fill-opacity="1" /><path clip-path="url(#clip810)" d="M388.755 1246.43 L379.163 1261.42 L388.755 1261.42 L388.755 1246.43 M387.758 1243.12 L392.535 1243.12 L392.535 1261.42 L396.541 1261.42 L396.541 1264.58 L392.535 1264.58 L392.535 1271.2 L388.755 1271.2 L388.755 1264.58 L376.078 1264.58 L376.078 1260.91 L387.758 1243.12 Z" fill="#000000" fill-rule="nonzero" fill-opacity="1" /><path clip-path="url(#clip810)" d="M690.631 1279.98 Q693.987 1280.69 695.862 1282.96 Q697.76 1285.23 697.76 1288.56 Q697.76 1293.68 694.242 1296.48 Q690.723 1299.28 684.242 1299.28 Q682.066 1299.28 679.751 1298.84 Q677.459 1298.42 675.006 1297.57 L675.006 1293.05 Q676.95 1294.19 679.265 1294.77 Q681.58 1295.35 684.103 1295.35 Q688.501 1295.35 690.793 1293.61 Q693.107 1291.87 693.107 1288.56 Q693.107 1285.51 690.955 1283.8 Q688.825 1282.06 685.006 1282.06 L680.978 1282.06 L680.978 1278.22 L685.191 1278.22 Q688.64 1278.22 690.469 1276.85 Q692.297 1275.46 692.297 1272.87 Q692.297 1270.21 690.399 1268.8 Q688.524 1267.36 685.006 1267.36 Q683.084 1267.36 680.885 1267.78 Q678.686 1268.19 676.047 1269.07 L676.047 1264.91 Q678.709 1264.17 681.024 1263.8 Q683.362 1263.42 685.422 1263.42 Q690.746 1263.42 693.848 1265.86 Q696.95 1268.26 696.95 1272.38 Q696.95 1275.25 695.306 1277.24 Q693.663 1279.21 690.631 1279.98 Z" fill="#000000" fill-rule="nonzero" fill-opacity="1" /><path clip-path="url(#clip810)" d="M706.626 1292.73 L711.51 1292.73 L711.51 1298.61 L706.626 1298.61 L706.626 1292.73 Z" fill="#000000" fill-rule="nonzero" fill-opacity="1" /><path clip-path="url(#clip810)" d="M731.695 1267.13 Q728.084 1267.13 726.255 1270.69 Q724.45 1274.24 724.45 1281.36 Q724.45 1288.47 726.255 1292.04 Q728.084 1295.58 731.695 1295.58 Q735.329 1295.58 737.135 1292.04 Q738.964 1288.47 738.964 1281.36 Q738.964 1274.24 737.135 1270.69 Q735.329 1267.13 731.695 1267.13 M731.695 1263.42 Q737.505 1263.42 740.561 1268.03 Q743.64 1272.61 743.64 1281.36 Q743.64 1290.09 740.561 1294.7 Q737.505 1299.28 731.695 1299.28 Q725.885 1299.28 722.806 1294.7 Q719.751 1290.09 719.751 1281.36 Q719.751 1272.61 722.806 1268.03 Q725.885 1263.42 731.695 1263.42 Z" fill="#000000" fill-rule="nonzero" fill-opacity="1" /><path clip-path="url(#clip810)" d="M780.028 1273.15 L769.45 1283.77 L780.028 1294.35 L777.274 1297.15 L766.649 1286.53 L756.024 1297.15 L753.292 1294.35 L763.848 1283.77 L753.292 1273.15 L756.024 1270.35 L766.649 1280.97 L777.274 1270.35 L780.028 1273.15 Z" fill="#000000" fill-rule="nonzero" fill-opacity="1" /><path clip-path="url(#clip810)" d="M792.389 1294.67 L800.028 1294.67 L800.028 1268.31 L791.718 1269.98 L791.718 1265.72 L799.982 1264.05 L804.658 1264.05 L804.658 1294.67 L812.297 1294.67 L812.297 1298.61 L792.389 1298.61 L792.389 1294.67 Z" fill="#000000" fill-rule="nonzero" fill-opacity="1" /><path clip-path="url(#clip810)" d="M831.741 1267.13 Q828.13 1267.13 826.301 1270.69 Q824.496 1274.24 824.496 1281.36 Q824.496 1288.47 826.301 1292.04 Q828.13 1295.58 831.741 1295.58 Q835.375 1295.58 837.181 1292.04 Q839.009 1288.47 839.009 1281.36 Q839.009 1274.24 837.181 1270.69 Q835.375 1267.13 831.741 1267.13 M831.741 1263.42 Q837.551 1263.42 840.607 1268.03 Q843.685 1272.61 843.685 1281.36 Q843.685 1290.09 840.607 1294.7 Q837.551 1299.28 831.741 1299.28 Q825.931 1299.28 822.852 1294.7 Q819.797 1290.09 819.797 1281.36 Q819.797 1272.61 822.852 1268.03 Q825.931 1263.42 831.741 1263.42 Z" fill="#000000" fill-rule="nonzero" fill-opacity="1" /><path clip-path="url(#clip810)" d="M856.362 1246.43 L846.77 1261.42 L856.362 1261.42 L856.362 1246.43 M855.365 1243.12 L860.142 1243.12 L860.142 1261.42 L864.148 1261.42 L864.148 1264.58 L860.142 1264.58 L860.142 1271.2 L856.362 1271.2 L856.362 1264.58 L843.685 1264.58 L843.685 1260.91 L855.365 1243.12 Z" fill="#000000" fill-rule="nonzero" fill-opacity="1" /><path clip-path="url(#clip810)" d="M1157.64 1268.12 L1145.83 1286.57 L1157.64 1286.57 L1157.64 1268.12 M1156.41 1264.05 L1162.29 1264.05 L1162.29 1286.57 L1167.22 1286.57 L1167.22 1290.46 L1162.29 1290.46 L1162.29 1298.61 L1157.64 1298.61 L1157.64 1290.46 L1142.03 1290.46 L1142.03 1285.95 L1156.41 1264.05 Z" fill="#000000" fill-rule="nonzero" fill-opacity="1" /><path clip-path="url(#clip810)" d="M1174.95 1292.73 L1179.83 1292.73 L1179.83 1298.61 L1174.95 1298.61 L1174.95 1292.73 Z" fill="#000000" fill-rule="nonzero" fill-opacity="1" /><path clip-path="url(#clip810)" d="M1200.02 1267.13 Q1196.41 1267.13 1194.58 1270.69 Q1192.77 1274.24 1192.77 1281.36 Q1192.77 1288.47 1194.58 1292.04 Q1196.41 1295.58 1200.02 1295.58 Q1203.65 1295.58 1205.46 1292.04 Q1207.29 1288.47 1207.29 1281.36 Q1207.29 1274.24 1205.46 1270.69 Q1203.65 1267.13 1200.02 1267.13 M1200.02 1263.42 Q1205.83 1263.42 1208.89 1268.03 Q1211.96 1272.61 1211.96 1281.36 Q1211.96 1290.09 1208.89 1294.7 Q1205.83 1299.28 1200.02 1299.28 Q1194.21 1299.28 1191.13 1294.7 Q1188.08 1290.09 1188.08 1281.36 Q1188.08 1272.61 1191.13 1268.03 Q1194.21 1263.42 1200.02 1263.42 Z" fill="#000000" fill-rule="nonzero" fill-opacity="1" /><path clip-path="url(#clip810)" d="M1248.35 1273.15 L1237.77 1283.77 L1248.35 1294.35 L1245.6 1297.15 L1234.97 1286.53 L1224.35 1297.15 L1221.62 1294.35 L1232.17 1283.77 L1221.62 1273.15 L1224.35 1270.35 L1234.97 1280.97 L1245.6 1270.35 L1248.35 1273.15 Z" fill="#000000" fill-rule="nonzero" fill-opacity="1" /><path clip-path="url(#clip810)" d="M1260.71 1294.67 L1268.35 1294.67 L1268.35 1268.31 L1260.04 1269.98 L1260.04 1265.72 L1268.31 1264.05 L1272.98 1264.05 L1272.98 1294.67 L1280.62 1294.67 L1280.62 1298.61 L1260.71 1298.61 L1260.71 1294.67 Z" fill="#000000" fill-rule="nonzero" fill-opacity="1" /><path clip-path="url(#clip810)" d="M1300.07 1267.13 Q1296.45 1267.13 1294.63 1270.69 Q1292.82 1274.24 1292.82 1281.36 Q1292.82 1288.47 1294.63 1292.04 Q1296.45 1295.58 1300.07 1295.58 Q1303.7 1295.58 1305.51 1292.04 Q1307.33 1288.47 1307.33 1281.36 Q1307.33 1274.24 1305.51 1270.69 Q1303.7 1267.13 1300.07 1267.13 M1300.07 1263.42 Q1305.88 1263.42 1308.93 1268.03 Q1312.01 1272.61 1312.01 1281.36 Q1312.01 1290.09 1308.93 1294.7 Q1305.88 1299.28 1300.07 1299.28 Q1294.26 1299.28 1291.18 1294.7 Q1288.12 1290.09 1288.12 1281.36 Q1288.12 1272.61 1291.18 1268.03 Q1294.26 1263.42 1300.07 1263.42 Z" fill="#000000" fill-rule="nonzero" fill-opacity="1" /><path clip-path="url(#clip810)" d="M1324.69 1246.43 L1315.09 1261.42 L1324.69 1261.42 L1324.69 1246.43 M1323.69 1243.12 L1328.47 1243.12 L1328.47 1261.42 L1332.47 1261.42 L1332.47 1264.58 L1328.47 1264.58 L1328.47 1271.2 L1324.69 1271.2 L1324.69 1264.58 L1312.01 1264.58 L1312.01 1260.91 L1323.69 1243.12 Z" fill="#000000" fill-rule="nonzero" fill-opacity="1" /><path clip-path="url(#clip810)" d="M1611.84 1264.05 L1630.2 1264.05 L1630.2 1267.99 L1616.12 1267.99 L1616.12 1276.46 Q1617.14 1276.11 1618.16 1275.95 Q1619.18 1275.76 1620.2 1275.76 Q1625.98 1275.76 1629.36 1278.93 Q1632.74 1282.11 1632.74 1287.52 Q1632.74 1293.1 1629.27 1296.2 Q1625.8 1299.28 1619.48 1299.28 Q1617.3 1299.28 1615.03 1298.91 Q1612.79 1298.54 1610.38 1297.8 L1610.38 1293.1 Q1612.47 1294.23 1614.69 1294.79 Q1616.91 1295.35 1619.39 1295.35 Q1623.39 1295.35 1625.73 1293.24 Q1628.07 1291.13 1628.07 1287.52 Q1628.07 1283.91 1625.73 1281.8 Q1623.39 1279.7 1619.39 1279.7 Q1617.51 1279.7 1615.64 1280.11 Q1613.78 1280.53 1611.84 1281.41 L1611.84 1264.05 Z" fill="#000000" fill-rule="nonzero" fill-opacity="1" /><path clip-path="url(#clip810)" d="M1641.96 1292.73 L1646.84 1292.73 L1646.84 1298.61 L1641.96 1298.61 L1641.96 1292.73 Z" fill="#000000" fill-rule="nonzero" fill-opacity="1" /><path clip-path="url(#clip810)" d="M1667.03 1267.13 Q1663.41 1267.13 1661.59 1270.69 Q1659.78 1274.24 1659.78 1281.36 Q1659.78 1288.47 1661.59 1292.04 Q1663.41 1295.58 1667.03 1295.58 Q1670.66 1295.58 1672.47 1292.04 Q1674.29 1288.47 1674.29 1281.36 Q1674.29 1274.24 1672.47 1270.69 Q1670.66 1267.13 1667.03 1267.13 M1667.03 1263.42 Q1672.84 1263.42 1675.89 1268.03 Q1678.97 1272.61 1678.97 1281.36 Q1678.97 1290.09 1675.89 1294.7 Q1672.84 1299.28 1667.03 1299.28 Q1661.22 1299.28 1658.14 1294.7 Q1655.08 1290.09 1655.08 1281.36 Q1655.08 1272.61 1658.14 1268.03 Q1661.22 1263.42 1667.03 1263.42 Z" fill="#000000" fill-rule="nonzero" fill-opacity="1" /><path clip-path="url(#clip810)" d="M1715.36 1273.15 L1704.78 1283.77 L1715.36 1294.35 L1712.6 1297.15 L1701.98 1286.53 L1691.35 1297.15 L1688.62 1294.35 L1699.18 1283.77 L1688.62 1273.15 L1691.35 1270.35 L1701.98 1280.97 L1712.6 1270.35 L1715.36 1273.15 Z" fill="#000000" fill-rule="nonzero" fill-opacity="1" /><path clip-path="url(#clip810)" d="M1727.72 1294.67 L1735.36 1294.67 L1735.36 1268.31 L1727.05 1269.98 L1727.05 1265.72 L1735.31 1264.05 L1739.99 1264.05 L1739.99 1294.67 L1747.63 1294.67 L1747.63 1298.61 L1727.72 1298.61 L1727.72 1294.67 Z" fill="#000000" fill-rule="nonzero" fill-opacity="1" /><path clip-path="url(#clip810)" d="M1767.07 1267.13 Q1763.46 1267.13 1761.63 1270.69 Q1759.83 1274.24 1759.83 1281.36 Q1759.83 1288.47 1761.63 1292.04 Q1763.46 1295.58 1767.07 1295.58 Q1770.71 1295.58 1772.51 1292.04 Q1774.34 1288.47 1774.34 1281.36 Q1774.34 1274.24 1772.51 1270.69 Q1770.71 1267.13 1767.07 1267.13 M1767.07 1263.42 Q1772.88 1263.42 1775.94 1268.03 Q1779.02 1272.61 1779.02 1281.36 Q1779.02 1290.09 1775.94 1294.7 Q1772.88 1299.28 1767.07 1299.28 Q1761.26 1299.28 1758.18 1294.7 Q1755.13 1290.09 1755.13 1281.36 Q1755.13 1272.61 1758.18 1268.03 Q1761.26 1263.42 1767.07 1263.42 Z" fill="#000000" fill-rule="nonzero" fill-opacity="1" /><path clip-path="url(#clip810)" d="M1791.69 1246.43 L1782.1 1261.42 L1791.69 1261.42 L1791.69 1246.43 M1790.7 1243.12 L1795.47 1243.12 L1795.47 1261.42 L1799.48 1261.42 L1799.48 1264.58 L1795.47 1264.58 L1795.47 1271.2 L1791.69 1271.2 L1791.69 1264.58 L1779.02 1264.58 L1779.02 1260.91 L1790.7 1243.12 Z" fill="#000000" fill-rule="nonzero" fill-opacity="1" /><polyline clip-path="url(#clip812)" style="stroke:#000000; stroke-linecap:round; stroke-linejoin:round; stroke-width:2; stroke-opacity:0.1; fill:none" points="199.297,1222.85 2064.76,1222.85 "/>
<polyline clip-path="url(#clip812)" style="stroke:#000000; stroke-linecap:round; stroke-linejoin:round; stroke-width:2; stroke-opacity:0.1; fill:none" points="199.297,932.149 2064.76,932.149 "/>
<polyline clip-path="url(#clip812)" style="stroke:#000000; stroke-linecap:round; stroke-linejoin:round; stroke-width:2; stroke-opacity:0.1; fill:none" points="199.297,641.445 2064.76,641.445 "/>
<polyline clip-path="url(#clip812)" style="stroke:#000000; stroke-linecap:round; stroke-linejoin:round; stroke-width:2; stroke-opacity:0.1; fill:none" points="199.297,350.74 2064.76,350.74 "/>
<polyline clip-path="url(#clip812)" style="stroke:#000000; stroke-linecap:round; stroke-linejoin:round; stroke-width:2; stroke-opacity:0.1; fill:none" points="199.297,60.0351 2064.76,60.0351 "/>
<polyline clip-path="url(#clip810)" style="stroke:#000000; stroke-linecap:round; stroke-linejoin:round; stroke-width:4; stroke-opacity:1; fill:none" points="199.297,1222.85 199.297,47.2441 "/>
<polyline clip-path="url(#clip810)" style="stroke:#000000; stroke-linecap:round; stroke-linejoin:round; stroke-width:4; stroke-opacity:1; fill:none" points="199.297,1222.85 218.194,1222.85 "/>
<polyline clip-path="url(#clip810)" style="stroke:#000000; stroke-linecap:round; stroke-linejoin:round; stroke-width:4; stroke-opacity:1; fill:none" points="199.297,932.149 218.194,932.149 "/>
<polyline clip-path="url(#clip810)" style="stroke:#000000; stroke-linecap:round; stroke-linejoin:round; stroke-width:4; stroke-opacity:1; fill:none" points="199.297,641.445 218.194,641.445 "/>
<polyline clip-path="url(#clip810)" style="stroke:#000000; stroke-linecap:round; stroke-linejoin:round; stroke-width:4; stroke-opacity:1; fill:none" points="199.297,350.74 218.194,350.74 "/>
<polyline clip-path="url(#clip810)" style="stroke:#000000; stroke-linecap:round; stroke-linejoin:round; stroke-width:4; stroke-opacity:1; fill:none" points="199.297,60.0351 218.194,60.0351 "/>
<path clip-path="url(#clip810)" d="M155.672 1208.65 Q152.061 1208.65 150.233 1212.22 Q148.427 1215.76 148.427 1222.89 Q148.427 1230 150.233 1233.56 Q152.061 1237.1 155.672 1237.1 Q159.307 1237.1 161.112 1233.56 Q162.941 1230 162.941 1222.89 Q162.941 1215.76 161.112 1212.22 Q159.307 1208.65 155.672 1208.65 M155.672 1204.95 Q161.482 1204.95 164.538 1209.56 Q167.617 1214.14 167.617 1222.89 Q167.617 1231.62 164.538 1236.22 Q161.482 1240.81 155.672 1240.81 Q149.862 1240.81 146.783 1236.22 Q143.728 1231.62 143.728 1222.89 Q143.728 1214.14 146.783 1209.56 Q149.862 1204.95 155.672 1204.95 Z" fill="#000000" fill-rule="nonzero" fill-opacity="1" /><path clip-path="url(#clip810)" d="M55.9969 945.494 L63.6358 945.494 L63.6358 919.128 L55.3256 920.795 L55.3256 916.536 L63.5895 914.869 L68.2654 914.869 L68.2654 945.494 L75.9042 945.494 L75.9042 949.429 L55.9969 949.429 L55.9969 945.494 Z" fill="#000000" fill-rule="nonzero" fill-opacity="1" /><path clip-path="url(#clip810)" d="M95.3486 917.948 Q91.7375 917.948 89.9088 921.513 Q88.1032 925.054 88.1032 932.184 Q88.1032 939.29 89.9088 942.855 Q91.7375 946.397 95.3486 946.397 Q98.9828 946.397 100.788 942.855 Q102.617 939.29 102.617 932.184 Q102.617 925.054 100.788 921.513 Q98.9828 917.948 95.3486 917.948 M95.3486 914.244 Q101.159 914.244 104.214 918.851 Q107.293 923.434 107.293 932.184 Q107.293 940.911 104.214 945.517 Q101.159 950.101 95.3486 950.101 Q89.5384 950.101 86.4597 945.517 Q83.4042 940.911 83.4042 932.184 Q83.4042 923.434 86.4597 918.851 Q89.5384 914.244 95.3486 914.244 Z" fill="#000000" fill-rule="nonzero" fill-opacity="1" /><path clip-path="url(#clip810)" d="M125.51 917.948 Q121.899 917.948 120.071 921.513 Q118.265 925.054 118.265 932.184 Q118.265 939.29 120.071 942.855 Q121.899 946.397 125.51 946.397 Q129.145 946.397 130.95 942.855 Q132.779 939.29 132.779 932.184 Q132.779 925.054 130.95 921.513 Q129.145 917.948 125.51 917.948 M125.51 914.244 Q131.321 914.244 134.376 918.851 Q137.455 923.434 137.455 932.184 Q137.455 940.911 134.376 945.517 Q131.321 950.101 125.51 950.101 Q119.7 950.101 116.622 945.517 Q113.566 940.911 113.566 932.184 Q113.566 923.434 116.622 918.851 Q119.7 914.244 125.51 914.244 Z" fill="#000000" fill-rule="nonzero" fill-opacity="1" /><path clip-path="url(#clip810)" d="M155.672 917.948 Q152.061 917.948 150.233 921.513 Q148.427 925.054 148.427 932.184 Q148.427 939.29 150.233 942.855 Q152.061 946.397 155.672 946.397 Q159.307 946.397 161.112 942.855 Q162.941 939.29 162.941 932.184 Q162.941 925.054 161.112 921.513 Q159.307 917.948 155.672 917.948 M155.672 914.244 Q161.482 914.244 164.538 918.851 Q167.617 923.434 167.617 932.184 Q167.617 940.911 164.538 945.517 Q161.482 950.101 155.672 950.101 Q149.862 950.101 146.783 945.517 Q143.728 940.911 143.728 932.184 Q143.728 923.434 146.783 918.851 Q149.862 914.244 155.672 914.244 Z" fill="#000000" fill-rule="nonzero" fill-opacity="1" /><path clip-path="url(#clip810)" d="M59.2145 654.789 L75.5339 654.789 L75.5339 658.725 L53.5895 658.725 L53.5895 654.789 Q56.2515 652.035 60.8349 647.405 Q65.4413 642.752 66.6219 641.41 Q68.8672 638.887 69.7468 637.151 Q70.6496 635.391 70.6496 633.701 Q70.6496 630.947 68.7052 629.211 Q66.7839 627.475 63.6821 627.475 Q61.483 627.475 59.0293 628.239 Q56.5988 629.002 53.821 630.553 L53.821 625.831 Q56.6451 624.697 59.0988 624.118 Q61.5524 623.54 63.5895 623.54 Q68.9598 623.54 72.1542 626.225 Q75.3487 628.91 75.3487 633.401 Q75.3487 635.53 74.5385 637.451 Q73.7515 639.35 71.645 641.942 Q71.0663 642.613 67.9645 645.831 Q64.8626 649.025 59.2145 654.789 Z" fill="#000000" fill-rule="nonzero" fill-opacity="1" /><path clip-path="url(#clip810)" d="M95.3486 627.243 Q91.7375 627.243 89.9088 630.808 Q88.1032 634.35 88.1032 641.479 Q88.1032 648.586 89.9088 652.15 Q91.7375 655.692 95.3486 655.692 Q98.9828 655.692 100.788 652.15 Q102.617 648.586 102.617 641.479 Q102.617 634.35 100.788 630.808 Q98.9828 627.243 95.3486 627.243 M95.3486 623.54 Q101.159 623.54 104.214 628.146 Q107.293 632.729 107.293 641.479 Q107.293 650.206 104.214 654.812 Q101.159 659.396 95.3486 659.396 Q89.5384 659.396 86.4597 654.812 Q83.4042 650.206 83.4042 641.479 Q83.4042 632.729 86.4597 628.146 Q89.5384 623.54 95.3486 623.54 Z" fill="#000000" fill-rule="nonzero" fill-opacity="1" /><path clip-path="url(#clip810)" d="M125.51 627.243 Q121.899 627.243 120.071 630.808 Q118.265 634.35 118.265 641.479 Q118.265 648.586 120.071 652.15 Q121.899 655.692 125.51 655.692 Q129.145 655.692 130.95 652.15 Q132.779 648.586 132.779 641.479 Q132.779 634.35 130.95 630.808 Q129.145 627.243 125.51 627.243 M125.51 623.54 Q131.321 623.54 134.376 628.146 Q137.455 632.729 137.455 641.479 Q137.455 650.206 134.376 654.812 Q131.321 659.396 125.51 659.396 Q119.7 659.396 116.622 654.812 Q113.566 650.206 113.566 641.479 Q113.566 632.729 116.622 628.146 Q119.7 623.54 125.51 623.54 Z" fill="#000000" fill-rule="nonzero" fill-opacity="1" /><path clip-path="url(#clip810)" d="M155.672 627.243 Q152.061 627.243 150.233 630.808 Q148.427 634.35 148.427 641.479 Q148.427 648.586 150.233 652.15 Q152.061 655.692 155.672 655.692 Q159.307 655.692 161.112 652.15 Q162.941 648.586 162.941 641.479 Q162.941 634.35 161.112 630.808 Q159.307 627.243 155.672 627.243 M155.672 623.54 Q161.482 623.54 164.538 628.146 Q167.617 632.729 167.617 641.479 Q167.617 650.206 164.538 654.812 Q161.482 659.396 155.672 659.396 Q149.862 659.396 146.783 654.812 Q143.728 650.206 143.728 641.479 Q143.728 632.729 146.783 628.146 Q149.862 623.54 155.672 623.54 Z" fill="#000000" fill-rule="nonzero" fill-opacity="1" /><path clip-path="url(#clip810)" d="M69.3533 349.386 Q72.7098 350.103 74.5848 352.372 Q76.4829 354.64 76.4829 357.974 Q76.4829 363.089 72.9644 365.89 Q69.4459 368.691 62.9645 368.691 Q60.7886 368.691 58.4738 368.251 Q56.1821 367.835 53.7284 366.978 L53.7284 362.464 Q55.6728 363.599 57.9877 364.177 Q60.3025 364.756 62.8256 364.756 Q67.2237 364.756 69.5154 363.02 Q71.8302 361.284 71.8302 357.974 Q71.8302 354.918 69.6774 353.205 Q67.5478 351.469 63.7284 351.469 L59.7006 351.469 L59.7006 347.626 L63.9135 347.626 Q67.3626 347.626 69.1913 346.261 Q71.02 344.872 71.02 342.279 Q71.02 339.617 69.1219 338.205 Q67.2469 336.77 63.7284 336.77 Q61.8071 336.77 59.608 337.187 Q57.409 337.603 54.7701 338.483 L54.7701 334.316 Q57.4321 333.576 59.7469 333.205 Q62.0849 332.835 64.145 332.835 Q69.4691 332.835 72.5709 335.265 Q75.6727 337.673 75.6727 341.793 Q75.6727 344.663 74.0292 346.654 Q72.3857 348.622 69.3533 349.386 Z" fill="#000000" fill-rule="nonzero" fill-opacity="1" /><path clip-path="url(#clip810)" d="M95.3486 336.538 Q91.7375 336.538 89.9088 340.103 Q88.1032 343.645 88.1032 350.775 Q88.1032 357.881 89.9088 361.446 Q91.7375 364.987 95.3486 364.987 Q98.9828 364.987 100.788 361.446 Q102.617 357.881 102.617 350.775 Q102.617 343.645 100.788 340.103 Q98.9828 336.538 95.3486 336.538 M95.3486 332.835 Q101.159 332.835 104.214 337.441 Q107.293 342.025 107.293 350.775 Q107.293 359.501 104.214 364.108 Q101.159 368.691 95.3486 368.691 Q89.5384 368.691 86.4597 364.108 Q83.4042 359.501 83.4042 350.775 Q83.4042 342.025 86.4597 337.441 Q89.5384 332.835 95.3486 332.835 Z" fill="#000000" fill-rule="nonzero" fill-opacity="1" /><path clip-path="url(#clip810)" d="M125.51 336.538 Q121.899 336.538 120.071 340.103 Q118.265 343.645 118.265 350.775 Q118.265 357.881 120.071 361.446 Q121.899 364.987 125.51 364.987 Q129.145 364.987 130.95 361.446 Q132.779 357.881 132.779 350.775 Q132.779 343.645 130.95 340.103 Q129.145 336.538 125.51 336.538 M125.51 332.835 Q131.321 332.835 134.376 337.441 Q137.455 342.025 137.455 350.775 Q137.455 359.501 134.376 364.108 Q131.321 368.691 125.51 368.691 Q119.7 368.691 116.622 364.108 Q113.566 359.501 113.566 350.775 Q113.566 342.025 116.622 337.441 Q119.7 332.835 125.51 332.835 Z" fill="#000000" fill-rule="nonzero" fill-opacity="1" /><path clip-path="url(#clip810)" d="M155.672 336.538 Q152.061 336.538 150.233 340.103 Q148.427 343.645 148.427 350.775 Q148.427 357.881 150.233 361.446 Q152.061 364.987 155.672 364.987 Q159.307 364.987 161.112 361.446 Q162.941 357.881 162.941 350.775 Q162.941 343.645 161.112 340.103 Q159.307 336.538 155.672 336.538 M155.672 332.835 Q161.482 332.835 164.538 337.441 Q167.617 342.025 167.617 350.775 Q167.617 359.501 164.538 364.108 Q161.482 368.691 155.672 368.691 Q149.862 368.691 146.783 364.108 Q143.728 359.501 143.728 350.775 Q143.728 342.025 146.783 337.441 Q149.862 332.835 155.672 332.835 Z" fill="#000000" fill-rule="nonzero" fill-opacity="1" /><path clip-path="url(#clip810)" d="M68.0339 46.8292 L56.2284 65.2781 L68.0339 65.2781 L68.0339 46.8292 M66.807 42.7551 L72.6866 42.7551 L72.6866 65.2781 L77.6172 65.2781 L77.6172 69.167 L72.6866 69.167 L72.6866 77.3151 L68.0339 77.3151 L68.0339 69.167 L52.4321 69.167 L52.4321 64.6531 L66.807 42.7551 Z" fill="#000000" fill-rule="nonzero" fill-opacity="1" /><path clip-path="url(#clip810)" d="M95.3486 45.8338 Q91.7375 45.8338 89.9088 49.3986 Q88.1032 52.9402 88.1032 60.0698 Q88.1032 67.1763 89.9088 70.7411 Q91.7375 74.2827 95.3486 74.2827 Q98.9828 74.2827 100.788 70.7411 Q102.617 67.1763 102.617 60.0698 Q102.617 52.9402 100.788 49.3986 Q98.9828 45.8338 95.3486 45.8338 M95.3486 42.1301 Q101.159 42.1301 104.214 46.7366 Q107.293 51.3199 107.293 60.0698 Q107.293 68.7966 104.214 73.4031 Q101.159 77.9864 95.3486 77.9864 Q89.5384 77.9864 86.4597 73.4031 Q83.4042 68.7966 83.4042 60.0698 Q83.4042 51.3199 86.4597 46.7366 Q89.5384 42.1301 95.3486 42.1301 Z" fill="#000000" fill-rule="nonzero" fill-opacity="1" /><path clip-path="url(#clip810)" d="M125.51 45.8338 Q121.899 45.8338 120.071 49.3986 Q118.265 52.9402 118.265 60.0698 Q118.265 67.1763 120.071 70.7411 Q121.899 74.2827 125.51 74.2827 Q129.145 74.2827 130.95 70.7411 Q132.779 67.1763 132.779 60.0698 Q132.779 52.9402 130.95 49.3986 Q129.145 45.8338 125.51 45.8338 M125.51 42.1301 Q131.321 42.1301 134.376 46.7366 Q137.455 51.3199 137.455 60.0698 Q137.455 68.7966 134.376 73.4031 Q131.321 77.9864 125.51 77.9864 Q119.7 77.9864 116.622 73.4031 Q113.566 68.7966 113.566 60.0698 Q113.566 51.3199 116.622 46.7366 Q119.7 42.1301 125.51 42.1301 Z" fill="#000000" fill-rule="nonzero" fill-opacity="1" /><path clip-path="url(#clip810)" d="M155.672 45.8338 Q152.061 45.8338 150.233 49.3986 Q148.427 52.9402 148.427 60.0698 Q148.427 67.1763 150.233 70.7411 Q152.061 74.2827 155.672 74.2827 Q159.307 74.2827 161.112 70.7411 Q162.941 67.1763 162.941 60.0698 Q162.941 52.9402 161.112 49.3986 Q159.307 45.8338 155.672 45.8338 M155.672 42.1301 Q161.482 42.1301 164.538 46.7366 Q167.617 51.3199 167.617 60.0698 Q167.617 68.7966 164.538 73.4031 Q161.482 77.9864 155.672 77.9864 Q149.862 77.9864 146.783 73.4031 Q143.728 68.7966 143.728 60.0698 Q143.728 51.3199 146.783 46.7366 Q149.862 42.1301 155.672 42.1301 Z" fill="#000000" fill-rule="nonzero" fill-opacity="1" /><path clip-path="url(#clip812)" d="M301.9 1214.42 L301.9 1222.85 L325.284 1222.85 L325.284 1214.42 L301.9 1214.42 L301.9 1214.42  Z" fill="#009af9" fill-rule="evenodd" fill-opacity="1"/>
<polyline clip-path="url(#clip812)" style="stroke:#000000; stroke-linecap:round; stroke-linejoin:round; stroke-width:4; stroke-opacity:1; fill:none" points="301.9,1214.42 301.9,1222.85 325.284,1222.85 325.284,1214.42 301.9,1214.42 "/>
<path clip-path="url(#clip812)" d="M325.284 1175.18 L325.284 1222.85 L348.668 1222.85 L348.668 1175.18 L325.284 1175.18 L325.284 1175.18  Z" fill="#009af9" fill-rule="evenodd" fill-opacity="1"/>
<polyline clip-path="url(#clip812)" style="stroke:#000000; stroke-linecap:round; stroke-linejoin:round; stroke-width:4; stroke-opacity:1; fill:none" points="325.284,1175.18 325.284,1222.85 348.668,1222.85 348.668,1175.18 325.284,1175.18 "/>
<path clip-path="url(#clip812)" d="M348.668 1148.72 L348.668 1222.85 L372.052 1222.85 L372.052 1148.72 L348.668 1148.72 L348.668 1148.72  Z" fill="#009af9" fill-rule="evenodd" fill-opacity="1"/>
<polyline clip-path="url(#clip812)" style="stroke:#000000; stroke-linecap:round; stroke-linejoin:round; stroke-width:4; stroke-opacity:1; fill:none" points="348.668,1148.72 348.668,1222.85 372.052,1222.85 372.052,1148.72 348.668,1148.72 "/>
<path clip-path="url(#clip812)" d="M372.052 1129.25 L372.052 1222.85 L395.436 1222.85 L395.436 1129.25 L372.052 1129.25 L372.052 1129.25  Z" fill="#009af9" fill-rule="evenodd" fill-opacity="1"/>
<polyline clip-path="url(#clip812)" style="stroke:#000000; stroke-linecap:round; stroke-linejoin:round; stroke-width:4; stroke-opacity:1; fill:none" points="372.052,1129.25 372.052,1222.85 395.436,1222.85 395.436,1129.25 372.052,1129.25 "/>
<path clip-path="url(#clip812)" d="M395.436 1120.53 L395.436 1222.85 L418.819 1222.85 L418.819 1120.53 L395.436 1120.53 L395.436 1120.53  Z" fill="#009af9" fill-rule="evenodd" fill-opacity="1"/>
<polyline clip-path="url(#clip812)" style="stroke:#000000; stroke-linecap:round; stroke-linejoin:round; stroke-width:4; stroke-opacity:1; fill:none" points="395.436,1120.53 395.436,1222.85 418.819,1222.85 418.819,1120.53 395.436,1120.53 "/>
<path clip-path="url(#clip812)" d="M418.819 1075.47 L418.819 1222.85 L442.203 1222.85 L442.203 1075.47 L418.819 1075.47 L418.819 1075.47  Z" fill="#009af9" fill-rule="evenodd" fill-opacity="1"/>
<polyline clip-path="url(#clip812)" style="stroke:#000000; stroke-linecap:round; stroke-linejoin:round; stroke-width:4; stroke-opacity:1; fill:none" points="418.819,1075.47 418.819,1222.85 442.203,1222.85 442.203,1075.47 418.819,1075.47 "/>
<path clip-path="url(#clip812)" d="M442.203 1044.36 L442.203 1222.85 L465.587 1222.85 L465.587 1044.36 L442.203 1044.36 L442.203 1044.36  Z" fill="#009af9" fill-rule="evenodd" fill-opacity="1"/>
<polyline clip-path="url(#clip812)" style="stroke:#000000; stroke-linecap:round; stroke-linejoin:round; stroke-width:4; stroke-opacity:1; fill:none" points="442.203,1044.36 442.203,1222.85 465.587,1222.85 465.587,1044.36 442.203,1044.36 "/>
<path clip-path="url(#clip812)" d="M465.587 1017.33 L465.587 1222.85 L488.971 1222.85 L488.971 1017.33 L465.587 1017.33 L465.587 1017.33  Z" fill="#009af9" fill-rule="evenodd" fill-opacity="1"/>
<polyline clip-path="url(#clip812)" style="stroke:#000000; stroke-linecap:round; stroke-linejoin:round; stroke-width:4; stroke-opacity:1; fill:none" points="465.587,1017.33 465.587,1222.85 488.971,1222.85 488.971,1017.33 465.587,1017.33 "/>
<path clip-path="url(#clip812)" d="M488.971 981.569 L488.971 1222.85 L512.355 1222.85 L512.355 981.569 L488.971 981.569 L488.971 981.569  Z" fill="#009af9" fill-rule="evenodd" fill-opacity="1"/>
<polyline clip-path="url(#clip812)" style="stroke:#000000; stroke-linecap:round; stroke-linejoin:round; stroke-width:4; stroke-opacity:1; fill:none" points="488.971,981.569 488.971,1222.85 512.355,1222.85 512.355,981.569 488.971,981.569 "/>
<path clip-path="url(#clip812)" d="M512.355 942.324 L512.355 1222.85 L535.739 1222.85 L535.739 942.324 L512.355 942.324 L512.355 942.324  Z" fill="#009af9" fill-rule="evenodd" fill-opacity="1"/>
<polyline clip-path="url(#clip812)" style="stroke:#000000; stroke-linecap:round; stroke-linejoin:round; stroke-width:4; stroke-opacity:1; fill:none" points="512.355,942.324 512.355,1222.85 535.739,1222.85 535.739,942.324 512.355,942.324 "/>
<path clip-path="url(#clip812)" d="M535.739 888.544 L535.739 1222.85 L559.122 1222.85 L559.122 888.544 L535.739 888.544 L535.739 888.544  Z" fill="#009af9" fill-rule="evenodd" fill-opacity="1"/>
<polyline clip-path="url(#clip812)" style="stroke:#000000; stroke-linecap:round; stroke-linejoin:round; stroke-width:4; stroke-opacity:1; fill:none" points="535.739,888.544 535.739,1222.85 559.122,1222.85 559.122,888.544 535.739,888.544 "/>
<path clip-path="url(#clip812)" d="M559.122 812.96 L559.122 1222.85 L582.506 1222.85 L582.506 812.96 L559.122 812.96 L559.122 812.96  Z" fill="#009af9" fill-rule="evenodd" fill-opacity="1"/>
<polyline clip-path="url(#clip812)" style="stroke:#000000; stroke-linecap:round; stroke-linejoin:round; stroke-width:4; stroke-opacity:1; fill:none" points="559.122,812.96 559.122,1222.85 582.506,1222.85 582.506,812.96 559.122,812.96 "/>
<path clip-path="url(#clip812)" d="M582.506 765.575 L582.506 1222.85 L605.89 1222.85 L605.89 765.575 L582.506 765.575 L582.506 765.575  Z" fill="#009af9" fill-rule="evenodd" fill-opacity="1"/>
<polyline clip-path="url(#clip812)" style="stroke:#000000; stroke-linecap:round; stroke-linejoin:round; stroke-width:4; stroke-opacity:1; fill:none" points="582.506,765.575 582.506,1222.85 605.89,1222.85 605.89,765.575 582.506,765.575 "/>
<path clip-path="url(#clip812)" d="M605.89 705.4 L605.89 1222.85 L629.274 1222.85 L629.274 705.4 L605.89 705.4 L605.89 705.4  Z" fill="#009af9" fill-rule="evenodd" fill-opacity="1"/>
<polyline clip-path="url(#clip812)" style="stroke:#000000; stroke-linecap:round; stroke-linejoin:round; stroke-width:4; stroke-opacity:1; fill:none" points="605.89,705.4 605.89,1222.85 629.274,1222.85 629.274,705.4 605.89,705.4 "/>
<path clip-path="url(#clip812)" d="M629.274 637.084 L629.274 1222.85 L652.658 1222.85 L652.658 637.084 L629.274 637.084 L629.274 637.084  Z" fill="#009af9" fill-rule="evenodd" fill-opacity="1"/>
<polyline clip-path="url(#clip812)" style="stroke:#000000; stroke-linecap:round; stroke-linejoin:round; stroke-width:4; stroke-opacity:1; fill:none" points="629.274,637.084 629.274,1222.85 652.658,1222.85 652.658,637.084 629.274,637.084 "/>
<path clip-path="url(#clip812)" d="M652.658 558.012 L652.658 1222.85 L676.042 1222.85 L676.042 558.012 L652.658 558.012 L652.658 558.012  Z" fill="#009af9" fill-rule="evenodd" fill-opacity="1"/>
<polyline clip-path="url(#clip812)" style="stroke:#000000; stroke-linecap:round; stroke-linejoin:round; stroke-width:4; stroke-opacity:1; fill:none" points="652.658,558.012 652.658,1222.85 676.042,1222.85 676.042,558.012 652.658,558.012 "/>
<path clip-path="url(#clip812)" d="M676.042 494.639 L676.042 1222.85 L699.425 1222.85 L699.425 494.639 L676.042 494.639 L676.042 494.639  Z" fill="#009af9" fill-rule="evenodd" fill-opacity="1"/>
<polyline clip-path="url(#clip812)" style="stroke:#000000; stroke-linecap:round; stroke-linejoin:round; stroke-width:4; stroke-opacity:1; fill:none" points="676.042,494.639 676.042,1222.85 699.425,1222.85 699.425,494.639 676.042,494.639 "/>
<path clip-path="url(#clip812)" d="M699.425 412.66 L699.425 1222.85 L722.809 1222.85 L722.809 412.66 L699.425 412.66 L699.425 412.66  Z" fill="#009af9" fill-rule="evenodd" fill-opacity="1"/>
<polyline clip-path="url(#clip812)" style="stroke:#000000; stroke-linecap:round; stroke-linejoin:round; stroke-width:4; stroke-opacity:1; fill:none" points="699.425,412.66 699.425,1222.85 722.809,1222.85 722.809,412.66 699.425,412.66 "/>
<path clip-path="url(#clip812)" d="M722.809 336.495 L722.809 1222.85 L746.193 1222.85 L746.193 336.495 L722.809 336.495 L722.809 336.495  Z" fill="#009af9" fill-rule="evenodd" fill-opacity="1"/>
<polyline clip-path="url(#clip812)" style="stroke:#000000; stroke-linecap:round; stroke-linejoin:round; stroke-width:4; stroke-opacity:1; fill:none" points="722.809,336.495 722.809,1222.85 746.193,1222.85 746.193,336.495 722.809,336.495 "/>
<path clip-path="url(#clip812)" d="M746.193 284.168 L746.193 1222.85 L769.577 1222.85 L769.577 284.168 L746.193 284.168 L746.193 284.168  Z" fill="#009af9" fill-rule="evenodd" fill-opacity="1"/>
<polyline clip-path="url(#clip812)" style="stroke:#000000; stroke-linecap:round; stroke-linejoin:round; stroke-width:4; stroke-opacity:1; fill:none" points="746.193,284.168 746.193,1222.85 769.577,1222.85 769.577,284.168 746.193,284.168 "/>
<path clip-path="url(#clip812)" d="M769.577 242.016 L769.577 1222.85 L792.961 1222.85 L792.961 242.016 L769.577 242.016 L769.577 242.016  Z" fill="#009af9" fill-rule="evenodd" fill-opacity="1"/>
<polyline clip-path="url(#clip812)" style="stroke:#000000; stroke-linecap:round; stroke-linejoin:round; stroke-width:4; stroke-opacity:1; fill:none" points="769.577,242.016 769.577,1222.85 792.961,1222.85 792.961,242.016 769.577,242.016 "/>
<path clip-path="url(#clip812)" d="M792.961 168.468 L792.961 1222.85 L816.345 1222.85 L816.345 168.468 L792.961 168.468 L792.961 168.468  Z" fill="#009af9" fill-rule="evenodd" fill-opacity="1"/>
<polyline clip-path="url(#clip812)" style="stroke:#000000; stroke-linecap:round; stroke-linejoin:round; stroke-width:4; stroke-opacity:1; fill:none" points="792.961,168.468 792.961,1222.85 816.345,1222.85 816.345,168.468 792.961,168.468 "/>
<path clip-path="url(#clip812)" d="M816.345 128.351 L816.345 1222.85 L839.728 1222.85 L839.728 128.351 L816.345 128.351 L816.345 128.351  Z" fill="#009af9" fill-rule="evenodd" fill-opacity="1"/>
<polyline clip-path="url(#clip812)" style="stroke:#000000; stroke-linecap:round; stroke-linejoin:round; stroke-width:4; stroke-opacity:1; fill:none" points="816.345,128.351 816.345,1222.85 839.728,1222.85 839.728,128.351 816.345,128.351 "/>
<path clip-path="url(#clip812)" d="M839.728 84.4543 L839.728 1222.85 L863.112 1222.85 L863.112 84.4543 L839.728 84.4543 L839.728 84.4543  Z" fill="#009af9" fill-rule="evenodd" fill-opacity="1"/>
<polyline clip-path="url(#clip812)" style="stroke:#000000; stroke-linecap:round; stroke-linejoin:round; stroke-width:4; stroke-opacity:1; fill:none" points="839.728,84.4543 839.728,1222.85 863.112,1222.85 863.112,84.4543 839.728,84.4543 "/>
<path clip-path="url(#clip812)" d="M863.112 74.861 L863.112 1222.85 L886.496 1222.85 L886.496 74.861 L863.112 74.861 L863.112 74.861  Z" fill="#009af9" fill-rule="evenodd" fill-opacity="1"/>
<polyline clip-path="url(#clip812)" style="stroke:#000000; stroke-linecap:round; stroke-linejoin:round; stroke-width:4; stroke-opacity:1; fill:none" points="863.112,74.861 863.112,1222.85 886.496,1222.85 886.496,74.861 863.112,74.861 "/>
<path clip-path="url(#clip812)" d="M886.496 47.2441 L886.496 1222.85 L909.88 1222.85 L909.88 47.2441 L886.496 47.2441 L886.496 47.2441  Z" fill="#009af9" fill-rule="evenodd" fill-opacity="1"/>
<polyline clip-path="url(#clip812)" style="stroke:#000000; stroke-linecap:round; stroke-linejoin:round; stroke-width:4; stroke-opacity:1; fill:none" points="886.496,47.2441 886.496,1222.85 909.88,1222.85 909.88,47.2441 886.496,47.2441 "/>
<path clip-path="url(#clip812)" d="M909.88 49.8604 L909.88 1222.85 L933.264 1222.85 L933.264 49.8604 L909.88 49.8604 L909.88 49.8604  Z" fill="#009af9" fill-rule="evenodd" fill-opacity="1"/>
<polyline clip-path="url(#clip812)" style="stroke:#000000; stroke-linecap:round; stroke-linejoin:round; stroke-width:4; stroke-opacity:1; fill:none" points="909.88,49.8604 909.88,1222.85 933.264,1222.85 933.264,49.8604 909.88,49.8604 "/>
<path clip-path="url(#clip812)" d="M933.264 87.0706 L933.264 1222.85 L956.648 1222.85 L956.648 87.0706 L933.264 87.0706 L933.264 87.0706  Z" fill="#009af9" fill-rule="evenodd" fill-opacity="1"/>
<polyline clip-path="url(#clip812)" style="stroke:#000000; stroke-linecap:round; stroke-linejoin:round; stroke-width:4; stroke-opacity:1; fill:none" points="933.264,87.0706 933.264,1222.85 956.648,1222.85 956.648,87.0706 933.264,87.0706 "/>
<path clip-path="url(#clip812)" d="M956.648 83.8729 L956.648 1222.85 L980.031 1222.85 L980.031 83.8729 L956.648 83.8729 L956.648 83.8729  Z" fill="#009af9" fill-rule="evenodd" fill-opacity="1"/>
<polyline clip-path="url(#clip812)" style="stroke:#000000; stroke-linecap:round; stroke-linejoin:round; stroke-width:4; stroke-opacity:1; fill:none" points="956.648,83.8729 956.648,1222.85 980.031,1222.85 980.031,83.8729 956.648,83.8729 "/>
<path clip-path="url(#clip812)" d="M980.031 145.212 L980.031 1222.85 L1003.42 1222.85 L1003.42 145.212 L980.031 145.212 L980.031 145.212  Z" fill="#009af9" fill-rule="evenodd" fill-opacity="1"/>
<polyline clip-path="url(#clip812)" style="stroke:#000000; stroke-linecap:round; stroke-linejoin:round; stroke-width:4; stroke-opacity:1; fill:none" points="980.031,145.212 980.031,1222.85 1003.42,1222.85 1003.42,145.212 980.031,145.212 "/>
<path clip-path="url(#clip812)" d="M1003.42 137.653 L1003.42 1222.85 L1026.8 1222.85 L1026.8 137.653 L1003.42 137.653 L1003.42 137.653  Z" fill="#009af9" fill-rule="evenodd" fill-opacity="1"/>
<polyline clip-path="url(#clip812)" style="stroke:#000000; stroke-linecap:round; stroke-linejoin:round; stroke-width:4; stroke-opacity:1; fill:none" points="1003.42,137.653 1003.42,1222.85 1026.8,1222.85 1026.8,137.653 1003.42,137.653 "/>
<path clip-path="url(#clip812)" d="M1026.8 188.817 L1026.8 1222.85 L1050.18 1222.85 L1050.18 188.817 L1026.8 188.817 L1026.8 188.817  Z" fill="#009af9" fill-rule="evenodd" fill-opacity="1"/>
<polyline clip-path="url(#clip812)" style="stroke:#000000; stroke-linecap:round; stroke-linejoin:round; stroke-width:4; stroke-opacity:1; fill:none" points="1026.8,188.817 1026.8,1222.85 1050.18,1222.85 1050.18,188.817 1026.8,188.817 "/>
<path clip-path="url(#clip812)" d="M1050.18 257.714 L1050.18 1222.85 L1073.57 1222.85 L1073.57 257.714 L1050.18 257.714 L1050.18 257.714  Z" fill="#009af9" fill-rule="evenodd" fill-opacity="1"/>
<polyline clip-path="url(#clip812)" style="stroke:#000000; stroke-linecap:round; stroke-linejoin:round; stroke-width:4; stroke-opacity:1; fill:none" points="1050.18,257.714 1050.18,1222.85 1073.57,1222.85 1073.57,257.714 1050.18,257.714 "/>
<path clip-path="url(#clip812)" d="M1073.57 326.611 L1073.57 1222.85 L1096.95 1222.85 L1096.95 326.611 L1073.57 326.611 L1073.57 326.611  Z" fill="#009af9" fill-rule="evenodd" fill-opacity="1"/>
<polyline clip-path="url(#clip812)" style="stroke:#000000; stroke-linecap:round; stroke-linejoin:round; stroke-width:4; stroke-opacity:1; fill:none" points="1073.57,326.611 1073.57,1222.85 1096.95,1222.85 1096.95,326.611 1073.57,326.611 "/>
<path clip-path="url(#clip812)" d="M1096.95 418.474 L1096.95 1222.85 L1120.33 1222.85 L1120.33 418.474 L1096.95 418.474 L1096.95 418.474  Z" fill="#009af9" fill-rule="evenodd" fill-opacity="1"/>
<polyline clip-path="url(#clip812)" style="stroke:#000000; stroke-linecap:round; stroke-linejoin:round; stroke-width:4; stroke-opacity:1; fill:none" points="1096.95,418.474 1096.95,1222.85 1120.33,1222.85 1120.33,418.474 1096.95,418.474 "/>
<path clip-path="url(#clip812)" d="M1120.33 469.638 L1120.33 1222.85 L1143.72 1222.85 L1143.72 469.638 L1120.33 469.638 L1120.33 469.638  Z" fill="#009af9" fill-rule="evenodd" fill-opacity="1"/>
<polyline clip-path="url(#clip812)" style="stroke:#000000; stroke-linecap:round; stroke-linejoin:round; stroke-width:4; stroke-opacity:1; fill:none" points="1120.33,469.638 1120.33,1222.85 1143.72,1222.85 1143.72,469.638 1120.33,469.638 "/>
<path clip-path="url(#clip812)" d="M1143.72 526.907 L1143.72 1222.85 L1167.1 1222.85 L1167.1 526.907 L1143.72 526.907 L1143.72 526.907  Z" fill="#009af9" fill-rule="evenodd" fill-opacity="1"/>
<polyline clip-path="url(#clip812)" style="stroke:#000000; stroke-linecap:round; stroke-linejoin:round; stroke-width:4; stroke-opacity:1; fill:none" points="1143.72,526.907 1143.72,1222.85 1167.1,1222.85 1167.1,526.907 1143.72,526.907 "/>
<path clip-path="url(#clip812)" d="M1167.1 614.409 L1167.1 1222.85 L1190.49 1222.85 L1190.49 614.409 L1167.1 614.409 L1167.1 614.409  Z" fill="#009af9" fill-rule="evenodd" fill-opacity="1"/>
<polyline clip-path="url(#clip812)" style="stroke:#000000; stroke-linecap:round; stroke-linejoin:round; stroke-width:4; stroke-opacity:1; fill:none" points="1167.1,614.409 1167.1,1222.85 1190.49,1222.85 1190.49,614.409 1167.1,614.409 "/>
<path clip-path="url(#clip812)" d="M1190.49 669.061 L1190.49 1222.85 L1213.87 1222.85 L1213.87 669.061 L1190.49 669.061 L1190.49 669.061  Z" fill="#009af9" fill-rule="evenodd" fill-opacity="1"/>
<polyline clip-path="url(#clip812)" style="stroke:#000000; stroke-linecap:round; stroke-linejoin:round; stroke-width:4; stroke-opacity:1; fill:none" points="1190.49,669.061 1190.49,1222.85 1213.87,1222.85 1213.87,669.061 1190.49,669.061 "/>
<path clip-path="url(#clip812)" d="M1213.87 770.808 L1213.87 1222.85 L1237.25 1222.85 L1237.25 770.808 L1213.87 770.808 L1213.87 770.808  Z" fill="#009af9" fill-rule="evenodd" fill-opacity="1"/>
<polyline clip-path="url(#clip812)" style="stroke:#000000; stroke-linecap:round; stroke-linejoin:round; stroke-width:4; stroke-opacity:1; fill:none" points="1213.87,770.808 1213.87,1222.85 1237.25,1222.85 1237.25,770.808 1213.87,770.808 "/>
<path clip-path="url(#clip812)" d="M1237.25 802.495 L1237.25 1222.85 L1260.64 1222.85 L1260.64 802.495 L1237.25 802.495 L1237.25 802.495  Z" fill="#009af9" fill-rule="evenodd" fill-opacity="1"/>
<polyline clip-path="url(#clip812)" style="stroke:#000000; stroke-linecap:round; stroke-linejoin:round; stroke-width:4; stroke-opacity:1; fill:none" points="1237.25,802.495 1237.25,1222.85 1260.64,1222.85 1260.64,802.495 1237.25,802.495 "/>
<path clip-path="url(#clip812)" d="M1260.64 889.706 L1260.64 1222.85 L1284.02 1222.85 L1284.02 889.706 L1260.64 889.706 L1260.64 889.706  Z" fill="#009af9" fill-rule="evenodd" fill-opacity="1"/>
<polyline clip-path="url(#clip812)" style="stroke:#000000; stroke-linecap:round; stroke-linejoin:round; stroke-width:4; stroke-opacity:1; fill:none" points="1260.64,889.706 1260.64,1222.85 1284.02,1222.85 1284.02,889.706 1260.64,889.706 "/>
<path clip-path="url(#clip812)" d="M1284.02 914.416 L1284.02 1222.85 L1307.41 1222.85 L1307.41 914.416 L1284.02 914.416 L1284.02 914.416  Z" fill="#009af9" fill-rule="evenodd" fill-opacity="1"/>
<polyline clip-path="url(#clip812)" style="stroke:#000000; stroke-linecap:round; stroke-linejoin:round; stroke-width:4; stroke-opacity:1; fill:none" points="1284.02,914.416 1284.02,1222.85 1307.41,1222.85 1307.41,914.416 1284.02,914.416 "/>
<path clip-path="url(#clip812)" d="M1307.41 966.452 L1307.41 1222.85 L1330.79 1222.85 L1330.79 966.452 L1307.41 966.452 L1307.41 966.452  Z" fill="#009af9" fill-rule="evenodd" fill-opacity="1"/>
<polyline clip-path="url(#clip812)" style="stroke:#000000; stroke-linecap:round; stroke-linejoin:round; stroke-width:4; stroke-opacity:1; fill:none" points="1307.41,966.452 1307.41,1222.85 1330.79,1222.85 1330.79,966.452 1307.41,966.452 "/>
<path clip-path="url(#clip812)" d="M1330.79 1007.73 L1330.79 1222.85 L1354.17 1222.85 L1354.17 1007.73 L1330.79 1007.73 L1330.79 1007.73  Z" fill="#009af9" fill-rule="evenodd" fill-opacity="1"/>
<polyline clip-path="url(#clip812)" style="stroke:#000000; stroke-linecap:round; stroke-linejoin:round; stroke-width:4; stroke-opacity:1; fill:none" points="1330.79,1007.73 1330.79,1222.85 1354.17,1222.85 1354.17,1007.73 1330.79,1007.73 "/>
<path clip-path="url(#clip812)" d="M1354.17 1047.85 L1354.17 1222.85 L1377.56 1222.85 L1377.56 1047.85 L1354.17 1047.85 L1354.17 1047.85  Z" fill="#009af9" fill-rule="evenodd" fill-opacity="1"/>
<polyline clip-path="url(#clip812)" style="stroke:#000000; stroke-linecap:round; stroke-linejoin:round; stroke-width:4; stroke-opacity:1; fill:none" points="1354.17,1047.85 1354.17,1222.85 1377.56,1222.85 1377.56,1047.85 1354.17,1047.85 "/>
<path clip-path="url(#clip812)" d="M1377.56 1074.01 L1377.56 1222.85 L1400.94 1222.85 L1400.94 1074.01 L1377.56 1074.01 L1377.56 1074.01  Z" fill="#009af9" fill-rule="evenodd" fill-opacity="1"/>
<polyline clip-path="url(#clip812)" style="stroke:#000000; stroke-linecap:round; stroke-linejoin:round; stroke-width:4; stroke-opacity:1; fill:none" points="1377.56,1074.01 1377.56,1222.85 1400.94,1222.85 1400.94,1074.01 1377.56,1074.01 "/>
<path clip-path="url(#clip812)" d="M1400.94 1101.05 L1400.94 1222.85 L1424.32 1222.85 L1424.32 1101.05 L1400.94 1101.05 L1400.94 1101.05  Z" fill="#009af9" fill-rule="evenodd" fill-opacity="1"/>
<polyline clip-path="url(#clip812)" style="stroke:#000000; stroke-linecap:round; stroke-linejoin:round; stroke-width:4; stroke-opacity:1; fill:none" points="1400.94,1101.05 1400.94,1222.85 1424.32,1222.85 1424.32,1101.05 1400.94,1101.05 "/>
<path clip-path="url(#clip812)" d="M1424.32 1135.64 L1424.32 1222.85 L1447.71 1222.85 L1447.71 1135.64 L1424.32 1135.64 L1424.32 1135.64  Z" fill="#009af9" fill-rule="evenodd" fill-opacity="1"/>
<polyline clip-path="url(#clip812)" style="stroke:#000000; stroke-linecap:round; stroke-linejoin:round; stroke-width:4; stroke-opacity:1; fill:none" points="1424.32,1135.64 1424.32,1222.85 1447.71,1222.85 1447.71,1135.64 1424.32,1135.64 "/>
<path clip-path="url(#clip812)" d="M1447.71 1142.91 L1447.71 1222.85 L1471.09 1222.85 L1471.09 1142.91 L1447.71 1142.91 L1447.71 1142.91  Z" fill="#009af9" fill-rule="evenodd" fill-opacity="1"/>
<polyline clip-path="url(#clip812)" style="stroke:#000000; stroke-linecap:round; stroke-linejoin:round; stroke-width:4; stroke-opacity:1; fill:none" points="1447.71,1142.91 1447.71,1222.85 1471.09,1222.85 1471.09,1142.91 1447.71,1142.91 "/>
<path clip-path="url(#clip812)" d="M1471.09 1161.81 L1471.09 1222.85 L1494.48 1222.85 L1494.48 1161.81 L1471.09 1161.81 L1471.09 1161.81  Z" fill="#009af9" fill-rule="evenodd" fill-opacity="1"/>
<polyline clip-path="url(#clip812)" style="stroke:#000000; stroke-linecap:round; stroke-linejoin:round; stroke-width:4; stroke-opacity:1; fill:none" points="1471.09,1161.81 1471.09,1222.85 1494.48,1222.85 1494.48,1161.81 1471.09,1161.81 "/>
<path clip-path="url(#clip812)" d="M1494.48 1174.6 L1494.48 1222.85 L1517.86 1222.85 L1517.86 1174.6 L1494.48 1174.6 L1494.48 1174.6  Z" fill="#009af9" fill-rule="evenodd" fill-opacity="1"/>
<polyline clip-path="url(#clip812)" style="stroke:#000000; stroke-linecap:round; stroke-linejoin:round; stroke-width:4; stroke-opacity:1; fill:none" points="1494.48,1174.6 1494.48,1222.85 1517.86,1222.85 1517.86,1174.6 1494.48,1174.6 "/>
<path clip-path="url(#clip812)" d="M1517.86 1192.91 L1517.86 1222.85 L1541.24 1222.85 L1541.24 1192.91 L1517.86 1192.91 L1517.86 1192.91  Z" fill="#009af9" fill-rule="evenodd" fill-opacity="1"/>
<polyline clip-path="url(#clip812)" style="stroke:#000000; stroke-linecap:round; stroke-linejoin:round; stroke-width:4; stroke-opacity:1; fill:none" points="1517.86,1192.91 1517.86,1222.85 1541.24,1222.85 1541.24,1192.91 1517.86,1192.91 "/>
<path clip-path="url(#clip812)" d="M1541.24 1196.4 L1541.24 1222.85 L1564.63 1222.85 L1564.63 1196.4 L1541.24 1196.4 L1541.24 1196.4  Z" fill="#009af9" fill-rule="evenodd" fill-opacity="1"/>
<polyline clip-path="url(#clip812)" style="stroke:#000000; stroke-linecap:round; stroke-linejoin:round; stroke-width:4; stroke-opacity:1; fill:none" points="1541.24,1196.4 1541.24,1222.85 1564.63,1222.85 1564.63,1196.4 1541.24,1196.4 "/>
<path clip-path="url(#clip812)" d="M1564.63 1199.6 L1564.63 1222.85 L1588.01 1222.85 L1588.01 1199.6 L1564.63 1199.6 L1564.63 1199.6  Z" fill="#009af9" fill-rule="evenodd" fill-opacity="1"/>
<polyline clip-path="url(#clip812)" style="stroke:#000000; stroke-linecap:round; stroke-linejoin:round; stroke-width:4; stroke-opacity:1; fill:none" points="1564.63,1199.6 1564.63,1222.85 1588.01,1222.85 1588.01,1199.6 1564.63,1199.6 "/>
<path clip-path="url(#clip812)" d="M1588.01 1207.16 L1588.01 1222.85 L1611.39 1222.85 L1611.39 1207.16 L1588.01 1207.16 L1588.01 1207.16  Z" fill="#009af9" fill-rule="evenodd" fill-opacity="1"/>
<polyline clip-path="url(#clip812)" style="stroke:#000000; stroke-linecap:round; stroke-linejoin:round; stroke-width:4; stroke-opacity:1; fill:none" points="1588.01,1207.16 1588.01,1222.85 1611.39,1222.85 1611.39,1207.16 1588.01,1207.16 "/>
<path clip-path="url(#clip812)" d="M1611.39 1210.35 L1611.39 1222.85 L1634.78 1222.85 L1634.78 1210.35 L1611.39 1210.35 L1611.39 1210.35  Z" fill="#009af9" fill-rule="evenodd" fill-opacity="1"/>
<polyline clip-path="url(#clip812)" style="stroke:#000000; stroke-linecap:round; stroke-linejoin:round; stroke-width:4; stroke-opacity:1; fill:none" points="1611.39,1210.35 1611.39,1222.85 1634.78,1222.85 1634.78,1210.35 1611.39,1210.35 "/>
<path clip-path="url(#clip812)" d="M1634.78 1216.17 L1634.78 1222.85 L1658.16 1222.85 L1658.16 1216.17 L1634.78 1216.17 L1634.78 1216.17  Z" fill="#009af9" fill-rule="evenodd" fill-opacity="1"/>
<polyline clip-path="url(#clip812)" style="stroke:#000000; stroke-linecap:round; stroke-linejoin:round; stroke-width:4; stroke-opacity:1; fill:none" points="1634.78,1216.17 1634.78,1222.85 1658.16,1222.85 1658.16,1216.17 1634.78,1216.17 "/>
<path clip-path="url(#clip812)" d="M1658.16 1215.88 L1658.16 1222.85 L1681.55 1222.85 L1681.55 1215.88 L1658.16 1215.88 L1658.16 1215.88  Z" fill="#009af9" fill-rule="evenodd" fill-opacity="1"/>
<polyline clip-path="url(#clip812)" style="stroke:#000000; stroke-linecap:round; stroke-linejoin:round; stroke-width:4; stroke-opacity:1; fill:none" points="1658.16,1215.88 1658.16,1222.85 1681.55,1222.85 1681.55,1215.88 1658.16,1215.88 "/>
<path clip-path="url(#clip812)" d="M1681.55 1219.37 L1681.55 1222.85 L1704.93 1222.85 L1704.93 1219.37 L1681.55 1219.37 L1681.55 1219.37  Z" fill="#009af9" fill-rule="evenodd" fill-opacity="1"/>
<polyline clip-path="url(#clip812)" style="stroke:#000000; stroke-linecap:round; stroke-linejoin:round; stroke-width:4; stroke-opacity:1; fill:none" points="1681.55,1219.37 1681.55,1222.85 1704.93,1222.85 1704.93,1219.37 1681.55,1219.37 "/>
<path clip-path="url(#clip812)" d="M1704.93 1218.78 L1704.93 1222.85 L1728.31 1222.85 L1728.31 1218.78 L1704.93 1218.78 L1704.93 1218.78  Z" fill="#009af9" fill-rule="evenodd" fill-opacity="1"/>
<polyline clip-path="url(#clip812)" style="stroke:#000000; stroke-linecap:round; stroke-linejoin:round; stroke-width:4; stroke-opacity:1; fill:none" points="1704.93,1218.78 1704.93,1222.85 1728.31,1222.85 1728.31,1218.78 1704.93,1218.78 "/>
<path clip-path="url(#clip812)" d="M1728.31 1220.53 L1728.31 1222.85 L1751.7 1222.85 L1751.7 1220.53 L1728.31 1220.53 L1728.31 1220.53  Z" fill="#009af9" fill-rule="evenodd" fill-opacity="1"/>
<polyline clip-path="url(#clip812)" style="stroke:#000000; stroke-linecap:round; stroke-linejoin:round; stroke-width:4; stroke-opacity:1; fill:none" points="1728.31,1220.53 1728.31,1222.85 1751.7,1222.85 1751.7,1220.53 1728.31,1220.53 "/>
<path clip-path="url(#clip812)" d="M1751.7 1220.24 L1751.7 1222.85 L1775.08 1222.85 L1775.08 1220.24 L1751.7 1220.24 L1751.7 1220.24  Z" fill="#009af9" fill-rule="evenodd" fill-opacity="1"/>
<polyline clip-path="url(#clip812)" style="stroke:#000000; stroke-linecap:round; stroke-linejoin:round; stroke-width:4; stroke-opacity:1; fill:none" points="1751.7,1220.24 1751.7,1222.85 1775.08,1222.85 1775.08,1220.24 1751.7,1220.24 "/>
<path clip-path="url(#clip812)" d="M1775.08 1221.98 L1775.08 1222.85 L1798.47 1222.85 L1798.47 1221.98 L1775.08 1221.98 L1775.08 1221.98  Z" fill="#009af9" fill-rule="evenodd" fill-opacity="1"/>
<polyline clip-path="url(#clip812)" style="stroke:#000000; stroke-linecap:round; stroke-linejoin:round; stroke-width:4; stroke-opacity:1; fill:none" points="1775.08,1221.98 1775.08,1222.85 1798.47,1222.85 1798.47,1221.98 1775.08,1221.98 "/>
<path clip-path="url(#clip812)" d="M1798.47 1222.27 L1798.47 1222.85 L1821.85 1222.85 L1821.85 1222.27 L1798.47 1222.27 L1798.47 1222.27  Z" fill="#009af9" fill-rule="evenodd" fill-opacity="1"/>
<polyline clip-path="url(#clip812)" style="stroke:#000000; stroke-linecap:round; stroke-linejoin:round; stroke-width:4; stroke-opacity:1; fill:none" points="1798.47,1222.27 1798.47,1222.85 1821.85,1222.85 1821.85,1222.27 1798.47,1222.27 "/>
<path clip-path="url(#clip812)" d="M1821.85 1222.56 L1821.85 1222.85 L1845.23 1222.85 L1845.23 1222.56 L1821.85 1222.56 L1821.85 1222.56  Z" fill="#009af9" fill-rule="evenodd" fill-opacity="1"/>
<polyline clip-path="url(#clip812)" style="stroke:#000000; stroke-linecap:round; stroke-linejoin:round; stroke-width:4; stroke-opacity:1; fill:none" points="1821.85,1222.56 1821.85,1222.85 1845.23,1222.85 1845.23,1222.56 1821.85,1222.56 "/>
<path clip-path="url(#clip812)" d="M1845.23 1222.85 L1845.23 1222.85 L1868.62 1222.85 L1868.62 1222.85 L1845.23 1222.85 L1845.23 1222.85  Z" fill="#009af9" fill-rule="evenodd" fill-opacity="1"/>
<polyline clip-path="url(#clip812)" style="stroke:#000000; stroke-linecap:round; stroke-linejoin:round; stroke-width:4; stroke-opacity:1; fill:none" points="1845.23,1222.85 1845.23,1222.85 1868.62,1222.85 1845.23,1222.85 "/>
<path clip-path="url(#clip812)" d="M1868.62 1222.27 L1868.62 1222.85 L1892 1222.85 L1892 1222.27 L1868.62 1222.27 L1868.62 1222.27  Z" fill="#009af9" fill-rule="evenodd" fill-opacity="1"/>
<polyline clip-path="url(#clip812)" style="stroke:#000000; stroke-linecap:round; stroke-linejoin:round; stroke-width:4; stroke-opacity:1; fill:none" points="1868.62,1222.27 1868.62,1222.85 1892,1222.85 1892,1222.27 1868.62,1222.27 "/>
<path clip-path="url(#clip812)" d="M1892 1222.56 L1892 1222.85 L1915.38 1222.85 L1915.38 1222.56 L1892 1222.56 L1892 1222.56  Z" fill="#009af9" fill-rule="evenodd" fill-opacity="1"/>
<polyline clip-path="url(#clip812)" style="stroke:#000000; stroke-linecap:round; stroke-linejoin:round; stroke-width:4; stroke-opacity:1; fill:none" points="1892,1222.56 1892,1222.85 1915.38,1222.85 1915.38,1222.56 1892,1222.56 "/>
<path clip-path="url(#clip812)" d="M1915.38 1222.85 L1915.38 1222.85 L1938.77 1222.85 L1938.77 1222.85 L1915.38 1222.85 L1915.38 1222.85  Z" fill="#009af9" fill-rule="evenodd" fill-opacity="1"/>
<polyline clip-path="url(#clip812)" style="stroke:#000000; stroke-linecap:round; stroke-linejoin:round; stroke-width:4; stroke-opacity:1; fill:none" points="1915.38,1222.85 1915.38,1222.85 1938.77,1222.85 1915.38,1222.85 "/>
<path clip-path="url(#clip812)" d="M1938.77 1222.56 L1938.77 1222.85 L1962.15 1222.85 L1962.15 1222.56 L1938.77 1222.56 L1938.77 1222.56  Z" fill="#009af9" fill-rule="evenodd" fill-opacity="1"/>
<polyline clip-path="url(#clip812)" style="stroke:#000000; stroke-linecap:round; stroke-linejoin:round; stroke-width:4; stroke-opacity:1; fill:none" points="1938.77,1222.56 1938.77,1222.85 1962.15,1222.85 1962.15,1222.56 1938.77,1222.56 "/>
<circle clip-path="url(#clip812)" style="fill:#009af9; stroke:none; fill-opacity:0" cx="313.592" cy="1214.42" r="2"/>
<circle clip-path="url(#clip812)" style="fill:#009af9; stroke:none; fill-opacity:0" cx="336.976" cy="1175.18" r="2"/>
<circle clip-path="url(#clip812)" style="fill:#009af9; stroke:none; fill-opacity:0" cx="360.36" cy="1148.72" r="2"/>
<circle clip-path="url(#clip812)" style="fill:#009af9; stroke:none; fill-opacity:0" cx="383.744" cy="1129.25" r="2"/>
<circle clip-path="url(#clip812)" style="fill:#009af9; stroke:none; fill-opacity:0" cx="407.128" cy="1120.53" r="2"/>
<circle clip-path="url(#clip812)" style="fill:#009af9; stroke:none; fill-opacity:0" cx="430.511" cy="1075.47" r="2"/>
<circle clip-path="url(#clip812)" style="fill:#009af9; stroke:none; fill-opacity:0" cx="453.895" cy="1044.36" r="2"/>
<circle clip-path="url(#clip812)" style="fill:#009af9; stroke:none; fill-opacity:0" cx="477.279" cy="1017.33" r="2"/>
<circle clip-path="url(#clip812)" style="fill:#009af9; stroke:none; fill-opacity:0" cx="500.663" cy="981.569" r="2"/>
<circle clip-path="url(#clip812)" style="fill:#009af9; stroke:none; fill-opacity:0" cx="524.047" cy="942.324" r="2"/>
<circle clip-path="url(#clip812)" style="fill:#009af9; stroke:none; fill-opacity:0" cx="547.431" cy="888.544" r="2"/>
<circle clip-path="url(#clip812)" style="fill:#009af9; stroke:none; fill-opacity:0" cx="570.814" cy="812.96" r="2"/>
<circle clip-path="url(#clip812)" style="fill:#009af9; stroke:none; fill-opacity:0" cx="594.198" cy="765.575" r="2"/>
<circle clip-path="url(#clip812)" style="fill:#009af9; stroke:none; fill-opacity:0" cx="617.582" cy="705.4" r="2"/>
<circle clip-path="url(#clip812)" style="fill:#009af9; stroke:none; fill-opacity:0" cx="640.966" cy="637.084" r="2"/>
<circle clip-path="url(#clip812)" style="fill:#009af9; stroke:none; fill-opacity:0" cx="664.35" cy="558.012" r="2"/>
<circle clip-path="url(#clip812)" style="fill:#009af9; stroke:none; fill-opacity:0" cx="687.733" cy="494.639" r="2"/>
<circle clip-path="url(#clip812)" style="fill:#009af9; stroke:none; fill-opacity:0" cx="711.117" cy="412.66" r="2"/>
<circle clip-path="url(#clip812)" style="fill:#009af9; stroke:none; fill-opacity:0" cx="734.501" cy="336.495" r="2"/>
<circle clip-path="url(#clip812)" style="fill:#009af9; stroke:none; fill-opacity:0" cx="757.885" cy="284.168" r="2"/>
<circle clip-path="url(#clip812)" style="fill:#009af9; stroke:none; fill-opacity:0" cx="781.269" cy="242.016" r="2"/>
<circle clip-path="url(#clip812)" style="fill:#009af9; stroke:none; fill-opacity:0" cx="804.653" cy="168.468" r="2"/>
<circle clip-path="url(#clip812)" style="fill:#009af9; stroke:none; fill-opacity:0" cx="828.036" cy="128.351" r="2"/>
<circle clip-path="url(#clip812)" style="fill:#009af9; stroke:none; fill-opacity:0" cx="851.42" cy="84.4543" r="2"/>
<circle clip-path="url(#clip812)" style="fill:#009af9; stroke:none; fill-opacity:0" cx="874.804" cy="74.861" r="2"/>
<circle clip-path="url(#clip812)" style="fill:#009af9; stroke:none; fill-opacity:0" cx="898.188" cy="47.2441" r="2"/>
<circle clip-path="url(#clip812)" style="fill:#009af9; stroke:none; fill-opacity:0" cx="921.572" cy="49.8604" r="2"/>
<circle clip-path="url(#clip812)" style="fill:#009af9; stroke:none; fill-opacity:0" cx="944.956" cy="87.0706" r="2"/>
<circle clip-path="url(#clip812)" style="fill:#009af9; stroke:none; fill-opacity:0" cx="968.339" cy="83.8729" r="2"/>
<circle clip-path="url(#clip812)" style="fill:#009af9; stroke:none; fill-opacity:0" cx="991.723" cy="145.212" r="2"/>
<circle clip-path="url(#clip812)" style="fill:#009af9; stroke:none; fill-opacity:0" cx="1015.11" cy="137.653" r="2"/>
<circle clip-path="url(#clip812)" style="fill:#009af9; stroke:none; fill-opacity:0" cx="1038.49" cy="188.817" r="2"/>
<circle clip-path="url(#clip812)" style="fill:#009af9; stroke:none; fill-opacity:0" cx="1061.87" cy="257.714" r="2"/>
<circle clip-path="url(#clip812)" style="fill:#009af9; stroke:none; fill-opacity:0" cx="1085.26" cy="326.611" r="2"/>
<circle clip-path="url(#clip812)" style="fill:#009af9; stroke:none; fill-opacity:0" cx="1108.64" cy="418.474" r="2"/>
<circle clip-path="url(#clip812)" style="fill:#009af9; stroke:none; fill-opacity:0" cx="1132.03" cy="469.638" r="2"/>
<circle clip-path="url(#clip812)" style="fill:#009af9; stroke:none; fill-opacity:0" cx="1155.41" cy="526.907" r="2"/>
<circle clip-path="url(#clip812)" style="fill:#009af9; stroke:none; fill-opacity:0" cx="1178.79" cy="614.409" r="2"/>
<circle clip-path="url(#clip812)" style="fill:#009af9; stroke:none; fill-opacity:0" cx="1202.18" cy="669.061" r="2"/>
<circle clip-path="url(#clip812)" style="fill:#009af9; stroke:none; fill-opacity:0" cx="1225.56" cy="770.808" r="2"/>
<circle clip-path="url(#clip812)" style="fill:#009af9; stroke:none; fill-opacity:0" cx="1248.95" cy="802.495" r="2"/>
<circle clip-path="url(#clip812)" style="fill:#009af9; stroke:none; fill-opacity:0" cx="1272.33" cy="889.706" r="2"/>
<circle clip-path="url(#clip812)" style="fill:#009af9; stroke:none; fill-opacity:0" cx="1295.71" cy="914.416" r="2"/>
<circle clip-path="url(#clip812)" style="fill:#009af9; stroke:none; fill-opacity:0" cx="1319.1" cy="966.452" r="2"/>
<circle clip-path="url(#clip812)" style="fill:#009af9; stroke:none; fill-opacity:0" cx="1342.48" cy="1007.73" r="2"/>
<circle clip-path="url(#clip812)" style="fill:#009af9; stroke:none; fill-opacity:0" cx="1365.86" cy="1047.85" r="2"/>
<circle clip-path="url(#clip812)" style="fill:#009af9; stroke:none; fill-opacity:0" cx="1389.25" cy="1074.01" r="2"/>
<circle clip-path="url(#clip812)" style="fill:#009af9; stroke:none; fill-opacity:0" cx="1412.63" cy="1101.05" r="2"/>
<circle clip-path="url(#clip812)" style="fill:#009af9; stroke:none; fill-opacity:0" cx="1436.02" cy="1135.64" r="2"/>
<circle clip-path="url(#clip812)" style="fill:#009af9; stroke:none; fill-opacity:0" cx="1459.4" cy="1142.91" r="2"/>
<circle clip-path="url(#clip812)" style="fill:#009af9; stroke:none; fill-opacity:0" cx="1482.78" cy="1161.81" r="2"/>
<circle clip-path="url(#clip812)" style="fill:#009af9; stroke:none; fill-opacity:0" cx="1506.17" cy="1174.6" r="2"/>
<circle clip-path="url(#clip812)" style="fill:#009af9; stroke:none; fill-opacity:0" cx="1529.55" cy="1192.91" r="2"/>
<circle clip-path="url(#clip812)" style="fill:#009af9; stroke:none; fill-opacity:0" cx="1552.94" cy="1196.4" r="2"/>
<circle clip-path="url(#clip812)" style="fill:#009af9; stroke:none; fill-opacity:0" cx="1576.32" cy="1199.6" r="2"/>
<circle clip-path="url(#clip812)" style="fill:#009af9; stroke:none; fill-opacity:0" cx="1599.7" cy="1207.16" r="2"/>
<circle clip-path="url(#clip812)" style="fill:#009af9; stroke:none; fill-opacity:0" cx="1623.09" cy="1210.35" r="2"/>
<circle clip-path="url(#clip812)" style="fill:#009af9; stroke:none; fill-opacity:0" cx="1646.47" cy="1216.17" r="2"/>
<circle clip-path="url(#clip812)" style="fill:#009af9; stroke:none; fill-opacity:0" cx="1669.85" cy="1215.88" r="2"/>
<circle clip-path="url(#clip812)" style="fill:#009af9; stroke:none; fill-opacity:0" cx="1693.24" cy="1219.37" r="2"/>
<circle clip-path="url(#clip812)" style="fill:#009af9; stroke:none; fill-opacity:0" cx="1716.62" cy="1218.78" r="2"/>
<circle clip-path="url(#clip812)" style="fill:#009af9; stroke:none; fill-opacity:0" cx="1740.01" cy="1220.53" r="2"/>
<circle clip-path="url(#clip812)" style="fill:#009af9; stroke:none; fill-opacity:0" cx="1763.39" cy="1220.24" r="2"/>
<circle clip-path="url(#clip812)" style="fill:#009af9; stroke:none; fill-opacity:0" cx="1786.77" cy="1221.98" r="2"/>
<circle clip-path="url(#clip812)" style="fill:#009af9; stroke:none; fill-opacity:0" cx="1810.16" cy="1222.27" r="2"/>
<circle clip-path="url(#clip812)" style="fill:#009af9; stroke:none; fill-opacity:0" cx="1833.54" cy="1222.56" r="2"/>
<circle clip-path="url(#clip812)" style="fill:#009af9; stroke:none; fill-opacity:0" cx="1856.93" cy="1222.85" r="2"/>
<circle clip-path="url(#clip812)" style="fill:#009af9; stroke:none; fill-opacity:0" cx="1880.31" cy="1222.27" r="2"/>
<circle clip-path="url(#clip812)" style="fill:#009af9; stroke:none; fill-opacity:0" cx="1903.69" cy="1222.56" r="2"/>
<circle clip-path="url(#clip812)" style="fill:#009af9; stroke:none; fill-opacity:0" cx="1927.08" cy="1222.85" r="2"/>
<circle clip-path="url(#clip812)" style="fill:#009af9; stroke:none; fill-opacity:0" cx="1950.46" cy="1222.56" r="2"/>
<path clip-path="url(#clip810)" d="M1763.6 190.111 L2002.57 190.111 L2002.57 86.4311 L1763.6 86.4311  Z" fill="#ffffff" fill-rule="evenodd" fill-opacity="1"/>
<polyline clip-path="url(#clip810)" style="stroke:#000000; stroke-linecap:round; stroke-linejoin:round; stroke-width:4; stroke-opacity:1; fill:none" points="1763.6,190.111 2002.57,190.111 2002.57,86.4311 1763.6,86.4311 1763.6,190.111 "/>
<path clip-path="url(#clip810)" d="M1784.33 159.007 L1908.69 159.007 L1908.69 117.535 L1784.33 117.535 L1784.33 159.007  Z" fill="#009af9" fill-rule="evenodd" fill-opacity="1"/>
<polyline clip-path="url(#clip810)" style="stroke:#000000; stroke-linecap:round; stroke-linejoin:round; stroke-width:4; stroke-opacity:1; fill:none" points="1784.33,159.007 1908.69,159.007 1908.69,117.535 1784.33,117.535 1784.33,159.007 "/>
<path clip-path="url(#clip810)" d="M1943.26 157.958 Q1941.45 162.588 1939.74 164 Q1938.03 165.412 1935.16 165.412 L1931.75 165.412 L1931.75 161.847 L1934.25 161.847 Q1936.01 161.847 1936.99 161.014 Q1937.96 160.181 1939.14 157.079 L1939.9 155.134 L1929.42 129.625 L1933.93 129.625 L1942.03 149.903 L1950.13 129.625 L1954.65 129.625 L1943.26 157.958 Z" fill="#000000" fill-rule="nonzero" fill-opacity="1" /><path clip-path="url(#clip810)" d="M1961.94 151.616 L1969.58 151.616 L1969.58 125.25 L1961.27 126.917 L1961.27 122.658 L1969.53 120.991 L1974.21 120.991 L1974.21 151.616 L1981.85 151.616 L1981.85 155.551 L1961.94 155.551 L1961.94 151.616 Z" fill="#000000" fill-rule="nonzero" fill-opacity="1" /></svg>
