<?xml version="1.0" encoding="utf-8"?>
<svg xmlns="http://www.w3.org/2000/svg" xmlns:xlink="http://www.w3.org/1999/xlink" width="528" height="336" viewBox="0 0 2112 1344">
<defs>
  <clipPath id="clip570">
    <rect x="0" y="0" width="2112" height="1344"/>
  </clipPath>
</defs>
<path clip-path="url(#clip570)" d="M0 1344 L2112 1344 L2112 0 L0 0  Z" fill="#ffffff" fill-rule="evenodd" fill-opacity="1"/>
<defs>
  <clipPath id="clip571">
    <rect x="422" y="0" width="1479" height="1344"/>
  </clipPath>
</defs>
<path clip-path="url(#clip570)" d="M200.081 1173.47 L2064.76 1173.47 L2064.76 47.2441 L200.081 47.2441  Z" fill="#ffffff" fill-rule="evenodd" fill-opacity="1"/>
<defs>
  <clipPath id="clip572">
    <rect x="200" y="47" width="1866" height="1127"/>
  </clipPath>
</defs>
<polyline clip-path="url(#clip572)" style="stroke:#000000; stroke-linecap:round; stroke-linejoin:round; stroke-width:2; stroke-opacity:0.1; fill:none" points="539.721,1173.47 539.721,47.2441 "/>
<polyline clip-path="url(#clip572)" style="stroke:#000000; stroke-linecap:round; stroke-linejoin:round; stroke-width:2; stroke-opacity:0.1; fill:none" points="1013.88,1173.47 1013.88,47.2441 "/>
<polyline clip-path="url(#clip572)" style="stroke:#000000; stroke-linecap:round; stroke-linejoin:round; stroke-width:2; stroke-opacity:0.1; fill:none" points="1488.04,1173.47 1488.04,47.2441 "/>
<polyline clip-path="url(#clip572)" style="stroke:#000000; stroke-linecap:round; stroke-linejoin:round; stroke-width:2; stroke-opacity:0.1; fill:none" points="1962.2,1173.47 1962.2,47.2441 "/>
<polyline clip-path="url(#clip570)" style="stroke:#000000; stroke-linecap:round; stroke-linejoin:round; stroke-width:4; stroke-opacity:1; fill:none" points="200.081,1173.47 2064.76,1173.47 "/>
<polyline clip-path="url(#clip570)" style="stroke:#000000; stroke-linecap:round; stroke-linejoin:round; stroke-width:4; stroke-opacity:1; fill:none" points="539.721,1173.47 539.721,1154.57 "/>
<polyline clip-path="url(#clip570)" style="stroke:#000000; stroke-linecap:round; stroke-linejoin:round; stroke-width:4; stroke-opacity:1; fill:none" points="1013.88,1173.47 1013.88,1154.57 "/>
<polyline clip-path="url(#clip570)" style="stroke:#000000; stroke-linecap:round; stroke-linejoin:round; stroke-width:4; stroke-opacity:1; fill:none" points="1488.04,1173.47 1488.04,1154.57 "/>
<polyline clip-path="url(#clip570)" style="stroke:#000000; stroke-linecap:round; stroke-linejoin:round; stroke-width:4; stroke-opacity:1; fill:none" points="1962.2,1173.47 1962.2,1154.57 "/>
<path clip-path="url(#clip570)" d="M534.373 1229.63 L550.693 1229.63 L550.693 1233.57 L528.748 1233.57 L528.748 1229.63 Q531.41 1226.88 535.994 1222.25 Q540.6 1217.59 541.781 1216.25 Q544.026 1213.73 544.906 1211.99 Q545.808 1210.23 545.808 1208.54 Q545.808 1205.79 543.864 1204.05 Q541.943 1202.32 538.841 1202.32 Q536.642 1202.32 534.188 1203.08 Q531.758 1203.84 528.98 1205.4 L528.98 1200.67 Q531.804 1199.54 534.258 1198.96 Q536.711 1198.38 538.748 1198.38 Q544.119 1198.38 547.313 1201.07 Q550.508 1203.75 550.508 1208.24 Q550.508 1210.37 549.697 1212.29 Q548.91 1214.19 546.804 1216.78 Q546.225 1217.46 543.123 1220.67 Q540.021 1223.87 534.373 1229.63 Z" fill="#000000" fill-rule="nonzero" fill-opacity="1" /><path clip-path="url(#clip570)" d="M1016.89 1203.08 L1005.08 1221.53 L1016.89 1221.53 L1016.89 1203.08 M1015.66 1199.01 L1021.54 1199.01 L1021.54 1221.53 L1026.47 1221.53 L1026.47 1225.42 L1021.54 1225.42 L1021.54 1233.57 L1016.89 1233.57 L1016.89 1225.42 L1001.29 1225.42 L1001.29 1220.9 L1015.66 1199.01 Z" fill="#000000" fill-rule="nonzero" fill-opacity="1" /><path clip-path="url(#clip570)" d="M1488.44 1214.42 Q1485.29 1214.42 1483.44 1216.58 Q1481.61 1218.73 1481.61 1222.48 Q1481.61 1226.21 1483.44 1228.38 Q1485.29 1230.53 1488.44 1230.53 Q1491.59 1230.53 1493.42 1228.38 Q1495.27 1226.21 1495.27 1222.48 Q1495.27 1218.73 1493.42 1216.58 Q1491.59 1214.42 1488.44 1214.42 M1497.72 1199.77 L1497.72 1204.03 Q1495.97 1203.2 1494.16 1202.76 Q1492.38 1202.32 1490.62 1202.32 Q1485.99 1202.32 1483.53 1205.44 Q1481.1 1208.57 1480.76 1214.89 Q1482.12 1212.87 1484.18 1211.81 Q1486.24 1210.72 1488.72 1210.72 Q1493.93 1210.72 1496.94 1213.89 Q1499.97 1217.04 1499.97 1222.48 Q1499.97 1227.8 1496.82 1231.02 Q1493.67 1234.24 1488.44 1234.24 Q1482.45 1234.24 1479.28 1229.65 Q1476.1 1225.05 1476.1 1216.32 Q1476.1 1208.13 1479.99 1203.27 Q1483.88 1198.38 1490.43 1198.38 Q1492.19 1198.38 1493.97 1198.73 Q1495.78 1199.08 1497.72 1199.77 Z" fill="#000000" fill-rule="nonzero" fill-opacity="1" /><path clip-path="url(#clip570)" d="M1962.2 1217.15 Q1958.86 1217.15 1956.94 1218.94 Q1955.04 1220.72 1955.04 1223.84 Q1955.04 1226.97 1956.94 1228.75 Q1958.86 1230.53 1962.2 1230.53 Q1965.53 1230.53 1967.45 1228.75 Q1969.37 1226.95 1969.37 1223.84 Q1969.37 1220.72 1967.45 1218.94 Q1965.55 1217.15 1962.2 1217.15 M1957.52 1215.16 Q1954.51 1214.42 1952.82 1212.36 Q1951.15 1210.3 1951.15 1207.34 Q1951.15 1203.2 1954.09 1200.79 Q1957.06 1198.38 1962.2 1198.38 Q1967.36 1198.38 1970.3 1200.79 Q1973.24 1203.2 1973.24 1207.34 Q1973.24 1210.3 1971.55 1212.36 Q1969.88 1214.42 1966.89 1215.16 Q1970.27 1215.95 1972.15 1218.24 Q1974.05 1220.53 1974.05 1223.84 Q1974.05 1228.87 1970.97 1231.55 Q1967.91 1234.24 1962.2 1234.24 Q1956.48 1234.24 1953.4 1231.55 Q1950.34 1228.87 1950.34 1223.84 Q1950.34 1220.53 1952.24 1218.24 Q1954.14 1215.95 1957.52 1215.16 M1955.81 1207.78 Q1955.81 1210.47 1957.47 1211.97 Q1959.16 1213.47 1962.2 1213.47 Q1965.2 1213.47 1966.89 1211.97 Q1968.61 1210.47 1968.61 1207.78 Q1968.61 1205.09 1966.89 1203.59 Q1965.2 1202.09 1962.2 1202.09 Q1959.16 1202.09 1957.47 1203.59 Q1955.81 1205.09 1955.81 1207.78 Z" fill="#000000" fill-rule="nonzero" fill-opacity="1" /><path clip-path="url(#clip570)" d="M895.917 1307.24 L895.917 1294.47 L885.413 1294.47 L885.413 1289.19 L902.282 1289.19 L902.282 1309.59 Q898.558 1312.23 894.07 1313.6 Q889.583 1314.94 884.49 1314.94 Q873.35 1314.94 867.048 1308.44 Q860.778 1301.92 860.778 1290.3 Q860.778 1278.65 867.048 1272.16 Q873.35 1265.64 884.49 1265.64 Q889.137 1265.64 893.307 1266.78 Q897.508 1267.93 901.041 1270.16 L901.041 1277 Q897.476 1273.97 893.466 1272.45 Q889.455 1270.92 885.031 1270.92 Q876.31 1270.92 871.918 1275.79 Q867.557 1280.66 867.557 1290.3 Q867.557 1299.91 871.918 1304.78 Q876.31 1309.65 885.031 1309.65 Q888.437 1309.65 891.11 1309.08 Q893.784 1308.48 895.917 1307.24 Z" fill="#000000" fill-rule="nonzero" fill-opacity="1" /><path clip-path="url(#clip570)" d="M929.973 1296.1 Q922.875 1296.1 920.138 1297.72 Q917.401 1299.34 917.401 1303.26 Q917.401 1306.38 919.438 1308.22 Q921.507 1310.04 925.04 1310.04 Q929.909 1310.04 932.838 1306.6 Q935.798 1303.13 935.798 1297.4 L935.798 1296.1 L929.973 1296.1 M941.654 1293.68 L941.654 1314.01 L935.798 1314.01 L935.798 1308.6 Q933.792 1311.85 930.801 1313.41 Q927.809 1314.94 923.48 1314.94 Q918.006 1314.94 914.759 1311.88 Q911.544 1308.79 911.544 1303.64 Q911.544 1297.62 915.555 1294.57 Q919.597 1291.51 927.586 1291.51 L935.798 1291.51 L935.798 1290.94 Q935.798 1286.9 933.124 1284.7 Q930.482 1282.47 925.676 1282.47 Q922.621 1282.47 919.724 1283.2 Q916.828 1283.94 914.154 1285.4 L914.154 1279.99 Q917.369 1278.75 920.393 1278.14 Q923.416 1277.51 926.281 1277.51 Q934.015 1277.51 937.835 1281.52 Q941.654 1285.53 941.654 1293.68 Z" fill="#000000" fill-rule="nonzero" fill-opacity="1" /><path clip-path="url(#clip570)" d="M953.717 1264.49 L959.574 1264.49 L959.574 1314.01 L953.717 1314.01 L953.717 1264.49 Z" fill="#000000" fill-rule="nonzero" fill-opacity="1" /><path clip-path="url(#clip570)" d="M977.62 1268.25 L977.62 1278.37 L989.683 1278.37 L989.683 1282.92 L977.62 1282.92 L977.62 1302.27 Q977.62 1306.63 978.798 1307.87 Q980.008 1309.11 983.668 1309.11 L989.683 1309.11 L989.683 1314.01 L983.668 1314.01 Q976.888 1314.01 974.31 1311.5 Q971.732 1308.95 971.732 1302.27 L971.732 1282.92 L967.435 1282.92 L967.435 1278.37 L971.732 1278.37 L971.732 1268.25 L977.62 1268.25 Z" fill="#000000" fill-rule="nonzero" fill-opacity="1" /><path clip-path="url(#clip570)" d="M1011.2 1282.47 Q1006.49 1282.47 1003.75 1286.16 Q1001.01 1289.83 1001.01 1296.22 Q1001.01 1302.62 1003.72 1306.31 Q1006.46 1309.97 1011.2 1309.97 Q1015.88 1309.97 1018.62 1306.28 Q1021.35 1302.59 1021.35 1296.22 Q1021.35 1289.89 1018.62 1286.2 Q1015.88 1282.47 1011.2 1282.47 M1011.2 1277.51 Q1018.84 1277.51 1023.2 1282.47 Q1027.56 1287.44 1027.56 1296.22 Q1027.56 1304.98 1023.2 1309.97 Q1018.84 1314.94 1011.2 1314.94 Q1003.53 1314.94 999.168 1309.97 Q994.84 1304.98 994.84 1296.22 Q994.84 1287.44 999.168 1282.47 Q1003.53 1277.51 1011.2 1277.51 Z" fill="#000000" fill-rule="nonzero" fill-opacity="1" /><path clip-path="url(#clip570)" d="M1066.9 1292.5 L1066.9 1314.01 L1061.04 1314.01 L1061.04 1292.69 Q1061.04 1287.63 1059.07 1285.11 Q1057.1 1282.6 1053.15 1282.6 Q1048.41 1282.6 1045.67 1285.62 Q1042.93 1288.65 1042.93 1293.87 L1042.93 1314.01 L1037.04 1314.01 L1037.04 1278.37 L1042.93 1278.37 L1042.93 1283.9 Q1045.03 1280.69 1047.87 1279.1 Q1050.73 1277.51 1054.45 1277.51 Q1060.6 1277.51 1063.75 1281.33 Q1066.9 1285.11 1066.9 1292.5 Z" fill="#000000" fill-rule="nonzero" fill-opacity="1" /><path clip-path="url(#clip570)" d="M1105.98 1291.32 L1105.98 1308.73 L1116.3 1308.73 Q1121.49 1308.73 1123.97 1306.6 Q1126.48 1304.43 1126.48 1300.01 Q1126.48 1295.55 1123.97 1293.45 Q1121.49 1291.32 1116.3 1291.32 L1105.98 1291.32 M1105.98 1271.78 L1105.98 1286.1 L1115.5 1286.1 Q1120.21 1286.1 1122.5 1284.35 Q1124.83 1282.57 1124.83 1278.94 Q1124.83 1275.34 1122.5 1273.56 Q1120.21 1271.78 1115.5 1271.78 L1105.98 1271.78 M1099.56 1266.49 L1115.98 1266.49 Q1123.33 1266.49 1127.31 1269.55 Q1131.29 1272.61 1131.29 1278.24 Q1131.29 1282.6 1129.25 1285.18 Q1127.21 1287.76 1123.27 1288.39 Q1128.01 1289.41 1130.62 1292.66 Q1133.26 1295.87 1133.26 1300.71 Q1133.26 1307.08 1128.93 1310.55 Q1124.6 1314.01 1116.62 1314.01 L1099.56 1314.01 L1099.56 1266.49 Z" fill="#000000" fill-rule="nonzero" fill-opacity="1" /><path clip-path="url(#clip570)" d="M1157.83 1282.47 Q1153.12 1282.47 1150.39 1286.16 Q1147.65 1289.83 1147.65 1296.22 Q1147.65 1302.62 1150.35 1306.31 Q1153.09 1309.97 1157.83 1309.97 Q1162.51 1309.97 1165.25 1306.28 Q1167.99 1302.59 1167.99 1296.22 Q1167.99 1289.89 1165.25 1286.2 Q1162.51 1282.47 1157.83 1282.47 M1157.83 1277.51 Q1165.47 1277.51 1169.83 1282.47 Q1174.19 1287.44 1174.19 1296.22 Q1174.19 1304.98 1169.83 1309.97 Q1165.47 1314.94 1157.83 1314.94 Q1150.16 1314.94 1145.8 1309.97 Q1141.47 1304.98 1141.47 1296.22 Q1141.47 1287.44 1145.8 1282.47 Q1150.16 1277.51 1157.83 1277.51 Z" fill="#000000" fill-rule="nonzero" fill-opacity="1" /><path clip-path="url(#clip570)" d="M1200.1 1296.1 Q1193 1296.1 1190.27 1297.72 Q1187.53 1299.34 1187.53 1303.26 Q1187.53 1306.38 1189.57 1308.22 Q1191.64 1310.04 1195.17 1310.04 Q1200.04 1310.04 1202.97 1306.6 Q1205.93 1303.13 1205.93 1297.4 L1205.93 1296.1 L1200.1 1296.1 M1211.78 1293.68 L1211.78 1314.01 L1205.93 1314.01 L1205.93 1308.6 Q1203.92 1311.85 1200.93 1313.41 Q1197.94 1314.94 1193.61 1314.94 Q1188.13 1314.94 1184.89 1311.88 Q1181.67 1308.79 1181.67 1303.64 Q1181.67 1297.62 1185.68 1294.57 Q1189.73 1291.51 1197.71 1291.51 L1205.93 1291.51 L1205.93 1290.94 Q1205.93 1286.9 1203.25 1284.7 Q1200.61 1282.47 1195.8 1282.47 Q1192.75 1282.47 1189.85 1283.2 Q1186.96 1283.94 1184.28 1285.4 L1184.28 1279.99 Q1187.5 1278.75 1190.52 1278.14 Q1193.55 1277.51 1196.41 1277.51 Q1204.14 1277.51 1207.96 1281.52 Q1211.78 1285.53 1211.78 1293.68 Z" fill="#000000" fill-rule="nonzero" fill-opacity="1" /><path clip-path="url(#clip570)" d="M1244.5 1283.84 Q1243.52 1283.27 1242.34 1283.01 Q1241.19 1282.73 1239.79 1282.73 Q1234.83 1282.73 1232.15 1285.97 Q1229.51 1289.19 1229.51 1295.24 L1229.51 1314.01 L1223.62 1314.01 L1223.62 1278.37 L1229.51 1278.37 L1229.51 1283.9 Q1231.36 1280.66 1234.32 1279.1 Q1237.28 1277.51 1241.51 1277.51 Q1242.12 1277.51 1242.85 1277.6 Q1243.58 1277.67 1244.47 1277.83 L1244.5 1283.84 Z" fill="#000000" fill-rule="nonzero" fill-opacity="1" /><path clip-path="url(#clip570)" d="M1272.96 1283.78 L1272.96 1264.49 L1278.81 1264.49 L1278.81 1314.01 L1272.96 1314.01 L1272.96 1308.67 Q1271.11 1311.85 1268.28 1313.41 Q1265.48 1314.94 1261.53 1314.94 Q1255.07 1314.94 1251 1309.78 Q1246.95 1304.63 1246.95 1296.22 Q1246.95 1287.82 1251 1282.66 Q1255.07 1277.51 1261.53 1277.51 Q1265.48 1277.51 1268.28 1279.07 Q1271.11 1280.59 1272.96 1283.78 M1253 1296.22 Q1253 1302.68 1255.64 1306.38 Q1258.32 1310.04 1262.96 1310.04 Q1267.61 1310.04 1270.28 1306.38 Q1272.96 1302.68 1272.96 1296.22 Q1272.96 1289.76 1270.28 1286.1 Q1267.61 1282.41 1262.96 1282.41 Q1258.32 1282.41 1255.64 1286.1 Q1253 1289.76 1253 1296.22 Z" fill="#000000" fill-rule="nonzero" fill-opacity="1" /><path clip-path="url(#clip570)" d="M1318.28 1291.32 L1318.28 1308.73 L1328.59 1308.73 Q1333.78 1308.73 1336.26 1306.6 Q1338.78 1304.43 1338.78 1300.01 Q1338.78 1295.55 1336.26 1293.45 Q1333.78 1291.32 1328.59 1291.32 L1318.28 1291.32 M1318.28 1271.78 L1318.28 1286.1 L1327.8 1286.1 Q1332.51 1286.1 1334.8 1284.35 Q1337.12 1282.57 1337.12 1278.94 Q1337.12 1275.34 1334.8 1273.56 Q1332.51 1271.78 1327.8 1271.78 L1318.28 1271.78 M1311.85 1266.49 L1328.28 1266.49 Q1335.63 1266.49 1339.61 1269.55 Q1343.58 1272.61 1343.58 1278.24 Q1343.58 1282.6 1341.55 1285.18 Q1339.51 1287.76 1335.56 1288.39 Q1340.31 1289.41 1342.92 1292.66 Q1345.56 1295.87 1345.56 1300.71 Q1345.56 1307.08 1341.23 1310.55 Q1336.9 1314.01 1328.91 1314.01 L1311.85 1314.01 L1311.85 1266.49 Z" fill="#000000" fill-rule="nonzero" fill-opacity="1" /><path clip-path="url(#clip570)" d="M1356.32 1278.37 L1362.17 1278.37 L1362.17 1314.01 L1356.32 1314.01 L1356.32 1278.37 M1356.32 1264.49 L1362.17 1264.49 L1362.17 1271.91 L1356.32 1271.91 L1356.32 1264.49 Z" fill="#000000" fill-rule="nonzero" fill-opacity="1" /><path clip-path="url(#clip570)" d="M1404.06 1292.5 L1404.06 1314.01 L1398.2 1314.01 L1398.2 1292.69 Q1398.2 1287.63 1396.23 1285.11 Q1394.26 1282.6 1390.31 1282.6 Q1385.57 1282.6 1382.83 1285.62 Q1380.09 1288.65 1380.09 1293.87 L1380.09 1314.01 L1374.2 1314.01 L1374.2 1278.37 L1380.09 1278.37 L1380.09 1283.9 Q1382.19 1280.69 1385.03 1279.1 Q1387.89 1277.51 1391.61 1277.51 Q1397.76 1277.51 1400.91 1281.33 Q1404.06 1285.11 1404.06 1292.5 Z" fill="#000000" fill-rule="nonzero" fill-opacity="1" /><polyline clip-path="url(#clip572)" style="stroke:#000000; stroke-linecap:round; stroke-linejoin:round; stroke-width:2; stroke-opacity:0.1; fill:none" points="200.081,1173.47 2064.76,1173.47 "/>
<polyline clip-path="url(#clip572)" style="stroke:#000000; stroke-linecap:round; stroke-linejoin:round; stroke-width:2; stroke-opacity:0.1; fill:none" points="200.081,997.498 2064.76,997.498 "/>
<polyline clip-path="url(#clip572)" style="stroke:#000000; stroke-linecap:round; stroke-linejoin:round; stroke-width:2; stroke-opacity:0.1; fill:none" points="200.081,821.525 2064.76,821.525 "/>
<polyline clip-path="url(#clip572)" style="stroke:#000000; stroke-linecap:round; stroke-linejoin:round; stroke-width:2; stroke-opacity:0.1; fill:none" points="200.081,645.552 2064.76,645.552 "/>
<polyline clip-path="url(#clip572)" style="stroke:#000000; stroke-linecap:round; stroke-linejoin:round; stroke-width:2; stroke-opacity:0.1; fill:none" points="200.081,469.579 2064.76,469.579 "/>
<polyline clip-path="url(#clip572)" style="stroke:#000000; stroke-linecap:round; stroke-linejoin:round; stroke-width:2; stroke-opacity:0.1; fill:none" points="200.081,293.606 2064.76,293.606 "/>
<polyline clip-path="url(#clip572)" style="stroke:#000000; stroke-linecap:round; stroke-linejoin:round; stroke-width:2; stroke-opacity:0.1; fill:none" points="200.081,117.633 2064.76,117.633 "/>
<polyline clip-path="url(#clip570)" style="stroke:#000000; stroke-linecap:round; stroke-linejoin:round; stroke-width:4; stroke-opacity:1; fill:none" points="200.081,1173.47 200.081,47.2441 "/>
<polyline clip-path="url(#clip570)" style="stroke:#000000; stroke-linecap:round; stroke-linejoin:round; stroke-width:4; stroke-opacity:1; fill:none" points="200.081,1173.47 218.979,1173.47 "/>
<polyline clip-path="url(#clip570)" style="stroke:#000000; stroke-linecap:round; stroke-linejoin:round; stroke-width:4; stroke-opacity:1; fill:none" points="200.081,997.498 218.979,997.498 "/>
<polyline clip-path="url(#clip570)" style="stroke:#000000; stroke-linecap:round; stroke-linejoin:round; stroke-width:4; stroke-opacity:1; fill:none" points="200.081,821.525 218.979,821.525 "/>
<polyline clip-path="url(#clip570)" style="stroke:#000000; stroke-linecap:round; stroke-linejoin:round; stroke-width:4; stroke-opacity:1; fill:none" points="200.081,645.552 218.979,645.552 "/>
<polyline clip-path="url(#clip570)" style="stroke:#000000; stroke-linecap:round; stroke-linejoin:round; stroke-width:4; stroke-opacity:1; fill:none" points="200.081,469.579 218.979,469.579 "/>
<polyline clip-path="url(#clip570)" style="stroke:#000000; stroke-linecap:round; stroke-linejoin:round; stroke-width:4; stroke-opacity:1; fill:none" points="200.081,293.606 218.979,293.606 "/>
<polyline clip-path="url(#clip570)" style="stroke:#000000; stroke-linecap:round; stroke-linejoin:round; stroke-width:4; stroke-opacity:1; fill:none" points="200.081,117.633 218.979,117.633 "/>
<path clip-path="url(#clip570)" d="M156.457 1159.27 Q152.846 1159.27 151.017 1162.83 Q149.211 1166.38 149.211 1173.51 Q149.211 1180.61 151.017 1184.18 Q152.846 1187.72 156.457 1187.72 Q160.091 1187.72 161.896 1184.18 Q163.725 1180.61 163.725 1173.51 Q163.725 1166.38 161.896 1162.83 Q160.091 1159.27 156.457 1159.27 M156.457 1155.57 Q162.267 1155.57 165.322 1160.17 Q168.401 1164.76 168.401 1173.51 Q168.401 1182.23 165.322 1186.84 Q162.267 1191.42 156.457 1191.42 Q150.646 1191.42 147.568 1186.84 Q144.512 1182.23 144.512 1173.51 Q144.512 1164.76 147.568 1160.17 Q150.646 1155.57 156.457 1155.57 Z" fill="#000000" fill-rule="nonzero" fill-opacity="1" /><path clip-path="url(#clip570)" d="M117.105 1010.84 L124.744 1010.84 L124.744 984.477 L116.434 986.144 L116.434 981.884 L124.698 980.218 L129.373 980.218 L129.373 1010.84 L137.012 1010.84 L137.012 1014.78 L117.105 1014.78 L117.105 1010.84 Z" fill="#000000" fill-rule="nonzero" fill-opacity="1" /><path clip-path="url(#clip570)" d="M156.457 983.297 Q152.846 983.297 151.017 986.861 Q149.211 990.403 149.211 997.533 Q149.211 1004.64 151.017 1008.2 Q152.846 1011.75 156.457 1011.75 Q160.091 1011.75 161.896 1008.2 Q163.725 1004.64 163.725 997.533 Q163.725 990.403 161.896 986.861 Q160.091 983.297 156.457 983.297 M156.457 979.593 Q162.267 979.593 165.322 984.199 Q168.401 988.783 168.401 997.533 Q168.401 1006.26 165.322 1010.87 Q162.267 1015.45 156.457 1015.45 Q150.646 1015.45 147.568 1010.87 Q144.512 1006.26 144.512 997.533 Q144.512 988.783 147.568 984.199 Q150.646 979.593 156.457 979.593 Z" fill="#000000" fill-rule="nonzero" fill-opacity="1" /><path clip-path="url(#clip570)" d="M120.323 834.87 L136.642 834.87 L136.642 838.805 L114.698 838.805 L114.698 834.87 Q117.36 832.115 121.943 827.486 Q126.549 822.833 127.73 821.49 Q129.975 818.967 130.855 817.231 Q131.758 815.472 131.758 813.782 Q131.758 811.027 129.813 809.291 Q127.892 807.555 124.79 807.555 Q122.591 807.555 120.137 808.319 Q117.707 809.083 114.929 810.634 L114.929 805.912 Q117.753 804.777 120.207 804.199 Q122.66 803.62 124.698 803.62 Q130.068 803.62 133.262 806.305 Q136.457 808.99 136.457 813.481 Q136.457 815.611 135.647 817.532 Q134.859 819.43 132.753 822.023 Q132.174 822.694 129.072 825.911 Q125.971 829.106 120.323 834.87 Z" fill="#000000" fill-rule="nonzero" fill-opacity="1" /><path clip-path="url(#clip570)" d="M156.457 807.324 Q152.846 807.324 151.017 810.888 Q149.211 814.43 149.211 821.56 Q149.211 828.666 151.017 832.231 Q152.846 835.773 156.457 835.773 Q160.091 835.773 161.896 832.231 Q163.725 828.666 163.725 821.56 Q163.725 814.43 161.896 810.888 Q160.091 807.324 156.457 807.324 M156.457 803.62 Q162.267 803.62 165.322 808.226 Q168.401 812.81 168.401 821.56 Q168.401 830.286 165.322 834.893 Q162.267 839.476 156.457 839.476 Q150.646 839.476 147.568 834.893 Q144.512 830.286 144.512 821.56 Q144.512 812.81 147.568 808.226 Q150.646 803.62 156.457 803.62 Z" fill="#000000" fill-rule="nonzero" fill-opacity="1" /><path clip-path="url(#clip570)" d="M130.461 644.198 Q133.818 644.915 135.693 647.184 Q137.591 649.452 137.591 652.786 Q137.591 657.901 134.072 660.702 Q130.554 663.503 124.073 663.503 Q121.897 663.503 119.582 663.063 Q117.29 662.647 114.836 661.79 L114.836 657.276 Q116.781 658.411 119.096 658.989 Q121.41 659.568 123.934 659.568 Q128.332 659.568 130.623 657.832 Q132.938 656.096 132.938 652.786 Q132.938 649.73 130.785 648.017 Q128.656 646.281 124.836 646.281 L120.809 646.281 L120.809 642.439 L125.022 642.439 Q128.471 642.439 130.299 641.073 Q132.128 639.684 132.128 637.091 Q132.128 634.429 130.23 633.017 Q128.355 631.582 124.836 631.582 Q122.915 631.582 120.716 631.999 Q118.517 632.416 115.878 633.295 L115.878 629.128 Q118.54 628.388 120.855 628.017 Q123.193 627.647 125.253 627.647 Q130.577 627.647 133.679 630.078 Q136.781 632.485 136.781 636.605 Q136.781 639.476 135.137 641.466 Q133.494 643.434 130.461 644.198 Z" fill="#000000" fill-rule="nonzero" fill-opacity="1" /><path clip-path="url(#clip570)" d="M156.457 631.351 Q152.846 631.351 151.017 634.915 Q149.211 638.457 149.211 645.587 Q149.211 652.693 151.017 656.258 Q152.846 659.8 156.457 659.8 Q160.091 659.8 161.896 656.258 Q163.725 652.693 163.725 645.587 Q163.725 638.457 161.896 634.915 Q160.091 631.351 156.457 631.351 M156.457 627.647 Q162.267 627.647 165.322 632.253 Q168.401 636.837 168.401 645.587 Q168.401 654.314 165.322 658.92 Q162.267 663.503 156.457 663.503 Q150.646 663.503 147.568 658.92 Q144.512 654.314 144.512 645.587 Q144.512 636.837 147.568 632.253 Q150.646 627.647 156.457 627.647 Z" fill="#000000" fill-rule="nonzero" fill-opacity="1" /><path clip-path="url(#clip570)" d="M129.142 456.373 L117.336 474.822 L129.142 474.822 L129.142 456.373 M127.915 452.299 L133.795 452.299 L133.795 474.822 L138.725 474.822 L138.725 478.711 L133.795 478.711 L133.795 486.859 L129.142 486.859 L129.142 478.711 L113.54 478.711 L113.54 474.197 L127.915 452.299 Z" fill="#000000" fill-rule="nonzero" fill-opacity="1" /><path clip-path="url(#clip570)" d="M156.457 455.378 Q152.846 455.378 151.017 458.943 Q149.211 462.484 149.211 469.614 Q149.211 476.72 151.017 480.285 Q152.846 483.827 156.457 483.827 Q160.091 483.827 161.896 480.285 Q163.725 476.72 163.725 469.614 Q163.725 462.484 161.896 458.943 Q160.091 455.378 156.457 455.378 M156.457 451.674 Q162.267 451.674 165.322 456.281 Q168.401 460.864 168.401 469.614 Q168.401 478.341 165.322 482.947 Q162.267 487.53 156.457 487.53 Q150.646 487.53 147.568 482.947 Q144.512 478.341 144.512 469.614 Q144.512 460.864 147.568 456.281 Q150.646 451.674 156.457 451.674 Z" fill="#000000" fill-rule="nonzero" fill-opacity="1" /><path clip-path="url(#clip570)" d="M116.341 276.326 L134.697 276.326 L134.697 280.261 L120.623 280.261 L120.623 288.734 Q121.642 288.386 122.66 288.224 Q123.679 288.039 124.698 288.039 Q130.485 288.039 133.864 291.21 Q137.244 294.382 137.244 299.798 Q137.244 305.377 133.772 308.479 Q130.299 311.557 123.98 311.557 Q121.804 311.557 119.535 311.187 Q117.29 310.817 114.883 310.076 L114.883 305.377 Q116.966 306.511 119.188 307.067 Q121.41 307.622 123.887 307.622 Q127.892 307.622 130.23 305.516 Q132.568 303.409 132.568 299.798 Q132.568 296.187 130.23 294.081 Q127.892 291.974 123.887 291.974 Q122.012 291.974 120.137 292.391 Q118.286 292.808 116.341 293.687 L116.341 276.326 Z" fill="#000000" fill-rule="nonzero" fill-opacity="1" /><path clip-path="url(#clip570)" d="M156.457 279.405 Q152.846 279.405 151.017 282.97 Q149.211 286.511 149.211 293.641 Q149.211 300.747 151.017 304.312 Q152.846 307.854 156.457 307.854 Q160.091 307.854 161.896 304.312 Q163.725 300.747 163.725 293.641 Q163.725 286.511 161.896 282.97 Q160.091 279.405 156.457 279.405 M156.457 275.701 Q162.267 275.701 165.322 280.308 Q168.401 284.891 168.401 293.641 Q168.401 302.368 165.322 306.974 Q162.267 311.557 156.457 311.557 Q150.646 311.557 147.568 306.974 Q144.512 302.368 144.512 293.641 Q144.512 284.891 147.568 280.308 Q150.646 275.701 156.457 275.701 Z" fill="#000000" fill-rule="nonzero" fill-opacity="1" /><path clip-path="url(#clip570)" d="M126.873 115.77 Q123.725 115.77 121.873 117.923 Q120.045 120.075 120.045 123.825 Q120.045 127.552 121.873 129.728 Q123.725 131.881 126.873 131.881 Q130.022 131.881 131.85 129.728 Q133.702 127.552 133.702 123.825 Q133.702 120.075 131.85 117.923 Q130.022 115.77 126.873 115.77 M136.156 101.117 L136.156 105.376 Q134.397 104.543 132.591 104.103 Q130.809 103.663 129.049 103.663 Q124.42 103.663 121.966 106.788 Q119.535 109.913 119.188 116.233 Q120.554 114.219 122.614 113.154 Q124.674 112.066 127.151 112.066 Q132.36 112.066 135.369 115.237 Q138.401 118.386 138.401 123.825 Q138.401 129.149 135.253 132.367 Q132.105 135.585 126.873 135.585 Q120.878 135.585 117.707 131.001 Q114.536 126.395 114.536 117.668 Q114.536 109.474 118.424 104.612 Q122.313 99.7283 128.864 99.7283 Q130.623 99.7283 132.406 100.075 Q134.211 100.423 136.156 101.117 Z" fill="#000000" fill-rule="nonzero" fill-opacity="1" /><path clip-path="url(#clip570)" d="M156.457 103.432 Q152.846 103.432 151.017 106.997 Q149.211 110.538 149.211 117.668 Q149.211 124.774 151.017 128.339 Q152.846 131.881 156.457 131.881 Q160.091 131.881 161.896 128.339 Q163.725 124.774 163.725 117.668 Q163.725 110.538 161.896 106.997 Q160.091 103.432 156.457 103.432 M156.457 99.7283 Q162.267 99.7283 165.322 104.335 Q168.401 108.918 168.401 117.668 Q168.401 126.395 165.322 131.001 Q162.267 135.585 156.457 135.585 Q150.646 135.585 147.568 131.001 Q144.512 126.395 144.512 117.668 Q144.512 108.918 147.568 104.335 Q150.646 99.7283 156.457 99.7283 Z" fill="#000000" fill-rule="nonzero" fill-opacity="1" /><path clip-path="url(#clip570)" d="M44.9104 767.543 L62.3206 767.543 L62.3206 757.23 Q62.3206 752.042 60.1881 749.56 Q58.0238 747.045 53.5996 747.045 Q49.1436 747.045 47.0429 749.56 Q44.9104 752.042 44.9104 757.23 L44.9104 767.543 M25.3677 767.543 L39.6905 767.543 L39.6905 758.026 Q39.6905 753.315 37.94 751.024 Q36.1576 748.7 32.5291 748.7 Q28.9325 748.7 27.1501 751.024 Q25.3677 753.315 25.3677 758.026 L25.3677 767.543 M20.0842 773.972 L20.0842 757.548 Q20.0842 750.196 23.1397 746.218 Q26.1952 742.239 31.8289 742.239 Q36.1894 742.239 38.7675 744.276 Q41.3456 746.313 41.9822 750.26 Q43.0007 745.517 46.2472 742.907 Q49.4619 740.266 54.2998 740.266 Q60.6655 740.266 64.1348 744.594 Q67.6042 748.923 67.6042 756.912 L67.6042 773.972 L20.0842 773.972 Z" fill="#000000" fill-rule="nonzero" fill-opacity="1" /><path clip-path="url(#clip570)" d="M49.6847 713.307 Q49.6847 720.405 51.3079 723.142 Q52.9312 725.879 56.8461 725.879 Q59.9653 725.879 61.8114 723.842 Q63.6256 721.773 63.6256 718.24 Q63.6256 713.37 60.1881 710.442 Q56.7188 707.482 50.9897 707.482 L49.6847 707.482 L49.6847 713.307 M47.2657 701.626 L67.6042 701.626 L67.6042 707.482 L62.1933 707.482 Q65.4398 709.487 66.9994 712.479 Q68.5272 715.471 68.5272 719.8 Q68.5272 725.274 65.4716 728.521 Q62.3843 731.736 57.2281 731.736 Q51.2125 731.736 48.1569 727.725 Q45.1014 723.683 45.1014 715.694 L45.1014 707.482 L44.5285 707.482 Q40.4862 707.482 38.2901 710.156 Q36.0621 712.798 36.0621 717.604 Q36.0621 720.659 36.7941 723.556 Q37.5262 726.452 38.9903 729.126 L33.5795 729.126 Q32.3381 725.911 31.7334 722.887 Q31.0968 719.863 31.0968 716.999 Q31.0968 709.265 35.1072 705.445 Q39.1176 701.626 47.2657 701.626 Z" fill="#000000" fill-rule="nonzero" fill-opacity="1" /><path clip-path="url(#clip570)" d="M18.079 689.563 L18.079 683.706 L67.6042 683.706 L67.6042 689.563 L18.079 689.563 Z" fill="#000000" fill-rule="nonzero" fill-opacity="1" /><path clip-path="url(#clip570)" d="M18.079 671.452 L18.079 665.596 L67.6042 665.596 L67.6042 671.452 L18.079 671.452 Z" fill="#000000" fill-rule="nonzero" fill-opacity="1" /><path clip-path="url(#clip570)" d="M23.7444 596.783 L30.5239 596.783 Q27.5002 600.029 26.0043 603.721 Q24.5083 607.381 24.5083 611.519 Q24.5083 619.667 29.5054 623.996 Q34.4707 628.325 43.8919 628.325 Q53.2813 628.325 58.2784 623.996 Q63.2436 619.667 63.2436 611.519 Q63.2436 607.381 61.7477 603.721 Q60.2518 600.029 57.2281 596.783 L63.9439 596.783 Q66.2355 600.156 67.3814 603.944 Q68.5272 607.7 68.5272 611.901 Q68.5272 622.691 61.9387 628.898 Q55.3183 635.104 43.8919 635.104 Q32.4336 635.104 25.8451 628.898 Q19.2248 622.691 19.2248 611.901 Q19.2248 607.636 20.3706 603.88 Q21.4846 600.093 23.7444 596.783 Z" fill="#000000" fill-rule="nonzero" fill-opacity="1" /><path clip-path="url(#clip570)" d="M36.0621 573.293 Q36.0621 578.004 39.7542 580.741 Q43.4145 583.478 49.812 583.478 Q56.2095 583.478 59.9017 580.773 Q63.5619 578.036 63.5619 573.293 Q63.5619 568.614 59.8698 565.877 Q56.1777 563.14 49.812 563.14 Q43.4781 563.14 39.786 565.877 Q36.0621 568.614 36.0621 573.293 M31.0968 573.293 Q31.0968 565.654 36.0621 561.294 Q41.0273 556.933 49.812 556.933 Q58.5649 556.933 63.5619 561.294 Q68.5272 565.654 68.5272 573.293 Q68.5272 580.964 63.5619 585.324 Q58.5649 589.653 49.812 589.653 Q41.0273 589.653 36.0621 585.324 Q31.0968 580.964 31.0968 573.293 Z" fill="#000000" fill-rule="nonzero" fill-opacity="1" /><path clip-path="url(#clip570)" d="M53.5359 547.83 L31.9562 547.83 L31.9562 541.974 L53.3131 541.974 Q58.3739 541.974 60.9202 540 Q63.4346 538.027 63.4346 534.08 Q63.4346 529.338 60.4109 526.601 Q57.3872 523.832 52.1673 523.832 L31.9562 523.832 L31.9562 517.975 L67.6042 517.975 L67.6042 523.832 L62.1296 523.832 Q65.3762 525.964 66.9676 528.797 Q68.5272 531.598 68.5272 535.322 Q68.5272 541.465 64.7078 544.647 Q60.8883 547.83 53.5359 547.83 M31.0968 533.094 L31.0968 533.094 Z" fill="#000000" fill-rule="nonzero" fill-opacity="1" /><path clip-path="url(#clip570)" d="M46.0881 476.28 L67.6042 476.28 L67.6042 482.136 L46.279 482.136 Q41.2183 482.136 38.7038 484.11 Q36.1894 486.083 36.1894 490.03 Q36.1894 494.772 39.2131 497.509 Q42.2368 500.247 47.4567 500.247 L67.6042 500.247 L67.6042 506.135 L31.9562 506.135 L31.9562 500.247 L37.4944 500.247 Q34.2797 498.146 32.6883 495.313 Q31.0968 492.449 31.0968 488.725 Q31.0968 482.582 34.9163 479.431 Q38.7038 476.28 46.0881 476.28 Z" fill="#000000" fill-rule="nonzero" fill-opacity="1" /><path clip-path="url(#clip570)" d="M21.8347 458.806 L31.9562 458.806 L31.9562 446.743 L36.5077 446.743 L36.5077 458.806 L55.8594 458.806 Q60.2199 458.806 61.4613 457.628 Q62.7026 456.419 62.7026 452.758 L62.7026 446.743 L67.6042 446.743 L67.6042 452.758 Q67.6042 459.538 65.0897 462.116 Q62.5434 464.694 55.8594 464.694 L36.5077 464.694 L36.5077 468.991 L31.9562 468.991 L31.9562 464.694 L21.8347 464.694 L21.8347 458.806 Z" fill="#000000" fill-rule="nonzero" fill-opacity="1" /><path clip-path="url(#clip572)" d="M302.641 909.511 L302.641 1173.47 L539.721 1173.47 L539.721 909.511 L302.641 909.511 L302.641 909.511  Z" fill="#009af9" fill-rule="evenodd" fill-opacity="1"/>
<polyline clip-path="url(#clip572)" style="stroke:#000000; stroke-linecap:round; stroke-linejoin:round; stroke-width:4; stroke-opacity:1; fill:none" points="302.641,909.511 302.641,1173.47 539.721,1173.47 539.721,909.511 302.641,909.511 "/>
<path clip-path="url(#clip572)" d="M539.721 733.538 L539.721 1173.47 L776.8 1173.47 L776.8 733.538 L539.721 733.538 L539.721 733.538  Z" fill="#009af9" fill-rule="evenodd" fill-opacity="1"/>
<polyline clip-path="url(#clip572)" style="stroke:#000000; stroke-linecap:round; stroke-linejoin:round; stroke-width:4; stroke-opacity:1; fill:none" points="539.721,733.538 539.721,1173.47 776.8,1173.47 776.8,733.538 539.721,733.538 "/>
<path clip-path="url(#clip572)" d="M776.8 258.412 L776.8 1173.47 L1013.88 1173.47 L1013.88 258.412 L776.8 258.412 L776.8 258.412  Z" fill="#009af9" fill-rule="evenodd" fill-opacity="1"/>
<polyline clip-path="url(#clip572)" style="stroke:#000000; stroke-linecap:round; stroke-linejoin:round; stroke-width:4; stroke-opacity:1; fill:none" points="776.8,258.412 776.8,1173.47 1013.88,1173.47 1013.88,258.412 776.8,258.412 "/>
<path clip-path="url(#clip572)" d="M1013.88 47.2441 L1013.88 1173.47 L1250.96 1173.47 L1250.96 47.2441 L1013.88 47.2441 L1013.88 47.2441  Z" fill="#009af9" fill-rule="evenodd" fill-opacity="1"/>
<polyline clip-path="url(#clip572)" style="stroke:#000000; stroke-linecap:round; stroke-linejoin:round; stroke-width:4; stroke-opacity:1; fill:none" points="1013.88,47.2441 1013.88,1173.47 1250.96,1173.47 1250.96,47.2441 1013.88,47.2441 "/>
<path clip-path="url(#clip572)" d="M1250.96 152.828 L1250.96 1173.47 L1488.04 1173.47 L1488.04 152.828 L1250.96 152.828 L1250.96 152.828  Z" fill="#009af9" fill-rule="evenodd" fill-opacity="1"/>
<polyline clip-path="url(#clip572)" style="stroke:#000000; stroke-linecap:round; stroke-linejoin:round; stroke-width:4; stroke-opacity:1; fill:none" points="1250.96,152.828 1250.96,1173.47 1488.04,1173.47 1488.04,152.828 1250.96,152.828 "/>
<path clip-path="url(#clip572)" d="M1488.04 592.76 L1488.04 1173.47 L1725.12 1173.47 L1725.12 592.76 L1488.04 592.76 L1488.04 592.76  Z" fill="#009af9" fill-rule="evenodd" fill-opacity="1"/>
<polyline clip-path="url(#clip572)" style="stroke:#000000; stroke-linecap:round; stroke-linejoin:round; stroke-width:4; stroke-opacity:1; fill:none" points="1488.04,592.76 1488.04,1173.47 1725.12,1173.47 1725.12,592.76 1488.04,592.76 "/>
<path clip-path="url(#clip572)" d="M1725.12 1120.68 L1725.12 1173.47 L1962.2 1173.47 L1962.2 1120.68 L1725.12 1120.68 L1725.12 1120.68  Z" fill="#009af9" fill-rule="evenodd" fill-opacity="1"/>
<polyline clip-path="url(#clip572)" style="stroke:#000000; stroke-linecap:round; stroke-linejoin:round; stroke-width:4; stroke-opacity:1; fill:none" points="1725.12,1120.68 1725.12,1173.47 1962.2,1173.47 1962.2,1120.68 1725.12,1120.68 "/>
<circle clip-path="url(#clip572)" style="fill:#009af9; stroke:none; fill-opacity:0" cx="421.181" cy="909.511" r="2"/>
<circle clip-path="url(#clip572)" style="fill:#009af9; stroke:none; fill-opacity:0" cx="658.26" cy="733.538" r="2"/>
<circle clip-path="url(#clip572)" style="fill:#009af9; stroke:none; fill-opacity:0" cx="895.339" cy="258.412" r="2"/>
<circle clip-path="url(#clip572)" style="fill:#009af9; stroke:none; fill-opacity:0" cx="1132.42" cy="47.2441" r="2"/>
<circle clip-path="url(#clip572)" style="fill:#009af9; stroke:none; fill-opacity:0" cx="1369.5" cy="152.828" r="2"/>
<circle clip-path="url(#clip572)" style="fill:#009af9; stroke:none; fill-opacity:0" cx="1606.58" cy="592.76" r="2"/>
<circle clip-path="url(#clip572)" style="fill:#009af9; stroke:none; fill-opacity:0" cx="1843.66" cy="1120.68" r="2"/>
</svg>
