<?xml version="1.0" encoding="utf-8"?>
<svg xmlns="http://www.w3.org/2000/svg" xmlns:xlink="http://www.w3.org/1999/xlink" width="528" height="336" viewBox="0 0 2112 1344">
<defs>
  <clipPath id="clip630">
    <rect x="0" y="0" width="2112" height="1344"/>
  </clipPath>
</defs>
<path clip-path="url(#clip630)" d="M0 1344 L2112 1344 L2112 0 L0 0  Z" fill="#ffffff" fill-rule="evenodd" fill-opacity="1"/>
<defs>
  <clipPath id="clip631">
    <rect x="422" y="0" width="1479" height="1344"/>
  </clipPath>
</defs>
<path clip-path="url(#clip630)" d="M170.405 1173.47 L2064.76 1173.47 L2064.76 47.2441 L170.405 47.2441  Z" fill="#ffffff" fill-rule="evenodd" fill-opacity="1"/>
<defs>
  <clipPath id="clip632">
    <rect x="170" y="47" width="1895" height="1127"/>
  </clipPath>
</defs>
<polyline clip-path="url(#clip632)" style="stroke:#000000; stroke-linecap:round; stroke-linejoin:round; stroke-width:2; stroke-opacity:0.1; fill:none" points="254.524,1173.47 254.524,47.2441 "/>
<polyline clip-path="url(#clip632)" style="stroke:#000000; stroke-linecap:round; stroke-linejoin:round; stroke-width:2; stroke-opacity:0.1; fill:none" points="692.18,1173.47 692.18,47.2441 "/>
<polyline clip-path="url(#clip632)" style="stroke:#000000; stroke-linecap:round; stroke-linejoin:round; stroke-width:2; stroke-opacity:0.1; fill:none" points="1129.83,1173.47 1129.83,47.2441 "/>
<polyline clip-path="url(#clip632)" style="stroke:#000000; stroke-linecap:round; stroke-linejoin:round; stroke-width:2; stroke-opacity:0.1; fill:none" points="1567.49,1173.47 1567.49,47.2441 "/>
<polyline clip-path="url(#clip632)" style="stroke:#000000; stroke-linecap:round; stroke-linejoin:round; stroke-width:2; stroke-opacity:0.1; fill:none" points="2005.15,1173.47 2005.15,47.2441 "/>
<polyline clip-path="url(#clip630)" style="stroke:#000000; stroke-linecap:round; stroke-linejoin:round; stroke-width:4; stroke-opacity:1; fill:none" points="170.405,1173.47 2064.76,1173.47 "/>
<polyline clip-path="url(#clip630)" style="stroke:#000000; stroke-linecap:round; stroke-linejoin:round; stroke-width:4; stroke-opacity:1; fill:none" points="254.524,1173.47 254.524,1154.57 "/>
<polyline clip-path="url(#clip630)" style="stroke:#000000; stroke-linecap:round; stroke-linejoin:round; stroke-width:4; stroke-opacity:1; fill:none" points="692.18,1173.47 692.18,1154.57 "/>
<polyline clip-path="url(#clip630)" style="stroke:#000000; stroke-linecap:round; stroke-linejoin:round; stroke-width:4; stroke-opacity:1; fill:none" points="1129.83,1173.47 1129.83,1154.57 "/>
<polyline clip-path="url(#clip630)" style="stroke:#000000; stroke-linecap:round; stroke-linejoin:round; stroke-width:4; stroke-opacity:1; fill:none" points="1567.49,1173.47 1567.49,1154.57 "/>
<polyline clip-path="url(#clip630)" style="stroke:#000000; stroke-linecap:round; stroke-linejoin:round; stroke-width:4; stroke-opacity:1; fill:none" points="2005.15,1173.47 2005.15,1154.57 "/>
<path clip-path="url(#clip630)" d="M254.524 1202.09 Q250.913 1202.09 249.085 1205.65 Q247.279 1209.19 247.279 1216.32 Q247.279 1223.43 249.085 1226.99 Q250.913 1230.53 254.524 1230.53 Q258.159 1230.53 259.964 1226.99 Q261.793 1223.43 261.793 1216.32 Q261.793 1209.19 259.964 1205.65 Q258.159 1202.09 254.524 1202.09 M254.524 1198.38 Q260.335 1198.38 263.39 1202.99 Q266.469 1207.57 266.469 1216.32 Q266.469 1225.05 263.39 1229.65 Q260.335 1234.24 254.524 1234.24 Q248.714 1234.24 245.636 1229.65 Q242.58 1225.05 242.58 1216.32 Q242.58 1207.57 245.636 1202.99 Q248.714 1198.38 254.524 1198.38 Z" fill="#000000" fill-rule="nonzero" fill-opacity="1" /><path clip-path="url(#clip630)" d="M686.832 1229.63 L703.152 1229.63 L703.152 1233.57 L681.208 1233.57 L681.208 1229.63 Q683.87 1226.88 688.453 1222.25 Q693.059 1217.59 694.24 1216.25 Q696.485 1213.73 697.365 1211.99 Q698.268 1210.23 698.268 1208.54 Q698.268 1205.79 696.323 1204.05 Q694.402 1202.32 691.3 1202.32 Q689.101 1202.32 686.647 1203.08 Q684.217 1203.84 681.439 1205.4 L681.439 1200.67 Q684.263 1199.54 686.717 1198.96 Q689.17 1198.38 691.207 1198.38 Q696.578 1198.38 699.772 1201.07 Q702.967 1203.75 702.967 1208.24 Q702.967 1210.37 702.156 1212.29 Q701.369 1214.19 699.263 1216.78 Q698.684 1217.46 695.582 1220.67 Q692.481 1223.87 686.832 1229.63 Z" fill="#000000" fill-rule="nonzero" fill-opacity="1" /><path clip-path="url(#clip630)" d="M1132.84 1203.08 L1121.04 1221.53 L1132.84 1221.53 L1132.84 1203.08 M1131.62 1199.01 L1137.5 1199.01 L1137.5 1221.53 L1142.43 1221.53 L1142.43 1225.42 L1137.5 1225.42 L1137.5 1233.57 L1132.84 1233.57 L1132.84 1225.42 L1117.24 1225.42 L1117.24 1220.9 L1131.62 1199.01 Z" fill="#000000" fill-rule="nonzero" fill-opacity="1" /><path clip-path="url(#clip630)" d="M1567.9 1214.42 Q1564.75 1214.42 1562.9 1216.58 Q1561.07 1218.73 1561.07 1222.48 Q1561.07 1226.21 1562.9 1228.38 Q1564.75 1230.53 1567.9 1230.53 Q1571.04 1230.53 1572.87 1228.38 Q1574.72 1226.21 1574.72 1222.48 Q1574.72 1218.73 1572.87 1216.58 Q1571.04 1214.42 1567.9 1214.42 M1577.18 1199.77 L1577.18 1204.03 Q1575.42 1203.2 1573.61 1202.76 Q1571.83 1202.32 1570.07 1202.32 Q1565.44 1202.32 1562.99 1205.44 Q1560.56 1208.57 1560.21 1214.89 Q1561.58 1212.87 1563.64 1211.81 Q1565.7 1210.72 1568.17 1210.72 Q1573.38 1210.72 1576.39 1213.89 Q1579.42 1217.04 1579.42 1222.48 Q1579.42 1227.8 1576.27 1231.02 Q1573.13 1234.24 1567.9 1234.24 Q1561.9 1234.24 1558.73 1229.65 Q1555.56 1225.05 1555.56 1216.32 Q1555.56 1208.13 1559.45 1203.27 Q1563.34 1198.38 1569.89 1198.38 Q1571.65 1198.38 1573.43 1198.73 Q1575.23 1199.08 1577.18 1199.77 Z" fill="#000000" fill-rule="nonzero" fill-opacity="1" /><path clip-path="url(#clip630)" d="M2005.15 1217.15 Q2001.81 1217.15 1999.89 1218.94 Q1997.99 1220.72 1997.99 1223.84 Q1997.99 1226.97 1999.89 1228.75 Q2001.81 1230.53 2005.15 1230.53 Q2008.48 1230.53 2010.4 1228.75 Q2012.32 1226.95 2012.32 1223.84 Q2012.32 1220.72 2010.4 1218.94 Q2008.5 1217.15 2005.15 1217.15 M2000.47 1215.16 Q1997.46 1214.42 1995.77 1212.36 Q1994.1 1210.3 1994.1 1207.34 Q1994.1 1203.2 1997.04 1200.79 Q2000.01 1198.38 2005.15 1198.38 Q2010.31 1198.38 2013.25 1200.79 Q2016.19 1203.2 2016.19 1207.34 Q2016.19 1210.3 2014.5 1212.36 Q2012.83 1214.42 2009.84 1215.16 Q2013.22 1215.95 2015.1 1218.24 Q2017 1220.53 2017 1223.84 Q2017 1228.87 2013.92 1231.55 Q2010.86 1234.24 2005.15 1234.24 Q1999.43 1234.24 1996.35 1231.55 Q1993.29 1228.87 1993.29 1223.84 Q1993.29 1220.53 1995.19 1218.24 Q1997.09 1215.95 2000.47 1215.16 M1998.76 1207.78 Q1998.76 1210.47 2000.42 1211.97 Q2002.11 1213.47 2005.15 1213.47 Q2008.15 1213.47 2009.84 1211.97 Q2011.56 1210.47 2011.56 1207.78 Q2011.56 1205.09 2009.84 1203.59 Q2008.15 1202.09 2005.15 1202.09 Q2002.11 1202.09 2000.42 1203.59 Q1998.76 1205.09 1998.76 1207.78 Z" fill="#000000" fill-rule="nonzero" fill-opacity="1" /><path clip-path="url(#clip630)" d="M643.495 1266.49 L683.694 1266.49 L683.694 1271.91 L666.825 1271.91 L666.825 1314.01 L660.364 1314.01 L660.364 1271.91 L643.495 1271.91 L643.495 1266.49 Z" fill="#000000" fill-rule="nonzero" fill-opacity="1" /><path clip-path="url(#clip630)" d="M719.278 1292.5 L719.278 1314.01 L713.422 1314.01 L713.422 1292.69 Q713.422 1287.63 711.448 1285.11 Q709.475 1282.6 705.528 1282.6 Q700.786 1282.6 698.049 1285.62 Q695.311 1288.65 695.311 1293.87 L695.311 1314.01 L689.423 1314.01 L689.423 1264.49 L695.311 1264.49 L695.311 1283.9 Q697.412 1280.69 700.245 1279.1 Q703.109 1277.51 706.833 1277.51 Q712.976 1277.51 716.127 1281.33 Q719.278 1285.11 719.278 1292.5 Z" fill="#000000" fill-rule="nonzero" fill-opacity="1" /><path clip-path="url(#clip630)" d="M761.451 1294.73 L761.451 1297.59 L734.524 1297.59 Q734.906 1303.64 738.153 1306.82 Q741.431 1309.97 747.256 1309.97 Q750.629 1309.97 753.78 1309.14 Q756.963 1308.32 760.082 1306.66 L760.082 1312.2 Q756.931 1313.54 753.621 1314.24 Q750.311 1314.94 746.905 1314.94 Q738.375 1314.94 733.378 1309.97 Q728.413 1305.01 728.413 1296.54 Q728.413 1287.79 733.124 1282.66 Q737.866 1277.51 745.887 1277.51 Q753.08 1277.51 757.25 1282.15 Q761.451 1286.77 761.451 1294.73 M755.595 1293.01 Q755.531 1288.2 752.889 1285.34 Q750.279 1282.47 745.951 1282.47 Q741.049 1282.47 738.089 1285.24 Q735.161 1288.01 734.715 1293.04 L755.595 1293.01 Z" fill="#000000" fill-rule="nonzero" fill-opacity="1" /><path clip-path="url(#clip630)" d="M784.877 1282.47 Q780.166 1282.47 777.429 1286.16 Q774.692 1289.83 774.692 1296.22 Q774.692 1302.62 777.397 1306.31 Q780.134 1309.97 784.877 1309.97 Q789.556 1309.97 792.293 1306.28 Q795.03 1302.59 795.03 1296.22 Q795.03 1289.89 792.293 1286.2 Q789.556 1282.47 784.877 1282.47 M784.877 1277.51 Q792.516 1277.51 796.876 1282.47 Q801.237 1287.44 801.237 1296.22 Q801.237 1304.98 796.876 1309.97 Q792.516 1314.94 784.877 1314.94 Q777.206 1314.94 772.846 1309.97 Q768.517 1304.98 768.517 1296.22 Q768.517 1287.44 772.846 1282.47 Q777.206 1277.51 784.877 1277.51 Z" fill="#000000" fill-rule="nonzero" fill-opacity="1" /><path clip-path="url(#clip630)" d="M831.601 1283.84 Q830.615 1283.27 829.437 1283.01 Q828.291 1282.73 826.891 1282.73 Q821.925 1282.73 819.252 1285.97 Q816.61 1289.19 816.61 1295.24 L816.61 1314.01 L810.722 1314.01 L810.722 1278.37 L816.61 1278.37 L816.61 1283.9 Q818.456 1280.66 821.416 1279.1 Q824.376 1277.51 828.609 1277.51 Q829.214 1277.51 829.946 1277.6 Q830.678 1277.67 831.569 1277.83 L831.601 1283.84 Z" fill="#000000" fill-rule="nonzero" fill-opacity="1" /><path clip-path="url(#clip630)" d="M866.804 1294.73 L866.804 1297.59 L839.877 1297.59 Q840.259 1303.64 843.505 1306.82 Q846.783 1309.97 852.608 1309.97 Q855.982 1309.97 859.133 1309.14 Q862.316 1308.32 865.435 1306.66 L865.435 1312.2 Q862.284 1313.54 858.974 1314.24 Q855.664 1314.94 852.258 1314.94 Q843.728 1314.94 838.731 1309.97 Q833.766 1305.01 833.766 1296.54 Q833.766 1287.79 838.476 1282.66 Q843.219 1277.51 851.239 1277.51 Q858.433 1277.51 862.602 1282.15 Q866.804 1286.77 866.804 1294.73 M860.947 1293.01 Q860.883 1288.2 858.242 1285.34 Q855.632 1282.47 851.303 1282.47 Q846.401 1282.47 843.441 1285.24 Q840.513 1288.01 840.068 1293.04 L860.947 1293.01 Z" fill="#000000" fill-rule="nonzero" fill-opacity="1" /><path clip-path="url(#clip630)" d="M882.209 1268.25 L882.209 1278.37 L894.272 1278.37 L894.272 1282.92 L882.209 1282.92 L882.209 1302.27 Q882.209 1306.63 883.386 1307.87 Q884.596 1309.11 888.256 1309.11 L894.272 1309.11 L894.272 1314.01 L888.256 1314.01 Q881.476 1314.01 878.898 1311.5 Q876.32 1308.95 876.32 1302.27 L876.32 1282.92 L872.023 1282.92 L872.023 1278.37 L876.32 1278.37 L876.32 1268.25 L882.209 1268.25 Z" fill="#000000" fill-rule="nonzero" fill-opacity="1" /><path clip-path="url(#clip630)" d="M901.974 1278.37 L907.831 1278.37 L907.831 1314.01 L901.974 1314.01 L901.974 1278.37 M901.974 1264.49 L907.831 1264.49 L907.831 1271.91 L901.974 1271.91 L901.974 1264.49 Z" fill="#000000" fill-rule="nonzero" fill-opacity="1" /><path clip-path="url(#clip630)" d="M945.738 1279.74 L945.738 1285.21 Q943.256 1283.84 940.741 1283.17 Q938.259 1282.47 935.712 1282.47 Q930.015 1282.47 926.864 1286.1 Q923.713 1289.7 923.713 1296.22 Q923.713 1302.75 926.864 1306.38 Q930.015 1309.97 935.712 1309.97 Q938.259 1309.97 940.741 1309.3 Q943.256 1308.6 945.738 1307.24 L945.738 1312.65 Q943.288 1313.79 940.646 1314.36 Q938.036 1314.94 935.076 1314.94 Q927.023 1314.94 922.281 1309.88 Q917.538 1304.82 917.538 1296.22 Q917.538 1287.5 922.313 1282.5 Q927.119 1277.51 935.458 1277.51 Q938.163 1277.51 940.741 1278.08 Q943.319 1278.62 945.738 1279.74 Z" fill="#000000" fill-rule="nonzero" fill-opacity="1" /><path clip-path="url(#clip630)" d="M972.124 1296.1 Q965.026 1296.1 962.289 1297.72 Q959.552 1299.34 959.552 1303.26 Q959.552 1306.38 961.589 1308.22 Q963.658 1310.04 967.191 1310.04 Q972.061 1310.04 974.989 1306.6 Q977.949 1303.13 977.949 1297.4 L977.949 1296.1 L972.124 1296.1 M983.805 1293.68 L983.805 1314.01 L977.949 1314.01 L977.949 1308.6 Q975.944 1311.85 972.952 1313.41 Q969.96 1314.94 965.631 1314.94 Q960.157 1314.94 956.91 1311.88 Q953.695 1308.79 953.695 1303.64 Q953.695 1297.62 957.706 1294.57 Q961.748 1291.51 969.737 1291.51 L977.949 1291.51 L977.949 1290.94 Q977.949 1286.9 975.275 1284.7 Q972.633 1282.47 967.827 1282.47 Q964.772 1282.47 961.875 1283.2 Q958.979 1283.94 956.305 1285.4 L956.305 1279.99 Q959.52 1278.75 962.544 1278.14 Q965.567 1277.51 968.432 1277.51 Q976.166 1277.51 979.986 1281.52 Q983.805 1285.53 983.805 1293.68 Z" fill="#000000" fill-rule="nonzero" fill-opacity="1" /><path clip-path="url(#clip630)" d="M995.868 1264.49 L1001.72 1264.49 L1001.72 1314.01 L995.868 1314.01 L995.868 1264.49 Z" fill="#000000" fill-rule="nonzero" fill-opacity="1" /><path clip-path="url(#clip630)" d="M1034.95 1266.49 L1043.61 1266.49 L1064.68 1306.25 L1064.68 1266.49 L1070.92 1266.49 L1070.92 1314.01 L1062.26 1314.01 L1041.19 1274.26 L1041.19 1314.01 L1034.95 1314.01 L1034.95 1266.49 Z" fill="#000000" fill-rule="nonzero" fill-opacity="1" /><path clip-path="url(#clip630)" d="M1097.27 1282.47 Q1092.56 1282.47 1089.83 1286.16 Q1087.09 1289.83 1087.09 1296.22 Q1087.09 1302.62 1089.79 1306.31 Q1092.53 1309.97 1097.27 1309.97 Q1101.95 1309.97 1104.69 1306.28 Q1107.43 1302.59 1107.43 1296.22 Q1107.43 1289.89 1104.69 1286.2 Q1101.95 1282.47 1097.27 1282.47 M1097.27 1277.51 Q1104.91 1277.51 1109.27 1282.47 Q1113.63 1287.44 1113.63 1296.22 Q1113.63 1304.98 1109.27 1309.97 Q1104.91 1314.94 1097.27 1314.94 Q1089.6 1314.94 1085.24 1309.97 Q1080.91 1304.98 1080.91 1296.22 Q1080.91 1287.44 1085.24 1282.47 Q1089.6 1277.51 1097.27 1277.51 Z" fill="#000000" fill-rule="nonzero" fill-opacity="1" /><path clip-path="url(#clip630)" d="M1144 1283.84 Q1143.01 1283.27 1141.83 1283.01 Q1140.69 1282.73 1139.29 1282.73 Q1134.32 1282.73 1131.65 1285.97 Q1129.01 1289.19 1129.01 1295.24 L1129.01 1314.01 L1123.12 1314.01 L1123.12 1278.37 L1129.01 1278.37 L1129.01 1283.9 Q1130.85 1280.66 1133.81 1279.1 Q1136.77 1277.51 1141.01 1277.51 Q1141.61 1277.51 1142.34 1277.6 Q1143.08 1277.67 1143.97 1277.83 L1144 1283.84 Z" fill="#000000" fill-rule="nonzero" fill-opacity="1" /><path clip-path="url(#clip630)" d="M1176.75 1285.21 Q1178.95 1281.26 1182 1279.39 Q1185.06 1277.51 1189.19 1277.51 Q1194.76 1277.51 1197.79 1281.42 Q1200.81 1285.31 1200.81 1292.5 L1200.81 1314.01 L1194.92 1314.01 L1194.92 1292.69 Q1194.92 1287.57 1193.11 1285.08 Q1191.3 1282.6 1187.57 1282.6 Q1183.02 1282.6 1180.38 1285.62 Q1177.74 1288.65 1177.74 1293.87 L1177.74 1314.01 L1171.85 1314.01 L1171.85 1292.69 Q1171.85 1287.53 1170.03 1285.08 Q1168.22 1282.6 1164.43 1282.6 Q1159.94 1282.6 1157.3 1285.66 Q1154.66 1288.68 1154.66 1293.87 L1154.66 1314.01 L1148.77 1314.01 L1148.77 1278.37 L1154.66 1278.37 L1154.66 1283.9 Q1156.67 1280.63 1159.47 1279.07 Q1162.27 1277.51 1166.12 1277.51 Q1170 1277.51 1172.71 1279.48 Q1175.44 1281.45 1176.75 1285.21 Z" fill="#000000" fill-rule="nonzero" fill-opacity="1" /><path clip-path="url(#clip630)" d="M1228.69 1296.1 Q1221.6 1296.1 1218.86 1297.72 Q1216.12 1299.34 1216.12 1303.26 Q1216.12 1306.38 1218.16 1308.22 Q1220.23 1310.04 1223.76 1310.04 Q1228.63 1310.04 1231.56 1306.6 Q1234.52 1303.13 1234.52 1297.4 L1234.52 1296.1 L1228.69 1296.1 M1240.38 1293.68 L1240.38 1314.01 L1234.52 1314.01 L1234.52 1308.6 Q1232.51 1311.85 1229.52 1313.41 Q1226.53 1314.94 1222.2 1314.94 Q1216.73 1314.94 1213.48 1311.88 Q1210.27 1308.79 1210.27 1303.64 Q1210.27 1297.62 1214.28 1294.57 Q1218.32 1291.51 1226.31 1291.51 L1234.52 1291.51 L1234.52 1290.94 Q1234.52 1286.9 1231.84 1284.7 Q1229.2 1282.47 1224.4 1282.47 Q1221.34 1282.47 1218.45 1283.2 Q1215.55 1283.94 1212.88 1285.4 L1212.88 1279.99 Q1216.09 1278.75 1219.11 1278.14 Q1222.14 1277.51 1225 1277.51 Q1232.74 1277.51 1236.56 1281.52 Q1240.38 1285.53 1240.38 1293.68 Z" fill="#000000" fill-rule="nonzero" fill-opacity="1" /><path clip-path="url(#clip630)" d="M1252.44 1264.49 L1258.29 1264.49 L1258.29 1314.01 L1252.44 1314.01 L1252.44 1264.49 Z" fill="#000000" fill-rule="nonzero" fill-opacity="1" /><path clip-path="url(#clip630)" d="M1310.81 1270.86 Q1303.81 1270.86 1299.67 1276.08 Q1295.57 1281.3 1295.57 1290.3 Q1295.57 1299.28 1299.67 1304.5 Q1303.81 1309.72 1310.81 1309.72 Q1317.81 1309.72 1321.89 1304.5 Q1325.99 1299.28 1325.99 1290.3 Q1325.99 1281.3 1321.89 1276.08 Q1317.81 1270.86 1310.81 1270.86 M1319.82 1313.16 L1328.29 1322.42 L1320.52 1322.42 L1313.49 1314.81 Q1312.43 1314.87 1311.86 1314.91 Q1311.32 1314.94 1310.81 1314.94 Q1300.79 1314.94 1294.77 1308.25 Q1288.79 1301.54 1288.79 1290.3 Q1288.79 1279.04 1294.77 1272.35 Q1300.79 1265.64 1310.81 1265.64 Q1320.81 1265.64 1326.79 1272.35 Q1332.77 1279.04 1332.77 1290.3 Q1332.77 1298.58 1329.43 1304.47 Q1326.12 1310.35 1319.82 1313.16 Z" fill="#000000" fill-rule="nonzero" fill-opacity="1" /><path clip-path="url(#clip630)" d="M1341.97 1299.95 L1341.97 1278.37 L1347.83 1278.37 L1347.83 1299.72 Q1347.83 1304.78 1349.8 1307.33 Q1351.77 1309.85 1355.72 1309.85 Q1360.46 1309.85 1363.2 1306.82 Q1365.97 1303.8 1365.97 1298.58 L1365.97 1278.37 L1371.83 1278.37 L1371.83 1314.01 L1365.97 1314.01 L1365.97 1308.54 Q1363.84 1311.79 1361.01 1313.38 Q1358.2 1314.94 1354.48 1314.94 Q1348.34 1314.94 1345.15 1311.12 Q1341.97 1307.3 1341.97 1299.95 M1356.71 1277.51 L1356.71 1277.51 Z" fill="#000000" fill-rule="nonzero" fill-opacity="1" /><path clip-path="url(#clip630)" d="M1400.09 1296.1 Q1392.99 1296.1 1390.26 1297.72 Q1387.52 1299.34 1387.52 1303.26 Q1387.52 1306.38 1389.56 1308.22 Q1391.62 1310.04 1395.16 1310.04 Q1400.03 1310.04 1402.96 1306.6 Q1405.92 1303.13 1405.92 1297.4 L1405.92 1296.1 L1400.09 1296.1 M1411.77 1293.68 L1411.77 1314.01 L1405.92 1314.01 L1405.92 1308.6 Q1403.91 1311.85 1400.92 1313.41 Q1397.93 1314.94 1393.6 1314.94 Q1388.12 1314.94 1384.88 1311.88 Q1381.66 1308.79 1381.66 1303.64 Q1381.66 1297.62 1385.67 1294.57 Q1389.71 1291.51 1397.7 1291.51 L1405.92 1291.51 L1405.92 1290.94 Q1405.92 1286.9 1403.24 1284.7 Q1400.6 1282.47 1395.79 1282.47 Q1392.74 1282.47 1389.84 1283.2 Q1386.95 1283.94 1384.27 1285.4 L1384.27 1279.99 Q1387.49 1278.75 1390.51 1278.14 Q1393.53 1277.51 1396.4 1277.51 Q1404.13 1277.51 1407.95 1281.52 Q1411.77 1285.53 1411.77 1293.68 Z" fill="#000000" fill-rule="nonzero" fill-opacity="1" /><path clip-path="url(#clip630)" d="M1453.47 1292.5 L1453.47 1314.01 L1447.61 1314.01 L1447.61 1292.69 Q1447.61 1287.63 1445.64 1285.11 Q1443.66 1282.6 1439.72 1282.6 Q1434.97 1282.6 1432.24 1285.62 Q1429.5 1288.65 1429.5 1293.87 L1429.5 1314.01 L1423.61 1314.01 L1423.61 1278.37 L1429.5 1278.37 L1429.5 1283.9 Q1431.6 1280.69 1434.43 1279.1 Q1437.3 1277.51 1441.02 1277.51 Q1447.17 1277.51 1450.32 1281.33 Q1453.47 1285.11 1453.47 1292.5 Z" fill="#000000" fill-rule="nonzero" fill-opacity="1" /><path clip-path="url(#clip630)" d="M1470.94 1268.25 L1470.94 1278.37 L1483 1278.37 L1483 1282.92 L1470.94 1282.92 L1470.94 1302.27 Q1470.94 1306.63 1472.12 1307.87 Q1473.33 1309.11 1476.99 1309.11 L1483 1309.11 L1483 1314.01 L1476.99 1314.01 Q1470.21 1314.01 1467.63 1311.5 Q1465.05 1308.95 1465.05 1302.27 L1465.05 1282.92 L1460.76 1282.92 L1460.76 1278.37 L1465.05 1278.37 L1465.05 1268.25 L1470.94 1268.25 Z" fill="#000000" fill-rule="nonzero" fill-opacity="1" /><path clip-path="url(#clip630)" d="M1490.71 1278.37 L1496.56 1278.37 L1496.56 1314.01 L1490.71 1314.01 L1490.71 1278.37 M1490.71 1264.49 L1496.56 1264.49 L1496.56 1271.91 L1490.71 1271.91 L1490.71 1264.49 Z" fill="#000000" fill-rule="nonzero" fill-opacity="1" /><path clip-path="url(#clip630)" d="M1508.82 1264.49 L1514.67 1264.49 L1514.67 1314.01 L1508.82 1314.01 L1508.82 1264.49 Z" fill="#000000" fill-rule="nonzero" fill-opacity="1" /><path clip-path="url(#clip630)" d="M1557.42 1294.73 L1557.42 1297.59 L1530.49 1297.59 Q1530.87 1303.64 1534.12 1306.82 Q1537.4 1309.97 1543.22 1309.97 Q1546.6 1309.97 1549.75 1309.14 Q1552.93 1308.32 1556.05 1306.66 L1556.05 1312.2 Q1552.9 1313.54 1549.59 1314.24 Q1546.28 1314.94 1542.87 1314.94 Q1534.34 1314.94 1529.35 1309.97 Q1524.38 1305.01 1524.38 1296.54 Q1524.38 1287.79 1529.09 1282.66 Q1533.83 1277.51 1541.85 1277.51 Q1549.05 1277.51 1553.22 1282.15 Q1557.42 1286.77 1557.42 1294.73 M1551.56 1293.01 Q1551.5 1288.2 1548.86 1285.34 Q1546.25 1282.47 1541.92 1282.47 Q1537.02 1282.47 1534.06 1285.24 Q1531.13 1288.01 1530.68 1293.04 L1551.56 1293.01 Z" fill="#000000" fill-rule="nonzero" fill-opacity="1" /><path clip-path="url(#clip630)" d="M1589.76 1279.42 L1589.76 1284.96 Q1587.27 1283.68 1584.6 1283.05 Q1581.93 1282.41 1579.06 1282.41 Q1574.7 1282.41 1572.51 1283.75 Q1570.34 1285.08 1570.34 1287.76 Q1570.34 1289.79 1571.9 1290.97 Q1573.46 1292.12 1578.17 1293.17 L1580.18 1293.61 Q1586.41 1294.95 1589.02 1297.4 Q1591.67 1299.82 1591.67 1304.18 Q1591.67 1309.14 1587.72 1312.04 Q1583.8 1314.94 1576.93 1314.94 Q1574.07 1314.94 1570.95 1314.36 Q1567.86 1313.82 1564.42 1312.71 L1564.42 1306.66 Q1567.67 1308.35 1570.82 1309.21 Q1573.97 1310.04 1577.06 1310.04 Q1581.19 1310.04 1583.42 1308.64 Q1585.65 1307.2 1585.65 1304.63 Q1585.65 1302.24 1584.03 1300.97 Q1582.44 1299.69 1576.99 1298.51 L1574.96 1298.04 Q1569.51 1296.89 1567.09 1294.54 Q1564.68 1292.15 1564.68 1288.01 Q1564.68 1282.98 1568.24 1280.24 Q1571.81 1277.51 1578.36 1277.51 Q1581.61 1277.51 1584.47 1277.98 Q1587.34 1278.46 1589.76 1279.42 Z" fill="#000000" fill-rule="nonzero" fill-opacity="1" /><polyline clip-path="url(#clip632)" style="stroke:#000000; stroke-linecap:round; stroke-linejoin:round; stroke-width:2; stroke-opacity:0.1; fill:none" points="170.405,1123.46 2064.76,1123.46 "/>
<polyline clip-path="url(#clip632)" style="stroke:#000000; stroke-linecap:round; stroke-linejoin:round; stroke-width:2; stroke-opacity:0.1; fill:none" points="170.405,863.266 2064.76,863.266 "/>
<polyline clip-path="url(#clip632)" style="stroke:#000000; stroke-linecap:round; stroke-linejoin:round; stroke-width:2; stroke-opacity:0.1; fill:none" points="170.405,603.072 2064.76,603.072 "/>
<polyline clip-path="url(#clip632)" style="stroke:#000000; stroke-linecap:round; stroke-linejoin:round; stroke-width:2; stroke-opacity:0.1; fill:none" points="170.405,342.878 2064.76,342.878 "/>
<polyline clip-path="url(#clip632)" style="stroke:#000000; stroke-linecap:round; stroke-linejoin:round; stroke-width:2; stroke-opacity:0.1; fill:none" points="170.405,82.6837 2064.76,82.6837 "/>
<polyline clip-path="url(#clip630)" style="stroke:#000000; stroke-linecap:round; stroke-linejoin:round; stroke-width:4; stroke-opacity:1; fill:none" points="170.405,1173.47 170.405,47.2441 "/>
<polyline clip-path="url(#clip630)" style="stroke:#000000; stroke-linecap:round; stroke-linejoin:round; stroke-width:4; stroke-opacity:1; fill:none" points="170.405,1123.46 189.303,1123.46 "/>
<polyline clip-path="url(#clip630)" style="stroke:#000000; stroke-linecap:round; stroke-linejoin:round; stroke-width:4; stroke-opacity:1; fill:none" points="170.405,863.266 189.303,863.266 "/>
<polyline clip-path="url(#clip630)" style="stroke:#000000; stroke-linecap:round; stroke-linejoin:round; stroke-width:4; stroke-opacity:1; fill:none" points="170.405,603.072 189.303,603.072 "/>
<polyline clip-path="url(#clip630)" style="stroke:#000000; stroke-linecap:round; stroke-linejoin:round; stroke-width:4; stroke-opacity:1; fill:none" points="170.405,342.878 189.303,342.878 "/>
<polyline clip-path="url(#clip630)" style="stroke:#000000; stroke-linecap:round; stroke-linejoin:round; stroke-width:4; stroke-opacity:1; fill:none" points="170.405,82.6837 189.303,82.6837 "/>
<path clip-path="url(#clip630)" d="M126.781 1109.26 Q123.17 1109.26 121.341 1112.82 Q119.535 1116.37 119.535 1123.5 Q119.535 1130.6 121.341 1134.17 Q123.17 1137.71 126.781 1137.71 Q130.415 1137.71 132.221 1134.17 Q134.049 1130.6 134.049 1123.5 Q134.049 1116.37 132.221 1112.82 Q130.415 1109.26 126.781 1109.26 M126.781 1105.56 Q132.591 1105.56 135.647 1110.16 Q138.725 1114.75 138.725 1123.5 Q138.725 1132.22 135.647 1136.83 Q132.591 1141.41 126.781 1141.41 Q120.971 1141.41 117.892 1136.83 Q114.836 1132.22 114.836 1123.5 Q114.836 1114.75 117.892 1110.16 Q120.971 1105.56 126.781 1105.56 Z" fill="#000000" fill-rule="nonzero" fill-opacity="1" /><path clip-path="url(#clip630)" d="M122.406 876.611 L138.725 876.611 L138.725 880.546 L116.781 880.546 L116.781 876.611 Q119.443 873.856 124.026 869.227 Q128.633 864.574 129.813 863.231 Q132.059 860.708 132.938 858.972 Q133.841 857.213 133.841 855.523 Q133.841 852.769 131.897 851.032 Q129.975 849.296 126.873 849.296 Q124.674 849.296 122.221 850.06 Q119.79 850.824 117.012 852.375 L117.012 847.653 Q119.836 846.519 122.29 845.94 Q124.744 845.361 126.781 845.361 Q132.151 845.361 135.346 848.046 Q138.54 850.731 138.54 855.222 Q138.54 857.352 137.73 859.273 Q136.943 861.171 134.836 863.764 Q134.258 864.435 131.156 867.653 Q128.054 870.847 122.406 876.611 Z" fill="#000000" fill-rule="nonzero" fill-opacity="1" /><path clip-path="url(#clip630)" d="M129.142 589.866 L117.336 608.315 L129.142 608.315 L129.142 589.866 M127.915 585.792 L133.795 585.792 L133.795 608.315 L138.725 608.315 L138.725 612.204 L133.795 612.204 L133.795 620.352 L129.142 620.352 L129.142 612.204 L113.54 612.204 L113.54 607.69 L127.915 585.792 Z" fill="#000000" fill-rule="nonzero" fill-opacity="1" /><path clip-path="url(#clip630)" d="M127.197 341.014 Q124.049 341.014 122.198 343.167 Q120.369 345.32 120.369 349.07 Q120.369 352.797 122.198 354.973 Q124.049 357.125 127.197 357.125 Q130.346 357.125 132.174 354.973 Q134.026 352.797 134.026 349.07 Q134.026 345.32 132.174 343.167 Q130.346 341.014 127.197 341.014 M136.48 326.362 L136.48 330.621 Q134.721 329.788 132.915 329.348 Q131.133 328.908 129.373 328.908 Q124.744 328.908 122.29 332.033 Q119.86 335.158 119.512 341.477 Q120.878 339.464 122.938 338.399 Q124.998 337.311 127.475 337.311 Q132.684 337.311 135.693 340.482 Q138.725 343.63 138.725 349.07 Q138.725 354.394 135.577 357.612 Q132.429 360.829 127.197 360.829 Q121.202 360.829 118.031 356.246 Q114.86 351.639 114.86 342.913 Q114.86 334.718 118.748 329.857 Q122.637 324.973 129.188 324.973 Q130.947 324.973 132.73 325.32 Q134.535 325.667 136.48 326.362 Z" fill="#000000" fill-rule="nonzero" fill-opacity="1" /><path clip-path="url(#clip630)" d="M126.873 83.5517 Q123.54 83.5517 121.619 85.3341 Q119.721 87.1165 119.721 90.2415 Q119.721 93.3665 121.619 95.1489 Q123.54 96.9313 126.873 96.9313 Q130.207 96.9313 132.128 95.1489 Q134.049 93.3434 134.049 90.2415 Q134.049 87.1165 132.128 85.3341 Q130.23 83.5517 126.873 83.5517 M122.198 81.561 Q119.188 80.8203 117.498 78.7601 Q115.832 76.6999 115.832 73.737 Q115.832 69.5935 118.772 67.1861 Q121.735 64.7787 126.873 64.7787 Q132.035 64.7787 134.975 67.1861 Q137.915 69.5935 137.915 73.737 Q137.915 76.6999 136.225 78.7601 Q134.559 80.8203 131.572 81.561 Q134.952 82.348 136.827 84.6397 Q138.725 86.9314 138.725 90.2415 Q138.725 95.2646 135.647 97.9498 Q132.591 100.635 126.873 100.635 Q121.156 100.635 118.077 97.9498 Q115.022 95.2646 115.022 90.2415 Q115.022 86.9314 116.92 84.6397 Q118.818 82.348 122.198 81.561 M120.485 74.1768 Q120.485 76.862 122.151 78.3666 Q123.841 79.8712 126.873 79.8712 Q129.883 79.8712 131.572 78.3666 Q133.285 76.862 133.285 74.1768 Q133.285 71.4916 131.572 69.987 Q129.883 68.4824 126.873 68.4824 Q123.841 68.4824 122.151 69.987 Q120.485 71.4916 120.485 74.1768 Z" fill="#000000" fill-rule="nonzero" fill-opacity="1" /><path clip-path="url(#clip630)" d="M20.0842 922.277 L20.0842 892.231 L25.495 892.231 L25.495 915.848 L39.5632 915.848 L39.5632 893.218 L44.9741 893.218 L44.9741 915.848 L62.1933 915.848 L62.1933 891.658 L67.6042 891.658 L67.6042 922.277 L20.0842 922.277 Z" fill="#000000" fill-rule="nonzero" fill-opacity="1" /><path clip-path="url(#clip630)" d="M38.7993 853.591 Q34.8526 851.395 32.9747 848.339 Q31.0968 845.284 31.0968 841.146 Q31.0968 835.576 35.0117 832.552 Q38.8948 829.529 46.0881 829.529 L67.6042 829.529 L67.6042 835.417 L46.279 835.417 Q41.1546 835.417 38.672 837.231 Q36.1894 839.045 36.1894 842.769 Q36.1894 847.321 39.2131 849.963 Q42.2368 852.604 47.4567 852.604 L67.6042 852.604 L67.6042 858.493 L46.279 858.493 Q41.1228 858.493 38.672 860.307 Q36.1894 862.121 36.1894 865.909 Q36.1894 870.397 39.2449 873.038 Q42.2686 875.68 47.4567 875.68 L67.6042 875.68 L67.6042 881.568 L31.9562 881.568 L31.9562 875.68 L37.4944 875.68 Q34.216 873.675 32.6564 870.874 Q31.0968 868.073 31.0968 864.222 Q31.0968 860.339 33.0702 857.633 Q35.0436 854.896 38.7993 853.591 Z" fill="#000000" fill-rule="nonzero" fill-opacity="1" /><path clip-path="url(#clip630)" d="M62.257 812.182 L81.1631 812.182 L81.1631 818.07 L31.9562 818.07 L31.9562 812.182 L37.3671 812.182 Q34.1842 810.336 32.6564 807.535 Q31.0968 804.702 31.0968 800.788 Q31.0968 794.295 36.2531 790.252 Q41.4093 786.178 49.812 786.178 Q58.2147 786.178 63.371 790.252 Q68.5272 794.295 68.5272 800.788 Q68.5272 804.702 66.9994 807.535 Q65.4398 810.336 62.257 812.182 M49.812 792.257 Q43.3508 792.257 39.6905 794.931 Q35.9984 797.573 35.9984 802.22 Q35.9984 806.867 39.6905 809.54 Q43.3508 812.182 49.812 812.182 Q56.2732 812.182 59.9653 809.54 Q63.6256 806.867 63.6256 802.22 Q63.6256 797.573 59.9653 794.931 Q56.2732 792.257 49.812 792.257 Z" fill="#000000" fill-rule="nonzero" fill-opacity="1" /><path clip-path="url(#clip630)" d="M31.9562 776.471 L31.9562 770.614 L67.6042 770.614 L67.6042 776.471 L31.9562 776.471 M18.079 776.471 L18.079 770.614 L25.495 770.614 L25.495 776.471 L18.079 776.471 Z" fill="#000000" fill-rule="nonzero" fill-opacity="1" /><path clip-path="url(#clip630)" d="M37.4307 737.703 Q36.8578 738.69 36.6032 739.868 Q36.3167 741.014 36.3167 742.414 Q36.3167 747.379 39.5632 750.053 Q42.7779 752.695 48.8253 752.695 L67.6042 752.695 L67.6042 758.583 L31.9562 758.583 L31.9562 752.695 L37.4944 752.695 Q34.2479 750.849 32.6883 747.889 Q31.0968 744.928 31.0968 740.695 Q31.0968 740.091 31.1923 739.358 Q31.256 738.626 31.4151 737.735 L37.4307 737.703 Z" fill="#000000" fill-rule="nonzero" fill-opacity="1" /><path clip-path="url(#clip630)" d="M31.9562 731.56 L31.9562 725.704 L67.6042 725.704 L67.6042 731.56 L31.9562 731.56 M18.079 731.56 L18.079 725.704 L25.495 725.704 L25.495 731.56 L18.079 731.56 Z" fill="#000000" fill-rule="nonzero" fill-opacity="1" /><path clip-path="url(#clip630)" d="M33.3248 687.796 L38.7993 687.796 Q37.4307 690.279 36.7623 692.793 Q36.0621 695.276 36.0621 697.822 Q36.0621 703.52 39.6905 706.671 Q43.2872 709.822 49.812 709.822 Q56.3369 709.822 59.9653 706.671 Q63.5619 703.52 63.5619 697.822 Q63.5619 695.276 62.8935 692.793 Q62.1933 690.279 60.8247 687.796 L66.2355 687.796 Q67.3814 690.247 67.9543 692.889 Q68.5272 695.499 68.5272 698.459 Q68.5272 706.511 63.4664 711.254 Q58.4057 715.996 49.812 715.996 Q41.091 715.996 36.0939 711.222 Q31.0968 706.416 31.0968 698.077 Q31.0968 695.371 31.6697 692.793 Q32.2108 690.215 33.3248 687.796 Z" fill="#000000" fill-rule="nonzero" fill-opacity="1" /><path clip-path="url(#clip630)" d="M49.6847 661.41 Q49.6847 668.508 51.3079 671.245 Q52.9312 673.983 56.8461 673.983 Q59.9653 673.983 61.8114 671.946 Q63.6256 669.877 63.6256 666.344 Q63.6256 661.474 60.1881 658.546 Q56.7188 655.586 50.9897 655.586 L49.6847 655.586 L49.6847 661.41 M47.2657 649.729 L67.6042 649.729 L67.6042 655.586 L62.1933 655.586 Q65.4398 657.591 66.9994 660.583 Q68.5272 663.575 68.5272 667.903 Q68.5272 673.378 65.4716 676.624 Q62.3843 679.839 57.2281 679.839 Q51.2125 679.839 48.1569 675.829 Q45.1014 671.786 45.1014 663.798 L45.1014 655.586 L44.5285 655.586 Q40.4862 655.586 38.2901 658.259 Q36.0621 660.901 36.0621 665.707 Q36.0621 668.763 36.7941 671.659 Q37.5262 674.556 38.9903 677.229 L33.5795 677.229 Q32.3381 674.014 31.7334 670.991 Q31.0968 667.967 31.0968 665.103 Q31.0968 657.368 35.1072 653.549 Q39.1176 649.729 47.2657 649.729 Z" fill="#000000" fill-rule="nonzero" fill-opacity="1" /><path clip-path="url(#clip630)" d="M18.079 637.666 L18.079 631.81 L67.6042 631.81 L67.6042 637.666 L18.079 637.666 Z" fill="#000000" fill-rule="nonzero" fill-opacity="1" /><path clip-path="url(#clip630)" d="M24.4447 579.293 Q24.4447 586.295 29.6645 590.433 Q34.8844 594.539 43.8919 594.539 Q52.8675 594.539 58.0874 590.433 Q63.3073 586.295 63.3073 579.293 Q63.3073 572.29 58.0874 568.216 Q52.8675 564.111 43.8919 564.111 Q34.8844 564.111 29.6645 568.216 Q24.4447 572.29 24.4447 579.293 M66.7448 570.285 L76.0069 561.819 L76.0069 569.585 L68.3999 576.619 Q68.4635 577.67 68.4954 578.242 Q68.5272 578.784 68.5272 579.293 Q68.5272 589.319 61.8432 595.334 Q55.1274 601.318 43.8919 601.318 Q32.6246 601.318 25.9406 595.334 Q19.2248 589.319 19.2248 579.293 Q19.2248 569.299 25.9406 563.315 Q32.6246 557.331 43.8919 557.331 Q52.1673 557.331 58.0556 560.673 Q63.9439 563.983 66.7448 570.285 Z" fill="#000000" fill-rule="nonzero" fill-opacity="1" /><path clip-path="url(#clip630)" d="M53.5359 548.133 L31.9562 548.133 L31.9562 542.276 L53.3131 542.276 Q58.3739 542.276 60.9202 540.303 Q63.4346 538.329 63.4346 534.383 Q63.4346 529.64 60.4109 526.903 Q57.3872 524.134 52.1673 524.134 L31.9562 524.134 L31.9562 518.277 L67.6042 518.277 L67.6042 524.134 L62.1296 524.134 Q65.3762 526.266 66.9676 529.099 Q68.5272 531.9 68.5272 535.624 Q68.5272 541.767 64.7078 544.95 Q60.8883 548.133 53.5359 548.133 M31.0968 533.396 L31.0968 533.396 Z" fill="#000000" fill-rule="nonzero" fill-opacity="1" /><path clip-path="url(#clip630)" d="M49.6847 490.014 Q49.6847 497.112 51.3079 499.849 Q52.9312 502.586 56.8461 502.586 Q59.9653 502.586 61.8114 500.549 Q63.6256 498.48 63.6256 494.947 Q63.6256 490.077 60.1881 487.149 Q56.7188 484.189 50.9897 484.189 L49.6847 484.189 L49.6847 490.014 M47.2657 478.333 L67.6042 478.333 L67.6042 484.189 L62.1933 484.189 Q65.4398 486.194 66.9994 489.186 Q68.5272 492.178 68.5272 496.507 Q68.5272 501.981 65.4716 505.228 Q62.3843 508.442 57.2281 508.442 Q51.2125 508.442 48.1569 504.432 Q45.1014 500.39 45.1014 492.401 L45.1014 484.189 L44.5285 484.189 Q40.4862 484.189 38.2901 486.863 Q36.0621 489.504 36.0621 494.311 Q36.0621 497.366 36.7941 500.263 Q37.5262 503.159 38.9903 505.833 L33.5795 505.833 Q32.3381 502.618 31.7334 499.594 Q31.0968 496.57 31.0968 493.706 Q31.0968 485.972 35.1072 482.152 Q39.1176 478.333 47.2657 478.333 Z" fill="#000000" fill-rule="nonzero" fill-opacity="1" /><path clip-path="url(#clip630)" d="M46.0881 436.637 L67.6042 436.637 L67.6042 442.494 L46.279 442.494 Q41.2183 442.494 38.7038 444.467 Q36.1894 446.44 36.1894 450.387 Q36.1894 455.13 39.2131 457.867 Q42.2368 460.604 47.4567 460.604 L67.6042 460.604 L67.6042 466.492 L31.9562 466.492 L31.9562 460.604 L37.4944 460.604 Q34.2797 458.503 32.6883 455.671 Q31.0968 452.806 31.0968 449.082 Q31.0968 442.939 34.9163 439.788 Q38.7038 436.637 46.0881 436.637 Z" fill="#000000" fill-rule="nonzero" fill-opacity="1" /><path clip-path="url(#clip630)" d="M21.8347 419.163 L31.9562 419.163 L31.9562 407.1 L36.5077 407.1 L36.5077 419.163 L55.8594 419.163 Q60.2199 419.163 61.4613 417.986 Q62.7026 416.776 62.7026 413.116 L62.7026 407.1 L67.6042 407.1 L67.6042 413.116 Q67.6042 419.895 65.0897 422.474 Q62.5434 425.052 55.8594 425.052 L36.5077 425.052 L36.5077 429.349 L31.9562 429.349 L31.9562 425.052 L21.8347 425.052 L21.8347 419.163 Z" fill="#000000" fill-rule="nonzero" fill-opacity="1" /><path clip-path="url(#clip630)" d="M31.9562 399.398 L31.9562 393.541 L67.6042 393.541 L67.6042 399.398 L31.9562 399.398 M18.079 399.398 L18.079 393.541 L25.495 393.541 L25.495 399.398 L18.079 399.398 Z" fill="#000000" fill-rule="nonzero" fill-opacity="1" /><path clip-path="url(#clip630)" d="M18.079 381.287 L18.079 375.431 L67.6042 375.431 L67.6042 381.287 L18.079 381.287 Z" fill="#000000" fill-rule="nonzero" fill-opacity="1" /><path clip-path="url(#clip630)" d="M48.3161 332.685 L51.1806 332.685 L51.1806 359.612 Q57.2281 359.23 60.4109 355.984 Q63.5619 352.705 63.5619 346.881 Q63.5619 343.507 62.7344 340.356 Q61.9069 337.173 60.2518 334.054 L65.7899 334.054 Q67.1267 337.205 67.827 340.515 Q68.5272 343.825 68.5272 347.231 Q68.5272 355.761 63.5619 360.758 Q58.5967 365.723 50.1303 365.723 Q41.3774 365.723 36.2531 361.013 Q31.0968 356.27 31.0968 348.249 Q31.0968 341.056 35.7438 336.887 Q40.3589 332.685 48.3161 332.685 M46.5973 338.542 Q41.7912 338.605 38.9266 341.247 Q36.0621 343.857 36.0621 348.186 Q36.0621 353.087 38.8312 356.047 Q41.6002 358.976 46.6292 359.421 L46.5973 338.542 Z" fill="#000000" fill-rule="nonzero" fill-opacity="1" /><path clip-path="url(#clip630)" d="M33.0065 300.348 L38.5447 300.348 Q37.2716 302.83 36.635 305.504 Q35.9984 308.177 35.9984 311.042 Q35.9984 315.402 37.3352 317.599 Q38.672 319.763 41.3456 319.763 Q43.3826 319.763 44.5603 318.203 Q45.7061 316.644 46.7565 311.933 L47.2021 309.928 Q48.5389 303.69 50.9897 301.08 Q53.4086 298.438 57.7691 298.438 Q62.7344 298.438 65.6308 302.385 Q68.5272 306.299 68.5272 313.174 Q68.5272 316.039 67.9543 319.158 Q67.4132 322.246 66.2992 325.683 L60.2518 325.683 Q61.9387 322.437 62.798 319.285 Q63.6256 316.134 63.6256 313.047 Q63.6256 308.909 62.2251 306.681 Q60.7929 304.453 58.2147 304.453 Q55.8276 304.453 54.5545 306.077 Q53.2813 307.668 52.1037 313.111 L51.6262 315.148 Q50.4804 320.59 48.1251 323.009 Q45.738 325.428 41.6002 325.428 Q36.5713 325.428 33.8341 321.864 Q31.0968 318.299 31.0968 311.742 Q31.0968 308.496 31.5743 305.631 Q32.0517 302.766 33.0065 300.348 Z" fill="#000000" fill-rule="nonzero" fill-opacity="1" /><polyline clip-path="url(#clip632)" style="stroke:#6b9e32; stroke-linecap:round; stroke-linejoin:round; stroke-width:4; stroke-opacity:1; fill:none" points="224.019,1141.6 2011.14,79.1184 "/>
<circle clip-path="url(#clip632)" cx="224.019" cy="993.363" r="14.4" fill="#009af9" fill-rule="evenodd" fill-opacity="1" stroke="#000000" stroke-opacity="1" stroke-width="2.688"/>
<circle clip-path="url(#clip632)" cx="337.654" cy="993.363" r="14.4" fill="#009af9" fill-rule="evenodd" fill-opacity="1" stroke="#000000" stroke-opacity="1" stroke-width="2.688"/>
<circle clip-path="url(#clip632)" cx="395.336" cy="993.363" r="14.4" fill="#009af9" fill-rule="evenodd" fill-opacity="1" stroke="#000000" stroke-opacity="1" stroke-width="2.688"/>
<circle clip-path="url(#clip632)" cx="435.405" cy="993.363" r="14.4" fill="#009af9" fill-rule="evenodd" fill-opacity="1" stroke="#000000" stroke-opacity="1" stroke-width="2.688"/>
<circle clip-path="url(#clip632)" cx="466.563" cy="993.363" r="14.4" fill="#009af9" fill-rule="evenodd" fill-opacity="1" stroke="#000000" stroke-opacity="1" stroke-width="2.688"/>
<circle clip-path="url(#clip632)" cx="492.281" cy="993.363" r="14.4" fill="#009af9" fill-rule="evenodd" fill-opacity="1" stroke="#000000" stroke-opacity="1" stroke-width="2.688"/>
<circle clip-path="url(#clip632)" cx="514.31" cy="993.363" r="14.4" fill="#009af9" fill-rule="evenodd" fill-opacity="1" stroke="#000000" stroke-opacity="1" stroke-width="2.688"/>
<circle clip-path="url(#clip632)" cx="533.664" cy="993.363" r="14.4" fill="#009af9" fill-rule="evenodd" fill-opacity="1" stroke="#000000" stroke-opacity="1" stroke-width="2.688"/>
<circle clip-path="url(#clip632)" cx="550.984" cy="993.363" r="14.4" fill="#009af9" fill-rule="evenodd" fill-opacity="1" stroke="#000000" stroke-opacity="1" stroke-width="2.688"/>
<circle clip-path="url(#clip632)" cx="566.701" cy="993.363" r="14.4" fill="#009af9" fill-rule="evenodd" fill-opacity="1" stroke="#000000" stroke-opacity="1" stroke-width="2.688"/>
<circle clip-path="url(#clip632)" cx="581.122" cy="993.363" r="14.4" fill="#009af9" fill-rule="evenodd" fill-opacity="1" stroke="#000000" stroke-opacity="1" stroke-width="2.688"/>
<circle clip-path="url(#clip632)" cx="594.469" cy="993.363" r="14.4" fill="#009af9" fill-rule="evenodd" fill-opacity="1" stroke="#000000" stroke-opacity="1" stroke-width="2.688"/>
<circle clip-path="url(#clip632)" cx="606.915" cy="993.363" r="14.4" fill="#009af9" fill-rule="evenodd" fill-opacity="1" stroke="#000000" stroke-opacity="1" stroke-width="2.688"/>
<circle clip-path="url(#clip632)" cx="618.59" cy="993.363" r="14.4" fill="#009af9" fill-rule="evenodd" fill-opacity="1" stroke="#000000" stroke-opacity="1" stroke-width="2.688"/>
<circle clip-path="url(#clip632)" cx="629.599" cy="935.86" r="14.4" fill="#009af9" fill-rule="evenodd" fill-opacity="1" stroke="#000000" stroke-opacity="1" stroke-width="2.688"/>
<circle clip-path="url(#clip632)" cx="640.027" cy="863.266" r="14.4" fill="#009af9" fill-rule="evenodd" fill-opacity="1" stroke="#000000" stroke-opacity="1" stroke-width="2.688"/>
<circle clip-path="url(#clip632)" cx="649.943" cy="863.266" r="14.4" fill="#009af9" fill-rule="evenodd" fill-opacity="1" stroke="#000000" stroke-opacity="1" stroke-width="2.688"/>
<circle clip-path="url(#clip632)" cx="659.403" cy="863.266" r="14.4" fill="#009af9" fill-rule="evenodd" fill-opacity="1" stroke="#000000" stroke-opacity="1" stroke-width="2.688"/>
<circle clip-path="url(#clip632)" cx="668.455" cy="863.266" r="14.4" fill="#009af9" fill-rule="evenodd" fill-opacity="1" stroke="#000000" stroke-opacity="1" stroke-width="2.688"/>
<circle clip-path="url(#clip632)" cx="677.142" cy="863.266" r="14.4" fill="#009af9" fill-rule="evenodd" fill-opacity="1" stroke="#000000" stroke-opacity="1" stroke-width="2.688"/>
<circle clip-path="url(#clip632)" cx="685.496" cy="863.266" r="14.4" fill="#009af9" fill-rule="evenodd" fill-opacity="1" stroke="#000000" stroke-opacity="1" stroke-width="2.688"/>
<circle clip-path="url(#clip632)" cx="693.549" cy="863.266" r="14.4" fill="#009af9" fill-rule="evenodd" fill-opacity="1" stroke="#000000" stroke-opacity="1" stroke-width="2.688"/>
<circle clip-path="url(#clip632)" cx="701.326" cy="863.266" r="14.4" fill="#009af9" fill-rule="evenodd" fill-opacity="1" stroke="#000000" stroke-opacity="1" stroke-width="2.688"/>
<circle clip-path="url(#clip632)" cx="708.851" cy="863.266" r="14.4" fill="#009af9" fill-rule="evenodd" fill-opacity="1" stroke="#000000" stroke-opacity="1" stroke-width="2.688"/>
<circle clip-path="url(#clip632)" cx="716.142" cy="863.266" r="14.4" fill="#009af9" fill-rule="evenodd" fill-opacity="1" stroke="#000000" stroke-opacity="1" stroke-width="2.688"/>
<circle clip-path="url(#clip632)" cx="723.219" cy="863.266" r="14.4" fill="#009af9" fill-rule="evenodd" fill-opacity="1" stroke="#000000" stroke-opacity="1" stroke-width="2.688"/>
<circle clip-path="url(#clip632)" cx="730.097" cy="863.266" r="14.4" fill="#009af9" fill-rule="evenodd" fill-opacity="1" stroke="#000000" stroke-opacity="1" stroke-width="2.688"/>
<circle clip-path="url(#clip632)" cx="736.789" cy="863.266" r="14.4" fill="#009af9" fill-rule="evenodd" fill-opacity="1" stroke="#000000" stroke-opacity="1" stroke-width="2.688"/>
<circle clip-path="url(#clip632)" cx="743.31" cy="863.266" r="14.4" fill="#009af9" fill-rule="evenodd" fill-opacity="1" stroke="#000000" stroke-opacity="1" stroke-width="2.688"/>
<circle clip-path="url(#clip632)" cx="749.669" cy="863.266" r="14.4" fill="#009af9" fill-rule="evenodd" fill-opacity="1" stroke="#000000" stroke-opacity="1" stroke-width="2.688"/>
<circle clip-path="url(#clip632)" cx="755.877" cy="863.266" r="14.4" fill="#009af9" fill-rule="evenodd" fill-opacity="1" stroke="#000000" stroke-opacity="1" stroke-width="2.688"/>
<circle clip-path="url(#clip632)" cx="761.944" cy="863.266" r="14.4" fill="#009af9" fill-rule="evenodd" fill-opacity="1" stroke="#000000" stroke-opacity="1" stroke-width="2.688"/>
<circle clip-path="url(#clip632)" cx="767.878" cy="863.266" r="14.4" fill="#009af9" fill-rule="evenodd" fill-opacity="1" stroke="#000000" stroke-opacity="1" stroke-width="2.688"/>
<circle clip-path="url(#clip632)" cx="773.687" cy="863.266" r="14.4" fill="#009af9" fill-rule="evenodd" fill-opacity="1" stroke="#000000" stroke-opacity="1" stroke-width="2.688"/>
<circle clip-path="url(#clip632)" cx="779.378" cy="863.266" r="14.4" fill="#009af9" fill-rule="evenodd" fill-opacity="1" stroke="#000000" stroke-opacity="1" stroke-width="2.688"/>
<circle clip-path="url(#clip632)" cx="784.958" cy="863.266" r="14.4" fill="#009af9" fill-rule="evenodd" fill-opacity="1" stroke="#000000" stroke-opacity="1" stroke-width="2.688"/>
<circle clip-path="url(#clip632)" cx="790.432" cy="863.266" r="14.4" fill="#009af9" fill-rule="evenodd" fill-opacity="1" stroke="#000000" stroke-opacity="1" stroke-width="2.688"/>
<circle clip-path="url(#clip632)" cx="795.807" cy="863.266" r="14.4" fill="#009af9" fill-rule="evenodd" fill-opacity="1" stroke="#000000" stroke-opacity="1" stroke-width="2.688"/>
<circle clip-path="url(#clip632)" cx="801.086" cy="863.266" r="14.4" fill="#009af9" fill-rule="evenodd" fill-opacity="1" stroke="#000000" stroke-opacity="1" stroke-width="2.688"/>
<circle clip-path="url(#clip632)" cx="806.276" cy="818.773" r="14.4" fill="#009af9" fill-rule="evenodd" fill-opacity="1" stroke="#000000" stroke-opacity="1" stroke-width="2.688"/>
<circle clip-path="url(#clip632)" cx="811.38" cy="733.169" r="14.4" fill="#009af9" fill-rule="evenodd" fill-opacity="1" stroke="#000000" stroke-opacity="1" stroke-width="2.688"/>
<circle clip-path="url(#clip632)" cx="816.403" cy="733.169" r="14.4" fill="#009af9" fill-rule="evenodd" fill-opacity="1" stroke="#000000" stroke-opacity="1" stroke-width="2.688"/>
<circle clip-path="url(#clip632)" cx="821.348" cy="733.169" r="14.4" fill="#009af9" fill-rule="evenodd" fill-opacity="1" stroke="#000000" stroke-opacity="1" stroke-width="2.688"/>
<circle clip-path="url(#clip632)" cx="826.219" cy="733.169" r="14.4" fill="#009af9" fill-rule="evenodd" fill-opacity="1" stroke="#000000" stroke-opacity="1" stroke-width="2.688"/>
<circle clip-path="url(#clip632)" cx="831.019" cy="733.169" r="14.4" fill="#009af9" fill-rule="evenodd" fill-opacity="1" stroke="#000000" stroke-opacity="1" stroke-width="2.688"/>
<circle clip-path="url(#clip632)" cx="835.752" cy="733.169" r="14.4" fill="#009af9" fill-rule="evenodd" fill-opacity="1" stroke="#000000" stroke-opacity="1" stroke-width="2.688"/>
<circle clip-path="url(#clip632)" cx="840.42" cy="733.169" r="14.4" fill="#009af9" fill-rule="evenodd" fill-opacity="1" stroke="#000000" stroke-opacity="1" stroke-width="2.688"/>
<circle clip-path="url(#clip632)" cx="845.027" cy="733.169" r="14.4" fill="#009af9" fill-rule="evenodd" fill-opacity="1" stroke="#000000" stroke-opacity="1" stroke-width="2.688"/>
<circle clip-path="url(#clip632)" cx="849.574" cy="733.169" r="14.4" fill="#009af9" fill-rule="evenodd" fill-opacity="1" stroke="#000000" stroke-opacity="1" stroke-width="2.688"/>
<circle clip-path="url(#clip632)" cx="854.064" cy="733.169" r="14.4" fill="#009af9" fill-rule="evenodd" fill-opacity="1" stroke="#000000" stroke-opacity="1" stroke-width="2.688"/>
<circle clip-path="url(#clip632)" cx="858.5" cy="733.169" r="14.4" fill="#009af9" fill-rule="evenodd" fill-opacity="1" stroke="#000000" stroke-opacity="1" stroke-width="2.688"/>
<circle clip-path="url(#clip632)" cx="862.883" cy="733.169" r="14.4" fill="#009af9" fill-rule="evenodd" fill-opacity="1" stroke="#000000" stroke-opacity="1" stroke-width="2.688"/>
<circle clip-path="url(#clip632)" cx="867.217" cy="733.169" r="14.4" fill="#009af9" fill-rule="evenodd" fill-opacity="1" stroke="#000000" stroke-opacity="1" stroke-width="2.688"/>
<circle clip-path="url(#clip632)" cx="871.502" cy="733.169" r="14.4" fill="#009af9" fill-rule="evenodd" fill-opacity="1" stroke="#000000" stroke-opacity="1" stroke-width="2.688"/>
<circle clip-path="url(#clip632)" cx="875.741" cy="733.169" r="14.4" fill="#009af9" fill-rule="evenodd" fill-opacity="1" stroke="#000000" stroke-opacity="1" stroke-width="2.688"/>
<circle clip-path="url(#clip632)" cx="879.935" cy="733.169" r="14.4" fill="#009af9" fill-rule="evenodd" fill-opacity="1" stroke="#000000" stroke-opacity="1" stroke-width="2.688"/>
<circle clip-path="url(#clip632)" cx="884.086" cy="733.169" r="14.4" fill="#009af9" fill-rule="evenodd" fill-opacity="1" stroke="#000000" stroke-opacity="1" stroke-width="2.688"/>
<circle clip-path="url(#clip632)" cx="888.196" cy="733.169" r="14.4" fill="#009af9" fill-rule="evenodd" fill-opacity="1" stroke="#000000" stroke-opacity="1" stroke-width="2.688"/>
<circle clip-path="url(#clip632)" cx="892.266" cy="733.169" r="14.4" fill="#009af9" fill-rule="evenodd" fill-opacity="1" stroke="#000000" stroke-opacity="1" stroke-width="2.688"/>
<circle clip-path="url(#clip632)" cx="896.298" cy="733.169" r="14.4" fill="#009af9" fill-rule="evenodd" fill-opacity="1" stroke="#000000" stroke-opacity="1" stroke-width="2.688"/>
<circle clip-path="url(#clip632)" cx="900.293" cy="733.169" r="14.4" fill="#009af9" fill-rule="evenodd" fill-opacity="1" stroke="#000000" stroke-opacity="1" stroke-width="2.688"/>
<circle clip-path="url(#clip632)" cx="904.252" cy="733.169" r="14.4" fill="#009af9" fill-rule="evenodd" fill-opacity="1" stroke="#000000" stroke-opacity="1" stroke-width="2.688"/>
<circle clip-path="url(#clip632)" cx="908.177" cy="733.169" r="14.4" fill="#009af9" fill-rule="evenodd" fill-opacity="1" stroke="#000000" stroke-opacity="1" stroke-width="2.688"/>
<circle clip-path="url(#clip632)" cx="912.068" cy="733.169" r="14.4" fill="#009af9" fill-rule="evenodd" fill-opacity="1" stroke="#000000" stroke-opacity="1" stroke-width="2.688"/>
<circle clip-path="url(#clip632)" cx="915.928" cy="733.169" r="14.4" fill="#009af9" fill-rule="evenodd" fill-opacity="1" stroke="#000000" stroke-opacity="1" stroke-width="2.688"/>
<circle clip-path="url(#clip632)" cx="919.756" cy="733.169" r="14.4" fill="#009af9" fill-rule="evenodd" fill-opacity="1" stroke="#000000" stroke-opacity="1" stroke-width="2.688"/>
<circle clip-path="url(#clip632)" cx="923.555" cy="733.169" r="14.4" fill="#009af9" fill-rule="evenodd" fill-opacity="1" stroke="#000000" stroke-opacity="1" stroke-width="2.688"/>
<circle clip-path="url(#clip632)" cx="927.325" cy="733.169" r="14.4" fill="#009af9" fill-rule="evenodd" fill-opacity="1" stroke="#000000" stroke-opacity="1" stroke-width="2.688"/>
<circle clip-path="url(#clip632)" cx="931.067" cy="733.169" r="14.4" fill="#009af9" fill-rule="evenodd" fill-opacity="1" stroke="#000000" stroke-opacity="1" stroke-width="2.688"/>
<circle clip-path="url(#clip632)" cx="934.782" cy="733.169" r="14.4" fill="#009af9" fill-rule="evenodd" fill-opacity="1" stroke="#000000" stroke-opacity="1" stroke-width="2.688"/>
<circle clip-path="url(#clip632)" cx="938.471" cy="733.169" r="14.4" fill="#009af9" fill-rule="evenodd" fill-opacity="1" stroke="#000000" stroke-opacity="1" stroke-width="2.688"/>
<circle clip-path="url(#clip632)" cx="942.136" cy="733.169" r="14.4" fill="#009af9" fill-rule="evenodd" fill-opacity="1" stroke="#000000" stroke-opacity="1" stroke-width="2.688"/>
<circle clip-path="url(#clip632)" cx="945.775" cy="733.169" r="14.4" fill="#009af9" fill-rule="evenodd" fill-opacity="1" stroke="#000000" stroke-opacity="1" stroke-width="2.688"/>
<circle clip-path="url(#clip632)" cx="949.392" cy="733.169" r="14.4" fill="#009af9" fill-rule="evenodd" fill-opacity="1" stroke="#000000" stroke-opacity="1" stroke-width="2.688"/>
<circle clip-path="url(#clip632)" cx="952.985" cy="733.169" r="14.4" fill="#009af9" fill-rule="evenodd" fill-opacity="1" stroke="#000000" stroke-opacity="1" stroke-width="2.688"/>
<circle clip-path="url(#clip632)" cx="956.557" cy="733.169" r="14.4" fill="#009af9" fill-rule="evenodd" fill-opacity="1" stroke="#000000" stroke-opacity="1" stroke-width="2.688"/>
<circle clip-path="url(#clip632)" cx="960.107" cy="733.169" r="14.4" fill="#009af9" fill-rule="evenodd" fill-opacity="1" stroke="#000000" stroke-opacity="1" stroke-width="2.688"/>
<circle clip-path="url(#clip632)" cx="963.638" cy="733.169" r="14.4" fill="#009af9" fill-rule="evenodd" fill-opacity="1" stroke="#000000" stroke-opacity="1" stroke-width="2.688"/>
<circle clip-path="url(#clip632)" cx="967.148" cy="733.169" r="14.4" fill="#009af9" fill-rule="evenodd" fill-opacity="1" stroke="#000000" stroke-opacity="1" stroke-width="2.688"/>
<circle clip-path="url(#clip632)" cx="970.639" cy="733.169" r="14.4" fill="#009af9" fill-rule="evenodd" fill-opacity="1" stroke="#000000" stroke-opacity="1" stroke-width="2.688"/>
<circle clip-path="url(#clip632)" cx="974.112" cy="733.169" r="14.4" fill="#009af9" fill-rule="evenodd" fill-opacity="1" stroke="#000000" stroke-opacity="1" stroke-width="2.688"/>
<circle clip-path="url(#clip632)" cx="977.566" cy="733.169" r="14.4" fill="#009af9" fill-rule="evenodd" fill-opacity="1" stroke="#000000" stroke-opacity="1" stroke-width="2.688"/>
<circle clip-path="url(#clip632)" cx="981.004" cy="733.169" r="14.4" fill="#009af9" fill-rule="evenodd" fill-opacity="1" stroke="#000000" stroke-opacity="1" stroke-width="2.688"/>
<circle clip-path="url(#clip632)" cx="984.425" cy="733.169" r="14.4" fill="#009af9" fill-rule="evenodd" fill-opacity="1" stroke="#000000" stroke-opacity="1" stroke-width="2.688"/>
<circle clip-path="url(#clip632)" cx="987.83" cy="733.169" r="14.4" fill="#009af9" fill-rule="evenodd" fill-opacity="1" stroke="#000000" stroke-opacity="1" stroke-width="2.688"/>
<circle clip-path="url(#clip632)" cx="991.219" cy="733.169" r="14.4" fill="#009af9" fill-rule="evenodd" fill-opacity="1" stroke="#000000" stroke-opacity="1" stroke-width="2.688"/>
<circle clip-path="url(#clip632)" cx="994.593" cy="733.169" r="14.4" fill="#009af9" fill-rule="evenodd" fill-opacity="1" stroke="#000000" stroke-opacity="1" stroke-width="2.688"/>
<circle clip-path="url(#clip632)" cx="997.953" cy="733.169" r="14.4" fill="#009af9" fill-rule="evenodd" fill-opacity="1" stroke="#000000" stroke-opacity="1" stroke-width="2.688"/>
<circle clip-path="url(#clip632)" cx="1001.3" cy="733.169" r="14.4" fill="#009af9" fill-rule="evenodd" fill-opacity="1" stroke="#000000" stroke-opacity="1" stroke-width="2.688"/>
<circle clip-path="url(#clip632)" cx="1004.63" cy="733.169" r="14.4" fill="#009af9" fill-rule="evenodd" fill-opacity="1" stroke="#000000" stroke-opacity="1" stroke-width="2.688"/>
<circle clip-path="url(#clip632)" cx="1007.95" cy="733.169" r="14.4" fill="#009af9" fill-rule="evenodd" fill-opacity="1" stroke="#000000" stroke-opacity="1" stroke-width="2.688"/>
<circle clip-path="url(#clip632)" cx="1011.26" cy="715.736" r="14.4" fill="#009af9" fill-rule="evenodd" fill-opacity="1" stroke="#000000" stroke-opacity="1" stroke-width="2.688"/>
<circle clip-path="url(#clip632)" cx="1014.55" cy="603.072" r="14.4" fill="#009af9" fill-rule="evenodd" fill-opacity="1" stroke="#000000" stroke-opacity="1" stroke-width="2.688"/>
<circle clip-path="url(#clip632)" cx="1017.84" cy="603.072" r="14.4" fill="#009af9" fill-rule="evenodd" fill-opacity="1" stroke="#000000" stroke-opacity="1" stroke-width="2.688"/>
<circle clip-path="url(#clip632)" cx="1021.11" cy="603.072" r="14.4" fill="#009af9" fill-rule="evenodd" fill-opacity="1" stroke="#000000" stroke-opacity="1" stroke-width="2.688"/>
<circle clip-path="url(#clip632)" cx="1024.37" cy="603.072" r="14.4" fill="#009af9" fill-rule="evenodd" fill-opacity="1" stroke="#000000" stroke-opacity="1" stroke-width="2.688"/>
<circle clip-path="url(#clip632)" cx="1027.62" cy="603.072" r="14.4" fill="#009af9" fill-rule="evenodd" fill-opacity="1" stroke="#000000" stroke-opacity="1" stroke-width="2.688"/>
<circle clip-path="url(#clip632)" cx="1030.86" cy="603.072" r="14.4" fill="#009af9" fill-rule="evenodd" fill-opacity="1" stroke="#000000" stroke-opacity="1" stroke-width="2.688"/>
<circle clip-path="url(#clip632)" cx="1034.09" cy="603.072" r="14.4" fill="#009af9" fill-rule="evenodd" fill-opacity="1" stroke="#000000" stroke-opacity="1" stroke-width="2.688"/>
<circle clip-path="url(#clip632)" cx="1037.32" cy="603.072" r="14.4" fill="#009af9" fill-rule="evenodd" fill-opacity="1" stroke="#000000" stroke-opacity="1" stroke-width="2.688"/>
<circle clip-path="url(#clip632)" cx="1040.53" cy="603.072" r="14.4" fill="#009af9" fill-rule="evenodd" fill-opacity="1" stroke="#000000" stroke-opacity="1" stroke-width="2.688"/>
<circle clip-path="url(#clip632)" cx="1043.74" cy="603.072" r="14.4" fill="#009af9" fill-rule="evenodd" fill-opacity="1" stroke="#000000" stroke-opacity="1" stroke-width="2.688"/>
<circle clip-path="url(#clip632)" cx="1046.94" cy="603.072" r="14.4" fill="#009af9" fill-rule="evenodd" fill-opacity="1" stroke="#000000" stroke-opacity="1" stroke-width="2.688"/>
<circle clip-path="url(#clip632)" cx="1050.13" cy="603.072" r="14.4" fill="#009af9" fill-rule="evenodd" fill-opacity="1" stroke="#000000" stroke-opacity="1" stroke-width="2.688"/>
<circle clip-path="url(#clip632)" cx="1053.31" cy="603.072" r="14.4" fill="#009af9" fill-rule="evenodd" fill-opacity="1" stroke="#000000" stroke-opacity="1" stroke-width="2.688"/>
<circle clip-path="url(#clip632)" cx="1056.49" cy="603.072" r="14.4" fill="#009af9" fill-rule="evenodd" fill-opacity="1" stroke="#000000" stroke-opacity="1" stroke-width="2.688"/>
<circle clip-path="url(#clip632)" cx="1059.66" cy="603.072" r="14.4" fill="#009af9" fill-rule="evenodd" fill-opacity="1" stroke="#000000" stroke-opacity="1" stroke-width="2.688"/>
<circle clip-path="url(#clip632)" cx="1062.82" cy="603.072" r="14.4" fill="#009af9" fill-rule="evenodd" fill-opacity="1" stroke="#000000" stroke-opacity="1" stroke-width="2.688"/>
<circle clip-path="url(#clip632)" cx="1065.98" cy="603.072" r="14.4" fill="#009af9" fill-rule="evenodd" fill-opacity="1" stroke="#000000" stroke-opacity="1" stroke-width="2.688"/>
<circle clip-path="url(#clip632)" cx="1069.14" cy="603.072" r="14.4" fill="#009af9" fill-rule="evenodd" fill-opacity="1" stroke="#000000" stroke-opacity="1" stroke-width="2.688"/>
<circle clip-path="url(#clip632)" cx="1072.28" cy="603.072" r="14.4" fill="#009af9" fill-rule="evenodd" fill-opacity="1" stroke="#000000" stroke-opacity="1" stroke-width="2.688"/>
<circle clip-path="url(#clip632)" cx="1075.43" cy="603.072" r="14.4" fill="#009af9" fill-rule="evenodd" fill-opacity="1" stroke="#000000" stroke-opacity="1" stroke-width="2.688"/>
<circle clip-path="url(#clip632)" cx="1078.57" cy="603.072" r="14.4" fill="#009af9" fill-rule="evenodd" fill-opacity="1" stroke="#000000" stroke-opacity="1" stroke-width="2.688"/>
<circle clip-path="url(#clip632)" cx="1081.7" cy="603.072" r="14.4" fill="#009af9" fill-rule="evenodd" fill-opacity="1" stroke="#000000" stroke-opacity="1" stroke-width="2.688"/>
<circle clip-path="url(#clip632)" cx="1084.83" cy="603.072" r="14.4" fill="#009af9" fill-rule="evenodd" fill-opacity="1" stroke="#000000" stroke-opacity="1" stroke-width="2.688"/>
<circle clip-path="url(#clip632)" cx="1087.96" cy="603.072" r="14.4" fill="#009af9" fill-rule="evenodd" fill-opacity="1" stroke="#000000" stroke-opacity="1" stroke-width="2.688"/>
<circle clip-path="url(#clip632)" cx="1091.09" cy="603.072" r="14.4" fill="#009af9" fill-rule="evenodd" fill-opacity="1" stroke="#000000" stroke-opacity="1" stroke-width="2.688"/>
<circle clip-path="url(#clip632)" cx="1094.21" cy="603.072" r="14.4" fill="#009af9" fill-rule="evenodd" fill-opacity="1" stroke="#000000" stroke-opacity="1" stroke-width="2.688"/>
<circle clip-path="url(#clip632)" cx="1097.33" cy="603.072" r="14.4" fill="#009af9" fill-rule="evenodd" fill-opacity="1" stroke="#000000" stroke-opacity="1" stroke-width="2.688"/>
<circle clip-path="url(#clip632)" cx="1100.45" cy="603.072" r="14.4" fill="#009af9" fill-rule="evenodd" fill-opacity="1" stroke="#000000" stroke-opacity="1" stroke-width="2.688"/>
<circle clip-path="url(#clip632)" cx="1103.57" cy="603.072" r="14.4" fill="#009af9" fill-rule="evenodd" fill-opacity="1" stroke="#000000" stroke-opacity="1" stroke-width="2.688"/>
<circle clip-path="url(#clip632)" cx="1106.68" cy="603.072" r="14.4" fill="#009af9" fill-rule="evenodd" fill-opacity="1" stroke="#000000" stroke-opacity="1" stroke-width="2.688"/>
<circle clip-path="url(#clip632)" cx="1109.8" cy="603.072" r="14.4" fill="#009af9" fill-rule="evenodd" fill-opacity="1" stroke="#000000" stroke-opacity="1" stroke-width="2.688"/>
<circle clip-path="url(#clip632)" cx="1112.91" cy="603.072" r="14.4" fill="#009af9" fill-rule="evenodd" fill-opacity="1" stroke="#000000" stroke-opacity="1" stroke-width="2.688"/>
<circle clip-path="url(#clip632)" cx="1116.02" cy="603.072" r="14.4" fill="#009af9" fill-rule="evenodd" fill-opacity="1" stroke="#000000" stroke-opacity="1" stroke-width="2.688"/>
<circle clip-path="url(#clip632)" cx="1119.14" cy="603.072" r="14.4" fill="#009af9" fill-rule="evenodd" fill-opacity="1" stroke="#000000" stroke-opacity="1" stroke-width="2.688"/>
<circle clip-path="url(#clip632)" cx="1122.25" cy="603.072" r="14.4" fill="#009af9" fill-rule="evenodd" fill-opacity="1" stroke="#000000" stroke-opacity="1" stroke-width="2.688"/>
<circle clip-path="url(#clip632)" cx="1125.36" cy="603.072" r="14.4" fill="#009af9" fill-rule="evenodd" fill-opacity="1" stroke="#000000" stroke-opacity="1" stroke-width="2.688"/>
<circle clip-path="url(#clip632)" cx="1128.48" cy="603.072" r="14.4" fill="#009af9" fill-rule="evenodd" fill-opacity="1" stroke="#000000" stroke-opacity="1" stroke-width="2.688"/>
<circle clip-path="url(#clip632)" cx="1131.59" cy="603.072" r="14.4" fill="#009af9" fill-rule="evenodd" fill-opacity="1" stroke="#000000" stroke-opacity="1" stroke-width="2.688"/>
<circle clip-path="url(#clip632)" cx="1134.71" cy="603.072" r="14.4" fill="#009af9" fill-rule="evenodd" fill-opacity="1" stroke="#000000" stroke-opacity="1" stroke-width="2.688"/>
<circle clip-path="url(#clip632)" cx="1137.83" cy="603.072" r="14.4" fill="#009af9" fill-rule="evenodd" fill-opacity="1" stroke="#000000" stroke-opacity="1" stroke-width="2.688"/>
<circle clip-path="url(#clip632)" cx="1140.95" cy="603.072" r="14.4" fill="#009af9" fill-rule="evenodd" fill-opacity="1" stroke="#000000" stroke-opacity="1" stroke-width="2.688"/>
<circle clip-path="url(#clip632)" cx="1144.07" cy="603.072" r="14.4" fill="#009af9" fill-rule="evenodd" fill-opacity="1" stroke="#000000" stroke-opacity="1" stroke-width="2.688"/>
<circle clip-path="url(#clip632)" cx="1147.2" cy="603.072" r="14.4" fill="#009af9" fill-rule="evenodd" fill-opacity="1" stroke="#000000" stroke-opacity="1" stroke-width="2.688"/>
<circle clip-path="url(#clip632)" cx="1150.33" cy="603.072" r="14.4" fill="#009af9" fill-rule="evenodd" fill-opacity="1" stroke="#000000" stroke-opacity="1" stroke-width="2.688"/>
<circle clip-path="url(#clip632)" cx="1153.46" cy="603.072" r="14.4" fill="#009af9" fill-rule="evenodd" fill-opacity="1" stroke="#000000" stroke-opacity="1" stroke-width="2.688"/>
<circle clip-path="url(#clip632)" cx="1156.59" cy="603.072" r="14.4" fill="#009af9" fill-rule="evenodd" fill-opacity="1" stroke="#000000" stroke-opacity="1" stroke-width="2.688"/>
<circle clip-path="url(#clip632)" cx="1159.73" cy="603.072" r="14.4" fill="#009af9" fill-rule="evenodd" fill-opacity="1" stroke="#000000" stroke-opacity="1" stroke-width="2.688"/>
<circle clip-path="url(#clip632)" cx="1162.88" cy="603.072" r="14.4" fill="#009af9" fill-rule="evenodd" fill-opacity="1" stroke="#000000" stroke-opacity="1" stroke-width="2.688"/>
<circle clip-path="url(#clip632)" cx="1166.03" cy="603.072" r="14.4" fill="#009af9" fill-rule="evenodd" fill-opacity="1" stroke="#000000" stroke-opacity="1" stroke-width="2.688"/>
<circle clip-path="url(#clip632)" cx="1169.18" cy="603.072" r="14.4" fill="#009af9" fill-rule="evenodd" fill-opacity="1" stroke="#000000" stroke-opacity="1" stroke-width="2.688"/>
<circle clip-path="url(#clip632)" cx="1172.34" cy="603.072" r="14.4" fill="#009af9" fill-rule="evenodd" fill-opacity="1" stroke="#000000" stroke-opacity="1" stroke-width="2.688"/>
<circle clip-path="url(#clip632)" cx="1175.5" cy="603.072" r="14.4" fill="#009af9" fill-rule="evenodd" fill-opacity="1" stroke="#000000" stroke-opacity="1" stroke-width="2.688"/>
<circle clip-path="url(#clip632)" cx="1178.67" cy="603.072" r="14.4" fill="#009af9" fill-rule="evenodd" fill-opacity="1" stroke="#000000" stroke-opacity="1" stroke-width="2.688"/>
<circle clip-path="url(#clip632)" cx="1181.85" cy="603.072" r="14.4" fill="#009af9" fill-rule="evenodd" fill-opacity="1" stroke="#000000" stroke-opacity="1" stroke-width="2.688"/>
<circle clip-path="url(#clip632)" cx="1185.03" cy="603.072" r="14.4" fill="#009af9" fill-rule="evenodd" fill-opacity="1" stroke="#000000" stroke-opacity="1" stroke-width="2.688"/>
<circle clip-path="url(#clip632)" cx="1188.22" cy="603.072" r="14.4" fill="#009af9" fill-rule="evenodd" fill-opacity="1" stroke="#000000" stroke-opacity="1" stroke-width="2.688"/>
<circle clip-path="url(#clip632)" cx="1191.42" cy="603.072" r="14.4" fill="#009af9" fill-rule="evenodd" fill-opacity="1" stroke="#000000" stroke-opacity="1" stroke-width="2.688"/>
<circle clip-path="url(#clip632)" cx="1194.63" cy="603.072" r="14.4" fill="#009af9" fill-rule="evenodd" fill-opacity="1" stroke="#000000" stroke-opacity="1" stroke-width="2.688"/>
<circle clip-path="url(#clip632)" cx="1197.84" cy="603.072" r="14.4" fill="#009af9" fill-rule="evenodd" fill-opacity="1" stroke="#000000" stroke-opacity="1" stroke-width="2.688"/>
<circle clip-path="url(#clip632)" cx="1201.07" cy="603.072" r="14.4" fill="#009af9" fill-rule="evenodd" fill-opacity="1" stroke="#000000" stroke-opacity="1" stroke-width="2.688"/>
<circle clip-path="url(#clip632)" cx="1204.3" cy="603.072" r="14.4" fill="#009af9" fill-rule="evenodd" fill-opacity="1" stroke="#000000" stroke-opacity="1" stroke-width="2.688"/>
<circle clip-path="url(#clip632)" cx="1207.54" cy="603.072" r="14.4" fill="#009af9" fill-rule="evenodd" fill-opacity="1" stroke="#000000" stroke-opacity="1" stroke-width="2.688"/>
<circle clip-path="url(#clip632)" cx="1210.79" cy="603.072" r="14.4" fill="#009af9" fill-rule="evenodd" fill-opacity="1" stroke="#000000" stroke-opacity="1" stroke-width="2.688"/>
<circle clip-path="url(#clip632)" cx="1214.05" cy="603.072" r="14.4" fill="#009af9" fill-rule="evenodd" fill-opacity="1" stroke="#000000" stroke-opacity="1" stroke-width="2.688"/>
<circle clip-path="url(#clip632)" cx="1217.33" cy="489.367" r="14.4" fill="#009af9" fill-rule="evenodd" fill-opacity="1" stroke="#000000" stroke-opacity="1" stroke-width="2.688"/>
<circle clip-path="url(#clip632)" cx="1220.61" cy="472.975" r="14.4" fill="#009af9" fill-rule="evenodd" fill-opacity="1" stroke="#000000" stroke-opacity="1" stroke-width="2.688"/>
<circle clip-path="url(#clip632)" cx="1223.9" cy="472.975" r="14.4" fill="#009af9" fill-rule="evenodd" fill-opacity="1" stroke="#000000" stroke-opacity="1" stroke-width="2.688"/>
<circle clip-path="url(#clip632)" cx="1227.21" cy="472.975" r="14.4" fill="#009af9" fill-rule="evenodd" fill-opacity="1" stroke="#000000" stroke-opacity="1" stroke-width="2.688"/>
<circle clip-path="url(#clip632)" cx="1230.53" cy="472.975" r="14.4" fill="#009af9" fill-rule="evenodd" fill-opacity="1" stroke="#000000" stroke-opacity="1" stroke-width="2.688"/>
<circle clip-path="url(#clip632)" cx="1233.86" cy="472.975" r="14.4" fill="#009af9" fill-rule="evenodd" fill-opacity="1" stroke="#000000" stroke-opacity="1" stroke-width="2.688"/>
<circle clip-path="url(#clip632)" cx="1237.21" cy="472.975" r="14.4" fill="#009af9" fill-rule="evenodd" fill-opacity="1" stroke="#000000" stroke-opacity="1" stroke-width="2.688"/>
<circle clip-path="url(#clip632)" cx="1240.57" cy="472.975" r="14.4" fill="#009af9" fill-rule="evenodd" fill-opacity="1" stroke="#000000" stroke-opacity="1" stroke-width="2.688"/>
<circle clip-path="url(#clip632)" cx="1243.94" cy="472.975" r="14.4" fill="#009af9" fill-rule="evenodd" fill-opacity="1" stroke="#000000" stroke-opacity="1" stroke-width="2.688"/>
<circle clip-path="url(#clip632)" cx="1247.33" cy="472.975" r="14.4" fill="#009af9" fill-rule="evenodd" fill-opacity="1" stroke="#000000" stroke-opacity="1" stroke-width="2.688"/>
<circle clip-path="url(#clip632)" cx="1250.74" cy="472.975" r="14.4" fill="#009af9" fill-rule="evenodd" fill-opacity="1" stroke="#000000" stroke-opacity="1" stroke-width="2.688"/>
<circle clip-path="url(#clip632)" cx="1254.16" cy="472.975" r="14.4" fill="#009af9" fill-rule="evenodd" fill-opacity="1" stroke="#000000" stroke-opacity="1" stroke-width="2.688"/>
<circle clip-path="url(#clip632)" cx="1257.59" cy="472.975" r="14.4" fill="#009af9" fill-rule="evenodd" fill-opacity="1" stroke="#000000" stroke-opacity="1" stroke-width="2.688"/>
<circle clip-path="url(#clip632)" cx="1261.05" cy="472.975" r="14.4" fill="#009af9" fill-rule="evenodd" fill-opacity="1" stroke="#000000" stroke-opacity="1" stroke-width="2.688"/>
<circle clip-path="url(#clip632)" cx="1264.52" cy="472.975" r="14.4" fill="#009af9" fill-rule="evenodd" fill-opacity="1" stroke="#000000" stroke-opacity="1" stroke-width="2.688"/>
<circle clip-path="url(#clip632)" cx="1268.01" cy="472.975" r="14.4" fill="#009af9" fill-rule="evenodd" fill-opacity="1" stroke="#000000" stroke-opacity="1" stroke-width="2.688"/>
<circle clip-path="url(#clip632)" cx="1271.52" cy="472.975" r="14.4" fill="#009af9" fill-rule="evenodd" fill-opacity="1" stroke="#000000" stroke-opacity="1" stroke-width="2.688"/>
<circle clip-path="url(#clip632)" cx="1275.05" cy="472.975" r="14.4" fill="#009af9" fill-rule="evenodd" fill-opacity="1" stroke="#000000" stroke-opacity="1" stroke-width="2.688"/>
<circle clip-path="url(#clip632)" cx="1278.6" cy="472.975" r="14.4" fill="#009af9" fill-rule="evenodd" fill-opacity="1" stroke="#000000" stroke-opacity="1" stroke-width="2.688"/>
<circle clip-path="url(#clip632)" cx="1282.18" cy="472.975" r="14.4" fill="#009af9" fill-rule="evenodd" fill-opacity="1" stroke="#000000" stroke-opacity="1" stroke-width="2.688"/>
<circle clip-path="url(#clip632)" cx="1285.77" cy="472.975" r="14.4" fill="#009af9" fill-rule="evenodd" fill-opacity="1" stroke="#000000" stroke-opacity="1" stroke-width="2.688"/>
<circle clip-path="url(#clip632)" cx="1289.39" cy="472.975" r="14.4" fill="#009af9" fill-rule="evenodd" fill-opacity="1" stroke="#000000" stroke-opacity="1" stroke-width="2.688"/>
<circle clip-path="url(#clip632)" cx="1293.03" cy="472.975" r="14.4" fill="#009af9" fill-rule="evenodd" fill-opacity="1" stroke="#000000" stroke-opacity="1" stroke-width="2.688"/>
<circle clip-path="url(#clip632)" cx="1296.69" cy="472.975" r="14.4" fill="#009af9" fill-rule="evenodd" fill-opacity="1" stroke="#000000" stroke-opacity="1" stroke-width="2.688"/>
<circle clip-path="url(#clip632)" cx="1300.38" cy="472.975" r="14.4" fill="#009af9" fill-rule="evenodd" fill-opacity="1" stroke="#000000" stroke-opacity="1" stroke-width="2.688"/>
<circle clip-path="url(#clip632)" cx="1304.09" cy="472.975" r="14.4" fill="#009af9" fill-rule="evenodd" fill-opacity="1" stroke="#000000" stroke-opacity="1" stroke-width="2.688"/>
<circle clip-path="url(#clip632)" cx="1307.84" cy="472.975" r="14.4" fill="#009af9" fill-rule="evenodd" fill-opacity="1" stroke="#000000" stroke-opacity="1" stroke-width="2.688"/>
<circle clip-path="url(#clip632)" cx="1311.61" cy="472.975" r="14.4" fill="#009af9" fill-rule="evenodd" fill-opacity="1" stroke="#000000" stroke-opacity="1" stroke-width="2.688"/>
<circle clip-path="url(#clip632)" cx="1315.4" cy="472.975" r="14.4" fill="#009af9" fill-rule="evenodd" fill-opacity="1" stroke="#000000" stroke-opacity="1" stroke-width="2.688"/>
<circle clip-path="url(#clip632)" cx="1319.23" cy="472.975" r="14.4" fill="#009af9" fill-rule="evenodd" fill-opacity="1" stroke="#000000" stroke-opacity="1" stroke-width="2.688"/>
<circle clip-path="url(#clip632)" cx="1323.09" cy="472.975" r="14.4" fill="#009af9" fill-rule="evenodd" fill-opacity="1" stroke="#000000" stroke-opacity="1" stroke-width="2.688"/>
<circle clip-path="url(#clip632)" cx="1326.98" cy="472.975" r="14.4" fill="#009af9" fill-rule="evenodd" fill-opacity="1" stroke="#000000" stroke-opacity="1" stroke-width="2.688"/>
<circle clip-path="url(#clip632)" cx="1330.91" cy="472.975" r="14.4" fill="#009af9" fill-rule="evenodd" fill-opacity="1" stroke="#000000" stroke-opacity="1" stroke-width="2.688"/>
<circle clip-path="url(#clip632)" cx="1334.87" cy="472.975" r="14.4" fill="#009af9" fill-rule="evenodd" fill-opacity="1" stroke="#000000" stroke-opacity="1" stroke-width="2.688"/>
<circle clip-path="url(#clip632)" cx="1338.86" cy="472.975" r="14.4" fill="#009af9" fill-rule="evenodd" fill-opacity="1" stroke="#000000" stroke-opacity="1" stroke-width="2.688"/>
<circle clip-path="url(#clip632)" cx="1342.89" cy="472.975" r="14.4" fill="#009af9" fill-rule="evenodd" fill-opacity="1" stroke="#000000" stroke-opacity="1" stroke-width="2.688"/>
<circle clip-path="url(#clip632)" cx="1346.96" cy="472.975" r="14.4" fill="#009af9" fill-rule="evenodd" fill-opacity="1" stroke="#000000" stroke-opacity="1" stroke-width="2.688"/>
<circle clip-path="url(#clip632)" cx="1351.07" cy="472.975" r="14.4" fill="#009af9" fill-rule="evenodd" fill-opacity="1" stroke="#000000" stroke-opacity="1" stroke-width="2.688"/>
<circle clip-path="url(#clip632)" cx="1355.23" cy="472.975" r="14.4" fill="#009af9" fill-rule="evenodd" fill-opacity="1" stroke="#000000" stroke-opacity="1" stroke-width="2.688"/>
<circle clip-path="url(#clip632)" cx="1359.42" cy="472.975" r="14.4" fill="#009af9" fill-rule="evenodd" fill-opacity="1" stroke="#000000" stroke-opacity="1" stroke-width="2.688"/>
<circle clip-path="url(#clip632)" cx="1363.66" cy="472.975" r="14.4" fill="#009af9" fill-rule="evenodd" fill-opacity="1" stroke="#000000" stroke-opacity="1" stroke-width="2.688"/>
<circle clip-path="url(#clip632)" cx="1367.94" cy="472.975" r="14.4" fill="#009af9" fill-rule="evenodd" fill-opacity="1" stroke="#000000" stroke-opacity="1" stroke-width="2.688"/>
<circle clip-path="url(#clip632)" cx="1372.28" cy="472.975" r="14.4" fill="#009af9" fill-rule="evenodd" fill-opacity="1" stroke="#000000" stroke-opacity="1" stroke-width="2.688"/>
<circle clip-path="url(#clip632)" cx="1376.66" cy="472.975" r="14.4" fill="#009af9" fill-rule="evenodd" fill-opacity="1" stroke="#000000" stroke-opacity="1" stroke-width="2.688"/>
<circle clip-path="url(#clip632)" cx="1381.1" cy="472.975" r="14.4" fill="#009af9" fill-rule="evenodd" fill-opacity="1" stroke="#000000" stroke-opacity="1" stroke-width="2.688"/>
<circle clip-path="url(#clip632)" cx="1385.59" cy="472.975" r="14.4" fill="#009af9" fill-rule="evenodd" fill-opacity="1" stroke="#000000" stroke-opacity="1" stroke-width="2.688"/>
<circle clip-path="url(#clip632)" cx="1390.13" cy="472.975" r="14.4" fill="#009af9" fill-rule="evenodd" fill-opacity="1" stroke="#000000" stroke-opacity="1" stroke-width="2.688"/>
<circle clip-path="url(#clip632)" cx="1394.74" cy="472.975" r="14.4" fill="#009af9" fill-rule="evenodd" fill-opacity="1" stroke="#000000" stroke-opacity="1" stroke-width="2.688"/>
<circle clip-path="url(#clip632)" cx="1399.41" cy="472.975" r="14.4" fill="#009af9" fill-rule="evenodd" fill-opacity="1" stroke="#000000" stroke-opacity="1" stroke-width="2.688"/>
<circle clip-path="url(#clip632)" cx="1404.14" cy="472.975" r="14.4" fill="#009af9" fill-rule="evenodd" fill-opacity="1" stroke="#000000" stroke-opacity="1" stroke-width="2.688"/>
<circle clip-path="url(#clip632)" cx="1408.94" cy="472.975" r="14.4" fill="#009af9" fill-rule="evenodd" fill-opacity="1" stroke="#000000" stroke-opacity="1" stroke-width="2.688"/>
<circle clip-path="url(#clip632)" cx="1413.81" cy="472.975" r="14.4" fill="#009af9" fill-rule="evenodd" fill-opacity="1" stroke="#000000" stroke-opacity="1" stroke-width="2.688"/>
<circle clip-path="url(#clip632)" cx="1418.76" cy="472.975" r="14.4" fill="#009af9" fill-rule="evenodd" fill-opacity="1" stroke="#000000" stroke-opacity="1" stroke-width="2.688"/>
<circle clip-path="url(#clip632)" cx="1423.78" cy="472.975" r="14.4" fill="#009af9" fill-rule="evenodd" fill-opacity="1" stroke="#000000" stroke-opacity="1" stroke-width="2.688"/>
<circle clip-path="url(#clip632)" cx="1428.89" cy="472.975" r="14.4" fill="#009af9" fill-rule="evenodd" fill-opacity="1" stroke="#000000" stroke-opacity="1" stroke-width="2.688"/>
<circle clip-path="url(#clip632)" cx="1434.07" cy="472.975" r="14.4" fill="#009af9" fill-rule="evenodd" fill-opacity="1" stroke="#000000" stroke-opacity="1" stroke-width="2.688"/>
<circle clip-path="url(#clip632)" cx="1439.35" cy="472.975" r="14.4" fill="#009af9" fill-rule="evenodd" fill-opacity="1" stroke="#000000" stroke-opacity="1" stroke-width="2.688"/>
<circle clip-path="url(#clip632)" cx="1444.73" cy="472.975" r="14.4" fill="#009af9" fill-rule="evenodd" fill-opacity="1" stroke="#000000" stroke-opacity="1" stroke-width="2.688"/>
<circle clip-path="url(#clip632)" cx="1450.2" cy="389.453" r="14.4" fill="#009af9" fill-rule="evenodd" fill-opacity="1" stroke="#000000" stroke-opacity="1" stroke-width="2.688"/>
<circle clip-path="url(#clip632)" cx="1455.78" cy="342.878" r="14.4" fill="#009af9" fill-rule="evenodd" fill-opacity="1" stroke="#000000" stroke-opacity="1" stroke-width="2.688"/>
<circle clip-path="url(#clip632)" cx="1461.47" cy="342.878" r="14.4" fill="#009af9" fill-rule="evenodd" fill-opacity="1" stroke="#000000" stroke-opacity="1" stroke-width="2.688"/>
<circle clip-path="url(#clip632)" cx="1467.28" cy="342.878" r="14.4" fill="#009af9" fill-rule="evenodd" fill-opacity="1" stroke="#000000" stroke-opacity="1" stroke-width="2.688"/>
<circle clip-path="url(#clip632)" cx="1473.22" cy="342.878" r="14.4" fill="#009af9" fill-rule="evenodd" fill-opacity="1" stroke="#000000" stroke-opacity="1" stroke-width="2.688"/>
<circle clip-path="url(#clip632)" cx="1479.28" cy="342.878" r="14.4" fill="#009af9" fill-rule="evenodd" fill-opacity="1" stroke="#000000" stroke-opacity="1" stroke-width="2.688"/>
<circle clip-path="url(#clip632)" cx="1485.49" cy="342.878" r="14.4" fill="#009af9" fill-rule="evenodd" fill-opacity="1" stroke="#000000" stroke-opacity="1" stroke-width="2.688"/>
<circle clip-path="url(#clip632)" cx="1491.85" cy="342.878" r="14.4" fill="#009af9" fill-rule="evenodd" fill-opacity="1" stroke="#000000" stroke-opacity="1" stroke-width="2.688"/>
<circle clip-path="url(#clip632)" cx="1498.37" cy="342.878" r="14.4" fill="#009af9" fill-rule="evenodd" fill-opacity="1" stroke="#000000" stroke-opacity="1" stroke-width="2.688"/>
<circle clip-path="url(#clip632)" cx="1505.06" cy="342.878" r="14.4" fill="#009af9" fill-rule="evenodd" fill-opacity="1" stroke="#000000" stroke-opacity="1" stroke-width="2.688"/>
<circle clip-path="url(#clip632)" cx="1511.94" cy="342.878" r="14.4" fill="#009af9" fill-rule="evenodd" fill-opacity="1" stroke="#000000" stroke-opacity="1" stroke-width="2.688"/>
<circle clip-path="url(#clip632)" cx="1519.02" cy="342.878" r="14.4" fill="#009af9" fill-rule="evenodd" fill-opacity="1" stroke="#000000" stroke-opacity="1" stroke-width="2.688"/>
<circle clip-path="url(#clip632)" cx="1526.31" cy="342.878" r="14.4" fill="#009af9" fill-rule="evenodd" fill-opacity="1" stroke="#000000" stroke-opacity="1" stroke-width="2.688"/>
<circle clip-path="url(#clip632)" cx="1533.83" cy="342.878" r="14.4" fill="#009af9" fill-rule="evenodd" fill-opacity="1" stroke="#000000" stroke-opacity="1" stroke-width="2.688"/>
<circle clip-path="url(#clip632)" cx="1541.61" cy="342.878" r="14.4" fill="#009af9" fill-rule="evenodd" fill-opacity="1" stroke="#000000" stroke-opacity="1" stroke-width="2.688"/>
<circle clip-path="url(#clip632)" cx="1549.66" cy="342.878" r="14.4" fill="#009af9" fill-rule="evenodd" fill-opacity="1" stroke="#000000" stroke-opacity="1" stroke-width="2.688"/>
<circle clip-path="url(#clip632)" cx="1558.02" cy="342.878" r="14.4" fill="#009af9" fill-rule="evenodd" fill-opacity="1" stroke="#000000" stroke-opacity="1" stroke-width="2.688"/>
<circle clip-path="url(#clip632)" cx="1566.71" cy="342.878" r="14.4" fill="#009af9" fill-rule="evenodd" fill-opacity="1" stroke="#000000" stroke-opacity="1" stroke-width="2.688"/>
<circle clip-path="url(#clip632)" cx="1575.76" cy="342.878" r="14.4" fill="#009af9" fill-rule="evenodd" fill-opacity="1" stroke="#000000" stroke-opacity="1" stroke-width="2.688"/>
<circle clip-path="url(#clip632)" cx="1585.22" cy="342.878" r="14.4" fill="#009af9" fill-rule="evenodd" fill-opacity="1" stroke="#000000" stroke-opacity="1" stroke-width="2.688"/>
<circle clip-path="url(#clip632)" cx="1595.13" cy="342.878" r="14.4" fill="#009af9" fill-rule="evenodd" fill-opacity="1" stroke="#000000" stroke-opacity="1" stroke-width="2.688"/>
<circle clip-path="url(#clip632)" cx="1605.56" cy="342.878" r="14.4" fill="#009af9" fill-rule="evenodd" fill-opacity="1" stroke="#000000" stroke-opacity="1" stroke-width="2.688"/>
<circle clip-path="url(#clip632)" cx="1616.57" cy="342.878" r="14.4" fill="#009af9" fill-rule="evenodd" fill-opacity="1" stroke="#000000" stroke-opacity="1" stroke-width="2.688"/>
<circle clip-path="url(#clip632)" cx="1628.25" cy="342.878" r="14.4" fill="#009af9" fill-rule="evenodd" fill-opacity="1" stroke="#000000" stroke-opacity="1" stroke-width="2.688"/>
<circle clip-path="url(#clip632)" cx="1640.69" cy="342.878" r="14.4" fill="#009af9" fill-rule="evenodd" fill-opacity="1" stroke="#000000" stroke-opacity="1" stroke-width="2.688"/>
<circle clip-path="url(#clip632)" cx="1654.04" cy="342.878" r="14.4" fill="#009af9" fill-rule="evenodd" fill-opacity="1" stroke="#000000" stroke-opacity="1" stroke-width="2.688"/>
<circle clip-path="url(#clip632)" cx="1668.46" cy="342.878" r="14.4" fill="#009af9" fill-rule="evenodd" fill-opacity="1" stroke="#000000" stroke-opacity="1" stroke-width="2.688"/>
<circle clip-path="url(#clip632)" cx="1684.18" cy="342.878" r="14.4" fill="#009af9" fill-rule="evenodd" fill-opacity="1" stroke="#000000" stroke-opacity="1" stroke-width="2.688"/>
<circle clip-path="url(#clip632)" cx="1701.5" cy="342.878" r="14.4" fill="#009af9" fill-rule="evenodd" fill-opacity="1" stroke="#000000" stroke-opacity="1" stroke-width="2.688"/>
<circle clip-path="url(#clip632)" cx="1720.85" cy="342.878" r="14.4" fill="#009af9" fill-rule="evenodd" fill-opacity="1" stroke="#000000" stroke-opacity="1" stroke-width="2.688"/>
<circle clip-path="url(#clip632)" cx="1742.88" cy="342.878" r="14.4" fill="#009af9" fill-rule="evenodd" fill-opacity="1" stroke="#000000" stroke-opacity="1" stroke-width="2.688"/>
<circle clip-path="url(#clip632)" cx="1768.6" cy="342.878" r="14.4" fill="#009af9" fill-rule="evenodd" fill-opacity="1" stroke="#000000" stroke-opacity="1" stroke-width="2.688"/>
<circle clip-path="url(#clip632)" cx="1799.76" cy="342.878" r="14.4" fill="#009af9" fill-rule="evenodd" fill-opacity="1" stroke="#000000" stroke-opacity="1" stroke-width="2.688"/>
<circle clip-path="url(#clip632)" cx="1839.82" cy="276.528" r="14.4" fill="#009af9" fill-rule="evenodd" fill-opacity="1" stroke="#000000" stroke-opacity="1" stroke-width="2.688"/>
<circle clip-path="url(#clip632)" cx="1897.51" cy="212.781" r="14.4" fill="#009af9" fill-rule="evenodd" fill-opacity="1" stroke="#000000" stroke-opacity="1" stroke-width="2.688"/>
<circle clip-path="url(#clip632)" cx="2011.14" cy="212.781" r="14.4" fill="#009af9" fill-rule="evenodd" fill-opacity="1" stroke="#000000" stroke-opacity="1" stroke-width="2.688"/>
</svg>
