<?xml version="1.0" encoding="utf-8"?>
<svg xmlns="http://www.w3.org/2000/svg" xmlns:xlink="http://www.w3.org/1999/xlink" width="528" height="336" viewBox="0 0 2112 1344">
<defs>
  <clipPath id="clip690">
    <rect x="0" y="0" width="2112" height="1344"/>
  </clipPath>
</defs>
<path clip-path="url(#clip690)" d="M0 1344 L2112 1344 L2112 0 L0 0  Z" fill="#ffffff" fill-rule="evenodd" fill-opacity="1"/>
<defs>
  <clipPath id="clip691">
    <rect x="422" y="0" width="1479" height="1344"/>
  </clipPath>
</defs>
<path clip-path="url(#clip690)" d="M198.738 1173.47 L2064.76 1173.47 L2064.76 47.2441 L198.738 47.2441  Z" fill="#ffffff" fill-rule="evenodd" fill-opacity="1"/>
<defs>
  <clipPath id="clip692">
    <rect x="198" y="47" width="1867" height="1127"/>
  </clipPath>
</defs>
<polyline clip-path="url(#clip692)" style="stroke:#000000; stroke-linecap:round; stroke-linejoin:round; stroke-width:2; stroke-opacity:0.1; fill:none" points="301.373,1173.47 301.373,47.2441 "/>
<polyline clip-path="url(#clip692)" style="stroke:#000000; stroke-linecap:round; stroke-linejoin:round; stroke-width:2; stroke-opacity:0.1; fill:none" points="775.872,1173.47 775.872,47.2441 "/>
<polyline clip-path="url(#clip692)" style="stroke:#000000; stroke-linecap:round; stroke-linejoin:round; stroke-width:2; stroke-opacity:0.1; fill:none" points="1250.37,1173.47 1250.37,47.2441 "/>
<polyline clip-path="url(#clip692)" style="stroke:#000000; stroke-linecap:round; stroke-linejoin:round; stroke-width:2; stroke-opacity:0.1; fill:none" points="1724.87,1173.47 1724.87,47.2441 "/>
<polyline clip-path="url(#clip690)" style="stroke:#000000; stroke-linecap:round; stroke-linejoin:round; stroke-width:4; stroke-opacity:1; fill:none" points="198.738,1173.47 2064.76,1173.47 "/>
<polyline clip-path="url(#clip690)" style="stroke:#000000; stroke-linecap:round; stroke-linejoin:round; stroke-width:4; stroke-opacity:1; fill:none" points="301.373,1173.47 301.373,1154.57 "/>
<polyline clip-path="url(#clip690)" style="stroke:#000000; stroke-linecap:round; stroke-linejoin:round; stroke-width:4; stroke-opacity:1; fill:none" points="775.872,1173.47 775.872,1154.57 "/>
<polyline clip-path="url(#clip690)" style="stroke:#000000; stroke-linecap:round; stroke-linejoin:round; stroke-width:4; stroke-opacity:1; fill:none" points="1250.37,1173.47 1250.37,1154.57 "/>
<polyline clip-path="url(#clip690)" style="stroke:#000000; stroke-linecap:round; stroke-linejoin:round; stroke-width:4; stroke-opacity:1; fill:none" points="1724.87,1173.47 1724.87,1154.57 "/>
<path clip-path="url(#clip690)" d="M301.373 1202.09 Q297.762 1202.09 295.933 1205.65 Q294.127 1209.19 294.127 1216.32 Q294.127 1223.43 295.933 1226.99 Q297.762 1230.53 301.373 1230.53 Q305.007 1230.53 306.812 1226.99 Q308.641 1223.43 308.641 1216.32 Q308.641 1209.19 306.812 1205.65 Q305.007 1202.09 301.373 1202.09 M301.373 1198.38 Q307.183 1198.38 310.238 1202.99 Q313.317 1207.57 313.317 1216.32 Q313.317 1225.05 310.238 1229.65 Q307.183 1234.24 301.373 1234.24 Q295.563 1234.24 292.484 1229.65 Q289.428 1225.05 289.428 1216.32 Q289.428 1207.57 292.484 1202.99 Q295.563 1198.38 301.373 1198.38 Z" fill="#000000" fill-rule="nonzero" fill-opacity="1" /><path clip-path="url(#clip690)" d="M770.525 1229.63 L786.845 1229.63 L786.845 1233.57 L764.9 1233.57 L764.9 1229.63 Q767.562 1226.88 772.146 1222.25 Q776.752 1217.59 777.933 1216.25 Q780.178 1213.73 781.058 1211.99 Q781.96 1210.23 781.96 1208.54 Q781.96 1205.79 780.016 1204.05 Q778.095 1202.32 774.993 1202.32 Q772.794 1202.32 770.34 1203.08 Q767.909 1203.84 765.132 1205.4 L765.132 1200.67 Q767.956 1199.54 770.409 1198.96 Q772.863 1198.38 774.9 1198.38 Q780.27 1198.38 783.465 1201.07 Q786.659 1203.75 786.659 1208.24 Q786.659 1210.37 785.849 1212.29 Q785.062 1214.19 782.956 1216.78 Q782.377 1217.46 779.275 1220.67 Q776.173 1223.87 770.525 1229.63 Z" fill="#000000" fill-rule="nonzero" fill-opacity="1" /><path clip-path="url(#clip690)" d="M1253.38 1203.08 L1241.58 1221.53 L1253.38 1221.53 L1253.38 1203.08 M1252.15 1199.01 L1258.03 1199.01 L1258.03 1221.53 L1262.96 1221.53 L1262.96 1225.42 L1258.03 1225.42 L1258.03 1233.57 L1253.38 1233.57 L1253.38 1225.42 L1237.78 1225.42 L1237.78 1220.9 L1252.15 1199.01 Z" fill="#000000" fill-rule="nonzero" fill-opacity="1" /><path clip-path="url(#clip690)" d="M1725.28 1214.42 Q1722.13 1214.42 1720.28 1216.58 Q1718.45 1218.73 1718.45 1222.48 Q1718.45 1226.21 1720.28 1228.38 Q1722.13 1230.53 1725.28 1230.53 Q1728.42 1230.53 1730.25 1228.38 Q1732.11 1226.21 1732.11 1222.48 Q1732.11 1218.73 1730.25 1216.58 Q1728.42 1214.42 1725.28 1214.42 M1734.56 1199.77 L1734.56 1204.03 Q1732.8 1203.2 1730.99 1202.76 Q1729.21 1202.32 1727.45 1202.32 Q1722.82 1202.32 1720.37 1205.44 Q1717.94 1208.57 1717.59 1214.89 Q1718.96 1212.87 1721.02 1211.81 Q1723.08 1210.72 1725.55 1210.72 Q1730.76 1210.72 1733.77 1213.89 Q1736.8 1217.04 1736.8 1222.48 Q1736.8 1227.8 1733.66 1231.02 Q1730.51 1234.24 1725.28 1234.24 Q1719.28 1234.24 1716.11 1229.65 Q1712.94 1225.05 1712.94 1216.32 Q1712.94 1208.13 1716.83 1203.27 Q1720.72 1198.38 1727.27 1198.38 Q1729.03 1198.38 1730.81 1198.73 Q1732.61 1199.08 1734.56 1199.77 Z" fill="#000000" fill-rule="nonzero" fill-opacity="1" /><path clip-path="url(#clip690)" d="M895.245 1307.24 L895.245 1294.47 L884.742 1294.47 L884.742 1289.19 L901.611 1289.19 L901.611 1309.59 Q897.887 1312.23 893.399 1313.6 Q888.911 1314.94 883.819 1314.94 Q872.679 1314.94 866.377 1308.44 Q860.107 1301.92 860.107 1290.3 Q860.107 1278.65 866.377 1272.16 Q872.679 1265.64 883.819 1265.64 Q888.466 1265.64 892.635 1266.78 Q896.837 1267.93 900.37 1270.16 L900.37 1277 Q896.805 1273.97 892.794 1272.45 Q888.784 1270.92 884.36 1270.92 Q875.639 1270.92 871.247 1275.79 Q866.886 1280.66 866.886 1290.3 Q866.886 1299.91 871.247 1304.78 Q875.639 1309.65 884.36 1309.65 Q887.766 1309.65 890.439 1309.08 Q893.113 1308.48 895.245 1307.24 Z" fill="#000000" fill-rule="nonzero" fill-opacity="1" /><path clip-path="url(#clip690)" d="M929.302 1296.1 Q922.204 1296.1 919.467 1297.72 Q916.729 1299.34 916.729 1303.26 Q916.729 1306.38 918.767 1308.22 Q920.835 1310.04 924.368 1310.04 Q929.238 1310.04 932.166 1306.6 Q935.126 1303.13 935.126 1297.4 L935.126 1296.1 L929.302 1296.1 M940.983 1293.68 L940.983 1314.01 L935.126 1314.01 L935.126 1308.6 Q933.121 1311.85 930.129 1313.41 Q927.137 1314.94 922.809 1314.94 Q917.334 1314.94 914.088 1311.88 Q910.873 1308.79 910.873 1303.64 Q910.873 1297.62 914.883 1294.57 Q918.926 1291.51 926.915 1291.51 L935.126 1291.51 L935.126 1290.94 Q935.126 1286.9 932.453 1284.7 Q929.811 1282.47 925.005 1282.47 Q921.949 1282.47 919.053 1283.2 Q916.157 1283.94 913.483 1285.4 L913.483 1279.99 Q916.698 1278.75 919.721 1278.14 Q922.745 1277.51 925.61 1277.51 Q933.344 1277.51 937.163 1281.52 Q940.983 1285.53 940.983 1293.68 Z" fill="#000000" fill-rule="nonzero" fill-opacity="1" /><path clip-path="url(#clip690)" d="M953.046 1264.49 L958.902 1264.49 L958.902 1314.01 L953.046 1314.01 L953.046 1264.49 Z" fill="#000000" fill-rule="nonzero" fill-opacity="1" /><path clip-path="url(#clip690)" d="M976.949 1268.25 L976.949 1278.37 L989.012 1278.37 L989.012 1282.92 L976.949 1282.92 L976.949 1302.27 Q976.949 1306.63 978.127 1307.87 Q979.336 1309.11 982.996 1309.11 L989.012 1309.11 L989.012 1314.01 L982.996 1314.01 Q976.217 1314.01 973.639 1311.5 Q971.061 1308.95 971.061 1302.27 L971.061 1282.92 L966.764 1282.92 L966.764 1278.37 L971.061 1278.37 L971.061 1268.25 L976.949 1268.25 Z" fill="#000000" fill-rule="nonzero" fill-opacity="1" /><path clip-path="url(#clip690)" d="M1010.53 1282.47 Q1005.82 1282.47 1003.08 1286.16 Q1000.34 1289.83 1000.34 1296.22 Q1000.34 1302.62 1003.05 1306.31 Q1005.79 1309.97 1010.53 1309.97 Q1015.21 1309.97 1017.94 1306.28 Q1020.68 1302.59 1020.68 1296.22 Q1020.68 1289.89 1017.94 1286.2 Q1015.21 1282.47 1010.53 1282.47 M1010.53 1277.51 Q1018.17 1277.51 1022.53 1282.47 Q1026.89 1287.44 1026.89 1296.22 Q1026.89 1304.98 1022.53 1309.97 Q1018.17 1314.94 1010.53 1314.94 Q1002.86 1314.94 998.497 1309.97 Q994.168 1304.98 994.168 1296.22 Q994.168 1287.44 998.497 1282.47 Q1002.86 1277.51 1010.53 1277.51 Z" fill="#000000" fill-rule="nonzero" fill-opacity="1" /><path clip-path="url(#clip690)" d="M1066.23 1292.5 L1066.23 1314.01 L1060.37 1314.01 L1060.37 1292.69 Q1060.37 1287.63 1058.4 1285.11 Q1056.42 1282.6 1052.48 1282.6 Q1047.74 1282.6 1045 1285.62 Q1042.26 1288.65 1042.26 1293.87 L1042.26 1314.01 L1036.37 1314.01 L1036.37 1278.37 L1042.26 1278.37 L1042.26 1283.9 Q1044.36 1280.69 1047.19 1279.1 Q1050.06 1277.51 1053.78 1277.51 Q1059.93 1277.51 1063.08 1281.33 Q1066.23 1285.11 1066.23 1292.5 Z" fill="#000000" fill-rule="nonzero" fill-opacity="1" /><path clip-path="url(#clip690)" d="M1105.31 1291.32 L1105.31 1308.73 L1115.63 1308.73 Q1120.81 1308.73 1123.3 1306.6 Q1125.81 1304.43 1125.81 1300.01 Q1125.81 1295.55 1123.3 1293.45 Q1120.81 1291.32 1115.63 1291.32 L1105.31 1291.32 M1105.31 1271.78 L1105.31 1286.1 L1114.83 1286.1 Q1119.54 1286.1 1121.83 1284.35 Q1124.16 1282.57 1124.16 1278.94 Q1124.16 1275.34 1121.83 1273.56 Q1119.54 1271.78 1114.83 1271.78 L1105.31 1271.78 M1098.88 1266.49 L1115.31 1266.49 Q1122.66 1266.49 1126.64 1269.55 Q1130.62 1272.61 1130.62 1278.24 Q1130.62 1282.6 1128.58 1285.18 Q1126.54 1287.76 1122.6 1288.39 Q1127.34 1289.41 1129.95 1292.66 Q1132.59 1295.87 1132.59 1300.71 Q1132.59 1307.08 1128.26 1310.55 Q1123.93 1314.01 1115.94 1314.01 L1098.88 1314.01 L1098.88 1266.49 Z" fill="#000000" fill-rule="nonzero" fill-opacity="1" /><path clip-path="url(#clip690)" d="M1157.16 1282.47 Q1152.45 1282.47 1149.71 1286.16 Q1146.98 1289.83 1146.98 1296.22 Q1146.98 1302.62 1149.68 1306.31 Q1152.42 1309.97 1157.16 1309.97 Q1161.84 1309.97 1164.58 1306.28 Q1167.32 1302.59 1167.32 1296.22 Q1167.32 1289.89 1164.58 1286.2 Q1161.84 1282.47 1157.16 1282.47 M1157.16 1277.51 Q1164.8 1277.51 1169.16 1282.47 Q1173.52 1287.44 1173.52 1296.22 Q1173.52 1304.98 1169.16 1309.97 Q1164.8 1314.94 1157.16 1314.94 Q1149.49 1314.94 1145.13 1309.97 Q1140.8 1304.98 1140.8 1296.22 Q1140.8 1287.44 1145.13 1282.47 Q1149.49 1277.51 1157.16 1277.51 Z" fill="#000000" fill-rule="nonzero" fill-opacity="1" /><path clip-path="url(#clip690)" d="M1199.43 1296.1 Q1192.33 1296.1 1189.6 1297.72 Q1186.86 1299.34 1186.86 1303.26 Q1186.86 1306.38 1188.9 1308.22 Q1190.96 1310.04 1194.5 1310.04 Q1199.37 1310.04 1202.3 1306.6 Q1205.26 1303.13 1205.26 1297.4 L1205.26 1296.1 L1199.43 1296.1 M1211.11 1293.68 L1211.11 1314.01 L1205.26 1314.01 L1205.26 1308.6 Q1203.25 1311.85 1200.26 1313.41 Q1197.27 1314.94 1192.94 1314.94 Q1187.46 1314.94 1184.22 1311.88 Q1181 1308.79 1181 1303.64 Q1181 1297.62 1185.01 1294.57 Q1189.05 1291.51 1197.04 1291.51 L1205.26 1291.51 L1205.26 1290.94 Q1205.26 1286.9 1202.58 1284.7 Q1199.94 1282.47 1195.13 1282.47 Q1192.08 1282.47 1189.18 1283.2 Q1186.29 1283.94 1183.61 1285.4 L1183.61 1279.99 Q1186.83 1278.75 1189.85 1278.14 Q1192.87 1277.51 1195.74 1277.51 Q1203.47 1277.51 1207.29 1281.52 Q1211.11 1285.53 1211.11 1293.68 Z" fill="#000000" fill-rule="nonzero" fill-opacity="1" /><path clip-path="url(#clip690)" d="M1243.83 1283.84 Q1242.84 1283.27 1241.67 1283.01 Q1240.52 1282.73 1239.12 1282.73 Q1234.16 1282.73 1231.48 1285.97 Q1228.84 1289.19 1228.84 1295.24 L1228.84 1314.01 L1222.95 1314.01 L1222.95 1278.37 L1228.84 1278.37 L1228.84 1283.9 Q1230.69 1280.66 1233.65 1279.1 Q1236.61 1277.51 1240.84 1277.51 Q1241.44 1277.51 1242.18 1277.6 Q1242.91 1277.67 1243.8 1277.83 L1243.83 1283.84 Z" fill="#000000" fill-rule="nonzero" fill-opacity="1" /><path clip-path="url(#clip690)" d="M1272.29 1283.78 L1272.29 1264.49 L1278.14 1264.49 L1278.14 1314.01 L1272.29 1314.01 L1272.29 1308.67 Q1270.44 1311.85 1267.61 1313.41 Q1264.81 1314.94 1260.86 1314.94 Q1254.4 1314.94 1250.32 1309.78 Q1246.28 1304.63 1246.28 1296.22 Q1246.28 1287.82 1250.32 1282.66 Q1254.4 1277.51 1260.86 1277.51 Q1264.81 1277.51 1267.61 1279.07 Q1270.44 1280.59 1272.29 1283.78 M1252.33 1296.22 Q1252.33 1302.68 1254.97 1306.38 Q1257.64 1310.04 1262.29 1310.04 Q1266.94 1310.04 1269.61 1306.38 Q1272.29 1302.68 1272.29 1296.22 Q1272.29 1289.76 1269.61 1286.1 Q1266.94 1282.41 1262.29 1282.41 Q1257.64 1282.41 1254.97 1286.1 Q1252.33 1289.76 1252.33 1296.22 Z" fill="#000000" fill-rule="nonzero" fill-opacity="1" /><path clip-path="url(#clip690)" d="M1317.61 1291.32 L1317.61 1308.73 L1327.92 1308.73 Q1333.11 1308.73 1335.59 1306.6 Q1338.11 1304.43 1338.11 1300.01 Q1338.11 1295.55 1335.59 1293.45 Q1333.11 1291.32 1327.92 1291.32 L1317.61 1291.32 M1317.61 1271.78 L1317.61 1286.1 L1327.13 1286.1 Q1331.84 1286.1 1334.13 1284.35 Q1336.45 1282.57 1336.45 1278.94 Q1336.45 1275.34 1334.13 1273.56 Q1331.84 1271.78 1327.13 1271.78 L1317.61 1271.78 M1311.18 1266.49 L1327.6 1266.49 Q1334.96 1266.49 1338.93 1269.55 Q1342.91 1272.61 1342.91 1278.24 Q1342.91 1282.6 1340.88 1285.18 Q1338.84 1287.76 1334.89 1288.39 Q1339.64 1289.41 1342.25 1292.66 Q1344.89 1295.87 1344.89 1300.71 Q1344.89 1307.08 1340.56 1310.55 Q1336.23 1314.01 1328.24 1314.01 L1311.18 1314.01 L1311.18 1266.49 Z" fill="#000000" fill-rule="nonzero" fill-opacity="1" /><path clip-path="url(#clip690)" d="M1355.64 1278.37 L1361.5 1278.37 L1361.5 1314.01 L1355.64 1314.01 L1355.64 1278.37 M1355.64 1264.49 L1361.5 1264.49 L1361.5 1271.91 L1355.64 1271.91 L1355.64 1264.49 Z" fill="#000000" fill-rule="nonzero" fill-opacity="1" /><path clip-path="url(#clip690)" d="M1403.39 1292.5 L1403.39 1314.01 L1397.53 1314.01 L1397.53 1292.69 Q1397.53 1287.63 1395.56 1285.11 Q1393.58 1282.6 1389.64 1282.6 Q1384.9 1282.6 1382.16 1285.62 Q1379.42 1288.65 1379.42 1293.87 L1379.42 1314.01 L1373.53 1314.01 L1373.53 1278.37 L1379.42 1278.37 L1379.42 1283.9 Q1381.52 1280.69 1384.35 1279.1 Q1387.22 1277.51 1390.94 1277.51 Q1397.09 1277.51 1400.24 1281.33 Q1403.39 1285.11 1403.39 1292.5 Z" fill="#000000" fill-rule="nonzero" fill-opacity="1" /><polyline clip-path="url(#clip692)" style="stroke:#000000; stroke-linecap:round; stroke-linejoin:round; stroke-width:2; stroke-opacity:0.1; fill:none" points="198.738,1173.47 2064.76,1173.47 "/>
<polyline clip-path="url(#clip692)" style="stroke:#000000; stroke-linecap:round; stroke-linejoin:round; stroke-width:2; stroke-opacity:0.1; fill:none" points="198.738,798.062 2064.76,798.062 "/>
<polyline clip-path="url(#clip692)" style="stroke:#000000; stroke-linecap:round; stroke-linejoin:round; stroke-width:2; stroke-opacity:0.1; fill:none" points="198.738,422.653 2064.76,422.653 "/>
<polyline clip-path="url(#clip692)" style="stroke:#000000; stroke-linecap:round; stroke-linejoin:round; stroke-width:2; stroke-opacity:0.1; fill:none" points="198.738,47.2441 2064.76,47.2441 "/>
<polyline clip-path="url(#clip690)" style="stroke:#000000; stroke-linecap:round; stroke-linejoin:round; stroke-width:4; stroke-opacity:1; fill:none" points="198.738,1173.47 198.738,47.2441 "/>
<polyline clip-path="url(#clip690)" style="stroke:#000000; stroke-linecap:round; stroke-linejoin:round; stroke-width:4; stroke-opacity:1; fill:none" points="198.738,1173.47 217.636,1173.47 "/>
<polyline clip-path="url(#clip690)" style="stroke:#000000; stroke-linecap:round; stroke-linejoin:round; stroke-width:4; stroke-opacity:1; fill:none" points="198.738,798.062 217.636,798.062 "/>
<polyline clip-path="url(#clip690)" style="stroke:#000000; stroke-linecap:round; stroke-linejoin:round; stroke-width:4; stroke-opacity:1; fill:none" points="198.738,422.653 217.636,422.653 "/>
<polyline clip-path="url(#clip690)" style="stroke:#000000; stroke-linecap:round; stroke-linejoin:round; stroke-width:4; stroke-opacity:1; fill:none" points="198.738,47.2441 217.636,47.2441 "/>
<path clip-path="url(#clip690)" d="M155.114 1159.27 Q151.503 1159.27 149.674 1162.83 Q147.869 1166.38 147.869 1173.51 Q147.869 1180.61 149.674 1184.18 Q151.503 1187.72 155.114 1187.72 Q158.748 1187.72 160.554 1184.18 Q162.382 1180.61 162.382 1173.51 Q162.382 1166.38 160.554 1162.83 Q158.748 1159.27 155.114 1159.27 M155.114 1155.57 Q160.924 1155.57 163.98 1160.17 Q167.058 1164.76 167.058 1173.51 Q167.058 1182.23 163.98 1186.84 Q160.924 1191.42 155.114 1191.42 Q149.304 1191.42 146.225 1186.84 Q143.17 1182.23 143.17 1173.51 Q143.17 1164.76 146.225 1160.17 Q149.304 1155.57 155.114 1155.57 Z" fill="#000000" fill-rule="nonzero" fill-opacity="1" /><path clip-path="url(#clip690)" d="M119.975 811.407 L136.295 811.407 L136.295 815.342 L114.35 815.342 L114.35 811.407 Q117.012 808.652 121.596 804.022 Q126.202 799.37 127.383 798.027 Q129.628 795.504 130.508 793.768 Q131.41 792.009 131.41 790.319 Q131.41 787.564 129.466 785.828 Q127.545 784.092 124.443 784.092 Q122.244 784.092 119.79 784.856 Q117.36 785.62 114.582 787.171 L114.582 782.449 Q117.406 781.314 119.86 780.736 Q122.313 780.157 124.35 780.157 Q129.721 780.157 132.915 782.842 Q136.109 785.527 136.109 790.018 Q136.109 792.148 135.299 794.069 Q134.512 795.967 132.406 798.56 Q131.827 799.231 128.725 802.448 Q125.623 805.643 119.975 811.407 Z" fill="#000000" fill-rule="nonzero" fill-opacity="1" /><path clip-path="url(#clip690)" d="M146.156 780.782 L164.512 780.782 L164.512 784.717 L150.438 784.717 L150.438 793.189 Q151.457 792.842 152.475 792.68 Q153.494 792.495 154.512 792.495 Q160.299 792.495 163.679 795.666 Q167.058 798.837 167.058 804.254 Q167.058 809.833 163.586 812.934 Q160.114 816.013 153.795 816.013 Q151.619 816.013 149.35 815.643 Q147.105 815.272 144.697 814.532 L144.697 809.833 Q146.781 810.967 149.003 811.522 Q151.225 812.078 153.702 812.078 Q157.707 812.078 160.045 809.972 Q162.382 807.865 162.382 804.254 Q162.382 800.643 160.045 798.536 Q157.707 796.43 153.702 796.43 Q151.827 796.43 149.952 796.847 Q148.1 797.263 146.156 798.143 L146.156 780.782 Z" fill="#000000" fill-rule="nonzero" fill-opacity="1" /><path clip-path="url(#clip690)" d="M114.998 405.373 L133.355 405.373 L133.355 409.308 L119.281 409.308 L119.281 417.78 Q120.299 417.433 121.318 417.271 Q122.336 417.086 123.355 417.086 Q129.142 417.086 132.522 420.257 Q135.901 423.428 135.901 428.845 Q135.901 434.424 132.429 437.526 Q128.957 440.604 122.637 440.604 Q120.461 440.604 118.193 440.234 Q115.948 439.864 113.54 439.123 L113.54 434.424 Q115.623 435.558 117.846 436.114 Q120.068 436.669 122.545 436.669 Q126.549 436.669 128.887 434.563 Q131.225 432.456 131.225 428.845 Q131.225 425.234 128.887 423.128 Q126.549 421.021 122.545 421.021 Q120.67 421.021 118.795 421.438 Q116.943 421.854 114.998 422.734 L114.998 405.373 Z" fill="#000000" fill-rule="nonzero" fill-opacity="1" /><path clip-path="url(#clip690)" d="M155.114 408.452 Q151.503 408.452 149.674 412.016 Q147.869 415.558 147.869 422.688 Q147.869 429.794 149.674 433.359 Q151.503 436.901 155.114 436.901 Q158.748 436.901 160.554 433.359 Q162.382 429.794 162.382 422.688 Q162.382 415.558 160.554 412.016 Q158.748 408.452 155.114 408.452 M155.114 404.748 Q160.924 404.748 163.98 409.354 Q167.058 413.938 167.058 422.688 Q167.058 431.415 163.98 436.021 Q160.924 440.604 155.114 440.604 Q149.304 440.604 146.225 436.021 Q143.17 431.415 143.17 422.688 Q143.17 413.938 146.225 409.354 Q149.304 404.748 155.114 404.748 Z" fill="#000000" fill-rule="nonzero" fill-opacity="1" /><path clip-path="url(#clip690)" d="M114.767 29.9641 L136.989 29.9641 L136.989 31.9548 L124.443 64.5241 L119.559 64.5241 L131.364 33.8993 L114.767 33.8993 L114.767 29.9641 Z" fill="#000000" fill-rule="nonzero" fill-opacity="1" /><path clip-path="url(#clip690)" d="M146.156 29.9641 L164.512 29.9641 L164.512 33.8993 L150.438 33.8993 L150.438 42.3714 Q151.457 42.0242 152.475 41.8622 Q153.494 41.677 154.512 41.677 Q160.299 41.677 163.679 44.8483 Q167.058 48.0196 167.058 53.4362 Q167.058 59.0149 163.586 62.1167 Q160.114 65.1954 153.795 65.1954 Q151.619 65.1954 149.35 64.825 Q147.105 64.4547 144.697 63.7139 L144.697 59.0149 Q146.781 60.1491 149.003 60.7047 Q151.225 61.2602 153.702 61.2602 Q157.707 61.2602 160.045 59.1538 Q162.382 57.0473 162.382 53.4362 Q162.382 49.8251 160.045 47.7186 Q157.707 45.6122 153.702 45.6122 Q151.827 45.6122 149.952 46.0288 Q148.1 46.4455 146.156 47.3251 L146.156 29.9641 Z" fill="#000000" fill-rule="nonzero" fill-opacity="1" /><path clip-path="url(#clip690)" d="M44.9104 767.543 L62.3206 767.543 L62.3206 757.23 Q62.3206 752.042 60.1881 749.56 Q58.0238 747.045 53.5996 747.045 Q49.1436 747.045 47.0429 749.56 Q44.9104 752.042 44.9104 757.23 L44.9104 767.543 M25.3677 767.543 L39.6905 767.543 L39.6905 758.026 Q39.6905 753.315 37.94 751.024 Q36.1576 748.7 32.5291 748.7 Q28.9325 748.7 27.1501 751.024 Q25.3677 753.315 25.3677 758.026 L25.3677 767.543 M20.0842 773.972 L20.0842 757.548 Q20.0842 750.196 23.1397 746.218 Q26.1952 742.239 31.8289 742.239 Q36.1894 742.239 38.7675 744.276 Q41.3456 746.313 41.9822 750.26 Q43.0007 745.517 46.2472 742.907 Q49.4619 740.266 54.2998 740.266 Q60.6655 740.266 64.1348 744.594 Q67.6042 748.923 67.6042 756.912 L67.6042 773.972 L20.0842 773.972 Z" fill="#000000" fill-rule="nonzero" fill-opacity="1" /><path clip-path="url(#clip690)" d="M49.6847 713.307 Q49.6847 720.405 51.3079 723.142 Q52.9312 725.879 56.8461 725.879 Q59.9653 725.879 61.8114 723.842 Q63.6256 721.773 63.6256 718.24 Q63.6256 713.37 60.1881 710.442 Q56.7188 707.482 50.9897 707.482 L49.6847 707.482 L49.6847 713.307 M47.2657 701.626 L67.6042 701.626 L67.6042 707.482 L62.1933 707.482 Q65.4398 709.487 66.9994 712.479 Q68.5272 715.471 68.5272 719.8 Q68.5272 725.274 65.4716 728.521 Q62.3843 731.736 57.2281 731.736 Q51.2125 731.736 48.1569 727.725 Q45.1014 723.683 45.1014 715.694 L45.1014 707.482 L44.5285 707.482 Q40.4862 707.482 38.2901 710.156 Q36.0621 712.798 36.0621 717.604 Q36.0621 720.659 36.7941 723.556 Q37.5262 726.452 38.9903 729.126 L33.5795 729.126 Q32.3381 725.911 31.7334 722.887 Q31.0968 719.863 31.0968 716.999 Q31.0968 709.265 35.1072 705.445 Q39.1176 701.626 47.2657 701.626 Z" fill="#000000" fill-rule="nonzero" fill-opacity="1" /><path clip-path="url(#clip690)" d="M18.079 689.563 L18.079 683.706 L67.6042 683.706 L67.6042 689.563 L18.079 689.563 Z" fill="#000000" fill-rule="nonzero" fill-opacity="1" /><path clip-path="url(#clip690)" d="M18.079 671.452 L18.079 665.596 L67.6042 665.596 L67.6042 671.452 L18.079 671.452 Z" fill="#000000" fill-rule="nonzero" fill-opacity="1" /><path clip-path="url(#clip690)" d="M23.7444 596.783 L30.5239 596.783 Q27.5002 600.029 26.0043 603.721 Q24.5083 607.381 24.5083 611.519 Q24.5083 619.667 29.5054 623.996 Q34.4707 628.325 43.8919 628.325 Q53.2813 628.325 58.2784 623.996 Q63.2436 619.667 63.2436 611.519 Q63.2436 607.381 61.7477 603.721 Q60.2518 600.029 57.2281 596.783 L63.9439 596.783 Q66.2355 600.156 67.3814 603.944 Q68.5272 607.7 68.5272 611.901 Q68.5272 622.691 61.9387 628.898 Q55.3183 635.104 43.8919 635.104 Q32.4336 635.104 25.8451 628.898 Q19.2248 622.691 19.2248 611.901 Q19.2248 607.636 20.3706 603.88 Q21.4846 600.093 23.7444 596.783 Z" fill="#000000" fill-rule="nonzero" fill-opacity="1" /><path clip-path="url(#clip690)" d="M36.0621 573.293 Q36.0621 578.004 39.7542 580.741 Q43.4145 583.478 49.812 583.478 Q56.2095 583.478 59.9017 580.773 Q63.5619 578.036 63.5619 573.293 Q63.5619 568.614 59.8698 565.877 Q56.1777 563.14 49.812 563.14 Q43.4781 563.14 39.786 565.877 Q36.0621 568.614 36.0621 573.293 M31.0968 573.293 Q31.0968 565.654 36.0621 561.294 Q41.0273 556.933 49.812 556.933 Q58.5649 556.933 63.5619 561.294 Q68.5272 565.654 68.5272 573.293 Q68.5272 580.964 63.5619 585.324 Q58.5649 589.653 49.812 589.653 Q41.0273 589.653 36.0621 585.324 Q31.0968 580.964 31.0968 573.293 Z" fill="#000000" fill-rule="nonzero" fill-opacity="1" /><path clip-path="url(#clip690)" d="M53.5359 547.83 L31.9562 547.83 L31.9562 541.974 L53.3131 541.974 Q58.3739 541.974 60.9202 540 Q63.4346 538.027 63.4346 534.08 Q63.4346 529.338 60.4109 526.601 Q57.3872 523.832 52.1673 523.832 L31.9562 523.832 L31.9562 517.975 L67.6042 517.975 L67.6042 523.832 L62.1296 523.832 Q65.3762 525.964 66.9676 528.797 Q68.5272 531.598 68.5272 535.322 Q68.5272 541.465 64.7078 544.647 Q60.8883 547.83 53.5359 547.83 M31.0968 533.094 L31.0968 533.094 Z" fill="#000000" fill-rule="nonzero" fill-opacity="1" /><path clip-path="url(#clip690)" d="M46.0881 476.28 L67.6042 476.28 L67.6042 482.136 L46.279 482.136 Q41.2183 482.136 38.7038 484.11 Q36.1894 486.083 36.1894 490.03 Q36.1894 494.772 39.2131 497.509 Q42.2368 500.247 47.4567 500.247 L67.6042 500.247 L67.6042 506.135 L31.9562 506.135 L31.9562 500.247 L37.4944 500.247 Q34.2797 498.146 32.6883 495.313 Q31.0968 492.449 31.0968 488.725 Q31.0968 482.582 34.9163 479.431 Q38.7038 476.28 46.0881 476.28 Z" fill="#000000" fill-rule="nonzero" fill-opacity="1" /><path clip-path="url(#clip690)" d="M21.8347 458.806 L31.9562 458.806 L31.9562 446.743 L36.5077 446.743 L36.5077 458.806 L55.8594 458.806 Q60.2199 458.806 61.4613 457.628 Q62.7026 456.419 62.7026 452.758 L62.7026 446.743 L67.6042 446.743 L67.6042 452.758 Q67.6042 459.538 65.0897 462.116 Q62.5434 464.694 55.8594 464.694 L36.5077 464.694 L36.5077 468.991 L31.9562 468.991 L31.9562 464.694 L21.8347 464.694 L21.8347 458.806 Z" fill="#000000" fill-rule="nonzero" fill-opacity="1" /><path clip-path="url(#clip692)" d="M301.373 1023.31 L301.373 1173.47 L538.623 1173.47 L538.623 1023.31 L301.373 1023.31 L301.373 1023.31  Z" fill="#009af9" fill-rule="evenodd" fill-opacity="1"/>
<polyline clip-path="url(#clip692)" style="stroke:#000000; stroke-linecap:round; stroke-linejoin:round; stroke-width:4; stroke-opacity:1; fill:none" points="301.373,1023.31 301.373,1173.47 538.623,1173.47 538.623,1023.31 301.373,1023.31 "/>
<path clip-path="url(#clip692)" d="M538.623 332.555 L538.623 1173.47 L775.872 1173.47 L775.872 332.555 L538.623 332.555 L538.623 332.555  Z" fill="#009af9" fill-rule="evenodd" fill-opacity="1"/>
<polyline clip-path="url(#clip692)" style="stroke:#000000; stroke-linecap:round; stroke-linejoin:round; stroke-width:4; stroke-opacity:1; fill:none" points="538.623,332.555 538.623,1173.47 775.872,1173.47 775.872,332.555 538.623,332.555 "/>
<path clip-path="url(#clip692)" d="M775.872 47.2441 L775.872 1173.47 L1013.12 1173.47 L1013.12 47.2441 L775.872 47.2441 L775.872 47.2441  Z" fill="#009af9" fill-rule="evenodd" fill-opacity="1"/>
<polyline clip-path="url(#clip692)" style="stroke:#000000; stroke-linecap:round; stroke-linejoin:round; stroke-width:4; stroke-opacity:1; fill:none" points="775.872,47.2441 775.872,1173.47 1013.12,1173.47 1013.12,47.2441 775.872,47.2441 "/>
<path clip-path="url(#clip692)" d="M1013.12 242.457 L1013.12 1173.47 L1250.37 1173.47 L1250.37 242.457 L1013.12 242.457 L1013.12 242.457  Z" fill="#009af9" fill-rule="evenodd" fill-opacity="1"/>
<polyline clip-path="url(#clip692)" style="stroke:#000000; stroke-linecap:round; stroke-linejoin:round; stroke-width:4; stroke-opacity:1; fill:none" points="1013.12,242.457 1013.12,1173.47 1250.37,1173.47 1250.37,242.457 1013.12,242.457 "/>
<path clip-path="url(#clip692)" d="M1250.37 647.898 L1250.37 1173.47 L1487.62 1173.47 L1487.62 647.898 L1250.37 647.898 L1250.37 647.898  Z" fill="#009af9" fill-rule="evenodd" fill-opacity="1"/>
<polyline clip-path="url(#clip692)" style="stroke:#000000; stroke-linecap:round; stroke-linejoin:round; stroke-width:4; stroke-opacity:1; fill:none" points="1250.37,647.898 1250.37,1173.47 1487.62,1173.47 1487.62,647.898 1250.37,647.898 "/>
<path clip-path="url(#clip692)" d="M1487.62 1008.29 L1487.62 1173.47 L1724.87 1173.47 L1724.87 1008.29 L1487.62 1008.29 L1487.62 1008.29  Z" fill="#009af9" fill-rule="evenodd" fill-opacity="1"/>
<polyline clip-path="url(#clip692)" style="stroke:#000000; stroke-linecap:round; stroke-linejoin:round; stroke-width:4; stroke-opacity:1; fill:none" points="1487.62,1008.29 1487.62,1173.47 1724.87,1173.47 1724.87,1008.29 1487.62,1008.29 "/>
<path clip-path="url(#clip692)" d="M1724.87 1158.45 L1724.87 1173.47 L1962.12 1173.47 L1962.12 1158.45 L1724.87 1158.45 L1724.87 1158.45  Z" fill="#009af9" fill-rule="evenodd" fill-opacity="1"/>
<polyline clip-path="url(#clip692)" style="stroke:#000000; stroke-linecap:round; stroke-linejoin:round; stroke-width:4; stroke-opacity:1; fill:none" points="1724.87,1158.45 1724.87,1173.47 1962.12,1173.47 1962.12,1158.45 1724.87,1158.45 "/>
<circle clip-path="url(#clip692)" style="fill:#009af9; stroke:none; fill-opacity:0" cx="419.998" cy="1023.31" r="2"/>
<circle clip-path="url(#clip692)" style="fill:#009af9; stroke:none; fill-opacity:0" cx="657.247" cy="332.555" r="2"/>
<circle clip-path="url(#clip692)" style="fill:#009af9; stroke:none; fill-opacity:0" cx="894.497" cy="47.2441" r="2"/>
<circle clip-path="url(#clip692)" style="fill:#009af9; stroke:none; fill-opacity:0" cx="1131.75" cy="242.457" r="2"/>
<circle clip-path="url(#clip692)" style="fill:#009af9; stroke:none; fill-opacity:0" cx="1369" cy="647.898" r="2"/>
<circle clip-path="url(#clip692)" style="fill:#009af9; stroke:none; fill-opacity:0" cx="1606.25" cy="1008.29" r="2"/>
<circle clip-path="url(#clip692)" style="fill:#009af9; stroke:none; fill-opacity:0" cx="1843.5" cy="1158.45" r="2"/>
</svg>
