<?xml version="1.0" encoding="utf-8"?>
<svg xmlns="http://www.w3.org/2000/svg" xmlns:xlink="http://www.w3.org/1999/xlink" width="528" height="336" viewBox="0 0 2112 1344">
<defs>
  <clipPath id="clip870">
    <rect x="0" y="0" width="2112" height="1344"/>
  </clipPath>
</defs>
<path clip-path="url(#clip870)" d="M0 1344 L2112 1344 L2112 0 L0 0  Z" fill="#ffffff" fill-rule="evenodd" fill-opacity="1"/>
<defs>
  <clipPath id="clip871">
    <rect x="422" y="0" width="1479" height="1344"/>
  </clipPath>
</defs>
<path clip-path="url(#clip870)" d="M273.394 1222.85 L2064.76 1222.85 L2064.76 47.2441 L273.394 47.2441  Z" fill="#ffffff" fill-rule="evenodd" fill-opacity="1"/>
<defs>
  <clipPath id="clip872">
    <rect x="273" y="47" width="1792" height="1177"/>
  </clipPath>
</defs>
<polyline clip-path="url(#clip872)" style="stroke:#000000; stroke-linecap:round; stroke-linejoin:round; stroke-width:2; stroke-opacity:0.1; fill:none" points="324.092,1222.85 324.092,47.2441 "/>
<polyline clip-path="url(#clip872)" style="stroke:#000000; stroke-linecap:round; stroke-linejoin:round; stroke-width:2; stroke-opacity:0.1; fill:none" points="649.086,1222.85 649.086,47.2441 "/>
<polyline clip-path="url(#clip872)" style="stroke:#000000; stroke-linecap:round; stroke-linejoin:round; stroke-width:2; stroke-opacity:0.1; fill:none" points="974.079,1222.85 974.079,47.2441 "/>
<polyline clip-path="url(#clip872)" style="stroke:#000000; stroke-linecap:round; stroke-linejoin:round; stroke-width:2; stroke-opacity:0.1; fill:none" points="1299.07,1222.85 1299.07,47.2441 "/>
<polyline clip-path="url(#clip872)" style="stroke:#000000; stroke-linecap:round; stroke-linejoin:round; stroke-width:2; stroke-opacity:0.1; fill:none" points="1624.07,1222.85 1624.07,47.2441 "/>
<polyline clip-path="url(#clip872)" style="stroke:#000000; stroke-linecap:round; stroke-linejoin:round; stroke-width:2; stroke-opacity:0.1; fill:none" points="1949.06,1222.85 1949.06,47.2441 "/>
<polyline clip-path="url(#clip870)" style="stroke:#000000; stroke-linecap:round; stroke-linejoin:round; stroke-width:4; stroke-opacity:1; fill:none" points="273.394,1222.85 2064.76,1222.85 "/>
<polyline clip-path="url(#clip870)" style="stroke:#000000; stroke-linecap:round; stroke-linejoin:round; stroke-width:4; stroke-opacity:1; fill:none" points="324.092,1222.85 324.092,1203.96 "/>
<polyline clip-path="url(#clip870)" style="stroke:#000000; stroke-linecap:round; stroke-linejoin:round; stroke-width:4; stroke-opacity:1; fill:none" points="649.086,1222.85 649.086,1203.96 "/>
<polyline clip-path="url(#clip870)" style="stroke:#000000; stroke-linecap:round; stroke-linejoin:round; stroke-width:4; stroke-opacity:1; fill:none" points="974.079,1222.85 974.079,1203.96 "/>
<polyline clip-path="url(#clip870)" style="stroke:#000000; stroke-linecap:round; stroke-linejoin:round; stroke-width:4; stroke-opacity:1; fill:none" points="1299.07,1222.85 1299.07,1203.96 "/>
<polyline clip-path="url(#clip870)" style="stroke:#000000; stroke-linecap:round; stroke-linejoin:round; stroke-width:4; stroke-opacity:1; fill:none" points="1624.07,1222.85 1624.07,1203.96 "/>
<polyline clip-path="url(#clip870)" style="stroke:#000000; stroke-linecap:round; stroke-linejoin:round; stroke-width:4; stroke-opacity:1; fill:none" points="1949.06,1222.85 1949.06,1203.96 "/>
<path clip-path="url(#clip870)" d="M235.077 1294.67 L251.396 1294.67 L251.396 1298.61 L229.452 1298.61 L229.452 1294.67 Q232.114 1291.92 236.697 1287.29 Q241.304 1282.64 242.484 1281.3 Q244.729 1278.77 245.609 1277.04 Q246.512 1275.28 246.512 1273.59 Q246.512 1270.83 244.567 1269.1 Q242.646 1267.36 239.544 1267.36 Q237.345 1267.36 234.892 1268.12 Q232.461 1268.89 229.683 1270.44 L229.683 1265.72 Q232.507 1264.58 234.961 1264 Q237.415 1263.42 239.452 1263.42 Q244.822 1263.42 248.016 1266.11 Q251.211 1268.8 251.211 1273.29 Q251.211 1275.42 250.401 1277.34 Q249.614 1279.24 247.507 1281.83 Q246.929 1282.5 243.827 1285.72 Q240.725 1288.91 235.077 1294.67 Z" fill="#000000" fill-rule="nonzero" fill-opacity="1" /><path clip-path="url(#clip870)" d="M261.211 1292.73 L266.095 1292.73 L266.095 1298.61 L261.211 1298.61 L261.211 1292.73 Z" fill="#000000" fill-rule="nonzero" fill-opacity="1" /><path clip-path="url(#clip870)" d="M286.28 1267.13 Q282.669 1267.13 280.84 1270.69 Q279.035 1274.24 279.035 1281.36 Q279.035 1288.47 280.84 1292.04 Q282.669 1295.58 286.28 1295.58 Q289.914 1295.58 291.72 1292.04 Q293.549 1288.47 293.549 1281.36 Q293.549 1274.24 291.72 1270.69 Q289.914 1267.13 286.28 1267.13 M286.28 1263.42 Q292.09 1263.42 295.146 1268.03 Q298.225 1272.61 298.225 1281.36 Q298.225 1290.09 295.146 1294.7 Q292.09 1299.28 286.28 1299.28 Q280.47 1299.28 277.391 1294.7 Q274.336 1290.09 274.336 1281.36 Q274.336 1272.61 277.391 1268.03 Q280.47 1263.42 286.28 1263.42 Z" fill="#000000" fill-rule="nonzero" fill-opacity="1" /><path clip-path="url(#clip870)" d="M334.613 1273.15 L324.035 1283.77 L334.613 1294.35 L331.859 1297.15 L321.234 1286.53 L310.609 1297.15 L307.877 1294.35 L318.433 1283.77 L307.877 1273.15 L310.609 1270.35 L321.234 1280.97 L331.859 1270.35 L334.613 1273.15 Z" fill="#000000" fill-rule="nonzero" fill-opacity="1" /><path clip-path="url(#clip870)" d="M346.974 1294.67 L354.613 1294.67 L354.613 1268.31 L346.303 1269.98 L346.303 1265.72 L354.567 1264.05 L359.243 1264.05 L359.243 1294.67 L366.882 1294.67 L366.882 1298.61 L346.974 1298.61 L346.974 1294.67 Z" fill="#000000" fill-rule="nonzero" fill-opacity="1" /><path clip-path="url(#clip870)" d="M386.326 1267.13 Q382.715 1267.13 380.886 1270.69 Q379.081 1274.24 379.081 1281.36 Q379.081 1288.47 380.886 1292.04 Q382.715 1295.58 386.326 1295.58 Q389.96 1295.58 391.766 1292.04 Q393.594 1288.47 393.594 1281.36 Q393.594 1274.24 391.766 1270.69 Q389.96 1267.13 386.326 1267.13 M386.326 1263.42 Q392.136 1263.42 395.192 1268.03 Q398.27 1272.61 398.27 1281.36 Q398.27 1290.09 395.192 1294.7 Q392.136 1299.28 386.326 1299.28 Q380.516 1299.28 377.437 1294.7 Q374.382 1290.09 374.382 1281.36 Q374.382 1272.61 377.437 1268.03 Q380.516 1263.42 386.326 1263.42 Z" fill="#000000" fill-rule="nonzero" fill-opacity="1" /><path clip-path="url(#clip870)" d="M410.947 1246.43 L401.355 1261.42 L410.947 1261.42 L410.947 1246.43 M409.95 1243.12 L414.727 1243.12 L414.727 1261.42 L418.733 1261.42 L418.733 1264.58 L414.727 1264.58 L414.727 1271.2 L410.947 1271.2 L410.947 1264.58 L398.27 1264.58 L398.27 1260.91 L409.95 1243.12 Z" fill="#000000" fill-rule="nonzero" fill-opacity="1" /><path clip-path="url(#clip870)" d="M570.139 1279.98 Q573.496 1280.69 575.371 1282.96 Q577.269 1285.23 577.269 1288.56 Q577.269 1293.68 573.75 1296.48 Q570.232 1299.28 563.75 1299.28 Q561.575 1299.28 559.26 1298.84 Q556.968 1298.42 554.514 1297.57 L554.514 1293.05 Q556.459 1294.19 558.774 1294.77 Q561.088 1295.35 563.612 1295.35 Q568.01 1295.35 570.301 1293.61 Q572.616 1291.87 572.616 1288.56 Q572.616 1285.51 570.463 1283.8 Q568.334 1282.06 564.514 1282.06 L560.487 1282.06 L560.487 1278.22 L564.7 1278.22 Q568.149 1278.22 569.977 1276.85 Q571.806 1275.46 571.806 1272.87 Q571.806 1270.21 569.908 1268.8 Q568.033 1267.36 564.514 1267.36 Q562.593 1267.36 560.394 1267.78 Q558.195 1268.19 555.556 1269.07 L555.556 1264.91 Q558.218 1264.17 560.533 1263.8 Q562.871 1263.42 564.931 1263.42 Q570.255 1263.42 573.357 1265.86 Q576.459 1268.26 576.459 1272.38 Q576.459 1275.25 574.815 1277.24 Q573.172 1279.21 570.139 1279.98 Z" fill="#000000" fill-rule="nonzero" fill-opacity="1" /><path clip-path="url(#clip870)" d="M586.135 1292.73 L591.019 1292.73 L591.019 1298.61 L586.135 1298.61 L586.135 1292.73 Z" fill="#000000" fill-rule="nonzero" fill-opacity="1" /><path clip-path="url(#clip870)" d="M611.204 1267.13 Q607.593 1267.13 605.764 1270.69 Q603.959 1274.24 603.959 1281.36 Q603.959 1288.47 605.764 1292.04 Q607.593 1295.58 611.204 1295.58 Q614.838 1295.58 616.644 1292.04 Q618.472 1288.47 618.472 1281.36 Q618.472 1274.24 616.644 1270.69 Q614.838 1267.13 611.204 1267.13 M611.204 1263.42 Q617.014 1263.42 620.07 1268.03 Q623.148 1272.61 623.148 1281.36 Q623.148 1290.09 620.07 1294.7 Q617.014 1299.28 611.204 1299.28 Q605.394 1299.28 602.315 1294.7 Q599.26 1290.09 599.26 1281.36 Q599.26 1272.61 602.315 1268.03 Q605.394 1263.42 611.204 1263.42 Z" fill="#000000" fill-rule="nonzero" fill-opacity="1" /><path clip-path="url(#clip870)" d="M659.537 1273.15 L648.958 1283.77 L659.537 1294.35 L656.782 1297.15 L646.157 1286.53 L635.532 1297.15 L632.801 1294.35 L643.356 1283.77 L632.801 1273.15 L635.532 1270.35 L646.157 1280.97 L656.782 1270.35 L659.537 1273.15 Z" fill="#000000" fill-rule="nonzero" fill-opacity="1" /><path clip-path="url(#clip870)" d="M671.898 1294.67 L679.537 1294.67 L679.537 1268.31 L671.227 1269.98 L671.227 1265.72 L679.491 1264.05 L684.166 1264.05 L684.166 1294.67 L691.805 1294.67 L691.805 1298.61 L671.898 1298.61 L671.898 1294.67 Z" fill="#000000" fill-rule="nonzero" fill-opacity="1" /><path clip-path="url(#clip870)" d="M711.25 1267.13 Q707.639 1267.13 705.81 1270.69 Q704.004 1274.24 704.004 1281.36 Q704.004 1288.47 705.81 1292.04 Q707.639 1295.58 711.25 1295.58 Q714.884 1295.58 716.689 1292.04 Q718.518 1288.47 718.518 1281.36 Q718.518 1274.24 716.689 1270.69 Q714.884 1267.13 711.25 1267.13 M711.25 1263.42 Q717.06 1263.42 720.115 1268.03 Q723.194 1272.61 723.194 1281.36 Q723.194 1290.09 720.115 1294.7 Q717.06 1299.28 711.25 1299.28 Q705.439 1299.28 702.361 1294.7 Q699.305 1290.09 699.305 1281.36 Q699.305 1272.61 702.361 1268.03 Q705.439 1263.42 711.25 1263.42 Z" fill="#000000" fill-rule="nonzero" fill-opacity="1" /><path clip-path="url(#clip870)" d="M735.87 1246.43 L726.279 1261.42 L735.87 1261.42 L735.87 1246.43 M734.874 1243.12 L739.651 1243.12 L739.651 1261.42 L743.657 1261.42 L743.657 1264.58 L739.651 1264.58 L739.651 1271.2 L735.87 1271.2 L735.87 1264.58 L723.194 1264.58 L723.194 1260.91 L734.874 1243.12 Z" fill="#000000" fill-rule="nonzero" fill-opacity="1" /><path clip-path="url(#clip870)" d="M894.461 1268.12 L882.656 1286.57 L894.461 1286.57 L894.461 1268.12 M893.234 1264.05 L899.114 1264.05 L899.114 1286.57 L904.044 1286.57 L904.044 1290.46 L899.114 1290.46 L899.114 1298.61 L894.461 1298.61 L894.461 1290.46 L878.859 1290.46 L878.859 1285.95 L893.234 1264.05 Z" fill="#000000" fill-rule="nonzero" fill-opacity="1" /><path clip-path="url(#clip870)" d="M911.776 1292.73 L916.66 1292.73 L916.66 1298.61 L911.776 1298.61 L911.776 1292.73 Z" fill="#000000" fill-rule="nonzero" fill-opacity="1" /><path clip-path="url(#clip870)" d="M936.845 1267.13 Q933.234 1267.13 931.405 1270.69 Q929.6 1274.24 929.6 1281.36 Q929.6 1288.47 931.405 1292.04 Q933.234 1295.58 936.845 1295.58 Q940.479 1295.58 942.285 1292.04 Q944.114 1288.47 944.114 1281.36 Q944.114 1274.24 942.285 1270.69 Q940.479 1267.13 936.845 1267.13 M936.845 1263.42 Q942.655 1263.42 945.711 1268.03 Q948.79 1272.61 948.79 1281.36 Q948.79 1290.09 945.711 1294.7 Q942.655 1299.28 936.845 1299.28 Q931.035 1299.28 927.956 1294.7 Q924.901 1290.09 924.901 1281.36 Q924.901 1272.61 927.956 1268.03 Q931.035 1263.42 936.845 1263.42 Z" fill="#000000" fill-rule="nonzero" fill-opacity="1" /><path clip-path="url(#clip870)" d="M985.178 1273.15 L974.6 1283.77 L985.178 1294.35 L982.424 1297.15 L971.799 1286.53 L961.174 1297.15 L958.442 1294.35 L968.998 1283.77 L958.442 1273.15 L961.174 1270.35 L971.799 1280.97 L982.424 1270.35 L985.178 1273.15 Z" fill="#000000" fill-rule="nonzero" fill-opacity="1" /><path clip-path="url(#clip870)" d="M997.539 1294.67 L1005.18 1294.67 L1005.18 1268.31 L996.868 1269.98 L996.868 1265.72 L1005.13 1264.05 L1009.81 1264.05 L1009.81 1294.67 L1017.45 1294.67 L1017.45 1298.61 L997.539 1298.61 L997.539 1294.67 Z" fill="#000000" fill-rule="nonzero" fill-opacity="1" /><path clip-path="url(#clip870)" d="M1036.89 1267.13 Q1033.28 1267.13 1031.45 1270.69 Q1029.65 1274.24 1029.65 1281.36 Q1029.65 1288.47 1031.45 1292.04 Q1033.28 1295.58 1036.89 1295.58 Q1040.53 1295.58 1042.33 1292.04 Q1044.16 1288.47 1044.16 1281.36 Q1044.16 1274.24 1042.33 1270.69 Q1040.53 1267.13 1036.89 1267.13 M1036.89 1263.42 Q1042.7 1263.42 1045.76 1268.03 Q1048.84 1272.61 1048.84 1281.36 Q1048.84 1290.09 1045.76 1294.7 Q1042.7 1299.28 1036.89 1299.28 Q1031.08 1299.28 1028 1294.7 Q1024.95 1290.09 1024.95 1281.36 Q1024.95 1272.61 1028 1268.03 Q1031.08 1263.42 1036.89 1263.42 Z" fill="#000000" fill-rule="nonzero" fill-opacity="1" /><path clip-path="url(#clip870)" d="M1061.51 1246.43 L1051.92 1261.42 L1061.51 1261.42 L1061.51 1246.43 M1060.51 1243.12 L1065.29 1243.12 L1065.29 1261.42 L1069.3 1261.42 L1069.3 1264.58 L1065.29 1264.58 L1065.29 1271.2 L1061.51 1271.2 L1061.51 1264.58 L1048.84 1264.58 L1048.84 1260.91 L1060.51 1243.12 Z" fill="#000000" fill-rule="nonzero" fill-opacity="1" /><path clip-path="url(#clip870)" d="M1205.98 1264.05 L1224.34 1264.05 L1224.34 1267.99 L1210.26 1267.99 L1210.26 1276.46 Q1211.28 1276.11 1212.3 1275.95 Q1213.32 1275.76 1214.34 1275.76 Q1220.13 1275.76 1223.51 1278.93 Q1226.88 1282.11 1226.88 1287.52 Q1226.88 1293.1 1223.41 1296.2 Q1219.94 1299.28 1213.62 1299.28 Q1211.45 1299.28 1209.18 1298.91 Q1206.93 1298.54 1204.52 1297.8 L1204.52 1293.1 Q1206.61 1294.23 1208.83 1294.79 Q1211.05 1295.35 1213.53 1295.35 Q1217.53 1295.35 1219.87 1293.24 Q1222.21 1291.13 1222.21 1287.52 Q1222.21 1283.91 1219.87 1281.8 Q1217.53 1279.7 1213.53 1279.7 Q1211.65 1279.7 1209.78 1280.11 Q1207.93 1280.53 1205.98 1281.41 L1205.98 1264.05 Z" fill="#000000" fill-rule="nonzero" fill-opacity="1" /><path clip-path="url(#clip870)" d="M1236.1 1292.73 L1240.98 1292.73 L1240.98 1298.61 L1236.1 1298.61 L1236.1 1292.73 Z" fill="#000000" fill-rule="nonzero" fill-opacity="1" /><path clip-path="url(#clip870)" d="M1261.17 1267.13 Q1257.56 1267.13 1255.73 1270.69 Q1253.92 1274.24 1253.92 1281.36 Q1253.92 1288.47 1255.73 1292.04 Q1257.56 1295.58 1261.17 1295.58 Q1264.8 1295.58 1266.61 1292.04 Q1268.44 1288.47 1268.44 1281.36 Q1268.44 1274.24 1266.61 1270.69 Q1264.8 1267.13 1261.17 1267.13 M1261.17 1263.42 Q1266.98 1263.42 1270.03 1268.03 Q1273.11 1272.61 1273.11 1281.36 Q1273.11 1290.09 1270.03 1294.7 Q1266.98 1299.28 1261.17 1299.28 Q1255.36 1299.28 1252.28 1294.7 Q1249.22 1290.09 1249.22 1281.36 Q1249.22 1272.61 1252.28 1268.03 Q1255.36 1263.42 1261.17 1263.42 Z" fill="#000000" fill-rule="nonzero" fill-opacity="1" /><path clip-path="url(#clip870)" d="M1309.5 1273.15 L1298.92 1283.77 L1309.5 1294.35 L1306.75 1297.15 L1296.12 1286.53 L1285.5 1297.15 L1282.76 1294.35 L1293.32 1283.77 L1282.76 1273.15 L1285.5 1270.35 L1296.12 1280.97 L1306.75 1270.35 L1309.5 1273.15 Z" fill="#000000" fill-rule="nonzero" fill-opacity="1" /><path clip-path="url(#clip870)" d="M1321.86 1294.67 L1329.5 1294.67 L1329.5 1268.31 L1321.19 1269.98 L1321.19 1265.72 L1329.45 1264.05 L1334.13 1264.05 L1334.13 1294.67 L1341.77 1294.67 L1341.77 1298.61 L1321.86 1298.61 L1321.86 1294.67 Z" fill="#000000" fill-rule="nonzero" fill-opacity="1" /><path clip-path="url(#clip870)" d="M1361.21 1267.13 Q1357.6 1267.13 1355.77 1270.69 Q1353.97 1274.24 1353.97 1281.36 Q1353.97 1288.47 1355.77 1292.04 Q1357.6 1295.58 1361.21 1295.58 Q1364.85 1295.58 1366.65 1292.04 Q1368.48 1288.47 1368.48 1281.36 Q1368.48 1274.24 1366.65 1270.69 Q1364.85 1267.13 1361.21 1267.13 M1361.21 1263.42 Q1367.02 1263.42 1370.08 1268.03 Q1373.16 1272.61 1373.16 1281.36 Q1373.16 1290.09 1370.08 1294.7 Q1367.02 1299.28 1361.21 1299.28 Q1355.4 1299.28 1352.32 1294.7 Q1349.27 1290.09 1349.27 1281.36 Q1349.27 1272.61 1352.32 1268.03 Q1355.4 1263.42 1361.21 1263.42 Z" fill="#000000" fill-rule="nonzero" fill-opacity="1" /><path clip-path="url(#clip870)" d="M1385.83 1246.43 L1376.24 1261.42 L1385.83 1261.42 L1385.83 1246.43 M1384.84 1243.12 L1389.61 1243.12 L1389.61 1261.42 L1393.62 1261.42 L1393.62 1264.58 L1389.61 1264.58 L1389.61 1271.2 L1385.83 1271.2 L1385.83 1264.58 L1373.16 1264.58 L1373.16 1260.91 L1384.84 1243.12 Z" fill="#000000" fill-rule="nonzero" fill-opacity="1" /><path clip-path="url(#clip870)" d="M1541.68 1279.47 Q1538.53 1279.47 1536.68 1281.62 Q1534.85 1283.77 1534.85 1287.52 Q1534.85 1291.25 1536.68 1293.42 Q1538.53 1295.58 1541.68 1295.58 Q1544.83 1295.58 1546.66 1293.42 Q1548.51 1291.25 1548.51 1287.52 Q1548.51 1283.77 1546.66 1281.62 Q1544.83 1279.47 1541.68 1279.47 M1550.96 1264.81 L1550.96 1269.07 Q1549.2 1268.24 1547.4 1267.8 Q1545.62 1267.36 1543.86 1267.36 Q1539.23 1267.36 1536.77 1270.49 Q1534.34 1273.61 1534 1279.93 Q1535.36 1277.92 1537.42 1276.85 Q1539.48 1275.76 1541.96 1275.76 Q1547.17 1275.76 1550.18 1278.93 Q1553.21 1282.08 1553.21 1287.52 Q1553.21 1292.85 1550.06 1296.06 Q1546.91 1299.28 1541.68 1299.28 Q1535.69 1299.28 1532.51 1294.7 Q1529.34 1290.09 1529.34 1281.36 Q1529.34 1273.17 1533.23 1268.31 Q1537.12 1263.42 1543.67 1263.42 Q1545.43 1263.42 1547.21 1263.77 Q1549.02 1264.12 1550.96 1264.81 Z" fill="#000000" fill-rule="nonzero" fill-opacity="1" /><path clip-path="url(#clip870)" d="M1561.26 1292.73 L1566.15 1292.73 L1566.15 1298.61 L1561.26 1298.61 L1561.26 1292.73 Z" fill="#000000" fill-rule="nonzero" fill-opacity="1" /><path clip-path="url(#clip870)" d="M1586.33 1267.13 Q1582.72 1267.13 1580.89 1270.69 Q1579.09 1274.24 1579.09 1281.36 Q1579.09 1288.47 1580.89 1292.04 Q1582.72 1295.58 1586.33 1295.58 Q1589.97 1295.58 1591.77 1292.04 Q1593.6 1288.47 1593.6 1281.36 Q1593.6 1274.24 1591.77 1270.69 Q1589.97 1267.13 1586.33 1267.13 M1586.33 1263.42 Q1592.14 1263.42 1595.2 1268.03 Q1598.28 1272.61 1598.28 1281.36 Q1598.28 1290.09 1595.2 1294.7 Q1592.14 1299.28 1586.33 1299.28 Q1580.52 1299.28 1577.45 1294.7 Q1574.39 1290.09 1574.39 1281.36 Q1574.39 1272.61 1577.45 1268.03 Q1580.52 1263.42 1586.33 1263.42 Z" fill="#000000" fill-rule="nonzero" fill-opacity="1" /><path clip-path="url(#clip870)" d="M1634.67 1273.15 L1624.09 1283.77 L1634.67 1294.35 L1631.91 1297.15 L1621.29 1286.53 L1610.66 1297.15 L1607.93 1294.35 L1618.49 1283.77 L1607.93 1273.15 L1610.66 1270.35 L1621.29 1280.97 L1631.91 1270.35 L1634.67 1273.15 Z" fill="#000000" fill-rule="nonzero" fill-opacity="1" /><path clip-path="url(#clip870)" d="M1647.03 1294.67 L1654.67 1294.67 L1654.67 1268.31 L1646.36 1269.98 L1646.36 1265.72 L1654.62 1264.05 L1659.3 1264.05 L1659.3 1294.67 L1666.94 1294.67 L1666.94 1298.61 L1647.03 1298.61 L1647.03 1294.67 Z" fill="#000000" fill-rule="nonzero" fill-opacity="1" /><path clip-path="url(#clip870)" d="M1686.38 1267.13 Q1682.77 1267.13 1680.94 1270.69 Q1679.13 1274.24 1679.13 1281.36 Q1679.13 1288.47 1680.94 1292.04 Q1682.77 1295.58 1686.38 1295.58 Q1690.01 1295.58 1691.82 1292.04 Q1693.65 1288.47 1693.65 1281.36 Q1693.65 1274.24 1691.82 1270.69 Q1690.01 1267.13 1686.38 1267.13 M1686.38 1263.42 Q1692.19 1263.42 1695.25 1268.03 Q1698.32 1272.61 1698.32 1281.36 Q1698.32 1290.09 1695.25 1294.7 Q1692.19 1299.28 1686.38 1299.28 Q1680.57 1299.28 1677.49 1294.7 Q1674.44 1290.09 1674.44 1281.36 Q1674.44 1272.61 1677.49 1268.03 Q1680.57 1263.42 1686.38 1263.42 Z" fill="#000000" fill-rule="nonzero" fill-opacity="1" /><path clip-path="url(#clip870)" d="M1711 1246.43 L1701.41 1261.42 L1711 1261.42 L1711 1246.43 M1710 1243.12 L1714.78 1243.12 L1714.78 1261.42 L1718.79 1261.42 L1718.79 1264.58 L1714.78 1264.58 L1714.78 1271.2 L1711 1271.2 L1711 1264.58 L1698.32 1264.58 L1698.32 1260.91 L1710 1243.12 Z" fill="#000000" fill-rule="nonzero" fill-opacity="1" /><path clip-path="url(#clip870)" d="M1854.63 1264.05 L1876.85 1264.05 L1876.85 1266.04 L1864.3 1298.61 L1859.42 1298.61 L1871.22 1267.99 L1854.63 1267.99 L1854.63 1264.05 Z" fill="#000000" fill-rule="nonzero" fill-opacity="1" /><path clip-path="url(#clip870)" d="M1885.97 1292.73 L1890.85 1292.73 L1890.85 1298.61 L1885.97 1298.61 L1885.97 1292.73 Z" fill="#000000" fill-rule="nonzero" fill-opacity="1" /><path clip-path="url(#clip870)" d="M1911.04 1267.13 Q1907.43 1267.13 1905.6 1270.69 Q1903.79 1274.24 1903.79 1281.36 Q1903.79 1288.47 1905.6 1292.04 Q1907.43 1295.58 1911.04 1295.58 Q1914.67 1295.58 1916.48 1292.04 Q1918.31 1288.47 1918.31 1281.36 Q1918.31 1274.24 1916.48 1270.69 Q1914.67 1267.13 1911.04 1267.13 M1911.04 1263.42 Q1916.85 1263.42 1919.9 1268.03 Q1922.98 1272.61 1922.98 1281.36 Q1922.98 1290.09 1919.9 1294.7 Q1916.85 1299.28 1911.04 1299.28 Q1905.23 1299.28 1902.15 1294.7 Q1899.09 1290.09 1899.09 1281.36 Q1899.09 1272.61 1902.15 1268.03 Q1905.23 1263.42 1911.04 1263.42 Z" fill="#000000" fill-rule="nonzero" fill-opacity="1" /><path clip-path="url(#clip870)" d="M1959.37 1273.15 L1948.79 1283.77 L1959.37 1294.35 L1956.62 1297.15 L1945.99 1286.53 L1935.37 1297.15 L1932.63 1294.35 L1943.19 1283.77 L1932.63 1273.15 L1935.37 1270.35 L1945.99 1280.97 L1956.62 1270.35 L1959.37 1273.15 Z" fill="#000000" fill-rule="nonzero" fill-opacity="1" /><path clip-path="url(#clip870)" d="M1971.73 1294.67 L1979.37 1294.67 L1979.37 1268.31 L1971.06 1269.98 L1971.06 1265.72 L1979.32 1264.05 L1984 1264.05 L1984 1294.67 L1991.64 1294.67 L1991.64 1298.61 L1971.73 1298.61 L1971.73 1294.67 Z" fill="#000000" fill-rule="nonzero" fill-opacity="1" /><path clip-path="url(#clip870)" d="M2011.08 1267.13 Q2007.47 1267.13 2005.64 1270.69 Q2003.84 1274.24 2003.84 1281.36 Q2003.84 1288.47 2005.64 1292.04 Q2007.47 1295.58 2011.08 1295.58 Q2014.72 1295.58 2016.52 1292.04 Q2018.35 1288.47 2018.35 1281.36 Q2018.35 1274.24 2016.52 1270.69 Q2014.72 1267.13 2011.08 1267.13 M2011.08 1263.42 Q2016.89 1263.42 2019.95 1268.03 Q2023.03 1272.61 2023.03 1281.36 Q2023.03 1290.09 2019.95 1294.7 Q2016.89 1299.28 2011.08 1299.28 Q2005.27 1299.28 2002.19 1294.7 Q1999.14 1290.09 1999.14 1281.36 Q1999.14 1272.61 2002.19 1268.03 Q2005.27 1263.42 2011.08 1263.42 Z" fill="#000000" fill-rule="nonzero" fill-opacity="1" /><path clip-path="url(#clip870)" d="M2035.7 1246.43 L2026.11 1261.42 L2035.7 1261.42 L2035.7 1246.43 M2034.71 1243.12 L2039.48 1243.12 L2039.48 1261.42 L2043.49 1261.42 L2043.49 1264.58 L2039.48 1264.58 L2039.48 1271.2 L2035.7 1271.2 L2035.7 1264.58 L2023.03 1264.58 L2023.03 1260.91 L2034.71 1243.12 Z" fill="#000000" fill-rule="nonzero" fill-opacity="1" /><polyline clip-path="url(#clip872)" style="stroke:#000000; stroke-linecap:round; stroke-linejoin:round; stroke-width:2; stroke-opacity:0.1; fill:none" points="273.394,1189.58 2064.76,1189.58 "/>
<polyline clip-path="url(#clip872)" style="stroke:#000000; stroke-linecap:round; stroke-linejoin:round; stroke-width:2; stroke-opacity:0.1; fill:none" points="273.394,854.961 2064.76,854.961 "/>
<polyline clip-path="url(#clip872)" style="stroke:#000000; stroke-linecap:round; stroke-linejoin:round; stroke-width:2; stroke-opacity:0.1; fill:none" points="273.394,520.341 2064.76,520.341 "/>
<polyline clip-path="url(#clip872)" style="stroke:#000000; stroke-linecap:round; stroke-linejoin:round; stroke-width:2; stroke-opacity:0.1; fill:none" points="273.394,185.72 2064.76,185.72 "/>
<polyline clip-path="url(#clip870)" style="stroke:#000000; stroke-linecap:round; stroke-linejoin:round; stroke-width:4; stroke-opacity:1; fill:none" points="273.394,1222.85 273.394,47.2441 "/>
<polyline clip-path="url(#clip870)" style="stroke:#000000; stroke-linecap:round; stroke-linejoin:round; stroke-width:4; stroke-opacity:1; fill:none" points="273.394,1189.58 292.291,1189.58 "/>
<polyline clip-path="url(#clip870)" style="stroke:#000000; stroke-linecap:round; stroke-linejoin:round; stroke-width:4; stroke-opacity:1; fill:none" points="273.394,854.961 292.291,854.961 "/>
<polyline clip-path="url(#clip870)" style="stroke:#000000; stroke-linecap:round; stroke-linejoin:round; stroke-width:4; stroke-opacity:1; fill:none" points="273.394,520.341 292.291,520.341 "/>
<polyline clip-path="url(#clip870)" style="stroke:#000000; stroke-linecap:round; stroke-linejoin:round; stroke-width:4; stroke-opacity:1; fill:none" points="273.394,185.72 292.291,185.72 "/>
<path clip-path="url(#clip870)" d="M229.769 1175.38 Q226.158 1175.38 224.329 1178.95 Q222.524 1182.49 222.524 1189.62 Q222.524 1196.72 224.329 1200.29 Q226.158 1203.83 229.769 1203.83 Q233.403 1203.83 235.209 1200.29 Q237.038 1196.72 237.038 1189.62 Q237.038 1182.49 235.209 1178.95 Q233.403 1175.38 229.769 1175.38 M229.769 1171.68 Q235.579 1171.68 238.635 1176.28 Q241.714 1180.87 241.714 1189.62 Q241.714 1198.34 238.635 1202.95 Q235.579 1207.53 229.769 1207.53 Q223.959 1207.53 220.88 1202.95 Q217.825 1198.34 217.825 1189.62 Q217.825 1180.87 220.88 1176.28 Q223.959 1171.68 229.769 1171.68 Z" fill="#000000" fill-rule="nonzero" fill-opacity="1" /><path clip-path="url(#clip870)" d="M54.8395 874.754 L62.4784 874.754 L62.4784 848.388 L54.1682 850.055 L54.1682 845.795 L62.4321 844.129 L67.108 844.129 L67.108 874.754 L74.7468 874.754 L74.7468 878.689 L54.8395 878.689 L54.8395 874.754 Z" fill="#000000" fill-rule="nonzero" fill-opacity="1" /><path clip-path="url(#clip870)" d="M84.1912 872.809 L89.0754 872.809 L89.0754 878.689 L84.1912 878.689 L84.1912 872.809 Z" fill="#000000" fill-rule="nonzero" fill-opacity="1" /><path clip-path="url(#clip870)" d="M109.261 847.208 Q105.649 847.208 103.821 850.772 Q102.015 854.314 102.015 861.444 Q102.015 868.55 103.821 872.115 Q105.649 875.656 109.261 875.656 Q112.895 875.656 114.7 872.115 Q116.529 868.55 116.529 861.444 Q116.529 854.314 114.7 850.772 Q112.895 847.208 109.261 847.208 M109.261 843.504 Q115.071 843.504 118.126 848.11 Q121.205 852.694 121.205 861.444 Q121.205 870.17 118.126 874.777 Q115.071 879.36 109.261 879.36 Q103.45 879.36 100.372 874.777 Q97.3161 870.17 97.3161 861.444 Q97.3161 852.694 100.372 848.11 Q103.45 843.504 109.261 843.504 Z" fill="#000000" fill-rule="nonzero" fill-opacity="1" /><path clip-path="url(#clip870)" d="M157.594 853.226 L147.015 863.851 L157.594 874.43 L154.839 877.231 L144.214 866.606 L133.589 877.231 L130.858 874.43 L141.413 863.851 L130.858 853.226 L133.589 850.425 L144.214 861.05 L154.839 850.425 L157.594 853.226 Z" fill="#000000" fill-rule="nonzero" fill-opacity="1" /><path clip-path="url(#clip870)" d="M169.955 874.754 L177.593 874.754 L177.593 848.388 L169.283 850.055 L169.283 845.795 L177.547 844.129 L182.223 844.129 L182.223 874.754 L189.862 874.754 L189.862 878.689 L169.955 878.689 L169.955 874.754 Z" fill="#000000" fill-rule="nonzero" fill-opacity="1" /><path clip-path="url(#clip870)" d="M209.306 847.208 Q205.695 847.208 203.866 850.772 Q202.061 854.314 202.061 861.444 Q202.061 868.55 203.866 872.115 Q205.695 875.656 209.306 875.656 Q212.941 875.656 214.746 872.115 Q216.575 868.55 216.575 861.444 Q216.575 854.314 214.746 850.772 Q212.941 847.208 209.306 847.208 M209.306 843.504 Q215.116 843.504 218.172 848.11 Q221.251 852.694 221.251 861.444 Q221.251 870.17 218.172 874.777 Q215.116 879.36 209.306 879.36 Q203.496 879.36 200.417 874.777 Q197.362 870.17 197.362 861.444 Q197.362 852.694 200.417 848.11 Q203.496 843.504 209.306 843.504 Z" fill="#000000" fill-rule="nonzero" fill-opacity="1" /><path clip-path="url(#clip870)" d="M233.927 826.509 L224.335 841.498 L233.927 841.498 L233.927 826.509 M232.93 823.198 L237.707 823.198 L237.707 841.498 L241.714 841.498 L241.714 844.658 L237.707 844.658 L237.707 851.278 L233.927 851.278 L233.927 844.658 L221.251 844.658 L221.251 840.991 L232.93 823.198 Z" fill="#000000" fill-rule="nonzero" fill-opacity="1" /><path clip-path="url(#clip870)" d="M58.0571 540.133 L74.3765 540.133 L74.3765 544.068 L52.4321 544.068 L52.4321 540.133 Q55.0941 537.378 59.6775 532.749 Q64.2839 528.096 65.4645 526.753 Q67.7098 524.23 68.5894 522.494 Q69.4922 520.735 69.4922 519.045 Q69.4922 516.291 67.5478 514.554 Q65.6265 512.818 62.5247 512.818 Q60.3256 512.818 57.8719 513.582 Q55.4414 514.346 52.6636 515.897 L52.6636 511.175 Q55.4877 510.041 57.9414 509.462 Q60.395 508.883 62.4321 508.883 Q67.8024 508.883 70.9968 511.568 Q74.1913 514.253 74.1913 518.744 Q74.1913 520.874 73.3811 522.795 Q72.5941 524.693 70.4876 527.286 Q69.9089 527.957 66.807 531.175 Q63.7052 534.369 58.0571 540.133 Z" fill="#000000" fill-rule="nonzero" fill-opacity="1" /><path clip-path="url(#clip870)" d="M84.1912 538.189 L89.0754 538.189 L89.0754 544.068 L84.1912 544.068 L84.1912 538.189 Z" fill="#000000" fill-rule="nonzero" fill-opacity="1" /><path clip-path="url(#clip870)" d="M109.261 512.587 Q105.649 512.587 103.821 516.152 Q102.015 519.693 102.015 526.823 Q102.015 533.929 103.821 537.494 Q105.649 541.036 109.261 541.036 Q112.895 541.036 114.7 537.494 Q116.529 533.929 116.529 526.823 Q116.529 519.693 114.7 516.152 Q112.895 512.587 109.261 512.587 M109.261 508.883 Q115.071 508.883 118.126 513.49 Q121.205 518.073 121.205 526.823 Q121.205 535.55 118.126 540.156 Q115.071 544.739 109.261 544.739 Q103.45 544.739 100.372 540.156 Q97.3161 535.55 97.3161 526.823 Q97.3161 518.073 100.372 513.49 Q103.45 508.883 109.261 508.883 Z" fill="#000000" fill-rule="nonzero" fill-opacity="1" /><path clip-path="url(#clip870)" d="M157.594 518.605 L147.015 529.23 L157.594 539.809 L154.839 542.61 L144.214 531.985 L133.589 542.61 L130.858 539.809 L141.413 529.23 L130.858 518.605 L133.589 515.804 L144.214 526.429 L154.839 515.804 L157.594 518.605 Z" fill="#000000" fill-rule="nonzero" fill-opacity="1" /><path clip-path="url(#clip870)" d="M169.955 540.133 L177.593 540.133 L177.593 513.767 L169.283 515.434 L169.283 511.175 L177.547 509.508 L182.223 509.508 L182.223 540.133 L189.862 540.133 L189.862 544.068 L169.955 544.068 L169.955 540.133 Z" fill="#000000" fill-rule="nonzero" fill-opacity="1" /><path clip-path="url(#clip870)" d="M209.306 512.587 Q205.695 512.587 203.866 516.152 Q202.061 519.693 202.061 526.823 Q202.061 533.929 203.866 537.494 Q205.695 541.036 209.306 541.036 Q212.941 541.036 214.746 537.494 Q216.575 533.929 216.575 526.823 Q216.575 519.693 214.746 516.152 Q212.941 512.587 209.306 512.587 M209.306 508.883 Q215.116 508.883 218.172 513.49 Q221.251 518.073 221.251 526.823 Q221.251 535.55 218.172 540.156 Q215.116 544.739 209.306 544.739 Q203.496 544.739 200.417 540.156 Q197.362 535.55 197.362 526.823 Q197.362 518.073 200.417 513.49 Q203.496 508.883 209.306 508.883 Z" fill="#000000" fill-rule="nonzero" fill-opacity="1" /><path clip-path="url(#clip870)" d="M233.927 491.888 L224.335 506.878 L233.927 506.878 L233.927 491.888 M232.93 488.578 L237.707 488.578 L237.707 506.878 L241.714 506.878 L241.714 510.037 L237.707 510.037 L237.707 516.658 L233.927 516.658 L233.927 510.037 L221.251 510.037 L221.251 506.37 L232.93 488.578 Z" fill="#000000" fill-rule="nonzero" fill-opacity="1" /><path clip-path="url(#clip870)" d="M68.1959 190.813 Q71.5524 191.531 73.4274 193.799 Q75.3255 196.068 75.3255 199.401 Q75.3255 204.517 71.807 207.318 Q68.2885 210.119 61.8071 210.119 Q59.6312 210.119 57.3164 209.679 Q55.0247 209.262 52.571 208.406 L52.571 203.892 Q54.5154 205.026 56.8303 205.605 Q59.1451 206.184 61.6682 206.184 Q66.0663 206.184 68.358 204.447 Q70.6728 202.711 70.6728 199.401 Q70.6728 196.346 68.52 194.633 Q66.3904 192.897 62.571 192.897 L58.5432 192.897 L58.5432 189.054 L62.7561 189.054 Q66.2052 189.054 68.0339 187.688 Q69.8626 186.299 69.8626 183.707 Q69.8626 181.045 67.9645 179.633 Q66.0895 178.198 62.571 178.198 Q60.6497 178.198 58.4506 178.614 Q56.2515 179.031 53.6127 179.911 L53.6127 175.744 Q56.2747 175.003 58.5895 174.633 Q60.9275 174.262 62.9876 174.262 Q68.3117 174.262 71.4135 176.693 Q74.5153 179.1 74.5153 183.221 Q74.5153 186.091 72.8718 188.082 Q71.2283 190.049 68.1959 190.813 Z" fill="#000000" fill-rule="nonzero" fill-opacity="1" /><path clip-path="url(#clip870)" d="M84.1912 203.568 L89.0754 203.568 L89.0754 209.447 L84.1912 209.447 L84.1912 203.568 Z" fill="#000000" fill-rule="nonzero" fill-opacity="1" /><path clip-path="url(#clip870)" d="M109.261 177.966 Q105.649 177.966 103.821 181.531 Q102.015 185.073 102.015 192.202 Q102.015 199.309 103.821 202.873 Q105.649 206.415 109.261 206.415 Q112.895 206.415 114.7 202.873 Q116.529 199.309 116.529 192.202 Q116.529 185.073 114.7 181.531 Q112.895 177.966 109.261 177.966 M109.261 174.262 Q115.071 174.262 118.126 178.869 Q121.205 183.452 121.205 192.202 Q121.205 200.929 118.126 205.535 Q115.071 210.119 109.261 210.119 Q103.45 210.119 100.372 205.535 Q97.3161 200.929 97.3161 192.202 Q97.3161 183.452 100.372 178.869 Q103.45 174.262 109.261 174.262 Z" fill="#000000" fill-rule="nonzero" fill-opacity="1" /><path clip-path="url(#clip870)" d="M157.594 183.985 L147.015 194.61 L157.594 205.188 L154.839 207.989 L144.214 197.364 L133.589 207.989 L130.858 205.188 L141.413 194.61 L130.858 183.985 L133.589 181.184 L144.214 191.809 L154.839 181.184 L157.594 183.985 Z" fill="#000000" fill-rule="nonzero" fill-opacity="1" /><path clip-path="url(#clip870)" d="M169.955 205.512 L177.593 205.512 L177.593 179.147 L169.283 180.813 L169.283 176.554 L177.547 174.887 L182.223 174.887 L182.223 205.512 L189.862 205.512 L189.862 209.447 L169.955 209.447 L169.955 205.512 Z" fill="#000000" fill-rule="nonzero" fill-opacity="1" /><path clip-path="url(#clip870)" d="M209.306 177.966 Q205.695 177.966 203.866 181.531 Q202.061 185.073 202.061 192.202 Q202.061 199.309 203.866 202.873 Q205.695 206.415 209.306 206.415 Q212.941 206.415 214.746 202.873 Q216.575 199.309 216.575 192.202 Q216.575 185.073 214.746 181.531 Q212.941 177.966 209.306 177.966 M209.306 174.262 Q215.116 174.262 218.172 178.869 Q221.251 183.452 221.251 192.202 Q221.251 200.929 218.172 205.535 Q215.116 210.119 209.306 210.119 Q203.496 210.119 200.417 205.535 Q197.362 200.929 197.362 192.202 Q197.362 183.452 200.417 178.869 Q203.496 174.262 209.306 174.262 Z" fill="#000000" fill-rule="nonzero" fill-opacity="1" /><path clip-path="url(#clip870)" d="M233.927 157.267 L224.335 172.257 L233.927 172.257 L233.927 157.267 M232.93 153.957 L237.707 153.957 L237.707 172.257 L241.714 172.257 L241.714 175.417 L237.707 175.417 L237.707 182.037 L233.927 182.037 L233.927 175.417 L221.251 175.417 L221.251 171.749 L232.93 153.957 Z" fill="#000000" fill-rule="nonzero" fill-opacity="1" /><polyline clip-path="url(#clip872)" style="stroke:#009af9; stroke-linecap:round; stroke-linejoin:round; stroke-width:4; stroke-opacity:1; fill:none" points="324.092,80.5161 356.592,81.1761 389.091,84.5929 421.59,92.0077 454.09,100.236 486.589,115.012 519.088,136.01 551.588,160.607 584.087,200.582 616.586,246.309 649.086,304.043 681.585,373.327 714.084,456.135 746.584,540.143 779.083,630.882 811.582,723.056 844.082,806.762 876.581,884.167 909.08,956.403 941.579,1012.33 974.079,1062.85 1006.58,1101 1039.08,1130.55 1071.58,1149.85 1104.08,1166.47 1136.58,1174.92 1169.07,1181.22 1201.57,1184.82 1234.07,1187.18 1266.57,1188 1299.07,1188.89 1331.57,1189.41 1364.07,1189.44 1396.57,1189.56 1429.07,1189.56 1461.57,1189.58 1494.07,1189.58 1526.57,1189.58 1559.07,1189.58 1591.57,1189.58 1624.07,1189.58 1656.56,1189.58 1689.06,1189.58 1721.56,1189.58 1754.06,1189.58 1786.56,1189.58 1819.06,1189.58 1851.56,1189.58 1884.06,1189.58 1916.56,1189.58 1949.06,1189.58 1981.56,1189.58 2014.06,1189.58 "/>
<path clip-path="url(#clip870)" d="M1773.48 190.111 L2005.04 190.111 L2005.04 86.4311 L1773.48 86.4311  Z" fill="#ffffff" fill-rule="evenodd" fill-opacity="1"/>
<polyline clip-path="url(#clip870)" style="stroke:#000000; stroke-linecap:round; stroke-linejoin:round; stroke-width:4; stroke-opacity:1; fill:none" points="1773.48,190.111 2005.04,190.111 2005.04,86.4311 1773.48,86.4311 1773.48,190.111 "/>
<polyline clip-path="url(#clip870)" style="stroke:#009af9; stroke-linecap:round; stroke-linejoin:round; stroke-width:4; stroke-opacity:1; fill:none" points="1793.38,138.271 1912.81,138.271 "/>
<path clip-path="url(#clip870)" d="M1946.55 157.958 Q1944.75 162.588 1943.03 164 Q1941.32 165.412 1938.45 165.412 L1935.05 165.412 L1935.05 161.847 L1937.55 161.847 Q1939.31 161.847 1940.28 161.014 Q1941.25 160.181 1942.43 157.079 L1943.2 155.134 L1932.71 129.625 L1937.22 129.625 L1945.33 149.903 L1953.43 129.625 L1957.94 129.625 L1946.55 157.958 Z" fill="#000000" fill-rule="nonzero" fill-opacity="1" /><path clip-path="url(#clip870)" d="M1965.23 151.616 L1972.87 151.616 L1972.87 125.25 L1964.56 126.917 L1964.56 122.658 L1972.83 120.991 L1977.5 120.991 L1977.5 151.616 L1985.14 151.616 L1985.14 155.551 L1965.23 155.551 L1965.23 151.616 Z" fill="#000000" fill-rule="nonzero" fill-opacity="1" /></svg>
