<?xml version="1.0" encoding="utf-8"?>
<svg xmlns="http://www.w3.org/2000/svg" xmlns:xlink="http://www.w3.org/1999/xlink" width="600" height="400" viewBox="0 0 2400 1600">
<defs>
  <clipPath id="clip820">
    <rect x="0" y="0" width="2400" height="1600"/>
  </clipPath>
</defs>
<path clip-path="url(#clip820)" d="
M0 1600 L2400 1600 L2400 0 L0 0  Z
  " fill="#ffffff" fill-rule="evenodd" fill-opacity="1"/>
<defs>
  <clipPath id="clip821">
    <rect x="480" y="0" width="1681" height="1600"/>
  </clipPath>
</defs>
<path clip-path="url(#clip820)" d="
M232.389 1423.18 L2352.76 1423.18 L2352.76 47.2441 L232.389 47.2441  Z
  " fill="#ffffff" fill-rule="evenodd" fill-opacity="1"/>
<defs>
  <clipPath id="clip822">
    <rect x="232" y="47" width="2121" height="1377"/>
  </clipPath>
</defs>
<polyline clip-path="url(#clip822)" style="stroke:#000000; stroke-linecap:round; stroke-linejoin:round; stroke-width:2; stroke-opacity:0.1; fill:none" points="
  466.958,1423.18 466.958,47.2441 
  "/>
<polyline clip-path="url(#clip822)" style="stroke:#000000; stroke-linecap:round; stroke-linejoin:round; stroke-width:2; stroke-opacity:0.1; fill:none" points="
  938.738,1423.18 938.738,47.2441 
  "/>
<polyline clip-path="url(#clip822)" style="stroke:#000000; stroke-linecap:round; stroke-linejoin:round; stroke-width:2; stroke-opacity:0.1; fill:none" points="
  1410.52,1423.18 1410.52,47.2441 
  "/>
<polyline clip-path="url(#clip822)" style="stroke:#000000; stroke-linecap:round; stroke-linejoin:round; stroke-width:2; stroke-opacity:0.1; fill:none" points="
  1882.3,1423.18 1882.3,47.2441 
  "/>
<polyline clip-path="url(#clip820)" style="stroke:#000000; stroke-linecap:round; stroke-linejoin:round; stroke-width:4; stroke-opacity:1; fill:none" points="
  232.389,1423.18 2352.76,1423.18 
  "/>
<polyline clip-path="url(#clip820)" style="stroke:#000000; stroke-linecap:round; stroke-linejoin:round; stroke-width:4; stroke-opacity:1; fill:none" points="
  466.958,1423.18 466.958,1404.28 
  "/>
<polyline clip-path="url(#clip820)" style="stroke:#000000; stroke-linecap:round; stroke-linejoin:round; stroke-width:4; stroke-opacity:1; fill:none" points="
  938.738,1423.18 938.738,1404.28 
  "/>
<polyline clip-path="url(#clip820)" style="stroke:#000000; stroke-linecap:round; stroke-linejoin:round; stroke-width:4; stroke-opacity:1; fill:none" points="
  1410.52,1423.18 1410.52,1404.28 
  "/>
<polyline clip-path="url(#clip820)" style="stroke:#000000; stroke-linecap:round; stroke-linejoin:round; stroke-width:4; stroke-opacity:1; fill:none" points="
  1882.3,1423.18 1882.3,1404.28 
  "/>
<path clip-path="url(#clip820)" d="M445.141 1454.1 Q441.53 1454.1 439.701 1457.66 Q437.896 1461.2 437.896 1468.33 Q437.896 1475.44 439.701 1479.01 Q441.53 1482.55 445.141 1482.55 Q448.775 1482.55 450.581 1479.01 Q452.41 1475.44 452.41 1468.33 Q452.41 1461.2 450.581 1457.66 Q448.775 1454.1 445.141 1454.1 M445.141 1450.39 Q450.951 1450.39 454.007 1455 Q457.086 1459.58 457.086 1468.33 Q457.086 1477.06 454.007 1481.67 Q450.951 1486.25 445.141 1486.25 Q439.331 1486.25 436.252 1481.67 Q433.197 1477.06 433.197 1468.33 Q433.197 1459.58 436.252 1455 Q439.331 1450.39 445.141 1450.39 Z" fill="#000000" fill-rule="evenodd" fill-opacity="1" /><path clip-path="url(#clip820)" d="M465.303 1479.7 L470.187 1479.7 L470.187 1485.58 L465.303 1485.58 L465.303 1479.7 Z" fill="#000000" fill-rule="evenodd" fill-opacity="1" /><path clip-path="url(#clip820)" d="M484.4 1481.64 L500.72 1481.64 L500.72 1485.58 L478.775 1485.58 L478.775 1481.64 Q481.437 1478.89 486.021 1474.26 Q490.627 1469.61 491.808 1468.27 Q494.053 1465.74 494.933 1464.01 Q495.835 1462.25 495.835 1460.56 Q495.835 1457.8 493.891 1456.07 Q491.97 1454.33 488.868 1454.33 Q486.669 1454.33 484.215 1455.09 Q481.785 1455.86 479.007 1457.41 L479.007 1452.69 Q481.831 1451.55 484.284 1450.97 Q486.738 1450.39 488.775 1450.39 Q494.146 1450.39 497.34 1453.08 Q500.534 1455.77 500.534 1460.26 Q500.534 1462.39 499.724 1464.31 Q498.937 1466.2 496.831 1468.8 Q496.252 1469.47 493.15 1472.69 Q490.048 1475.88 484.4 1481.64 Z" fill="#000000" fill-rule="evenodd" fill-opacity="1" /><path clip-path="url(#clip820)" d="M915.879 1454.1 Q912.268 1454.1 910.439 1457.66 Q908.634 1461.2 908.634 1468.33 Q908.634 1475.44 910.439 1479.01 Q912.268 1482.55 915.879 1482.55 Q919.513 1482.55 921.319 1479.01 Q923.148 1475.44 923.148 1468.33 Q923.148 1461.2 921.319 1457.66 Q919.513 1454.1 915.879 1454.1 M915.879 1450.39 Q921.689 1450.39 924.745 1455 Q927.824 1459.58 927.824 1468.33 Q927.824 1477.06 924.745 1481.67 Q921.689 1486.25 915.879 1486.25 Q910.069 1486.25 906.99 1481.67 Q903.935 1477.06 903.935 1468.33 Q903.935 1459.58 906.99 1455 Q910.069 1450.39 915.879 1450.39 Z" fill="#000000" fill-rule="evenodd" fill-opacity="1" /><path clip-path="url(#clip820)" d="M936.041 1479.7 L940.925 1479.7 L940.925 1485.58 L936.041 1485.58 L936.041 1479.7 Z" fill="#000000" fill-rule="evenodd" fill-opacity="1" /><path clip-path="url(#clip820)" d="M963.958 1455.09 L952.152 1473.54 L963.958 1473.54 L963.958 1455.09 M962.731 1451.02 L968.61 1451.02 L968.61 1473.54 L973.541 1473.54 L973.541 1477.43 L968.61 1477.43 L968.61 1485.58 L963.958 1485.58 L963.958 1477.43 L948.356 1477.43 L948.356 1472.92 L962.731 1451.02 Z" fill="#000000" fill-rule="evenodd" fill-opacity="1" /><path clip-path="url(#clip820)" d="M1387.82 1454.1 Q1384.21 1454.1 1382.38 1457.66 Q1380.58 1461.2 1380.58 1468.33 Q1380.58 1475.44 1382.38 1479.01 Q1384.21 1482.55 1387.82 1482.55 Q1391.46 1482.55 1393.26 1479.01 Q1395.09 1475.44 1395.09 1468.33 Q1395.09 1461.2 1393.26 1457.66 Q1391.46 1454.1 1387.82 1454.1 M1387.82 1450.39 Q1393.63 1450.39 1396.69 1455 Q1399.77 1459.58 1399.77 1468.33 Q1399.77 1477.06 1396.69 1481.67 Q1393.63 1486.25 1387.82 1486.25 Q1382.01 1486.25 1378.93 1481.67 Q1375.88 1477.06 1375.88 1468.33 Q1375.88 1459.58 1378.93 1455 Q1382.01 1450.39 1387.82 1450.39 Z" fill="#000000" fill-rule="evenodd" fill-opacity="1" /><path clip-path="url(#clip820)" d="M1407.98 1479.7 L1412.87 1479.7 L1412.87 1485.58 L1407.98 1485.58 L1407.98 1479.7 Z" fill="#000000" fill-rule="evenodd" fill-opacity="1" /><path clip-path="url(#clip820)" d="M1433.63 1466.44 Q1430.48 1466.44 1428.63 1468.59 Q1426.8 1470.74 1426.8 1474.49 Q1426.8 1478.22 1428.63 1480.39 Q1430.48 1482.55 1433.63 1482.55 Q1436.78 1482.55 1438.61 1480.39 Q1440.46 1478.22 1440.46 1474.49 Q1440.46 1470.74 1438.61 1468.59 Q1436.78 1466.44 1433.63 1466.44 M1442.91 1451.78 L1442.91 1456.04 Q1441.15 1455.21 1439.35 1454.77 Q1437.57 1454.33 1435.81 1454.33 Q1431.18 1454.33 1428.72 1457.45 Q1426.29 1460.58 1425.95 1466.9 Q1427.31 1464.89 1429.37 1463.82 Q1431.43 1462.73 1433.91 1462.73 Q1439.12 1462.73 1442.13 1465.9 Q1445.16 1469.05 1445.16 1474.49 Q1445.16 1479.82 1442.01 1483.03 Q1438.86 1486.25 1433.63 1486.25 Q1427.64 1486.25 1424.46 1481.67 Q1421.29 1477.06 1421.29 1468.33 Q1421.29 1460.14 1425.18 1455.28 Q1429.07 1450.39 1435.62 1450.39 Q1437.38 1450.39 1439.16 1450.74 Q1440.97 1451.09 1442.91 1451.78 Z" fill="#000000" fill-rule="evenodd" fill-opacity="1" /><path clip-path="url(#clip820)" d="M1859.73 1454.1 Q1856.12 1454.1 1854.29 1457.66 Q1852.48 1461.2 1852.48 1468.33 Q1852.48 1475.44 1854.29 1479.01 Q1856.12 1482.55 1859.73 1482.55 Q1863.36 1482.55 1865.17 1479.01 Q1867 1475.44 1867 1468.33 Q1867 1461.2 1865.17 1457.66 Q1863.36 1454.1 1859.73 1454.1 M1859.73 1450.39 Q1865.54 1450.39 1868.59 1455 Q1871.67 1459.58 1871.67 1468.33 Q1871.67 1477.06 1868.59 1481.67 Q1865.54 1486.25 1859.73 1486.25 Q1853.92 1486.25 1850.84 1481.67 Q1847.78 1477.06 1847.78 1468.33 Q1847.78 1459.58 1850.84 1455 Q1853.92 1450.39 1859.73 1450.39 Z" fill="#000000" fill-rule="evenodd" fill-opacity="1" /><path clip-path="url(#clip820)" d="M1879.89 1479.7 L1884.77 1479.7 L1884.77 1485.58 L1879.89 1485.58 L1879.89 1479.7 Z" fill="#000000" fill-rule="evenodd" fill-opacity="1" /><path clip-path="url(#clip820)" d="M1904.96 1469.17 Q1901.63 1469.17 1899.7 1470.95 Q1897.81 1472.73 1897.81 1475.86 Q1897.81 1478.98 1899.7 1480.77 Q1901.63 1482.55 1904.96 1482.55 Q1908.29 1482.55 1910.21 1480.77 Q1912.14 1478.96 1912.14 1475.86 Q1912.14 1472.73 1910.21 1470.95 Q1908.32 1469.17 1904.96 1469.17 M1900.28 1467.18 Q1897.27 1466.44 1895.58 1464.38 Q1893.92 1462.32 1893.92 1459.35 Q1893.92 1455.21 1896.86 1452.8 Q1899.82 1450.39 1904.96 1450.39 Q1910.12 1450.39 1913.06 1452.8 Q1916 1455.21 1916 1459.35 Q1916 1462.32 1914.31 1464.38 Q1912.64 1466.44 1909.66 1467.18 Q1913.04 1467.96 1914.91 1470.26 Q1916.81 1472.55 1916.81 1475.86 Q1916.81 1480.88 1913.73 1483.57 Q1910.68 1486.25 1904.96 1486.25 Q1899.24 1486.25 1896.16 1483.57 Q1893.11 1480.88 1893.11 1475.86 Q1893.11 1472.55 1895.01 1470.26 Q1896.9 1467.96 1900.28 1467.18 M1898.57 1459.79 Q1898.57 1462.48 1900.24 1463.98 Q1901.93 1465.49 1904.96 1465.49 Q1907.97 1465.49 1909.66 1463.98 Q1911.37 1462.48 1911.37 1459.79 Q1911.37 1457.11 1909.66 1455.6 Q1907.97 1454.1 1904.96 1454.1 Q1901.93 1454.1 1900.24 1455.6 Q1898.57 1457.11 1898.57 1459.79 Z" fill="#000000" fill-rule="evenodd" fill-opacity="1" /><path clip-path="url(#clip820)" d="M981.29 1525.81 L981.29 1543.66 L989.374 1543.66 Q993.862 1543.66 996.313 1541.34 Q998.763 1539.02 998.763 1534.72 Q998.763 1530.45 996.313 1528.13 Q993.862 1525.81 989.374 1525.81 L981.29 1525.81 M974.86 1520.52 L989.374 1520.52 Q997.363 1520.52 1001.44 1524.15 Q1005.54 1527.75 1005.54 1534.72 Q1005.54 1541.75 1001.44 1545.35 Q997.363 1548.95 989.374 1548.95 L981.29 1548.95 L981.29 1568.04 L974.86 1568.04 L974.86 1520.52 Z" fill="#000000" fill-rule="evenodd" fill-opacity="1" /><path clip-path="url(#clip820)" d="M1033.42 1537.87 Q1032.44 1537.3 1031.26 1537.04 Q1030.11 1536.76 1028.71 1536.76 Q1023.75 1536.76 1021.08 1540 Q1018.43 1543.22 1018.43 1549.27 L1018.43 1568.04 L1012.55 1568.04 L1012.55 1532.4 L1018.43 1532.4 L1018.43 1537.93 Q1020.28 1534.69 1023.24 1533.13 Q1026.2 1531.54 1030.43 1531.54 Q1031.04 1531.54 1031.77 1531.63 Q1032.5 1531.7 1033.39 1531.85 L1033.42 1537.87 Z" fill="#000000" fill-rule="evenodd" fill-opacity="1" /><path clip-path="url(#clip820)" d="M1051.95 1536.5 Q1047.24 1536.5 1044.5 1540.19 Q1041.76 1543.85 1041.76 1550.25 Q1041.76 1556.65 1044.47 1560.34 Q1047.21 1564 1051.95 1564 Q1056.63 1564 1059.36 1560.31 Q1062.1 1556.62 1062.1 1550.25 Q1062.1 1543.92 1059.36 1540.23 Q1056.63 1536.5 1051.95 1536.5 M1051.95 1531.54 Q1059.59 1531.54 1063.95 1536.5 Q1068.31 1541.47 1068.31 1550.25 Q1068.31 1559 1063.95 1564 Q1059.59 1568.97 1051.95 1568.97 Q1044.28 1568.97 1039.92 1564 Q1035.59 1559 1035.59 1550.25 Q1035.59 1541.47 1039.92 1536.5 Q1044.28 1531.54 1051.95 1531.54 Z" fill="#000000" fill-rule="evenodd" fill-opacity="1" /><path clip-path="url(#clip820)" d="M1083.68 1562.7 L1083.68 1581.6 L1077.79 1581.6 L1077.79 1532.4 L1083.68 1532.4 L1083.68 1537.81 Q1085.53 1534.62 1088.33 1533.1 Q1091.16 1531.54 1095.08 1531.54 Q1101.57 1531.54 1105.61 1536.69 Q1109.69 1541.85 1109.69 1550.25 Q1109.69 1558.65 1105.61 1563.81 Q1101.57 1568.97 1095.08 1568.97 Q1091.16 1568.97 1088.33 1567.44 Q1085.53 1565.88 1083.68 1562.7 M1103.61 1550.25 Q1103.61 1543.79 1100.93 1540.13 Q1098.29 1536.44 1093.64 1536.44 Q1089 1536.44 1086.32 1540.13 Q1083.68 1543.79 1083.68 1550.25 Q1083.68 1556.71 1086.32 1560.4 Q1089 1564.07 1093.64 1564.07 Q1098.29 1564.07 1100.93 1560.4 Q1103.61 1556.71 1103.61 1550.25 Z" fill="#000000" fill-rule="evenodd" fill-opacity="1" /><path clip-path="url(#clip820)" d="M1133.21 1536.5 Q1128.5 1536.5 1125.76 1540.19 Q1123.02 1543.85 1123.02 1550.25 Q1123.02 1556.65 1125.73 1560.34 Q1128.46 1564 1133.21 1564 Q1137.89 1564 1140.62 1560.31 Q1143.36 1556.62 1143.36 1550.25 Q1143.36 1543.92 1140.62 1540.23 Q1137.89 1536.5 1133.21 1536.5 M1133.21 1531.54 Q1140.85 1531.54 1145.21 1536.5 Q1149.57 1541.47 1149.57 1550.25 Q1149.57 1559 1145.21 1564 Q1140.85 1568.97 1133.21 1568.97 Q1125.54 1568.97 1121.18 1564 Q1116.85 1559 1116.85 1550.25 Q1116.85 1541.47 1121.18 1536.5 Q1125.54 1531.54 1133.21 1531.54 Z" fill="#000000" fill-rule="evenodd" fill-opacity="1" /><path clip-path="url(#clip820)" d="M1179.93 1537.87 Q1178.94 1537.3 1177.77 1537.04 Q1176.62 1536.76 1175.22 1536.76 Q1170.26 1536.76 1167.58 1540 Q1164.94 1543.22 1164.94 1549.27 L1164.94 1568.04 L1159.05 1568.04 L1159.05 1532.4 L1164.94 1532.4 L1164.94 1537.93 Q1166.79 1534.69 1169.75 1533.13 Q1172.71 1531.54 1176.94 1531.54 Q1177.54 1531.54 1178.28 1531.63 Q1179.01 1531.7 1179.9 1531.85 L1179.93 1537.87 Z" fill="#000000" fill-rule="evenodd" fill-opacity="1" /><path clip-path="url(#clip820)" d="M1191.87 1522.27 L1191.87 1532.4 L1203.93 1532.4 L1203.93 1536.95 L1191.87 1536.95 L1191.87 1556.3 Q1191.87 1560.66 1193.04 1561.9 Q1194.25 1563.14 1197.91 1563.14 L1203.93 1563.14 L1203.93 1568.04 L1197.91 1568.04 Q1191.14 1568.04 1188.56 1565.53 Q1185.98 1562.98 1185.98 1556.3 L1185.98 1536.95 L1181.68 1536.95 L1181.68 1532.4 L1185.98 1532.4 L1185.98 1522.27 L1191.87 1522.27 Z" fill="#000000" fill-rule="evenodd" fill-opacity="1" /><path clip-path="url(#clip820)" d="M1211.63 1532.4 L1217.49 1532.4 L1217.49 1568.04 L1211.63 1568.04 L1211.63 1532.4 M1211.63 1518.52 L1217.49 1518.52 L1217.49 1525.93 L1211.63 1525.93 L1211.63 1518.52 Z" fill="#000000" fill-rule="evenodd" fill-opacity="1" /><path clip-path="url(#clip820)" d="M1243.56 1536.5 Q1238.85 1536.5 1236.11 1540.19 Q1233.37 1543.85 1233.37 1550.25 Q1233.37 1556.65 1236.08 1560.34 Q1238.81 1564 1243.56 1564 Q1248.24 1564 1250.97 1560.31 Q1253.71 1556.62 1253.71 1550.25 Q1253.71 1543.92 1250.97 1540.23 Q1248.24 1536.5 1243.56 1536.5 M1243.56 1531.54 Q1251.2 1531.54 1255.56 1536.5 Q1259.92 1541.47 1259.92 1550.25 Q1259.92 1559 1255.56 1564 Q1251.2 1568.97 1243.56 1568.97 Q1235.89 1568.97 1231.53 1564 Q1227.2 1559 1227.2 1550.25 Q1227.2 1541.47 1231.53 1536.5 Q1235.89 1531.54 1243.56 1531.54 Z" fill="#000000" fill-rule="evenodd" fill-opacity="1" /><path clip-path="url(#clip820)" d="M1299.26 1546.53 L1299.26 1568.04 L1293.4 1568.04 L1293.4 1546.72 Q1293.4 1541.66 1291.43 1539.14 Q1289.45 1536.63 1285.51 1536.63 Q1280.76 1536.63 1278.03 1539.65 Q1275.29 1542.68 1275.29 1547.9 L1275.29 1568.04 L1269.4 1568.04 L1269.4 1532.4 L1275.29 1532.4 L1275.29 1537.93 Q1277.39 1534.72 1280.22 1533.13 Q1283.09 1531.54 1286.81 1531.54 Q1292.95 1531.54 1296.11 1535.36 Q1299.26 1539.14 1299.26 1546.53 Z" fill="#000000" fill-rule="evenodd" fill-opacity="1" /><path clip-path="url(#clip820)" d="M1345.47 1536.5 Q1340.76 1536.5 1338.02 1540.19 Q1335.29 1543.85 1335.29 1550.25 Q1335.29 1556.65 1337.99 1560.34 Q1340.73 1564 1345.47 1564 Q1350.15 1564 1352.89 1560.31 Q1355.62 1556.62 1355.62 1550.25 Q1355.62 1543.92 1352.89 1540.23 Q1350.15 1536.5 1345.47 1536.5 M1345.47 1531.54 Q1353.11 1531.54 1357.47 1536.5 Q1361.83 1541.47 1361.83 1550.25 Q1361.83 1559 1357.47 1564 Q1353.11 1568.97 1345.47 1568.97 Q1337.8 1568.97 1333.44 1564 Q1329.11 1559 1329.11 1550.25 Q1329.11 1541.47 1333.44 1536.5 Q1337.8 1531.54 1345.47 1531.54 Z" fill="#000000" fill-rule="evenodd" fill-opacity="1" /><path clip-path="url(#clip820)" d="M1389.59 1518.52 L1389.59 1523.39 L1383.98 1523.39 Q1380.83 1523.39 1379.59 1524.66 Q1378.38 1525.93 1378.38 1529.24 L1378.38 1532.4 L1388.03 1532.4 L1388.03 1536.95 L1378.38 1536.95 L1378.38 1568.04 L1372.49 1568.04 L1372.49 1536.95 L1366.89 1536.95 L1366.89 1532.4 L1372.49 1532.4 L1372.49 1529.91 Q1372.49 1523.96 1375.26 1521.26 Q1378.03 1518.52 1384.05 1518.52 L1389.59 1518.52 Z" fill="#000000" fill-rule="evenodd" fill-opacity="1" /><path clip-path="url(#clip820)" d="M1415.46 1520.52 L1421.89 1520.52 L1421.89 1540 L1445.25 1540 L1445.25 1520.52 L1451.68 1520.52 L1451.68 1568.04 L1445.25 1568.04 L1445.25 1545.41 L1421.89 1545.41 L1421.89 1568.04 L1415.46 1568.04 L1415.46 1520.52 Z" fill="#000000" fill-rule="evenodd" fill-opacity="1" /><path clip-path="url(#clip820)" d="M1494.72 1548.76 L1494.72 1551.62 L1467.79 1551.62 Q1468.17 1557.67 1471.42 1560.85 Q1474.7 1564 1480.52 1564 Q1483.89 1564 1487.04 1563.17 Q1490.23 1562.35 1493.35 1560.69 L1493.35 1566.23 Q1490.2 1567.57 1486.89 1568.27 Q1483.58 1568.97 1480.17 1568.97 Q1471.64 1568.97 1466.64 1564 Q1461.68 1559.04 1461.68 1550.57 Q1461.68 1541.82 1466.39 1536.69 Q1471.13 1531.54 1479.15 1531.54 Q1486.34 1531.54 1490.51 1536.18 Q1494.72 1540.8 1494.72 1548.76 M1488.86 1547.04 Q1488.8 1542.23 1486.15 1539.37 Q1483.54 1536.5 1479.22 1536.5 Q1474.31 1536.5 1471.35 1539.27 Q1468.43 1542.04 1467.98 1547.07 L1488.86 1547.04 Z" fill="#000000" fill-rule="evenodd" fill-opacity="1" /><path clip-path="url(#clip820)" d="M1520.53 1550.12 Q1513.43 1550.12 1510.69 1551.75 Q1507.96 1553.37 1507.96 1557.29 Q1507.96 1560.4 1509.99 1562.25 Q1512.06 1564.07 1515.6 1564.07 Q1520.46 1564.07 1523.39 1560.63 Q1526.35 1557.16 1526.35 1551.43 L1526.35 1550.12 L1520.53 1550.12 M1532.21 1547.71 L1532.21 1568.04 L1526.35 1568.04 L1526.35 1562.63 Q1524.35 1565.88 1521.36 1567.44 Q1518.36 1568.97 1514.04 1568.97 Q1508.56 1568.97 1505.31 1565.91 Q1502.1 1562.82 1502.1 1557.67 Q1502.1 1551.65 1506.11 1548.6 Q1510.15 1545.54 1518.14 1545.54 L1526.35 1545.54 L1526.35 1544.97 Q1526.35 1540.93 1523.68 1538.73 Q1521.04 1536.5 1516.23 1536.5 Q1513.18 1536.5 1510.28 1537.23 Q1507.38 1537.97 1504.71 1539.43 L1504.71 1534.02 Q1507.92 1532.78 1510.95 1532.17 Q1513.97 1531.54 1516.84 1531.54 Q1524.57 1531.54 1528.39 1535.55 Q1532.21 1539.56 1532.21 1547.71 Z" fill="#000000" fill-rule="evenodd" fill-opacity="1" /><path clip-path="url(#clip820)" d="M1567.73 1537.81 L1567.73 1518.52 L1573.59 1518.52 L1573.59 1568.04 L1567.73 1568.04 L1567.73 1562.7 Q1565.88 1565.88 1563.05 1567.44 Q1560.25 1568.97 1556.3 1568.97 Q1549.84 1568.97 1545.77 1563.81 Q1541.73 1558.65 1541.73 1550.25 Q1541.73 1541.85 1545.77 1536.69 Q1549.84 1531.54 1556.3 1531.54 Q1560.25 1531.54 1563.05 1533.1 Q1565.88 1534.62 1567.73 1537.81 M1547.77 1550.25 Q1547.77 1556.71 1550.42 1560.4 Q1553.09 1564.07 1557.74 1564.07 Q1562.38 1564.07 1565.06 1560.4 Q1567.73 1556.71 1567.73 1550.25 Q1567.73 1543.79 1565.06 1540.13 Q1562.38 1536.44 1557.74 1536.44 Q1553.09 1536.44 1550.42 1540.13 Q1547.77 1543.79 1547.77 1550.25 Z" fill="#000000" fill-rule="evenodd" fill-opacity="1" /><path clip-path="url(#clip820)" d="M1608.38 1533.45 L1608.38 1538.98 Q1605.89 1537.71 1603.22 1537.07 Q1600.55 1536.44 1597.68 1536.44 Q1593.32 1536.44 1591.12 1537.77 Q1588.96 1539.11 1588.96 1541.79 Q1588.96 1543.82 1590.52 1545 Q1592.08 1546.15 1596.79 1547.2 L1598.79 1547.64 Q1605.03 1548.98 1607.64 1551.43 Q1610.29 1553.85 1610.29 1558.21 Q1610.29 1563.17 1606.34 1566.07 Q1602.42 1568.97 1595.55 1568.97 Q1592.68 1568.97 1589.56 1568.39 Q1586.48 1567.85 1583.04 1566.74 L1583.04 1560.69 Q1586.29 1562.38 1589.44 1563.24 Q1592.59 1564.07 1595.68 1564.07 Q1599.81 1564.07 1602.04 1562.66 Q1604.27 1561.23 1604.27 1558.65 Q1604.27 1556.27 1602.65 1554.99 Q1601.05 1553.72 1595.61 1552.54 L1593.58 1552.07 Q1588.13 1550.92 1585.71 1548.56 Q1583.29 1546.18 1583.29 1542.04 Q1583.29 1537.01 1586.86 1534.27 Q1590.42 1531.54 1596.98 1531.54 Q1600.23 1531.54 1603.09 1532.01 Q1605.96 1532.49 1608.38 1533.45 Z" fill="#000000" fill-rule="evenodd" fill-opacity="1" /><polyline clip-path="url(#clip822)" style="stroke:#000000; stroke-linecap:round; stroke-linejoin:round; stroke-width:2; stroke-opacity:0.1; fill:none" points="
  232.389,1384.24 2352.76,1384.24 
  "/>
<polyline clip-path="url(#clip822)" style="stroke:#000000; stroke-linecap:round; stroke-linejoin:round; stroke-width:2; stroke-opacity:0.1; fill:none" points="
  232.389,1031.51 2352.76,1031.51 
  "/>
<polyline clip-path="url(#clip822)" style="stroke:#000000; stroke-linecap:round; stroke-linejoin:round; stroke-width:2; stroke-opacity:0.1; fill:none" points="
  232.389,678.775 2352.76,678.775 
  "/>
<polyline clip-path="url(#clip822)" style="stroke:#000000; stroke-linecap:round; stroke-linejoin:round; stroke-width:2; stroke-opacity:0.1; fill:none" points="
  232.389,326.043 2352.76,326.043 
  "/>
<polyline clip-path="url(#clip820)" style="stroke:#000000; stroke-linecap:round; stroke-linejoin:round; stroke-width:4; stroke-opacity:1; fill:none" points="
  232.389,1423.18 232.389,47.2441 
  "/>
<polyline clip-path="url(#clip820)" style="stroke:#000000; stroke-linecap:round; stroke-linejoin:round; stroke-width:4; stroke-opacity:1; fill:none" points="
  232.389,1384.24 251.287,1384.24 
  "/>
<polyline clip-path="url(#clip820)" style="stroke:#000000; stroke-linecap:round; stroke-linejoin:round; stroke-width:4; stroke-opacity:1; fill:none" points="
  232.389,1031.51 251.287,1031.51 
  "/>
<polyline clip-path="url(#clip820)" style="stroke:#000000; stroke-linecap:round; stroke-linejoin:round; stroke-width:4; stroke-opacity:1; fill:none" points="
  232.389,678.775 251.287,678.775 
  "/>
<polyline clip-path="url(#clip820)" style="stroke:#000000; stroke-linecap:round; stroke-linejoin:round; stroke-width:4; stroke-opacity:1; fill:none" points="
  232.389,326.043 251.287,326.043 
  "/>
<path clip-path="url(#clip820)" d="M184.445 1370.04 Q180.834 1370.04 179.005 1373.6 Q177.2 1377.14 177.2 1384.27 Q177.2 1391.38 179.005 1394.94 Q180.834 1398.49 184.445 1398.49 Q188.079 1398.49 189.885 1394.94 Q191.713 1391.38 191.713 1384.27 Q191.713 1377.14 189.885 1373.6 Q188.079 1370.04 184.445 1370.04 M184.445 1366.33 Q190.255 1366.33 193.311 1370.94 Q196.389 1375.52 196.389 1384.27 Q196.389 1393 193.311 1397.61 Q190.255 1402.19 184.445 1402.19 Q178.635 1402.19 175.556 1397.61 Q172.501 1393 172.501 1384.27 Q172.501 1375.52 175.556 1370.94 Q178.635 1366.33 184.445 1366.33 Z" fill="#000000" fill-rule="evenodd" fill-opacity="1" /><path clip-path="url(#clip820)" d="M144.329 1014.23 L162.686 1014.23 L162.686 1018.16 L148.612 1018.16 L148.612 1026.63 Q149.63 1026.29 150.649 1026.12 Q151.667 1025.94 152.686 1025.94 Q158.473 1025.94 161.852 1029.11 Q165.232 1032.28 165.232 1037.7 Q165.232 1043.28 161.76 1046.38 Q158.288 1049.46 151.968 1049.46 Q149.792 1049.46 147.524 1049.09 Q145.279 1048.72 142.871 1047.98 L142.871 1043.28 Q144.954 1044.41 147.177 1044.97 Q149.399 1045.52 151.876 1045.52 Q155.88 1045.52 158.218 1043.42 Q160.556 1041.31 160.556 1037.7 Q160.556 1034.09 158.218 1031.98 Q155.88 1029.87 151.876 1029.87 Q150.001 1029.87 148.126 1030.29 Q146.274 1030.71 144.329 1031.59 L144.329 1014.23 Z" fill="#000000" fill-rule="evenodd" fill-opacity="1" /><path clip-path="url(#clip820)" d="M184.445 1017.31 Q180.834 1017.31 179.005 1020.87 Q177.2 1024.41 177.2 1031.54 Q177.2 1038.65 179.005 1042.21 Q180.834 1045.75 184.445 1045.75 Q188.079 1045.75 189.885 1042.21 Q191.713 1038.65 191.713 1031.54 Q191.713 1024.41 189.885 1020.87 Q188.079 1017.31 184.445 1017.31 M184.445 1013.6 Q190.255 1013.6 193.311 1018.21 Q196.389 1022.79 196.389 1031.54 Q196.389 1040.27 193.311 1044.87 Q190.255 1049.46 184.445 1049.46 Q178.635 1049.46 175.556 1044.87 Q172.501 1040.27 172.501 1031.54 Q172.501 1022.79 175.556 1018.21 Q178.635 1013.6 184.445 1013.6 Z" fill="#000000" fill-rule="evenodd" fill-opacity="1" /><path clip-path="url(#clip820)" d="M114.931 692.12 L122.57 692.12 L122.57 665.754 L114.26 667.421 L114.26 663.162 L122.524 661.495 L127.2 661.495 L127.2 692.12 L134.839 692.12 L134.839 696.055 L114.931 696.055 L114.931 692.12 Z" fill="#000000" fill-rule="evenodd" fill-opacity="1" /><path clip-path="url(#clip820)" d="M154.283 664.574 Q150.672 664.574 148.843 668.138 Q147.038 671.68 147.038 678.81 Q147.038 685.916 148.843 689.481 Q150.672 693.023 154.283 693.023 Q157.917 693.023 159.723 689.481 Q161.552 685.916 161.552 678.81 Q161.552 671.68 159.723 668.138 Q157.917 664.574 154.283 664.574 M154.283 660.87 Q160.093 660.87 163.149 665.476 Q166.227 670.06 166.227 678.81 Q166.227 687.536 163.149 692.143 Q160.093 696.726 154.283 696.726 Q148.473 696.726 145.394 692.143 Q142.339 687.536 142.339 678.81 Q142.339 670.06 145.394 665.476 Q148.473 660.87 154.283 660.87 Z" fill="#000000" fill-rule="evenodd" fill-opacity="1" /><path clip-path="url(#clip820)" d="M184.445 664.574 Q180.834 664.574 179.005 668.138 Q177.2 671.68 177.2 678.81 Q177.2 685.916 179.005 689.481 Q180.834 693.023 184.445 693.023 Q188.079 693.023 189.885 689.481 Q191.713 685.916 191.713 678.81 Q191.713 671.68 189.885 668.138 Q188.079 664.574 184.445 664.574 M184.445 660.87 Q190.255 660.87 193.311 665.476 Q196.389 670.06 196.389 678.81 Q196.389 687.536 193.311 692.143 Q190.255 696.726 184.445 696.726 Q178.635 696.726 175.556 692.143 Q172.501 687.536 172.501 678.81 Q172.501 670.06 175.556 665.476 Q178.635 660.87 184.445 660.87 Z" fill="#000000" fill-rule="evenodd" fill-opacity="1" /><path clip-path="url(#clip820)" d="M114.931 339.388 L122.57 339.388 L122.57 313.022 L114.26 314.689 L114.26 310.43 L122.524 308.763 L127.2 308.763 L127.2 339.388 L134.839 339.388 L134.839 343.323 L114.931 343.323 L114.931 339.388 Z" fill="#000000" fill-rule="evenodd" fill-opacity="1" /><path clip-path="url(#clip820)" d="M144.329 308.763 L162.686 308.763 L162.686 312.698 L148.612 312.698 L148.612 321.171 Q149.63 320.823 150.649 320.661 Q151.667 320.476 152.686 320.476 Q158.473 320.476 161.852 323.647 Q165.232 326.819 165.232 332.235 Q165.232 337.814 161.76 340.916 Q158.288 343.995 151.968 343.995 Q149.792 343.995 147.524 343.624 Q145.279 343.254 142.871 342.513 L142.871 337.814 Q144.954 338.948 147.177 339.504 Q149.399 340.059 151.876 340.059 Q155.88 340.059 158.218 337.953 Q160.556 335.846 160.556 332.235 Q160.556 328.624 158.218 326.518 Q155.88 324.411 151.876 324.411 Q150.001 324.411 148.126 324.828 Q146.274 325.245 144.329 326.124 L144.329 308.763 Z" fill="#000000" fill-rule="evenodd" fill-opacity="1" /><path clip-path="url(#clip820)" d="M184.445 311.842 Q180.834 311.842 179.005 315.407 Q177.2 318.948 177.2 326.078 Q177.2 333.184 179.005 336.749 Q180.834 340.291 184.445 340.291 Q188.079 340.291 189.885 336.749 Q191.713 333.184 191.713 326.078 Q191.713 318.948 189.885 315.407 Q188.079 311.842 184.445 311.842 M184.445 308.138 Q190.255 308.138 193.311 312.745 Q196.389 317.328 196.389 326.078 Q196.389 334.805 193.311 339.411 Q190.255 343.995 184.445 343.995 Q178.635 343.995 175.556 339.411 Q172.501 334.805 172.501 326.078 Q172.501 317.328 175.556 312.745 Q178.635 308.138 184.445 308.138 Z" fill="#000000" fill-rule="evenodd" fill-opacity="1" /><path clip-path="url(#clip820)" d="M20.1444 791.071 L26.9239 791.071 Q23.9002 794.318 22.4043 798.01 Q20.9083 801.67 20.9083 805.808 Q20.9083 813.956 25.9054 818.284 Q30.8707 822.613 40.2919 822.613 Q49.6813 822.613 54.6784 818.284 Q59.6436 813.956 59.6436 805.808 Q59.6436 801.67 58.1477 798.01 Q56.6518 794.318 53.6281 791.071 L60.3439 791.071 Q62.6355 794.445 63.7814 798.232 Q64.9272 801.988 64.9272 806.19 Q64.9272 816.979 58.3387 823.186 Q51.7183 829.393 40.2919 829.393 Q28.8336 829.393 22.2451 823.186 Q15.6248 816.979 15.6248 806.19 Q15.6248 801.925 16.7706 798.169 Q17.8846 794.381 20.1444 791.071 Z" fill="#000000" fill-rule="evenodd" fill-opacity="1" /><path clip-path="url(#clip820)" d="M32.4621 767.582 Q32.4621 772.292 36.1542 775.029 Q39.8145 777.767 46.212 777.767 Q52.6095 777.767 56.3017 775.061 Q59.9619 772.324 59.9619 767.582 Q59.9619 762.903 56.2698 760.166 Q52.5777 757.428 46.212 757.428 Q39.8781 757.428 36.186 760.166 Q32.4621 762.903 32.4621 767.582 M27.4968 767.582 Q27.4968 759.943 32.4621 755.582 Q37.4273 751.222 46.212 751.222 Q54.9649 751.222 59.9619 755.582 Q64.9272 759.943 64.9272 767.582 Q64.9272 775.252 59.9619 779.613 Q54.9649 783.941 46.212 783.941 Q37.4273 783.941 32.4621 779.613 Q27.4968 775.252 27.4968 767.582 Z" fill="#000000" fill-rule="evenodd" fill-opacity="1" /><path clip-path="url(#clip820)" d="M49.9359 742.119 L28.3562 742.119 L28.3562 736.262 L49.7131 736.262 Q54.7739 736.262 57.3202 734.289 Q59.8346 732.316 59.8346 728.369 Q59.8346 723.626 56.8109 720.889 Q53.7872 718.12 48.5673 718.12 L28.3562 718.12 L28.3562 712.264 L64.0042 712.264 L64.0042 718.12 L58.5296 718.12 Q61.7762 720.253 63.3676 723.085 Q64.9272 725.886 64.9272 729.61 Q64.9272 735.753 61.1078 738.936 Q57.2883 742.119 49.9359 742.119 M27.4968 727.382 L27.4968 727.382 Z" fill="#000000" fill-rule="evenodd" fill-opacity="1" /><path clip-path="url(#clip820)" d="M42.4881 670.568 L64.0042 670.568 L64.0042 676.425 L42.679 676.425 Q37.6183 676.425 35.1038 678.398 Q32.5894 680.371 32.5894 684.318 Q32.5894 689.061 35.6131 691.798 Q38.6368 694.535 43.8567 694.535 L64.0042 694.535 L64.0042 700.423 L28.3562 700.423 L28.3562 694.535 L33.8944 694.535 Q30.6797 692.434 29.0883 689.602 Q27.4968 686.737 27.4968 683.013 Q27.4968 676.87 31.3163 673.719 Q35.1038 670.568 42.4881 670.568 Z" fill="#000000" fill-rule="evenodd" fill-opacity="1" /><path clip-path="url(#clip820)" d="M18.2347 653.094 L28.3562 653.094 L28.3562 641.031 L32.9077 641.031 L32.9077 653.094 L52.2594 653.094 Q56.6199 653.094 57.8613 651.917 Q59.1026 650.707 59.1026 647.047 L59.1026 641.031 L64.0042 641.031 L64.0042 647.047 Q64.0042 653.826 61.4897 656.405 Q58.9434 658.983 52.2594 658.983 L32.9077 658.983 L32.9077 663.279 L28.3562 663.279 L28.3562 658.983 L18.2347 658.983 L18.2347 653.094 Z" fill="#000000" fill-rule="evenodd" fill-opacity="1" /><path clip-path="url(#clip822)" d="
M349.013 1334.86 L349.013 1384.24 L466.958 1384.24 L466.958 1334.86 L349.013 1334.86 L349.013 1334.86  Z
  " fill="#ffffff" fill-rule="evenodd" fill-opacity="1"/>
<polyline clip-path="url(#clip822)" style="stroke:#000000; stroke-linecap:round; stroke-linejoin:round; stroke-width:4; stroke-opacity:1; fill:none" points="
  349.013,1334.86 349.013,1384.24 466.958,1384.24 466.958,1334.86 349.013,1334.86 
  "/>
<path clip-path="url(#clip822)" d="
M466.958 1313.69 L466.958 1384.24 L584.903 1384.24 L584.903 1313.69 L466.958 1313.69 L466.958 1313.69  Z
  " fill="#ffffff" fill-rule="evenodd" fill-opacity="1"/>
<polyline clip-path="url(#clip822)" style="stroke:#000000; stroke-linecap:round; stroke-linejoin:round; stroke-width:4; stroke-opacity:1; fill:none" points="
  466.958,1313.69 466.958,1384.24 584.903,1384.24 584.903,1313.69 466.958,1313.69 
  "/>
<path clip-path="url(#clip822)" d="
M584.903 1109.11 L584.903 1384.24 L702.848 1384.24 L702.848 1109.11 L584.903 1109.11 L584.903 1109.11  Z
  " fill="#ffffff" fill-rule="evenodd" fill-opacity="1"/>
<polyline clip-path="url(#clip822)" style="stroke:#000000; stroke-linecap:round; stroke-linejoin:round; stroke-width:4; stroke-opacity:1; fill:none" points="
  584.903,1109.11 584.903,1384.24 702.848,1384.24 702.848,1109.11 584.903,1109.11 
  "/>
<path clip-path="url(#clip822)" d="
M702.848 932.742 L702.848 1384.24 L820.793 1384.24 L820.793 932.742 L702.848 932.742 L702.848 932.742  Z
  " fill="#ffffff" fill-rule="evenodd" fill-opacity="1"/>
<polyline clip-path="url(#clip822)" style="stroke:#000000; stroke-linecap:round; stroke-linejoin:round; stroke-width:4; stroke-opacity:1; fill:none" points="
  702.848,932.742 702.848,1384.24 820.793,1384.24 820.793,932.742 702.848,932.742 
  "/>
<path clip-path="url(#clip822)" d="
M820.793 572.955 L820.793 1384.24 L938.738 1384.24 L938.738 572.955 L820.793 572.955 L820.793 572.955  Z
  " fill="#ffffff" fill-rule="evenodd" fill-opacity="1"/>
<polyline clip-path="url(#clip822)" style="stroke:#000000; stroke-linecap:round; stroke-linejoin:round; stroke-width:4; stroke-opacity:1; fill:none" points="
  820.793,572.955 820.793,1384.24 938.738,1384.24 938.738,572.955 820.793,572.955 
  "/>
<path clip-path="url(#clip822)" d="
M938.738 276.661 L938.738 1384.24 L1056.68 1384.24 L1056.68 276.661 L938.738 276.661 L938.738 276.661  Z
  " fill="#ffffff" fill-rule="evenodd" fill-opacity="1"/>
<polyline clip-path="url(#clip822)" style="stroke:#000000; stroke-linecap:round; stroke-linejoin:round; stroke-width:4; stroke-opacity:1; fill:none" points="
  938.738,276.661 938.738,1384.24 1056.68,1384.24 1056.68,276.661 938.738,276.661 
  "/>
<path clip-path="url(#clip822)" d="
M1056.68 86.1857 L1056.68 1384.24 L1174.63 1384.24 L1174.63 86.1857 L1056.68 86.1857 L1056.68 86.1857  Z
  " fill="#ffffff" fill-rule="evenodd" fill-opacity="1"/>
<polyline clip-path="url(#clip822)" style="stroke:#000000; stroke-linecap:round; stroke-linejoin:round; stroke-width:4; stroke-opacity:1; fill:none" points="
  1056.68,86.1857 1056.68,1384.24 1174.63,1384.24 1174.63,86.1857 1056.68,86.1857 
  "/>
<path clip-path="url(#clip822)" d="
M1174.63 248.442 L1174.63 1384.24 L1292.57 1384.24 L1292.57 248.442 L1174.63 248.442 L1174.63 248.442  Z
  " fill="#ffffff" fill-rule="evenodd" fill-opacity="1"/>
<polyline clip-path="url(#clip822)" style="stroke:#000000; stroke-linecap:round; stroke-linejoin:round; stroke-width:4; stroke-opacity:1; fill:none" points="
  1174.63,248.442 1174.63,1384.24 1292.57,1384.24 1292.57,248.442 1174.63,248.442 
  "/>
<path clip-path="url(#clip822)" d="
M1292.57 403.644 L1292.57 1384.24 L1410.52 1384.24 L1410.52 403.644 L1292.57 403.644 L1292.57 403.644  Z
  " fill="#ffffff" fill-rule="evenodd" fill-opacity="1"/>
<polyline clip-path="url(#clip822)" style="stroke:#000000; stroke-linecap:round; stroke-linejoin:round; stroke-width:4; stroke-opacity:1; fill:none" points="
  1292.57,403.644 1292.57,1384.24 1410.52,1384.24 1410.52,403.644 1292.57,403.644 
  "/>
<path clip-path="url(#clip822)" d="
M1410.52 897.469 L1410.52 1384.24 L1528.46 1384.24 L1528.46 897.469 L1410.52 897.469 L1410.52 897.469  Z
  " fill="#ffffff" fill-rule="evenodd" fill-opacity="1"/>
<polyline clip-path="url(#clip822)" style="stroke:#000000; stroke-linecap:round; stroke-linejoin:round; stroke-width:4; stroke-opacity:1; fill:none" points="
  1410.52,897.469 1410.52,1384.24 1528.46,1384.24 1528.46,897.469 1410.52,897.469 
  "/>
<path clip-path="url(#clip822)" d="
M1528.46 1045.62 L1528.46 1384.24 L1646.41 1384.24 L1646.41 1045.62 L1528.46 1045.62 L1528.46 1045.62  Z
  " fill="#ffffff" fill-rule="evenodd" fill-opacity="1"/>
<polyline clip-path="url(#clip822)" style="stroke:#000000; stroke-linecap:round; stroke-linejoin:round; stroke-width:4; stroke-opacity:1; fill:none" points="
  1528.46,1045.62 1528.46,1384.24 1646.41,1384.24 1646.41,1045.62 1528.46,1045.62 
  "/>
<path clip-path="url(#clip822)" d="
M1646.41 1384.24 L1646.41 1384.24 L1764.35 1384.24 L1764.35 1384.24 L1646.41 1384.24 L1646.41 1384.24  Z
  " fill="#ffffff" fill-rule="evenodd" fill-opacity="1"/>
<polyline clip-path="url(#clip822)" style="stroke:#000000; stroke-linecap:round; stroke-linejoin:round; stroke-width:4; stroke-opacity:1; fill:none" points="
  1646.41,1384.24 1646.41,1384.24 1764.35,1384.24 1646.41,1384.24 
  "/>
<path clip-path="url(#clip822)" d="
M1764.35 1363.07 L1764.35 1384.24 L1882.3 1384.24 L1882.3 1363.07 L1764.35 1363.07 L1764.35 1363.07  Z
  " fill="#ffffff" fill-rule="evenodd" fill-opacity="1"/>
<polyline clip-path="url(#clip822)" style="stroke:#000000; stroke-linecap:round; stroke-linejoin:round; stroke-width:4; stroke-opacity:1; fill:none" points="
  1764.35,1363.07 1764.35,1384.24 1882.3,1384.24 1882.3,1363.07 1764.35,1363.07 
  "/>
<path clip-path="url(#clip822)" d="
M1882.3 1370.13 L1882.3 1384.24 L2000.24 1384.24 L2000.24 1370.13 L1882.3 1370.13 L1882.3 1370.13  Z
  " fill="#ffffff" fill-rule="evenodd" fill-opacity="1"/>
<polyline clip-path="url(#clip822)" style="stroke:#000000; stroke-linecap:round; stroke-linejoin:round; stroke-width:4; stroke-opacity:1; fill:none" points="
  1882.3,1370.13 1882.3,1384.24 2000.24,1384.24 2000.24,1370.13 1882.3,1370.13 
  "/>
<path clip-path="url(#clip822)" d="
M2000.24 1377.18 L2000.24 1384.24 L2118.19 1384.24 L2118.19 1377.18 L2000.24 1377.18 L2000.24 1377.18  Z
  " fill="#ffffff" fill-rule="evenodd" fill-opacity="1"/>
<polyline clip-path="url(#clip822)" style="stroke:#000000; stroke-linecap:round; stroke-linejoin:round; stroke-width:4; stroke-opacity:1; fill:none" points="
  2000.24,1377.18 2000.24,1384.24 2118.19,1384.24 2118.19,1377.18 2000.24,1377.18 
  "/>
<path clip-path="url(#clip822)" d="
M2118.19 1377.18 L2118.19 1384.24 L2236.13 1384.24 L2236.13 1377.18 L2118.19 1377.18 L2118.19 1377.18  Z
  " fill="#ffffff" fill-rule="evenodd" fill-opacity="1"/>
<polyline clip-path="url(#clip822)" style="stroke:#000000; stroke-linecap:round; stroke-linejoin:round; stroke-width:4; stroke-opacity:1; fill:none" points="
  2118.19,1377.18 2118.19,1384.24 2236.13,1384.24 2236.13,1377.18 2118.19,1377.18 
  "/>
<circle clip-path="url(#clip822)" style="fill:#ffffff; stroke:none; fill-opacity:0" cx="407.986" cy="1334.86" r="2"/>
<circle clip-path="url(#clip822)" style="fill:#ffffff; stroke:none; fill-opacity:0" cx="525.931" cy="1313.69" r="2"/>
<circle clip-path="url(#clip822)" style="fill:#ffffff; stroke:none; fill-opacity:0" cx="643.876" cy="1109.11" r="2"/>
<circle clip-path="url(#clip822)" style="fill:#ffffff; stroke:none; fill-opacity:0" cx="761.82" cy="932.742" r="2"/>
<circle clip-path="url(#clip822)" style="fill:#ffffff; stroke:none; fill-opacity:0" cx="879.765" cy="572.955" r="2"/>
<circle clip-path="url(#clip822)" style="fill:#ffffff; stroke:none; fill-opacity:0" cx="997.71" cy="276.661" r="2"/>
<circle clip-path="url(#clip822)" style="fill:#ffffff; stroke:none; fill-opacity:0" cx="1115.66" cy="86.1857" r="2"/>
<circle clip-path="url(#clip822)" style="fill:#ffffff; stroke:none; fill-opacity:0" cx="1233.6" cy="248.442" r="2"/>
<circle clip-path="url(#clip822)" style="fill:#ffffff; stroke:none; fill-opacity:0" cx="1351.55" cy="403.644" r="2"/>
<circle clip-path="url(#clip822)" style="fill:#ffffff; stroke:none; fill-opacity:0" cx="1469.49" cy="897.469" r="2"/>
<circle clip-path="url(#clip822)" style="fill:#ffffff; stroke:none; fill-opacity:0" cx="1587.43" cy="1045.62" r="2"/>
<circle clip-path="url(#clip822)" style="fill:#ffffff; stroke:none; fill-opacity:0" cx="1705.38" cy="1384.24" r="2"/>
<circle clip-path="url(#clip822)" style="fill:#ffffff; stroke:none; fill-opacity:0" cx="1823.32" cy="1363.07" r="2"/>
<circle clip-path="url(#clip822)" style="fill:#ffffff; stroke:none; fill-opacity:0" cx="1941.27" cy="1370.13" r="2"/>
<circle clip-path="url(#clip822)" style="fill:#ffffff; stroke:none; fill-opacity:0" cx="2059.21" cy="1377.18" r="2"/>
<circle clip-path="url(#clip822)" style="fill:#ffffff; stroke:none; fill-opacity:0" cx="2177.16" cy="1377.18" r="2"/>
<polyline clip-path="url(#clip822)" style="stroke:#ff0000; stroke-linecap:round; stroke-linejoin:round; stroke-width:8; stroke-opacity:1; fill:none" stroke-dasharray="32, 20" points="
  1410.52,2799.12 1410.52,-1328.69 
  "/>
<polyline clip-path="url(#clip822)" style="stroke:#ff0000; stroke-linecap:round; stroke-linejoin:round; stroke-width:8; stroke-opacity:1; fill:none" points="
  1056.68,2799.12 1056.68,-1328.69 
  "/>
<polyline clip-path="url(#clip822)" style="stroke:#800080; stroke-linecap:round; stroke-linejoin:round; stroke-width:8; stroke-opacity:1; fill:none" stroke-dasharray="32, 20" points="
  1174.63,2799.12 1174.63,-1328.69 
  "/>
<path clip-path="url(#clip820)" d="
M1596.8 352.309 L2282.08 352.309 L2282.08 93.1086 L1596.8 93.1086  Z
  " fill="#ffffff" fill-rule="evenodd" fill-opacity="1"/>
<polyline clip-path="url(#clip820)" style="stroke:#000000; stroke-linecap:round; stroke-linejoin:round; stroke-width:4; stroke-opacity:1; fill:none" points="
  1596.8,352.309 2282.08,352.309 2282.08,93.1086 1596.8,93.1086 1596.8,352.309 
  "/>
<path clip-path="url(#clip820)" d="
M1620.36 165.685 L1761.72 165.685 L1761.72 124.213 L1620.36 124.213 L1620.36 165.685  Z
  " fill="#ffffff" fill-rule="evenodd" fill-opacity="1"/>
<polyline clip-path="url(#clip820)" style="stroke:#000000; stroke-linecap:round; stroke-linejoin:round; stroke-width:4; stroke-opacity:1; fill:none" points="
  1620.36,165.685 1761.72,165.685 1761.72,124.213 1620.36,124.213 1620.36,165.685 
  "/>
<path clip-path="url(#clip820)" d="M1789.96 145.724 L1789.96 158.386 L1797.46 158.386 Q1801.23 158.386 1803.03 156.835 Q1804.86 155.261 1804.86 152.043 Q1804.86 148.803 1803.03 147.275 Q1801.23 145.724 1797.46 145.724 L1789.96 145.724 M1789.96 131.511 L1789.96 141.928 L1796.88 141.928 Q1800.3 141.928 1801.97 140.655 Q1803.66 139.358 1803.66 136.719 Q1803.66 134.104 1801.97 132.807 Q1800.3 131.511 1796.88 131.511 L1789.96 131.511 M1785.28 127.669 L1797.22 127.669 Q1802.57 127.669 1805.46 129.891 Q1808.36 132.113 1808.36 136.21 Q1808.36 139.382 1806.88 141.257 Q1805.39 143.131 1802.52 143.594 Q1805.97 144.335 1807.87 146.696 Q1809.79 149.034 1809.79 152.553 Q1809.79 157.182 1806.64 159.705 Q1803.5 162.229 1797.69 162.229 L1785.28 162.229 L1785.28 127.669 Z" fill="#000000" fill-rule="evenodd" fill-opacity="1" /><path clip-path="url(#clip820)" d="M1827.66 139.289 Q1824.24 139.289 1822.25 141.974 Q1820.26 144.636 1820.26 149.289 Q1820.26 153.942 1822.22 156.627 Q1824.21 159.289 1827.66 159.289 Q1831.07 159.289 1833.06 156.604 Q1835.05 153.918 1835.05 149.289 Q1835.05 144.682 1833.06 141.997 Q1831.07 139.289 1827.66 139.289 M1827.66 135.678 Q1833.22 135.678 1836.39 139.289 Q1839.56 142.9 1839.56 149.289 Q1839.56 155.655 1836.39 159.289 Q1833.22 162.9 1827.66 162.9 Q1822.08 162.9 1818.91 159.289 Q1815.77 155.655 1815.77 149.289 Q1815.77 142.9 1818.91 139.289 Q1822.08 135.678 1827.66 135.678 Z" fill="#000000" fill-rule="evenodd" fill-opacity="1" /><path clip-path="url(#clip820)" d="M1856.67 139.289 Q1853.24 139.289 1851.25 141.974 Q1849.26 144.636 1849.26 149.289 Q1849.26 153.942 1851.23 156.627 Q1853.22 159.289 1856.67 159.289 Q1860.07 159.289 1862.06 156.604 Q1864.05 153.918 1864.05 149.289 Q1864.05 144.682 1862.06 141.997 Q1860.07 139.289 1856.67 139.289 M1856.67 135.678 Q1862.22 135.678 1865.39 139.289 Q1868.57 142.9 1868.57 149.289 Q1868.57 155.655 1865.39 159.289 Q1862.22 162.9 1856.67 162.9 Q1851.09 162.9 1847.92 159.289 Q1844.77 155.655 1844.77 149.289 Q1844.77 142.9 1847.92 139.289 Q1851.09 135.678 1856.67 135.678 Z" fill="#000000" fill-rule="evenodd" fill-opacity="1" /><path clip-path="url(#clip820)" d="M1879.84 128.942 L1879.84 136.303 L1888.61 136.303 L1888.61 139.613 L1879.84 139.613 L1879.84 153.687 Q1879.84 156.858 1880.7 157.761 Q1881.57 158.664 1884.24 158.664 L1888.61 158.664 L1888.61 162.229 L1884.24 162.229 Q1879.31 162.229 1877.43 160.4 Q1875.56 158.548 1875.56 153.687 L1875.56 139.613 L1872.43 139.613 L1872.43 136.303 L1875.56 136.303 L1875.56 128.942 L1879.84 128.942 Z" fill="#000000" fill-rule="evenodd" fill-opacity="1" /><path clip-path="url(#clip820)" d="M1910.74 137.067 L1910.74 141.094 Q1908.94 140.169 1906.99 139.706 Q1905.05 139.243 1902.96 139.243 Q1899.79 139.243 1898.2 140.215 Q1896.62 141.187 1896.62 143.131 Q1896.62 144.613 1897.76 145.469 Q1898.89 146.303 1902.32 147.067 L1903.77 147.391 Q1908.31 148.363 1910.21 150.145 Q1912.13 151.905 1912.13 155.076 Q1912.13 158.687 1909.26 160.793 Q1906.41 162.9 1901.41 162.9 Q1899.33 162.9 1897.06 162.483 Q1894.82 162.09 1892.32 161.28 L1892.32 156.881 Q1894.68 158.108 1896.97 158.733 Q1899.26 159.335 1901.51 159.335 Q1904.51 159.335 1906.14 158.317 Q1907.76 157.275 1907.76 155.4 Q1907.76 153.664 1906.57 152.738 Q1905.42 151.812 1901.46 150.956 L1899.98 150.608 Q1896.02 149.775 1894.26 148.062 Q1892.5 146.326 1892.5 143.317 Q1892.5 139.659 1895.09 137.669 Q1897.69 135.678 1902.45 135.678 Q1904.82 135.678 1906.9 136.025 Q1908.98 136.372 1910.74 137.067 Z" fill="#000000" fill-rule="evenodd" fill-opacity="1" /><path clip-path="url(#clip820)" d="M1923.13 128.942 L1923.13 136.303 L1931.9 136.303 L1931.9 139.613 L1923.13 139.613 L1923.13 153.687 Q1923.13 156.858 1923.98 157.761 Q1924.86 158.664 1927.52 158.664 L1931.9 158.664 L1931.9 162.229 L1927.52 162.229 Q1922.59 162.229 1920.72 160.4 Q1918.84 158.548 1918.84 153.687 L1918.84 139.613 L1915.72 139.613 L1915.72 136.303 L1918.84 136.303 L1918.84 128.942 L1923.13 128.942 Z" fill="#000000" fill-rule="evenodd" fill-opacity="1" /><path clip-path="url(#clip820)" d="M1952.52 140.284 Q1951.81 139.868 1950.95 139.682 Q1950.12 139.474 1949.1 139.474 Q1945.49 139.474 1943.54 141.835 Q1941.62 144.173 1941.62 148.571 L1941.62 162.229 L1937.34 162.229 L1937.34 136.303 L1941.62 136.303 L1941.62 140.331 Q1942.96 137.969 1945.12 136.835 Q1947.27 135.678 1950.35 135.678 Q1950.79 135.678 1951.32 135.747 Q1951.85 135.794 1952.5 135.909 L1952.52 140.284 Z" fill="#000000" fill-rule="evenodd" fill-opacity="1" /><path clip-path="url(#clip820)" d="M1968.77 149.196 Q1963.61 149.196 1961.62 150.377 Q1959.63 151.557 1959.63 154.405 Q1959.63 156.673 1961.11 158.016 Q1962.62 159.335 1965.19 159.335 Q1968.73 159.335 1970.86 156.835 Q1973.01 154.312 1973.01 150.145 L1973.01 149.196 L1968.77 149.196 M1977.27 147.437 L1977.27 162.229 L1973.01 162.229 L1973.01 158.293 Q1971.55 160.655 1969.38 161.789 Q1967.2 162.9 1964.05 162.9 Q1960.07 162.9 1957.71 160.678 Q1955.37 158.432 1955.37 154.682 Q1955.37 150.307 1958.29 148.085 Q1961.23 145.863 1967.04 145.863 L1973.01 145.863 L1973.01 145.446 Q1973.01 142.507 1971.07 140.909 Q1969.14 139.289 1965.65 139.289 Q1963.43 139.289 1961.32 139.821 Q1959.21 140.354 1957.27 141.419 L1957.27 137.483 Q1959.61 136.581 1961.81 136.141 Q1964.01 135.678 1966.09 135.678 Q1971.71 135.678 1974.49 138.594 Q1977.27 141.511 1977.27 147.437 Z" fill="#000000" fill-rule="evenodd" fill-opacity="1" /><path clip-path="url(#clip820)" d="M1990.16 158.34 L1990.16 172.09 L1985.88 172.09 L1985.88 136.303 L1990.16 136.303 L1990.16 140.238 Q1991.5 137.923 1993.54 136.812 Q1995.6 135.678 1998.45 135.678 Q2003.17 135.678 2006.11 139.428 Q2009.07 143.178 2009.07 149.289 Q2009.07 155.4 2006.11 159.15 Q2003.17 162.9 1998.45 162.9 Q1995.6 162.9 1993.54 161.789 Q1991.5 160.655 1990.16 158.34 M2004.65 149.289 Q2004.65 144.59 2002.71 141.928 Q2000.79 139.243 1997.41 139.243 Q1994.03 139.243 1992.08 141.928 Q1990.16 144.59 1990.16 149.289 Q1990.16 153.988 1992.08 156.673 Q1994.03 159.335 1997.41 159.335 Q2000.79 159.335 2002.71 156.673 Q2004.65 153.988 2004.65 149.289 Z" fill="#000000" fill-rule="evenodd" fill-opacity="1" /><path clip-path="url(#clip820)" d="M2031.39 127.669 L2053.24 127.669 L2053.24 131.604 L2036.06 131.604 L2036.06 141.835 L2052.52 141.835 L2052.52 145.77 L2036.06 145.77 L2036.06 158.293 L2053.66 158.293 L2053.66 162.229 L2031.39 162.229 L2031.39 127.669 Z" fill="#000000" fill-rule="evenodd" fill-opacity="1" /><path clip-path="url(#clip820)" d="M2077.69 137.067 L2077.69 141.094 Q2075.88 140.169 2073.94 139.706 Q2071.99 139.243 2069.91 139.243 Q2066.74 139.243 2065.14 140.215 Q2063.56 141.187 2063.56 143.131 Q2063.56 144.613 2064.7 145.469 Q2065.83 146.303 2069.26 147.067 L2070.72 147.391 Q2075.25 148.363 2077.15 150.145 Q2079.07 151.905 2079.07 155.076 Q2079.07 158.687 2076.2 160.793 Q2073.36 162.9 2068.36 162.9 Q2066.27 162.9 2064 162.483 Q2061.76 162.09 2059.26 161.28 L2059.26 156.881 Q2061.62 158.108 2063.91 158.733 Q2066.2 159.335 2068.45 159.335 Q2071.46 159.335 2073.08 158.317 Q2074.7 157.275 2074.7 155.4 Q2074.7 153.664 2073.52 152.738 Q2072.36 151.812 2068.4 150.956 L2066.92 150.608 Q2062.96 149.775 2061.2 148.062 Q2059.44 146.326 2059.44 143.317 Q2059.44 139.659 2062.04 137.669 Q2064.63 135.678 2069.4 135.678 Q2071.76 135.678 2073.84 136.025 Q2075.93 136.372 2077.69 137.067 Z" fill="#000000" fill-rule="evenodd" fill-opacity="1" /><path clip-path="url(#clip820)" d="M2090.07 128.942 L2090.07 136.303 L2098.84 136.303 L2098.84 139.613 L2090.07 139.613 L2090.07 153.687 Q2090.07 156.858 2090.93 157.761 Q2091.81 158.664 2094.47 158.664 L2098.84 158.664 L2098.84 162.229 L2094.47 162.229 Q2089.54 162.229 2087.66 160.4 Q2085.79 158.548 2085.79 153.687 L2085.79 139.613 L2082.66 139.613 L2082.66 136.303 L2085.79 136.303 L2085.79 128.942 L2090.07 128.942 Z" fill="#000000" fill-rule="evenodd" fill-opacity="1" /><path clip-path="url(#clip820)" d="M2104.44 136.303 L2108.7 136.303 L2108.7 162.229 L2104.44 162.229 L2104.44 136.303 M2104.44 126.21 L2108.7 126.21 L2108.7 131.604 L2104.44 131.604 L2104.44 126.21 Z" fill="#000000" fill-rule="evenodd" fill-opacity="1" /><path clip-path="url(#clip820)" d="M2137.8 141.28 Q2139.4 138.409 2141.62 137.044 Q2143.84 135.678 2146.85 135.678 Q2150.9 135.678 2153.1 138.525 Q2155.3 141.349 2155.3 146.581 L2155.3 162.229 L2151.02 162.229 L2151.02 146.719 Q2151.02 142.993 2149.7 141.187 Q2148.38 139.382 2145.67 139.382 Q2142.36 139.382 2140.44 141.581 Q2138.52 143.78 2138.52 147.576 L2138.52 162.229 L2134.24 162.229 L2134.24 146.719 Q2134.24 142.969 2132.92 141.187 Q2131.6 139.382 2128.84 139.382 Q2125.58 139.382 2123.66 141.604 Q2121.74 143.803 2121.74 147.576 L2121.74 162.229 L2117.45 162.229 L2117.45 136.303 L2121.74 136.303 L2121.74 140.331 Q2123.19 137.946 2125.23 136.812 Q2127.27 135.678 2130.07 135.678 Q2132.89 135.678 2134.86 137.113 Q2136.85 138.548 2137.8 141.28 Z" fill="#000000" fill-rule="evenodd" fill-opacity="1" /><path clip-path="url(#clip820)" d="M2175.58 149.196 Q2170.42 149.196 2168.43 150.377 Q2166.43 151.557 2166.43 154.405 Q2166.43 156.673 2167.92 158.016 Q2169.42 159.335 2171.99 159.335 Q2175.53 159.335 2177.66 156.835 Q2179.81 154.312 2179.81 150.145 L2179.81 149.196 L2175.58 149.196 M2184.07 147.437 L2184.07 162.229 L2179.81 162.229 L2179.81 158.293 Q2178.36 160.655 2176.18 161.789 Q2174 162.9 2170.86 162.9 Q2166.87 162.9 2164.51 160.678 Q2162.18 158.432 2162.18 154.682 Q2162.18 150.307 2165.09 148.085 Q2168.03 145.863 2173.84 145.863 L2179.81 145.863 L2179.81 145.446 Q2179.81 142.507 2177.87 140.909 Q2175.95 139.289 2172.45 139.289 Q2170.23 139.289 2168.12 139.821 Q2166.02 140.354 2164.07 141.419 L2164.07 137.483 Q2166.41 136.581 2168.61 136.141 Q2170.81 135.678 2172.89 135.678 Q2178.52 135.678 2181.3 138.594 Q2184.07 141.511 2184.07 147.437 Z" fill="#000000" fill-rule="evenodd" fill-opacity="1" /><path clip-path="url(#clip820)" d="M2197.06 128.942 L2197.06 136.303 L2205.83 136.303 L2205.83 139.613 L2197.06 139.613 L2197.06 153.687 Q2197.06 156.858 2197.92 157.761 Q2198.8 158.664 2201.46 158.664 L2205.83 158.664 L2205.83 162.229 L2201.46 162.229 Q2196.53 162.229 2194.65 160.4 Q2192.78 158.548 2192.78 153.687 L2192.78 139.613 L2189.65 139.613 L2189.65 136.303 L2192.78 136.303 L2192.78 128.942 L2197.06 128.942 Z" fill="#000000" fill-rule="evenodd" fill-opacity="1" /><path clip-path="url(#clip820)" d="M2233.61 148.201 L2233.61 150.284 L2214.03 150.284 Q2214.3 154.682 2216.67 156.997 Q2219.05 159.289 2223.29 159.289 Q2225.74 159.289 2228.03 158.687 Q2230.35 158.085 2232.61 156.881 L2232.61 160.909 Q2230.32 161.881 2227.92 162.391 Q2225.51 162.9 2223.03 162.9 Q2216.83 162.9 2213.19 159.289 Q2209.58 155.678 2209.58 149.52 Q2209.58 143.155 2213.01 139.428 Q2216.46 135.678 2222.29 135.678 Q2227.52 135.678 2230.55 139.057 Q2233.61 142.414 2233.61 148.201 M2229.35 146.951 Q2229.3 143.456 2227.38 141.372 Q2225.49 139.289 2222.34 139.289 Q2218.77 139.289 2216.62 141.303 Q2214.49 143.317 2214.17 146.974 L2229.35 146.951 Z" fill="#000000" fill-rule="evenodd" fill-opacity="1" /><path clip-path="url(#clip820)" d="M2257.13 137.067 L2257.13 141.094 Q2255.32 140.169 2253.38 139.706 Q2251.43 139.243 2249.35 139.243 Q2246.18 139.243 2244.58 140.215 Q2243.01 141.187 2243.01 143.131 Q2243.01 144.613 2244.14 145.469 Q2245.28 146.303 2248.7 147.067 L2250.16 147.391 Q2254.7 148.363 2256.6 150.145 Q2258.52 151.905 2258.52 155.076 Q2258.52 158.687 2255.65 160.793 Q2252.8 162.9 2247.8 162.9 Q2245.72 162.9 2243.45 162.483 Q2241.2 162.09 2238.7 161.28 L2238.7 156.881 Q2241.06 158.108 2243.36 158.733 Q2245.65 159.335 2247.89 159.335 Q2250.9 159.335 2252.52 158.317 Q2254.14 157.275 2254.14 155.4 Q2254.14 153.664 2252.96 152.738 Q2251.8 151.812 2247.85 150.956 L2246.36 150.608 Q2242.41 149.775 2240.65 148.062 Q2238.89 146.326 2238.89 143.317 Q2238.89 139.659 2241.48 137.669 Q2244.07 135.678 2248.84 135.678 Q2251.2 135.678 2253.29 136.025 Q2255.37 136.372 2257.13 137.067 Z" fill="#000000" fill-rule="evenodd" fill-opacity="1" /><polyline clip-path="url(#clip820)" style="stroke:#ff0000; stroke-linecap:round; stroke-linejoin:round; stroke-width:8; stroke-opacity:1; fill:none" stroke-dasharray="32, 20" points="
  1620.36,196.789 1761.72,196.789 
  "/>
<path clip-path="url(#clip820)" d="M1785.28 179.509 L1814.52 179.509 L1814.52 183.444 L1802.25 183.444 L1802.25 214.069 L1797.55 214.069 L1797.55 183.444 L1785.28 183.444 L1785.28 179.509 Z" fill="#000000" fill-rule="evenodd" fill-opacity="1" /><path clip-path="url(#clip820)" d="M1826.9 192.124 Q1826.18 191.708 1825.33 191.522 Q1824.49 191.314 1823.47 191.314 Q1819.86 191.314 1817.92 193.675 Q1816 196.013 1816 200.411 L1816 214.069 L1811.71 214.069 L1811.71 188.143 L1816 188.143 L1816 192.171 Q1817.34 189.809 1819.49 188.675 Q1821.64 187.518 1824.72 187.518 Q1825.16 187.518 1825.7 187.587 Q1826.23 187.634 1826.88 187.749 L1826.9 192.124 Z" fill="#000000" fill-rule="evenodd" fill-opacity="1" /><path clip-path="url(#clip820)" d="M1830.93 203.837 L1830.93 188.143 L1835.19 188.143 L1835.19 203.675 Q1835.19 207.356 1836.62 209.208 Q1838.06 211.036 1840.93 211.036 Q1844.38 211.036 1846.37 208.837 Q1848.38 206.638 1848.38 202.842 L1848.38 188.143 L1852.64 188.143 L1852.64 214.069 L1848.38 214.069 L1848.38 210.087 Q1846.83 212.448 1844.77 213.606 Q1842.73 214.74 1840.02 214.74 Q1835.56 214.74 1833.24 211.962 Q1830.93 209.184 1830.93 203.837 M1841.64 187.518 L1841.64 187.518 Z" fill="#000000" fill-rule="evenodd" fill-opacity="1" /><path clip-path="url(#clip820)" d="M1883.59 200.041 L1883.59 202.124 L1864.01 202.124 Q1864.28 206.522 1866.64 208.837 Q1869.03 211.129 1873.26 211.129 Q1875.72 211.129 1878.01 210.527 Q1880.32 209.925 1882.59 208.721 L1882.59 212.749 Q1880.3 213.721 1877.89 214.231 Q1875.49 214.74 1873.01 214.74 Q1866.81 214.74 1863.17 211.129 Q1859.56 207.518 1859.56 201.36 Q1859.56 194.995 1862.99 191.268 Q1866.44 187.518 1872.27 187.518 Q1877.5 187.518 1880.53 190.897 Q1883.59 194.254 1883.59 200.041 M1879.33 198.791 Q1879.28 195.296 1877.36 193.212 Q1875.46 191.129 1872.32 191.129 Q1868.75 191.129 1866.6 193.143 Q1864.47 195.157 1864.14 198.814 L1879.33 198.791 Z" fill="#000000" fill-rule="evenodd" fill-opacity="1" /><path clip-path="url(#clip820)" d="M1914.75 214.069 L1901.55 179.509 L1906.44 179.509 L1917.38 208.606 L1928.36 179.509 L1933.22 179.509 L1920.05 214.069 L1914.75 214.069 Z" fill="#000000" fill-rule="evenodd" fill-opacity="1" /><path clip-path="url(#clip820)" d="M1946.18 201.036 Q1941.02 201.036 1939.03 202.217 Q1937.04 203.397 1937.04 206.245 Q1937.04 208.513 1938.52 209.856 Q1940.02 211.175 1942.59 211.175 Q1946.13 211.175 1948.26 208.675 Q1950.42 206.152 1950.42 201.985 L1950.42 201.036 L1946.18 201.036 M1954.68 199.277 L1954.68 214.069 L1950.42 214.069 L1950.42 210.133 Q1948.96 212.495 1946.78 213.629 Q1944.61 214.74 1941.46 214.74 Q1937.48 214.74 1935.12 212.518 Q1932.78 210.272 1932.78 206.522 Q1932.78 202.147 1935.7 199.925 Q1938.63 197.703 1944.45 197.703 L1950.42 197.703 L1950.42 197.286 Q1950.42 194.347 1948.47 192.749 Q1946.55 191.129 1943.06 191.129 Q1940.83 191.129 1938.73 191.661 Q1936.62 192.194 1934.68 193.259 L1934.68 189.323 Q1937.01 188.421 1939.21 187.981 Q1941.41 187.518 1943.5 187.518 Q1949.12 187.518 1951.9 190.434 Q1954.68 193.351 1954.68 199.277 Z" fill="#000000" fill-rule="evenodd" fill-opacity="1" /><path clip-path="url(#clip820)" d="M1963.45 178.05 L1967.71 178.05 L1967.71 214.069 L1963.45 214.069 L1963.45 178.05 Z" fill="#000000" fill-rule="evenodd" fill-opacity="1" /><path clip-path="url(#clip820)" d="M1976.18 203.837 L1976.18 188.143 L1980.44 188.143 L1980.44 203.675 Q1980.44 207.356 1981.88 209.208 Q1983.31 211.036 1986.18 211.036 Q1989.63 211.036 1991.62 208.837 Q1993.63 206.638 1993.63 202.842 L1993.63 188.143 L1997.89 188.143 L1997.89 214.069 L1993.63 214.069 L1993.63 210.087 Q1992.08 212.448 1990.02 213.606 Q1987.99 214.74 1985.28 214.74 Q1980.81 214.74 1978.5 211.962 Q1976.18 209.184 1976.18 203.837 M1986.9 187.518 L1986.9 187.518 Z" fill="#000000" fill-rule="evenodd" fill-opacity="1" /><path clip-path="url(#clip820)" d="M2028.84 200.041 L2028.84 202.124 L2009.26 202.124 Q2009.54 206.522 2011.9 208.837 Q2014.28 211.129 2018.52 211.129 Q2020.97 211.129 2023.26 210.527 Q2025.58 209.925 2027.85 208.721 L2027.85 212.749 Q2025.56 213.721 2023.15 214.231 Q2020.74 214.74 2018.26 214.74 Q2012.06 214.74 2008.43 211.129 Q2004.82 207.518 2004.82 201.36 Q2004.82 194.995 2008.24 191.268 Q2011.69 187.518 2017.52 187.518 Q2022.75 187.518 2025.79 190.897 Q2028.84 194.254 2028.84 200.041 M2024.58 198.791 Q2024.54 195.296 2022.62 193.212 Q2020.72 191.129 2017.57 191.129 Q2014 191.129 2011.85 193.143 Q2009.72 195.157 2009.4 198.814 L2024.58 198.791 Z" fill="#000000" fill-rule="evenodd" fill-opacity="1" /><polyline clip-path="url(#clip820)" style="stroke:#ff0000; stroke-linecap:round; stroke-linejoin:round; stroke-width:8; stroke-opacity:1; fill:none" points="
  1620.36,248.629 1761.72,248.629 
  "/>
<path clip-path="url(#clip820)" d="M1807.52 232.483 L1807.52 237.043 Q1804.86 235.77 1802.5 235.145 Q1800.14 234.52 1797.94 234.52 Q1794.12 234.52 1792.04 236.001 Q1789.98 237.483 1789.98 240.214 Q1789.98 242.506 1791.34 243.687 Q1792.73 244.844 1796.58 245.562 L1799.4 246.14 Q1804.63 247.136 1807.11 249.659 Q1809.61 252.159 1809.61 256.372 Q1809.61 261.395 1806.23 263.987 Q1802.87 266.58 1796.37 266.58 Q1793.91 266.58 1791.14 266.024 Q1788.38 265.469 1785.42 264.381 L1785.42 259.566 Q1788.27 261.163 1791 261.973 Q1793.73 262.784 1796.37 262.784 Q1800.37 262.784 1802.55 261.21 Q1804.72 259.636 1804.72 256.719 Q1804.72 254.173 1803.15 252.737 Q1801.6 251.302 1798.03 250.585 L1795.19 250.029 Q1789.96 248.987 1787.62 246.765 Q1785.28 244.543 1785.28 240.585 Q1785.28 236.001 1788.5 233.362 Q1791.74 230.724 1797.41 230.724 Q1799.84 230.724 1802.36 231.163 Q1804.89 231.603 1807.52 232.483 Z" fill="#000000" fill-rule="evenodd" fill-opacity="1" /><path clip-path="url(#clip820)" d="M1828.5 252.876 Q1823.33 252.876 1821.34 254.057 Q1819.35 255.237 1819.35 258.085 Q1819.35 260.353 1820.83 261.696 Q1822.34 263.015 1824.91 263.015 Q1828.45 263.015 1830.58 260.515 Q1832.73 257.992 1832.73 253.825 L1832.73 252.876 L1828.5 252.876 M1836.99 251.117 L1836.99 265.909 L1832.73 265.909 L1832.73 261.973 Q1831.27 264.335 1829.1 265.469 Q1826.92 266.58 1823.77 266.58 Q1819.79 266.58 1817.43 264.358 Q1815.09 262.112 1815.09 258.362 Q1815.09 253.987 1818.01 251.765 Q1820.95 249.543 1826.76 249.543 L1832.73 249.543 L1832.73 249.126 Q1832.73 246.187 1830.79 244.589 Q1828.87 242.969 1825.37 242.969 Q1823.15 242.969 1821.04 243.501 Q1818.94 244.034 1816.99 245.099 L1816.99 241.163 Q1819.33 240.261 1821.53 239.821 Q1823.73 239.358 1825.81 239.358 Q1831.44 239.358 1834.21 242.274 Q1836.99 245.191 1836.99 251.117 Z" fill="#000000" fill-rule="evenodd" fill-opacity="1" /><path clip-path="url(#clip820)" d="M1865.95 244.96 Q1867.55 242.089 1869.77 240.724 Q1871.99 239.358 1875 239.358 Q1879.05 239.358 1881.25 242.205 Q1883.45 245.029 1883.45 250.261 L1883.45 265.909 L1879.17 265.909 L1879.17 250.399 Q1879.17 246.673 1877.85 244.867 Q1876.53 243.062 1873.82 243.062 Q1870.51 243.062 1868.59 245.261 Q1866.67 247.46 1866.67 251.256 L1866.67 265.909 L1862.39 265.909 L1862.39 250.399 Q1862.39 246.649 1861.07 244.867 Q1859.75 243.062 1856.99 243.062 Q1853.73 243.062 1851.81 245.284 Q1849.89 247.483 1849.89 251.256 L1849.89 265.909 L1845.6 265.909 L1845.6 239.983 L1849.89 239.983 L1849.89 244.011 Q1851.34 241.626 1853.38 240.492 Q1855.42 239.358 1858.22 239.358 Q1861.04 239.358 1863.01 240.793 Q1865 242.228 1865.95 244.96 Z" fill="#000000" fill-rule="evenodd" fill-opacity="1" /><path clip-path="url(#clip820)" d="M1896.07 262.02 L1896.07 275.77 L1891.78 275.77 L1891.78 239.983 L1896.07 239.983 L1896.07 243.918 Q1897.41 241.603 1899.45 240.492 Q1901.51 239.358 1904.35 239.358 Q1909.07 239.358 1912.01 243.108 Q1914.98 246.858 1914.98 252.969 Q1914.98 259.08 1912.01 262.83 Q1909.07 266.58 1904.35 266.58 Q1901.51 266.58 1899.45 265.469 Q1897.41 264.335 1896.07 262.02 M1910.56 252.969 Q1910.56 248.27 1908.61 245.608 Q1906.69 242.923 1903.31 242.923 Q1899.93 242.923 1897.99 245.608 Q1896.07 248.27 1896.07 252.969 Q1896.07 257.668 1897.99 260.353 Q1899.93 263.015 1903.31 263.015 Q1906.69 263.015 1908.61 260.353 Q1910.56 257.668 1910.56 252.969 Z" fill="#000000" fill-rule="evenodd" fill-opacity="1" /><path clip-path="url(#clip820)" d="M1922.04 229.89 L1926.3 229.89 L1926.3 265.909 L1922.04 265.909 L1922.04 229.89 Z" fill="#000000" fill-rule="evenodd" fill-opacity="1" /><path clip-path="url(#clip820)" d="M1957.38 251.881 L1957.38 253.964 L1937.8 253.964 Q1938.08 258.362 1940.44 260.677 Q1942.82 262.969 1947.06 262.969 Q1949.51 262.969 1951.81 262.367 Q1954.12 261.765 1956.39 260.561 L1956.39 264.589 Q1954.1 265.561 1951.69 266.071 Q1949.28 266.58 1946.81 266.58 Q1940.6 266.58 1936.97 262.969 Q1933.36 259.358 1933.36 253.2 Q1933.36 246.835 1936.78 243.108 Q1940.23 239.358 1946.07 239.358 Q1951.3 239.358 1954.33 242.737 Q1957.38 246.094 1957.38 251.881 M1953.13 250.631 Q1953.08 247.136 1951.16 245.052 Q1949.26 242.969 1946.11 242.969 Q1942.55 242.969 1940.39 244.983 Q1938.26 246.997 1937.94 250.654 L1953.13 250.631 Z" fill="#000000" fill-rule="evenodd" fill-opacity="1" /><path clip-path="url(#clip820)" d="M1979.63 231.349 L2001.48 231.349 L2001.48 235.284 L1984.31 235.284 L1984.31 245.515 L2000.76 245.515 L2000.76 249.45 L1984.31 249.45 L1984.31 261.973 L2001.9 261.973 L2001.9 265.909 L1979.63 265.909 L1979.63 231.349 Z" fill="#000000" fill-rule="evenodd" fill-opacity="1" /><path clip-path="url(#clip820)" d="M2025.93 240.747 L2025.93 244.774 Q2024.12 243.849 2022.18 243.386 Q2020.23 242.923 2018.15 242.923 Q2014.98 242.923 2013.38 243.895 Q2011.81 244.867 2011.81 246.811 Q2011.81 248.293 2012.94 249.149 Q2014.07 249.983 2017.5 250.747 L2018.96 251.071 Q2023.5 252.043 2025.39 253.825 Q2027.31 255.585 2027.31 258.756 Q2027.31 262.367 2024.44 264.473 Q2021.6 266.58 2016.6 266.58 Q2014.51 266.58 2012.25 266.163 Q2010 265.77 2007.5 264.96 L2007.5 260.561 Q2009.86 261.788 2012.15 262.413 Q2014.44 263.015 2016.69 263.015 Q2019.7 263.015 2021.32 261.997 Q2022.94 260.955 2022.94 259.08 Q2022.94 257.344 2021.76 256.418 Q2020.6 255.492 2016.64 254.636 L2015.16 254.288 Q2011.2 253.455 2009.44 251.742 Q2007.69 250.006 2007.69 246.997 Q2007.69 243.339 2010.28 241.349 Q2012.87 239.358 2017.64 239.358 Q2020 239.358 2022.08 239.705 Q2024.17 240.052 2025.93 240.747 Z" fill="#000000" fill-rule="evenodd" fill-opacity="1" /><path clip-path="url(#clip820)" d="M2038.31 232.622 L2038.31 239.983 L2047.08 239.983 L2047.08 243.293 L2038.31 243.293 L2038.31 257.367 Q2038.31 260.538 2039.17 261.441 Q2040.05 262.344 2042.71 262.344 L2047.08 262.344 L2047.08 265.909 L2042.71 265.909 Q2037.78 265.909 2035.9 264.08 Q2034.03 262.228 2034.03 257.367 L2034.03 243.293 L2030.9 243.293 L2030.9 239.983 L2034.03 239.983 L2034.03 232.622 L2038.31 232.622 Z" fill="#000000" fill-rule="evenodd" fill-opacity="1" /><path clip-path="url(#clip820)" d="M2052.69 239.983 L2056.94 239.983 L2056.94 265.909 L2052.69 265.909 L2052.69 239.983 M2052.69 229.89 L2056.94 229.89 L2056.94 235.284 L2052.69 235.284 L2052.69 229.89 Z" fill="#000000" fill-rule="evenodd" fill-opacity="1" /><path clip-path="url(#clip820)" d="M2086.04 244.96 Q2087.64 242.089 2089.86 240.724 Q2092.08 239.358 2095.09 239.358 Q2099.14 239.358 2101.34 242.205 Q2103.54 245.029 2103.54 250.261 L2103.54 265.909 L2099.26 265.909 L2099.26 250.399 Q2099.26 246.673 2097.94 244.867 Q2096.62 243.062 2093.91 243.062 Q2090.6 243.062 2088.68 245.261 Q2086.76 247.46 2086.76 251.256 L2086.76 265.909 L2082.48 265.909 L2082.48 250.399 Q2082.48 246.649 2081.16 244.867 Q2079.84 243.062 2077.08 243.062 Q2073.82 243.062 2071.9 245.284 Q2069.98 247.483 2069.98 251.256 L2069.98 265.909 L2065.69 265.909 L2065.69 239.983 L2069.98 239.983 L2069.98 244.011 Q2071.44 241.626 2073.47 240.492 Q2075.51 239.358 2078.31 239.358 Q2081.13 239.358 2083.1 240.793 Q2085.09 242.228 2086.04 244.96 Z" fill="#000000" fill-rule="evenodd" fill-opacity="1" /><path clip-path="url(#clip820)" d="M2123.82 252.876 Q2118.66 252.876 2116.67 254.057 Q2114.68 255.237 2114.68 258.085 Q2114.68 260.353 2116.16 261.696 Q2117.66 263.015 2120.23 263.015 Q2123.77 263.015 2125.9 260.515 Q2128.06 257.992 2128.06 253.825 L2128.06 252.876 L2123.82 252.876 M2132.31 251.117 L2132.31 265.909 L2128.06 265.909 L2128.06 261.973 Q2126.6 264.335 2124.42 265.469 Q2122.24 266.58 2119.1 266.58 Q2115.12 266.58 2112.75 264.358 Q2110.42 262.112 2110.42 258.362 Q2110.42 253.987 2113.33 251.765 Q2116.27 249.543 2122.08 249.543 L2128.06 249.543 L2128.06 249.126 Q2128.06 246.187 2126.11 244.589 Q2124.19 242.969 2120.69 242.969 Q2118.47 242.969 2116.37 243.501 Q2114.26 244.034 2112.31 245.099 L2112.31 241.163 Q2114.65 240.261 2116.85 239.821 Q2119.05 239.358 2121.13 239.358 Q2126.76 239.358 2129.54 242.274 Q2132.31 245.191 2132.31 251.117 Z" fill="#000000" fill-rule="evenodd" fill-opacity="1" /><path clip-path="url(#clip820)" d="M2145.3 232.622 L2145.3 239.983 L2154.07 239.983 L2154.07 243.293 L2145.3 243.293 L2145.3 257.367 Q2145.3 260.538 2146.16 261.441 Q2147.04 262.344 2149.7 262.344 L2154.07 262.344 L2154.07 265.909 L2149.7 265.909 Q2144.77 265.909 2142.89 264.08 Q2141.02 262.228 2141.02 257.367 L2141.02 243.293 L2137.89 243.293 L2137.89 239.983 L2141.02 239.983 L2141.02 232.622 L2145.3 232.622 Z" fill="#000000" fill-rule="evenodd" fill-opacity="1" /><path clip-path="url(#clip820)" d="M2181.85 251.881 L2181.85 253.964 L2162.27 253.964 Q2162.55 258.362 2164.91 260.677 Q2167.29 262.969 2171.53 262.969 Q2173.98 262.969 2176.27 262.367 Q2178.59 261.765 2180.86 260.561 L2180.86 264.589 Q2178.56 265.561 2176.16 266.071 Q2173.75 266.58 2171.27 266.58 Q2165.07 266.58 2161.43 262.969 Q2157.82 259.358 2157.82 253.2 Q2157.82 246.835 2161.25 243.108 Q2164.7 239.358 2170.53 239.358 Q2175.76 239.358 2178.8 242.737 Q2181.85 246.094 2181.85 251.881 M2177.59 250.631 Q2177.55 247.136 2175.62 245.052 Q2173.73 242.969 2170.58 242.969 Q2167.01 242.969 2164.86 244.983 Q2162.73 246.997 2162.41 250.654 L2177.59 250.631 Z" fill="#000000" fill-rule="evenodd" fill-opacity="1" /><polyline clip-path="url(#clip820)" style="stroke:#800080; stroke-linecap:round; stroke-linejoin:round; stroke-width:8; stroke-opacity:1; fill:none" stroke-dasharray="32, 20" points="
  1620.36,300.469 1761.72,300.469 
  "/>
<path clip-path="url(#clip820)" d="M1785.28 283.189 L1805.14 283.189 L1805.14 287.124 L1789.96 287.124 L1789.96 297.309 L1803.66 297.309 L1803.66 301.244 L1789.96 301.244 L1789.96 317.749 L1785.28 317.749 L1785.28 283.189 Z" fill="#000000" fill-rule="evenodd" fill-opacity="1" /><path clip-path="url(#clip820)" d="M1819.79 304.716 Q1814.63 304.716 1812.64 305.897 Q1810.65 307.077 1810.65 309.925 Q1810.65 312.193 1812.13 313.536 Q1813.64 314.855 1816.2 314.855 Q1819.75 314.855 1821.88 312.355 Q1824.03 309.832 1824.03 305.665 L1824.03 304.716 L1819.79 304.716 M1828.29 302.957 L1828.29 317.749 L1824.03 317.749 L1824.03 313.813 Q1822.57 316.175 1820.39 317.309 Q1818.22 318.42 1815.07 318.42 Q1811.09 318.42 1808.73 316.198 Q1806.39 313.952 1806.39 310.202 Q1806.39 305.827 1809.31 303.605 Q1812.25 301.383 1818.06 301.383 L1824.03 301.383 L1824.03 300.966 Q1824.03 298.027 1822.08 296.429 Q1820.16 294.809 1816.67 294.809 Q1814.45 294.809 1812.34 295.341 Q1810.23 295.874 1808.29 296.939 L1808.29 293.003 Q1810.63 292.101 1812.83 291.661 Q1815.02 291.198 1817.11 291.198 Q1822.73 291.198 1825.51 294.114 Q1828.29 297.031 1828.29 302.957 Z" fill="#000000" fill-rule="evenodd" fill-opacity="1" /><path clip-path="url(#clip820)" d="M1837.06 291.823 L1841.32 291.823 L1841.32 317.749 L1837.06 317.749 L1837.06 291.823 M1837.06 281.73 L1841.32 281.73 L1841.32 287.124 L1837.06 287.124 L1837.06 281.73 Z" fill="#000000" fill-rule="evenodd" fill-opacity="1" /><path clip-path="url(#clip820)" d="M1865.26 295.804 Q1864.54 295.388 1863.68 295.202 Q1862.85 294.994 1861.83 294.994 Q1858.22 294.994 1856.27 297.355 Q1854.35 299.693 1854.35 304.091 L1854.35 317.749 L1850.07 317.749 L1850.07 291.823 L1854.35 291.823 L1854.35 295.851 Q1855.7 293.489 1857.85 292.355 Q1860 291.198 1863.08 291.198 Q1863.52 291.198 1864.05 291.267 Q1864.58 291.314 1865.23 291.429 L1865.26 295.804 Z" fill="#000000" fill-rule="evenodd" fill-opacity="1" /><path clip-path="url(#clip820)" d="M1893.89 317.749 L1880.7 283.189 L1885.58 283.189 L1896.53 312.286 L1907.5 283.189 L1912.36 283.189 L1899.19 317.749 L1893.89 317.749 Z" fill="#000000" fill-rule="evenodd" fill-opacity="1" /><path clip-path="url(#clip820)" d="M1925.32 304.716 Q1920.16 304.716 1918.17 305.897 Q1916.18 307.077 1916.18 309.925 Q1916.18 312.193 1917.66 313.536 Q1919.17 314.855 1921.74 314.855 Q1925.28 314.855 1927.41 312.355 Q1929.56 309.832 1929.56 305.665 L1929.56 304.716 L1925.32 304.716 M1933.82 302.957 L1933.82 317.749 L1929.56 317.749 L1929.56 313.813 Q1928.1 316.175 1925.93 317.309 Q1923.75 318.42 1920.6 318.42 Q1916.62 318.42 1914.26 316.198 Q1911.92 313.952 1911.92 310.202 Q1911.92 305.827 1914.84 303.605 Q1917.78 301.383 1923.59 301.383 L1929.56 301.383 L1929.56 300.966 Q1929.56 298.027 1927.62 296.429 Q1925.7 294.809 1922.2 294.809 Q1919.98 294.809 1917.87 295.341 Q1915.76 295.874 1913.82 296.939 L1913.82 293.003 Q1916.16 292.101 1918.36 291.661 Q1920.56 291.198 1922.64 291.198 Q1928.26 291.198 1931.04 294.114 Q1933.82 297.031 1933.82 302.957 Z" fill="#000000" fill-rule="evenodd" fill-opacity="1" /><path clip-path="url(#clip820)" d="M1942.59 281.73 L1946.85 281.73 L1946.85 317.749 L1942.59 317.749 L1942.59 281.73 Z" fill="#000000" fill-rule="evenodd" fill-opacity="1" /><path clip-path="url(#clip820)" d="M1955.32 307.517 L1955.32 291.823 L1959.58 291.823 L1959.58 307.355 Q1959.58 311.036 1961.02 312.888 Q1962.45 314.716 1965.32 314.716 Q1968.77 314.716 1970.76 312.517 Q1972.78 310.318 1972.78 306.522 L1972.78 291.823 L1977.04 291.823 L1977.04 317.749 L1972.78 317.749 L1972.78 313.767 Q1971.23 316.128 1969.17 317.286 Q1967.13 318.42 1964.42 318.42 Q1959.95 318.42 1957.64 315.642 Q1955.32 312.864 1955.32 307.517 M1966.04 291.198 L1966.04 291.198 Z" fill="#000000" fill-rule="evenodd" fill-opacity="1" /><path clip-path="url(#clip820)" d="M2007.99 303.721 L2007.99 305.804 L1988.4 305.804 Q1988.68 310.202 1991.04 312.517 Q1993.43 314.809 1997.66 314.809 Q2000.12 314.809 2002.41 314.207 Q2004.72 313.605 2006.99 312.401 L2006.99 316.429 Q2004.7 317.401 2002.29 317.911 Q1999.88 318.42 1997.41 318.42 Q1991.2 318.42 1987.57 314.809 Q1983.96 311.198 1983.96 305.04 Q1983.96 298.675 1987.38 294.948 Q1990.83 291.198 1996.67 291.198 Q2001.9 291.198 2004.93 294.577 Q2007.99 297.934 2007.99 303.721 M2003.73 302.471 Q2003.68 298.976 2001.76 296.892 Q1999.86 294.809 1996.71 294.809 Q1993.15 294.809 1991 296.823 Q1988.87 298.837 1988.54 302.494 L2003.73 302.471 Z" fill="#000000" fill-rule="evenodd" fill-opacity="1" /></svg>
