<?xml version="1.0" encoding="utf-8"?>
<svg xmlns="http://www.w3.org/2000/svg" xmlns:xlink="http://www.w3.org/1999/xlink" width="600" height="400" viewBox="0 0 2400 1600">
<defs>
  <clipPath id="clip560">
    <rect x="0" y="0" width="2400" height="1600"/>
  </clipPath>
</defs>
<path clip-path="url(#clip560)" d="
M0 1600 L2400 1600 L2400 0 L0 0  Z
  " fill="#ffffff" fill-rule="evenodd" fill-opacity="1"/>
<defs>
  <clipPath id="clip561">
    <rect x="480" y="0" width="1681" height="1600"/>
  </clipPath>
</defs>
<path clip-path="url(#clip560)" d="
M47.2441 1476.53 L2352.76 1476.53 L2352.76 47.2441 L47.2441 47.2441  Z
  " fill="#ffffff" fill-rule="evenodd" fill-opacity="1"/>
<defs>
  <clipPath id="clip562">
    <rect x="47" y="47" width="2307" height="1430"/>
  </clipPath>
</defs>
<polyline clip-path="url(#clip560)" style="stroke:#000000; stroke-linecap:round; stroke-linejoin:round; stroke-width:4; stroke-opacity:1; fill:none" points="
  47.2441,1476.53 2352.76,1476.53 
  "/>
<path clip-path="url(#clip560)" d="M1057.67 1585.1 L1034.58 1524.62 L1043.13 1524.62 L1062.29 1575.54 L1081.49 1524.62 L1090 1524.62 L1066.95 1585.1 L1057.67 1585.1 Z" fill="#000000" fill-rule="evenodd" fill-opacity="1" /><path clip-path="url(#clip560)" d="M1112.68 1562.3 Q1103.65 1562.3 1100.17 1564.36 Q1096.68 1566.43 1096.68 1571.41 Q1096.68 1575.38 1099.27 1577.73 Q1101.91 1580.04 1106.4 1580.04 Q1112.6 1580.04 1116.33 1575.67 Q1120.1 1571.25 1120.1 1563.96 L1120.1 1562.3 L1112.68 1562.3 M1127.55 1559.22 L1127.55 1585.1 L1120.1 1585.1 L1120.1 1578.22 Q1117.54 1582.35 1113.74 1584.33 Q1109.93 1586.28 1104.42 1586.28 Q1097.45 1586.28 1093.32 1582.39 Q1089.23 1578.46 1089.23 1571.9 Q1089.23 1564.24 1094.33 1560.35 Q1099.48 1556.46 1109.64 1556.46 L1120.1 1556.46 L1120.1 1555.73 Q1120.1 1550.59 1116.69 1547.8 Q1113.33 1544.96 1107.21 1544.96 Q1103.33 1544.96 1099.64 1545.89 Q1095.95 1546.82 1092.55 1548.69 L1092.55 1541.8 Q1096.64 1540.22 1100.49 1539.45 Q1104.34 1538.64 1107.98 1538.64 Q1117.83 1538.64 1122.69 1543.74 Q1127.55 1548.85 1127.55 1559.22 Z" fill="#000000" fill-rule="evenodd" fill-opacity="1" /><path clip-path="url(#clip560)" d="M1169.19 1546.7 Q1167.94 1545.97 1166.44 1545.65 Q1164.98 1545.28 1163.2 1545.28 Q1156.88 1545.28 1153.48 1549.42 Q1150.11 1553.51 1150.11 1561.2 L1150.11 1585.1 L1142.62 1585.1 L1142.62 1539.73 L1150.11 1539.73 L1150.11 1546.78 Q1152.46 1542.65 1156.23 1540.67 Q1160 1538.64 1165.39 1538.64 Q1166.15 1538.64 1167.09 1538.76 Q1168.02 1538.84 1169.15 1539.05 L1169.19 1546.7 Z" fill="#000000" fill-rule="evenodd" fill-opacity="1" /><path clip-path="url(#clip560)" d="M1177.01 1539.73 L1184.46 1539.73 L1184.46 1585.1 L1177.01 1585.1 L1177.01 1539.73 M1177.01 1522.07 L1184.46 1522.07 L1184.46 1531.51 L1177.01 1531.51 L1177.01 1522.07 Z" fill="#000000" fill-rule="evenodd" fill-opacity="1" /><path clip-path="url(#clip560)" d="M1220.68 1562.3 Q1211.65 1562.3 1208.16 1564.36 Q1204.68 1566.43 1204.68 1571.41 Q1204.68 1575.38 1207.27 1577.73 Q1209.9 1580.04 1214.4 1580.04 Q1220.6 1580.04 1224.33 1575.67 Q1228.09 1571.25 1228.09 1563.96 L1228.09 1562.3 L1220.68 1562.3 M1235.55 1559.22 L1235.55 1585.1 L1228.09 1585.1 L1228.09 1578.22 Q1225.54 1582.35 1221.73 1584.33 Q1217.93 1586.28 1212.42 1586.28 Q1205.45 1586.28 1201.32 1582.39 Q1197.23 1578.46 1197.23 1571.9 Q1197.23 1564.24 1202.33 1560.35 Q1207.47 1556.46 1217.64 1556.46 L1228.09 1556.46 L1228.09 1555.73 Q1228.09 1550.59 1224.69 1547.8 Q1221.33 1544.96 1215.21 1544.96 Q1211.32 1544.96 1207.64 1545.89 Q1203.95 1546.82 1200.55 1548.69 L1200.55 1541.8 Q1204.64 1540.22 1208.49 1539.45 Q1212.34 1538.64 1215.98 1538.64 Q1225.82 1538.64 1230.69 1543.74 Q1235.55 1548.85 1235.55 1559.22 Z" fill="#000000" fill-rule="evenodd" fill-opacity="1" /><path clip-path="url(#clip560)" d="M1283.47 1562.46 Q1283.47 1554.24 1280.07 1549.58 Q1276.7 1544.88 1270.79 1544.88 Q1264.88 1544.88 1261.47 1549.58 Q1258.11 1554.24 1258.11 1562.46 Q1258.11 1570.68 1261.47 1575.38 Q1264.88 1580.04 1270.79 1580.04 Q1276.7 1580.04 1280.07 1575.38 Q1283.47 1570.68 1283.47 1562.46 M1258.11 1546.62 Q1260.46 1542.57 1264.02 1540.62 Q1267.63 1538.64 1272.61 1538.64 Q1280.88 1538.64 1286.02 1545.2 Q1291.21 1551.76 1291.21 1562.46 Q1291.21 1573.15 1286.02 1579.72 Q1280.88 1586.28 1272.61 1586.28 Q1267.63 1586.28 1264.02 1584.33 Q1260.46 1582.35 1258.11 1578.3 L1258.11 1585.1 L1250.62 1585.1 L1250.62 1522.07 L1258.11 1522.07 L1258.11 1546.62 Z" fill="#000000" fill-rule="evenodd" fill-opacity="1" /><path clip-path="url(#clip560)" d="M1303.56 1522.07 L1311.02 1522.07 L1311.02 1585.1 L1303.56 1585.1 L1303.56 1522.07 Z" fill="#000000" fill-rule="evenodd" fill-opacity="1" /><path clip-path="url(#clip560)" d="M1365.42 1560.56 L1365.42 1564.2 L1331.15 1564.2 Q1331.63 1571.9 1335.77 1575.95 Q1339.94 1579.96 1347.35 1579.96 Q1351.65 1579.96 1355.66 1578.91 Q1359.71 1577.85 1363.68 1575.75 L1363.68 1582.79 Q1359.67 1584.5 1355.45 1585.39 Q1351.24 1586.28 1346.91 1586.28 Q1336.05 1586.28 1329.69 1579.96 Q1323.37 1573.64 1323.37 1562.86 Q1323.37 1551.72 1329.37 1545.2 Q1335.4 1538.64 1345.61 1538.64 Q1354.76 1538.64 1360.07 1544.55 Q1365.42 1550.43 1365.42 1560.56 M1357.97 1558.37 Q1357.88 1552.25 1354.52 1548.61 Q1351.2 1544.96 1345.69 1544.96 Q1339.45 1544.96 1335.69 1548.48 Q1331.96 1552.01 1331.39 1558.41 L1357.97 1558.37 Z" fill="#000000" fill-rule="evenodd" fill-opacity="1" /><polyline clip-path="url(#clip560)" style="stroke:#000000; stroke-linecap:round; stroke-linejoin:round; stroke-width:4; stroke-opacity:1; fill:none" points="
  47.2441,1476.53 47.2441,47.2441 
  "/>
<polyline clip-path="url(#clip562)" style="stroke:#000000; stroke-linecap:round; stroke-linejoin:round; stroke-width:8; stroke-opacity:1; fill:none" points="
  112.494,1434.74 119.32,1434.61 126.146,1434.48 189.26,1432.53 252.374,1428.59 290.303,1424.63 328.232,1418.88 360.3,1412.17 392.368,1403.27 409.786,1397.33 
  427.203,1390.48 444.621,1382.62 462.039,1373.66 478.096,1364.31 494.154,1353.82 510.211,1342.12 526.269,1329.09 543.484,1313.55 560.699,1296.27 577.915,1277.16 
  595.13,1256.1 615.076,1229.16 635.021,1199.37 654.967,1166.65 674.913,1130.94 692.638,1096.67 710.363,1060.05 728.089,1021.12 745.814,979.97 761.358,942.147 
  776.901,902.811 792.445,862.09 807.988,820.134 841.881,725.241 875.775,627.501 909.869,528.944 943.964,433.152 953.388,407.591 962.812,382.556 972.236,358.117 
  981.66,334.343 991.084,311.303 1000.51,289.063 1009.93,267.69 1019.36,247.248 1028.32,228.719 1037.29,211.141 1046.26,194.564 1055.22,179.035 1064.19,164.599 
  1073.16,151.298 1082.12,139.17 1091.09,128.252 1100.41,118.216 1109.74,109.556 1119.06,102.298 1128.38,96.466 1137.71,92.0796 1147.03,89.1529 1156.35,87.6955 
  1165.68,87.7121 1173.52,88.8689 1181.37,91.0675 1189.22,94.3029 1197.07,98.5676 1204.92,103.852 1212.77,110.143 1220.61,117.427 1228.46,125.687 1238.04,137.067 
  1247.63,149.835 1257.21,163.948 1266.79,179.359 1276.37,196.016 1285.95,213.866 1295.53,232.849 1305.12,252.906 1322.67,292.222 1340.23,334.511 1349,356.637 
  1357.78,379.343 1366.56,402.574 1375.34,426.274 1407.76,516.971 1440.19,610.517 1473.04,705.497 1505.89,798.267 1524.29,848.499 1542.7,897.078 1561.1,943.743 
  1579.51,988.282 1596.19,1026.66 1612.87,1063.06 1629.55,1097.41 1646.23,1129.67 1665.32,1164.02 1684.42,1195.63 1703.52,1224.54 1722.61,1250.82 1740.29,1272.91 
  1757.98,1292.92 1775.66,1310.98 1793.34,1327.18 1810.77,1341.47 1828.2,1354.2 1845.64,1365.48 1863.07,1375.44 1879.99,1383.96 1896.92,1391.44 1913.84,1397.98 
  1930.77,1403.69 1965.47,1413.11 2000.17,1420.03 2038.19,1425.44 2076.21,1429.15 2131.44,1432.48 2186.66,1434.28 2197.99,1434.52 2209.32,1434.74 
  "/>
<polyline clip-path="url(#clip562)" style="stroke:#000000; stroke-linecap:round; stroke-linejoin:round; stroke-width:8; stroke-opacity:1; fill:none" stroke-dasharray="32, 20" points="
  182.971,1434.74 189.797,1434.61 196.623,1434.48 259.736,1432.53 322.85,1428.59 360.779,1424.63 398.708,1418.88 430.776,1412.17 462.845,1403.27 480.262,1397.33 
  497.68,1390.48 515.098,1382.62 532.515,1373.66 548.573,1364.31 564.63,1353.82 580.688,1342.12 596.745,1329.09 613.961,1313.55 631.176,1296.27 648.391,1277.16 
  665.607,1256.1 685.552,1229.16 705.498,1199.37 725.444,1166.65 745.389,1130.94 763.115,1096.67 780.84,1060.05 798.565,1021.12 816.291,979.97 831.834,942.147 
  847.378,902.811 862.921,862.09 878.465,820.134 912.358,725.241 946.251,627.501 980.346,528.944 1014.44,433.152 1023.86,407.591 1033.29,382.556 1042.71,358.117 
  1052.14,334.343 1061.56,311.303 1070.98,289.063 1080.41,267.69 1089.83,247.248 1098.8,228.719 1107.77,211.141 1116.73,194.564 1125.7,179.035 1134.67,164.599 
  1143.63,151.298 1152.6,139.17 1161.57,128.252 1170.89,118.216 1180.21,109.556 1189.54,102.298 1198.86,96.466 1208.18,92.0796 1217.51,89.1529 1226.83,87.6955 
  1236.15,87.7121 1244,88.8689 1251.85,91.0675 1259.7,94.3029 1267.55,98.5676 1275.39,103.852 1283.24,110.143 1291.09,117.427 1298.94,125.687 1308.52,137.067 
  1318.1,149.835 1327.68,163.948 1337.27,179.359 1346.85,196.016 1356.43,213.866 1366.01,232.849 1375.59,252.906 1393.15,292.222 1410.7,334.511 1419.48,356.637 
  1428.26,379.343 1437.04,402.574 1445.81,426.274 1478.24,516.971 1510.67,610.517 1543.51,705.497 1576.36,798.267 1594.77,848.499 1613.17,897.078 1631.58,943.743 
  1649.99,988.282 1666.67,1026.66 1683.35,1063.06 1700.02,1097.41 1716.7,1129.67 1735.8,1164.02 1754.9,1195.63 1773.99,1224.54 1793.09,1250.82 1810.77,1272.91 
  1828.45,1292.92 1846.13,1310.98 1863.82,1327.18 1881.25,1341.47 1898.68,1354.2 1916.11,1365.48 1933.54,1375.44 1950.47,1383.96 1967.39,1391.44 1984.32,1397.98 
  2001.24,1403.69 2035.95,1413.11 2070.65,1420.03 2108.66,1425.44 2146.68,1429.15 2201.91,1432.48 2257.14,1434.28 2268.47,1434.52 2279.8,1434.74 
  "/>
<path clip-path="url(#clip562)" d="
M1816.72 1345.98 L1818.13 1347.03 L1819.54 1348.06 L1820.95 1349.08 L1822.36 1350.1 L1823.77 1351.1 L1825.18 1352.09 L1826.59 1353.08 L1828 1354.05 L1829.41 1355.02 
  L1830.82 1355.98 L1832.23 1356.92 L1833.64 1357.86 L1835.05 1358.79 L1836.46 1359.71 L1837.86 1360.62 L1839.27 1361.52 L1840.68 1362.41 L1842.09 1363.3 L1843.5 1364.17 
  L1844.91 1365.04 L1846.32 1365.9 L1847.73 1366.75 L1849.14 1367.59 L1850.55 1368.42 L1851.96 1369.24 L1853.37 1370.06 L1854.78 1370.86 L1856.19 1371.66 L1857.6 1372.45 
  L1859.01 1373.23 L1860.42 1374.01 L1861.83 1374.77 L1863.24 1375.53 L1864.65 1376.28 L1866.06 1377.02 L1867.46 1377.76 L1868.87 1378.49 L1870.28 1379.21 L1871.69 1379.92 
  L1873.1 1380.62 L1874.51 1381.32 L1875.92 1382.01 L1877.33 1382.69 L1878.74 1383.36 L1880.15 1384.03 L1881.56 1384.69 L1882.97 1385.35 L1884.38 1385.99 L1885.79 1386.63 
  L1887.2 1387.26 L1888.61 1387.89 L1890.02 1388.51 L1891.43 1389.12 L1892.84 1389.72 L1894.25 1390.32 L1895.66 1390.91 L1897.07 1391.5 L1898.47 1392.08 L1899.88 1392.65 
  L1901.29 1393.22 L1902.7 1393.78 L1904.11 1394.33 L1905.52 1394.88 L1906.93 1395.42 L1908.34 1395.95 L1909.75 1396.48 L1911.16 1397 L1912.57 1397.52 L1913.98 1398.03 
  L1915.39 1398.54 L1916.8 1399.04 L1918.21 1399.53 L1919.62 1400.02 L1921.03 1400.5 L1922.44 1400.98 L1923.85 1401.45 L1925.26 1401.92 L1926.67 1402.38 L1928.07 1402.83 
  L1929.48 1403.28 L1930.89 1403.72 L1932.3 1404.16 L1933.71 1404.6 L1935.12 1405.03 L1936.53 1405.45 L1937.94 1405.87 L1939.35 1406.28 L1940.76 1406.69 L1942.17 1407.1 
  L1943.58 1407.5 L1944.99 1407.89 L1946.4 1408.28 L1947.81 1408.66 L1949.22 1409.04 L1950.63 1409.42 L1952.04 1409.79 L1953.45 1410.16 L1954.86 1410.52 L1956.27 1410.88 
  L1957.67 1411.23 L1959.08 1411.58 L1960.49 1411.92 L1961.9 1412.27 L1963.31 1412.6 L1964.72 1412.93 L1966.13 1413.26 L1967.54 1413.59 L1968.95 1413.9 L1970.36 1414.22 
  L1971.77 1414.53 L1973.18 1414.84 L1974.59 1415.14 L1976 1415.44 L1977.41 1415.74 L1978.82 1416.03 L1980.23 1416.32 L1981.64 1416.61 L1983.05 1416.89 L1984.46 1417.17 
  L1985.87 1417.44 L1987.28 1417.71 L1988.68 1417.98 L1990.09 1418.24 L1991.5 1418.5 L1992.91 1418.76 L1994.32 1419.02 L1995.73 1419.27 L1997.14 1419.51 L1998.55 1419.76 
  L1999.96 1420 L2001.37 1420.24 L2002.78 1420.47 L2004.19 1420.7 L2005.6 1420.93 L2007.01 1421.16 L2008.42 1421.38 L2009.83 1421.6 L2011.24 1421.81 L2012.65 1422.03 
  L2014.06 1422.24 L2015.47 1422.45 L2016.88 1422.65 L2018.28 1422.85 L2019.69 1423.05 L2021.1 1423.25 L2022.51 1423.45 L2023.92 1423.64 L2025.33 1423.83 L2026.74 1424.01 
  L2028.15 1424.2 L2029.56 1424.38 L2030.97 1424.56 L2032.38 1424.73 L2033.79 1424.91 L2035.2 1425.08 L2036.61 1425.25 L2038.02 1425.42 L2039.43 1425.58 L2040.84 1425.74 
  L2042.25 1425.9 L2043.66 1426.06 L2045.07 1426.22 L2046.48 1426.37 L2047.89 1426.52 L2049.29 1426.67 L2050.7 1426.82 L2052.11 1426.96 L2053.52 1427.11 L2054.93 1427.25 
  L2056.34 1427.39 L2057.75 1427.52 L2059.16 1427.66 L2060.57 1427.79 L2061.98 1427.92 L2063.39 1428.05 L2064.8 1428.18 L2066.21 1428.31 L2067.62 1428.43 L2069.03 1428.55 
  L2070.44 1428.67 L2071.85 1428.79 L2073.26 1428.91 L2074.67 1429.02 L2076.08 1429.14 L2077.49 1429.25 L2078.89 1429.36 L2080.3 1429.47 L2081.71 1429.57 L2083.12 1429.68 
  L2084.53 1429.78 L2085.94 1429.89 L2087.35 1429.99 L2088.76 1430.09 L2090.17 1430.18 L2091.58 1430.28 L2092.99 1430.37 L2094.4 1430.47 L2095.81 1430.56 L2097.22 1430.65 
  L2098.63 1430.74 L2100.04 1430.83 L2101.45 1430.92 L2102.86 1431 L2104.27 1431.08 L2105.68 1431.17 L2107.09 1431.25 L2108.49 1431.33 L2109.9 1431.41 L2111.31 1431.49 
  L2112.72 1431.56 L2114.13 1431.64 L2115.54 1431.71 L2116.95 1431.79 L2118.36 1431.86 L2119.77 1431.93 L2121.18 1432 L2122.59 1432.07 L2124 1432.14 L2125.41 1432.2 
  L2126.82 1432.27 L2128.23 1432.33 L2129.64 1432.4 L2131.05 1432.46 L2132.46 1432.52 L2133.87 1432.58 L2135.28 1432.64 L2136.69 1432.7 L2138.1 1432.76 L2139.5 1432.82 
  L2140.91 1432.87 L2142.32 1432.93 L2143.73 1432.98 L2145.14 1433.04 L2146.55 1433.09 L2147.96 1433.14 L2149.37 1433.19 L2150.78 1433.24 L2152.19 1433.29 L2153.6 1433.34 
  L2155.01 1433.39 L2156.42 1433.43 L2157.83 1433.48 L2159.24 1433.53 L2160.65 1433.57 L2162.06 1433.61 L2163.47 1433.66 L2164.88 1433.7 L2166.29 1433.74 L2167.7 1433.78 
  L2169.1 1433.82 L2170.51 1433.86 L2171.92 1433.9 L2173.33 1433.94 L2174.74 1433.98 L2176.15 1434.02 L2177.56 1434.05 L2178.97 1434.09 L2180.38 1434.13 L2181.79 1434.16 
  L2183.2 1434.2 L2184.61 1434.23 L2186.02 1434.26 L2187.43 1434.3 L2188.84 1434.33 L2190.25 1434.36 L2191.66 1434.39 L2193.07 1434.42 L2194.48 1434.45 L2195.89 1434.48 
  L2197.3 1434.51 L2198.71 1434.54 L2200.11 1434.57 L2201.52 1434.59 L2202.93 1434.62 L2204.34 1434.65 L2205.75 1434.67 L2207.16 1434.7 L2208.57 1434.73 L2209.98 1434.75 
  L2211.39 1434.77 L2212.8 1434.8 L2214.21 1434.82 L2215.62 1434.85 L2217.03 1434.87 L2218.44 1434.89 L2219.85 1434.91 L2221.26 1434.93 L2222.67 1434.96 L2224.08 1434.98 
  L2225.49 1435 L2226.9 1435.02 L2228.31 1435.04 L2229.71 1435.06 L2231.12 1435.08 L2232.53 1435.09 L2233.94 1435.11 L2235.35 1435.13 L2236.76 1435.15 L2238.17 1435.17 
  L2239.58 1435.18 L2240.99 1435.2 L2242.4 1435.22 L2243.81 1435.23 L2245.22 1435.25 L2246.63 1435.27 L2248.04 1435.28 L2249.45 1435.3 L2250.86 1435.31 L2252.27 1435.33 
  L2253.68 1435.34 L2255.09 1435.35 L2256.5 1435.37 L2257.91 1435.38 L2259.31 1435.4 L2260.72 1435.41 L2262.13 1435.42 L2263.54 1435.43 L2264.95 1435.45 L2266.36 1435.46 
  L2267.77 1435.47 L2269.18 1435.48 L2270.59 1435.49 L2272 1435.51 L2273.41 1435.52 L2274.82 1435.53 L2276.23 1435.54 L2277.64 1435.55 L2279.05 1435.56 L2280.46 1435.57 
  L2281.87 1435.58 L2283.28 1435.59 L2284.69 1435.6 L2286.1 1435.61 L2287.51 1435.62 L2287.51 1436.08 L2286.1 1436.08 L2284.69 1436.08 L2283.28 1436.08 L2281.87 1436.08 
  L2280.46 1436.08 L2279.05 1436.08 L2277.64 1436.08 L2276.23 1436.08 L2274.82 1436.08 L2273.41 1436.08 L2272 1436.08 L2270.59 1436.08 L2269.18 1436.08 L2267.77 1436.08 
  L2266.36 1436.08 L2264.95 1436.08 L2263.54 1436.08 L2262.13 1436.08 L2260.72 1436.08 L2259.31 1436.08 L2257.91 1436.08 L2256.5 1436.08 L2255.09 1436.08 L2253.68 1436.08 
  L2252.27 1436.08 L2250.86 1436.08 L2249.45 1436.08 L2248.04 1436.08 L2246.63 1436.08 L2245.22 1436.08 L2243.81 1436.08 L2242.4 1436.08 L2240.99 1436.08 L2239.58 1436.08 
  L2238.17 1436.08 L2236.76 1436.08 L2235.35 1436.08 L2233.94 1436.08 L2232.53 1436.08 L2231.12 1436.08 L2229.71 1436.08 L2228.31 1436.08 L2226.9 1436.08 L2225.49 1436.08 
  L2224.08 1436.08 L2222.67 1436.08 L2221.26 1436.08 L2219.85 1436.08 L2218.44 1436.08 L2217.03 1436.08 L2215.62 1436.08 L2214.21 1436.08 L2212.8 1436.08 L2211.39 1436.08 
  L2209.98 1436.08 L2208.57 1436.08 L2207.16 1436.08 L2205.75 1436.08 L2204.34 1436.08 L2202.93 1436.08 L2201.52 1436.08 L2200.11 1436.08 L2198.71 1436.08 L2197.3 1436.08 
  L2195.89 1436.08 L2194.48 1436.08 L2193.07 1436.08 L2191.66 1436.08 L2190.25 1436.08 L2188.84 1436.08 L2187.43 1436.08 L2186.02 1436.08 L2184.61 1436.08 L2183.2 1436.08 
  L2181.79 1436.08 L2180.38 1436.08 L2178.97 1436.08 L2177.56 1436.08 L2176.15 1436.08 L2174.74 1436.08 L2173.33 1436.08 L2171.92 1436.08 L2170.51 1436.08 L2169.1 1436.08 
  L2167.7 1436.08 L2166.29 1436.08 L2164.88 1436.08 L2163.47 1436.08 L2162.06 1436.08 L2160.65 1436.08 L2159.24 1436.08 L2157.83 1436.08 L2156.42 1436.08 L2155.01 1436.08 
  L2153.6 1436.08 L2152.19 1436.08 L2150.78 1436.08 L2149.37 1436.08 L2147.96 1436.08 L2146.55 1436.08 L2145.14 1436.08 L2143.73 1436.08 L2142.32 1436.08 L2140.91 1436.08 
  L2139.5 1436.08 L2138.1 1436.08 L2136.69 1436.08 L2135.28 1436.08 L2133.87 1436.08 L2132.46 1436.08 L2131.05 1436.08 L2129.64 1436.08 L2128.23 1436.08 L2126.82 1436.08 
  L2125.41 1436.08 L2124 1436.08 L2122.59 1436.08 L2121.18 1436.08 L2119.77 1436.08 L2118.36 1436.08 L2116.95 1436.08 L2115.54 1436.08 L2114.13 1436.08 L2112.72 1436.08 
  L2111.31 1436.08 L2109.9 1436.08 L2108.49 1436.08 L2107.09 1436.08 L2105.68 1436.08 L2104.27 1436.08 L2102.86 1436.08 L2101.45 1436.08 L2100.04 1436.08 L2098.63 1436.08 
  L2097.22 1436.08 L2095.81 1436.08 L2094.4 1436.08 L2092.99 1436.08 L2091.58 1436.08 L2090.17 1436.08 L2088.76 1436.08 L2087.35 1436.08 L2085.94 1436.08 L2084.53 1436.08 
  L2083.12 1436.08 L2081.71 1436.08 L2080.3 1436.08 L2078.89 1436.08 L2077.49 1436.08 L2076.08 1436.08 L2074.67 1436.08 L2073.26 1436.08 L2071.85 1436.08 L2070.44 1436.08 
  L2069.03 1436.08 L2067.62 1436.08 L2066.21 1436.08 L2064.8 1436.08 L2063.39 1436.08 L2061.98 1436.08 L2060.57 1436.08 L2059.16 1436.08 L2057.75 1436.08 L2056.34 1436.08 
  L2054.93 1436.08 L2053.52 1436.08 L2052.11 1436.08 L2050.7 1436.08 L2049.29 1436.08 L2047.89 1436.08 L2046.48 1436.08 L2045.07 1436.08 L2043.66 1436.08 L2042.25 1436.08 
  L2040.84 1436.08 L2039.43 1436.08 L2038.02 1436.08 L2036.61 1436.08 L2035.2 1436.08 L2033.79 1436.08 L2032.38 1436.08 L2030.97 1436.08 L2029.56 1436.08 L2028.15 1436.08 
  L2026.74 1436.08 L2025.33 1436.08 L2023.92 1436.08 L2022.51 1436.08 L2021.1 1436.08 L2019.69 1436.08 L2018.28 1436.08 L2016.88 1436.08 L2015.47 1436.08 L2014.06 1436.08 
  L2012.65 1436.08 L2011.24 1436.08 L2009.83 1436.08 L2008.42 1436.08 L2007.01 1436.08 L2005.6 1436.08 L2004.19 1436.08 L2002.78 1436.08 L2001.37 1436.08 L1999.96 1436.08 
  L1998.55 1436.08 L1997.14 1436.08 L1995.73 1436.08 L1994.32 1436.08 L1992.91 1436.08 L1991.5 1436.08 L1990.09 1436.08 L1988.68 1436.08 L1987.28 1436.08 L1985.87 1436.08 
  L1984.46 1436.08 L1983.05 1436.08 L1981.64 1436.08 L1980.23 1436.08 L1978.82 1436.08 L1977.41 1436.08 L1976 1436.08 L1974.59 1436.08 L1973.18 1436.08 L1971.77 1436.08 
  L1970.36 1436.08 L1968.95 1436.08 L1967.54 1436.08 L1966.13 1436.08 L1964.72 1436.08 L1963.31 1436.08 L1961.9 1436.08 L1960.49 1436.08 L1959.08 1436.08 L1957.67 1436.08 
  L1956.27 1436.08 L1954.86 1436.08 L1953.45 1436.08 L1952.04 1436.08 L1950.63 1436.08 L1949.22 1436.08 L1947.81 1436.08 L1946.4 1436.08 L1944.99 1436.08 L1943.58 1436.08 
  L1942.17 1436.08 L1940.76 1436.08 L1939.35 1436.08 L1937.94 1436.08 L1936.53 1436.08 L1935.12 1436.08 L1933.71 1436.08 L1932.3 1436.08 L1930.89 1436.08 L1929.48 1436.08 
  L1928.07 1436.08 L1926.67 1436.08 L1925.26 1436.08 L1923.85 1436.08 L1922.44 1436.08 L1921.03 1436.08 L1919.62 1436.08 L1918.21 1436.08 L1916.8 1436.08 L1915.39 1436.08 
  L1913.98 1436.08 L1912.57 1436.08 L1911.16 1436.08 L1909.75 1436.08 L1908.34 1436.08 L1906.93 1436.08 L1905.52 1436.08 L1904.11 1436.08 L1902.7 1436.08 L1901.29 1436.08 
  L1899.88 1436.08 L1898.47 1436.08 L1897.07 1436.08 L1895.66 1436.08 L1894.25 1436.08 L1892.84 1436.08 L1891.43 1436.08 L1890.02 1436.08 L1888.61 1436.08 L1887.2 1436.08 
  L1885.79 1436.08 L1884.38 1436.08 L1882.97 1436.08 L1881.56 1436.08 L1880.15 1436.08 L1878.74 1436.08 L1877.33 1436.08 L1875.92 1436.08 L1874.51 1436.08 L1873.1 1436.08 
  L1871.69 1436.08 L1870.28 1436.08 L1868.87 1436.08 L1867.46 1436.08 L1866.06 1436.08 L1864.65 1436.08 L1863.24 1436.08 L1861.83 1436.08 L1860.42 1436.08 L1859.01 1436.08 
  L1857.6 1436.08 L1856.19 1436.08 L1854.78 1436.08 L1853.37 1436.08 L1851.96 1436.08 L1850.55 1436.08 L1849.14 1436.08 L1847.73 1436.08 L1846.32 1436.08 L1844.91 1436.08 
  L1843.5 1436.08 L1842.09 1436.08 L1840.68 1436.08 L1839.27 1436.08 L1837.86 1436.08 L1836.46 1436.08 L1835.05 1436.08 L1833.64 1436.08 L1832.23 1436.08 L1830.82 1436.08 
  L1829.41 1436.08 L1828 1436.08 L1826.59 1436.08 L1825.18 1436.08 L1823.77 1436.08 L1822.36 1436.08 L1820.95 1436.08 L1819.54 1436.08 L1818.13 1436.08 L1816.72 1436.08 
   Z
  " fill="#ff0000" fill-rule="evenodd" fill-opacity="0.5"/>
<polyline clip-path="url(#clip562)" style="stroke:#ff0000; stroke-linecap:round; stroke-linejoin:round; stroke-width:0; stroke-opacity:1; fill:none" points="
  1816.72,1345.98 1818.13,1347.03 1819.54,1348.06 1820.95,1349.08 1822.36,1350.1 1823.77,1351.1 1825.18,1352.09 1826.59,1353.08 1828,1354.05 1829.41,1355.02 
  1830.82,1355.98 1832.23,1356.92 1833.64,1357.86 1835.05,1358.79 1836.46,1359.71 1837.86,1360.62 1839.27,1361.52 1840.68,1362.41 1842.09,1363.3 1843.5,1364.17 
  1844.91,1365.04 1846.32,1365.9 1847.73,1366.75 1849.14,1367.59 1850.55,1368.42 1851.96,1369.24 1853.37,1370.06 1854.78,1370.86 1856.19,1371.66 1857.6,1372.45 
  1859.01,1373.23 1860.42,1374.01 1861.83,1374.77 1863.24,1375.53 1864.65,1376.28 1866.06,1377.02 1867.46,1377.76 1868.87,1378.49 1870.28,1379.21 1871.69,1379.92 
  1873.1,1380.62 1874.51,1381.32 1875.92,1382.01 1877.33,1382.69 1878.74,1383.36 1880.15,1384.03 1881.56,1384.69 1882.97,1385.35 1884.38,1385.99 1885.79,1386.63 
  1887.2,1387.26 1888.61,1387.89 1890.02,1388.51 1891.43,1389.12 1892.84,1389.72 1894.25,1390.32 1895.66,1390.91 1897.07,1391.5 1898.47,1392.08 1899.88,1392.65 
  1901.29,1393.22 1902.7,1393.78 1904.11,1394.33 1905.52,1394.88 1906.93,1395.42 1908.34,1395.95 1909.75,1396.48 1911.16,1397 1912.57,1397.52 1913.98,1398.03 
  1915.39,1398.54 1916.8,1399.04 1918.21,1399.53 1919.62,1400.02 1921.03,1400.5 1922.44,1400.98 1923.85,1401.45 1925.26,1401.92 1926.67,1402.38 1928.07,1402.83 
  1929.48,1403.28 1930.89,1403.72 1932.3,1404.16 1933.71,1404.6 1935.12,1405.03 1936.53,1405.45 1937.94,1405.87 1939.35,1406.28 1940.76,1406.69 1942.17,1407.1 
  1943.58,1407.5 1944.99,1407.89 1946.4,1408.28 1947.81,1408.66 1949.22,1409.04 1950.63,1409.42 1952.04,1409.79 1953.45,1410.16 1954.86,1410.52 1956.27,1410.88 
  1957.67,1411.23 1959.08,1411.58 1960.49,1411.92 1961.9,1412.27 1963.31,1412.6 1964.72,1412.93 1966.13,1413.26 1967.54,1413.59 1968.95,1413.9 1970.36,1414.22 
  1971.77,1414.53 1973.18,1414.84 1974.59,1415.14 1976,1415.44 1977.41,1415.74 1978.82,1416.03 1980.23,1416.32 1981.64,1416.61 1983.05,1416.89 1984.46,1417.17 
  1985.87,1417.44 1987.28,1417.71 1988.68,1417.98 1990.09,1418.24 1991.5,1418.5 1992.91,1418.76 1994.32,1419.02 1995.73,1419.27 1997.14,1419.51 1998.55,1419.76 
  1999.96,1420 2001.37,1420.24 2002.78,1420.47 2004.19,1420.7 2005.6,1420.93 2007.01,1421.16 2008.42,1421.38 2009.83,1421.6 2011.24,1421.81 2012.65,1422.03 
  2014.06,1422.24 2015.47,1422.45 2016.88,1422.65 2018.28,1422.85 2019.69,1423.05 2021.1,1423.25 2022.51,1423.45 2023.92,1423.64 2025.33,1423.83 2026.74,1424.01 
  2028.15,1424.2 2029.56,1424.38 2030.97,1424.56 2032.38,1424.73 2033.79,1424.91 2035.2,1425.08 2036.61,1425.25 2038.02,1425.42 2039.43,1425.58 2040.84,1425.74 
  2042.25,1425.9 2043.66,1426.06 2045.07,1426.22 2046.48,1426.37 2047.89,1426.52 2049.29,1426.67 2050.7,1426.82 2052.11,1426.96 2053.52,1427.11 2054.93,1427.25 
  2056.34,1427.39 2057.75,1427.52 2059.16,1427.66 2060.57,1427.79 2061.98,1427.92 2063.39,1428.05 2064.8,1428.18 2066.21,1428.31 2067.62,1428.43 2069.03,1428.55 
  2070.44,1428.67 2071.85,1428.79 2073.26,1428.91 2074.67,1429.02 2076.08,1429.14 2077.49,1429.25 2078.89,1429.36 2080.3,1429.47 2081.71,1429.57 2083.12,1429.68 
  2084.53,1429.78 2085.94,1429.89 2087.35,1429.99 2088.76,1430.09 2090.17,1430.18 2091.58,1430.28 2092.99,1430.37 2094.4,1430.47 2095.81,1430.56 2097.22,1430.65 
  2098.63,1430.74 2100.04,1430.83 2101.45,1430.92 2102.86,1431 2104.27,1431.08 2105.68,1431.17 2107.09,1431.25 2108.49,1431.33 2109.9,1431.41 2111.31,1431.49 
  2112.72,1431.56 2114.13,1431.64 2115.54,1431.71 2116.95,1431.79 2118.36,1431.86 2119.77,1431.93 2121.18,1432 2122.59,1432.07 2124,1432.14 2125.41,1432.2 
  2126.82,1432.27 2128.23,1432.33 2129.64,1432.4 2131.05,1432.46 2132.46,1432.52 2133.87,1432.58 2135.28,1432.64 2136.69,1432.7 2138.1,1432.76 2139.5,1432.82 
  2140.91,1432.87 2142.32,1432.93 2143.73,1432.98 2145.14,1433.04 2146.55,1433.09 2147.96,1433.14 2149.37,1433.19 2150.78,1433.24 2152.19,1433.29 2153.6,1433.34 
  2155.01,1433.39 2156.42,1433.43 2157.83,1433.48 2159.24,1433.53 2160.65,1433.57 2162.06,1433.61 2163.47,1433.66 2164.88,1433.7 2166.29,1433.74 2167.7,1433.78 
  2169.1,1433.82 2170.51,1433.86 2171.92,1433.9 2173.33,1433.94 2174.74,1433.98 2176.15,1434.02 2177.56,1434.05 2178.97,1434.09 2180.38,1434.13 2181.79,1434.16 
  2183.2,1434.2 2184.61,1434.23 2186.02,1434.26 2187.43,1434.3 2188.84,1434.33 2190.25,1434.36 2191.66,1434.39 2193.07,1434.42 2194.48,1434.45 2195.89,1434.48 
  2197.3,1434.51 2198.71,1434.54 2200.11,1434.57 2201.52,1434.59 2202.93,1434.62 2204.34,1434.65 2205.75,1434.67 2207.16,1434.7 2208.57,1434.73 2209.98,1434.75 
  2211.39,1434.77 2212.8,1434.8 2214.21,1434.82 2215.62,1434.85 2217.03,1434.87 2218.44,1434.89 2219.85,1434.91 2221.26,1434.93 2222.67,1434.96 2224.08,1434.98 
  2225.49,1435 2226.9,1435.02 2228.31,1435.04 2229.71,1435.06 2231.12,1435.08 2232.53,1435.09 2233.94,1435.11 2235.35,1435.13 2236.76,1435.15 2238.17,1435.17 
  2239.58,1435.18 2240.99,1435.2 2242.4,1435.22 2243.81,1435.23 2245.22,1435.25 2246.63,1435.27 2248.04,1435.28 2249.45,1435.3 2250.86,1435.31 2252.27,1435.33 
  2253.68,1435.34 2255.09,1435.35 2256.5,1435.37 2257.91,1435.38 2259.31,1435.4 2260.72,1435.41 2262.13,1435.42 2263.54,1435.43 2264.95,1435.45 2266.36,1435.46 
  2267.77,1435.47 2269.18,1435.48 2270.59,1435.49 2272,1435.51 2273.41,1435.52 2274.82,1435.53 2276.23,1435.54 2277.64,1435.55 2279.05,1435.56 2280.46,1435.57 
  2281.87,1435.58 2283.28,1435.59 2284.69,1435.6 2286.1,1435.61 2287.51,1435.62 
  "/>
<path clip-path="url(#clip562)" d="
M1816.72 1279.87 L1818.13 1281.48 L1819.54 1283.09 L1820.95 1284.68 L1822.36 1286.25 L1823.77 1287.82 L1825.18 1289.37 L1826.59 1290.91 L1828 1292.43 L1829.41 1293.95 
  L1830.82 1295.45 L1832.23 1296.94 L1833.64 1298.41 L1835.05 1299.88 L1836.46 1301.33 L1837.86 1302.77 L1839.27 1304.2 L1840.68 1305.61 L1842.09 1307.02 L1843.5 1308.41 
  L1844.91 1309.79 L1846.32 1311.16 L1847.73 1312.52 L1849.14 1313.86 L1850.55 1315.19 L1851.96 1316.52 L1853.37 1317.83 L1854.78 1319.12 L1856.19 1320.41 L1857.6 1321.69 
  L1859.01 1322.95 L1860.42 1324.21 L1861.83 1325.45 L1863.24 1326.68 L1864.65 1327.9 L1866.06 1329.11 L1867.46 1330.31 L1868.87 1331.5 L1870.28 1332.67 L1871.69 1333.84 
  L1873.1 1335 L1874.51 1336.14 L1875.92 1337.28 L1877.33 1338.4 L1878.74 1339.51 L1880.15 1340.62 L1881.56 1341.71 L1882.97 1342.79 L1884.38 1343.87 L1885.79 1344.93 
  L1887.2 1345.98 L1888.61 1347.03 L1890.02 1348.06 L1891.43 1349.08 L1892.84 1350.1 L1894.25 1351.1 L1895.66 1352.09 L1897.07 1353.08 L1898.47 1354.05 L1899.88 1355.02 
  L1901.29 1355.98 L1902.7 1356.92 L1904.11 1357.86 L1905.52 1358.79 L1906.93 1359.71 L1908.34 1360.62 L1909.75 1361.52 L1911.16 1362.41 L1912.57 1363.3 L1913.98 1364.17 
  L1915.39 1365.04 L1916.8 1365.9 L1918.21 1366.75 L1919.62 1367.59 L1921.03 1368.42 L1922.44 1369.24 L1923.85 1370.06 L1925.26 1370.86 L1926.67 1371.66 L1928.07 1372.45 
  L1929.48 1373.23 L1930.89 1374.01 L1932.3 1374.77 L1933.71 1375.53 L1935.12 1376.28 L1936.53 1377.02 L1937.94 1377.76 L1939.35 1378.49 L1940.76 1379.21 L1942.17 1379.92 
  L1943.58 1380.62 L1944.99 1381.32 L1946.4 1382.01 L1947.81 1382.69 L1949.22 1383.36 L1950.63 1384.03 L1952.04 1384.69 L1953.45 1385.35 L1954.86 1385.99 L1956.27 1386.63 
  L1957.67 1387.26 L1959.08 1387.89 L1960.49 1388.51 L1961.9 1389.12 L1963.31 1389.72 L1964.72 1390.32 L1966.13 1390.91 L1967.54 1391.5 L1968.95 1392.08 L1970.36 1392.65 
  L1971.77 1393.22 L1973.18 1393.78 L1974.59 1394.33 L1976 1394.88 L1977.41 1395.42 L1978.82 1395.95 L1980.23 1396.48 L1981.64 1397 L1983.05 1397.52 L1984.46 1398.03 
  L1985.87 1398.54 L1987.28 1399.04 L1988.68 1399.53 L1990.09 1400.02 L1991.5 1400.5 L1992.91 1400.98 L1994.32 1401.45 L1995.73 1401.92 L1997.14 1402.38 L1998.55 1402.83 
  L1999.96 1403.28 L2001.37 1403.72 L2002.78 1404.16 L2004.19 1404.6 L2005.6 1405.03 L2007.01 1405.45 L2008.42 1405.87 L2009.83 1406.28 L2011.24 1406.69 L2012.65 1407.1 
  L2014.06 1407.5 L2015.47 1407.89 L2016.88 1408.28 L2018.28 1408.66 L2019.69 1409.04 L2021.1 1409.42 L2022.51 1409.79 L2023.92 1410.16 L2025.33 1410.52 L2026.74 1410.88 
  L2028.15 1411.23 L2029.56 1411.58 L2030.97 1411.92 L2032.38 1412.27 L2033.79 1412.6 L2035.2 1412.93 L2036.61 1413.26 L2038.02 1413.59 L2039.43 1413.9 L2040.84 1414.22 
  L2042.25 1414.53 L2043.66 1414.84 L2045.07 1415.14 L2046.48 1415.44 L2047.89 1415.74 L2049.29 1416.03 L2050.7 1416.32 L2052.11 1416.61 L2053.52 1416.89 L2054.93 1417.17 
  L2056.34 1417.44 L2057.75 1417.71 L2059.16 1417.98 L2060.57 1418.24 L2061.98 1418.5 L2063.39 1418.76 L2064.8 1419.02 L2066.21 1419.27 L2067.62 1419.51 L2069.03 1419.76 
  L2070.44 1420 L2071.85 1420.24 L2073.26 1420.47 L2074.67 1420.7 L2076.08 1420.93 L2077.49 1421.16 L2078.89 1421.38 L2080.3 1421.6 L2081.71 1421.81 L2083.12 1422.03 
  L2084.53 1422.24 L2085.94 1422.45 L2087.35 1422.65 L2088.76 1422.85 L2090.17 1423.05 L2091.58 1423.25 L2092.99 1423.45 L2094.4 1423.64 L2095.81 1423.83 L2097.22 1424.01 
  L2098.63 1424.2 L2100.04 1424.38 L2101.45 1424.56 L2102.86 1424.73 L2104.27 1424.91 L2105.68 1425.08 L2107.09 1425.25 L2108.49 1425.42 L2109.9 1425.58 L2111.31 1425.74 
  L2112.72 1425.9 L2114.13 1426.06 L2115.54 1426.22 L2116.95 1426.37 L2118.36 1426.52 L2119.77 1426.67 L2121.18 1426.82 L2122.59 1426.96 L2124 1427.11 L2125.41 1427.25 
  L2126.82 1427.39 L2128.23 1427.52 L2129.64 1427.66 L2131.05 1427.79 L2132.46 1427.92 L2133.87 1428.05 L2135.28 1428.18 L2136.69 1428.31 L2138.1 1428.43 L2139.5 1428.55 
  L2140.91 1428.67 L2142.32 1428.79 L2143.73 1428.91 L2145.14 1429.02 L2146.55 1429.14 L2147.96 1429.25 L2149.37 1429.36 L2150.78 1429.47 L2152.19 1429.57 L2153.6 1429.68 
  L2155.01 1429.78 L2156.42 1429.89 L2157.83 1429.99 L2159.24 1430.09 L2160.65 1430.18 L2162.06 1430.28 L2163.47 1430.37 L2164.88 1430.47 L2166.29 1430.56 L2167.7 1430.65 
  L2169.1 1430.74 L2170.51 1430.83 L2171.92 1430.92 L2173.33 1431 L2174.74 1431.08 L2176.15 1431.17 L2177.56 1431.25 L2178.97 1431.33 L2180.38 1431.41 L2181.79 1431.49 
  L2183.2 1431.56 L2184.61 1431.64 L2186.02 1431.71 L2187.43 1431.79 L2188.84 1431.86 L2190.25 1431.93 L2191.66 1432 L2193.07 1432.07 L2194.48 1432.14 L2195.89 1432.2 
  L2197.3 1432.27 L2198.71 1432.33 L2200.11 1432.4 L2201.52 1432.46 L2202.93 1432.52 L2204.34 1432.58 L2205.75 1432.64 L2207.16 1432.7 L2208.57 1432.76 L2209.98 1432.82 
  L2211.39 1432.87 L2212.8 1432.93 L2214.21 1432.98 L2215.62 1433.04 L2217.03 1433.09 L2218.44 1433.14 L2219.85 1433.19 L2221.26 1433.24 L2222.67 1433.29 L2224.08 1433.34 
  L2225.49 1433.39 L2226.9 1433.43 L2228.31 1433.48 L2229.71 1433.53 L2231.12 1433.57 L2232.53 1433.61 L2233.94 1433.66 L2235.35 1433.7 L2236.76 1433.74 L2238.17 1433.78 
  L2239.58 1433.82 L2240.99 1433.86 L2242.4 1433.9 L2243.81 1433.94 L2245.22 1433.98 L2246.63 1434.02 L2248.04 1434.05 L2249.45 1434.09 L2250.86 1434.13 L2252.27 1434.16 
  L2253.68 1434.2 L2255.09 1434.23 L2256.5 1434.26 L2257.91 1434.3 L2259.31 1434.33 L2260.72 1434.36 L2262.13 1434.39 L2263.54 1434.42 L2264.95 1434.45 L2266.36 1434.48 
  L2267.77 1434.51 L2269.18 1434.54 L2270.59 1434.57 L2272 1434.59 L2273.41 1434.62 L2274.82 1434.65 L2276.23 1434.67 L2277.64 1434.7 L2279.05 1434.73 L2280.46 1434.75 
  L2281.87 1434.77 L2283.28 1434.8 L2284.69 1434.82 L2286.1 1434.85 L2287.51 1434.87 L2287.51 1436.08 L2286.1 1436.08 L2284.69 1436.08 L2283.28 1436.08 L2281.87 1436.08 
  L2280.46 1436.08 L2279.05 1436.08 L2277.64 1436.08 L2276.23 1436.08 L2274.82 1436.08 L2273.41 1436.08 L2272 1436.08 L2270.59 1436.08 L2269.18 1436.08 L2267.77 1436.08 
  L2266.36 1436.08 L2264.95 1436.08 L2263.54 1436.08 L2262.13 1436.08 L2260.72 1436.08 L2259.31 1436.08 L2257.91 1436.08 L2256.5 1436.08 L2255.09 1436.08 L2253.68 1436.08 
  L2252.27 1436.08 L2250.86 1436.08 L2249.45 1436.08 L2248.04 1436.08 L2246.63 1436.08 L2245.22 1436.08 L2243.81 1436.08 L2242.4 1436.08 L2240.99 1436.08 L2239.58 1436.08 
  L2238.17 1436.08 L2236.76 1436.08 L2235.35 1436.08 L2233.94 1436.08 L2232.53 1436.08 L2231.12 1436.08 L2229.71 1436.08 L2228.31 1436.08 L2226.9 1436.08 L2225.49 1436.08 
  L2224.08 1436.08 L2222.67 1436.08 L2221.26 1436.08 L2219.85 1436.08 L2218.44 1436.08 L2217.03 1436.08 L2215.62 1436.08 L2214.21 1436.08 L2212.8 1436.08 L2211.39 1436.08 
  L2209.98 1436.08 L2208.57 1436.08 L2207.16 1436.08 L2205.75 1436.08 L2204.34 1436.08 L2202.93 1436.08 L2201.52 1436.08 L2200.11 1436.08 L2198.71 1436.08 L2197.3 1436.08 
  L2195.89 1436.08 L2194.48 1436.08 L2193.07 1436.08 L2191.66 1436.08 L2190.25 1436.08 L2188.84 1436.08 L2187.43 1436.08 L2186.02 1436.08 L2184.61 1436.08 L2183.2 1436.08 
  L2181.79 1436.08 L2180.38 1436.08 L2178.97 1436.08 L2177.56 1436.08 L2176.15 1436.08 L2174.74 1436.08 L2173.33 1436.08 L2171.92 1436.08 L2170.51 1436.08 L2169.1 1436.08 
  L2167.7 1436.08 L2166.29 1436.08 L2164.88 1436.08 L2163.47 1436.08 L2162.06 1436.08 L2160.65 1436.08 L2159.24 1436.08 L2157.83 1436.08 L2156.42 1436.08 L2155.01 1436.08 
  L2153.6 1436.08 L2152.19 1436.08 L2150.78 1436.08 L2149.37 1436.08 L2147.96 1436.08 L2146.55 1436.08 L2145.14 1436.08 L2143.73 1436.08 L2142.32 1436.08 L2140.91 1436.08 
  L2139.5 1436.08 L2138.1 1436.08 L2136.69 1436.08 L2135.28 1436.08 L2133.87 1436.08 L2132.46 1436.08 L2131.05 1436.08 L2129.64 1436.08 L2128.23 1436.08 L2126.82 1436.08 
  L2125.41 1436.08 L2124 1436.08 L2122.59 1436.08 L2121.18 1436.08 L2119.77 1436.08 L2118.36 1436.08 L2116.95 1436.08 L2115.54 1436.08 L2114.13 1436.08 L2112.72 1436.08 
  L2111.31 1436.08 L2109.9 1436.08 L2108.49 1436.08 L2107.09 1436.08 L2105.68 1436.08 L2104.27 1436.08 L2102.86 1436.08 L2101.45 1436.08 L2100.04 1436.08 L2098.63 1436.08 
  L2097.22 1436.08 L2095.81 1436.08 L2094.4 1436.08 L2092.99 1436.08 L2091.58 1436.08 L2090.17 1436.08 L2088.76 1436.08 L2087.35 1436.08 L2085.94 1436.08 L2084.53 1436.08 
  L2083.12 1436.08 L2081.71 1436.08 L2080.3 1436.08 L2078.89 1436.08 L2077.49 1436.08 L2076.08 1436.08 L2074.67 1436.08 L2073.26 1436.08 L2071.85 1436.08 L2070.44 1436.08 
  L2069.03 1436.08 L2067.62 1436.08 L2066.21 1436.08 L2064.8 1436.08 L2063.39 1436.08 L2061.98 1436.08 L2060.57 1436.08 L2059.16 1436.08 L2057.75 1436.08 L2056.34 1436.08 
  L2054.93 1436.08 L2053.52 1436.08 L2052.11 1436.08 L2050.7 1436.08 L2049.29 1436.08 L2047.89 1436.08 L2046.48 1436.08 L2045.07 1436.08 L2043.66 1436.08 L2042.25 1436.08 
  L2040.84 1436.08 L2039.43 1436.08 L2038.02 1436.08 L2036.61 1436.08 L2035.2 1436.08 L2033.79 1436.08 L2032.38 1436.08 L2030.97 1436.08 L2029.56 1436.08 L2028.15 1436.08 
  L2026.74 1436.08 L2025.33 1436.08 L2023.92 1436.08 L2022.51 1436.08 L2021.1 1436.08 L2019.69 1436.08 L2018.28 1436.08 L2016.88 1436.08 L2015.47 1436.08 L2014.06 1436.08 
  L2012.65 1436.08 L2011.24 1436.08 L2009.83 1436.08 L2008.42 1436.08 L2007.01 1436.08 L2005.6 1436.08 L2004.19 1436.08 L2002.78 1436.08 L2001.37 1436.08 L1999.96 1436.08 
  L1998.55 1436.08 L1997.14 1436.08 L1995.73 1436.08 L1994.32 1436.08 L1992.91 1436.08 L1991.5 1436.08 L1990.09 1436.08 L1988.68 1436.08 L1987.28 1436.08 L1985.87 1436.08 
  L1984.46 1436.08 L1983.05 1436.08 L1981.64 1436.08 L1980.23 1436.08 L1978.82 1436.08 L1977.41 1436.08 L1976 1436.08 L1974.59 1436.08 L1973.18 1436.08 L1971.77 1436.08 
  L1970.36 1436.08 L1968.95 1436.08 L1967.54 1436.08 L1966.13 1436.08 L1964.72 1436.08 L1963.31 1436.08 L1961.9 1436.08 L1960.49 1436.08 L1959.08 1436.08 L1957.67 1436.08 
  L1956.27 1436.08 L1954.86 1436.08 L1953.45 1436.08 L1952.04 1436.08 L1950.63 1436.08 L1949.22 1436.08 L1947.81 1436.08 L1946.4 1436.08 L1944.99 1436.08 L1943.58 1436.08 
  L1942.17 1436.08 L1940.76 1436.08 L1939.35 1436.08 L1937.94 1436.08 L1936.53 1436.08 L1935.12 1436.08 L1933.71 1436.08 L1932.3 1436.08 L1930.89 1436.08 L1929.48 1436.08 
  L1928.07 1436.08 L1926.67 1436.08 L1925.26 1436.08 L1923.85 1436.08 L1922.44 1436.08 L1921.03 1436.08 L1919.62 1436.08 L1918.21 1436.08 L1916.8 1436.08 L1915.39 1436.08 
  L1913.98 1436.08 L1912.57 1436.08 L1911.16 1436.08 L1909.75 1436.08 L1908.34 1436.08 L1906.93 1436.08 L1905.52 1436.08 L1904.11 1436.08 L1902.7 1436.08 L1901.29 1436.08 
  L1899.88 1436.08 L1898.47 1436.08 L1897.07 1436.08 L1895.66 1436.08 L1894.25 1436.08 L1892.84 1436.08 L1891.43 1436.08 L1890.02 1436.08 L1888.61 1436.08 L1887.2 1436.08 
  L1885.79 1436.08 L1884.38 1436.08 L1882.97 1436.08 L1881.56 1436.08 L1880.15 1436.08 L1878.74 1436.08 L1877.33 1436.08 L1875.92 1436.08 L1874.51 1436.08 L1873.1 1436.08 
  L1871.69 1436.08 L1870.28 1436.08 L1868.87 1436.08 L1867.46 1436.08 L1866.06 1436.08 L1864.65 1436.08 L1863.24 1436.08 L1861.83 1436.08 L1860.42 1436.08 L1859.01 1436.08 
  L1857.6 1436.08 L1856.19 1436.08 L1854.78 1436.08 L1853.37 1436.08 L1851.96 1436.08 L1850.55 1436.08 L1849.14 1436.08 L1847.73 1436.08 L1846.32 1436.08 L1844.91 1436.08 
  L1843.5 1436.08 L1842.09 1436.08 L1840.68 1436.08 L1839.27 1436.08 L1837.86 1436.08 L1836.46 1436.08 L1835.05 1436.08 L1833.64 1436.08 L1832.23 1436.08 L1830.82 1436.08 
  L1829.41 1436.08 L1828 1436.08 L1826.59 1436.08 L1825.18 1436.08 L1823.77 1436.08 L1822.36 1436.08 L1820.95 1436.08 L1819.54 1436.08 L1818.13 1436.08 L1816.72 1436.08 
   Z
  " fill="#ff0000" fill-rule="evenodd" fill-opacity="0.5"/>
<polyline clip-path="url(#clip562)" style="stroke:#ff0000; stroke-linecap:round; stroke-linejoin:round; stroke-width:0; stroke-opacity:1; fill:none" points="
  1816.72,1279.87 1818.13,1281.48 1819.54,1283.09 1820.95,1284.68 1822.36,1286.25 1823.77,1287.82 1825.18,1289.37 1826.59,1290.91 1828,1292.43 1829.41,1293.95 
  1830.82,1295.45 1832.23,1296.94 1833.64,1298.41 1835.05,1299.88 1836.46,1301.33 1837.86,1302.77 1839.27,1304.2 1840.68,1305.61 1842.09,1307.02 1843.5,1308.41 
  1844.91,1309.79 1846.32,1311.16 1847.73,1312.52 1849.14,1313.86 1850.55,1315.19 1851.96,1316.52 1853.37,1317.83 1854.78,1319.12 1856.19,1320.41 1857.6,1321.69 
  1859.01,1322.95 1860.42,1324.21 1861.83,1325.45 1863.24,1326.68 1864.65,1327.9 1866.06,1329.11 1867.46,1330.31 1868.87,1331.5 1870.28,1332.67 1871.69,1333.84 
  1873.1,1335 1874.51,1336.14 1875.92,1337.28 1877.33,1338.4 1878.74,1339.51 1880.15,1340.62 1881.56,1341.71 1882.97,1342.79 1884.38,1343.87 1885.79,1344.93 
  1887.2,1345.98 1888.61,1347.03 1890.02,1348.06 1891.43,1349.08 1892.84,1350.1 1894.25,1351.1 1895.66,1352.09 1897.07,1353.08 1898.47,1354.05 1899.88,1355.02 
  1901.29,1355.98 1902.7,1356.92 1904.11,1357.86 1905.52,1358.79 1906.93,1359.71 1908.34,1360.62 1909.75,1361.52 1911.16,1362.41 1912.57,1363.3 1913.98,1364.17 
  1915.39,1365.04 1916.8,1365.9 1918.21,1366.75 1919.62,1367.59 1921.03,1368.42 1922.44,1369.24 1923.85,1370.06 1925.26,1370.86 1926.67,1371.66 1928.07,1372.45 
  1929.48,1373.23 1930.89,1374.01 1932.3,1374.77 1933.71,1375.53 1935.12,1376.28 1936.53,1377.02 1937.94,1377.76 1939.35,1378.49 1940.76,1379.21 1942.17,1379.92 
  1943.58,1380.62 1944.99,1381.32 1946.4,1382.01 1947.81,1382.69 1949.22,1383.36 1950.63,1384.03 1952.04,1384.69 1953.45,1385.35 1954.86,1385.99 1956.27,1386.63 
  1957.67,1387.26 1959.08,1387.89 1960.49,1388.51 1961.9,1389.12 1963.31,1389.72 1964.72,1390.32 1966.13,1390.91 1967.54,1391.5 1968.95,1392.08 1970.36,1392.65 
  1971.77,1393.22 1973.18,1393.78 1974.59,1394.33 1976,1394.88 1977.41,1395.42 1978.82,1395.95 1980.23,1396.48 1981.64,1397 1983.05,1397.52 1984.46,1398.03 
  1985.87,1398.54 1987.28,1399.04 1988.68,1399.53 1990.09,1400.02 1991.5,1400.5 1992.91,1400.98 1994.32,1401.45 1995.73,1401.92 1997.14,1402.38 1998.55,1402.83 
  1999.96,1403.28 2001.37,1403.72 2002.78,1404.16 2004.19,1404.6 2005.6,1405.03 2007.01,1405.45 2008.42,1405.87 2009.83,1406.28 2011.24,1406.69 2012.65,1407.1 
  2014.06,1407.5 2015.47,1407.89 2016.88,1408.28 2018.28,1408.66 2019.69,1409.04 2021.1,1409.42 2022.51,1409.79 2023.92,1410.16 2025.33,1410.52 2026.74,1410.88 
  2028.15,1411.23 2029.56,1411.58 2030.97,1411.92 2032.38,1412.27 2033.79,1412.6 2035.2,1412.93 2036.61,1413.26 2038.02,1413.59 2039.43,1413.9 2040.84,1414.22 
  2042.25,1414.53 2043.66,1414.84 2045.07,1415.14 2046.48,1415.44 2047.89,1415.74 2049.29,1416.03 2050.7,1416.32 2052.11,1416.61 2053.52,1416.89 2054.93,1417.17 
  2056.34,1417.44 2057.75,1417.71 2059.16,1417.98 2060.57,1418.24 2061.98,1418.5 2063.39,1418.76 2064.8,1419.02 2066.21,1419.27 2067.62,1419.51 2069.03,1419.76 
  2070.44,1420 2071.85,1420.24 2073.26,1420.47 2074.67,1420.7 2076.08,1420.93 2077.49,1421.16 2078.89,1421.38 2080.3,1421.6 2081.71,1421.81 2083.12,1422.03 
  2084.53,1422.24 2085.94,1422.45 2087.35,1422.65 2088.76,1422.85 2090.17,1423.05 2091.58,1423.25 2092.99,1423.45 2094.4,1423.64 2095.81,1423.83 2097.22,1424.01 
  2098.63,1424.2 2100.04,1424.38 2101.45,1424.56 2102.86,1424.73 2104.27,1424.91 2105.68,1425.08 2107.09,1425.25 2108.49,1425.42 2109.9,1425.58 2111.31,1425.74 
  2112.72,1425.9 2114.13,1426.06 2115.54,1426.22 2116.95,1426.37 2118.36,1426.52 2119.77,1426.67 2121.18,1426.82 2122.59,1426.96 2124,1427.11 2125.41,1427.25 
  2126.82,1427.39 2128.23,1427.52 2129.64,1427.66 2131.05,1427.79 2132.46,1427.92 2133.87,1428.05 2135.28,1428.18 2136.69,1428.31 2138.1,1428.43 2139.5,1428.55 
  2140.91,1428.67 2142.32,1428.79 2143.73,1428.91 2145.14,1429.02 2146.55,1429.14 2147.96,1429.25 2149.37,1429.36 2150.78,1429.47 2152.19,1429.57 2153.6,1429.68 
  2155.01,1429.78 2156.42,1429.89 2157.83,1429.99 2159.24,1430.09 2160.65,1430.18 2162.06,1430.28 2163.47,1430.37 2164.88,1430.47 2166.29,1430.56 2167.7,1430.65 
  2169.1,1430.74 2170.51,1430.83 2171.92,1430.92 2173.33,1431 2174.74,1431.08 2176.15,1431.17 2177.56,1431.25 2178.97,1431.33 2180.38,1431.41 2181.79,1431.49 
  2183.2,1431.56 2184.61,1431.64 2186.02,1431.71 2187.43,1431.79 2188.84,1431.86 2190.25,1431.93 2191.66,1432 2193.07,1432.07 2194.48,1432.14 2195.89,1432.2 
  2197.3,1432.27 2198.71,1432.33 2200.11,1432.4 2201.52,1432.46 2202.93,1432.52 2204.34,1432.58 2205.75,1432.64 2207.16,1432.7 2208.57,1432.76 2209.98,1432.82 
  2211.39,1432.87 2212.8,1432.93 2214.21,1432.98 2215.62,1433.04 2217.03,1433.09 2218.44,1433.14 2219.85,1433.19 2221.26,1433.24 2222.67,1433.29 2224.08,1433.34 
  2225.49,1433.39 2226.9,1433.43 2228.31,1433.48 2229.71,1433.53 2231.12,1433.57 2232.53,1433.61 2233.94,1433.66 2235.35,1433.7 2236.76,1433.74 2238.17,1433.78 
  2239.58,1433.82 2240.99,1433.86 2242.4,1433.9 2243.81,1433.94 2245.22,1433.98 2246.63,1434.02 2248.04,1434.05 2249.45,1434.09 2250.86,1434.13 2252.27,1434.16 
  2253.68,1434.2 2255.09,1434.23 2256.5,1434.26 2257.91,1434.3 2259.31,1434.33 2260.72,1434.36 2262.13,1434.39 2263.54,1434.42 2264.95,1434.45 2266.36,1434.48 
  2267.77,1434.51 2269.18,1434.54 2270.59,1434.57 2272,1434.59 2273.41,1434.62 2274.82,1434.65 2276.23,1434.67 2277.64,1434.7 2279.05,1434.73 2280.46,1434.75 
  2281.87,1434.77 2283.28,1434.8 2284.69,1434.82 2286.1,1434.85 2287.51,1434.87 
  "/>
<path clip-path="url(#clip560)" d="
M124.094 328.167 L810.789 328.167 L810.789 94.8869 L124.094 94.8869  Z
  " fill="#ffffff" fill-rule="evenodd" fill-opacity="1"/>
<polyline clip-path="url(#clip560)" style="stroke:#000000; stroke-linecap:round; stroke-linejoin:round; stroke-width:4; stroke-opacity:1; fill:none" points="
  124.094,328.167 810.789,328.167 810.789,94.8869 124.094,94.8869 124.094,328.167 
  "/>
<polyline clip-path="url(#clip560)" style="stroke:#000000; stroke-linecap:round; stroke-linejoin:round; stroke-width:12; stroke-opacity:1; fill:none" points="
  149.711,172.647 303.412,172.647 
  "/>
<path clip-path="url(#clip560)" d="M336.043 173.81 L336.043 192.803 L347.293 192.803 Q352.952 192.803 355.661 190.477 Q358.404 188.116 358.404 183.289 Q358.404 178.428 355.661 176.136 Q352.952 173.81 347.293 173.81 L336.043 173.81 M336.043 152.491 L336.043 168.116 L346.425 168.116 Q351.563 168.116 354.063 166.206 Q356.598 164.262 356.598 160.303 Q356.598 156.38 354.063 154.435 Q351.563 152.491 346.425 152.491 L336.043 152.491 M329.029 146.727 L346.945 146.727 Q354.966 146.727 359.306 150.06 Q363.647 153.394 363.647 159.539 Q363.647 164.296 361.425 167.109 Q359.202 169.921 354.897 170.616 Q360.07 171.727 362.918 175.268 Q365.8 178.775 365.8 184.053 Q365.8 190.997 361.077 194.782 Q356.355 198.567 347.64 198.567 L329.029 198.567 L329.029 146.727 Z" fill="#000000" fill-rule="evenodd" fill-opacity="1" /><path clip-path="url(#clip560)" d="M395.209 179.018 Q387.466 179.018 384.48 180.789 Q381.494 182.56 381.494 186.831 Q381.494 190.234 383.716 192.247 Q385.973 194.227 389.827 194.227 Q395.14 194.227 398.334 190.477 Q401.563 186.692 401.563 180.442 L401.563 179.018 L395.209 179.018 M407.952 176.38 L407.952 198.567 L401.563 198.567 L401.563 192.664 Q399.376 196.206 396.112 197.907 Q392.848 199.574 388.126 199.574 Q382.154 199.574 378.612 196.241 Q375.105 192.872 375.105 187.248 Q375.105 180.685 379.48 177.352 Q383.89 174.018 392.605 174.018 L401.563 174.018 L401.563 173.393 Q401.563 168.984 398.647 166.588 Q395.765 164.157 390.522 164.157 Q387.188 164.157 384.029 164.956 Q380.869 165.755 377.952 167.352 L377.952 161.449 Q381.459 160.095 384.758 159.435 Q388.056 158.741 391.181 158.741 Q399.619 158.741 403.785 163.116 Q407.952 167.491 407.952 176.38 Z" fill="#000000" fill-rule="evenodd" fill-opacity="1" /><path clip-path="url(#clip560)" d="M445.903 160.824 L445.903 166.866 Q443.195 165.477 440.278 164.782 Q437.362 164.088 434.237 164.088 Q429.48 164.088 427.084 165.546 Q424.723 167.005 424.723 169.921 Q424.723 172.143 426.424 173.428 Q428.126 174.678 433.264 175.824 L435.452 176.31 Q442.257 177.768 445.105 180.442 Q447.987 183.081 447.987 187.838 Q447.987 193.254 443.681 196.414 Q439.41 199.574 431.91 199.574 Q428.785 199.574 425.383 198.949 Q422.014 198.359 418.265 197.143 L418.265 190.546 Q421.806 192.386 425.244 193.324 Q428.681 194.227 432.049 194.227 Q436.563 194.227 438.994 192.699 Q441.424 191.136 441.424 188.324 Q441.424 185.72 439.653 184.331 Q437.917 182.942 431.98 181.657 L429.757 181.136 Q423.82 179.886 421.181 177.317 Q418.542 174.713 418.542 170.199 Q418.542 164.713 422.431 161.727 Q426.32 158.741 433.473 158.741 Q437.014 158.741 440.139 159.262 Q443.264 159.782 445.903 160.824 Z" fill="#000000" fill-rule="evenodd" fill-opacity="1" /><path clip-path="url(#clip560)" d="M491.424 177.525 L491.424 180.65 L462.049 180.65 Q462.466 187.248 466.007 190.72 Q469.584 194.157 475.938 194.157 Q479.618 194.157 483.056 193.254 Q486.528 192.352 489.931 190.546 L489.931 196.588 Q486.493 198.046 482.882 198.81 Q479.271 199.574 475.556 199.574 Q466.25 199.574 460.799 194.157 Q455.382 188.741 455.382 179.504 Q455.382 169.956 460.521 164.366 Q465.695 158.741 474.445 158.741 Q482.292 158.741 486.841 163.81 Q491.424 168.845 491.424 177.525 M485.035 175.65 Q484.966 170.407 482.084 167.282 Q479.236 164.157 474.514 164.157 Q469.167 164.157 465.938 167.178 Q462.743 170.199 462.257 175.685 L485.035 175.65 Z" fill="#000000" fill-rule="evenodd" fill-opacity="1" /><polyline clip-path="url(#clip560)" style="stroke:#000000; stroke-linecap:round; stroke-linejoin:round; stroke-width:12; stroke-opacity:1; fill:none" stroke-dasharray="48, 30" points="
  149.711,250.407 303.412,250.407 
  "/>
<path clip-path="url(#clip560)" d="M362.397 226.188 L362.397 233.029 Q358.404 231.119 354.862 230.181 Q351.32 229.244 348.022 229.244 Q342.293 229.244 339.168 231.466 Q336.077 233.688 336.077 237.785 Q336.077 241.223 338.126 242.994 Q340.209 244.73 345.973 245.806 L350.209 246.674 Q358.056 248.167 361.772 251.952 Q365.522 255.702 365.522 262.021 Q365.522 269.556 360.452 273.445 Q355.418 277.334 345.661 277.334 Q341.98 277.334 337.814 276.5 Q333.682 275.667 329.237 274.035 L329.237 266.813 Q333.508 269.209 337.605 270.424 Q341.702 271.639 345.661 271.639 Q351.668 271.639 354.932 269.278 Q358.195 266.917 358.195 262.542 Q358.195 258.723 355.834 256.57 Q353.508 254.417 348.161 253.341 L343.89 252.508 Q336.043 250.945 332.536 247.612 Q329.029 244.278 329.029 238.341 Q329.029 231.466 333.855 227.508 Q338.716 223.549 347.223 223.549 Q350.869 223.549 354.654 224.209 Q358.438 224.869 362.397 226.188 Z" fill="#000000" fill-rule="evenodd" fill-opacity="1" /><path clip-path="url(#clip560)" d="M408.508 252.855 L408.508 276.327 L402.119 276.327 L402.119 253.063 Q402.119 247.542 399.966 244.799 Q397.813 242.056 393.508 242.056 Q388.334 242.056 385.348 245.355 Q382.362 248.653 382.362 254.348 L382.362 276.327 L375.938 276.327 L375.938 222.299 L382.362 222.299 L382.362 243.48 Q384.654 239.973 387.744 238.237 Q390.869 236.501 394.931 236.501 Q401.633 236.501 405.07 240.667 Q408.508 244.799 408.508 252.855 Z" fill="#000000" fill-rule="evenodd" fill-opacity="1" /><path clip-path="url(#clip560)" d="M421.251 237.438 L427.639 237.438 L427.639 276.327 L421.251 276.327 L421.251 237.438 M421.251 222.299 L427.639 222.299 L427.639 230.39 L421.251 230.39 L421.251 222.299 Z" fill="#000000" fill-rule="evenodd" fill-opacity="1" /><path clip-path="url(#clip560)" d="M460.695 222.299 L460.695 227.612 L454.584 227.612 Q451.146 227.612 449.792 229.001 Q448.473 230.39 448.473 234.001 L448.473 237.438 L458.993 237.438 L458.993 242.403 L448.473 242.403 L448.473 276.327 L442.049 276.327 L442.049 242.403 L435.938 242.403 L435.938 237.438 L442.049 237.438 L442.049 234.73 Q442.049 228.237 445.07 225.285 Q448.091 222.299 454.653 222.299 L460.695 222.299 Z" fill="#000000" fill-rule="evenodd" fill-opacity="1" /><path clip-path="url(#clip560)" d="M471.111 226.397 L471.111 237.438 L484.271 237.438 L484.271 242.403 L471.111 242.403 L471.111 263.514 Q471.111 268.271 472.396 269.626 Q473.716 270.98 477.709 270.98 L484.271 270.98 L484.271 276.327 L477.709 276.327 Q470.313 276.327 467.5 273.584 Q464.688 270.806 464.688 263.514 L464.688 242.403 L460 242.403 L460 237.438 L464.688 237.438 L464.688 226.397 L471.111 226.397 Z" fill="#000000" fill-rule="evenodd" fill-opacity="1" /><path clip-path="url(#clip560)" d="M525.938 255.285 L525.938 258.41 L496.563 258.41 Q496.979 265.008 500.521 268.48 Q504.097 271.917 510.452 271.917 Q514.132 271.917 517.57 271.014 Q521.042 270.112 524.444 268.306 L524.444 274.348 Q521.007 275.806 517.396 276.57 Q513.785 277.334 510.07 277.334 Q500.764 277.334 495.313 271.917 Q489.896 266.501 489.896 257.264 Q489.896 247.716 495.035 242.126 Q500.209 236.501 508.958 236.501 Q516.806 236.501 521.354 241.57 Q525.938 246.605 525.938 255.285 M519.549 253.41 Q519.479 248.167 516.597 245.042 Q513.75 241.917 509.028 241.917 Q503.681 241.917 500.452 244.938 Q497.257 247.959 496.771 253.445 L519.549 253.41 Z" fill="#000000" fill-rule="evenodd" fill-opacity="1" /><path clip-path="url(#clip560)" d="M562.014 243.341 L562.014 222.299 L568.403 222.299 L568.403 276.327 L562.014 276.327 L562.014 270.494 Q560 273.966 556.91 275.667 Q553.854 277.334 549.549 277.334 Q542.5 277.334 538.056 271.709 Q533.646 266.084 533.646 256.917 Q533.646 247.751 538.056 242.126 Q542.5 236.501 549.549 236.501 Q553.854 236.501 556.91 238.202 Q560 239.869 562.014 243.341 M540.243 256.917 Q540.243 263.966 543.125 267.994 Q546.042 271.987 551.111 271.987 Q556.18 271.987 559.097 267.994 Q562.014 263.966 562.014 256.917 Q562.014 249.869 559.097 245.876 Q556.18 241.848 551.111 241.848 Q546.042 241.848 543.125 245.876 Q540.243 249.869 540.243 256.917 Z" fill="#000000" fill-rule="evenodd" fill-opacity="1" /><path clip-path="url(#clip560)" d="M604.444 224.487 L614.895 224.487 L628.124 259.764 L641.423 224.487 L651.874 224.487 L651.874 276.327 L645.034 276.327 L645.034 230.806 L631.666 266.362 L624.618 266.362 L611.25 230.806 L611.25 276.327 L604.444 276.327 L604.444 224.487 Z" fill="#000000" fill-rule="evenodd" fill-opacity="1" /><path clip-path="url(#clip560)" d="M698.784 255.285 L698.784 258.41 L669.409 258.41 Q669.826 265.008 673.367 268.48 Q676.944 271.917 683.298 271.917 Q686.978 271.917 690.416 271.014 Q693.888 270.112 697.291 268.306 L697.291 274.348 Q693.853 275.806 690.242 276.57 Q686.631 277.334 682.916 277.334 Q673.61 277.334 668.159 271.917 Q662.742 266.501 662.742 257.264 Q662.742 247.716 667.881 242.126 Q673.055 236.501 681.805 236.501 Q689.652 236.501 694.201 241.57 Q698.784 246.605 698.784 255.285 M692.395 253.41 Q692.326 248.167 689.444 245.042 Q686.596 241.917 681.874 241.917 Q676.527 241.917 673.298 244.938 Q670.103 247.959 669.617 253.445 L692.395 253.41 Z" fill="#000000" fill-rule="evenodd" fill-opacity="1" /><path clip-path="url(#clip560)" d="M726.943 256.778 Q719.2 256.778 716.214 258.549 Q713.228 260.32 713.228 264.591 Q713.228 267.994 715.45 270.007 Q717.707 271.987 721.561 271.987 Q726.874 271.987 730.068 268.237 Q733.298 264.452 733.298 258.202 L733.298 256.778 L726.943 256.778 M739.686 254.14 L739.686 276.327 L733.298 276.327 L733.298 270.424 Q731.11 273.966 727.846 275.667 Q724.582 277.334 719.86 277.334 Q713.888 277.334 710.346 274.001 Q706.839 270.632 706.839 265.008 Q706.839 258.445 711.214 255.112 Q715.624 251.778 724.339 251.778 L733.298 251.778 L733.298 251.153 Q733.298 246.744 730.381 244.348 Q727.499 241.917 722.256 241.917 Q718.923 241.917 715.763 242.716 Q712.603 243.515 709.687 245.112 L709.687 239.209 Q713.193 237.855 716.492 237.195 Q719.791 236.501 722.916 236.501 Q731.353 236.501 735.52 240.876 Q739.686 245.251 739.686 254.14 Z" fill="#000000" fill-rule="evenodd" fill-opacity="1" /><path clip-path="url(#clip560)" d="M785.172 252.855 L785.172 276.327 L778.783 276.327 L778.783 253.063 Q778.783 247.542 776.631 244.799 Q774.478 242.056 770.172 242.056 Q764.999 242.056 762.013 245.355 Q759.027 248.653 759.027 254.348 L759.027 276.327 L752.603 276.327 L752.603 237.438 L759.027 237.438 L759.027 243.48 Q761.318 239.973 764.408 238.237 Q767.533 236.501 771.596 236.501 Q778.297 236.501 781.735 240.667 Q785.172 244.799 785.172 252.855 Z" fill="#000000" fill-rule="evenodd" fill-opacity="1" /></svg>
