<?xml version="1.0" encoding="utf-8"?>
<svg xmlns="http://www.w3.org/2000/svg" xmlns:xlink="http://www.w3.org/1999/xlink" width="500" height="250" viewBox="0 0 2000 1000">
<defs>
  <clipPath id="clip880">
    <rect x="0" y="0" width="2000" height="1000"/>
  </clipPath>
</defs>
<path clip-path="url(#clip880)" d="
M0 1000 L2000 1000 L2000 0 L0 0  Z
  " fill="#ffffff" fill-rule="evenodd" fill-opacity="1"/>
<defs>
  <clipPath id="clip881">
    <rect x="400" y="0" width="1401" height="1000"/>
  </clipPath>
</defs>
<path clip-path="url(#clip880)" d="
M233.662 849.7 L1952.76 849.7 L1952.76 108.352 L233.662 108.352  Z
  " fill="#ffffff" fill-rule="evenodd" fill-opacity="1"/>
<defs>
  <clipPath id="clip882">
    <rect x="233" y="108" width="1720" height="742"/>
  </clipPath>
</defs>
<polyline clip-path="url(#clip882)" style="stroke:#000000; stroke-linecap:round; stroke-linejoin:round; stroke-width:2; stroke-opacity:0.1; fill:none" points="
  282.316,849.7 282.316,108.352 
  "/>
<polyline clip-path="url(#clip882)" style="stroke:#000000; stroke-linecap:round; stroke-linejoin:round; stroke-width:2; stroke-opacity:0.1; fill:none" points="
  687.762,849.7 687.762,108.352 
  "/>
<polyline clip-path="url(#clip882)" style="stroke:#000000; stroke-linecap:round; stroke-linejoin:round; stroke-width:2; stroke-opacity:0.1; fill:none" points="
  1093.21,849.7 1093.21,108.352 
  "/>
<polyline clip-path="url(#clip882)" style="stroke:#000000; stroke-linecap:round; stroke-linejoin:round; stroke-width:2; stroke-opacity:0.1; fill:none" points="
  1498.66,849.7 1498.66,108.352 
  "/>
<polyline clip-path="url(#clip882)" style="stroke:#000000; stroke-linecap:round; stroke-linejoin:round; stroke-width:2; stroke-opacity:0.1; fill:none" points="
  1904.1,849.7 1904.1,108.352 
  "/>
<polyline clip-path="url(#clip880)" style="stroke:#000000; stroke-linecap:round; stroke-linejoin:round; stroke-width:4; stroke-opacity:1; fill:none" points="
  233.662,849.7 1952.76,849.7 
  "/>
<polyline clip-path="url(#clip880)" style="stroke:#000000; stroke-linecap:round; stroke-linejoin:round; stroke-width:4; stroke-opacity:1; fill:none" points="
  282.316,849.7 282.316,830.802 
  "/>
<polyline clip-path="url(#clip880)" style="stroke:#000000; stroke-linecap:round; stroke-linejoin:round; stroke-width:4; stroke-opacity:1; fill:none" points="
  687.762,849.7 687.762,830.802 
  "/>
<polyline clip-path="url(#clip880)" style="stroke:#000000; stroke-linecap:round; stroke-linejoin:round; stroke-width:4; stroke-opacity:1; fill:none" points="
  1093.21,849.7 1093.21,830.802 
  "/>
<polyline clip-path="url(#clip880)" style="stroke:#000000; stroke-linecap:round; stroke-linejoin:round; stroke-width:4; stroke-opacity:1; fill:none" points="
  1498.66,849.7 1498.66,830.802 
  "/>
<polyline clip-path="url(#clip880)" style="stroke:#000000; stroke-linecap:round; stroke-linejoin:round; stroke-width:4; stroke-opacity:1; fill:none" points="
  1904.1,849.7 1904.1,830.802 
  "/>
<path clip-path="url(#clip880)" d="M282.316 877.419 Q278.705 877.419 276.876 880.983 Q275.07 884.525 275.07 891.655 Q275.07 898.761 276.876 902.326 Q278.705 905.867 282.316 905.867 Q285.95 905.867 287.755 902.326 Q289.584 898.761 289.584 891.655 Q289.584 884.525 287.755 880.983 Q285.95 877.419 282.316 877.419 M282.316 873.715 Q288.126 873.715 291.181 878.321 Q294.26 882.905 294.26 891.655 Q294.26 900.381 291.181 904.988 Q288.126 909.571 282.316 909.571 Q276.505 909.571 273.427 904.988 Q270.371 900.381 270.371 891.655 Q270.371 882.905 273.427 878.321 Q276.505 873.715 282.316 873.715 Z" fill="#000000" fill-rule="evenodd" fill-opacity="1" /><path clip-path="url(#clip880)" d="M662.45 904.965 L670.089 904.965 L670.089 878.599 L661.779 880.266 L661.779 876.007 L670.042 874.34 L674.718 874.34 L674.718 904.965 L682.357 904.965 L682.357 908.9 L662.45 908.9 L662.45 904.965 Z" fill="#000000" fill-rule="evenodd" fill-opacity="1" /><path clip-path="url(#clip880)" d="M701.802 877.419 Q698.19 877.419 696.362 880.983 Q694.556 884.525 694.556 891.655 Q694.556 898.761 696.362 902.326 Q698.19 905.867 701.802 905.867 Q705.436 905.867 707.241 902.326 Q709.07 898.761 709.07 891.655 Q709.07 884.525 707.241 880.983 Q705.436 877.419 701.802 877.419 M701.802 873.715 Q707.612 873.715 710.667 878.321 Q713.746 882.905 713.746 891.655 Q713.746 900.381 710.667 904.988 Q707.612 909.571 701.802 909.571 Q695.991 909.571 692.913 904.988 Q689.857 900.381 689.857 891.655 Q689.857 882.905 692.913 878.321 Q695.991 873.715 701.802 873.715 Z" fill="#000000" fill-rule="evenodd" fill-opacity="1" /><path clip-path="url(#clip880)" d="M1071.98 904.965 L1088.3 904.965 L1088.3 908.9 L1066.36 908.9 L1066.36 904.965 Q1069.02 902.21 1073.6 897.58 Q1078.21 892.928 1079.39 891.585 Q1081.63 889.062 1082.51 887.326 Q1083.42 885.567 1083.42 883.877 Q1083.42 881.122 1081.47 879.386 Q1079.55 877.65 1076.45 877.65 Q1074.25 877.65 1071.8 878.414 Q1069.37 879.178 1066.59 880.729 L1066.59 876.007 Q1069.41 874.872 1071.87 874.294 Q1074.32 873.715 1076.36 873.715 Q1081.73 873.715 1084.92 876.4 Q1088.12 879.085 1088.12 883.576 Q1088.12 885.706 1087.31 887.627 Q1086.52 889.525 1084.41 892.118 Q1083.83 892.789 1080.73 896.006 Q1077.63 899.201 1071.98 904.965 Z" fill="#000000" fill-rule="evenodd" fill-opacity="1" /><path clip-path="url(#clip880)" d="M1108.12 877.419 Q1104.51 877.419 1102.68 880.983 Q1100.87 884.525 1100.87 891.655 Q1100.87 898.761 1102.68 902.326 Q1104.51 905.867 1108.12 905.867 Q1111.75 905.867 1113.56 902.326 Q1115.38 898.761 1115.38 891.655 Q1115.38 884.525 1113.56 880.983 Q1111.75 877.419 1108.12 877.419 M1108.12 873.715 Q1113.93 873.715 1116.98 878.321 Q1120.06 882.905 1120.06 891.655 Q1120.06 900.381 1116.98 904.988 Q1113.93 909.571 1108.12 909.571 Q1102.31 909.571 1099.23 904.988 Q1096.17 900.381 1096.17 891.655 Q1096.17 882.905 1099.23 878.321 Q1102.31 873.715 1108.12 873.715 Z" fill="#000000" fill-rule="evenodd" fill-opacity="1" /><path clip-path="url(#clip880)" d="M1487.5 890.266 Q1490.85 890.983 1492.73 893.252 Q1494.63 895.52 1494.63 898.854 Q1494.63 903.969 1491.11 906.77 Q1487.59 909.571 1481.11 909.571 Q1478.93 909.571 1476.62 909.131 Q1474.33 908.715 1471.87 907.858 L1471.87 903.344 Q1473.82 904.479 1476.13 905.057 Q1478.45 905.636 1480.97 905.636 Q1485.37 905.636 1487.66 903.9 Q1489.98 902.164 1489.98 898.854 Q1489.98 895.798 1487.82 894.085 Q1485.69 892.349 1481.87 892.349 L1477.85 892.349 L1477.85 888.506 L1482.06 888.506 Q1485.51 888.506 1487.34 887.141 Q1489.16 885.752 1489.16 883.159 Q1489.16 880.497 1487.27 879.085 Q1485.39 877.65 1481.87 877.65 Q1479.95 877.65 1477.75 878.067 Q1475.55 878.483 1472.92 879.363 L1472.92 875.196 Q1475.58 874.456 1477.89 874.085 Q1480.23 873.715 1482.29 873.715 Q1487.61 873.715 1490.72 876.145 Q1493.82 878.553 1493.82 882.673 Q1493.82 885.543 1492.17 887.534 Q1490.53 889.502 1487.5 890.266 Z" fill="#000000" fill-rule="evenodd" fill-opacity="1" /><path clip-path="url(#clip880)" d="M1513.49 877.419 Q1509.88 877.419 1508.05 880.983 Q1506.25 884.525 1506.25 891.655 Q1506.25 898.761 1508.05 902.326 Q1509.88 905.867 1513.49 905.867 Q1517.13 905.867 1518.93 902.326 Q1520.76 898.761 1520.76 891.655 Q1520.76 884.525 1518.93 880.983 Q1517.13 877.419 1513.49 877.419 M1513.49 873.715 Q1519.3 873.715 1522.36 878.321 Q1525.44 882.905 1525.44 891.655 Q1525.44 900.381 1522.36 904.988 Q1519.3 909.571 1513.49 909.571 Q1507.68 909.571 1504.6 904.988 Q1501.55 900.381 1501.55 891.655 Q1501.55 882.905 1504.6 878.321 Q1507.68 873.715 1513.49 873.715 Z" fill="#000000" fill-rule="evenodd" fill-opacity="1" /><path clip-path="url(#clip880)" d="M1892.27 878.414 L1880.47 896.863 L1892.27 896.863 L1892.27 878.414 M1891.05 874.34 L1896.93 874.34 L1896.93 896.863 L1901.86 896.863 L1901.86 900.752 L1896.93 900.752 L1896.93 908.9 L1892.27 908.9 L1892.27 900.752 L1876.67 900.752 L1876.67 896.238 L1891.05 874.34 Z" fill="#000000" fill-rule="evenodd" fill-opacity="1" /><path clip-path="url(#clip880)" d="M1919.59 877.419 Q1915.98 877.419 1914.15 880.983 Q1912.34 884.525 1912.34 891.655 Q1912.34 898.761 1914.15 902.326 Q1915.98 905.867 1919.59 905.867 Q1923.22 905.867 1925.03 902.326 Q1926.86 898.761 1926.86 891.655 Q1926.86 884.525 1925.03 880.983 Q1923.22 877.419 1919.59 877.419 M1919.59 873.715 Q1925.4 873.715 1928.45 878.321 Q1931.53 882.905 1931.53 891.655 Q1931.53 900.381 1928.45 904.988 Q1925.4 909.571 1919.59 909.571 Q1913.78 909.571 1910.7 904.988 Q1907.64 900.381 1907.64 891.655 Q1907.64 882.905 1910.7 878.321 Q1913.78 873.715 1919.59 873.715 Z" fill="#000000" fill-rule="evenodd" fill-opacity="1" /><path clip-path="url(#clip880)" d="M1040.55 941.044 L1046.98 941.044 L1046.98 983.153 L1070.12 983.153 L1070.12 988.564 L1040.55 988.564 L1040.55 941.044 Z" fill="#000000" fill-rule="evenodd" fill-opacity="1" /><path clip-path="url(#clip880)" d="M1092.81 970.644 Q1085.71 970.644 1082.98 972.268 Q1080.24 973.891 1080.24 977.806 Q1080.24 980.925 1082.28 982.771 Q1084.34 984.585 1087.88 984.585 Q1092.75 984.585 1095.68 981.148 Q1098.64 977.678 1098.64 971.949 L1098.64 970.644 L1092.81 970.644 M1104.49 968.225 L1104.49 988.564 L1098.64 988.564 L1098.64 983.153 Q1096.63 986.4 1093.64 987.959 Q1090.65 989.487 1086.32 989.487 Q1080.84 989.487 1077.6 986.431 Q1074.38 983.344 1074.38 978.188 Q1074.38 972.172 1078.39 969.117 Q1082.44 966.061 1090.42 966.061 L1098.64 966.061 L1098.64 965.488 Q1098.64 961.446 1095.96 959.25 Q1093.32 957.022 1088.51 957.022 Q1085.46 957.022 1082.56 957.754 Q1079.67 958.486 1076.99 959.95 L1076.99 954.539 Q1080.21 953.298 1083.23 952.693 Q1086.25 952.057 1089.12 952.057 Q1096.85 952.057 1100.67 956.067 Q1104.49 960.077 1104.49 968.225 Z" fill="#000000" fill-rule="evenodd" fill-opacity="1" /><path clip-path="url(#clip880)" d="M1140.01 970.326 Q1140.01 963.96 1137.37 960.459 Q1134.76 956.958 1130.02 956.958 Q1125.31 956.958 1122.67 960.459 Q1120.06 963.96 1120.06 970.326 Q1120.06 976.66 1122.67 980.161 Q1125.31 983.662 1130.02 983.662 Q1134.76 983.662 1137.37 980.161 Q1140.01 976.66 1140.01 970.326 M1145.87 984.14 Q1145.87 993.243 1141.83 997.667 Q1137.78 1002.12 1129.45 1002.12 Q1126.36 1002.12 1123.62 1001.65 Q1120.88 1001.2 1118.31 1000.24 L1118.31 994.548 Q1120.88 995.948 1123.4 996.616 Q1125.91 997.285 1128.52 997.285 Q1134.28 997.285 1137.15 994.261 Q1140.01 991.269 1140.01 985.19 L1140.01 982.294 Q1138.2 985.445 1135.37 987.004 Q1132.53 988.564 1128.59 988.564 Q1122.03 988.564 1118.02 983.567 Q1114.01 978.57 1114.01 970.326 Q1114.01 962.051 1118.02 957.054 Q1122.03 952.057 1128.59 952.057 Q1132.53 952.057 1135.37 953.616 Q1138.2 955.176 1140.01 958.327 L1140.01 952.916 L1145.87 952.916 L1145.87 984.14 Z" fill="#000000" fill-rule="evenodd" fill-opacity="1" /><polyline clip-path="url(#clip882)" style="stroke:#000000; stroke-linecap:round; stroke-linejoin:round; stroke-width:2; stroke-opacity:0.1; fill:none" points="
  233.662,809.171 1952.76,809.171 
  "/>
<polyline clip-path="url(#clip882)" style="stroke:#000000; stroke-linecap:round; stroke-linejoin:round; stroke-width:2; stroke-opacity:0.1; fill:none" points="
  233.662,639.212 1952.76,639.212 
  "/>
<polyline clip-path="url(#clip882)" style="stroke:#000000; stroke-linecap:round; stroke-linejoin:round; stroke-width:2; stroke-opacity:0.1; fill:none" points="
  233.662,469.252 1952.76,469.252 
  "/>
<polyline clip-path="url(#clip882)" style="stroke:#000000; stroke-linecap:round; stroke-linejoin:round; stroke-width:2; stroke-opacity:0.1; fill:none" points="
  233.662,299.293 1952.76,299.293 
  "/>
<polyline clip-path="url(#clip882)" style="stroke:#000000; stroke-linecap:round; stroke-linejoin:round; stroke-width:2; stroke-opacity:0.1; fill:none" points="
  233.662,129.334 1952.76,129.334 
  "/>
<polyline clip-path="url(#clip880)" style="stroke:#000000; stroke-linecap:round; stroke-linejoin:round; stroke-width:4; stroke-opacity:1; fill:none" points="
  233.662,849.7 233.662,108.352 
  "/>
<polyline clip-path="url(#clip880)" style="stroke:#000000; stroke-linecap:round; stroke-linejoin:round; stroke-width:4; stroke-opacity:1; fill:none" points="
  233.662,809.171 252.56,809.171 
  "/>
<polyline clip-path="url(#clip880)" style="stroke:#000000; stroke-linecap:round; stroke-linejoin:round; stroke-width:4; stroke-opacity:1; fill:none" points="
  233.662,639.212 252.56,639.212 
  "/>
<polyline clip-path="url(#clip880)" style="stroke:#000000; stroke-linecap:round; stroke-linejoin:round; stroke-width:4; stroke-opacity:1; fill:none" points="
  233.662,469.252 252.56,469.252 
  "/>
<polyline clip-path="url(#clip880)" style="stroke:#000000; stroke-linecap:round; stroke-linejoin:round; stroke-width:4; stroke-opacity:1; fill:none" points="
  233.662,299.293 252.56,299.293 
  "/>
<polyline clip-path="url(#clip880)" style="stroke:#000000; stroke-linecap:round; stroke-linejoin:round; stroke-width:4; stroke-opacity:1; fill:none" points="
  233.662,129.334 252.56,129.334 
  "/>
<path clip-path="url(#clip880)" d="M116.325 794.97 Q112.713 794.97 110.885 798.535 Q109.079 802.076 109.079 809.206 Q109.079 816.312 110.885 819.877 Q112.713 823.419 116.325 823.419 Q119.959 823.419 121.764 819.877 Q123.593 816.312 123.593 809.206 Q123.593 802.076 121.764 798.535 Q119.959 794.97 116.325 794.97 M116.325 791.266 Q122.135 791.266 125.19 795.873 Q128.269 800.456 128.269 809.206 Q128.269 817.933 125.19 822.539 Q122.135 827.122 116.325 827.122 Q110.514 827.122 107.436 822.539 Q104.38 817.933 104.38 809.206 Q104.38 800.456 107.436 795.873 Q110.514 791.266 116.325 791.266 Z" fill="#000000" fill-rule="evenodd" fill-opacity="1" /><path clip-path="url(#clip880)" d="M136.486 820.572 L141.371 820.572 L141.371 826.451 L136.486 826.451 L136.486 820.572 Z" fill="#000000" fill-rule="evenodd" fill-opacity="1" /><path clip-path="url(#clip880)" d="M161.556 794.97 Q157.945 794.97 156.116 798.535 Q154.31 802.076 154.31 809.206 Q154.31 816.312 156.116 819.877 Q157.945 823.419 161.556 823.419 Q165.19 823.419 166.996 819.877 Q168.824 816.312 168.824 809.206 Q168.824 802.076 166.996 798.535 Q165.19 794.97 161.556 794.97 M161.556 791.266 Q167.366 791.266 170.421 795.873 Q173.5 800.456 173.5 809.206 Q173.5 817.933 170.421 822.539 Q167.366 827.122 161.556 827.122 Q155.746 827.122 152.667 822.539 Q149.611 817.933 149.611 809.206 Q149.611 800.456 152.667 795.873 Q155.746 791.266 161.556 791.266 Z" fill="#000000" fill-rule="evenodd" fill-opacity="1" /><path clip-path="url(#clip880)" d="M191.718 794.97 Q188.107 794.97 186.278 798.535 Q184.472 802.076 184.472 809.206 Q184.472 816.312 186.278 819.877 Q188.107 823.419 191.718 823.419 Q195.352 823.419 197.157 819.877 Q198.986 816.312 198.986 809.206 Q198.986 802.076 197.157 798.535 Q195.352 794.97 191.718 794.97 M191.718 791.266 Q197.528 791.266 200.583 795.873 Q203.662 800.456 203.662 809.206 Q203.662 817.933 200.583 822.539 Q197.528 827.122 191.718 827.122 Q185.907 827.122 182.829 822.539 Q179.773 817.933 179.773 809.206 Q179.773 800.456 182.829 795.873 Q185.907 791.266 191.718 791.266 Z" fill="#000000" fill-rule="evenodd" fill-opacity="1" /><path clip-path="url(#clip880)" d="M117.32 625.01 Q113.709 625.01 111.88 628.575 Q110.075 632.117 110.075 639.246 Q110.075 646.353 111.88 649.918 Q113.709 653.459 117.32 653.459 Q120.954 653.459 122.76 649.918 Q124.588 646.353 124.588 639.246 Q124.588 632.117 122.76 628.575 Q120.954 625.01 117.32 625.01 M117.32 621.307 Q123.13 621.307 126.186 625.913 Q129.264 630.497 129.264 639.246 Q129.264 647.973 126.186 652.58 Q123.13 657.163 117.32 657.163 Q111.51 657.163 108.431 652.58 Q105.376 647.973 105.376 639.246 Q105.376 630.497 108.431 625.913 Q111.51 621.307 117.32 621.307 Z" fill="#000000" fill-rule="evenodd" fill-opacity="1" /><path clip-path="url(#clip880)" d="M137.482 650.612 L142.366 650.612 L142.366 656.492 L137.482 656.492 L137.482 650.612 Z" fill="#000000" fill-rule="evenodd" fill-opacity="1" /><path clip-path="url(#clip880)" d="M156.579 652.557 L172.898 652.557 L172.898 656.492 L150.954 656.492 L150.954 652.557 Q153.616 649.802 158.199 645.172 Q162.806 640.52 163.986 639.177 Q166.232 636.654 167.111 634.918 Q168.014 633.159 168.014 631.469 Q168.014 628.714 166.07 626.978 Q164.148 625.242 161.047 625.242 Q158.847 625.242 156.394 626.006 Q153.963 626.77 151.185 628.321 L151.185 623.598 Q154.01 622.464 156.463 621.885 Q158.917 621.307 160.954 621.307 Q166.324 621.307 169.519 623.992 Q172.713 626.677 172.713 631.168 Q172.713 633.297 171.903 635.219 Q171.116 637.117 169.009 639.709 Q168.431 640.381 165.329 643.598 Q162.227 646.793 156.579 652.557 Z" fill="#000000" fill-rule="evenodd" fill-opacity="1" /><path clip-path="url(#clip880)" d="M182.759 621.932 L201.116 621.932 L201.116 625.867 L187.042 625.867 L187.042 634.339 Q188.06 633.992 189.079 633.83 Q190.097 633.645 191.116 633.645 Q196.903 633.645 200.282 636.816 Q203.662 639.987 203.662 645.404 Q203.662 650.983 200.19 654.084 Q196.718 657.163 190.398 657.163 Q188.222 657.163 185.954 656.793 Q183.708 656.422 181.301 655.682 L181.301 650.983 Q183.384 652.117 185.607 652.672 Q187.829 653.228 190.306 653.228 Q194.31 653.228 196.648 651.121 Q198.986 649.015 198.986 645.404 Q198.986 641.793 196.648 639.686 Q194.31 637.58 190.306 637.58 Q188.431 637.58 186.556 637.997 Q184.704 638.413 182.759 639.293 L182.759 621.932 Z" fill="#000000" fill-rule="evenodd" fill-opacity="1" /><path clip-path="url(#clip880)" d="M116.325 455.051 Q112.713 455.051 110.885 458.616 Q109.079 462.158 109.079 469.287 Q109.079 476.394 110.885 479.958 Q112.713 483.5 116.325 483.5 Q119.959 483.5 121.764 479.958 Q123.593 476.394 123.593 469.287 Q123.593 462.158 121.764 458.616 Q119.959 455.051 116.325 455.051 M116.325 451.347 Q122.135 451.347 125.19 455.954 Q128.269 460.537 128.269 469.287 Q128.269 478.014 125.19 482.62 Q122.135 487.204 116.325 487.204 Q110.514 487.204 107.436 482.62 Q104.38 478.014 104.38 469.287 Q104.38 460.537 107.436 455.954 Q110.514 451.347 116.325 451.347 Z" fill="#000000" fill-rule="evenodd" fill-opacity="1" /><path clip-path="url(#clip880)" d="M136.486 480.653 L141.371 480.653 L141.371 486.532 L136.486 486.532 L136.486 480.653 Z" fill="#000000" fill-rule="evenodd" fill-opacity="1" /><path clip-path="url(#clip880)" d="M151.602 451.972 L169.959 451.972 L169.959 455.908 L155.885 455.908 L155.885 464.38 Q156.903 464.033 157.922 463.87 Q158.94 463.685 159.959 463.685 Q165.746 463.685 169.125 466.857 Q172.505 470.028 172.505 475.445 Q172.505 481.023 169.033 484.125 Q165.56 487.204 159.241 487.204 Q157.065 487.204 154.797 486.833 Q152.551 486.463 150.144 485.722 L150.144 481.023 Q152.227 482.157 154.449 482.713 Q156.672 483.269 159.148 483.269 Q163.153 483.269 165.491 481.162 Q167.829 479.056 167.829 475.445 Q167.829 471.833 165.491 469.727 Q163.153 467.62 159.148 467.62 Q157.273 467.62 155.398 468.037 Q153.547 468.454 151.602 469.333 L151.602 451.972 Z" fill="#000000" fill-rule="evenodd" fill-opacity="1" /><path clip-path="url(#clip880)" d="M191.718 455.051 Q188.107 455.051 186.278 458.616 Q184.472 462.158 184.472 469.287 Q184.472 476.394 186.278 479.958 Q188.107 483.5 191.718 483.5 Q195.352 483.5 197.157 479.958 Q198.986 476.394 198.986 469.287 Q198.986 462.158 197.157 458.616 Q195.352 455.051 191.718 455.051 M191.718 451.347 Q197.528 451.347 200.583 455.954 Q203.662 460.537 203.662 469.287 Q203.662 478.014 200.583 482.62 Q197.528 487.204 191.718 487.204 Q185.907 487.204 182.829 482.62 Q179.773 478.014 179.773 469.287 Q179.773 460.537 182.829 455.954 Q185.907 451.347 191.718 451.347 Z" fill="#000000" fill-rule="evenodd" fill-opacity="1" /><path clip-path="url(#clip880)" d="M117.32 285.092 Q113.709 285.092 111.88 288.657 Q110.075 292.198 110.075 299.328 Q110.075 306.434 111.88 309.999 Q113.709 313.541 117.32 313.541 Q120.954 313.541 122.76 309.999 Q124.588 306.434 124.588 299.328 Q124.588 292.198 122.76 288.657 Q120.954 285.092 117.32 285.092 M117.32 281.388 Q123.13 281.388 126.186 285.994 Q129.264 290.578 129.264 299.328 Q129.264 308.055 126.186 312.661 Q123.13 317.244 117.32 317.244 Q111.51 317.244 108.431 312.661 Q105.376 308.055 105.376 299.328 Q105.376 290.578 108.431 285.994 Q111.51 281.388 117.32 281.388 Z" fill="#000000" fill-rule="evenodd" fill-opacity="1" /><path clip-path="url(#clip880)" d="M137.482 310.693 L142.366 310.693 L142.366 316.573 L137.482 316.573 L137.482 310.693 Z" fill="#000000" fill-rule="evenodd" fill-opacity="1" /><path clip-path="url(#clip880)" d="M151.371 282.013 L173.593 282.013 L173.593 284.004 L161.047 316.573 L156.162 316.573 L167.968 285.948 L151.371 285.948 L151.371 282.013 Z" fill="#000000" fill-rule="evenodd" fill-opacity="1" /><path clip-path="url(#clip880)" d="M182.759 282.013 L201.116 282.013 L201.116 285.948 L187.042 285.948 L187.042 294.42 Q188.06 294.073 189.079 293.911 Q190.097 293.726 191.116 293.726 Q196.903 293.726 200.282 296.897 Q203.662 300.068 203.662 305.485 Q203.662 311.064 200.19 314.166 Q196.718 317.244 190.398 317.244 Q188.222 317.244 185.954 316.874 Q183.708 316.504 181.301 315.763 L181.301 311.064 Q183.384 312.198 185.607 312.754 Q187.829 313.309 190.306 313.309 Q194.31 313.309 196.648 311.203 Q198.986 309.096 198.986 305.485 Q198.986 301.874 196.648 299.768 Q194.31 297.661 190.306 297.661 Q188.431 297.661 186.556 298.078 Q184.704 298.494 182.759 299.374 L182.759 282.013 Z" fill="#000000" fill-rule="evenodd" fill-opacity="1" /><path clip-path="url(#clip880)" d="M107.135 142.679 L114.774 142.679 L114.774 116.313 L106.463 117.98 L106.463 113.72 L114.727 112.054 L119.403 112.054 L119.403 142.679 L127.042 142.679 L127.042 146.614 L107.135 146.614 L107.135 142.679 Z" fill="#000000" fill-rule="evenodd" fill-opacity="1" /><path clip-path="url(#clip880)" d="M136.486 140.734 L141.371 140.734 L141.371 146.614 L136.486 146.614 L136.486 140.734 Z" fill="#000000" fill-rule="evenodd" fill-opacity="1" /><path clip-path="url(#clip880)" d="M161.556 115.132 Q157.945 115.132 156.116 118.697 Q154.31 122.239 154.31 129.368 Q154.31 136.475 156.116 140.04 Q157.945 143.581 161.556 143.581 Q165.19 143.581 166.996 140.04 Q168.824 136.475 168.824 129.368 Q168.824 122.239 166.996 118.697 Q165.19 115.132 161.556 115.132 M161.556 111.429 Q167.366 111.429 170.421 116.035 Q173.5 120.618 173.5 129.368 Q173.5 138.095 170.421 142.702 Q167.366 147.285 161.556 147.285 Q155.746 147.285 152.667 142.702 Q149.611 138.095 149.611 129.368 Q149.611 120.618 152.667 116.035 Q155.746 111.429 161.556 111.429 Z" fill="#000000" fill-rule="evenodd" fill-opacity="1" /><path clip-path="url(#clip880)" d="M191.718 115.132 Q188.107 115.132 186.278 118.697 Q184.472 122.239 184.472 129.368 Q184.472 136.475 186.278 140.04 Q188.107 143.581 191.718 143.581 Q195.352 143.581 197.157 140.04 Q198.986 136.475 198.986 129.368 Q198.986 122.239 197.157 118.697 Q195.352 115.132 191.718 115.132 M191.718 111.429 Q197.528 111.429 200.583 116.035 Q203.662 120.618 203.662 129.368 Q203.662 138.095 200.583 142.702 Q197.528 147.285 191.718 147.285 Q185.907 147.285 182.829 142.702 Q179.773 138.095 179.773 129.368 Q179.773 120.618 182.829 116.035 Q185.907 111.429 191.718 111.429 Z" fill="#000000" fill-rule="evenodd" fill-opacity="1" /><path clip-path="url(#clip880)" d="M18.938 704.786 L42.5866 713.507 L42.5866 696.033 L18.938 704.786 M12.6042 708.414 L12.6042 701.125 L60.1242 683.015 L60.1242 689.699 L47.9338 694.028 L47.9338 715.448 L60.1242 719.777 L60.1242 726.556 L12.6042 708.414 Z" fill="#000000" fill-rule="evenodd" fill-opacity="1" /><path clip-path="url(#clip880)" d="M46.0559 676.936 L24.4762 676.936 L24.4762 671.079 L45.8331 671.079 Q50.8939 671.079 53.4402 669.106 Q55.9546 667.133 55.9546 663.186 Q55.9546 658.443 52.9309 655.706 Q49.9072 652.937 44.6873 652.937 L24.4762 652.937 L24.4762 647.081 L60.1242 647.081 L60.1242 652.937 L54.6496 652.937 Q57.8962 655.07 59.4876 657.902 Q61.0472 660.703 61.0472 664.427 Q61.0472 670.57 57.2278 673.753 Q53.4083 676.936 46.0559 676.936 M23.6168 662.199 L23.6168 662.199 Z" fill="#000000" fill-rule="evenodd" fill-opacity="1" /><path clip-path="url(#clip880)" d="M14.3547 629.225 L24.4762 629.225 L24.4762 617.162 L29.0277 617.162 L29.0277 629.225 L48.3794 629.225 Q52.7399 629.225 53.9813 628.047 Q55.2226 626.838 55.2226 623.177 L55.2226 617.162 L60.1242 617.162 L60.1242 623.177 Q60.1242 629.957 57.6097 632.535 Q55.0634 635.113 48.3794 635.113 L29.0277 635.113 L29.0277 639.41 L24.4762 639.41 L24.4762 635.113 L14.3547 635.113 L14.3547 629.225 Z" fill="#000000" fill-rule="evenodd" fill-opacity="1" /><path clip-path="url(#clip880)" d="M28.5821 595.646 Q28.5821 600.356 32.2742 603.094 Q35.9345 605.831 42.332 605.831 Q48.7295 605.831 52.4217 603.125 Q56.0819 600.388 56.0819 595.646 Q56.0819 590.967 52.3898 588.23 Q48.6977 585.492 42.332 585.492 Q35.9981 585.492 32.306 588.23 Q28.5821 590.967 28.5821 595.646 M23.6168 595.646 Q23.6168 588.007 28.5821 583.646 Q33.5473 579.286 42.332 579.286 Q51.0849 579.286 56.0819 583.646 Q61.0472 588.007 61.0472 595.646 Q61.0472 603.316 56.0819 607.677 Q51.0849 612.006 42.332 612.006 Q33.5473 612.006 28.5821 607.677 Q23.6168 603.316 23.6168 595.646 Z" fill="#000000" fill-rule="evenodd" fill-opacity="1" /><path clip-path="url(#clip880)" d="M25.8448 543.924 L31.3193 543.924 Q29.9507 546.407 29.2823 548.921 Q28.5821 551.404 28.5821 553.95 Q28.5821 559.648 32.2105 562.799 Q35.8072 565.95 42.332 565.95 Q48.8569 565.95 52.4853 562.799 Q56.0819 559.648 56.0819 553.95 Q56.0819 551.404 55.4135 548.921 Q54.7133 546.407 53.3447 543.924 L58.7555 543.924 Q59.9014 546.375 60.4743 549.017 Q61.0472 551.627 61.0472 554.587 Q61.0472 562.64 55.9864 567.382 Q50.9257 572.124 42.332 572.124 Q33.611 572.124 28.6139 567.35 Q23.6168 562.544 23.6168 554.205 Q23.6168 551.5 24.1897 548.921 Q24.7308 546.343 25.8448 543.924 Z" fill="#000000" fill-rule="evenodd" fill-opacity="1" /><path clip-path="url(#clip880)" d="M28.5821 519.926 Q28.5821 524.636 32.2742 527.374 Q35.9345 530.111 42.332 530.111 Q48.7295 530.111 52.4217 527.405 Q56.0819 524.668 56.0819 519.926 Q56.0819 515.247 52.3898 512.51 Q48.6977 509.772 42.332 509.772 Q35.9981 509.772 32.306 512.51 Q28.5821 515.247 28.5821 519.926 M23.6168 519.926 Q23.6168 512.287 28.5821 507.926 Q33.5473 503.566 42.332 503.566 Q51.0849 503.566 56.0819 507.926 Q61.0472 512.287 61.0472 519.926 Q61.0472 527.596 56.0819 531.957 Q51.0849 536.286 42.332 536.286 Q33.5473 536.286 28.5821 531.957 Q23.6168 527.596 23.6168 519.926 Z" fill="#000000" fill-rule="evenodd" fill-opacity="1" /><path clip-path="url(#clip880)" d="M29.9507 473.201 Q29.3778 474.188 29.1232 475.366 Q28.8367 476.512 28.8367 477.912 Q28.8367 482.877 32.0832 485.551 Q35.2979 488.193 41.3453 488.193 L60.1242 488.193 L60.1242 494.081 L24.4762 494.081 L24.4762 488.193 L30.0144 488.193 Q26.7679 486.347 25.2083 483.386 Q23.6168 480.426 23.6168 476.193 Q23.6168 475.589 23.7123 474.856 Q23.776 474.124 23.9351 473.233 L29.9507 473.201 Z" fill="#000000" fill-rule="evenodd" fill-opacity="1" /><path clip-path="url(#clip880)" d="M29.9507 447.548 Q29.3778 448.534 29.1232 449.712 Q28.8367 450.858 28.8367 452.258 Q28.8367 457.223 32.0832 459.897 Q35.2979 462.539 41.3453 462.539 L60.1242 462.539 L60.1242 468.427 L24.4762 468.427 L24.4762 462.539 L30.0144 462.539 Q26.7679 460.693 25.2083 457.733 Q23.6168 454.773 23.6168 450.539 Q23.6168 449.935 23.7123 449.203 Q23.776 448.471 23.9351 447.579 L29.9507 447.548 Z" fill="#000000" fill-rule="evenodd" fill-opacity="1" /><path clip-path="url(#clip880)" d="M40.8361 412.345 L43.7006 412.345 L43.7006 439.272 Q49.7481 438.89 52.9309 435.644 Q56.0819 432.365 56.0819 426.541 Q56.0819 423.167 55.2544 420.016 Q54.4269 416.833 52.7718 413.714 L58.3099 413.714 Q59.6467 416.865 60.347 420.175 Q61.0472 423.485 61.0472 426.891 Q61.0472 435.421 56.0819 440.418 Q51.1167 445.383 42.6503 445.383 Q33.8974 445.383 28.7731 440.673 Q23.6168 435.93 23.6168 427.909 Q23.6168 420.716 28.2638 416.547 Q32.8789 412.345 40.8361 412.345 M39.1173 418.202 Q34.3112 418.265 31.4466 420.907 Q28.5821 423.517 28.5821 427.846 Q28.5821 432.747 31.3512 435.707 Q34.1202 438.636 39.1492 439.081 L39.1173 418.202 Z" fill="#000000" fill-rule="evenodd" fill-opacity="1" /><path clip-path="url(#clip880)" d="M10.599 402.733 L10.599 396.877 L60.1242 396.877 L60.1242 402.733 L10.599 402.733 Z" fill="#000000" fill-rule="evenodd" fill-opacity="1" /><path clip-path="url(#clip880)" d="M42.2047 368.422 Q42.2047 375.52 43.8279 378.257 Q45.4512 380.994 49.3661 380.994 Q52.4853 380.994 54.3314 378.957 Q56.1456 376.888 56.1456 373.355 Q56.1456 368.485 52.7081 365.557 Q49.2388 362.597 43.5097 362.597 L42.2047 362.597 L42.2047 368.422 M39.7857 356.741 L60.1242 356.741 L60.1242 362.597 L54.7133 362.597 Q57.9598 364.602 59.5194 367.594 Q61.0472 370.586 61.0472 374.915 Q61.0472 380.389 57.9916 383.636 Q54.9043 386.851 49.7481 386.851 Q43.7325 386.851 40.6769 382.84 Q37.6214 378.798 37.6214 370.809 L37.6214 362.597 L37.0485 362.597 Q33.0062 362.597 30.8101 365.271 Q28.5821 367.913 28.5821 372.719 Q28.5821 375.774 29.3141 378.671 Q30.0462 381.567 31.5103 384.241 L26.0995 384.241 Q24.8581 381.026 24.2534 378.002 Q23.6168 374.979 23.6168 372.114 Q23.6168 364.38 27.6272 360.56 Q31.6376 356.741 39.7857 356.741 Z" fill="#000000" fill-rule="evenodd" fill-opacity="1" /><path clip-path="url(#clip880)" d="M14.3547 338.885 L24.4762 338.885 L24.4762 326.822 L29.0277 326.822 L29.0277 338.885 L48.3794 338.885 Q52.7399 338.885 53.9813 337.707 Q55.2226 336.498 55.2226 332.838 L55.2226 326.822 L60.1242 326.822 L60.1242 332.838 Q60.1242 339.617 57.6097 342.195 Q55.0634 344.773 48.3794 344.773 L29.0277 344.773 L29.0277 349.07 L24.4762 349.07 L24.4762 344.773 L14.3547 344.773 L14.3547 338.885 Z" fill="#000000" fill-rule="evenodd" fill-opacity="1" /><path clip-path="url(#clip880)" d="M24.4762 319.119 L24.4762 313.263 L60.1242 313.263 L60.1242 319.119 L24.4762 319.119 M10.599 319.119 L10.599 313.263 L18.015 313.263 L18.015 319.119 L10.599 319.119 Z" fill="#000000" fill-rule="evenodd" fill-opacity="1" /><path clip-path="url(#clip880)" d="M28.5821 287.195 Q28.5821 291.906 32.2742 294.643 Q35.9345 297.381 42.332 297.381 Q48.7295 297.381 52.4217 294.675 Q56.0819 291.938 56.0819 287.195 Q56.0819 282.517 52.3898 279.779 Q48.6977 277.042 42.332 277.042 Q35.9981 277.042 32.306 279.779 Q28.5821 282.517 28.5821 287.195 M23.6168 287.195 Q23.6168 279.557 28.5821 275.196 Q33.5473 270.836 42.332 270.836 Q51.0849 270.836 56.0819 275.196 Q61.0472 279.557 61.0472 287.195 Q61.0472 294.866 56.0819 299.227 Q51.0849 303.555 42.332 303.555 Q33.5473 303.555 28.5821 299.227 Q23.6168 294.866 23.6168 287.195 Z" fill="#000000" fill-rule="evenodd" fill-opacity="1" /><path clip-path="url(#clip880)" d="M38.6081 231.495 L60.1242 231.495 L60.1242 237.352 L38.799 237.352 Q33.7383 237.352 31.2238 239.325 Q28.7094 241.299 28.7094 245.245 Q28.7094 249.988 31.7331 252.725 Q34.7568 255.462 39.9767 255.462 L60.1242 255.462 L60.1242 261.351 L24.4762 261.351 L24.4762 255.462 L30.0144 255.462 Q26.7997 253.362 25.2083 250.529 Q23.6168 247.664 23.6168 243.94 Q23.6168 237.798 27.4363 234.647 Q31.2238 231.495 38.6081 231.495 Z" fill="#000000" fill-rule="evenodd" fill-opacity="1" /><path clip-path="url(#clip880)" d="M1114.35 27.2059 L1097.95 49.2833 L1115.21 72.576 L1106.41 72.576 L1093.21 54.752 L1080 72.576 L1071.21 72.576 L1088.83 48.8377 L1072.71 27.2059 L1081.5 27.2059 L1093.53 43.369 L1105.56 27.2059 L1114.35 27.2059 Z" fill="#000000" fill-rule="evenodd" fill-opacity="1" /><polyline clip-path="url(#clip882)" style="stroke:#009af9; stroke-linecap:round; stroke-linejoin:round; stroke-width:4; stroke-opacity:1; fill:none" points="
  282.316,129.334 322.86,292.057 363.405,411.661 403.95,500.853 444.494,570.966 485.039,625.102 525.584,667.84 566.128,701.355 606.673,729.151 647.218,751.457 
  687.762,769.616 728.307,784.159 768.852,794.792 809.396,799.663 849.941,799.514 890.486,806.494 931.03,809.021 971.575,807.404 1012.12,803.887 1052.66,801.754 
  1093.21,804.947 1133.75,802.144 1174.3,800.874 1214.84,805.637 1255.39,811.578 1295.93,816.593 1336.48,825.388 1377.02,828.718 1417.57,827.933 1458.11,823.424 
  1498.66,820.656 1539.2,817.728 1579.74,818.828 1620.29,814.957 1660.83,812.615 1701.38,806.636 1741.92,805.221 1782.47,805.202 1823.01,804.398 1863.56,803.622 
  1904.1,806.99 
  "/>
<polyline clip-path="url(#clip882)" style="stroke:#e26f46; stroke-linecap:round; stroke-linejoin:round; stroke-width:4; stroke-opacity:1; fill:none" points="
  282.316,129.334 322.86,168.297 363.405,203.986 403.95,238.428 444.494,271.168 485.039,301.977 525.584,331.436 566.128,359.363 606.673,385.069 647.218,407.853 
  687.762,429.723 728.307,449.986 768.852,469.884 809.396,488.365 849.941,504.401 890.486,518.543 931.03,531.12 971.575,543.655 1012.12,554.965 1052.66,565.481 
  1093.21,577.03 1133.75,588.489 1174.3,597.816 1214.84,606.496 1255.39,614.666 1295.93,622.289 1336.48,630.033 1377.02,637.98 1417.57,646.212 1458.11,654.75 
  1498.66,662.021 1539.2,670.565 1579.74,678.79 1620.29,685.696 1660.83,692.626 1701.38,699.252 1741.92,705.043 1782.47,710.906 1823.01,716.941 1863.56,722.09 
  1904.1,728.196 
  "/>
<polyline clip-path="url(#clip882)" style="stroke:#3da44d; stroke-linecap:round; stroke-linejoin:round; stroke-width:4; stroke-opacity:1; fill:none" points="
  282.316,129.334 322.86,142.183 363.405,155.089 403.95,167.37 444.494,179.39 485.039,191.189 525.584,202.666 566.128,214.181 606.673,225.722 647.218,236.95 
  687.762,247.654 728.307,257.842 768.852,267.748 809.396,277.557 849.941,286.917 890.486,296.114 931.03,305.226 971.575,314.045 1012.12,322.919 1052.66,331.368 
  1093.21,339.551 1133.75,347.555 1174.3,355.343 1214.84,362.781 1255.39,370.327 1295.93,377.354 1336.48,384.101 1377.02,390.768 1417.57,397.604 1458.11,404.448 
  1498.66,410.945 1539.2,416.989 1579.74,422.94 1620.29,429.099 1660.83,434.926 1701.38,440.71 1741.92,446.915 1782.47,452.997 1823.01,458.986 1863.56,464.965 
  1904.1,470.853 
  "/>
<path clip-path="url(#clip880)" d="
M1245.26 340.424 L1895.45 340.424 L1895.45 133.064 L1245.26 133.064  Z
  " fill="#ffffff" fill-rule="evenodd" fill-opacity="1"/>
<polyline clip-path="url(#clip880)" style="stroke:#000000; stroke-linecap:round; stroke-linejoin:round; stroke-width:4; stroke-opacity:1; fill:none" points="
  1245.26,340.424 1895.45,340.424 1895.45,133.064 1245.26,133.064 1245.26,340.424 
  "/>
<polyline clip-path="url(#clip880)" style="stroke:#009af9; stroke-linecap:round; stroke-linejoin:round; stroke-width:4; stroke-opacity:1; fill:none" points="
  1264.36,184.904 1378.97,184.904 
  "/>
<path clip-path="url(#clip880)" d="M1423.62 197.253 L1423.62 187.971 L1415.98 187.971 L1415.98 184.128 L1428.25 184.128 L1428.25 198.966 Q1425.54 200.887 1422.28 201.883 Q1419.02 202.855 1415.31 202.855 Q1407.21 202.855 1402.63 198.133 Q1398.07 193.387 1398.07 184.938 Q1398.07 176.466 1402.63 171.744 Q1407.21 166.999 1415.31 166.999 Q1418.69 166.999 1421.72 167.832 Q1424.78 168.665 1427.35 170.286 L1427.35 175.263 Q1424.76 173.064 1421.84 171.952 Q1418.92 170.841 1415.71 170.841 Q1409.36 170.841 1406.17 174.383 Q1403 177.925 1403 184.938 Q1403 191.929 1406.17 195.471 Q1409.36 199.012 1415.71 199.012 Q1418.18 199.012 1420.13 198.596 Q1422.07 198.156 1423.62 197.253 Z" fill="#000000" fill-rule="evenodd" fill-opacity="1" /><path clip-path="url(#clip880)" d="M1446.65 179.244 Q1443.23 179.244 1441.24 181.929 Q1439.25 184.591 1439.25 189.244 Q1439.25 193.897 1441.22 196.582 Q1443.21 199.244 1446.65 199.244 Q1450.06 199.244 1452.05 196.559 Q1454.04 193.874 1454.04 189.244 Q1454.04 184.638 1452.05 181.952 Q1450.06 179.244 1446.65 179.244 M1446.65 175.633 Q1452.21 175.633 1455.38 179.244 Q1458.55 182.855 1458.55 189.244 Q1458.55 195.61 1455.38 199.244 Q1452.21 202.855 1446.65 202.855 Q1441.08 202.855 1437.91 199.244 Q1434.76 195.61 1434.76 189.244 Q1434.76 182.855 1437.91 179.244 Q1441.08 175.633 1446.65 175.633 Z" fill="#000000" fill-rule="evenodd" fill-opacity="1" /><path clip-path="url(#clip880)" d="M1465.61 166.165 L1469.87 166.165 L1469.87 202.184 L1465.61 202.184 L1465.61 166.165 Z" fill="#000000" fill-rule="evenodd" fill-opacity="1" /><path clip-path="url(#clip880)" d="M1495.84 180.193 L1495.84 166.165 L1500.1 166.165 L1500.1 202.184 L1495.84 202.184 L1495.84 198.295 Q1494.5 200.61 1492.44 201.744 Q1490.4 202.855 1487.53 202.855 Q1482.84 202.855 1479.87 199.105 Q1476.93 195.355 1476.93 189.244 Q1476.93 183.133 1479.87 179.383 Q1482.84 175.633 1487.53 175.633 Q1490.4 175.633 1492.44 176.767 Q1494.5 177.878 1495.84 180.193 M1481.33 189.244 Q1481.33 193.943 1483.25 196.628 Q1485.2 199.29 1488.58 199.29 Q1491.96 199.29 1493.9 196.628 Q1495.84 193.943 1495.84 189.244 Q1495.84 184.545 1493.9 181.883 Q1491.96 179.198 1488.58 179.198 Q1485.2 179.198 1483.25 181.883 Q1481.33 184.545 1481.33 189.244 Z" fill="#000000" fill-rule="evenodd" fill-opacity="1" /><path clip-path="url(#clip880)" d="M1508.88 176.258 L1513.14 176.258 L1513.14 202.184 L1508.88 202.184 L1508.88 176.258 M1508.88 166.165 L1513.14 166.165 L1513.14 171.559 L1508.88 171.559 L1508.88 166.165 Z" fill="#000000" fill-rule="evenodd" fill-opacity="1" /><path clip-path="url(#clip880)" d="M1522.05 166.165 L1526.31 166.165 L1526.31 202.184 L1522.05 202.184 L1522.05 166.165 Z" fill="#000000" fill-rule="evenodd" fill-opacity="1" /><path clip-path="url(#clip880)" d="M1545.27 179.244 Q1541.84 179.244 1539.85 181.929 Q1537.86 184.591 1537.86 189.244 Q1537.86 193.897 1539.83 196.582 Q1541.82 199.244 1545.27 199.244 Q1548.67 199.244 1550.66 196.559 Q1552.65 193.874 1552.65 189.244 Q1552.65 184.638 1550.66 181.952 Q1548.67 179.244 1545.27 179.244 M1545.27 175.633 Q1550.82 175.633 1553.99 179.244 Q1557.16 182.855 1557.16 189.244 Q1557.16 195.61 1553.99 199.244 Q1550.82 202.855 1545.27 202.855 Q1539.69 202.855 1536.52 199.244 Q1533.37 195.61 1533.37 189.244 Q1533.37 182.855 1536.52 179.244 Q1539.69 175.633 1545.27 175.633 Z" fill="#000000" fill-rule="evenodd" fill-opacity="1" /><path clip-path="url(#clip880)" d="M1582.88 177.253 L1582.88 181.235 Q1581.08 180.239 1579.25 179.753 Q1577.44 179.244 1575.59 179.244 Q1571.45 179.244 1569.15 181.883 Q1566.86 184.499 1566.86 189.244 Q1566.86 193.989 1569.15 196.628 Q1571.45 199.244 1575.59 199.244 Q1577.44 199.244 1579.25 198.758 Q1581.08 198.249 1582.88 197.253 L1582.88 201.188 Q1581.1 202.022 1579.18 202.438 Q1577.28 202.855 1575.13 202.855 Q1569.27 202.855 1565.82 199.174 Q1562.37 195.494 1562.37 189.244 Q1562.37 182.901 1565.84 179.267 Q1569.34 175.633 1575.4 175.633 Q1577.37 175.633 1579.25 176.05 Q1581.12 176.443 1582.88 177.253 Z" fill="#000000" fill-rule="evenodd" fill-opacity="1" /><path clip-path="url(#clip880)" d="M1590.13 166.165 L1594.41 166.165 L1594.41 187.438 L1607.12 176.258 L1612.56 176.258 L1598.81 188.387 L1613.14 202.184 L1607.58 202.184 L1594.41 189.522 L1594.41 202.184 L1590.13 202.184 L1590.13 166.165 Z" fill="#000000" fill-rule="evenodd" fill-opacity="1" /><path clip-path="url(#clip880)" d="M1634.27 177.022 L1634.27 181.05 Q1632.46 180.124 1630.52 179.661 Q1628.58 179.198 1626.49 179.198 Q1623.32 179.198 1621.72 180.17 Q1620.15 181.142 1620.15 183.087 Q1620.15 184.568 1621.28 185.425 Q1622.42 186.258 1625.84 187.022 L1627.3 187.346 Q1631.84 188.318 1633.74 190.1 Q1635.66 191.86 1635.66 195.031 Q1635.66 198.642 1632.79 200.749 Q1629.94 202.855 1624.94 202.855 Q1622.86 202.855 1620.59 202.438 Q1618.34 202.045 1615.84 201.235 L1615.84 196.837 Q1618.2 198.063 1620.5 198.688 Q1622.79 199.29 1625.03 199.29 Q1628.04 199.29 1629.66 198.272 Q1631.28 197.23 1631.28 195.355 Q1631.28 193.619 1630.1 192.693 Q1628.95 191.767 1624.99 190.911 L1623.51 190.563 Q1619.55 189.73 1617.79 188.017 Q1616.03 186.281 1616.03 183.272 Q1616.03 179.614 1618.62 177.624 Q1621.21 175.633 1625.98 175.633 Q1628.34 175.633 1630.43 175.98 Q1632.51 176.327 1634.27 177.022 Z" fill="#000000" fill-rule="evenodd" fill-opacity="1" /><path clip-path="url(#clip880)" d="M1662.37 171.466 L1662.37 184.452 L1668.25 184.452 Q1671.51 184.452 1673.3 182.763 Q1675.08 181.073 1675.08 177.948 Q1675.08 174.846 1673.3 173.156 Q1671.51 171.466 1668.25 171.466 L1662.37 171.466 M1657.7 167.624 L1668.25 167.624 Q1674.06 167.624 1677.02 170.263 Q1680.01 172.878 1680.01 177.948 Q1680.01 183.063 1677.02 185.679 Q1674.06 188.295 1668.25 188.295 L1662.37 188.295 L1662.37 202.184 L1657.7 202.184 L1657.7 167.624 Z" fill="#000000" fill-rule="evenodd" fill-opacity="1" /><path clip-path="url(#clip880)" d="M1700.29 180.239 Q1699.57 179.823 1698.71 179.638 Q1697.88 179.429 1696.86 179.429 Q1693.25 179.429 1691.31 181.79 Q1689.39 184.128 1689.39 188.526 L1689.39 202.184 L1685.1 202.184 L1685.1 176.258 L1689.39 176.258 L1689.39 180.286 Q1690.73 177.925 1692.88 176.79 Q1695.03 175.633 1698.11 175.633 Q1698.55 175.633 1699.08 175.702 Q1699.62 175.749 1700.26 175.864 L1700.29 180.239 Z" fill="#000000" fill-rule="evenodd" fill-opacity="1" /><path clip-path="url(#clip880)" d="M1713.76 179.244 Q1710.33 179.244 1708.34 181.929 Q1706.35 184.591 1706.35 189.244 Q1706.35 193.897 1708.32 196.582 Q1710.31 199.244 1713.76 199.244 Q1717.16 199.244 1719.15 196.559 Q1721.14 193.874 1721.14 189.244 Q1721.14 184.638 1719.15 181.952 Q1717.16 179.244 1713.76 179.244 M1713.76 175.633 Q1719.32 175.633 1722.49 179.244 Q1725.66 182.855 1725.66 189.244 Q1725.66 195.61 1722.49 199.244 Q1719.32 202.855 1713.76 202.855 Q1708.18 202.855 1705.01 199.244 Q1701.86 195.61 1701.86 189.244 Q1701.86 182.855 1705.01 179.244 Q1708.18 175.633 1713.76 175.633 Z" fill="#000000" fill-rule="evenodd" fill-opacity="1" /><path clip-path="url(#clip880)" d="M1736.84 198.295 L1736.84 212.045 L1732.56 212.045 L1732.56 176.258 L1736.84 176.258 L1736.84 180.193 Q1738.18 177.878 1740.22 176.767 Q1742.28 175.633 1745.13 175.633 Q1749.85 175.633 1752.79 179.383 Q1755.75 183.133 1755.75 189.244 Q1755.75 195.355 1752.79 199.105 Q1749.85 202.855 1745.13 202.855 Q1742.28 202.855 1740.22 201.744 Q1738.18 200.61 1736.84 198.295 M1751.33 189.244 Q1751.33 184.545 1749.38 181.883 Q1747.46 179.198 1744.08 179.198 Q1740.7 179.198 1738.76 181.883 Q1736.84 184.545 1736.84 189.244 Q1736.84 193.943 1738.76 196.628 Q1740.7 199.29 1744.08 199.29 Q1747.46 199.29 1749.38 196.628 Q1751.33 193.943 1751.33 189.244 Z" fill="#000000" fill-rule="evenodd" fill-opacity="1" /><path clip-path="url(#clip880)" d="M1772.86 179.244 Q1769.43 179.244 1767.44 181.929 Q1765.45 184.591 1765.45 189.244 Q1765.45 193.897 1767.42 196.582 Q1769.41 199.244 1772.86 199.244 Q1776.26 199.244 1778.25 196.559 Q1780.24 193.874 1780.24 189.244 Q1780.24 184.638 1778.25 181.952 Q1776.26 179.244 1772.86 179.244 M1772.86 175.633 Q1778.41 175.633 1781.58 179.244 Q1784.76 182.855 1784.76 189.244 Q1784.76 195.61 1781.58 199.244 Q1778.41 202.855 1772.86 202.855 Q1767.28 202.855 1764.11 199.244 Q1760.96 195.61 1760.96 189.244 Q1760.96 182.855 1764.11 179.244 Q1767.28 175.633 1772.86 175.633 Z" fill="#000000" fill-rule="evenodd" fill-opacity="1" /><path clip-path="url(#clip880)" d="M1808.34 177.022 L1808.34 181.05 Q1806.54 180.124 1804.59 179.661 Q1802.65 179.198 1800.57 179.198 Q1797.39 179.198 1795.8 180.17 Q1794.22 181.142 1794.22 183.087 Q1794.22 184.568 1795.36 185.425 Q1796.49 186.258 1799.92 187.022 L1801.38 187.346 Q1805.91 188.318 1807.81 190.1 Q1809.73 191.86 1809.73 195.031 Q1809.73 198.642 1806.86 200.749 Q1804.01 202.855 1799.01 202.855 Q1796.93 202.855 1794.66 202.438 Q1792.42 202.045 1789.92 201.235 L1789.92 196.837 Q1792.28 198.063 1794.57 198.688 Q1796.86 199.29 1799.11 199.29 Q1802.12 199.29 1803.74 198.272 Q1805.36 197.23 1805.36 195.355 Q1805.36 193.619 1804.18 192.693 Q1803.02 191.767 1799.06 190.911 L1797.58 190.563 Q1793.62 189.73 1791.86 188.017 Q1790.1 186.281 1790.1 183.272 Q1790.1 179.614 1792.69 177.624 Q1795.29 175.633 1800.06 175.633 Q1802.42 175.633 1804.5 175.98 Q1806.58 176.327 1808.34 177.022 Z" fill="#000000" fill-rule="evenodd" fill-opacity="1" /><path clip-path="url(#clip880)" d="M1828.3 189.151 Q1823.13 189.151 1821.14 190.332 Q1819.15 191.512 1819.15 194.36 Q1819.15 196.628 1820.63 197.971 Q1822.14 199.29 1824.71 199.29 Q1828.25 199.29 1830.38 196.79 Q1832.53 194.267 1832.53 190.1 L1832.53 189.151 L1828.3 189.151 M1836.79 187.392 L1836.79 202.184 L1832.53 202.184 L1832.53 198.249 Q1831.07 200.61 1828.9 201.744 Q1826.72 202.855 1823.57 202.855 Q1819.59 202.855 1817.23 200.633 Q1814.89 198.387 1814.89 194.637 Q1814.89 190.262 1817.81 188.04 Q1820.75 185.818 1826.56 185.818 L1832.53 185.818 L1832.53 185.401 Q1832.53 182.462 1830.59 180.864 Q1828.67 179.244 1825.17 179.244 Q1822.95 179.244 1820.84 179.776 Q1818.74 180.309 1816.79 181.374 L1816.79 177.438 Q1819.13 176.536 1821.33 176.096 Q1823.53 175.633 1825.61 175.633 Q1831.24 175.633 1834.01 178.55 Q1836.79 181.466 1836.79 187.392 Z" fill="#000000" fill-rule="evenodd" fill-opacity="1" /><path clip-path="url(#clip880)" d="M1845.56 166.165 L1849.82 166.165 L1849.82 202.184 L1845.56 202.184 L1845.56 166.165 Z" fill="#000000" fill-rule="evenodd" fill-opacity="1" /><polyline clip-path="url(#clip880)" style="stroke:#e26f46; stroke-linecap:round; stroke-linejoin:round; stroke-width:4; stroke-opacity:1; fill:none" points="
  1264.36,236.744 1378.97,236.744 
  "/>
<path clip-path="url(#clip880)" d="M1398.07 219.464 L1427.3 219.464 L1427.3 223.399 L1415.03 223.399 L1415.03 254.024 L1410.34 254.024 L1410.34 223.399 L1398.07 223.399 L1398.07 219.464 Z" fill="#000000" fill-rule="evenodd" fill-opacity="1" /><path clip-path="url(#clip880)" d="M1433.62 231.084 Q1430.2 231.084 1428.21 233.769 Q1426.22 236.431 1426.22 241.084 Q1426.22 245.737 1428.18 248.422 Q1430.17 251.084 1433.62 251.084 Q1437.03 251.084 1439.02 248.399 Q1441.01 245.714 1441.01 241.084 Q1441.01 236.478 1439.02 233.792 Q1437.03 231.084 1433.62 231.084 M1433.62 227.473 Q1439.18 227.473 1442.35 231.084 Q1445.52 234.695 1445.52 241.084 Q1445.52 247.45 1442.35 251.084 Q1439.18 254.695 1433.62 254.695 Q1428.04 254.695 1424.87 251.084 Q1421.72 247.45 1421.72 241.084 Q1421.72 234.695 1424.87 231.084 Q1428.04 227.473 1433.62 227.473 Z" fill="#000000" fill-rule="evenodd" fill-opacity="1" /><path clip-path="url(#clip880)" d="M1462.63 231.084 Q1459.2 231.084 1457.21 233.769 Q1455.22 236.431 1455.22 241.084 Q1455.22 245.737 1457.19 248.422 Q1459.18 251.084 1462.63 251.084 Q1466.03 251.084 1468.02 248.399 Q1470.01 245.714 1470.01 241.084 Q1470.01 236.478 1468.02 233.792 Q1466.03 231.084 1462.63 231.084 M1462.63 227.473 Q1468.18 227.473 1471.35 231.084 Q1474.53 234.695 1474.53 241.084 Q1474.53 247.45 1471.35 251.084 Q1468.18 254.695 1462.63 254.695 Q1457.05 254.695 1453.88 251.084 Q1450.73 247.45 1450.73 241.084 Q1450.73 234.695 1453.88 231.084 Q1457.05 227.473 1462.63 227.473 Z" fill="#000000" fill-rule="evenodd" fill-opacity="1" /><path clip-path="url(#clip880)" d="M1480.31 239.14 L1492.79 239.14 L1492.79 242.936 L1480.31 242.936 L1480.31 239.14 Z" fill="#000000" fill-rule="evenodd" fill-opacity="1" /><path clip-path="url(#clip880)" d="M1494.76 219.464 L1499.48 219.464 L1506.75 248.677 L1513.99 219.464 L1519.25 219.464 L1526.52 248.677 L1533.76 219.464 L1538.51 219.464 L1529.83 254.024 L1523.95 254.024 L1516.65 224.024 L1509.29 254.024 L1503.41 254.024 L1494.76 219.464 Z" fill="#000000" fill-rule="evenodd" fill-opacity="1" /><path clip-path="url(#clip880)" d="M1543.48 228.098 L1547.74 228.098 L1547.74 254.024 L1543.48 254.024 L1543.48 228.098 M1543.48 218.005 L1547.74 218.005 L1547.74 223.399 L1543.48 223.399 L1543.48 218.005 Z" fill="#000000" fill-rule="evenodd" fill-opacity="1" /><path clip-path="url(#clip880)" d="M1573.71 232.033 L1573.71 218.005 L1577.97 218.005 L1577.97 254.024 L1573.71 254.024 L1573.71 250.135 Q1572.37 252.45 1570.31 253.584 Q1568.27 254.695 1565.4 254.695 Q1560.71 254.695 1557.74 250.945 Q1554.8 247.195 1554.8 241.084 Q1554.8 234.973 1557.74 231.223 Q1560.71 227.473 1565.4 227.473 Q1568.27 227.473 1570.31 228.607 Q1572.37 229.718 1573.71 232.033 M1559.2 241.084 Q1559.2 245.783 1561.12 248.468 Q1563.07 251.13 1566.45 251.13 Q1569.83 251.13 1571.77 248.468 Q1573.71 245.783 1573.71 241.084 Q1573.71 236.385 1571.77 233.723 Q1569.83 231.038 1566.45 231.038 Q1563.07 231.038 1561.12 233.723 Q1559.2 236.385 1559.2 241.084 Z" fill="#000000" fill-rule="evenodd" fill-opacity="1" /><path clip-path="url(#clip880)" d="M1608.92 239.996 L1608.92 242.079 L1589.34 242.079 Q1589.62 246.477 1591.98 248.792 Q1594.36 251.084 1598.6 251.084 Q1601.05 251.084 1603.34 250.482 Q1605.66 249.88 1607.93 248.677 L1607.93 252.704 Q1605.64 253.676 1603.23 254.186 Q1600.82 254.695 1598.34 254.695 Q1592.14 254.695 1588.51 251.084 Q1584.89 247.473 1584.89 241.315 Q1584.89 234.95 1588.32 231.223 Q1591.77 227.473 1597.6 227.473 Q1602.83 227.473 1605.87 230.853 Q1608.92 234.209 1608.92 239.996 M1604.66 238.746 Q1604.62 235.251 1602.7 233.167 Q1600.8 231.084 1597.65 231.084 Q1594.08 231.084 1591.93 233.098 Q1589.8 235.112 1589.48 238.769 L1604.66 238.746 Z" fill="#000000" fill-rule="evenodd" fill-opacity="1" /><path clip-path="url(#clip880)" d="M1635.84 223.306 L1635.84 236.292 L1641.72 236.292 Q1644.99 236.292 1646.77 234.603 Q1648.55 232.913 1648.55 229.788 Q1648.55 226.686 1646.77 224.996 Q1644.99 223.306 1641.72 223.306 L1635.84 223.306 M1631.17 219.464 L1641.72 219.464 Q1647.53 219.464 1650.5 222.103 Q1653.48 224.718 1653.48 229.788 Q1653.48 234.903 1650.5 237.519 Q1647.53 240.135 1641.72 240.135 L1635.84 240.135 L1635.84 254.024 L1631.17 254.024 L1631.17 219.464 Z" fill="#000000" fill-rule="evenodd" fill-opacity="1" /><path clip-path="url(#clip880)" d="M1673.76 232.079 Q1673.04 231.663 1672.19 231.478 Q1671.35 231.269 1670.33 231.269 Q1666.72 231.269 1664.78 233.63 Q1662.86 235.968 1662.86 240.366 L1662.86 254.024 L1658.58 254.024 L1658.58 228.098 L1662.86 228.098 L1662.86 232.126 Q1664.2 229.765 1666.35 228.63 Q1668.51 227.473 1671.58 227.473 Q1672.02 227.473 1672.56 227.542 Q1673.09 227.589 1673.74 227.704 L1673.76 232.079 Z" fill="#000000" fill-rule="evenodd" fill-opacity="1" /><path clip-path="url(#clip880)" d="M1687.23 231.084 Q1683.81 231.084 1681.82 233.769 Q1679.83 236.431 1679.83 241.084 Q1679.83 245.737 1681.79 248.422 Q1683.78 251.084 1687.23 251.084 Q1690.64 251.084 1692.63 248.399 Q1694.62 245.714 1694.62 241.084 Q1694.62 236.478 1692.63 233.792 Q1690.64 231.084 1687.23 231.084 M1687.23 227.473 Q1692.79 227.473 1695.96 231.084 Q1699.13 234.695 1699.13 241.084 Q1699.13 247.45 1695.96 251.084 Q1692.79 254.695 1687.23 254.695 Q1681.65 254.695 1678.48 251.084 Q1675.33 247.45 1675.33 241.084 Q1675.33 234.695 1678.48 231.084 Q1681.65 227.473 1687.23 227.473 Z" fill="#000000" fill-rule="evenodd" fill-opacity="1" /><path clip-path="url(#clip880)" d="M1710.31 250.135 L1710.31 263.885 L1706.03 263.885 L1706.03 228.098 L1710.31 228.098 L1710.31 232.033 Q1711.65 229.718 1713.69 228.607 Q1715.75 227.473 1718.6 227.473 Q1723.32 227.473 1726.26 231.223 Q1729.22 234.973 1729.22 241.084 Q1729.22 247.195 1726.26 250.945 Q1723.32 254.695 1718.6 254.695 Q1715.75 254.695 1713.69 253.584 Q1711.65 252.45 1710.31 250.135 M1724.8 241.084 Q1724.8 236.385 1722.86 233.723 Q1720.94 231.038 1717.56 231.038 Q1714.18 231.038 1712.23 233.723 Q1710.31 236.385 1710.31 241.084 Q1710.31 245.783 1712.23 248.468 Q1714.18 251.13 1717.56 251.13 Q1720.94 251.13 1722.86 248.468 Q1724.8 245.783 1724.8 241.084 Z" fill="#000000" fill-rule="evenodd" fill-opacity="1" /><path clip-path="url(#clip880)" d="M1746.33 231.084 Q1742.9 231.084 1740.91 233.769 Q1738.92 236.431 1738.92 241.084 Q1738.92 245.737 1740.89 248.422 Q1742.88 251.084 1746.33 251.084 Q1749.73 251.084 1751.72 248.399 Q1753.71 245.714 1753.71 241.084 Q1753.71 236.478 1751.72 233.792 Q1749.73 231.084 1746.33 231.084 M1746.33 227.473 Q1751.88 227.473 1755.06 231.084 Q1758.23 234.695 1758.23 241.084 Q1758.23 247.45 1755.06 251.084 Q1751.88 254.695 1746.33 254.695 Q1740.75 254.695 1737.58 251.084 Q1734.43 247.45 1734.43 241.084 Q1734.43 234.695 1737.58 231.084 Q1740.75 227.473 1746.33 227.473 Z" fill="#000000" fill-rule="evenodd" fill-opacity="1" /><path clip-path="url(#clip880)" d="M1781.82 228.862 L1781.82 232.89 Q1780.01 231.964 1778.07 231.501 Q1776.12 231.038 1774.04 231.038 Q1770.87 231.038 1769.27 232.01 Q1767.69 232.982 1767.69 234.927 Q1767.69 236.408 1768.83 237.265 Q1769.96 238.098 1773.39 238.862 L1774.85 239.186 Q1779.38 240.158 1781.28 241.94 Q1783.2 243.7 1783.2 246.871 Q1783.2 250.482 1780.33 252.589 Q1777.49 254.695 1772.49 254.695 Q1770.4 254.695 1768.13 254.278 Q1765.89 253.885 1763.39 253.075 L1763.39 248.677 Q1765.75 249.903 1768.04 250.528 Q1770.33 251.13 1772.58 251.13 Q1775.59 251.13 1777.21 250.112 Q1778.83 249.07 1778.83 247.195 Q1778.83 245.459 1777.65 244.533 Q1776.49 243.607 1772.53 242.751 L1771.05 242.403 Q1767.09 241.57 1765.33 239.857 Q1763.57 238.121 1763.57 235.112 Q1763.57 231.454 1766.17 229.464 Q1768.76 227.473 1773.53 227.473 Q1775.89 227.473 1777.97 227.82 Q1780.06 228.167 1781.82 228.862 Z" fill="#000000" fill-rule="evenodd" fill-opacity="1" /><path clip-path="url(#clip880)" d="M1801.77 240.991 Q1796.61 240.991 1794.62 242.172 Q1792.63 243.352 1792.63 246.2 Q1792.63 248.468 1794.11 249.811 Q1795.61 251.13 1798.18 251.13 Q1801.72 251.13 1803.85 248.63 Q1806 246.107 1806 241.94 L1806 240.991 L1801.77 240.991 M1810.26 239.232 L1810.26 254.024 L1806 254.024 L1806 250.089 Q1804.55 252.45 1802.37 253.584 Q1800.19 254.695 1797.05 254.695 Q1793.07 254.695 1790.7 252.473 Q1788.37 250.227 1788.37 246.477 Q1788.37 242.102 1791.28 239.88 Q1794.22 237.658 1800.03 237.658 L1806 237.658 L1806 237.241 Q1806 234.302 1804.06 232.704 Q1802.14 231.084 1798.64 231.084 Q1796.42 231.084 1794.32 231.616 Q1792.21 232.149 1790.26 233.214 L1790.26 229.278 Q1792.6 228.376 1794.8 227.936 Q1797 227.473 1799.08 227.473 Q1804.71 227.473 1807.49 230.39 Q1810.26 233.306 1810.26 239.232 Z" fill="#000000" fill-rule="evenodd" fill-opacity="1" /><path clip-path="url(#clip880)" d="M1819.04 218.005 L1823.3 218.005 L1823.3 254.024 L1819.04 254.024 L1819.04 218.005 Z" fill="#000000" fill-rule="evenodd" fill-opacity="1" /><polyline clip-path="url(#clip880)" style="stroke:#3da44d; stroke-linecap:round; stroke-linejoin:round; stroke-width:4; stroke-opacity:1; fill:none" points="
  1264.36,288.584 1378.97,288.584 
  "/>
<path clip-path="url(#clip880)" d="M1398.07 271.304 L1427.3 271.304 L1427.3 275.239 L1415.03 275.239 L1415.03 305.864 L1410.34 305.864 L1410.34 275.239 L1398.07 275.239 L1398.07 271.304 Z" fill="#000000" fill-rule="evenodd" fill-opacity="1" /><path clip-path="url(#clip880)" d="M1433.62 282.924 Q1430.2 282.924 1428.21 285.609 Q1426.22 288.271 1426.22 292.924 Q1426.22 297.577 1428.18 300.262 Q1430.17 302.924 1433.62 302.924 Q1437.03 302.924 1439.02 300.239 Q1441.01 297.554 1441.01 292.924 Q1441.01 288.318 1439.02 285.632 Q1437.03 282.924 1433.62 282.924 M1433.62 279.313 Q1439.18 279.313 1442.35 282.924 Q1445.52 286.535 1445.52 292.924 Q1445.52 299.29 1442.35 302.924 Q1439.18 306.535 1433.62 306.535 Q1428.04 306.535 1424.87 302.924 Q1421.72 299.29 1421.72 292.924 Q1421.72 286.535 1424.87 282.924 Q1428.04 279.313 1433.62 279.313 Z" fill="#000000" fill-rule="evenodd" fill-opacity="1" /><path clip-path="url(#clip880)" d="M1462.63 282.924 Q1459.2 282.924 1457.21 285.609 Q1455.22 288.271 1455.22 292.924 Q1455.22 297.577 1457.19 300.262 Q1459.18 302.924 1462.63 302.924 Q1466.03 302.924 1468.02 300.239 Q1470.01 297.554 1470.01 292.924 Q1470.01 288.318 1468.02 285.632 Q1466.03 282.924 1462.63 282.924 M1462.63 279.313 Q1468.18 279.313 1471.35 282.924 Q1474.53 286.535 1474.53 292.924 Q1474.53 299.29 1471.35 302.924 Q1468.18 306.535 1462.63 306.535 Q1457.05 306.535 1453.88 302.924 Q1450.73 299.29 1450.73 292.924 Q1450.73 286.535 1453.88 282.924 Q1457.05 279.313 1462.63 279.313 Z" fill="#000000" fill-rule="evenodd" fill-opacity="1" /><path clip-path="url(#clip880)" d="M1480.31 290.98 L1492.79 290.98 L1492.79 294.776 L1480.31 294.776 L1480.31 290.98 Z" fill="#000000" fill-rule="evenodd" fill-opacity="1" /><path clip-path="url(#clip880)" d="M1499.76 271.304 L1506.05 271.304 L1521.38 300.216 L1521.38 271.304 L1525.91 271.304 L1525.91 305.864 L1519.62 305.864 L1504.29 276.952 L1504.29 305.864 L1499.76 305.864 L1499.76 271.304 Z" fill="#000000" fill-rule="evenodd" fill-opacity="1" /><path clip-path="url(#clip880)" d="M1546.82 292.831 Q1541.65 292.831 1539.66 294.012 Q1537.67 295.192 1537.67 298.04 Q1537.67 300.308 1539.15 301.651 Q1540.66 302.97 1543.23 302.97 Q1546.77 302.97 1548.9 300.47 Q1551.05 297.947 1551.05 293.78 L1551.05 292.831 L1546.82 292.831 M1555.31 291.072 L1555.31 305.864 L1551.05 305.864 L1551.05 301.929 Q1549.59 304.29 1547.42 305.424 Q1545.24 306.535 1542.09 306.535 Q1538.11 306.535 1535.75 304.313 Q1533.41 302.067 1533.41 298.317 Q1533.41 293.942 1536.33 291.72 Q1539.27 289.498 1545.08 289.498 L1551.05 289.498 L1551.05 289.081 Q1551.05 286.142 1549.11 284.544 Q1547.19 282.924 1543.69 282.924 Q1541.47 282.924 1539.36 283.456 Q1537.26 283.989 1535.31 285.054 L1535.31 281.118 Q1537.65 280.216 1539.85 279.776 Q1542.05 279.313 1544.13 279.313 Q1549.76 279.313 1552.53 282.23 Q1555.31 285.146 1555.31 291.072 Z" fill="#000000" fill-rule="evenodd" fill-opacity="1" /><path clip-path="url(#clip880)" d="M1579.11 283.919 Q1578.39 283.503 1577.53 283.318 Q1576.7 283.109 1575.68 283.109 Q1572.07 283.109 1570.13 285.47 Q1568.21 287.808 1568.21 292.206 L1568.21 305.864 L1563.92 305.864 L1563.92 279.938 L1568.21 279.938 L1568.21 283.966 Q1569.55 281.605 1571.7 280.47 Q1573.85 279.313 1576.93 279.313 Q1577.37 279.313 1577.9 279.382 Q1578.44 279.429 1579.08 279.544 L1579.11 283.919 Z" fill="#000000" fill-rule="evenodd" fill-opacity="1" /><path clip-path="url(#clip880)" d="M1597.77 283.919 Q1597.05 283.503 1596.19 283.318 Q1595.36 283.109 1594.34 283.109 Q1590.73 283.109 1588.78 285.47 Q1586.86 287.808 1586.86 292.206 L1586.86 305.864 L1582.58 305.864 L1582.58 279.938 L1586.86 279.938 L1586.86 283.966 Q1588.21 281.605 1590.36 280.47 Q1592.51 279.313 1595.59 279.313 Q1596.03 279.313 1596.56 279.382 Q1597.09 279.429 1597.74 279.544 L1597.77 283.919 Z" fill="#000000" fill-rule="evenodd" fill-opacity="1" /><path clip-path="url(#clip880)" d="M1611.24 282.924 Q1607.81 282.924 1605.82 285.609 Q1603.83 288.271 1603.83 292.924 Q1603.83 297.577 1605.8 300.262 Q1607.79 302.924 1611.24 302.924 Q1614.64 302.924 1616.63 300.239 Q1618.62 297.554 1618.62 292.924 Q1618.62 288.318 1616.63 285.632 Q1614.64 282.924 1611.24 282.924 M1611.24 279.313 Q1616.79 279.313 1619.96 282.924 Q1623.14 286.535 1623.14 292.924 Q1623.14 299.29 1619.96 302.924 Q1616.79 306.535 1611.24 306.535 Q1605.66 306.535 1602.49 302.924 Q1599.34 299.29 1599.34 292.924 Q1599.34 286.535 1602.49 282.924 Q1605.66 279.313 1611.24 279.313 Z" fill="#000000" fill-rule="evenodd" fill-opacity="1" /><path clip-path="url(#clip880)" d="M1627.72 279.938 L1631.98 279.938 L1637.3 300.169 L1642.6 279.938 L1647.63 279.938 L1652.95 300.169 L1658.25 279.938 L1662.51 279.938 L1655.73 305.864 L1650.7 305.864 L1645.13 284.614 L1639.52 305.864 L1634.5 305.864 L1627.72 279.938 Z" fill="#000000" fill-rule="evenodd" fill-opacity="1" /><path clip-path="url(#clip880)" d="M1688.9 275.146 L1688.9 288.132 L1694.78 288.132 Q1698.04 288.132 1699.82 286.443 Q1701.61 284.753 1701.61 281.628 Q1701.61 278.526 1699.82 276.836 Q1698.04 275.146 1694.78 275.146 L1688.9 275.146 M1684.22 271.304 L1694.78 271.304 Q1700.59 271.304 1703.55 273.943 Q1706.54 276.558 1706.54 281.628 Q1706.54 286.743 1703.55 289.359 Q1700.59 291.975 1694.78 291.975 L1688.9 291.975 L1688.9 305.864 L1684.22 305.864 L1684.22 271.304 Z" fill="#000000" fill-rule="evenodd" fill-opacity="1" /><path clip-path="url(#clip880)" d="M1726.82 283.919 Q1726.1 283.503 1725.24 283.318 Q1724.41 283.109 1723.39 283.109 Q1719.78 283.109 1717.83 285.47 Q1715.91 287.808 1715.91 292.206 L1715.91 305.864 L1711.63 305.864 L1711.63 279.938 L1715.91 279.938 L1715.91 283.966 Q1717.26 281.605 1719.41 280.47 Q1721.56 279.313 1724.64 279.313 Q1725.08 279.313 1725.61 279.382 Q1726.14 279.429 1726.79 279.544 L1726.82 283.919 Z" fill="#000000" fill-rule="evenodd" fill-opacity="1" /><path clip-path="url(#clip880)" d="M1740.29 282.924 Q1736.86 282.924 1734.87 285.609 Q1732.88 288.271 1732.88 292.924 Q1732.88 297.577 1734.85 300.262 Q1736.84 302.924 1740.29 302.924 Q1743.69 302.924 1745.68 300.239 Q1747.67 297.554 1747.67 292.924 Q1747.67 288.318 1745.68 285.632 Q1743.69 282.924 1740.29 282.924 M1740.29 279.313 Q1745.84 279.313 1749.01 282.924 Q1752.19 286.535 1752.19 292.924 Q1752.19 299.29 1749.01 302.924 Q1745.84 306.535 1740.29 306.535 Q1734.71 306.535 1731.54 302.924 Q1728.39 299.29 1728.39 292.924 Q1728.39 286.535 1731.54 282.924 Q1734.71 279.313 1740.29 279.313 Z" fill="#000000" fill-rule="evenodd" fill-opacity="1" /><path clip-path="url(#clip880)" d="M1763.37 301.975 L1763.37 315.725 L1759.08 315.725 L1759.08 279.938 L1763.37 279.938 L1763.37 283.873 Q1764.71 281.558 1766.75 280.447 Q1768.81 279.313 1771.65 279.313 Q1776.38 279.313 1779.32 283.063 Q1782.28 286.813 1782.28 292.924 Q1782.28 299.035 1779.32 302.785 Q1776.38 306.535 1771.65 306.535 Q1768.81 306.535 1766.75 305.424 Q1764.71 304.29 1763.37 301.975 M1777.86 292.924 Q1777.86 288.225 1775.91 285.563 Q1773.99 282.878 1770.61 282.878 Q1767.23 282.878 1765.29 285.563 Q1763.37 288.225 1763.37 292.924 Q1763.37 297.623 1765.29 300.308 Q1767.23 302.97 1770.61 302.97 Q1773.99 302.97 1775.91 300.308 Q1777.86 297.623 1777.86 292.924 Z" fill="#000000" fill-rule="evenodd" fill-opacity="1" /><path clip-path="url(#clip880)" d="M1799.38 282.924 Q1795.96 282.924 1793.97 285.609 Q1791.98 288.271 1791.98 292.924 Q1791.98 297.577 1793.94 300.262 Q1795.94 302.924 1799.38 302.924 Q1802.79 302.924 1804.78 300.239 Q1806.77 297.554 1806.77 292.924 Q1806.77 288.318 1804.78 285.632 Q1802.79 282.924 1799.38 282.924 M1799.38 279.313 Q1804.94 279.313 1808.11 282.924 Q1811.28 286.535 1811.28 292.924 Q1811.28 299.29 1808.11 302.924 Q1804.94 306.535 1799.38 306.535 Q1793.81 306.535 1790.63 302.924 Q1787.49 299.29 1787.49 292.924 Q1787.49 286.535 1790.63 282.924 Q1793.81 279.313 1799.38 279.313 Z" fill="#000000" fill-rule="evenodd" fill-opacity="1" /><path clip-path="url(#clip880)" d="M1834.87 280.702 L1834.87 284.73 Q1833.06 283.804 1831.12 283.341 Q1829.18 282.878 1827.09 282.878 Q1823.92 282.878 1822.32 283.85 Q1820.75 284.822 1820.75 286.767 Q1820.75 288.248 1821.88 289.105 Q1823.02 289.938 1826.44 290.702 L1827.9 291.026 Q1832.44 291.998 1834.34 293.78 Q1836.26 295.54 1836.26 298.711 Q1836.26 302.322 1833.39 304.429 Q1830.54 306.535 1825.54 306.535 Q1823.46 306.535 1821.19 306.118 Q1818.94 305.725 1816.44 304.915 L1816.44 300.517 Q1818.81 301.743 1821.1 302.368 Q1823.39 302.97 1825.63 302.97 Q1828.64 302.97 1830.26 301.952 Q1831.88 300.91 1831.88 299.035 Q1831.88 297.299 1830.7 296.373 Q1829.55 295.447 1825.59 294.591 L1824.11 294.243 Q1820.15 293.41 1818.39 291.697 Q1816.63 289.961 1816.63 286.952 Q1816.63 283.294 1819.22 281.304 Q1821.81 279.313 1826.58 279.313 Q1828.94 279.313 1831.03 279.66 Q1833.11 280.007 1834.87 280.702 Z" fill="#000000" fill-rule="evenodd" fill-opacity="1" /><path clip-path="url(#clip880)" d="M1854.82 292.831 Q1849.66 292.831 1847.67 294.012 Q1845.68 295.192 1845.68 298.04 Q1845.68 300.308 1847.16 301.651 Q1848.67 302.97 1851.24 302.97 Q1854.78 302.97 1856.91 300.47 Q1859.06 297.947 1859.06 293.78 L1859.06 292.831 L1854.82 292.831 M1863.32 291.072 L1863.32 305.864 L1859.06 305.864 L1859.06 301.929 Q1857.6 304.29 1855.43 305.424 Q1853.25 306.535 1850.1 306.535 Q1846.12 306.535 1843.76 304.313 Q1841.42 302.067 1841.42 298.317 Q1841.42 293.942 1844.34 291.72 Q1847.28 289.498 1853.09 289.498 L1859.06 289.498 L1859.06 289.081 Q1859.06 286.142 1857.12 284.544 Q1855.19 282.924 1851.7 282.924 Q1849.48 282.924 1847.37 283.456 Q1845.26 283.989 1843.32 285.054 L1843.32 281.118 Q1845.66 280.216 1847.86 279.776 Q1850.06 279.313 1852.14 279.313 Q1857.76 279.313 1860.54 282.23 Q1863.32 285.146 1863.32 291.072 Z" fill="#000000" fill-rule="evenodd" fill-opacity="1" /><path clip-path="url(#clip880)" d="M1872.09 269.845 L1876.35 269.845 L1876.35 305.864 L1872.09 305.864 L1872.09 269.845 Z" fill="#000000" fill-rule="evenodd" fill-opacity="1" /></svg>
