<?xml version="1.0" encoding="utf-8"?>
<svg xmlns="http://www.w3.org/2000/svg" xmlns:xlink="http://www.w3.org/1999/xlink" width="500" height="250" viewBox="0 0 2000 1000">
<defs>
  <clipPath id="clip560">
    <rect x="0" y="0" width="2000" height="1000"/>
  </clipPath>
</defs>
<path clip-path="url(#clip560)" d="
M0 1000 L2000 1000 L2000 0 L0 0  Z
  " fill="#ffffff" fill-rule="evenodd" fill-opacity="1"/>
<defs>
  <clipPath id="clip561">
    <rect x="400" y="0" width="1401" height="1000"/>
  </clipPath>
</defs>
<path clip-path="url(#clip560)" d="
M203.986 849.7 L1952.76 849.7 L1952.76 108.352 L203.986 108.352  Z
  " fill="#ffffff" fill-rule="evenodd" fill-opacity="1"/>
<defs>
  <clipPath id="clip562">
    <rect x="203" y="108" width="1750" height="742"/>
  </clipPath>
</defs>
<polyline clip-path="url(#clip562)" style="stroke:#000000; stroke-linecap:round; stroke-linejoin:round; stroke-width:2; stroke-opacity:0.1; fill:none" points="
  453.085,849.7 453.085,108.352 
  "/>
<polyline clip-path="url(#clip562)" style="stroke:#000000; stroke-linecap:round; stroke-linejoin:round; stroke-width:2; stroke-opacity:0.1; fill:none" points="
  949.203,849.7 949.203,108.352 
  "/>
<polyline clip-path="url(#clip562)" style="stroke:#000000; stroke-linecap:round; stroke-linejoin:round; stroke-width:2; stroke-opacity:0.1; fill:none" points="
  1445.32,849.7 1445.32,108.352 
  "/>
<polyline clip-path="url(#clip562)" style="stroke:#000000; stroke-linecap:round; stroke-linejoin:round; stroke-width:2; stroke-opacity:0.1; fill:none" points="
  1941.44,849.7 1941.44,108.352 
  "/>
<polyline clip-path="url(#clip560)" style="stroke:#000000; stroke-linecap:round; stroke-linejoin:round; stroke-width:4; stroke-opacity:1; fill:none" points="
  203.986,849.7 1952.76,849.7 
  "/>
<polyline clip-path="url(#clip560)" style="stroke:#000000; stroke-linecap:round; stroke-linejoin:round; stroke-width:4; stroke-opacity:1; fill:none" points="
  453.085,849.7 453.085,830.802 
  "/>
<polyline clip-path="url(#clip560)" style="stroke:#000000; stroke-linecap:round; stroke-linejoin:round; stroke-width:4; stroke-opacity:1; fill:none" points="
  949.203,849.7 949.203,830.802 
  "/>
<polyline clip-path="url(#clip560)" style="stroke:#000000; stroke-linecap:round; stroke-linejoin:round; stroke-width:4; stroke-opacity:1; fill:none" points="
  1445.32,849.7 1445.32,830.802 
  "/>
<polyline clip-path="url(#clip560)" style="stroke:#000000; stroke-linecap:round; stroke-linejoin:round; stroke-width:4; stroke-opacity:1; fill:none" points="
  1941.44,849.7 1941.44,830.802 
  "/>
<path clip-path="url(#clip560)" d="M423.027 892.071 L452.703 892.071 L452.703 896.006 L423.027 896.006 L423.027 892.071 Z" fill="#000000" fill-rule="evenodd" fill-opacity="1" /><path clip-path="url(#clip560)" d="M466.823 904.965 L483.142 904.965 L483.142 908.9 L461.198 908.9 L461.198 904.965 Q463.86 902.21 468.443 897.58 Q473.05 892.928 474.23 891.585 Q476.476 889.062 477.355 887.326 Q478.258 885.567 478.258 883.877 Q478.258 881.122 476.314 879.386 Q474.392 877.65 471.29 877.65 Q469.091 877.65 466.638 878.414 Q464.207 879.178 461.429 880.729 L461.429 876.007 Q464.253 874.872 466.707 874.294 Q469.161 873.715 471.198 873.715 Q476.568 873.715 479.763 876.4 Q482.957 879.085 482.957 883.576 Q482.957 885.706 482.147 887.627 Q481.36 889.525 479.253 892.118 Q478.675 892.789 475.573 896.006 Q472.471 899.201 466.823 904.965 Z" fill="#000000" fill-rule="evenodd" fill-opacity="1" /><path clip-path="url(#clip560)" d="M949.203 877.419 Q945.592 877.419 943.763 880.983 Q941.957 884.525 941.957 891.655 Q941.957 898.761 943.763 902.326 Q945.592 905.867 949.203 905.867 Q952.837 905.867 954.643 902.326 Q956.471 898.761 956.471 891.655 Q956.471 884.525 954.643 880.983 Q952.837 877.419 949.203 877.419 M949.203 873.715 Q955.013 873.715 958.068 878.321 Q961.147 882.905 961.147 891.655 Q961.147 900.381 958.068 904.988 Q955.013 909.571 949.203 909.571 Q943.393 909.571 940.314 904.988 Q937.258 900.381 937.258 891.655 Q937.258 882.905 940.314 878.321 Q943.393 873.715 949.203 873.715 Z" fill="#000000" fill-rule="evenodd" fill-opacity="1" /><path clip-path="url(#clip560)" d="M1439.97 904.965 L1456.29 904.965 L1456.29 908.9 L1434.35 908.9 L1434.35 904.965 Q1437.01 902.21 1441.59 897.58 Q1446.2 892.928 1447.38 891.585 Q1449.63 889.062 1450.51 887.326 Q1451.41 885.567 1451.41 883.877 Q1451.41 881.122 1449.46 879.386 Q1447.54 877.65 1444.44 877.65 Q1442.24 877.65 1439.79 878.414 Q1437.36 879.178 1434.58 880.729 L1434.58 876.007 Q1437.4 874.872 1439.86 874.294 Q1442.31 873.715 1444.35 873.715 Q1449.72 873.715 1452.91 876.4 Q1456.11 879.085 1456.11 883.576 Q1456.11 885.706 1455.3 887.627 Q1454.51 889.525 1452.4 892.118 Q1451.83 892.789 1448.72 896.006 Q1445.62 899.201 1439.97 904.965 Z" fill="#000000" fill-rule="evenodd" fill-opacity="1" /><path clip-path="url(#clip560)" d="M1944.45 878.414 L1932.64 896.863 L1944.45 896.863 L1944.45 878.414 M1943.22 874.34 L1949.1 874.34 L1949.1 896.863 L1954.03 896.863 L1954.03 900.752 L1949.1 900.752 L1949.1 908.9 L1944.45 908.9 L1944.45 900.752 L1928.85 900.752 L1928.85 896.238 L1943.22 874.34 Z" fill="#000000" fill-rule="evenodd" fill-opacity="1" /><path clip-path="url(#clip560)" d="M891.251 942.603 L891.251 948.874 Q887.591 947.123 884.344 946.264 Q881.098 945.404 878.074 945.404 Q872.822 945.404 869.958 947.441 Q867.125 949.478 867.125 953.234 Q867.125 956.385 869.003 958.008 Q870.913 959.6 876.196 960.587 L880.079 961.382 Q887.273 962.751 890.678 966.22 Q894.116 969.658 894.116 975.45 Q894.116 982.357 889.469 985.922 Q884.854 989.487 875.91 989.487 Q872.536 989.487 868.717 988.723 Q864.929 987.959 860.855 986.463 L860.855 979.843 Q864.77 982.039 868.526 983.153 Q872.281 984.267 875.91 984.267 Q881.416 984.267 884.408 982.103 Q887.4 979.938 887.4 975.928 Q887.4 972.427 885.236 970.453 Q883.103 968.48 878.201 967.493 L874.287 966.729 Q867.093 965.297 863.879 962.242 Q860.664 959.186 860.664 953.743 Q860.664 947.441 865.088 943.813 Q869.544 940.184 877.342 940.184 Q880.684 940.184 884.153 940.789 Q887.623 941.394 891.251 942.603 Z" fill="#000000" fill-rule="evenodd" fill-opacity="1" /><path clip-path="url(#clip560)" d="M920.088 970.644 Q912.99 970.644 910.253 972.268 Q907.516 973.891 907.516 977.806 Q907.516 980.925 909.553 982.771 Q911.621 984.585 915.154 984.585 Q920.024 984.585 922.952 981.148 Q925.912 977.678 925.912 971.949 L925.912 970.644 L920.088 970.644 M931.769 968.225 L931.769 988.564 L925.912 988.564 L925.912 983.153 Q923.907 986.4 920.915 987.959 Q917.923 989.487 913.595 989.487 Q908.12 989.487 904.874 986.431 Q901.659 983.344 901.659 978.188 Q901.659 972.172 905.669 969.117 Q909.712 966.061 917.701 966.061 L925.912 966.061 L925.912 965.488 Q925.912 961.446 923.239 959.25 Q920.597 957.022 915.791 957.022 Q912.735 957.022 909.839 957.754 Q906.943 958.486 904.269 959.95 L904.269 954.539 Q907.484 953.298 910.507 952.693 Q913.531 952.057 916.396 952.057 Q924.13 952.057 927.949 956.067 Q931.769 960.077 931.769 968.225 Z" fill="#000000" fill-rule="evenodd" fill-opacity="1" /><path clip-path="url(#clip560)" d="M971.586 959.759 Q973.783 955.812 976.838 953.934 Q979.894 952.057 984.031 952.057 Q989.601 952.057 992.625 955.971 Q995.649 959.855 995.649 967.048 L995.649 988.564 L989.76 988.564 L989.76 967.239 Q989.76 962.114 987.946 959.632 Q986.132 957.149 982.408 957.149 Q977.857 957.149 975.215 960.173 Q972.573 963.197 972.573 968.416 L972.573 988.564 L966.685 988.564 L966.685 967.239 Q966.685 962.083 964.871 959.632 Q963.056 957.149 959.269 957.149 Q954.781 957.149 952.139 960.205 Q949.497 963.228 949.497 968.416 L949.497 988.564 L943.609 988.564 L943.609 952.916 L949.497 952.916 L949.497 958.454 Q951.503 955.176 954.303 953.616 Q957.104 952.057 960.956 952.057 Q964.839 952.057 967.544 954.03 Q970.281 956.003 971.586 959.759 Z" fill="#000000" fill-rule="evenodd" fill-opacity="1" /><path clip-path="url(#clip560)" d="M1013 983.217 L1013 1002.12 L1007.11 1002.12 L1007.11 952.916 L1013 952.916 L1013 958.327 Q1014.84 955.144 1017.64 953.616 Q1020.47 952.057 1024.39 952.057 Q1030.88 952.057 1034.93 957.213 Q1039 962.369 1039 970.772 Q1039 979.174 1034.93 984.331 Q1030.88 989.487 1024.39 989.487 Q1020.47 989.487 1017.64 987.959 Q1014.84 986.4 1013 983.217 M1032.92 970.772 Q1032.92 964.311 1030.25 960.65 Q1027.6 956.958 1022.96 956.958 Q1018.31 956.958 1015.64 960.65 Q1013 964.311 1013 970.772 Q1013 977.233 1015.64 980.925 Q1018.31 984.585 1022.96 984.585 Q1027.6 984.585 1030.25 980.925 Q1032.92 977.233 1032.92 970.772 Z" fill="#000000" fill-rule="evenodd" fill-opacity="1" /><path clip-path="url(#clip560)" d="M1048.71 939.039 L1054.56 939.039 L1054.56 988.564 L1048.71 988.564 L1048.71 939.039 Z" fill="#000000" fill-rule="evenodd" fill-opacity="1" /><path clip-path="url(#clip560)" d="M1097.31 969.276 L1097.31 972.14 L1070.38 972.14 Q1070.76 978.188 1074.01 981.371 Q1077.29 984.522 1083.11 984.522 Q1086.49 984.522 1089.64 983.694 Q1092.82 982.867 1095.94 981.211 L1095.94 986.75 Q1092.79 988.086 1089.48 988.787 Q1086.17 989.487 1082.76 989.487 Q1074.23 989.487 1069.24 984.522 Q1064.27 979.556 1064.27 971.09 Q1064.27 962.337 1068.98 957.213 Q1073.72 952.057 1081.74 952.057 Q1088.94 952.057 1093.11 956.703 Q1097.31 961.319 1097.31 969.276 M1091.45 967.557 Q1091.39 962.751 1088.75 959.886 Q1086.14 957.022 1081.81 957.022 Q1076.91 957.022 1073.95 959.791 Q1071.02 962.56 1070.57 967.589 L1091.45 967.557 Z" fill="#000000" fill-rule="evenodd" fill-opacity="1" /><path clip-path="url(#clip560)" d="M1123.44 952.916 L1129.65 952.916 L1140.79 982.835 L1151.93 952.916 L1158.13 952.916 L1144.77 988.564 L1136.81 988.564 L1123.44 952.916 Z" fill="#000000" fill-rule="evenodd" fill-opacity="1" /><path clip-path="url(#clip560)" d="M1182.42 970.644 Q1175.32 970.644 1172.58 972.268 Q1169.85 973.891 1169.85 977.806 Q1169.85 980.925 1171.88 982.771 Q1173.95 984.585 1177.49 984.585 Q1182.35 984.585 1185.28 981.148 Q1188.24 977.678 1188.24 971.949 L1188.24 970.644 L1182.42 970.644 M1194.1 968.225 L1194.1 988.564 L1188.24 988.564 L1188.24 983.153 Q1186.24 986.4 1183.25 987.959 Q1180.25 989.487 1175.93 989.487 Q1170.45 989.487 1167.2 986.431 Q1163.99 983.344 1163.99 978.188 Q1163.99 972.172 1168 969.117 Q1172.04 966.061 1180.03 966.061 L1188.24 966.061 L1188.24 965.488 Q1188.24 961.446 1185.57 959.25 Q1182.93 957.022 1178.12 957.022 Q1175.07 957.022 1172.17 957.754 Q1169.27 958.486 1166.6 959.95 L1166.6 954.539 Q1169.81 953.298 1172.84 952.693 Q1175.86 952.057 1178.73 952.057 Q1186.46 952.057 1190.28 956.067 Q1194.1 960.077 1194.1 968.225 Z" fill="#000000" fill-rule="evenodd" fill-opacity="1" /><path clip-path="url(#clip560)" d="M1206.16 939.039 L1212.02 939.039 L1212.02 988.564 L1206.16 988.564 L1206.16 939.039 Z" fill="#000000" fill-rule="evenodd" fill-opacity="1" /><path clip-path="url(#clip560)" d="M1223.67 974.496 L1223.67 952.916 L1229.52 952.916 L1229.52 974.273 Q1229.52 979.334 1231.5 981.88 Q1233.47 984.394 1237.42 984.394 Q1242.16 984.394 1244.9 981.371 Q1247.67 978.347 1247.67 973.127 L1247.67 952.916 L1253.52 952.916 L1253.52 988.564 L1247.67 988.564 L1247.67 983.089 Q1245.53 986.336 1242.7 987.927 Q1239.9 989.487 1236.18 989.487 Q1230.03 989.487 1226.85 985.667 Q1223.67 981.848 1223.67 974.496 M1238.4 952.057 L1238.4 952.057 Z" fill="#000000" fill-rule="evenodd" fill-opacity="1" /><path clip-path="url(#clip560)" d="M1296.08 969.276 L1296.08 972.14 L1269.15 972.14 Q1269.53 978.188 1272.78 981.371 Q1276.06 984.522 1281.88 984.522 Q1285.26 984.522 1288.41 983.694 Q1291.59 982.867 1294.71 981.211 L1294.71 986.75 Q1291.56 988.086 1288.25 988.787 Q1284.94 989.487 1281.53 989.487 Q1273 989.487 1268.01 984.522 Q1263.04 979.556 1263.04 971.09 Q1263.04 962.337 1267.75 957.213 Q1272.49 952.057 1280.51 952.057 Q1287.71 952.057 1291.88 956.703 Q1296.08 961.319 1296.08 969.276 M1290.22 967.557 Q1290.16 962.751 1287.52 959.886 Q1284.91 957.022 1280.58 957.022 Q1275.68 957.022 1272.72 959.791 Q1269.79 962.56 1269.34 967.589 L1290.22 967.557 Z" fill="#000000" fill-rule="evenodd" fill-opacity="1" /><polyline clip-path="url(#clip562)" style="stroke:#000000; stroke-linecap:round; stroke-linejoin:round; stroke-width:2; stroke-opacity:0.1; fill:none" points="
  203.986,828.763 1952.76,828.763 
  "/>
<polyline clip-path="url(#clip562)" style="stroke:#000000; stroke-linecap:round; stroke-linejoin:round; stroke-width:2; stroke-opacity:0.1; fill:none" points="
  203.986,712.397 1952.76,712.397 
  "/>
<polyline clip-path="url(#clip562)" style="stroke:#000000; stroke-linecap:round; stroke-linejoin:round; stroke-width:2; stroke-opacity:0.1; fill:none" points="
  203.986,596.031 1952.76,596.031 
  "/>
<polyline clip-path="url(#clip562)" style="stroke:#000000; stroke-linecap:round; stroke-linejoin:round; stroke-width:2; stroke-opacity:0.1; fill:none" points="
  203.986,479.665 1952.76,479.665 
  "/>
<polyline clip-path="url(#clip562)" style="stroke:#000000; stroke-linecap:round; stroke-linejoin:round; stroke-width:2; stroke-opacity:0.1; fill:none" points="
  203.986,363.299 1952.76,363.299 
  "/>
<polyline clip-path="url(#clip562)" style="stroke:#000000; stroke-linecap:round; stroke-linejoin:round; stroke-width:2; stroke-opacity:0.1; fill:none" points="
  203.986,246.933 1952.76,246.933 
  "/>
<polyline clip-path="url(#clip562)" style="stroke:#000000; stroke-linecap:round; stroke-linejoin:round; stroke-width:2; stroke-opacity:0.1; fill:none" points="
  203.986,130.566 1952.76,130.566 
  "/>
<polyline clip-path="url(#clip560)" style="stroke:#000000; stroke-linecap:round; stroke-linejoin:round; stroke-width:4; stroke-opacity:1; fill:none" points="
  203.986,849.7 203.986,108.352 
  "/>
<polyline clip-path="url(#clip560)" style="stroke:#000000; stroke-linecap:round; stroke-linejoin:round; stroke-width:4; stroke-opacity:1; fill:none" points="
  203.986,828.763 222.884,828.763 
  "/>
<polyline clip-path="url(#clip560)" style="stroke:#000000; stroke-linecap:round; stroke-linejoin:round; stroke-width:4; stroke-opacity:1; fill:none" points="
  203.986,712.397 222.884,712.397 
  "/>
<polyline clip-path="url(#clip560)" style="stroke:#000000; stroke-linecap:round; stroke-linejoin:round; stroke-width:4; stroke-opacity:1; fill:none" points="
  203.986,596.031 222.884,596.031 
  "/>
<polyline clip-path="url(#clip560)" style="stroke:#000000; stroke-linecap:round; stroke-linejoin:round; stroke-width:4; stroke-opacity:1; fill:none" points="
  203.986,479.665 222.884,479.665 
  "/>
<polyline clip-path="url(#clip560)" style="stroke:#000000; stroke-linecap:round; stroke-linejoin:round; stroke-width:4; stroke-opacity:1; fill:none" points="
  203.986,363.299 222.884,363.299 
  "/>
<polyline clip-path="url(#clip560)" style="stroke:#000000; stroke-linecap:round; stroke-linejoin:round; stroke-width:4; stroke-opacity:1; fill:none" points="
  203.986,246.933 222.884,246.933 
  "/>
<polyline clip-path="url(#clip560)" style="stroke:#000000; stroke-linecap:round; stroke-linejoin:round; stroke-width:4; stroke-opacity:1; fill:none" points="
  203.986,130.566 222.884,130.566 
  "/>
<path clip-path="url(#clip560)" d="M116.811 814.562 Q113.2 814.562 111.371 818.127 Q109.565 821.668 109.565 828.798 Q109.565 835.904 111.371 839.469 Q113.2 843.011 116.811 843.011 Q120.445 843.011 122.25 839.469 Q124.079 835.904 124.079 828.798 Q124.079 821.668 122.25 818.127 Q120.445 814.562 116.811 814.562 M116.811 810.858 Q122.621 810.858 125.676 815.465 Q128.755 820.048 128.755 828.798 Q128.755 837.525 125.676 842.131 Q122.621 846.715 116.811 846.715 Q111 846.715 107.922 842.131 Q104.866 837.525 104.866 828.798 Q104.866 820.048 107.922 815.465 Q111 810.858 116.811 810.858 Z" fill="#000000" fill-rule="evenodd" fill-opacity="1" /><path clip-path="url(#clip560)" d="M136.973 840.164 L141.857 840.164 L141.857 846.043 L136.973 846.043 L136.973 840.164 Z" fill="#000000" fill-rule="evenodd" fill-opacity="1" /><path clip-path="url(#clip560)" d="M162.042 814.562 Q158.431 814.562 156.602 818.127 Q154.797 821.668 154.797 828.798 Q154.797 835.904 156.602 839.469 Q158.431 843.011 162.042 843.011 Q165.676 843.011 167.482 839.469 Q169.31 835.904 169.31 828.798 Q169.31 821.668 167.482 818.127 Q165.676 814.562 162.042 814.562 M162.042 810.858 Q167.852 810.858 170.908 815.465 Q173.986 820.048 173.986 828.798 Q173.986 837.525 170.908 842.131 Q167.852 846.715 162.042 846.715 Q156.232 846.715 153.153 842.131 Q150.098 837.525 150.098 828.798 Q150.098 820.048 153.153 815.465 Q156.232 810.858 162.042 810.858 Z" fill="#000000" fill-rule="evenodd" fill-opacity="1" /><path clip-path="url(#clip560)" d="M118.037 698.196 Q114.426 698.196 112.598 701.761 Q110.792 705.302 110.792 712.432 Q110.792 719.538 112.598 723.103 Q114.426 726.645 118.037 726.645 Q121.672 726.645 123.477 723.103 Q125.306 719.538 125.306 712.432 Q125.306 705.302 123.477 701.761 Q121.672 698.196 118.037 698.196 M118.037 694.492 Q123.848 694.492 126.903 699.099 Q129.982 703.682 129.982 712.432 Q129.982 721.159 126.903 725.765 Q123.848 730.348 118.037 730.348 Q112.227 730.348 109.149 725.765 Q106.093 721.159 106.093 712.432 Q106.093 703.682 109.149 699.099 Q112.227 694.492 118.037 694.492 Z" fill="#000000" fill-rule="evenodd" fill-opacity="1" /><path clip-path="url(#clip560)" d="M138.199 723.797 L143.084 723.797 L143.084 729.677 L138.199 729.677 L138.199 723.797 Z" fill="#000000" fill-rule="evenodd" fill-opacity="1" /><path clip-path="url(#clip560)" d="M154.079 725.742 L161.718 725.742 L161.718 699.376 L153.408 701.043 L153.408 696.784 L161.672 695.117 L166.347 695.117 L166.347 725.742 L173.986 725.742 L173.986 729.677 L154.079 729.677 L154.079 725.742 Z" fill="#000000" fill-rule="evenodd" fill-opacity="1" /><path clip-path="url(#clip560)" d="M118.408 581.83 Q114.797 581.83 112.968 585.394 Q111.163 588.936 111.163 596.066 Q111.163 603.172 112.968 606.737 Q114.797 610.279 118.408 610.279 Q122.042 610.279 123.848 606.737 Q125.676 603.172 125.676 596.066 Q125.676 588.936 123.848 585.394 Q122.042 581.83 118.408 581.83 M118.408 578.126 Q124.218 578.126 127.274 582.732 Q130.352 587.316 130.352 596.066 Q130.352 604.792 127.274 609.399 Q124.218 613.982 118.408 613.982 Q112.598 613.982 109.519 609.399 Q106.463 604.792 106.463 596.066 Q106.463 587.316 109.519 582.732 Q112.598 578.126 118.408 578.126 Z" fill="#000000" fill-rule="evenodd" fill-opacity="1" /><path clip-path="url(#clip560)" d="M138.57 607.431 L143.454 607.431 L143.454 613.311 L138.57 613.311 L138.57 607.431 Z" fill="#000000" fill-rule="evenodd" fill-opacity="1" /><path clip-path="url(#clip560)" d="M157.667 609.376 L173.986 609.376 L173.986 613.311 L152.042 613.311 L152.042 609.376 Q154.704 606.621 159.287 601.992 Q163.894 597.339 165.074 595.996 Q167.32 593.473 168.199 591.737 Q169.102 589.978 169.102 588.288 Q169.102 585.533 167.158 583.797 Q165.236 582.061 162.134 582.061 Q159.935 582.061 157.482 582.825 Q155.051 583.589 152.273 585.14 L152.273 580.418 Q155.097 579.283 157.551 578.705 Q160.005 578.126 162.042 578.126 Q167.412 578.126 170.607 580.811 Q173.801 583.496 173.801 587.987 Q173.801 590.117 172.991 592.038 Q172.204 593.936 170.097 596.529 Q169.519 597.2 166.417 600.417 Q163.315 603.612 157.667 609.376 Z" fill="#000000" fill-rule="evenodd" fill-opacity="1" /><path clip-path="url(#clip560)" d="M117.459 465.463 Q113.848 465.463 112.019 469.028 Q110.213 472.57 110.213 479.7 Q110.213 486.806 112.019 490.371 Q113.848 493.912 117.459 493.912 Q121.093 493.912 122.899 490.371 Q124.727 486.806 124.727 479.7 Q124.727 472.57 122.899 469.028 Q121.093 465.463 117.459 465.463 M117.459 461.76 Q123.269 461.76 126.324 466.366 Q129.403 470.95 129.403 479.7 Q129.403 488.426 126.324 493.033 Q123.269 497.616 117.459 497.616 Q111.649 497.616 108.57 493.033 Q105.514 488.426 105.514 479.7 Q105.514 470.95 108.57 466.366 Q111.649 461.76 117.459 461.76 Z" fill="#000000" fill-rule="evenodd" fill-opacity="1" /><path clip-path="url(#clip560)" d="M137.621 491.065 L142.505 491.065 L142.505 496.945 L137.621 496.945 L137.621 491.065 Z" fill="#000000" fill-rule="evenodd" fill-opacity="1" /><path clip-path="url(#clip560)" d="M166.857 478.311 Q170.213 479.028 172.088 481.297 Q173.986 483.565 173.986 486.899 Q173.986 492.014 170.468 494.815 Q166.949 497.616 160.468 497.616 Q158.292 497.616 155.977 497.176 Q153.685 496.76 151.232 495.903 L151.232 491.389 Q153.176 492.524 155.491 493.102 Q157.806 493.681 160.329 493.681 Q164.727 493.681 167.019 491.945 Q169.334 490.209 169.334 486.899 Q169.334 483.843 167.181 482.13 Q165.051 480.394 161.232 480.394 L157.204 480.394 L157.204 476.551 L161.417 476.551 Q164.866 476.551 166.695 475.186 Q168.523 473.797 168.523 471.204 Q168.523 468.542 166.625 467.13 Q164.75 465.695 161.232 465.695 Q159.31 465.695 157.111 466.112 Q154.912 466.528 152.273 467.408 L152.273 463.241 Q154.935 462.501 157.25 462.13 Q159.588 461.76 161.648 461.76 Q166.972 461.76 170.074 464.19 Q173.176 466.598 173.176 470.718 Q173.176 473.588 171.533 475.579 Q169.889 477.547 166.857 478.311 Z" fill="#000000" fill-rule="evenodd" fill-opacity="1" /><path clip-path="url(#clip560)" d="M116.325 349.097 Q112.713 349.097 110.885 352.662 Q109.079 356.204 109.079 363.333 Q109.079 370.44 110.885 374.005 Q112.713 377.546 116.325 377.546 Q119.959 377.546 121.764 374.005 Q123.593 370.44 123.593 363.333 Q123.593 356.204 121.764 352.662 Q119.959 349.097 116.325 349.097 M116.325 345.394 Q122.135 345.394 125.19 350 Q128.269 354.583 128.269 363.333 Q128.269 372.06 125.19 376.667 Q122.135 381.25 116.325 381.25 Q110.514 381.25 107.436 376.667 Q104.38 372.06 104.38 363.333 Q104.38 354.583 107.436 350 Q110.514 345.394 116.325 345.394 Z" fill="#000000" fill-rule="evenodd" fill-opacity="1" /><path clip-path="url(#clip560)" d="M136.486 374.699 L141.371 374.699 L141.371 380.579 L136.486 380.579 L136.486 374.699 Z" fill="#000000" fill-rule="evenodd" fill-opacity="1" /><path clip-path="url(#clip560)" d="M164.403 350.093 L152.597 368.542 L164.403 368.542 L164.403 350.093 M163.176 346.019 L169.056 346.019 L169.056 368.542 L173.986 368.542 L173.986 372.431 L169.056 372.431 L169.056 380.579 L164.403 380.579 L164.403 372.431 L148.801 372.431 L148.801 367.917 L163.176 346.019 Z" fill="#000000" fill-rule="evenodd" fill-opacity="1" /><path clip-path="url(#clip560)" d="M117.806 232.731 Q114.195 232.731 112.366 236.296 Q110.561 239.838 110.561 246.967 Q110.561 254.074 112.366 257.638 Q114.195 261.18 117.806 261.18 Q121.44 261.18 123.246 257.638 Q125.074 254.074 125.074 246.967 Q125.074 239.838 123.246 236.296 Q121.44 232.731 117.806 232.731 M117.806 229.028 Q123.616 229.028 126.672 233.634 Q129.75 238.217 129.75 246.967 Q129.75 255.694 126.672 260.301 Q123.616 264.884 117.806 264.884 Q111.996 264.884 108.917 260.301 Q105.862 255.694 105.862 246.967 Q105.862 238.217 108.917 233.634 Q111.996 229.028 117.806 229.028 Z" fill="#000000" fill-rule="evenodd" fill-opacity="1" /><path clip-path="url(#clip560)" d="M137.968 258.333 L142.852 258.333 L142.852 264.213 L137.968 264.213 L137.968 258.333 Z" fill="#000000" fill-rule="evenodd" fill-opacity="1" /><path clip-path="url(#clip560)" d="M153.084 229.653 L171.44 229.653 L171.44 233.588 L157.366 233.588 L157.366 242.06 Q158.384 241.713 159.403 241.551 Q160.422 241.365 161.44 241.365 Q167.227 241.365 170.607 244.537 Q173.986 247.708 173.986 253.125 Q173.986 258.703 170.514 261.805 Q167.042 264.884 160.722 264.884 Q158.547 264.884 156.278 264.513 Q154.033 264.143 151.625 263.402 L151.625 258.703 Q153.709 259.838 155.931 260.393 Q158.153 260.949 160.63 260.949 Q164.634 260.949 166.972 258.842 Q169.31 256.736 169.31 253.125 Q169.31 249.514 166.972 247.407 Q164.634 245.301 160.63 245.301 Q158.755 245.301 156.88 245.717 Q155.028 246.134 153.084 247.014 L153.084 229.653 Z" fill="#000000" fill-rule="evenodd" fill-opacity="1" /><path clip-path="url(#clip560)" d="M116.649 116.365 Q113.038 116.365 111.209 119.93 Q109.403 123.472 109.403 130.601 Q109.403 137.708 111.209 141.272 Q113.038 144.814 116.649 144.814 Q120.283 144.814 122.088 141.272 Q123.917 137.708 123.917 130.601 Q123.917 123.472 122.088 119.93 Q120.283 116.365 116.649 116.365 M116.649 112.661 Q122.459 112.661 125.514 117.268 Q128.593 121.851 128.593 130.601 Q128.593 139.328 125.514 143.934 Q122.459 148.518 116.649 148.518 Q110.838 148.518 107.76 143.934 Q104.704 139.328 104.704 130.601 Q104.704 121.851 107.76 117.268 Q110.838 112.661 116.649 112.661 Z" fill="#000000" fill-rule="evenodd" fill-opacity="1" /><path clip-path="url(#clip560)" d="M136.811 141.967 L141.695 141.967 L141.695 147.846 L136.811 147.846 L136.811 141.967 Z" fill="#000000" fill-rule="evenodd" fill-opacity="1" /><path clip-path="url(#clip560)" d="M162.459 128.703 Q159.31 128.703 157.459 130.856 Q155.63 133.008 155.63 136.758 Q155.63 140.485 157.459 142.661 Q159.31 144.814 162.459 144.814 Q165.607 144.814 167.435 142.661 Q169.287 140.485 169.287 136.758 Q169.287 133.008 167.435 130.856 Q165.607 128.703 162.459 128.703 M171.741 114.05 L171.741 118.309 Q169.982 117.476 168.176 117.036 Q166.394 116.597 164.634 116.597 Q160.005 116.597 157.551 119.722 Q155.121 122.847 154.773 129.166 Q156.139 127.152 158.199 126.087 Q160.259 124.999 162.736 124.999 Q167.945 124.999 170.954 128.171 Q173.986 131.319 173.986 136.758 Q173.986 142.083 170.838 145.3 Q167.69 148.518 162.459 148.518 Q156.463 148.518 153.292 143.934 Q150.121 139.328 150.121 130.601 Q150.121 122.407 154.01 117.546 Q157.898 112.661 164.449 112.661 Q166.209 112.661 167.991 113.009 Q169.796 113.356 171.741 114.05 Z" fill="#000000" fill-rule="evenodd" fill-opacity="1" /><path clip-path="url(#clip560)" d="M17.8877 592.336 L54.8406 592.336 L54.8406 584.569 Q54.8406 574.734 50.3846 570.183 Q45.9286 565.6 36.3164 565.6 Q26.7679 565.6 22.3437 570.183 Q17.8877 574.734 17.8877 584.569 L17.8877 592.336 M12.6042 598.765 L12.6042 585.556 Q12.6042 571.743 18.3651 565.281 Q24.0943 558.82 36.3164 558.82 Q48.6022 558.82 54.3632 565.313 Q60.1242 571.806 60.1242 585.556 L60.1242 598.765 L12.6042 598.765 Z" fill="#000000" fill-rule="evenodd" fill-opacity="1" /><path clip-path="url(#clip560)" d="M40.8361 518.334 L43.7006 518.334 L43.7006 545.261 Q49.7481 544.879 52.9309 541.633 Q56.0819 538.354 56.0819 532.53 Q56.0819 529.156 55.2544 526.005 Q54.4269 522.822 52.7718 519.703 L58.3099 519.703 Q59.6467 522.854 60.347 526.164 Q61.0472 529.474 61.0472 532.88 Q61.0472 541.41 56.0819 546.407 Q51.1167 551.372 42.6503 551.372 Q33.8974 551.372 28.7731 546.662 Q23.6168 541.919 23.6168 533.898 Q23.6168 526.705 28.2638 522.536 Q32.8789 518.334 40.8361 518.334 M39.1173 524.191 Q34.3112 524.254 31.4466 526.896 Q28.5821 529.506 28.5821 533.835 Q28.5821 538.736 31.3512 541.696 Q34.1202 544.625 39.1492 545.07 L39.1173 524.191 Z" fill="#000000" fill-rule="evenodd" fill-opacity="1" /><path clip-path="url(#clip560)" d="M38.6081 479.09 L60.1242 479.09 L60.1242 484.946 L38.799 484.946 Q33.7383 484.946 31.2238 486.919 Q28.7094 488.893 28.7094 492.84 Q28.7094 497.582 31.7331 500.319 Q34.7568 503.057 39.9767 503.057 L60.1242 503.057 L60.1242 508.945 L24.4762 508.945 L24.4762 503.057 L30.0144 503.057 Q26.7997 500.956 25.2083 498.123 Q23.6168 495.259 23.6168 491.535 Q23.6168 485.392 27.4363 482.241 Q31.2238 479.09 38.6081 479.09 Z" fill="#000000" fill-rule="evenodd" fill-opacity="1" /><path clip-path="url(#clip560)" d="M25.5265 444.683 L31.0647 444.683 Q29.7916 447.166 29.155 449.839 Q28.5184 452.513 28.5184 455.377 Q28.5184 459.738 29.8552 461.934 Q31.192 464.098 33.8656 464.098 Q35.9026 464.098 37.0803 462.539 Q38.2261 460.979 39.2765 456.269 L39.7221 454.263 Q41.0589 448.025 43.5097 445.415 Q45.9286 442.773 50.2891 442.773 Q55.2544 442.773 58.1508 446.72 Q61.0472 450.635 61.0472 457.51 Q61.0472 460.374 60.4743 463.494 Q59.9332 466.581 58.8192 470.019 L52.7718 470.019 Q54.4587 466.772 55.318 463.621 Q56.1456 460.47 56.1456 457.383 Q56.1456 453.245 54.7451 451.017 Q53.3129 448.789 50.7347 448.789 Q48.3476 448.789 47.0745 450.412 Q45.8013 452.004 44.6237 457.446 L44.1462 459.483 Q43.0004 464.926 40.6451 467.345 Q38.258 469.764 34.1202 469.764 Q29.0913 469.764 26.3541 466.199 Q23.6168 462.634 23.6168 456.078 Q23.6168 452.831 24.0943 449.967 Q24.5717 447.102 25.5265 444.683 Z" fill="#000000" fill-rule="evenodd" fill-opacity="1" /><path clip-path="url(#clip560)" d="M24.4762 433.448 L24.4762 427.591 L60.1242 427.591 L60.1242 433.448 L24.4762 433.448 M10.599 433.448 L10.599 427.591 L18.015 427.591 L18.015 433.448 L10.599 433.448 Z" fill="#000000" fill-rule="evenodd" fill-opacity="1" /><path clip-path="url(#clip560)" d="M14.3547 409.544 L24.4762 409.544 L24.4762 397.481 L29.0277 397.481 L29.0277 409.544 L48.3794 409.544 Q52.7399 409.544 53.9813 408.367 Q55.2226 407.157 55.2226 403.497 L55.2226 397.481 L60.1242 397.481 L60.1242 403.497 Q60.1242 410.276 57.6097 412.854 Q55.0634 415.433 48.3794 415.433 L29.0277 415.433 L29.0277 419.729 L24.4762 419.729 L24.4762 415.433 L14.3547 415.433 L14.3547 409.544 Z" fill="#000000" fill-rule="evenodd" fill-opacity="1" /><path clip-path="url(#clip560)" d="M63.4343 374.947 Q69.8 377.429 71.7416 379.785 Q73.6831 382.14 73.6831 386.087 L73.6831 390.765 L68.7815 390.765 L68.7815 387.328 Q68.7815 384.909 67.6357 383.572 Q66.4899 382.235 62.2248 380.612 L59.5512 379.562 L24.4762 393.98 L24.4762 387.774 L52.358 376.634 L24.4762 365.494 L24.4762 359.287 L63.4343 374.947 Z" fill="#000000" fill-rule="evenodd" fill-opacity="1" /><path clip-path="url(#clip560)" d="M1099.52 27.2059 L1083.11 49.2833 L1100.37 72.576 L1091.58 72.576 L1078.37 54.752 L1065.17 72.576 L1056.37 72.576 L1074 48.8377 L1057.87 27.2059 L1066.66 27.2059 L1078.7 43.369 L1090.73 27.2059 L1099.52 27.2059 Z" fill="#000000" fill-rule="evenodd" fill-opacity="1" /><polyline clip-path="url(#clip562)" style="stroke:#009af9; stroke-linecap:round; stroke-linejoin:round; stroke-width:12; stroke-opacity:1; fill:none" points="
  255.48,822.493 265.576,821.024 275.673,819.281 285.77,817.174 295.867,814.596 305.964,811.435 316.06,807.603 326.157,803.064 336.254,797.854 346.351,792.092 
  356.448,785.975 366.545,779.764 376.641,773.751 386.738,768.226 396.835,763.457 406.932,759.659 417.029,756.987 427.126,755.533 437.222,755.321 447.319,756.314 
  457.416,758.417 467.513,761.482 477.61,765.305 487.707,769.617 497.803,774.068 507.9,778.199 517.997,781.421 528.094,782.991 538.191,782.021 548.288,777.51 
  558.384,768.407 568.481,753.708 578.578,732.559 588.675,704.377 598.772,668.933 608.869,626.427 618.965,577.516 629.062,523.315 639.159,465.362 649.256,405.573 
  659.353,346.168 669.45,289.575 679.546,238.3 689.643,194.767 699.74,161.112 709.837,138.979 719.934,129.334 730.03,132.351 740.127,147.4 750.224,173.14 
  760.321,207.726 770.418,249.065 780.515,295.077 790.611,343.906 800.708,394.028 810.805,444.256 820.902,493.667 830.999,541.482 841.096,586.972 851.192,629.409 
  861.289,668.089 871.386,702.399 881.483,731.902 891.58,756.397 901.677,775.934 911.773,790.775 921.87,801.307 931.967,807.944 942.064,811.028 952.161,810.755 
  962.258,807.127 972.354,799.958 982.451,788.905 992.548,773.541 1002.64,753.449 1012.74,728.336 1022.84,698.134 1032.94,663.087 1043.03,623.79 1053.13,581.172 
  1063.23,536.429 1073.32,490.909 1083.42,445.972 1093.52,402.868 1103.61,362.646 1113.71,326.125 1123.81,293.931 1133.9,266.574 1144,244.559 1154.1,228.466 
  1164.19,218.978 1174.29,216.833 1184.39,222.705 1194.48,237.043 1204.58,259.913 1214.68,290.888 1224.78,329.018 1234.87,372.884 1244.97,420.729 1255.07,470.615 
  1265.16,520.6 1275.26,568.872 1285.36,613.867 1295.45,654.333 1305.55,689.373 1315.65,718.445 1325.74,741.356 1335.84,758.225 1345.94,769.432 1356.03,775.561 
  1366.13,777.339 1376.23,775.578 1386.32,771.126 1396.42,764.832 1406.52,757.521 1416.61,749.98 1426.71,742.937 1436.81,737.044 1446.91,732.846 1457,730.751 
  1467.1,730.996 1477.2,733.617 1487.29,738.446 1497.39,745.127 1507.49,753.162 1517.58,761.974 1527.68,770.99 1537.78,779.709 1547.87,787.759 1557.97,794.918 
  1568.07,801.108 1578.16,806.361 1588.26,810.778 1598.36,814.481 1608.45,817.586 1618.55,820.18 1628.65,822.328 1638.75,824.074 1648.84,825.455 1658.94,826.512 
  1669.04,827.289 1679.13,827.836 1689.23,828.204 1699.33,828.439 1709.42,828.582 1719.52,828.662 1729.62,828.701 1739.71,828.711 1749.81,828.698 1759.91,828.663 
  1770,828.602 1780.1,828.509 1790.2,828.379 1800.29,828.21 1810.39,828.002 1820.49,827.766 1830.58,827.516 1840.68,827.275 1850.78,827.068 1860.88,826.919 
  1870.97,826.845 1881.07,826.855 1891.17,826.947 1901.26,827.109 
  "/>
<polyline clip-path="url(#clip562)" style="stroke:#e26f46; stroke-linecap:round; stroke-linejoin:round; stroke-width:12; stroke-opacity:1; fill:none" points="
  253.48,823.565 263.359,821.623 273.238,819.169 283.117,816.145 292.995,812.519 302.874,808.281 312.753,803.453 322.632,798.086 332.511,792.261 342.39,786.097 
  352.269,779.744 362.148,773.381 372.027,767.201 381.906,761.397 391.785,756.143 401.664,751.598 411.543,747.911 421.422,745.237 431.301,743.739 441.18,743.568 
  451.059,744.831 460.937,747.548 470.816,751.625 480.695,756.834 490.574,762.821 500.453,769.115 510.332,775.136 520.211,780.191 530.09,783.474 539.969,784.067 
  549.848,780.981 559.727,773.214 569.606,759.857 579.485,740.201 589.364,713.849 599.243,680.785 609.122,641.403 619,596.478 628.879,547.096 638.758,494.568 
  648.637,440.359 658.516,386.042 668.395,333.287 678.274,283.862 688.153,239.604 698.032,202.348 707.911,173.8 717.79,155.354 727.669,147.918 737.548,151.774 
  747.427,166.531 757.306,191.185 767.185,224.292 777.063,264.189 786.942,309.216 796.821,357.852 806.7,408.746 816.579,460.654 826.458,512.346 836.337,562.55 
  846.216,609.976 856.095,653.424 865.974,691.926 875.853,724.865 885.732,752.039 895.611,773.63 905.49,790.11 915.369,802.118 925.248,810.311 935.126,815.25 
  945.005,817.309 954.884,816.611 964.763,813.015 974.642,806.122 984.521,795.329 994.4,779.918 1004.28,759.179 1014.16,732.56 1024.04,699.812 1033.92,661.128 
  1043.79,617.218 1053.67,569.317 1063.55,519.093 1073.43,468.474 1083.31,419.399 1093.19,373.558 1103.07,332.191 1112.95,296.003 1122.83,265.236 1132.71,239.88 
  1142.58,219.935 1152.46,205.639 1162.34,197.561 1172.22,196.528 1182.1,203.409 1191.98,218.832 1201.86,242.951 1211.74,275.312 1221.62,314.874 1231.49,360.135 
  1241.37,409.322 1251.25,460.568 1261.13,512.049 1271.01,562.066 1280.89,609.09 1290.77,651.799 1300.65,689.122 1310.53,720.288 1320.41,744.869 1330.28,762.807 
  1340.16,774.407 1350.04,780.29 1359.92,781.328 1369.8,778.546 1379.68,773.037 1389.56,765.868 1399.44,758.012 1409.32,750.285 1419.19,743.327 1429.07,737.595 
  1438.95,733.387 1448.83,730.88 1458.71,730.165 1468.59,731.264 1478.47,734.136 1488.35,738.657 1498.23,744.604 1508.1,751.659 1517.98,759.431 1527.86,767.506 
  1537.74,775.503 1547.62,783.117 1557.5,790.145 1567.38,796.482 1577.26,802.102 1587.14,807.03 1597.02,811.312 1606.89,814.999 1616.77,818.137 1626.65,820.762 
  1636.53,822.911 1646.41,824.622 1656.29,825.937 1666.17,826.911 1676.05,827.6 1685.93,828.065 1695.8,828.364 1705.68,828.545 1715.56,828.647 1725.44,828.699 
  1735.32,828.718 1745.2,828.715 1755.08,828.691 1764.96,828.645 1774.84,828.573 1784.72,828.47 1794.59,828.332 1804.47,828.162 1814.35,827.965 1824.23,827.756 
  1834.11,827.554 1843.99,827.384 1853.87,827.266 1863.75,827.217 1873.63,827.243 1883.5,827.34 1893.38,827.493 1903.26,827.682 
  "/>
<path clip-path="url(#clip560)" d="
M1335.45 288.584 L1894.46 288.584 L1894.46 133.064 L1335.45 133.064  Z
  " fill="#ffffff" fill-rule="evenodd" fill-opacity="1"/>
<polyline clip-path="url(#clip560)" style="stroke:#000000; stroke-linecap:round; stroke-linejoin:round; stroke-width:4; stroke-opacity:1; fill:none" points="
  1335.45,288.584 1894.46,288.584 1894.46,133.064 1335.45,133.064 1335.45,288.584 
  "/>
<polyline clip-path="url(#clip560)" style="stroke:#009af9; stroke-linecap:round; stroke-linejoin:round; stroke-width:12; stroke-opacity:1; fill:none" points="
  1354.88,184.904 1471.46,184.904 
  "/>
<path clip-path="url(#clip560)" d="M1492.35 167.624 L1510.71 167.624 L1510.71 171.559 L1496.63 171.559 L1496.63 180.031 Q1497.65 179.684 1498.67 179.522 Q1499.69 179.337 1500.71 179.337 Q1506.49 179.337 1509.87 182.508 Q1513.25 185.679 1513.25 191.096 Q1513.25 196.674 1509.78 199.776 Q1506.31 202.855 1499.99 202.855 Q1497.81 202.855 1495.54 202.485 Q1493.3 202.114 1490.89 201.374 L1490.89 196.674 Q1492.97 197.809 1495.2 198.364 Q1497.42 198.92 1499.9 198.92 Q1503.9 198.92 1506.24 196.813 Q1508.58 194.707 1508.58 191.096 Q1508.58 187.485 1506.24 185.378 Q1503.9 183.272 1499.9 183.272 Q1498.02 183.272 1496.15 183.688 Q1494.29 184.105 1492.35 184.985 L1492.35 167.624 Z" fill="#000000" fill-rule="evenodd" fill-opacity="1" /><path clip-path="url(#clip560)" d="M1532.47 170.702 Q1528.85 170.702 1527.03 174.267 Q1525.22 177.809 1525.22 184.938 Q1525.22 192.045 1527.03 195.61 Q1528.85 199.151 1532.47 199.151 Q1536.1 199.151 1537.9 195.61 Q1539.73 192.045 1539.73 184.938 Q1539.73 177.809 1537.9 174.267 Q1536.1 170.702 1532.47 170.702 M1532.47 166.999 Q1538.28 166.999 1541.33 171.605 Q1544.41 176.188 1544.41 184.938 Q1544.41 193.665 1541.33 198.272 Q1538.28 202.855 1532.47 202.855 Q1526.66 202.855 1523.58 198.272 Q1520.52 193.665 1520.52 184.938 Q1520.52 176.188 1523.58 171.605 Q1526.66 166.999 1532.47 166.999 Z" fill="#000000" fill-rule="evenodd" fill-opacity="1" /><path clip-path="url(#clip560)" d="M1562.63 170.702 Q1559.02 170.702 1557.19 174.267 Q1555.38 177.809 1555.38 184.938 Q1555.38 192.045 1557.19 195.61 Q1559.02 199.151 1562.63 199.151 Q1566.26 199.151 1568.07 195.61 Q1569.9 192.045 1569.9 184.938 Q1569.9 177.809 1568.07 174.267 Q1566.26 170.702 1562.63 170.702 M1562.63 166.999 Q1568.44 166.999 1571.49 171.605 Q1574.57 176.188 1574.57 184.938 Q1574.57 193.665 1571.49 198.272 Q1568.44 202.855 1562.63 202.855 Q1556.82 202.855 1553.74 198.272 Q1550.68 193.665 1550.68 184.938 Q1550.68 176.188 1553.74 171.605 Q1556.82 166.999 1562.63 166.999 Z" fill="#000000" fill-rule="evenodd" fill-opacity="1" /><path clip-path="url(#clip560)" d="M1592.79 170.702 Q1589.18 170.702 1587.35 174.267 Q1585.54 177.809 1585.54 184.938 Q1585.54 192.045 1587.35 195.61 Q1589.18 199.151 1592.79 199.151 Q1596.42 199.151 1598.23 195.61 Q1600.06 192.045 1600.06 184.938 Q1600.06 177.809 1598.23 174.267 Q1596.42 170.702 1592.79 170.702 M1592.79 166.999 Q1598.6 166.999 1601.65 171.605 Q1604.73 176.188 1604.73 184.938 Q1604.73 193.665 1601.65 198.272 Q1598.6 202.855 1592.79 202.855 Q1586.98 202.855 1583.9 198.272 Q1580.84 193.665 1580.84 184.938 Q1580.84 176.188 1583.9 171.605 Q1586.98 166.999 1592.79 166.999 Z" fill="#000000" fill-rule="evenodd" fill-opacity="1" /><path clip-path="url(#clip560)" d="M1627.6 167.624 L1632.28 167.624 L1632.28 202.184 L1627.6 202.184 L1627.6 167.624 Z" fill="#000000" fill-rule="evenodd" fill-opacity="1" /><path clip-path="url(#clip560)" d="M1645.61 168.897 L1645.61 176.258 L1654.39 176.258 L1654.39 179.568 L1645.61 179.568 L1645.61 193.642 Q1645.61 196.813 1646.47 197.716 Q1647.35 198.619 1650.01 198.619 L1654.39 198.619 L1654.39 202.184 L1650.01 202.184 Q1645.08 202.184 1643.21 200.355 Q1641.33 198.503 1641.33 193.642 L1641.33 179.568 L1638.21 179.568 L1638.21 176.258 L1641.33 176.258 L1641.33 168.897 L1645.61 168.897 Z" fill="#000000" fill-rule="evenodd" fill-opacity="1" /><path clip-path="url(#clip560)" d="M1682.16 188.156 L1682.16 190.239 L1662.58 190.239 Q1662.86 194.637 1665.22 196.952 Q1667.6 199.244 1671.84 199.244 Q1674.29 199.244 1676.58 198.642 Q1678.9 198.04 1681.17 196.837 L1681.17 200.864 Q1678.88 201.836 1676.47 202.346 Q1674.06 202.855 1671.58 202.855 Q1665.38 202.855 1661.75 199.244 Q1658.14 195.633 1658.14 189.475 Q1658.14 183.11 1661.56 179.383 Q1665.01 175.633 1670.84 175.633 Q1676.08 175.633 1679.11 179.013 Q1682.16 182.369 1682.16 188.156 M1677.9 186.906 Q1677.86 183.411 1675.94 181.327 Q1674.04 179.244 1670.89 179.244 Q1667.33 179.244 1665.17 181.258 Q1663.04 183.272 1662.72 186.929 L1677.9 186.906 Z" fill="#000000" fill-rule="evenodd" fill-opacity="1" /><path clip-path="url(#clip560)" d="M1704.18 180.239 Q1703.46 179.823 1702.6 179.638 Q1701.77 179.429 1700.75 179.429 Q1697.14 179.429 1695.2 181.79 Q1693.27 184.128 1693.27 188.526 L1693.27 202.184 L1688.99 202.184 L1688.99 176.258 L1693.27 176.258 L1693.27 180.286 Q1694.62 177.925 1696.77 176.79 Q1698.92 175.633 1702 175.633 Q1702.44 175.633 1702.97 175.702 Q1703.51 175.749 1704.15 175.864 L1704.18 180.239 Z" fill="#000000" fill-rule="evenodd" fill-opacity="1" /><path clip-path="url(#clip560)" d="M1720.43 189.151 Q1715.27 189.151 1713.27 190.332 Q1711.28 191.512 1711.28 194.36 Q1711.28 196.628 1712.77 197.971 Q1714.27 199.29 1716.84 199.29 Q1720.38 199.29 1722.51 196.79 Q1724.66 194.267 1724.66 190.1 L1724.66 189.151 L1720.43 189.151 M1728.92 187.392 L1728.92 202.184 L1724.66 202.184 L1724.66 198.249 Q1723.2 200.61 1721.03 201.744 Q1718.85 202.855 1715.7 202.855 Q1711.72 202.855 1709.36 200.633 Q1707.02 198.387 1707.02 194.637 Q1707.02 190.262 1709.94 188.04 Q1712.88 185.818 1718.69 185.818 L1724.66 185.818 L1724.66 185.401 Q1724.66 182.462 1722.72 180.864 Q1720.8 179.244 1717.3 179.244 Q1715.08 179.244 1712.97 179.776 Q1710.87 180.309 1708.92 181.374 L1708.92 177.438 Q1711.26 176.536 1713.46 176.096 Q1715.66 175.633 1717.74 175.633 Q1723.37 175.633 1726.14 178.55 Q1728.92 181.466 1728.92 187.392 Z" fill="#000000" fill-rule="evenodd" fill-opacity="1" /><path clip-path="url(#clip560)" d="M1741.91 168.897 L1741.91 176.258 L1750.68 176.258 L1750.68 179.568 L1741.91 179.568 L1741.91 193.642 Q1741.91 196.813 1742.77 197.716 Q1743.64 198.619 1746.31 198.619 L1750.68 198.619 L1750.68 202.184 L1746.31 202.184 Q1741.38 202.184 1739.5 200.355 Q1737.63 198.503 1737.63 193.642 L1737.63 179.568 L1734.5 179.568 L1734.5 176.258 L1737.63 176.258 L1737.63 168.897 L1741.91 168.897 Z" fill="#000000" fill-rule="evenodd" fill-opacity="1" /><path clip-path="url(#clip560)" d="M1756.28 176.258 L1760.54 176.258 L1760.54 202.184 L1756.28 202.184 L1756.28 176.258 M1756.28 166.165 L1760.54 166.165 L1760.54 171.559 L1756.28 171.559 L1756.28 166.165 Z" fill="#000000" fill-rule="evenodd" fill-opacity="1" /><path clip-path="url(#clip560)" d="M1779.5 179.244 Q1776.08 179.244 1774.08 181.929 Q1772.09 184.591 1772.09 189.244 Q1772.09 193.897 1774.06 196.582 Q1776.05 199.244 1779.5 199.244 Q1782.9 199.244 1784.89 196.559 Q1786.89 193.874 1786.89 189.244 Q1786.89 184.638 1784.89 181.952 Q1782.9 179.244 1779.5 179.244 M1779.5 175.633 Q1785.06 175.633 1788.23 179.244 Q1791.4 182.855 1791.4 189.244 Q1791.4 195.61 1788.23 199.244 Q1785.06 202.855 1779.5 202.855 Q1773.92 202.855 1770.75 199.244 Q1767.6 195.61 1767.6 189.244 Q1767.6 182.855 1770.75 179.244 Q1773.92 175.633 1779.5 175.633 Z" fill="#000000" fill-rule="evenodd" fill-opacity="1" /><path clip-path="url(#clip560)" d="M1820.01 186.536 L1820.01 202.184 L1815.75 202.184 L1815.75 186.675 Q1815.75 182.994 1814.32 181.165 Q1812.88 179.337 1810.01 179.337 Q1806.56 179.337 1804.57 181.536 Q1802.58 183.735 1802.58 187.531 L1802.58 202.184 L1798.3 202.184 L1798.3 176.258 L1802.58 176.258 L1802.58 180.286 Q1804.11 177.948 1806.17 176.79 Q1808.25 175.633 1810.96 175.633 Q1815.43 175.633 1817.72 178.411 Q1820.01 181.165 1820.01 186.536 Z" fill="#000000" fill-rule="evenodd" fill-opacity="1" /><path clip-path="url(#clip560)" d="M1845.03 177.022 L1845.03 181.05 Q1843.23 180.124 1841.28 179.661 Q1839.34 179.198 1837.26 179.198 Q1834.08 179.198 1832.49 180.17 Q1830.91 181.142 1830.91 183.087 Q1830.91 184.568 1832.05 185.425 Q1833.18 186.258 1836.61 187.022 L1838.07 187.346 Q1842.6 188.318 1844.5 190.1 Q1846.42 191.86 1846.42 195.031 Q1846.42 198.642 1843.55 200.749 Q1840.7 202.855 1835.7 202.855 Q1833.62 202.855 1831.35 202.438 Q1829.11 202.045 1826.61 201.235 L1826.61 196.837 Q1828.97 198.063 1831.26 198.688 Q1833.55 199.29 1835.8 199.29 Q1838.81 199.29 1840.43 198.272 Q1842.05 197.23 1842.05 195.355 Q1842.05 193.619 1840.87 192.693 Q1839.71 191.767 1835.75 190.911 L1834.27 190.563 Q1830.31 189.73 1828.55 188.017 Q1826.79 186.281 1826.79 183.272 Q1826.79 179.614 1829.38 177.624 Q1831.98 175.633 1836.75 175.633 Q1839.11 175.633 1841.19 175.98 Q1843.27 176.327 1845.03 177.022 Z" fill="#000000" fill-rule="evenodd" fill-opacity="1" /><polyline clip-path="url(#clip560)" style="stroke:#e26f46; stroke-linecap:round; stroke-linejoin:round; stroke-width:12; stroke-opacity:1; fill:none" points="
  1354.88,236.744 1471.46,236.744 
  "/>
<path clip-path="url(#clip560)" d="M1491.56 250.089 L1499.2 250.089 L1499.2 223.723 L1490.89 225.39 L1490.89 221.13 L1499.16 219.464 L1503.83 219.464 L1503.83 250.089 L1511.47 250.089 L1511.47 254.024 L1491.56 254.024 L1491.56 250.089 Z" fill="#000000" fill-rule="evenodd" fill-opacity="1" /><path clip-path="url(#clip560)" d="M1530.91 222.542 Q1527.3 222.542 1525.47 226.107 Q1523.67 229.649 1523.67 236.778 Q1523.67 243.885 1525.47 247.45 Q1527.3 250.991 1530.91 250.991 Q1534.55 250.991 1536.35 247.45 Q1538.18 243.885 1538.18 236.778 Q1538.18 229.649 1536.35 226.107 Q1534.55 222.542 1530.91 222.542 M1530.91 218.839 Q1536.72 218.839 1539.78 223.445 Q1542.86 228.028 1542.86 236.778 Q1542.86 245.505 1539.78 250.112 Q1536.72 254.695 1530.91 254.695 Q1525.1 254.695 1522.03 250.112 Q1518.97 245.505 1518.97 236.778 Q1518.97 228.028 1522.03 223.445 Q1525.1 218.839 1530.91 218.839 Z" fill="#000000" fill-rule="evenodd" fill-opacity="1" /><path clip-path="url(#clip560)" d="M1561.08 222.542 Q1557.47 222.542 1555.64 226.107 Q1553.83 229.649 1553.83 236.778 Q1553.83 243.885 1555.64 247.45 Q1557.47 250.991 1561.08 250.991 Q1564.71 250.991 1566.52 247.45 Q1568.34 243.885 1568.34 236.778 Q1568.34 229.649 1566.52 226.107 Q1564.71 222.542 1561.08 222.542 M1561.08 218.839 Q1566.89 218.839 1569.94 223.445 Q1573.02 228.028 1573.02 236.778 Q1573.02 245.505 1569.94 250.112 Q1566.89 254.695 1561.08 254.695 Q1555.27 254.695 1552.19 250.112 Q1549.13 245.505 1549.13 236.778 Q1549.13 228.028 1552.19 223.445 Q1555.27 218.839 1561.08 218.839 Z" fill="#000000" fill-rule="evenodd" fill-opacity="1" /><path clip-path="url(#clip560)" d="M1591.24 222.542 Q1587.63 222.542 1585.8 226.107 Q1583.99 229.649 1583.99 236.778 Q1583.99 243.885 1585.8 247.45 Q1587.63 250.991 1591.24 250.991 Q1594.87 250.991 1596.68 247.45 Q1598.51 243.885 1598.51 236.778 Q1598.51 229.649 1596.68 226.107 Q1594.87 222.542 1591.24 222.542 M1591.24 218.839 Q1597.05 218.839 1600.1 223.445 Q1603.18 228.028 1603.18 236.778 Q1603.18 245.505 1600.1 250.112 Q1597.05 254.695 1591.24 254.695 Q1585.43 254.695 1582.35 250.112 Q1579.29 245.505 1579.29 236.778 Q1579.29 228.028 1582.35 223.445 Q1585.43 218.839 1591.24 218.839 Z" fill="#000000" fill-rule="evenodd" fill-opacity="1" /><path clip-path="url(#clip560)" d="M1621.4 222.542 Q1617.79 222.542 1615.96 226.107 Q1614.15 229.649 1614.15 236.778 Q1614.15 243.885 1615.96 247.45 Q1617.79 250.991 1621.4 250.991 Q1625.03 250.991 1626.84 247.45 Q1628.67 243.885 1628.67 236.778 Q1628.67 229.649 1626.84 226.107 Q1625.03 222.542 1621.4 222.542 M1621.4 218.839 Q1627.21 218.839 1630.27 223.445 Q1633.34 228.028 1633.34 236.778 Q1633.34 245.505 1630.27 250.112 Q1627.21 254.695 1621.4 254.695 Q1615.59 254.695 1612.51 250.112 Q1609.46 245.505 1609.46 236.778 Q1609.46 228.028 1612.51 223.445 Q1615.59 218.839 1621.4 218.839 Z" fill="#000000" fill-rule="evenodd" fill-opacity="1" /><path clip-path="url(#clip560)" d="M1656.21 219.464 L1660.89 219.464 L1660.89 254.024 L1656.21 254.024 L1656.21 219.464 Z" fill="#000000" fill-rule="evenodd" fill-opacity="1" /><path clip-path="url(#clip560)" d="M1674.22 220.737 L1674.22 228.098 L1683 228.098 L1683 231.408 L1674.22 231.408 L1674.22 245.482 Q1674.22 248.653 1675.08 249.556 Q1675.96 250.459 1678.62 250.459 L1683 250.459 L1683 254.024 L1678.62 254.024 Q1673.69 254.024 1671.82 252.195 Q1669.94 250.343 1669.94 245.482 L1669.94 231.408 L1666.82 231.408 L1666.82 228.098 L1669.94 228.098 L1669.94 220.737 L1674.22 220.737 Z" fill="#000000" fill-rule="evenodd" fill-opacity="1" /><path clip-path="url(#clip560)" d="M1710.77 239.996 L1710.77 242.079 L1691.19 242.079 Q1691.47 246.477 1693.83 248.792 Q1696.21 251.084 1700.45 251.084 Q1702.9 251.084 1705.2 250.482 Q1707.51 249.88 1709.78 248.677 L1709.78 252.704 Q1707.49 253.676 1705.08 254.186 Q1702.67 254.695 1700.2 254.695 Q1693.99 254.695 1690.36 251.084 Q1686.75 247.473 1686.75 241.315 Q1686.75 234.95 1690.17 231.223 Q1693.62 227.473 1699.46 227.473 Q1704.69 227.473 1707.72 230.853 Q1710.77 234.209 1710.77 239.996 M1706.52 238.746 Q1706.47 235.251 1704.55 233.167 Q1702.65 231.084 1699.5 231.084 Q1695.94 231.084 1693.78 233.098 Q1691.65 235.112 1691.33 238.769 L1706.52 238.746 Z" fill="#000000" fill-rule="evenodd" fill-opacity="1" /><path clip-path="url(#clip560)" d="M1732.79 232.079 Q1732.07 231.663 1731.21 231.478 Q1730.38 231.269 1729.36 231.269 Q1725.75 231.269 1723.81 233.63 Q1721.89 235.968 1721.89 240.366 L1721.89 254.024 L1717.6 254.024 L1717.6 228.098 L1721.89 228.098 L1721.89 232.126 Q1723.23 229.765 1725.38 228.63 Q1727.53 227.473 1730.61 227.473 Q1731.05 227.473 1731.58 227.542 Q1732.12 227.589 1732.77 227.704 L1732.79 232.079 Z" fill="#000000" fill-rule="evenodd" fill-opacity="1" /><path clip-path="url(#clip560)" d="M1749.04 240.991 Q1743.88 240.991 1741.89 242.172 Q1739.89 243.352 1739.89 246.2 Q1739.89 248.468 1741.38 249.811 Q1742.88 251.13 1745.45 251.13 Q1748.99 251.13 1751.12 248.63 Q1753.27 246.107 1753.27 241.94 L1753.27 240.991 L1749.04 240.991 M1757.53 239.232 L1757.53 254.024 L1753.27 254.024 L1753.27 250.089 Q1751.82 252.45 1749.64 253.584 Q1747.46 254.695 1744.32 254.695 Q1740.33 254.695 1737.97 252.473 Q1735.64 250.227 1735.64 246.477 Q1735.64 242.102 1738.55 239.88 Q1741.49 237.658 1747.3 237.658 L1753.27 237.658 L1753.27 237.241 Q1753.27 234.302 1751.33 232.704 Q1749.41 231.084 1745.91 231.084 Q1743.69 231.084 1741.58 231.616 Q1739.48 232.149 1737.53 233.214 L1737.53 229.278 Q1739.87 228.376 1742.07 227.936 Q1744.27 227.473 1746.35 227.473 Q1751.98 227.473 1754.76 230.39 Q1757.53 233.306 1757.53 239.232 Z" fill="#000000" fill-rule="evenodd" fill-opacity="1" /><path clip-path="url(#clip560)" d="M1770.52 220.737 L1770.52 228.098 L1779.29 228.098 L1779.29 231.408 L1770.52 231.408 L1770.52 245.482 Q1770.52 248.653 1771.38 249.556 Q1772.26 250.459 1774.92 250.459 L1779.29 250.459 L1779.29 254.024 L1774.92 254.024 Q1769.99 254.024 1768.11 252.195 Q1766.24 250.343 1766.24 245.482 L1766.24 231.408 L1763.11 231.408 L1763.11 228.098 L1766.24 228.098 L1766.24 220.737 L1770.52 220.737 Z" fill="#000000" fill-rule="evenodd" fill-opacity="1" /><path clip-path="url(#clip560)" d="M1784.89 228.098 L1789.15 228.098 L1789.15 254.024 L1784.89 254.024 L1784.89 228.098 M1784.89 218.005 L1789.15 218.005 L1789.15 223.399 L1784.89 223.399 L1784.89 218.005 Z" fill="#000000" fill-rule="evenodd" fill-opacity="1" /><path clip-path="url(#clip560)" d="M1808.11 231.084 Q1804.69 231.084 1802.7 233.769 Q1800.7 236.431 1800.7 241.084 Q1800.7 245.737 1802.67 248.422 Q1804.66 251.084 1808.11 251.084 Q1811.51 251.084 1813.51 248.399 Q1815.5 245.714 1815.5 241.084 Q1815.5 236.478 1813.51 233.792 Q1811.51 231.084 1808.11 231.084 M1808.11 227.473 Q1813.67 227.473 1816.84 231.084 Q1820.01 234.695 1820.01 241.084 Q1820.01 247.45 1816.84 251.084 Q1813.67 254.695 1808.11 254.695 Q1802.53 254.695 1799.36 251.084 Q1796.21 247.45 1796.21 241.084 Q1796.21 234.695 1799.36 231.084 Q1802.53 227.473 1808.11 227.473 Z" fill="#000000" fill-rule="evenodd" fill-opacity="1" /><path clip-path="url(#clip560)" d="M1848.62 238.376 L1848.62 254.024 L1844.36 254.024 L1844.36 238.515 Q1844.36 234.834 1842.93 233.005 Q1841.49 231.177 1838.62 231.177 Q1835.17 231.177 1833.18 233.376 Q1831.19 235.575 1831.19 239.371 L1831.19 254.024 L1826.91 254.024 L1826.91 228.098 L1831.19 228.098 L1831.19 232.126 Q1832.72 229.788 1834.78 228.63 Q1836.86 227.473 1839.57 227.473 Q1844.04 227.473 1846.33 230.251 Q1848.62 233.005 1848.62 238.376 Z" fill="#000000" fill-rule="evenodd" fill-opacity="1" /><path clip-path="url(#clip560)" d="M1873.64 228.862 L1873.64 232.89 Q1871.84 231.964 1869.89 231.501 Q1867.95 231.038 1865.87 231.038 Q1862.69 231.038 1861.1 232.01 Q1859.52 232.982 1859.52 234.927 Q1859.52 236.408 1860.66 237.265 Q1861.79 238.098 1865.22 238.862 L1866.68 239.186 Q1871.21 240.158 1873.11 241.94 Q1875.03 243.7 1875.03 246.871 Q1875.03 250.482 1872.16 252.589 Q1869.32 254.695 1864.32 254.695 Q1862.23 254.695 1859.96 254.278 Q1857.72 253.885 1855.22 253.075 L1855.22 248.677 Q1857.58 249.903 1859.87 250.528 Q1862.16 251.13 1864.41 251.13 Q1867.42 251.13 1869.04 250.112 Q1870.66 249.07 1870.66 247.195 Q1870.66 245.459 1869.48 244.533 Q1868.32 243.607 1864.36 242.751 L1862.88 242.403 Q1858.92 241.57 1857.16 239.857 Q1855.4 238.121 1855.4 235.112 Q1855.4 231.454 1858 229.464 Q1860.59 227.473 1865.36 227.473 Q1867.72 227.473 1869.8 227.82 Q1871.88 228.167 1873.64 228.862 Z" fill="#000000" fill-rule="evenodd" fill-opacity="1" /></svg>
