<?xml version="1.0" encoding="utf-8"?>
<svg xmlns="http://www.w3.org/2000/svg" xmlns:xlink="http://www.w3.org/1999/xlink" width="500" height="250" viewBox="0 0 2000 1000">
<defs>
  <clipPath id="clip960">
    <rect x="0" y="0" width="2000" height="1000"/>
  </clipPath>
</defs>
<path clip-path="url(#clip960)" d="
M0 1000 L2000 1000 L2000 0 L0 0  Z
  " fill="#ffffff" fill-rule="evenodd" fill-opacity="1"/>
<defs>
  <clipPath id="clip961">
    <rect x="400" y="0" width="1401" height="1000"/>
  </clipPath>
</defs>
<path clip-path="url(#clip960)" d="
M203.986 849.7 L1952.76 849.7 L1952.76 108.352 L203.986 108.352  Z
  " fill="#ffffff" fill-rule="evenodd" fill-opacity="1"/>
<defs>
  <clipPath id="clip962">
    <rect x="203" y="108" width="1750" height="742"/>
  </clipPath>
</defs>
<polyline clip-path="url(#clip962)" style="stroke:#000000; stroke-linecap:round; stroke-linejoin:round; stroke-width:2; stroke-opacity:0.1; fill:none" points="
  403.733,849.7 403.733,108.352 
  "/>
<polyline clip-path="url(#clip962)" style="stroke:#000000; stroke-linecap:round; stroke-linejoin:round; stroke-width:2; stroke-opacity:0.1; fill:none" points="
  667.367,849.7 667.367,108.352 
  "/>
<polyline clip-path="url(#clip962)" style="stroke:#000000; stroke-linecap:round; stroke-linejoin:round; stroke-width:2; stroke-opacity:0.1; fill:none" points="
  931.001,849.7 931.001,108.352 
  "/>
<polyline clip-path="url(#clip962)" style="stroke:#000000; stroke-linecap:round; stroke-linejoin:round; stroke-width:2; stroke-opacity:0.1; fill:none" points="
  1194.63,849.7 1194.63,108.352 
  "/>
<polyline clip-path="url(#clip962)" style="stroke:#000000; stroke-linecap:round; stroke-linejoin:round; stroke-width:2; stroke-opacity:0.1; fill:none" points="
  1458.27,849.7 1458.27,108.352 
  "/>
<polyline clip-path="url(#clip962)" style="stroke:#000000; stroke-linecap:round; stroke-linejoin:round; stroke-width:2; stroke-opacity:0.1; fill:none" points="
  1721.9,849.7 1721.9,108.352 
  "/>
<polyline clip-path="url(#clip960)" style="stroke:#000000; stroke-linecap:round; stroke-linejoin:round; stroke-width:4; stroke-opacity:1; fill:none" points="
  203.986,849.7 1952.76,849.7 
  "/>
<polyline clip-path="url(#clip960)" style="stroke:#000000; stroke-linecap:round; stroke-linejoin:round; stroke-width:4; stroke-opacity:1; fill:none" points="
  403.733,849.7 403.733,830.802 
  "/>
<polyline clip-path="url(#clip960)" style="stroke:#000000; stroke-linecap:round; stroke-linejoin:round; stroke-width:4; stroke-opacity:1; fill:none" points="
  667.367,849.7 667.367,830.802 
  "/>
<polyline clip-path="url(#clip960)" style="stroke:#000000; stroke-linecap:round; stroke-linejoin:round; stroke-width:4; stroke-opacity:1; fill:none" points="
  931.001,849.7 931.001,830.802 
  "/>
<polyline clip-path="url(#clip960)" style="stroke:#000000; stroke-linecap:round; stroke-linejoin:round; stroke-width:4; stroke-opacity:1; fill:none" points="
  1194.63,849.7 1194.63,830.802 
  "/>
<polyline clip-path="url(#clip960)" style="stroke:#000000; stroke-linecap:round; stroke-linejoin:round; stroke-width:4; stroke-opacity:1; fill:none" points="
  1458.27,849.7 1458.27,830.802 
  "/>
<polyline clip-path="url(#clip960)" style="stroke:#000000; stroke-linecap:round; stroke-linejoin:round; stroke-width:4; stroke-opacity:1; fill:none" points="
  1721.9,849.7 1721.9,830.802 
  "/>
<path clip-path="url(#clip960)" d="M373.675 892.071 L403.351 892.071 L403.351 896.006 L373.675 896.006 L373.675 892.071 Z" fill="#000000" fill-rule="evenodd" fill-opacity="1" /><path clip-path="url(#clip960)" d="M417.471 904.965 L433.791 904.965 L433.791 908.9 L411.846 908.9 L411.846 904.965 Q414.508 902.21 419.092 897.58 Q423.698 892.928 424.879 891.585 Q427.124 889.062 428.004 887.326 Q428.907 885.567 428.907 883.877 Q428.907 881.122 426.962 879.386 Q425.041 877.65 421.939 877.65 Q419.74 877.65 417.286 878.414 Q414.856 879.178 412.078 880.729 L412.078 876.007 Q414.902 874.872 417.356 874.294 Q419.809 873.715 421.846 873.715 Q427.217 873.715 430.411 876.4 Q433.606 879.085 433.606 883.576 Q433.606 885.706 432.795 887.627 Q432.008 889.525 429.902 892.118 Q429.323 892.789 426.221 896.006 Q423.12 899.201 417.471 904.965 Z" fill="#000000" fill-rule="evenodd" fill-opacity="1" /><path clip-path="url(#clip960)" d="M637.124 892.071 L666.8 892.071 L666.8 896.006 L637.124 896.006 L637.124 892.071 Z" fill="#000000" fill-rule="evenodd" fill-opacity="1" /><path clip-path="url(#clip960)" d="M677.703 904.965 L685.341 904.965 L685.341 878.599 L677.031 880.266 L677.031 876.007 L685.295 874.34 L689.971 874.34 L689.971 904.965 L697.61 904.965 L697.61 908.9 L677.703 908.9 L677.703 904.965 Z" fill="#000000" fill-rule="evenodd" fill-opacity="1" /><path clip-path="url(#clip960)" d="M931.001 877.419 Q927.39 877.419 925.561 880.983 Q923.756 884.525 923.756 891.655 Q923.756 898.761 925.561 902.326 Q927.39 905.867 931.001 905.867 Q934.635 905.867 936.441 902.326 Q938.269 898.761 938.269 891.655 Q938.269 884.525 936.441 880.983 Q934.635 877.419 931.001 877.419 M931.001 873.715 Q936.811 873.715 939.867 878.321 Q942.945 882.905 942.945 891.655 Q942.945 900.381 939.867 904.988 Q936.811 909.571 931.001 909.571 Q925.191 909.571 922.112 904.988 Q919.057 900.381 919.057 891.655 Q919.057 882.905 922.112 878.321 Q925.191 873.715 931.001 873.715 Z" fill="#000000" fill-rule="evenodd" fill-opacity="1" /><path clip-path="url(#clip960)" d="M1185.02 904.965 L1192.66 904.965 L1192.66 878.599 L1184.35 880.266 L1184.35 876.007 L1192.61 874.34 L1197.29 874.34 L1197.29 904.965 L1204.92 904.965 L1204.92 908.9 L1185.02 908.9 L1185.02 904.965 Z" fill="#000000" fill-rule="evenodd" fill-opacity="1" /><path clip-path="url(#clip960)" d="M1452.92 904.965 L1469.24 904.965 L1469.24 908.9 L1447.3 908.9 L1447.3 904.965 Q1449.96 902.21 1454.54 897.58 Q1459.15 892.928 1460.33 891.585 Q1462.57 889.062 1463.45 887.326 Q1464.36 885.567 1464.36 883.877 Q1464.36 881.122 1462.41 879.386 Q1460.49 877.65 1457.39 877.65 Q1455.19 877.65 1452.74 878.414 Q1450.31 879.178 1447.53 880.729 L1447.53 876.007 Q1450.35 874.872 1452.81 874.294 Q1455.26 873.715 1457.3 873.715 Q1462.67 873.715 1465.86 876.4 Q1469.06 879.085 1469.06 883.576 Q1469.06 885.706 1468.25 887.627 Q1467.46 889.525 1465.35 892.118 Q1464.77 892.789 1461.67 896.006 Q1458.57 899.201 1452.92 904.965 Z" fill="#000000" fill-rule="evenodd" fill-opacity="1" /><path clip-path="url(#clip960)" d="M1726.15 890.266 Q1729.51 890.983 1731.38 893.252 Q1733.28 895.52 1733.28 898.854 Q1733.28 903.969 1729.76 906.77 Q1726.24 909.571 1719.76 909.571 Q1717.59 909.571 1715.27 909.131 Q1712.98 908.715 1710.53 907.858 L1710.53 903.344 Q1712.47 904.479 1714.78 905.057 Q1717.1 905.636 1719.62 905.636 Q1724.02 905.636 1726.31 903.9 Q1728.63 902.164 1728.63 898.854 Q1728.63 895.798 1726.47 894.085 Q1724.34 892.349 1720.53 892.349 L1716.5 892.349 L1716.5 888.506 L1720.71 888.506 Q1724.16 888.506 1725.99 887.141 Q1727.82 885.752 1727.82 883.159 Q1727.82 880.497 1725.92 879.085 Q1724.04 877.65 1720.53 877.65 Q1718.6 877.65 1716.41 878.067 Q1714.21 878.483 1711.57 879.363 L1711.57 875.196 Q1714.23 874.456 1716.54 874.085 Q1718.88 873.715 1720.94 873.715 Q1726.27 873.715 1729.37 876.145 Q1732.47 878.553 1732.47 882.673 Q1732.47 885.543 1730.83 887.534 Q1729.18 889.502 1726.15 890.266 Z" fill="#000000" fill-rule="evenodd" fill-opacity="1" /><path clip-path="url(#clip960)" d="M891.251 942.603 L891.251 948.874 Q887.591 947.123 884.344 946.264 Q881.098 945.404 878.074 945.404 Q872.822 945.404 869.958 947.441 Q867.125 949.478 867.125 953.234 Q867.125 956.385 869.003 958.008 Q870.913 959.6 876.196 960.587 L880.079 961.382 Q887.273 962.751 890.678 966.22 Q894.116 969.658 894.116 975.45 Q894.116 982.357 889.469 985.922 Q884.854 989.487 875.91 989.487 Q872.536 989.487 868.717 988.723 Q864.929 987.959 860.855 986.463 L860.855 979.843 Q864.77 982.039 868.526 983.153 Q872.281 984.267 875.91 984.267 Q881.416 984.267 884.408 982.103 Q887.4 979.938 887.4 975.928 Q887.4 972.427 885.236 970.453 Q883.103 968.48 878.201 967.493 L874.287 966.729 Q867.093 965.297 863.879 962.242 Q860.664 959.186 860.664 953.743 Q860.664 947.441 865.088 943.813 Q869.544 940.184 877.342 940.184 Q880.684 940.184 884.153 940.789 Q887.623 941.394 891.251 942.603 Z" fill="#000000" fill-rule="evenodd" fill-opacity="1" /><path clip-path="url(#clip960)" d="M920.088 970.644 Q912.99 970.644 910.253 972.268 Q907.516 973.891 907.516 977.806 Q907.516 980.925 909.553 982.771 Q911.621 984.585 915.154 984.585 Q920.024 984.585 922.952 981.148 Q925.912 977.678 925.912 971.949 L925.912 970.644 L920.088 970.644 M931.769 968.225 L931.769 988.564 L925.912 988.564 L925.912 983.153 Q923.907 986.4 920.915 987.959 Q917.923 989.487 913.595 989.487 Q908.12 989.487 904.874 986.431 Q901.659 983.344 901.659 978.188 Q901.659 972.172 905.669 969.117 Q909.712 966.061 917.701 966.061 L925.912 966.061 L925.912 965.488 Q925.912 961.446 923.239 959.25 Q920.597 957.022 915.791 957.022 Q912.735 957.022 909.839 957.754 Q906.943 958.486 904.269 959.95 L904.269 954.539 Q907.484 953.298 910.507 952.693 Q913.531 952.057 916.396 952.057 Q924.13 952.057 927.949 956.067 Q931.769 960.077 931.769 968.225 Z" fill="#000000" fill-rule="evenodd" fill-opacity="1" /><path clip-path="url(#clip960)" d="M971.586 959.759 Q973.783 955.812 976.838 953.934 Q979.894 952.057 984.031 952.057 Q989.601 952.057 992.625 955.971 Q995.649 959.855 995.649 967.048 L995.649 988.564 L989.76 988.564 L989.76 967.239 Q989.76 962.114 987.946 959.632 Q986.132 957.149 982.408 957.149 Q977.857 957.149 975.215 960.173 Q972.573 963.197 972.573 968.416 L972.573 988.564 L966.685 988.564 L966.685 967.239 Q966.685 962.083 964.871 959.632 Q963.056 957.149 959.269 957.149 Q954.781 957.149 952.139 960.205 Q949.497 963.228 949.497 968.416 L949.497 988.564 L943.609 988.564 L943.609 952.916 L949.497 952.916 L949.497 958.454 Q951.503 955.176 954.303 953.616 Q957.104 952.057 960.956 952.057 Q964.839 952.057 967.544 954.03 Q970.281 956.003 971.586 959.759 Z" fill="#000000" fill-rule="evenodd" fill-opacity="1" /><path clip-path="url(#clip960)" d="M1013 983.217 L1013 1002.12 L1007.11 1002.12 L1007.11 952.916 L1013 952.916 L1013 958.327 Q1014.84 955.144 1017.64 953.616 Q1020.47 952.057 1024.39 952.057 Q1030.88 952.057 1034.93 957.213 Q1039 962.369 1039 970.772 Q1039 979.174 1034.93 984.331 Q1030.88 989.487 1024.39 989.487 Q1020.47 989.487 1017.64 987.959 Q1014.84 986.4 1013 983.217 M1032.92 970.772 Q1032.92 964.311 1030.25 960.65 Q1027.6 956.958 1022.96 956.958 Q1018.31 956.958 1015.64 960.65 Q1013 964.311 1013 970.772 Q1013 977.233 1015.64 980.925 Q1018.31 984.585 1022.96 984.585 Q1027.6 984.585 1030.25 980.925 Q1032.92 977.233 1032.92 970.772 Z" fill="#000000" fill-rule="evenodd" fill-opacity="1" /><path clip-path="url(#clip960)" d="M1048.71 939.039 L1054.56 939.039 L1054.56 988.564 L1048.71 988.564 L1048.71 939.039 Z" fill="#000000" fill-rule="evenodd" fill-opacity="1" /><path clip-path="url(#clip960)" d="M1097.31 969.276 L1097.31 972.14 L1070.38 972.14 Q1070.76 978.188 1074.01 981.371 Q1077.29 984.522 1083.11 984.522 Q1086.49 984.522 1089.64 983.694 Q1092.82 982.867 1095.94 981.211 L1095.94 986.75 Q1092.79 988.086 1089.48 988.787 Q1086.17 989.487 1082.76 989.487 Q1074.23 989.487 1069.24 984.522 Q1064.27 979.556 1064.27 971.09 Q1064.27 962.337 1068.98 957.213 Q1073.72 952.057 1081.74 952.057 Q1088.94 952.057 1093.11 956.703 Q1097.31 961.319 1097.31 969.276 M1091.45 967.557 Q1091.39 962.751 1088.75 959.886 Q1086.14 957.022 1081.81 957.022 Q1076.91 957.022 1073.95 959.791 Q1071.02 962.56 1070.57 967.589 L1091.45 967.557 Z" fill="#000000" fill-rule="evenodd" fill-opacity="1" /><path clip-path="url(#clip960)" d="M1123.44 952.916 L1129.65 952.916 L1140.79 982.835 L1151.93 952.916 L1158.13 952.916 L1144.77 988.564 L1136.81 988.564 L1123.44 952.916 Z" fill="#000000" fill-rule="evenodd" fill-opacity="1" /><path clip-path="url(#clip960)" d="M1182.42 970.644 Q1175.32 970.644 1172.58 972.268 Q1169.85 973.891 1169.85 977.806 Q1169.85 980.925 1171.88 982.771 Q1173.95 984.585 1177.49 984.585 Q1182.35 984.585 1185.28 981.148 Q1188.24 977.678 1188.24 971.949 L1188.24 970.644 L1182.42 970.644 M1194.1 968.225 L1194.1 988.564 L1188.24 988.564 L1188.24 983.153 Q1186.24 986.4 1183.25 987.959 Q1180.25 989.487 1175.93 989.487 Q1170.45 989.487 1167.2 986.431 Q1163.99 983.344 1163.99 978.188 Q1163.99 972.172 1168 969.117 Q1172.04 966.061 1180.03 966.061 L1188.24 966.061 L1188.24 965.488 Q1188.24 961.446 1185.57 959.25 Q1182.93 957.022 1178.12 957.022 Q1175.07 957.022 1172.17 957.754 Q1169.27 958.486 1166.6 959.95 L1166.6 954.539 Q1169.81 953.298 1172.84 952.693 Q1175.86 952.057 1178.73 952.057 Q1186.46 952.057 1190.28 956.067 Q1194.1 960.077 1194.1 968.225 Z" fill="#000000" fill-rule="evenodd" fill-opacity="1" /><path clip-path="url(#clip960)" d="M1206.16 939.039 L1212.02 939.039 L1212.02 988.564 L1206.16 988.564 L1206.16 939.039 Z" fill="#000000" fill-rule="evenodd" fill-opacity="1" /><path clip-path="url(#clip960)" d="M1223.67 974.496 L1223.67 952.916 L1229.52 952.916 L1229.52 974.273 Q1229.52 979.334 1231.5 981.88 Q1233.47 984.394 1237.42 984.394 Q1242.16 984.394 1244.9 981.371 Q1247.67 978.347 1247.67 973.127 L1247.67 952.916 L1253.52 952.916 L1253.52 988.564 L1247.67 988.564 L1247.67 983.089 Q1245.53 986.336 1242.7 987.927 Q1239.9 989.487 1236.18 989.487 Q1230.03 989.487 1226.85 985.667 Q1223.67 981.848 1223.67 974.496 M1238.4 952.057 L1238.4 952.057 Z" fill="#000000" fill-rule="evenodd" fill-opacity="1" /><path clip-path="url(#clip960)" d="M1296.08 969.276 L1296.08 972.14 L1269.15 972.14 Q1269.53 978.188 1272.78 981.371 Q1276.06 984.522 1281.88 984.522 Q1285.26 984.522 1288.41 983.694 Q1291.59 982.867 1294.71 981.211 L1294.71 986.75 Q1291.56 988.086 1288.25 988.787 Q1284.94 989.487 1281.53 989.487 Q1273 989.487 1268.01 984.522 Q1263.04 979.556 1263.04 971.09 Q1263.04 962.337 1267.75 957.213 Q1272.49 952.057 1280.51 952.057 Q1287.71 952.057 1291.88 956.703 Q1296.08 961.319 1296.08 969.276 M1290.22 967.557 Q1290.16 962.751 1287.52 959.886 Q1284.91 957.022 1280.58 957.022 Q1275.68 957.022 1272.72 959.791 Q1269.79 962.56 1269.34 967.589 L1290.22 967.557 Z" fill="#000000" fill-rule="evenodd" fill-opacity="1" /><polyline clip-path="url(#clip962)" style="stroke:#000000; stroke-linecap:round; stroke-linejoin:round; stroke-width:2; stroke-opacity:0.1; fill:none" points="
  203.986,828.897 1952.76,828.897 
  "/>
<polyline clip-path="url(#clip962)" style="stroke:#000000; stroke-linecap:round; stroke-linejoin:round; stroke-width:2; stroke-opacity:0.1; fill:none" points="
  203.986,705.078 1952.76,705.078 
  "/>
<polyline clip-path="url(#clip962)" style="stroke:#000000; stroke-linecap:round; stroke-linejoin:round; stroke-width:2; stroke-opacity:0.1; fill:none" points="
  203.986,581.26 1952.76,581.26 
  "/>
<polyline clip-path="url(#clip962)" style="stroke:#000000; stroke-linecap:round; stroke-linejoin:round; stroke-width:2; stroke-opacity:0.1; fill:none" points="
  203.986,457.441 1952.76,457.441 
  "/>
<polyline clip-path="url(#clip962)" style="stroke:#000000; stroke-linecap:round; stroke-linejoin:round; stroke-width:2; stroke-opacity:0.1; fill:none" points="
  203.986,333.623 1952.76,333.623 
  "/>
<polyline clip-path="url(#clip962)" style="stroke:#000000; stroke-linecap:round; stroke-linejoin:round; stroke-width:2; stroke-opacity:0.1; fill:none" points="
  203.986,209.804 1952.76,209.804 
  "/>
<polyline clip-path="url(#clip960)" style="stroke:#000000; stroke-linecap:round; stroke-linejoin:round; stroke-width:4; stroke-opacity:1; fill:none" points="
  203.986,849.7 203.986,108.352 
  "/>
<polyline clip-path="url(#clip960)" style="stroke:#000000; stroke-linecap:round; stroke-linejoin:round; stroke-width:4; stroke-opacity:1; fill:none" points="
  203.986,828.897 222.884,828.897 
  "/>
<polyline clip-path="url(#clip960)" style="stroke:#000000; stroke-linecap:round; stroke-linejoin:round; stroke-width:4; stroke-opacity:1; fill:none" points="
  203.986,705.078 222.884,705.078 
  "/>
<polyline clip-path="url(#clip960)" style="stroke:#000000; stroke-linecap:round; stroke-linejoin:round; stroke-width:4; stroke-opacity:1; fill:none" points="
  203.986,581.26 222.884,581.26 
  "/>
<polyline clip-path="url(#clip960)" style="stroke:#000000; stroke-linecap:round; stroke-linejoin:round; stroke-width:4; stroke-opacity:1; fill:none" points="
  203.986,457.441 222.884,457.441 
  "/>
<polyline clip-path="url(#clip960)" style="stroke:#000000; stroke-linecap:round; stroke-linejoin:round; stroke-width:4; stroke-opacity:1; fill:none" points="
  203.986,333.623 222.884,333.623 
  "/>
<polyline clip-path="url(#clip960)" style="stroke:#000000; stroke-linecap:round; stroke-linejoin:round; stroke-width:4; stroke-opacity:1; fill:none" points="
  203.986,209.804 222.884,209.804 
  "/>
<path clip-path="url(#clip960)" d="M116.811 814.695 Q113.2 814.695 111.371 818.26 Q109.565 821.802 109.565 828.931 Q109.565 836.038 111.371 839.603 Q113.2 843.144 116.811 843.144 Q120.445 843.144 122.25 839.603 Q124.079 836.038 124.079 828.931 Q124.079 821.802 122.25 818.26 Q120.445 814.695 116.811 814.695 M116.811 810.992 Q122.621 810.992 125.676 815.598 Q128.755 820.182 128.755 828.931 Q128.755 837.658 125.676 842.265 Q122.621 846.848 116.811 846.848 Q111 846.848 107.922 842.265 Q104.866 837.658 104.866 828.931 Q104.866 820.182 107.922 815.598 Q111 810.992 116.811 810.992 Z" fill="#000000" fill-rule="evenodd" fill-opacity="1" /><path clip-path="url(#clip960)" d="M136.973 840.297 L141.857 840.297 L141.857 846.177 L136.973 846.177 L136.973 840.297 Z" fill="#000000" fill-rule="evenodd" fill-opacity="1" /><path clip-path="url(#clip960)" d="M162.042 814.695 Q158.431 814.695 156.602 818.26 Q154.797 821.802 154.797 828.931 Q154.797 836.038 156.602 839.603 Q158.431 843.144 162.042 843.144 Q165.676 843.144 167.482 839.603 Q169.31 836.038 169.31 828.931 Q169.31 821.802 167.482 818.26 Q165.676 814.695 162.042 814.695 M162.042 810.992 Q167.852 810.992 170.908 815.598 Q173.986 820.182 173.986 828.931 Q173.986 837.658 170.908 842.265 Q167.852 846.848 162.042 846.848 Q156.232 846.848 153.153 842.265 Q150.098 837.658 150.098 828.931 Q150.098 820.182 153.153 815.598 Q156.232 810.992 162.042 810.992 Z" fill="#000000" fill-rule="evenodd" fill-opacity="1" /><path clip-path="url(#clip960)" d="M118.037 690.877 Q114.426 690.877 112.598 694.442 Q110.792 697.983 110.792 705.113 Q110.792 712.219 112.598 715.784 Q114.426 719.326 118.037 719.326 Q121.672 719.326 123.477 715.784 Q125.306 712.219 125.306 705.113 Q125.306 697.983 123.477 694.442 Q121.672 690.877 118.037 690.877 M118.037 687.173 Q123.848 687.173 126.903 691.78 Q129.982 696.363 129.982 705.113 Q129.982 713.84 126.903 718.446 Q123.848 723.03 118.037 723.03 Q112.227 723.03 109.149 718.446 Q106.093 713.84 106.093 705.113 Q106.093 696.363 109.149 691.78 Q112.227 687.173 118.037 687.173 Z" fill="#000000" fill-rule="evenodd" fill-opacity="1" /><path clip-path="url(#clip960)" d="M138.199 716.479 L143.084 716.479 L143.084 722.358 L138.199 722.358 L138.199 716.479 Z" fill="#000000" fill-rule="evenodd" fill-opacity="1" /><path clip-path="url(#clip960)" d="M154.079 718.423 L161.718 718.423 L161.718 692.057 L153.408 693.724 L153.408 689.465 L161.672 687.798 L166.347 687.798 L166.347 718.423 L173.986 718.423 L173.986 722.358 L154.079 722.358 L154.079 718.423 Z" fill="#000000" fill-rule="evenodd" fill-opacity="1" /><path clip-path="url(#clip960)" d="M118.408 567.058 Q114.797 567.058 112.968 570.623 Q111.163 574.165 111.163 581.294 Q111.163 588.401 112.968 591.966 Q114.797 595.507 118.408 595.507 Q122.042 595.507 123.848 591.966 Q125.676 588.401 125.676 581.294 Q125.676 574.165 123.848 570.623 Q122.042 567.058 118.408 567.058 M118.408 563.355 Q124.218 563.355 127.274 567.961 Q130.352 572.544 130.352 581.294 Q130.352 590.021 127.274 594.628 Q124.218 599.211 118.408 599.211 Q112.598 599.211 109.519 594.628 Q106.463 590.021 106.463 581.294 Q106.463 572.544 109.519 567.961 Q112.598 563.355 118.408 563.355 Z" fill="#000000" fill-rule="evenodd" fill-opacity="1" /><path clip-path="url(#clip960)" d="M138.57 592.66 L143.454 592.66 L143.454 598.54 L138.57 598.54 L138.57 592.66 Z" fill="#000000" fill-rule="evenodd" fill-opacity="1" /><path clip-path="url(#clip960)" d="M157.667 594.605 L173.986 594.605 L173.986 598.54 L152.042 598.54 L152.042 594.605 Q154.704 591.85 159.287 587.22 Q163.894 582.568 165.074 581.225 Q167.32 578.702 168.199 576.966 Q169.102 575.206 169.102 573.517 Q169.102 570.762 167.158 569.026 Q165.236 567.29 162.134 567.29 Q159.935 567.29 157.482 568.054 Q155.051 568.818 152.273 570.369 L152.273 565.646 Q155.097 564.512 157.551 563.933 Q160.005 563.355 162.042 563.355 Q167.412 563.355 170.607 566.04 Q173.801 568.725 173.801 573.216 Q173.801 575.345 172.991 577.267 Q172.204 579.165 170.097 581.757 Q169.519 582.429 166.417 585.646 Q163.315 588.841 157.667 594.605 Z" fill="#000000" fill-rule="evenodd" fill-opacity="1" /><path clip-path="url(#clip960)" d="M117.459 443.24 Q113.848 443.24 112.019 446.805 Q110.213 450.346 110.213 457.476 Q110.213 464.582 112.019 468.147 Q113.848 471.689 117.459 471.689 Q121.093 471.689 122.899 468.147 Q124.727 464.582 124.727 457.476 Q124.727 450.346 122.899 446.805 Q121.093 443.24 117.459 443.24 M117.459 439.536 Q123.269 439.536 126.324 444.143 Q129.403 448.726 129.403 457.476 Q129.403 466.203 126.324 470.809 Q123.269 475.392 117.459 475.392 Q111.649 475.392 108.57 470.809 Q105.514 466.203 105.514 457.476 Q105.514 448.726 108.57 444.143 Q111.649 439.536 117.459 439.536 Z" fill="#000000" fill-rule="evenodd" fill-opacity="1" /><path clip-path="url(#clip960)" d="M137.621 468.842 L142.505 468.842 L142.505 474.721 L137.621 474.721 L137.621 468.842 Z" fill="#000000" fill-rule="evenodd" fill-opacity="1" /><path clip-path="url(#clip960)" d="M166.857 456.087 Q170.213 456.805 172.088 459.073 Q173.986 461.342 173.986 464.675 Q173.986 469.791 170.468 472.592 Q166.949 475.392 160.468 475.392 Q158.292 475.392 155.977 474.953 Q153.685 474.536 151.232 473.679 L151.232 469.166 Q153.176 470.3 155.491 470.879 Q157.806 471.457 160.329 471.457 Q164.727 471.457 167.019 469.721 Q169.334 467.985 169.334 464.675 Q169.334 461.619 167.181 459.906 Q165.051 458.17 161.232 458.17 L157.204 458.17 L157.204 454.328 L161.417 454.328 Q164.866 454.328 166.695 452.962 Q168.523 451.573 168.523 448.981 Q168.523 446.318 166.625 444.906 Q164.75 443.471 161.232 443.471 Q159.31 443.471 157.111 443.888 Q154.912 444.305 152.273 445.184 L152.273 441.018 Q154.935 440.277 157.25 439.906 Q159.588 439.536 161.648 439.536 Q166.972 439.536 170.074 441.967 Q173.176 444.374 173.176 448.494 Q173.176 451.365 171.533 453.355 Q169.889 455.323 166.857 456.087 Z" fill="#000000" fill-rule="evenodd" fill-opacity="1" /><path clip-path="url(#clip960)" d="M116.325 319.421 Q112.713 319.421 110.885 322.986 Q109.079 326.528 109.079 333.657 Q109.079 340.764 110.885 344.329 Q112.713 347.87 116.325 347.87 Q119.959 347.87 121.764 344.329 Q123.593 340.764 123.593 333.657 Q123.593 326.528 121.764 322.986 Q119.959 319.421 116.325 319.421 M116.325 315.718 Q122.135 315.718 125.19 320.324 Q128.269 324.907 128.269 333.657 Q128.269 342.384 125.19 346.991 Q122.135 351.574 116.325 351.574 Q110.514 351.574 107.436 346.991 Q104.38 342.384 104.38 333.657 Q104.38 324.907 107.436 320.324 Q110.514 315.718 116.325 315.718 Z" fill="#000000" fill-rule="evenodd" fill-opacity="1" /><path clip-path="url(#clip960)" d="M136.486 345.023 L141.371 345.023 L141.371 350.903 L136.486 350.903 L136.486 345.023 Z" fill="#000000" fill-rule="evenodd" fill-opacity="1" /><path clip-path="url(#clip960)" d="M164.403 320.417 L152.597 338.866 L164.403 338.866 L164.403 320.417 M163.176 316.343 L169.056 316.343 L169.056 338.866 L173.986 338.866 L173.986 342.754 L169.056 342.754 L169.056 350.903 L164.403 350.903 L164.403 342.754 L148.801 342.754 L148.801 338.241 L163.176 316.343 Z" fill="#000000" fill-rule="evenodd" fill-opacity="1" /><path clip-path="url(#clip960)" d="M117.806 195.603 Q114.195 195.603 112.366 199.168 Q110.561 202.709 110.561 209.839 Q110.561 216.945 112.366 220.51 Q114.195 224.052 117.806 224.052 Q121.44 224.052 123.246 220.51 Q125.074 216.945 125.074 209.839 Q125.074 202.709 123.246 199.168 Q121.44 195.603 117.806 195.603 M117.806 191.899 Q123.616 191.899 126.672 196.505 Q129.75 201.089 129.75 209.839 Q129.75 218.566 126.672 223.172 Q123.616 227.755 117.806 227.755 Q111.996 227.755 108.917 223.172 Q105.862 218.566 105.862 209.839 Q105.862 201.089 108.917 196.505 Q111.996 191.899 117.806 191.899 Z" fill="#000000" fill-rule="evenodd" fill-opacity="1" /><path clip-path="url(#clip960)" d="M137.968 221.204 L142.852 221.204 L142.852 227.084 L137.968 227.084 L137.968 221.204 Z" fill="#000000" fill-rule="evenodd" fill-opacity="1" /><path clip-path="url(#clip960)" d="M153.084 192.524 L171.44 192.524 L171.44 196.459 L157.366 196.459 L157.366 204.931 Q158.384 204.584 159.403 204.422 Q160.422 204.237 161.44 204.237 Q167.227 204.237 170.607 207.408 Q173.986 210.579 173.986 215.996 Q173.986 221.575 170.514 224.677 Q167.042 227.755 160.722 227.755 Q158.547 227.755 156.278 227.385 Q154.033 227.015 151.625 226.274 L151.625 221.575 Q153.709 222.709 155.931 223.265 Q158.153 223.82 160.63 223.82 Q164.634 223.82 166.972 221.714 Q169.31 219.607 169.31 215.996 Q169.31 212.385 166.972 210.279 Q164.634 208.172 160.63 208.172 Q158.755 208.172 156.88 208.589 Q155.028 209.005 153.084 209.885 L153.084 192.524 Z" fill="#000000" fill-rule="evenodd" fill-opacity="1" /><path clip-path="url(#clip960)" d="M17.8877 592.336 L54.8406 592.336 L54.8406 584.569 Q54.8406 574.734 50.3846 570.183 Q45.9286 565.6 36.3164 565.6 Q26.7679 565.6 22.3437 570.183 Q17.8877 574.734 17.8877 584.569 L17.8877 592.336 M12.6042 598.765 L12.6042 585.556 Q12.6042 571.743 18.3651 565.281 Q24.0943 558.82 36.3164 558.82 Q48.6022 558.82 54.3632 565.313 Q60.1242 571.806 60.1242 585.556 L60.1242 598.765 L12.6042 598.765 Z" fill="#000000" fill-rule="evenodd" fill-opacity="1" /><path clip-path="url(#clip960)" d="M40.8361 518.334 L43.7006 518.334 L43.7006 545.261 Q49.7481 544.879 52.9309 541.633 Q56.0819 538.354 56.0819 532.53 Q56.0819 529.156 55.2544 526.005 Q54.4269 522.822 52.7718 519.703 L58.3099 519.703 Q59.6467 522.854 60.347 526.164 Q61.0472 529.474 61.0472 532.88 Q61.0472 541.41 56.0819 546.407 Q51.1167 551.372 42.6503 551.372 Q33.8974 551.372 28.7731 546.662 Q23.6168 541.919 23.6168 533.898 Q23.6168 526.705 28.2638 522.536 Q32.8789 518.334 40.8361 518.334 M39.1173 524.191 Q34.3112 524.254 31.4466 526.896 Q28.5821 529.506 28.5821 533.835 Q28.5821 538.736 31.3512 541.696 Q34.1202 544.625 39.1492 545.07 L39.1173 524.191 Z" fill="#000000" fill-rule="evenodd" fill-opacity="1" /><path clip-path="url(#clip960)" d="M38.6081 479.09 L60.1242 479.09 L60.1242 484.946 L38.799 484.946 Q33.7383 484.946 31.2238 486.919 Q28.7094 488.893 28.7094 492.84 Q28.7094 497.582 31.7331 500.319 Q34.7568 503.057 39.9767 503.057 L60.1242 503.057 L60.1242 508.945 L24.4762 508.945 L24.4762 503.057 L30.0144 503.057 Q26.7997 500.956 25.2083 498.123 Q23.6168 495.259 23.6168 491.535 Q23.6168 485.392 27.4363 482.241 Q31.2238 479.09 38.6081 479.09 Z" fill="#000000" fill-rule="evenodd" fill-opacity="1" /><path clip-path="url(#clip960)" d="M25.5265 444.683 L31.0647 444.683 Q29.7916 447.166 29.155 449.839 Q28.5184 452.513 28.5184 455.377 Q28.5184 459.738 29.8552 461.934 Q31.192 464.098 33.8656 464.098 Q35.9026 464.098 37.0803 462.539 Q38.2261 460.979 39.2765 456.269 L39.7221 454.263 Q41.0589 448.025 43.5097 445.415 Q45.9286 442.773 50.2891 442.773 Q55.2544 442.773 58.1508 446.72 Q61.0472 450.635 61.0472 457.51 Q61.0472 460.374 60.4743 463.494 Q59.9332 466.581 58.8192 470.019 L52.7718 470.019 Q54.4587 466.772 55.318 463.621 Q56.1456 460.47 56.1456 457.383 Q56.1456 453.245 54.7451 451.017 Q53.3129 448.789 50.7347 448.789 Q48.3476 448.789 47.0745 450.412 Q45.8013 452.004 44.6237 457.446 L44.1462 459.483 Q43.0004 464.926 40.6451 467.345 Q38.258 469.764 34.1202 469.764 Q29.0913 469.764 26.3541 466.199 Q23.6168 462.634 23.6168 456.078 Q23.6168 452.831 24.0943 449.967 Q24.5717 447.102 25.5265 444.683 Z" fill="#000000" fill-rule="evenodd" fill-opacity="1" /><path clip-path="url(#clip960)" d="M24.4762 433.448 L24.4762 427.591 L60.1242 427.591 L60.1242 433.448 L24.4762 433.448 M10.599 433.448 L10.599 427.591 L18.015 427.591 L18.015 433.448 L10.599 433.448 Z" fill="#000000" fill-rule="evenodd" fill-opacity="1" /><path clip-path="url(#clip960)" d="M14.3547 409.544 L24.4762 409.544 L24.4762 397.481 L29.0277 397.481 L29.0277 409.544 L48.3794 409.544 Q52.7399 409.544 53.9813 408.367 Q55.2226 407.157 55.2226 403.497 L55.2226 397.481 L60.1242 397.481 L60.1242 403.497 Q60.1242 410.276 57.6097 412.854 Q55.0634 415.433 48.3794 415.433 L29.0277 415.433 L29.0277 419.729 L24.4762 419.729 L24.4762 415.433 L14.3547 415.433 L14.3547 409.544 Z" fill="#000000" fill-rule="evenodd" fill-opacity="1" /><path clip-path="url(#clip960)" d="M63.4343 374.947 Q69.8 377.429 71.7416 379.785 Q73.6831 382.14 73.6831 386.087 L73.6831 390.765 L68.7815 390.765 L68.7815 387.328 Q68.7815 384.909 67.6357 383.572 Q66.4899 382.235 62.2248 380.612 L59.5512 379.562 L24.4762 393.98 L24.4762 387.774 L52.358 376.634 L24.4762 365.494 L24.4762 359.287 L63.4343 374.947 Z" fill="#000000" fill-rule="evenodd" fill-opacity="1" /><path clip-path="url(#clip960)" d="M1099.52 27.2059 L1083.11 49.2833 L1100.37 72.576 L1091.58 72.576 L1078.37 54.752 L1065.17 72.576 L1056.37 72.576 L1074 48.8377 L1057.87 27.2059 L1066.66 27.2059 L1078.7 43.369 L1090.73 27.2059 L1099.52 27.2059 Z" fill="#000000" fill-rule="evenodd" fill-opacity="1" /><polyline clip-path="url(#clip962)" style="stroke:#009af9; stroke-linecap:round; stroke-linejoin:round; stroke-width:12; stroke-opacity:1; fill:none" points="
  254.947,794.545 264.501,789.712 274.054,784.815 283.607,779.984 293.161,775.362 302.714,771.094 312.268,767.316 321.821,764.152 331.374,761.7 340.928,760.028 
  350.481,759.168 360.034,759.113 369.588,759.813 379.141,761.181 388.695,763.089 398.248,765.373 407.801,767.834 417.355,770.243 426.908,772.343 436.462,773.851 
  446.015,774.461 455.568,773.85 465.122,771.683 474.675,767.619 484.228,761.321 493.782,752.471 503.335,740.778 512.889,725.999 522.442,707.951 531.995,686.529 
  541.549,661.716 551.102,633.597 560.656,602.365 570.209,568.323 579.762,531.882 589.316,493.557 598.869,453.954 608.422,413.76 617.976,373.722 627.529,334.633 
  637.083,297.309 646.636,262.568 656.189,231.208 665.743,203.985 675.296,181.589 684.849,164.619 694.403,153.565 703.956,148.785 713.51,150.485 723.063,158.709 
  732.616,173.327 742.17,194.033 751.723,220.351 761.277,251.646 770.83,287.148 780.383,325.976 789.937,367.177 799.49,409.761 809.043,452.742 818.597,495.178 
  828.15,536.202 837.704,575.052 847.257,611.09 856.81,643.811 866.364,672.848 875.917,697.96 885.471,719.021 895.024,736 904.577,748.94 914.131,757.938 
  923.684,763.126 933.237,764.653 942.791,762.676 952.344,757.357 961.898,748.855 971.451,737.331 981.004,722.954 990.558,705.905 1000.11,686.385 1009.66,664.62 
  1019.22,640.87 1028.77,615.43 1038.32,588.636 1047.88,560.869 1057.43,532.55 1066.98,504.146 1076.54,476.161 1086.09,449.136 1095.64,423.632 1105.2,400.219 
  1114.75,379.459 1124.31,361.883 1133.86,347.967 1143.41,338.11 1152.97,332.612 1162.52,331.652 1172.07,335.284 1181.63,343.426 1191.18,355.866 1200.73,372.274 
  1210.29,392.212 1219.84,415.16 1229.39,440.537 1238.95,467.72 1248.5,496.069 1258.05,524.943 1267.61,553.718 1277.16,581.803 1286.71,608.65 1296.27,633.766 
  1305.82,656.725 1315.37,677.172 1324.93,694.839 1334.48,709.541 1344.03,721.189 1353.59,729.788 1363.14,735.436 1372.69,738.322 1382.25,738.717 1391.8,736.966 
  1401.35,733.471 1410.91,728.678 1420.46,723.059 1430.01,717.089 1439.57,711.231 1449.12,705.914 1458.67,701.512 1468.23,698.332 1477.78,696.603 1487.33,696.464 
  1496.89,697.967 1506.44,701.078 1515.99,705.685 1525.55,711.614 1535.1,718.639 1544.65,726.508 1554.21,734.953 1563.76,743.712 1573.31,752.539 1582.87,761.219 
  1592.42,769.57 1601.97,777.452 
  "/>
<polyline clip-path="url(#clip962)" style="stroke:#e26f46; stroke-linecap:round; stroke-linejoin:round; stroke-width:12; stroke-opacity:1; fill:none" points="
  253.48,805.48 264.124,800.13 274.767,794.35 285.411,788.336 296.055,782.334 306.699,776.615 317.342,771.456 327.986,767.106 338.63,763.769 349.274,761.581 
  359.917,760.603 370.561,760.817 381.205,762.134 391.849,764.402 402.492,767.414 413.136,770.92 423.78,774.625 434.424,778.189 445.067,781.217 455.711,783.251 
  466.355,783.76 476.999,782.138 487.642,777.71 498.286,769.756 508.93,757.545 519.574,740.392 530.217,717.722 540.861,689.142 551.505,654.514 562.149,614.019 
  572.793,568.204 583.436,517.997 594.08,464.697 604.724,409.918 615.368,355.503 626.011,303.407 636.655,255.553 647.299,213.695 657.943,179.291 668.586,153.41 
  679.23,136.688 689.874,129.334 700.518,131.174 711.161,141.741 721.805,160.354 732.449,186.208 743.093,218.425 753.736,256.084 764.38,298.221 775.024,343.815 
  785.668,391.776 796.311,440.944 806.955,490.111 817.599,538.069 828.243,583.677 838.887,625.927 849.53,664.011 860.174,697.358 870.818,725.651 881.462,748.806 
  892.105,766.929 902.749,780.256 913.393,789.083 924.037,793.704 934.68,794.361 945.324,791.215 955.968,784.329 966.612,773.682 977.255,759.19 987.899,740.741 
  998.543,718.246 1009.19,691.679 1019.83,661.125 1030.47,626.815 1041.12,589.152 1051.76,548.72 1062.41,506.285 1073.05,462.775 1083.69,419.256 1094.34,376.901 
  1104.98,336.952 1115.62,300.677 1126.27,269.32 1136.91,244.053 1147.56,225.905 1158.2,215.699 1168.84,213.981 1179.49,220.966 1190.13,236.495 1200.77,260.036 
  1211.42,290.7 1222.06,327.306 1232.71,368.456 1243.35,412.635 1253.99,458.297 1264.64,503.956 1275.28,548.249 1285.92,589.984 1296.57,628.173 1307.21,662.046 
  1317.86,691.056 1328.5,714.88 1339.14,733.409 1349.79,746.737 1360.43,755.15 1371.07,759.1 1381.72,759.187 1392.36,756.13 1403.01,750.733 1413.65,743.847 
  1424.29,736.33 1434.94,728.994 1445.58,722.57 1456.22,717.655 1466.87,714.689 1477.51,713.929 1488.16,715.446 1498.8,719.135 1509.44,724.744 1520.09,731.911 
  1530.73,740.209 1541.37,749.192 1552.02,758.436 1562.66,767.571 1573.31,776.303 1583.95,784.421 1594.59,791.793 1605.24,798.355 1615.88,804.095 1626.52,809.04 
  1637.17,813.237 1647.81,816.748 1658.46,819.638 1669.1,821.977 1679.74,823.832 1690.39,825.273 1701.03,826.365 1711.67,827.17 1722.32,827.748 1732.96,828.148 
  1743.61,828.415 1754.25,828.582 1764.89,828.677 1775.54,828.718 1786.18,828.718 1796.82,828.687 1807.47,828.628 1818.11,828.546 1828.76,828.445 1839.4,828.329 
  1850.04,828.205 1860.69,828.081 1871.33,827.967 1881.97,827.872 1892.62,827.805 1903.26,827.773 
  "/>
<path clip-path="url(#clip960)" d="
M1363.87 288.584 L1894.46 288.584 L1894.46 133.064 L1363.87 133.064  Z
  " fill="#ffffff" fill-rule="evenodd" fill-opacity="1"/>
<polyline clip-path="url(#clip960)" style="stroke:#000000; stroke-linecap:round; stroke-linejoin:round; stroke-width:4; stroke-opacity:1; fill:none" points="
  1363.87,288.584 1894.46,288.584 1894.46,133.064 1363.87,133.064 1363.87,288.584 
  "/>
<polyline clip-path="url(#clip960)" style="stroke:#009af9; stroke-linecap:round; stroke-linejoin:round; stroke-width:12; stroke-opacity:1; fill:none" points="
  1383.3,184.904 1499.89,184.904 
  "/>
<path clip-path="url(#clip960)" d="M1519.99 198.249 L1527.63 198.249 L1527.63 171.883 L1519.32 173.55 L1519.32 169.29 L1527.58 167.624 L1532.26 167.624 L1532.26 198.249 L1539.9 198.249 L1539.9 202.184 L1519.99 202.184 L1519.99 198.249 Z" fill="#000000" fill-rule="evenodd" fill-opacity="1" /><path clip-path="url(#clip960)" d="M1559.34 170.702 Q1555.73 170.702 1553.9 174.267 Q1552.09 177.809 1552.09 184.938 Q1552.09 192.045 1553.9 195.61 Q1555.73 199.151 1559.34 199.151 Q1562.97 199.151 1564.78 195.61 Q1566.61 192.045 1566.61 184.938 Q1566.61 177.809 1564.78 174.267 Q1562.97 170.702 1559.34 170.702 M1559.34 166.999 Q1565.15 166.999 1568.21 171.605 Q1571.28 176.188 1571.28 184.938 Q1571.28 193.665 1568.21 198.272 Q1565.15 202.855 1559.34 202.855 Q1553.53 202.855 1550.45 198.272 Q1547.4 193.665 1547.4 184.938 Q1547.4 176.188 1550.45 171.605 Q1553.53 166.999 1559.34 166.999 Z" fill="#000000" fill-rule="evenodd" fill-opacity="1" /><path clip-path="url(#clip960)" d="M1589.5 170.702 Q1585.89 170.702 1584.06 174.267 Q1582.26 177.809 1582.26 184.938 Q1582.26 192.045 1584.06 195.61 Q1585.89 199.151 1589.5 199.151 Q1593.14 199.151 1594.94 195.61 Q1596.77 192.045 1596.77 184.938 Q1596.77 177.809 1594.94 174.267 Q1593.14 170.702 1589.5 170.702 M1589.5 166.999 Q1595.31 166.999 1598.37 171.605 Q1601.45 176.188 1601.45 184.938 Q1601.45 193.665 1598.37 198.272 Q1595.31 202.855 1589.5 202.855 Q1583.69 202.855 1580.61 198.272 Q1577.56 193.665 1577.56 184.938 Q1577.56 176.188 1580.61 171.605 Q1583.69 166.999 1589.5 166.999 Z" fill="#000000" fill-rule="evenodd" fill-opacity="1" /><path clip-path="url(#clip960)" d="M1619.66 170.702 Q1616.05 170.702 1614.22 174.267 Q1612.42 177.809 1612.42 184.938 Q1612.42 192.045 1614.22 195.61 Q1616.05 199.151 1619.66 199.151 Q1623.3 199.151 1625.1 195.61 Q1626.93 192.045 1626.93 184.938 Q1626.93 177.809 1625.1 174.267 Q1623.3 170.702 1619.66 170.702 M1619.66 166.999 Q1625.47 166.999 1628.53 171.605 Q1631.61 176.188 1631.61 184.938 Q1631.61 193.665 1628.53 198.272 Q1625.47 202.855 1619.66 202.855 Q1613.85 202.855 1610.77 198.272 Q1607.72 193.665 1607.72 184.938 Q1607.72 176.188 1610.77 171.605 Q1613.85 166.999 1619.66 166.999 Z" fill="#000000" fill-rule="evenodd" fill-opacity="1" /><path clip-path="url(#clip960)" d="M1654.48 167.624 L1659.15 167.624 L1659.15 202.184 L1654.48 202.184 L1654.48 167.624 Z" fill="#000000" fill-rule="evenodd" fill-opacity="1" /><path clip-path="url(#clip960)" d="M1672.49 168.897 L1672.49 176.258 L1681.26 176.258 L1681.26 179.568 L1672.49 179.568 L1672.49 193.642 Q1672.49 196.813 1673.34 197.716 Q1674.22 198.619 1676.89 198.619 L1681.26 198.619 L1681.26 202.184 L1676.89 202.184 Q1671.96 202.184 1670.08 200.355 Q1668.21 198.503 1668.21 193.642 L1668.21 179.568 L1665.08 179.568 L1665.08 176.258 L1668.21 176.258 L1668.21 168.897 L1672.49 168.897 Z" fill="#000000" fill-rule="evenodd" fill-opacity="1" /><path clip-path="url(#clip960)" d="M1709.04 188.156 L1709.04 190.239 L1689.46 190.239 Q1689.73 194.637 1692.09 196.952 Q1694.48 199.244 1698.71 199.244 Q1701.17 199.244 1703.46 198.642 Q1705.77 198.04 1708.04 196.837 L1708.04 200.864 Q1705.75 201.836 1703.34 202.346 Q1700.94 202.855 1698.46 202.855 Q1692.26 202.855 1688.62 199.244 Q1685.01 195.633 1685.01 189.475 Q1685.01 183.11 1688.44 179.383 Q1691.89 175.633 1697.72 175.633 Q1702.95 175.633 1705.98 179.013 Q1709.04 182.369 1709.04 188.156 M1704.78 186.906 Q1704.73 183.411 1702.81 181.327 Q1700.91 179.244 1697.77 179.244 Q1694.2 179.244 1692.05 181.258 Q1689.92 183.272 1689.59 186.929 L1704.78 186.906 Z" fill="#000000" fill-rule="evenodd" fill-opacity="1" /><path clip-path="url(#clip960)" d="M1731.05 180.239 Q1730.33 179.823 1729.48 179.638 Q1728.64 179.429 1727.63 179.429 Q1724.02 179.429 1722.07 181.79 Q1720.15 184.128 1720.15 188.526 L1720.15 202.184 L1715.87 202.184 L1715.87 176.258 L1720.15 176.258 L1720.15 180.286 Q1721.49 177.925 1723.64 176.79 Q1725.8 175.633 1728.88 175.633 Q1729.32 175.633 1729.85 175.702 Q1730.38 175.749 1731.03 175.864 L1731.05 180.239 Z" fill="#000000" fill-rule="evenodd" fill-opacity="1" /><path clip-path="url(#clip960)" d="M1747.3 189.151 Q1742.14 189.151 1740.15 190.332 Q1738.16 191.512 1738.16 194.36 Q1738.16 196.628 1739.64 197.971 Q1741.14 199.29 1743.71 199.29 Q1747.26 199.29 1749.39 196.79 Q1751.54 194.267 1751.54 190.1 L1751.54 189.151 L1747.3 189.151 M1755.8 187.392 L1755.8 202.184 L1751.54 202.184 L1751.54 198.249 Q1750.08 200.61 1747.9 201.744 Q1745.73 202.855 1742.58 202.855 Q1738.6 202.855 1736.24 200.633 Q1733.9 198.387 1733.9 194.637 Q1733.9 190.262 1736.82 188.04 Q1739.76 185.818 1745.57 185.818 L1751.54 185.818 L1751.54 185.401 Q1751.54 182.462 1749.59 180.864 Q1747.67 179.244 1744.18 179.244 Q1741.95 179.244 1739.85 179.776 Q1737.74 180.309 1735.8 181.374 L1735.8 177.438 Q1738.14 176.536 1740.33 176.096 Q1742.53 175.633 1744.62 175.633 Q1750.24 175.633 1753.02 178.55 Q1755.8 181.466 1755.8 187.392 Z" fill="#000000" fill-rule="evenodd" fill-opacity="1" /><path clip-path="url(#clip960)" d="M1768.78 168.897 L1768.78 176.258 L1777.56 176.258 L1777.56 179.568 L1768.78 179.568 L1768.78 193.642 Q1768.78 196.813 1769.64 197.716 Q1770.52 198.619 1773.18 198.619 L1777.56 198.619 L1777.56 202.184 L1773.18 202.184 Q1768.25 202.184 1766.38 200.355 Q1764.5 198.503 1764.5 193.642 L1764.5 179.568 L1761.38 179.568 L1761.38 176.258 L1764.5 176.258 L1764.5 168.897 L1768.78 168.897 Z" fill="#000000" fill-rule="evenodd" fill-opacity="1" /><path clip-path="url(#clip960)" d="M1783.16 176.258 L1787.42 176.258 L1787.42 202.184 L1783.16 202.184 L1783.16 176.258 M1783.16 166.165 L1787.42 166.165 L1787.42 171.559 L1783.16 171.559 L1783.16 166.165 Z" fill="#000000" fill-rule="evenodd" fill-opacity="1" /><path clip-path="url(#clip960)" d="M1806.38 179.244 Q1802.95 179.244 1800.96 181.929 Q1798.97 184.591 1798.97 189.244 Q1798.97 193.897 1800.94 196.582 Q1802.93 199.244 1806.38 199.244 Q1809.78 199.244 1811.77 196.559 Q1813.76 193.874 1813.76 189.244 Q1813.76 184.638 1811.77 181.952 Q1809.78 179.244 1806.38 179.244 M1806.38 175.633 Q1811.93 175.633 1815.1 179.244 Q1818.27 182.855 1818.27 189.244 Q1818.27 195.61 1815.1 199.244 Q1811.93 202.855 1806.38 202.855 Q1800.8 202.855 1797.63 199.244 Q1794.48 195.61 1794.48 189.244 Q1794.48 182.855 1797.63 179.244 Q1800.8 175.633 1806.38 175.633 Z" fill="#000000" fill-rule="evenodd" fill-opacity="1" /><path clip-path="url(#clip960)" d="M1846.88 186.536 L1846.88 202.184 L1842.63 202.184 L1842.63 186.675 Q1842.63 182.994 1841.19 181.165 Q1839.76 179.337 1836.88 179.337 Q1833.44 179.337 1831.45 181.536 Q1829.45 183.735 1829.45 187.531 L1829.45 202.184 L1825.17 202.184 L1825.17 176.258 L1829.45 176.258 L1829.45 180.286 Q1830.98 177.948 1833.04 176.79 Q1835.13 175.633 1837.83 175.633 Q1842.3 175.633 1844.59 178.411 Q1846.88 181.165 1846.88 186.536 Z" fill="#000000" fill-rule="evenodd" fill-opacity="1" /><path clip-path="url(#clip960)" d="M1871.91 177.022 L1871.91 181.05 Q1870.1 180.124 1868.16 179.661 Q1866.21 179.198 1864.13 179.198 Q1860.96 179.198 1859.36 180.17 Q1857.79 181.142 1857.79 183.087 Q1857.79 184.568 1858.92 185.425 Q1860.06 186.258 1863.48 187.022 L1864.94 187.346 Q1869.48 188.318 1871.38 190.1 Q1873.3 191.86 1873.3 195.031 Q1873.3 198.642 1870.43 200.749 Q1867.58 202.855 1862.58 202.855 Q1860.5 202.855 1858.23 202.438 Q1855.98 202.045 1853.48 201.235 L1853.48 196.837 Q1855.84 198.063 1858.13 198.688 Q1860.43 199.29 1862.67 199.29 Q1865.68 199.29 1867.3 198.272 Q1868.92 197.23 1868.92 195.355 Q1868.92 193.619 1867.74 192.693 Q1866.58 191.767 1862.63 190.911 L1861.14 190.563 Q1857.19 189.73 1855.43 188.017 Q1853.67 186.281 1853.67 183.272 Q1853.67 179.614 1856.26 177.624 Q1858.85 175.633 1863.62 175.633 Q1865.98 175.633 1868.07 175.98 Q1870.15 176.327 1871.91 177.022 Z" fill="#000000" fill-rule="evenodd" fill-opacity="1" /><polyline clip-path="url(#clip960)" style="stroke:#e26f46; stroke-linecap:round; stroke-linejoin:round; stroke-width:12; stroke-opacity:1; fill:none" points="
  1383.3,236.744 1499.89,236.744 
  "/>
<path clip-path="url(#clip960)" d="M1524.94 250.089 L1541.26 250.089 L1541.26 254.024 L1519.32 254.024 L1519.32 250.089 Q1521.98 247.334 1526.56 242.704 Q1531.17 238.052 1532.35 236.709 Q1534.59 234.186 1535.47 232.45 Q1536.38 230.691 1536.38 229.001 Q1536.38 226.246 1534.43 224.51 Q1532.51 222.774 1529.41 222.774 Q1527.21 222.774 1524.76 223.538 Q1522.33 224.302 1519.55 225.853 L1519.55 221.13 Q1522.37 219.996 1524.83 219.417 Q1527.28 218.839 1529.32 218.839 Q1534.69 218.839 1537.88 221.524 Q1541.08 224.209 1541.08 228.7 Q1541.08 230.829 1540.27 232.751 Q1539.48 234.649 1537.37 237.241 Q1536.79 237.913 1533.69 241.13 Q1530.59 244.325 1524.94 250.089 Z" fill="#000000" fill-rule="evenodd" fill-opacity="1" /><path clip-path="url(#clip960)" d="M1561.08 222.542 Q1557.47 222.542 1555.64 226.107 Q1553.83 229.649 1553.83 236.778 Q1553.83 243.885 1555.64 247.45 Q1557.47 250.991 1561.08 250.991 Q1564.71 250.991 1566.52 247.45 Q1568.34 243.885 1568.34 236.778 Q1568.34 229.649 1566.52 226.107 Q1564.71 222.542 1561.08 222.542 M1561.08 218.839 Q1566.89 218.839 1569.94 223.445 Q1573.02 228.028 1573.02 236.778 Q1573.02 245.505 1569.94 250.112 Q1566.89 254.695 1561.08 254.695 Q1555.27 254.695 1552.19 250.112 Q1549.13 245.505 1549.13 236.778 Q1549.13 228.028 1552.19 223.445 Q1555.27 218.839 1561.08 218.839 Z" fill="#000000" fill-rule="evenodd" fill-opacity="1" /><path clip-path="url(#clip960)" d="M1591.24 222.542 Q1587.63 222.542 1585.8 226.107 Q1583.99 229.649 1583.99 236.778 Q1583.99 243.885 1585.8 247.45 Q1587.63 250.991 1591.24 250.991 Q1594.87 250.991 1596.68 247.45 Q1598.51 243.885 1598.51 236.778 Q1598.51 229.649 1596.68 226.107 Q1594.87 222.542 1591.24 222.542 M1591.24 218.839 Q1597.05 218.839 1600.1 223.445 Q1603.18 228.028 1603.18 236.778 Q1603.18 245.505 1600.1 250.112 Q1597.05 254.695 1591.24 254.695 Q1585.43 254.695 1582.35 250.112 Q1579.29 245.505 1579.29 236.778 Q1579.29 228.028 1582.35 223.445 Q1585.43 218.839 1591.24 218.839 Z" fill="#000000" fill-rule="evenodd" fill-opacity="1" /><path clip-path="url(#clip960)" d="M1621.4 222.542 Q1617.79 222.542 1615.96 226.107 Q1614.15 229.649 1614.15 236.778 Q1614.15 243.885 1615.96 247.45 Q1617.79 250.991 1621.4 250.991 Q1625.03 250.991 1626.84 247.45 Q1628.67 243.885 1628.67 236.778 Q1628.67 229.649 1626.84 226.107 Q1625.03 222.542 1621.4 222.542 M1621.4 218.839 Q1627.21 218.839 1630.27 223.445 Q1633.34 228.028 1633.34 236.778 Q1633.34 245.505 1630.27 250.112 Q1627.21 254.695 1621.4 254.695 Q1615.59 254.695 1612.51 250.112 Q1609.46 245.505 1609.46 236.778 Q1609.46 228.028 1612.51 223.445 Q1615.59 218.839 1621.4 218.839 Z" fill="#000000" fill-rule="evenodd" fill-opacity="1" /><path clip-path="url(#clip960)" d="M1656.21 219.464 L1660.89 219.464 L1660.89 254.024 L1656.21 254.024 L1656.21 219.464 Z" fill="#000000" fill-rule="evenodd" fill-opacity="1" /><path clip-path="url(#clip960)" d="M1674.22 220.737 L1674.22 228.098 L1683 228.098 L1683 231.408 L1674.22 231.408 L1674.22 245.482 Q1674.22 248.653 1675.08 249.556 Q1675.96 250.459 1678.62 250.459 L1683 250.459 L1683 254.024 L1678.62 254.024 Q1673.69 254.024 1671.82 252.195 Q1669.94 250.343 1669.94 245.482 L1669.94 231.408 L1666.82 231.408 L1666.82 228.098 L1669.94 228.098 L1669.94 220.737 L1674.22 220.737 Z" fill="#000000" fill-rule="evenodd" fill-opacity="1" /><path clip-path="url(#clip960)" d="M1710.77 239.996 L1710.77 242.079 L1691.19 242.079 Q1691.47 246.477 1693.83 248.792 Q1696.21 251.084 1700.45 251.084 Q1702.9 251.084 1705.2 250.482 Q1707.51 249.88 1709.78 248.677 L1709.78 252.704 Q1707.49 253.676 1705.08 254.186 Q1702.67 254.695 1700.2 254.695 Q1693.99 254.695 1690.36 251.084 Q1686.75 247.473 1686.75 241.315 Q1686.75 234.95 1690.17 231.223 Q1693.62 227.473 1699.46 227.473 Q1704.69 227.473 1707.72 230.853 Q1710.77 234.209 1710.77 239.996 M1706.52 238.746 Q1706.47 235.251 1704.55 233.167 Q1702.65 231.084 1699.5 231.084 Q1695.94 231.084 1693.78 233.098 Q1691.65 235.112 1691.33 238.769 L1706.52 238.746 Z" fill="#000000" fill-rule="evenodd" fill-opacity="1" /><path clip-path="url(#clip960)" d="M1732.79 232.079 Q1732.07 231.663 1731.21 231.478 Q1730.38 231.269 1729.36 231.269 Q1725.75 231.269 1723.81 233.63 Q1721.89 235.968 1721.89 240.366 L1721.89 254.024 L1717.6 254.024 L1717.6 228.098 L1721.89 228.098 L1721.89 232.126 Q1723.23 229.765 1725.38 228.63 Q1727.53 227.473 1730.61 227.473 Q1731.05 227.473 1731.58 227.542 Q1732.12 227.589 1732.77 227.704 L1732.79 232.079 Z" fill="#000000" fill-rule="evenodd" fill-opacity="1" /><path clip-path="url(#clip960)" d="M1749.04 240.991 Q1743.88 240.991 1741.89 242.172 Q1739.89 243.352 1739.89 246.2 Q1739.89 248.468 1741.38 249.811 Q1742.88 251.13 1745.45 251.13 Q1748.99 251.13 1751.12 248.63 Q1753.27 246.107 1753.27 241.94 L1753.27 240.991 L1749.04 240.991 M1757.53 239.232 L1757.53 254.024 L1753.27 254.024 L1753.27 250.089 Q1751.82 252.45 1749.64 253.584 Q1747.46 254.695 1744.32 254.695 Q1740.33 254.695 1737.97 252.473 Q1735.64 250.227 1735.64 246.477 Q1735.64 242.102 1738.55 239.88 Q1741.49 237.658 1747.3 237.658 L1753.27 237.658 L1753.27 237.241 Q1753.27 234.302 1751.33 232.704 Q1749.41 231.084 1745.91 231.084 Q1743.69 231.084 1741.58 231.616 Q1739.48 232.149 1737.53 233.214 L1737.53 229.278 Q1739.87 228.376 1742.07 227.936 Q1744.27 227.473 1746.35 227.473 Q1751.98 227.473 1754.76 230.39 Q1757.53 233.306 1757.53 239.232 Z" fill="#000000" fill-rule="evenodd" fill-opacity="1" /><path clip-path="url(#clip960)" d="M1770.52 220.737 L1770.52 228.098 L1779.29 228.098 L1779.29 231.408 L1770.52 231.408 L1770.52 245.482 Q1770.52 248.653 1771.38 249.556 Q1772.26 250.459 1774.92 250.459 L1779.29 250.459 L1779.29 254.024 L1774.92 254.024 Q1769.99 254.024 1768.11 252.195 Q1766.24 250.343 1766.24 245.482 L1766.24 231.408 L1763.11 231.408 L1763.11 228.098 L1766.24 228.098 L1766.24 220.737 L1770.52 220.737 Z" fill="#000000" fill-rule="evenodd" fill-opacity="1" /><path clip-path="url(#clip960)" d="M1784.89 228.098 L1789.15 228.098 L1789.15 254.024 L1784.89 254.024 L1784.89 228.098 M1784.89 218.005 L1789.15 218.005 L1789.15 223.399 L1784.89 223.399 L1784.89 218.005 Z" fill="#000000" fill-rule="evenodd" fill-opacity="1" /><path clip-path="url(#clip960)" d="M1808.11 231.084 Q1804.69 231.084 1802.7 233.769 Q1800.7 236.431 1800.7 241.084 Q1800.7 245.737 1802.67 248.422 Q1804.66 251.084 1808.11 251.084 Q1811.51 251.084 1813.51 248.399 Q1815.5 245.714 1815.5 241.084 Q1815.5 236.478 1813.51 233.792 Q1811.51 231.084 1808.11 231.084 M1808.11 227.473 Q1813.67 227.473 1816.84 231.084 Q1820.01 234.695 1820.01 241.084 Q1820.01 247.45 1816.84 251.084 Q1813.67 254.695 1808.11 254.695 Q1802.53 254.695 1799.36 251.084 Q1796.21 247.45 1796.21 241.084 Q1796.21 234.695 1799.36 231.084 Q1802.53 227.473 1808.11 227.473 Z" fill="#000000" fill-rule="evenodd" fill-opacity="1" /><path clip-path="url(#clip960)" d="M1848.62 238.376 L1848.62 254.024 L1844.36 254.024 L1844.36 238.515 Q1844.36 234.834 1842.93 233.005 Q1841.49 231.177 1838.62 231.177 Q1835.17 231.177 1833.18 233.376 Q1831.19 235.575 1831.19 239.371 L1831.19 254.024 L1826.91 254.024 L1826.91 228.098 L1831.19 228.098 L1831.19 232.126 Q1832.72 229.788 1834.78 228.63 Q1836.86 227.473 1839.57 227.473 Q1844.04 227.473 1846.33 230.251 Q1848.62 233.005 1848.62 238.376 Z" fill="#000000" fill-rule="evenodd" fill-opacity="1" /><path clip-path="url(#clip960)" d="M1873.64 228.862 L1873.64 232.89 Q1871.84 231.964 1869.89 231.501 Q1867.95 231.038 1865.87 231.038 Q1862.69 231.038 1861.1 232.01 Q1859.52 232.982 1859.52 234.927 Q1859.52 236.408 1860.66 237.265 Q1861.79 238.098 1865.22 238.862 L1866.68 239.186 Q1871.21 240.158 1873.11 241.94 Q1875.03 243.7 1875.03 246.871 Q1875.03 250.482 1872.16 252.589 Q1869.32 254.695 1864.32 254.695 Q1862.23 254.695 1859.96 254.278 Q1857.72 253.885 1855.22 253.075 L1855.22 248.677 Q1857.58 249.903 1859.87 250.528 Q1862.16 251.13 1864.41 251.13 Q1867.42 251.13 1869.04 250.112 Q1870.66 249.07 1870.66 247.195 Q1870.66 245.459 1869.48 244.533 Q1868.32 243.607 1864.36 242.751 L1862.88 242.403 Q1858.92 241.57 1857.16 239.857 Q1855.4 238.121 1855.4 235.112 Q1855.4 231.454 1858 229.464 Q1860.59 227.473 1865.36 227.473 Q1867.72 227.473 1869.8 227.82 Q1871.88 228.167 1873.64 228.862 Z" fill="#000000" fill-rule="evenodd" fill-opacity="1" /></svg>
