<?xml version="1.0" encoding="utf-8"?>
<svg xmlns="http://www.w3.org/2000/svg" xmlns:xlink="http://www.w3.org/1999/xlink" width="600" height="400" viewBox="0 0 2400 1600">
<defs>
  <clipPath id="clip580">
    <rect x="0" y="0" width="2400" height="1600"/>
  </clipPath>
</defs>
<path clip-path="url(#clip580)" d="
M0 1600 L2400 1600 L2400 0 L0 0  Z
  " fill="#ffffff" fill-rule="evenodd" fill-opacity="1"/>
<defs>
  <clipPath id="clip581">
    <rect x="480" y="0" width="1681" height="1600"/>
  </clipPath>
</defs>
<path clip-path="url(#clip580)" d="
M354.915 1384.3 L2352.76 1384.3 L2352.76 47.2441 L354.915 47.2441  Z
  " fill="#ffffff" fill-rule="evenodd" fill-opacity="1"/>
<defs>
  <clipPath id="clip582">
    <rect x="354" y="47" width="1999" height="1338"/>
  </clipPath>
</defs>
<polyline clip-path="url(#clip582)" style="stroke:#000000; stroke-linecap:round; stroke-linejoin:round; stroke-width:2; stroke-opacity:0.1; fill:none" points="
  687.794,1384.3 687.794,47.2441 
  "/>
<polyline clip-path="url(#clip582)" style="stroke:#000000; stroke-linecap:round; stroke-linejoin:round; stroke-width:2; stroke-opacity:0.1; fill:none" points="
  1042.07,1384.3 1042.07,47.2441 
  "/>
<polyline clip-path="url(#clip582)" style="stroke:#000000; stroke-linecap:round; stroke-linejoin:round; stroke-width:2; stroke-opacity:0.1; fill:none" points="
  1396.35,1384.3 1396.35,47.2441 
  "/>
<polyline clip-path="url(#clip582)" style="stroke:#000000; stroke-linecap:round; stroke-linejoin:round; stroke-width:2; stroke-opacity:0.1; fill:none" points="
  1750.63,1384.3 1750.63,47.2441 
  "/>
<polyline clip-path="url(#clip582)" style="stroke:#000000; stroke-linecap:round; stroke-linejoin:round; stroke-width:2; stroke-opacity:0.1; fill:none" points="
  2104.9,1384.3 2104.9,47.2441 
  "/>
<polyline clip-path="url(#clip580)" style="stroke:#000000; stroke-linecap:round; stroke-linejoin:round; stroke-width:4; stroke-opacity:1; fill:none" points="
  354.915,1384.3 2352.76,1384.3 
  "/>
<polyline clip-path="url(#clip580)" style="stroke:#000000; stroke-linecap:round; stroke-linejoin:round; stroke-width:4; stroke-opacity:1; fill:none" points="
  687.794,1384.3 687.794,1365.4 
  "/>
<polyline clip-path="url(#clip580)" style="stroke:#000000; stroke-linecap:round; stroke-linejoin:round; stroke-width:4; stroke-opacity:1; fill:none" points="
  1042.07,1384.3 1042.07,1365.4 
  "/>
<polyline clip-path="url(#clip580)" style="stroke:#000000; stroke-linecap:round; stroke-linejoin:round; stroke-width:4; stroke-opacity:1; fill:none" points="
  1396.35,1384.3 1396.35,1365.4 
  "/>
<polyline clip-path="url(#clip580)" style="stroke:#000000; stroke-linecap:round; stroke-linejoin:round; stroke-width:4; stroke-opacity:1; fill:none" points="
  1750.63,1384.3 1750.63,1365.4 
  "/>
<polyline clip-path="url(#clip580)" style="stroke:#000000; stroke-linecap:round; stroke-linejoin:round; stroke-width:4; stroke-opacity:1; fill:none" points="
  2104.9,1384.3 2104.9,1365.4 
  "/>
<path clip-path="url(#clip580)" d="M604.582 1462.4 L616.041 1462.4 L616.041 1422.85 L603.575 1425.35 L603.575 1418.96 L615.971 1416.46 L622.985 1416.46 L622.985 1462.4 L634.443 1462.4 L634.443 1468.3 L604.582 1468.3 L604.582 1462.4 Z" fill="#000000" fill-rule="evenodd" fill-opacity="1" /><path clip-path="url(#clip580)" d="M648.818 1467.22 L648.818 1460.83 Q651.457 1462.08 654.165 1462.74 Q656.874 1463.4 659.478 1463.4 Q666.422 1463.4 670.068 1458.75 Q673.749 1454.06 674.27 1444.55 Q672.256 1447.54 669.165 1449.13 Q666.075 1450.73 662.325 1450.73 Q654.547 1450.73 649.999 1446.04 Q645.485 1441.32 645.485 1433.16 Q645.485 1425.18 650.207 1420.35 Q654.929 1415.52 662.777 1415.52 Q671.77 1415.52 676.492 1422.43 Q681.249 1429.31 681.249 1442.43 Q681.249 1454.69 675.415 1462.02 Q669.617 1469.31 659.79 1469.31 Q657.152 1469.31 654.443 1468.79 Q651.735 1468.27 648.818 1467.22 M662.777 1445.24 Q667.499 1445.24 670.242 1442.02 Q673.02 1438.79 673.02 1433.16 Q673.02 1427.57 670.242 1424.34 Q667.499 1421.08 662.777 1421.08 Q658.054 1421.08 655.277 1424.34 Q652.534 1427.57 652.534 1433.16 Q652.534 1438.79 655.277 1442.02 Q658.054 1445.24 662.777 1445.24 Z" fill="#000000" fill-rule="evenodd" fill-opacity="1" /><path clip-path="url(#clip580)" d="M708.853 1421.08 Q703.436 1421.08 700.693 1426.43 Q697.985 1431.74 697.985 1442.43 Q697.985 1453.09 700.693 1458.44 Q703.436 1463.75 708.853 1463.75 Q714.304 1463.75 717.012 1458.44 Q719.755 1453.09 719.755 1442.43 Q719.755 1431.74 717.012 1426.43 Q714.304 1421.08 708.853 1421.08 M708.853 1415.52 Q717.568 1415.52 722.151 1422.43 Q726.769 1429.31 726.769 1442.43 Q726.769 1455.52 722.151 1462.43 Q717.568 1469.31 708.853 1469.31 Q700.137 1469.31 695.519 1462.43 Q690.936 1455.52 690.936 1442.43 Q690.936 1429.31 695.519 1422.43 Q700.137 1415.52 708.853 1415.52 Z" fill="#000000" fill-rule="evenodd" fill-opacity="1" /><path clip-path="url(#clip580)" d="M754.096 1421.08 Q748.679 1421.08 745.936 1426.43 Q743.228 1431.74 743.228 1442.43 Q743.228 1453.09 745.936 1458.44 Q748.679 1463.75 754.096 1463.75 Q759.547 1463.75 762.255 1458.44 Q764.998 1453.09 764.998 1442.43 Q764.998 1431.74 762.255 1426.43 Q759.547 1421.08 754.096 1421.08 M754.096 1415.52 Q762.811 1415.52 767.394 1422.43 Q772.012 1429.31 772.012 1442.43 Q772.012 1455.52 767.394 1462.43 Q762.811 1469.31 754.096 1469.31 Q745.38 1469.31 740.762 1462.43 Q736.179 1455.52 736.179 1442.43 Q736.179 1429.31 740.762 1422.43 Q745.38 1415.52 754.096 1415.52 Z" fill="#000000" fill-rule="evenodd" fill-opacity="1" /><path clip-path="url(#clip580)" d="M959.606 1462.4 L971.065 1462.4 L971.065 1422.85 L958.599 1425.35 L958.599 1418.96 L970.995 1416.46 L978.009 1416.46 L978.009 1462.4 L989.467 1462.4 L989.467 1468.3 L959.606 1468.3 L959.606 1462.4 Z" fill="#000000" fill-rule="evenodd" fill-opacity="1" /><path clip-path="url(#clip580)" d="M1003.84 1467.22 L1003.84 1460.83 Q1006.48 1462.08 1009.19 1462.74 Q1011.9 1463.4 1014.5 1463.4 Q1021.45 1463.4 1025.09 1458.75 Q1028.77 1454.06 1029.29 1444.55 Q1027.28 1447.54 1024.19 1449.13 Q1021.1 1450.73 1017.35 1450.73 Q1009.57 1450.73 1005.02 1446.04 Q1000.51 1441.32 1000.51 1433.16 Q1000.51 1425.18 1005.23 1420.35 Q1009.95 1415.52 1017.8 1415.52 Q1026.79 1415.52 1031.52 1422.43 Q1036.27 1429.31 1036.27 1442.43 Q1036.27 1454.69 1030.44 1462.02 Q1024.64 1469.31 1014.81 1469.31 Q1012.18 1469.31 1009.47 1468.79 Q1006.76 1468.27 1003.84 1467.22 M1017.8 1445.24 Q1022.52 1445.24 1025.27 1442.02 Q1028.04 1438.79 1028.04 1433.16 Q1028.04 1427.57 1025.27 1424.34 Q1022.52 1421.08 1017.8 1421.08 Q1013.08 1421.08 1010.3 1424.34 Q1007.56 1427.57 1007.56 1433.16 Q1007.56 1438.79 1010.3 1442.02 Q1013.08 1445.24 1017.8 1445.24 Z" fill="#000000" fill-rule="evenodd" fill-opacity="1" /><path clip-path="url(#clip580)" d="M1054.92 1462.4 L1079.4 1462.4 L1079.4 1468.3 L1046.48 1468.3 L1046.48 1462.4 Q1050.47 1458.27 1057.35 1451.32 Q1064.26 1444.34 1066.03 1442.33 Q1069.4 1438.54 1070.72 1435.94 Q1072.07 1433.3 1072.07 1430.77 Q1072.07 1426.63 1069.15 1424.03 Q1066.27 1421.43 1061.62 1421.43 Q1058.32 1421.43 1054.64 1422.57 Q1050.99 1423.72 1046.83 1426.04 L1046.83 1418.96 Q1051.06 1417.26 1054.74 1416.39 Q1058.43 1415.52 1061.48 1415.52 Q1069.54 1415.52 1074.33 1419.55 Q1079.12 1423.58 1079.12 1430.31 Q1079.12 1433.51 1077.9 1436.39 Q1076.72 1439.24 1073.56 1443.13 Q1072.7 1444.13 1068.04 1448.96 Q1063.39 1453.75 1054.92 1462.4 Z" fill="#000000" fill-rule="evenodd" fill-opacity="1" /><path clip-path="url(#clip580)" d="M1094.19 1416.46 L1121.72 1416.46 L1121.72 1422.36 L1100.61 1422.36 L1100.61 1435.07 Q1102.14 1434.55 1103.67 1434.31 Q1105.2 1434.03 1106.72 1434.03 Q1115.4 1434.03 1120.47 1438.79 Q1125.54 1443.54 1125.54 1451.67 Q1125.54 1460.04 1120.33 1464.69 Q1115.13 1469.31 1105.65 1469.31 Q1102.38 1469.31 1098.98 1468.75 Q1095.61 1468.2 1092 1467.08 L1092 1460.04 Q1095.13 1461.74 1098.46 1462.57 Q1101.79 1463.4 1105.51 1463.4 Q1111.52 1463.4 1115.02 1460.24 Q1118.53 1457.08 1118.53 1451.67 Q1118.53 1446.25 1115.02 1443.09 Q1111.52 1439.93 1105.51 1439.93 Q1102.7 1439.93 1099.88 1440.56 Q1097.11 1441.18 1094.19 1442.5 L1094.19 1416.46 Z" fill="#000000" fill-rule="evenodd" fill-opacity="1" /><path clip-path="url(#clip580)" d="M1313.14 1462.4 L1324.6 1462.4 L1324.6 1422.85 L1312.13 1425.35 L1312.13 1418.96 L1324.53 1416.46 L1331.54 1416.46 L1331.54 1462.4 L1343 1462.4 L1343 1468.3 L1313.14 1468.3 L1313.14 1462.4 Z" fill="#000000" fill-rule="evenodd" fill-opacity="1" /><path clip-path="url(#clip580)" d="M1357.37 1467.22 L1357.37 1460.83 Q1360.01 1462.08 1362.72 1462.74 Q1365.43 1463.4 1368.03 1463.4 Q1374.98 1463.4 1378.62 1458.75 Q1382.3 1454.06 1382.82 1444.55 Q1380.81 1447.54 1377.72 1449.13 Q1374.63 1450.73 1370.88 1450.73 Q1363.1 1450.73 1358.55 1446.04 Q1354.04 1441.32 1354.04 1433.16 Q1354.04 1425.18 1358.76 1420.35 Q1363.48 1415.52 1371.33 1415.52 Q1380.32 1415.52 1385.05 1422.43 Q1389.8 1429.31 1389.8 1442.43 Q1389.8 1454.69 1383.97 1462.02 Q1378.17 1469.31 1368.35 1469.31 Q1365.71 1469.31 1363 1468.79 Q1360.29 1468.27 1357.37 1467.22 M1371.33 1445.24 Q1376.05 1445.24 1378.8 1442.02 Q1381.57 1438.79 1381.57 1433.16 Q1381.57 1427.57 1378.8 1424.34 Q1376.05 1421.08 1371.33 1421.08 Q1366.61 1421.08 1363.83 1424.34 Q1361.09 1427.57 1361.09 1433.16 Q1361.09 1438.79 1363.83 1442.02 Q1366.61 1445.24 1371.33 1445.24 Z" fill="#000000" fill-rule="evenodd" fill-opacity="1" /><path clip-path="url(#clip580)" d="M1402.48 1416.46 L1430.01 1416.46 L1430.01 1422.36 L1408.9 1422.36 L1408.9 1435.07 Q1410.43 1434.55 1411.96 1434.31 Q1413.48 1434.03 1415.01 1434.03 Q1423.69 1434.03 1428.76 1438.79 Q1433.83 1443.54 1433.83 1451.67 Q1433.83 1460.04 1428.62 1464.69 Q1423.41 1469.31 1413.94 1469.31 Q1410.67 1469.31 1407.27 1468.75 Q1403.9 1468.2 1400.29 1467.08 L1400.29 1460.04 Q1403.41 1461.74 1406.75 1462.57 Q1410.08 1463.4 1413.8 1463.4 Q1419.8 1463.4 1423.31 1460.24 Q1426.82 1457.08 1426.82 1451.67 Q1426.82 1446.25 1423.31 1443.09 Q1419.8 1439.93 1413.8 1439.93 Q1410.98 1439.93 1408.17 1440.56 Q1405.39 1441.18 1402.48 1442.5 L1402.48 1416.46 Z" fill="#000000" fill-rule="evenodd" fill-opacity="1" /><path clip-path="url(#clip580)" d="M1462.65 1421.08 Q1457.23 1421.08 1454.49 1426.43 Q1451.78 1431.74 1451.78 1442.43 Q1451.78 1453.09 1454.49 1458.44 Q1457.23 1463.75 1462.65 1463.75 Q1468.1 1463.75 1470.81 1458.44 Q1473.55 1453.09 1473.55 1442.43 Q1473.55 1431.74 1470.81 1426.43 Q1468.1 1421.08 1462.65 1421.08 M1462.65 1415.52 Q1471.37 1415.52 1475.95 1422.43 Q1480.57 1429.31 1480.57 1442.43 Q1480.57 1455.52 1475.95 1462.43 Q1471.37 1469.31 1462.65 1469.31 Q1453.94 1469.31 1449.32 1462.43 Q1444.73 1455.52 1444.73 1442.43 Q1444.73 1429.31 1449.32 1422.43 Q1453.94 1415.52 1462.65 1415.52 Z" fill="#000000" fill-rule="evenodd" fill-opacity="1" /><path clip-path="url(#clip580)" d="M1668.16 1462.4 L1679.62 1462.4 L1679.62 1422.85 L1667.15 1425.35 L1667.15 1418.96 L1679.55 1416.46 L1686.56 1416.46 L1686.56 1462.4 L1698.02 1462.4 L1698.02 1468.3 L1668.16 1468.3 L1668.16 1462.4 Z" fill="#000000" fill-rule="evenodd" fill-opacity="1" /><path clip-path="url(#clip580)" d="M1712.4 1467.22 L1712.4 1460.83 Q1715.04 1462.08 1717.74 1462.74 Q1720.45 1463.4 1723.06 1463.4 Q1730 1463.4 1733.65 1458.75 Q1737.33 1454.06 1737.85 1444.55 Q1735.83 1447.54 1732.74 1449.13 Q1729.65 1450.73 1725.9 1450.73 Q1718.13 1450.73 1713.58 1446.04 Q1709.06 1441.32 1709.06 1433.16 Q1709.06 1425.18 1713.79 1420.35 Q1718.51 1415.52 1726.36 1415.52 Q1735.35 1415.52 1740.07 1422.43 Q1744.83 1429.31 1744.83 1442.43 Q1744.83 1454.69 1738.99 1462.02 Q1733.2 1469.31 1723.37 1469.31 Q1720.73 1469.31 1718.02 1468.79 Q1715.31 1468.27 1712.4 1467.22 M1726.36 1445.24 Q1731.08 1445.24 1733.82 1442.02 Q1736.6 1438.79 1736.6 1433.16 Q1736.6 1427.57 1733.82 1424.34 Q1731.08 1421.08 1726.36 1421.08 Q1721.63 1421.08 1718.86 1424.34 Q1716.11 1427.57 1716.11 1433.16 Q1716.11 1438.79 1718.86 1442.02 Q1721.63 1445.24 1726.36 1445.24 Z" fill="#000000" fill-rule="evenodd" fill-opacity="1" /><path clip-path="url(#clip580)" d="M1755.66 1416.46 L1788.99 1416.46 L1788.99 1419.45 L1770.17 1468.3 L1762.85 1468.3 L1780.56 1422.36 L1755.66 1422.36 L1755.66 1416.46 Z" fill="#000000" fill-rule="evenodd" fill-opacity="1" /><path clip-path="url(#clip580)" d="M1802.74 1416.46 L1830.28 1416.46 L1830.28 1422.36 L1809.17 1422.36 L1809.17 1435.07 Q1810.7 1434.55 1812.22 1434.31 Q1813.75 1434.03 1815.28 1434.03 Q1823.96 1434.03 1829.03 1438.79 Q1834.1 1443.54 1834.1 1451.67 Q1834.1 1460.04 1828.89 1464.69 Q1823.68 1469.31 1814.2 1469.31 Q1810.94 1469.31 1807.54 1468.75 Q1804.17 1468.2 1800.56 1467.08 L1800.56 1460.04 Q1803.68 1461.74 1807.01 1462.57 Q1810.35 1463.4 1814.06 1463.4 Q1820.07 1463.4 1823.58 1460.24 Q1827.08 1457.08 1827.08 1451.67 Q1827.08 1446.25 1823.58 1443.09 Q1820.07 1439.93 1814.06 1439.93 Q1811.25 1439.93 1808.44 1440.56 Q1805.66 1441.18 1802.74 1442.5 L1802.74 1416.46 Z" fill="#000000" fill-rule="evenodd" fill-opacity="1" /><path clip-path="url(#clip580)" d="M2027.82 1462.4 L2052.3 1462.4 L2052.3 1468.3 L2019.38 1468.3 L2019.38 1462.4 Q2023.38 1458.27 2030.25 1451.32 Q2037.16 1444.34 2038.93 1442.33 Q2042.3 1438.54 2043.62 1435.94 Q2044.97 1433.3 2044.97 1430.77 Q2044.97 1426.63 2042.06 1424.03 Q2039.17 1421.43 2034.52 1421.43 Q2031.22 1421.43 2027.54 1422.57 Q2023.9 1423.72 2019.73 1426.04 L2019.73 1418.96 Q2023.97 1417.26 2027.65 1416.39 Q2031.33 1415.52 2034.38 1415.52 Q2042.44 1415.52 2047.23 1419.55 Q2052.02 1423.58 2052.02 1430.31 Q2052.02 1433.51 2050.81 1436.39 Q2049.63 1439.24 2046.47 1443.13 Q2045.6 1444.13 2040.95 1448.96 Q2036.29 1453.75 2027.82 1462.4 Z" fill="#000000" fill-rule="evenodd" fill-opacity="1" /><path clip-path="url(#clip580)" d="M2082.02 1421.08 Q2076.6 1421.08 2073.86 1426.43 Q2071.15 1431.74 2071.15 1442.43 Q2071.15 1453.09 2073.86 1458.44 Q2076.6 1463.75 2082.02 1463.75 Q2087.47 1463.75 2090.18 1458.44 Q2092.92 1453.09 2092.92 1442.43 Q2092.92 1431.74 2090.18 1426.43 Q2087.47 1421.08 2082.02 1421.08 M2082.02 1415.52 Q2090.74 1415.52 2095.32 1422.43 Q2099.94 1429.31 2099.94 1442.43 Q2099.94 1455.52 2095.32 1462.43 Q2090.74 1469.31 2082.02 1469.31 Q2073.31 1469.31 2068.69 1462.43 Q2064.11 1455.52 2064.11 1442.43 Q2064.11 1429.31 2068.69 1422.43 Q2073.31 1415.52 2082.02 1415.52 Z" fill="#000000" fill-rule="evenodd" fill-opacity="1" /><path clip-path="url(#clip580)" d="M2127.26 1421.08 Q2121.85 1421.08 2119.1 1426.43 Q2116.4 1431.74 2116.4 1442.43 Q2116.4 1453.09 2119.1 1458.44 Q2121.85 1463.75 2127.26 1463.75 Q2132.72 1463.75 2135.42 1458.44 Q2138.17 1453.09 2138.17 1442.43 Q2138.17 1431.74 2135.42 1426.43 Q2132.72 1421.08 2127.26 1421.08 M2127.26 1415.52 Q2135.98 1415.52 2140.56 1422.43 Q2145.18 1429.31 2145.18 1442.43 Q2145.18 1455.52 2140.56 1462.43 Q2135.98 1469.31 2127.26 1469.31 Q2118.55 1469.31 2113.93 1462.43 Q2109.35 1455.52 2109.35 1442.43 Q2109.35 1429.31 2113.93 1422.43 Q2118.55 1415.52 2127.26 1415.52 Z" fill="#000000" fill-rule="evenodd" fill-opacity="1" /><path clip-path="url(#clip580)" d="M2172.51 1421.08 Q2167.09 1421.08 2164.35 1426.43 Q2161.64 1431.74 2161.64 1442.43 Q2161.64 1453.09 2164.35 1458.44 Q2167.09 1463.75 2172.51 1463.75 Q2177.96 1463.75 2180.67 1458.44 Q2183.41 1453.09 2183.41 1442.43 Q2183.41 1431.74 2180.67 1426.43 Q2177.96 1421.08 2172.51 1421.08 M2172.51 1415.52 Q2181.22 1415.52 2185.81 1422.43 Q2190.42 1429.31 2190.42 1442.43 Q2190.42 1455.52 2185.81 1462.43 Q2181.22 1469.31 2172.51 1469.31 Q2163.79 1469.31 2159.17 1462.43 Q2154.59 1455.52 2154.59 1442.43 Q2154.59 1429.31 2159.17 1422.43 Q2163.79 1415.52 2172.51 1415.52 Z" fill="#000000" fill-rule="evenodd" fill-opacity="1" /><path clip-path="url(#clip580)" d="M1253.37 1511.88 L1263.42 1511.88 L1282.59 1540.31 L1301.61 1511.88 L1311.66 1511.88 L1287.22 1548.09 L1287.22 1581 L1277.82 1581 L1277.82 1548.09 L1253.37 1511.88 Z" fill="#000000" fill-rule="evenodd" fill-opacity="1" /><path clip-path="url(#clip580)" d="M1352.17 1552.95 L1352.17 1557.12 L1313 1557.12 Q1313.56 1565.91 1318.28 1570.54 Q1323.05 1575.12 1331.52 1575.12 Q1336.43 1575.12 1341.01 1573.92 Q1345.64 1572.72 1350.18 1570.31 L1350.18 1578.36 Q1345.59 1580.31 1340.78 1581.33 Q1335.97 1582.35 1331.01 1582.35 Q1318.6 1582.35 1311.34 1575.12 Q1304.11 1567.9 1304.11 1555.59 Q1304.11 1542.86 1310.97 1535.4 Q1317.86 1527.9 1329.53 1527.9 Q1339.99 1527.9 1346.06 1534.66 Q1352.17 1541.37 1352.17 1552.95 M1343.65 1550.45 Q1343.56 1543.46 1339.72 1539.29 Q1335.92 1535.12 1329.62 1535.12 Q1322.49 1535.12 1318.19 1539.15 Q1313.93 1543.18 1313.28 1550.49 L1343.65 1550.45 Z" fill="#000000" fill-rule="evenodd" fill-opacity="1" /><path clip-path="url(#clip580)" d="M1389.71 1554.94 Q1379.39 1554.94 1375.41 1557.3 Q1371.43 1559.66 1371.43 1565.36 Q1371.43 1569.89 1374.39 1572.58 Q1377.4 1575.22 1382.54 1575.22 Q1389.62 1575.22 1393.88 1570.22 Q1398.19 1565.17 1398.19 1556.84 L1398.19 1554.94 L1389.71 1554.94 M1406.71 1551.42 L1406.71 1581 L1398.19 1581 L1398.19 1573.13 Q1395.27 1577.86 1390.92 1580.12 Q1386.57 1582.35 1380.27 1582.35 Q1372.31 1582.35 1367.59 1577.9 Q1362.91 1573.41 1362.91 1565.91 Q1362.91 1557.16 1368.74 1552.72 Q1374.62 1548.27 1386.24 1548.27 L1398.19 1548.27 L1398.19 1547.44 Q1398.19 1541.56 1394.3 1538.37 Q1390.46 1535.12 1383.46 1535.12 Q1379.02 1535.12 1374.81 1536.19 Q1370.59 1537.25 1366.71 1539.38 L1366.71 1531.51 Q1371.38 1529.71 1375.78 1528.83 Q1380.18 1527.9 1384.34 1527.9 Q1395.59 1527.9 1401.15 1533.74 Q1406.71 1539.57 1406.71 1551.42 Z" fill="#000000" fill-rule="evenodd" fill-opacity="1" /><path clip-path="url(#clip580)" d="M1454.3 1537.12 Q1452.86 1536.28 1451.15 1535.91 Q1449.48 1535.49 1447.45 1535.49 Q1440.22 1535.49 1436.33 1540.22 Q1432.49 1544.89 1432.49 1553.69 L1432.49 1581 L1423.93 1581 L1423.93 1529.15 L1432.49 1529.15 L1432.49 1537.21 Q1435.18 1532.49 1439.48 1530.22 Q1443.79 1527.9 1449.95 1527.9 Q1450.83 1527.9 1451.89 1528.04 Q1452.96 1528.13 1454.25 1528.37 L1454.3 1537.12 Z" fill="#000000" fill-rule="evenodd" fill-opacity="1" /><polyline clip-path="url(#clip582)" style="stroke:#000000; stroke-linecap:round; stroke-linejoin:round; stroke-width:2; stroke-opacity:0.1; fill:none" points="
  354.915,1244.42 2352.76,1244.42 
  "/>
<polyline clip-path="url(#clip582)" style="stroke:#000000; stroke-linecap:round; stroke-linejoin:round; stroke-width:2; stroke-opacity:0.1; fill:none" points="
  354.915,988.044 2352.76,988.044 
  "/>
<polyline clip-path="url(#clip582)" style="stroke:#000000; stroke-linecap:round; stroke-linejoin:round; stroke-width:2; stroke-opacity:0.1; fill:none" points="
  354.915,731.667 2352.76,731.667 
  "/>
<polyline clip-path="url(#clip582)" style="stroke:#000000; stroke-linecap:round; stroke-linejoin:round; stroke-width:2; stroke-opacity:0.1; fill:none" points="
  354.915,475.291 2352.76,475.291 
  "/>
<polyline clip-path="url(#clip582)" style="stroke:#000000; stroke-linecap:round; stroke-linejoin:round; stroke-width:2; stroke-opacity:0.1; fill:none" points="
  354.915,218.914 2352.76,218.914 
  "/>
<polyline clip-path="url(#clip580)" style="stroke:#000000; stroke-linecap:round; stroke-linejoin:round; stroke-width:4; stroke-opacity:1; fill:none" points="
  354.915,1384.3 354.915,47.2441 
  "/>
<polyline clip-path="url(#clip580)" style="stroke:#000000; stroke-linecap:round; stroke-linejoin:round; stroke-width:4; stroke-opacity:1; fill:none" points="
  354.915,1244.42 373.812,1244.42 
  "/>
<polyline clip-path="url(#clip580)" style="stroke:#000000; stroke-linecap:round; stroke-linejoin:round; stroke-width:4; stroke-opacity:1; fill:none" points="
  354.915,988.044 373.812,988.044 
  "/>
<polyline clip-path="url(#clip580)" style="stroke:#000000; stroke-linecap:round; stroke-linejoin:round; stroke-width:4; stroke-opacity:1; fill:none" points="
  354.915,731.667 373.812,731.667 
  "/>
<polyline clip-path="url(#clip580)" style="stroke:#000000; stroke-linecap:round; stroke-linejoin:round; stroke-width:4; stroke-opacity:1; fill:none" points="
  354.915,475.291 373.812,475.291 
  "/>
<polyline clip-path="url(#clip580)" style="stroke:#000000; stroke-linecap:round; stroke-linejoin:round; stroke-width:4; stroke-opacity:1; fill:none" points="
  354.915,218.914 373.812,218.914 
  "/>
<path clip-path="url(#clip580)" d="M135.86 1245.1 L180.374 1245.1 L180.374 1251 L135.86 1251 L135.86 1245.1 Z" fill="#000000" fill-rule="evenodd" fill-opacity="1" /><path clip-path="url(#clip580)" d="M196.728 1264.44 L208.186 1264.44 L208.186 1224.89 L195.721 1227.39 L195.721 1221 L208.117 1218.5 L215.131 1218.5 L215.131 1264.44 L226.589 1264.44 L226.589 1270.34 L196.728 1270.34 L196.728 1264.44 Z" fill="#000000" fill-rule="evenodd" fill-opacity="1" /><path clip-path="url(#clip580)" d="M240.825 1218.5 L268.359 1218.5 L268.359 1224.4 L247.248 1224.4 L247.248 1237.11 Q248.776 1236.59 250.304 1236.35 Q251.832 1236.07 253.36 1236.07 Q262.04 1236.07 267.109 1240.83 Q272.179 1245.58 272.179 1253.71 Q272.179 1262.08 266.971 1266.73 Q261.762 1271.35 252.283 1271.35 Q249.019 1271.35 245.617 1270.79 Q242.248 1270.24 238.637 1269.13 L238.637 1262.08 Q241.762 1263.78 245.096 1264.61 Q248.429 1265.44 252.144 1265.44 Q258.151 1265.44 261.658 1262.29 Q265.165 1259.13 265.165 1253.71 Q265.165 1248.29 261.658 1245.13 Q258.151 1241.97 252.144 1241.97 Q249.332 1241.97 246.519 1242.6 Q243.742 1243.22 240.825 1244.54 L240.825 1218.5 Z" fill="#000000" fill-rule="evenodd" fill-opacity="1" /><path clip-path="url(#clip580)" d="M300.998 1223.12 Q295.582 1223.12 292.838 1228.47 Q290.13 1233.78 290.13 1244.47 Q290.13 1255.13 292.838 1260.48 Q295.582 1265.79 300.998 1265.79 Q306.45 1265.79 309.158 1260.48 Q311.901 1255.13 311.901 1244.47 Q311.901 1233.78 309.158 1228.47 Q306.45 1223.12 300.998 1223.12 M300.998 1217.56 Q309.713 1217.56 314.297 1224.47 Q318.915 1231.35 318.915 1244.47 Q318.915 1257.56 314.297 1264.47 Q309.713 1271.35 300.998 1271.35 Q292.283 1271.35 287.665 1264.47 Q283.082 1257.56 283.082 1244.47 Q283.082 1231.35 287.665 1224.47 Q292.283 1217.56 300.998 1217.56 Z" fill="#000000" fill-rule="evenodd" fill-opacity="1" /><path clip-path="url(#clip580)" d="M135.86 988.721 L180.374 988.721 L180.374 994.624 L135.86 994.624 L135.86 988.721 Z" fill="#000000" fill-rule="evenodd" fill-opacity="1" /><path clip-path="url(#clip580)" d="M196.728 1008.06 L208.186 1008.06 L208.186 968.513 L195.721 971.013 L195.721 964.624 L208.117 962.124 L215.131 962.124 L215.131 1008.06 L226.589 1008.06 L226.589 1013.96 L196.728 1013.96 L196.728 1008.06 Z" fill="#000000" fill-rule="evenodd" fill-opacity="1" /><path clip-path="url(#clip580)" d="M255.755 966.742 Q250.339 966.742 247.596 972.089 Q244.887 977.402 244.887 988.096 Q244.887 998.756 247.596 1004.1 Q250.339 1009.42 255.755 1009.42 Q261.207 1009.42 263.915 1004.1 Q266.658 998.756 266.658 988.096 Q266.658 977.402 263.915 972.089 Q261.207 966.742 255.755 966.742 M255.755 961.187 Q264.471 961.187 269.054 968.096 Q273.672 974.971 273.672 988.096 Q273.672 1001.19 269.054 1008.1 Q264.471 1014.97 255.755 1014.97 Q247.04 1014.97 242.422 1008.1 Q237.839 1001.19 237.839 988.096 Q237.839 974.971 242.422 968.096 Q247.04 961.187 255.755 961.187 Z" fill="#000000" fill-rule="evenodd" fill-opacity="1" /><path clip-path="url(#clip580)" d="M300.998 966.742 Q295.582 966.742 292.838 972.089 Q290.13 977.402 290.13 988.096 Q290.13 998.756 292.838 1004.1 Q295.582 1009.42 300.998 1009.42 Q306.45 1009.42 309.158 1004.1 Q311.901 998.756 311.901 988.096 Q311.901 977.402 309.158 972.089 Q306.45 966.742 300.998 966.742 M300.998 961.187 Q309.713 961.187 314.297 968.096 Q318.915 974.971 318.915 988.096 Q318.915 1001.19 314.297 1008.1 Q309.713 1014.97 300.998 1014.97 Q292.283 1014.97 287.665 1008.1 Q283.082 1001.19 283.082 988.096 Q283.082 974.971 287.665 968.096 Q292.283 961.187 300.998 961.187 Z" fill="#000000" fill-rule="evenodd" fill-opacity="1" /><path clip-path="url(#clip580)" d="M181.103 732.344 L225.617 732.344 L225.617 738.247 L181.103 738.247 L181.103 732.344 Z" fill="#000000" fill-rule="evenodd" fill-opacity="1" /><path clip-path="url(#clip580)" d="M240.825 705.747 L268.359 705.747 L268.359 711.65 L247.248 711.65 L247.248 724.358 Q248.776 723.838 250.304 723.594 Q251.832 723.317 253.36 723.317 Q262.04 723.317 267.109 728.074 Q272.179 732.831 272.179 740.955 Q272.179 749.323 266.971 753.976 Q261.762 758.594 252.283 758.594 Q249.019 758.594 245.617 758.039 Q242.248 757.483 238.637 756.372 L238.637 749.323 Q241.762 751.025 245.096 751.858 Q248.429 752.692 252.144 752.692 Q258.151 752.692 261.658 749.532 Q265.165 746.372 265.165 740.955 Q265.165 735.539 261.658 732.379 Q258.151 729.219 252.144 729.219 Q249.332 729.219 246.519 729.844 Q243.742 730.469 240.825 731.789 L240.825 705.747 Z" fill="#000000" fill-rule="evenodd" fill-opacity="1" /><path clip-path="url(#clip580)" d="M300.998 710.365 Q295.582 710.365 292.838 715.713 Q290.13 721.025 290.13 731.719 Q290.13 742.379 292.838 747.726 Q295.582 753.039 300.998 753.039 Q306.45 753.039 309.158 747.726 Q311.901 742.379 311.901 731.719 Q311.901 721.025 309.158 715.713 Q306.45 710.365 300.998 710.365 M300.998 704.81 Q309.713 704.81 314.297 711.72 Q318.915 718.594 318.915 731.719 Q318.915 744.81 314.297 751.719 Q309.713 758.594 300.998 758.594 Q292.283 758.594 287.665 751.719 Q283.082 744.81 283.082 731.719 Q283.082 718.594 287.665 711.72 Q292.283 704.81 300.998 704.81 Z" fill="#000000" fill-rule="evenodd" fill-opacity="1" /><path clip-path="url(#clip580)" d="M300.998 453.989 Q295.582 453.989 292.838 459.336 Q290.13 464.648 290.13 475.343 Q290.13 486.002 292.838 491.35 Q295.582 496.662 300.998 496.662 Q306.45 496.662 309.158 491.35 Q311.901 486.002 311.901 475.343 Q311.901 464.648 309.158 459.336 Q306.45 453.989 300.998 453.989 M300.998 448.433 Q309.713 448.433 314.297 455.343 Q318.915 462.218 318.915 475.343 Q318.915 488.433 314.297 495.343 Q309.713 502.218 300.998 502.218 Q292.283 502.218 287.665 495.343 Q283.082 488.433 283.082 475.343 Q283.082 462.218 287.665 455.343 Q292.283 448.433 300.998 448.433 Z" fill="#000000" fill-rule="evenodd" fill-opacity="1" /><path clip-path="url(#clip580)" d="M240.825 192.994 L268.359 192.994 L268.359 198.897 L247.248 198.897 L247.248 211.605 Q248.776 211.084 250.304 210.841 Q251.832 210.563 253.36 210.563 Q262.04 210.563 267.109 215.32 Q272.179 220.077 272.179 228.202 Q272.179 236.57 266.971 241.223 Q261.762 245.841 252.283 245.841 Q249.019 245.841 245.617 245.285 Q242.248 244.73 238.637 243.619 L238.637 236.57 Q241.762 238.271 245.096 239.105 Q248.429 239.938 252.144 239.938 Q258.151 239.938 261.658 236.778 Q265.165 233.619 265.165 228.202 Q265.165 222.785 261.658 219.626 Q258.151 216.466 252.144 216.466 Q249.332 216.466 246.519 217.091 Q243.742 217.716 240.825 219.035 L240.825 192.994 Z" fill="#000000" fill-rule="evenodd" fill-opacity="1" /><path clip-path="url(#clip580)" d="M300.998 197.612 Q295.582 197.612 292.838 202.959 Q290.13 208.272 290.13 218.966 Q290.13 229.626 292.838 234.973 Q295.582 240.285 300.998 240.285 Q306.45 240.285 309.158 234.973 Q311.901 229.626 311.901 218.966 Q311.901 208.272 309.158 202.959 Q306.45 197.612 300.998 197.612 M300.998 192.056 Q309.713 192.056 314.297 198.966 Q318.915 205.841 318.915 218.966 Q318.915 232.056 314.297 238.966 Q309.713 245.841 300.998 245.841 Q292.283 245.841 287.665 238.966 Q283.082 232.056 283.082 218.966 Q283.082 205.841 287.665 198.966 Q292.283 192.056 300.998 192.056 Z" fill="#000000" fill-rule="evenodd" fill-opacity="1" /><path clip-path="url(#clip580)" d="M69.2631 936.488 L50.6984 936.488 L50.6984 951.766 L43.0132 951.766 L43.0132 927.229 L72.689 927.229 Q76.5316 932.646 78.5223 939.174 Q80.4667 945.701 80.4667 953.109 Q80.4667 969.312 71.0223 978.479 Q61.5317 987.599 44.6336 987.599 Q27.6892 987.599 18.2449 978.479 Q8.75416 969.312 8.75416 953.109 Q8.75416 946.349 10.4208 940.285 Q12.0875 934.174 15.3282 929.035 L25.2819 929.035 Q20.8837 934.22 18.6615 940.053 Q16.4393 945.886 16.4393 952.322 Q16.4393 965.007 23.5226 971.396 Q30.6059 977.738 44.6336 977.738 Q58.615 977.738 65.6983 971.396 Q72.7816 965.007 72.7816 952.322 Q72.7816 947.368 71.9483 943.479 Q71.0686 939.59 69.2631 936.488 Z" fill="#000000" fill-rule="evenodd" fill-opacity="1" /><path clip-path="url(#clip580)" d="M10.0042 910.146 L10.0042 896.211 L57.0409 878.572 L10.0042 860.841 L10.0042 846.906 L79.1242 846.906 L79.1242 856.026 L18.43 856.026 L65.8372 873.85 L65.8372 883.248 L18.43 901.072 L79.1242 901.072 L79.1242 910.146 L10.0042 910.146 Z" fill="#000000" fill-rule="evenodd" fill-opacity="1" /><path clip-path="url(#clip580)" d="M12.2727 786.906 L21.393 786.906 Q18.8467 792.23 17.5967 796.952 Q16.3467 801.674 16.3467 806.072 Q16.3467 813.711 19.3097 817.878 Q22.2726 821.998 27.7355 821.998 Q32.3189 821.998 34.68 819.267 Q36.9948 816.489 38.4299 808.804 L39.5873 803.156 Q41.5781 792.693 46.6243 787.739 Q51.6243 782.739 60.0502 782.739 Q70.0964 782.739 75.2816 789.498 Q80.4667 796.211 80.4667 809.221 Q80.4667 814.128 79.3556 819.683 Q78.2445 825.193 76.0686 831.119 L66.439 831.119 Q69.6335 825.424 71.2538 819.961 Q72.8742 814.498 72.8742 809.221 Q72.8742 801.211 69.7261 796.859 Q66.5779 792.508 60.7446 792.508 Q55.6521 792.508 52.7817 795.656 Q49.9114 798.758 48.4762 805.887 L47.3651 811.582 Q45.2817 822.045 40.8373 826.72 Q36.3929 831.396 28.4763 831.396 Q19.3097 831.396 14.0319 824.961 Q8.75416 818.48 8.75416 807.137 Q8.75416 802.276 9.63379 797.23 Q10.5134 792.184 12.2727 786.906 Z" fill="#000000" fill-rule="evenodd" fill-opacity="1" /><path clip-path="url(#clip580)" d="M10.0042 768.156 L10.0042 758.804 L71.2538 758.804 L71.2538 725.147 L79.1242 725.147 L79.1242 768.156 L10.0042 768.156 Z" fill="#000000" fill-rule="evenodd" fill-opacity="1" /><path clip-path="url(#clip580)" d="M7.1801 665.101 Q17.8282 671.305 28.2448 674.314 Q38.6614 677.323 49.3558 677.323 Q60.0502 677.323 70.5594 674.314 Q81.0223 671.258 91.6241 665.101 L91.6241 672.508 Q80.7445 679.453 70.2353 682.925 Q59.7261 686.351 49.3558 686.351 Q39.0318 686.351 28.5689 682.925 Q18.106 679.499 7.1801 672.508 L7.1801 665.101 Z" fill="#000000" fill-rule="evenodd" fill-opacity="1" /><path clip-path="url(#clip580)" d="M37.2262 608.203 Q31.4855 605.009 28.7541 600.564 Q26.0226 596.12 26.0226 590.101 Q26.0226 582 31.717 577.601 Q37.3651 573.203 47.828 573.203 L79.1242 573.203 L79.1242 581.768 L48.1058 581.768 Q40.6521 581.768 37.041 584.407 Q33.43 587.046 33.43 592.462 Q33.43 599.083 37.8281 602.925 Q42.2262 606.768 49.8188 606.768 L79.1242 606.768 L79.1242 615.333 L48.1058 615.333 Q40.6058 615.333 37.041 617.972 Q33.43 620.61 33.43 626.12 Q33.43 632.647 37.8744 636.49 Q42.2725 640.333 49.8188 640.333 L79.1242 640.333 L79.1242 648.897 L27.2726 648.897 L27.2726 640.333 L35.3281 640.333 Q30.5596 637.416 28.2911 633.342 Q26.0226 629.268 26.0226 623.666 Q26.0226 618.018 28.8929 614.083 Q31.7633 610.101 37.2262 608.203 Z" fill="#000000" fill-rule="evenodd" fill-opacity="1" /><path clip-path="url(#clip580)" d="M37.2262 515.842 Q31.4855 512.648 28.7541 508.204 Q26.0226 503.759 26.0226 497.741 Q26.0226 489.639 31.717 485.241 Q37.3651 480.843 47.828 480.843 L79.1242 480.843 L79.1242 489.407 L48.1058 489.407 Q40.6521 489.407 37.041 492.046 Q33.43 494.685 33.43 500.102 Q33.43 506.722 37.8281 510.565 Q42.2262 514.407 49.8188 514.407 L79.1242 514.407 L79.1242 522.972 L48.1058 522.972 Q40.6058 522.972 37.041 525.611 Q33.43 528.25 33.43 533.759 Q33.43 540.287 37.8744 544.129 Q42.2725 547.972 49.8188 547.972 L79.1242 547.972 L79.1242 556.537 L27.2726 556.537 L27.2726 547.972 L35.3281 547.972 Q30.5596 545.055 28.2911 540.981 Q26.0226 536.907 26.0226 531.305 Q26.0226 525.657 28.8929 521.722 Q31.7633 517.741 37.2262 515.842 Z" fill="#000000" fill-rule="evenodd" fill-opacity="1" /><path clip-path="url(#clip580)" d="M7.1801 465.195 L7.1801 457.787 Q18.106 450.843 28.5689 447.417 Q39.0318 443.945 49.3558 443.945 Q59.7261 443.945 70.2353 447.417 Q80.7445 450.843 91.6241 457.787 L91.6241 465.195 Q81.0223 459.037 70.5594 456.028 Q60.0502 452.972 49.3558 452.972 Q38.6614 452.972 28.2448 456.028 Q17.8282 459.037 7.1801 465.195 Z" fill="#000000" fill-rule="evenodd" fill-opacity="1" /><circle clip-path="url(#clip582)" cx="411.457" cy="1289.03" r="14.4" fill="#009af9" fill-rule="evenodd" fill-opacity="1" stroke="#000000" stroke-opacity="1" stroke-width="3.2"/>
<circle clip-path="url(#clip582)" cx="425.629" cy="1260.32" r="14.4" fill="#009af9" fill-rule="evenodd" fill-opacity="1" stroke="#000000" stroke-opacity="1" stroke-width="3.2"/>
<circle clip-path="url(#clip582)" cx="439.8" cy="1346.46" r="14.4" fill="#009af9" fill-rule="evenodd" fill-opacity="1" stroke="#000000" stroke-opacity="1" stroke-width="3.2"/>
<circle clip-path="url(#clip582)" cx="453.971" cy="1319.28" r="14.4" fill="#009af9" fill-rule="evenodd" fill-opacity="1" stroke="#000000" stroke-opacity="1" stroke-width="3.2"/>
<circle clip-path="url(#clip582)" cx="468.142" cy="1212.12" r="14.4" fill="#009af9" fill-rule="evenodd" fill-opacity="1" stroke="#000000" stroke-opacity="1" stroke-width="3.2"/>
<circle clip-path="url(#clip582)" cx="482.313" cy="1219.81" r="14.4" fill="#009af9" fill-rule="evenodd" fill-opacity="1" stroke="#000000" stroke-opacity="1" stroke-width="3.2"/>
<circle clip-path="url(#clip582)" cx="496.484" cy="1232.11" r="14.4" fill="#009af9" fill-rule="evenodd" fill-opacity="1" stroke="#000000" stroke-opacity="1" stroke-width="3.2"/>
<circle clip-path="url(#clip582)" cx="510.655" cy="1260.83" r="14.4" fill="#009af9" fill-rule="evenodd" fill-opacity="1" stroke="#000000" stroke-opacity="1" stroke-width="3.2"/>
<circle clip-path="url(#clip582)" cx="524.826" cy="1250.06" r="14.4" fill="#009af9" fill-rule="evenodd" fill-opacity="1" stroke="#000000" stroke-opacity="1" stroke-width="3.2"/>
<circle clip-path="url(#clip582)" cx="538.997" cy="1241.86" r="14.4" fill="#009af9" fill-rule="evenodd" fill-opacity="1" stroke="#000000" stroke-opacity="1" stroke-width="3.2"/>
<circle clip-path="url(#clip582)" cx="553.168" cy="1231.6" r="14.4" fill="#009af9" fill-rule="evenodd" fill-opacity="1" stroke="#000000" stroke-opacity="1" stroke-width="3.2"/>
<circle clip-path="url(#clip582)" cx="567.339" cy="1240.32" r="14.4" fill="#009af9" fill-rule="evenodd" fill-opacity="1" stroke="#000000" stroke-opacity="1" stroke-width="3.2"/>
<circle clip-path="url(#clip582)" cx="581.511" cy="1223.91" r="14.4" fill="#009af9" fill-rule="evenodd" fill-opacity="1" stroke="#000000" stroke-opacity="1" stroke-width="3.2"/>
<circle clip-path="url(#clip582)" cx="595.682" cy="1199.81" r="14.4" fill="#009af9" fill-rule="evenodd" fill-opacity="1" stroke="#000000" stroke-opacity="1" stroke-width="3.2"/>
<circle clip-path="url(#clip582)" cx="609.853" cy="1249.55" r="14.4" fill="#009af9" fill-rule="evenodd" fill-opacity="1" stroke="#000000" stroke-opacity="1" stroke-width="3.2"/>
<circle clip-path="url(#clip582)" cx="624.024" cy="1189.04" r="14.4" fill="#009af9" fill-rule="evenodd" fill-opacity="1" stroke="#000000" stroke-opacity="1" stroke-width="3.2"/>
<circle clip-path="url(#clip582)" cx="638.195" cy="1228.01" r="14.4" fill="#009af9" fill-rule="evenodd" fill-opacity="1" stroke="#000000" stroke-opacity="1" stroke-width="3.2"/>
<circle clip-path="url(#clip582)" cx="652.366" cy="1201.35" r="14.4" fill="#009af9" fill-rule="evenodd" fill-opacity="1" stroke="#000000" stroke-opacity="1" stroke-width="3.2"/>
<circle clip-path="url(#clip582)" cx="666.537" cy="1153.15" r="14.4" fill="#009af9" fill-rule="evenodd" fill-opacity="1" stroke="#000000" stroke-opacity="1" stroke-width="3.2"/>
<circle clip-path="url(#clip582)" cx="680.708" cy="1114.69" r="14.4" fill="#009af9" fill-rule="evenodd" fill-opacity="1" stroke="#000000" stroke-opacity="1" stroke-width="3.2"/>
<circle clip-path="url(#clip582)" cx="694.879" cy="1142.38" r="14.4" fill="#009af9" fill-rule="evenodd" fill-opacity="1" stroke="#000000" stroke-opacity="1" stroke-width="3.2"/>
<circle clip-path="url(#clip582)" cx="709.05" cy="1144.43" r="14.4" fill="#009af9" fill-rule="evenodd" fill-opacity="1" stroke="#000000" stroke-opacity="1" stroke-width="3.2"/>
<circle clip-path="url(#clip582)" cx="723.222" cy="1120.85" r="14.4" fill="#009af9" fill-rule="evenodd" fill-opacity="1" stroke="#000000" stroke-opacity="1" stroke-width="3.2"/>
<circle clip-path="url(#clip582)" cx="737.393" cy="1079.83" r="14.4" fill="#009af9" fill-rule="evenodd" fill-opacity="1" stroke="#000000" stroke-opacity="1" stroke-width="3.2"/>
<circle clip-path="url(#clip582)" cx="751.564" cy="1132.64" r="14.4" fill="#009af9" fill-rule="evenodd" fill-opacity="1" stroke="#000000" stroke-opacity="1" stroke-width="3.2"/>
<circle clip-path="url(#clip582)" cx="765.735" cy="1160.84" r="14.4" fill="#009af9" fill-rule="evenodd" fill-opacity="1" stroke="#000000" stroke-opacity="1" stroke-width="3.2"/>
<circle clip-path="url(#clip582)" cx="779.906" cy="1125.97" r="14.4" fill="#009af9" fill-rule="evenodd" fill-opacity="1" stroke="#000000" stroke-opacity="1" stroke-width="3.2"/>
<circle clip-path="url(#clip582)" cx="794.077" cy="1133.15" r="14.4" fill="#009af9" fill-rule="evenodd" fill-opacity="1" stroke="#000000" stroke-opacity="1" stroke-width="3.2"/>
<circle clip-path="url(#clip582)" cx="808.248" cy="1145.97" r="14.4" fill="#009af9" fill-rule="evenodd" fill-opacity="1" stroke="#000000" stroke-opacity="1" stroke-width="3.2"/>
<circle clip-path="url(#clip582)" cx="822.419" cy="1122.9" r="14.4" fill="#009af9" fill-rule="evenodd" fill-opacity="1" stroke="#000000" stroke-opacity="1" stroke-width="3.2"/>
<circle clip-path="url(#clip582)" cx="836.59" cy="1123.41" r="14.4" fill="#009af9" fill-rule="evenodd" fill-opacity="1" stroke="#000000" stroke-opacity="1" stroke-width="3.2"/>
<circle clip-path="url(#clip582)" cx="850.761" cy="1080.85" r="14.4" fill="#009af9" fill-rule="evenodd" fill-opacity="1" stroke="#000000" stroke-opacity="1" stroke-width="3.2"/>
<circle clip-path="url(#clip582)" cx="864.932" cy="1096.75" r="14.4" fill="#009af9" fill-rule="evenodd" fill-opacity="1" stroke="#000000" stroke-opacity="1" stroke-width="3.2"/>
<circle clip-path="url(#clip582)" cx="879.104" cy="1087.52" r="14.4" fill="#009af9" fill-rule="evenodd" fill-opacity="1" stroke="#000000" stroke-opacity="1" stroke-width="3.2"/>
<circle clip-path="url(#clip582)" cx="893.275" cy="1055.21" r="14.4" fill="#009af9" fill-rule="evenodd" fill-opacity="1" stroke="#000000" stroke-opacity="1" stroke-width="3.2"/>
<circle clip-path="url(#clip582)" cx="907.446" cy="1014.71" r="14.4" fill="#009af9" fill-rule="evenodd" fill-opacity="1" stroke="#000000" stroke-opacity="1" stroke-width="3.2"/>
<circle clip-path="url(#clip582)" cx="921.617" cy="1024.45" r="14.4" fill="#009af9" fill-rule="evenodd" fill-opacity="1" stroke="#000000" stroke-opacity="1" stroke-width="3.2"/>
<circle clip-path="url(#clip582)" cx="935.788" cy="1047.52" r="14.4" fill="#009af9" fill-rule="evenodd" fill-opacity="1" stroke="#000000" stroke-opacity="1" stroke-width="3.2"/>
<circle clip-path="url(#clip582)" cx="949.959" cy="1055.73" r="14.4" fill="#009af9" fill-rule="evenodd" fill-opacity="1" stroke="#000000" stroke-opacity="1" stroke-width="3.2"/>
<circle clip-path="url(#clip582)" cx="964.13" cy="1047.52" r="14.4" fill="#009af9" fill-rule="evenodd" fill-opacity="1" stroke="#000000" stroke-opacity="1" stroke-width="3.2"/>
<circle clip-path="url(#clip582)" cx="978.301" cy="1040.86" r="14.4" fill="#009af9" fill-rule="evenodd" fill-opacity="1" stroke="#000000" stroke-opacity="1" stroke-width="3.2"/>
<circle clip-path="url(#clip582)" cx="992.472" cy="1030.09" r="14.4" fill="#009af9" fill-rule="evenodd" fill-opacity="1" stroke="#000000" stroke-opacity="1" stroke-width="3.2"/>
<circle clip-path="url(#clip582)" cx="1006.64" cy="1034.7" r="14.4" fill="#009af9" fill-rule="evenodd" fill-opacity="1" stroke="#000000" stroke-opacity="1" stroke-width="3.2"/>
<circle clip-path="url(#clip582)" cx="1020.81" cy="1028.55" r="14.4" fill="#009af9" fill-rule="evenodd" fill-opacity="1" stroke="#000000" stroke-opacity="1" stroke-width="3.2"/>
<circle clip-path="url(#clip582)" cx="1034.99" cy="1065.98" r="14.4" fill="#009af9" fill-rule="evenodd" fill-opacity="1" stroke="#000000" stroke-opacity="1" stroke-width="3.2"/>
<circle clip-path="url(#clip582)" cx="1049.16" cy="1055.73" r="14.4" fill="#009af9" fill-rule="evenodd" fill-opacity="1" stroke="#000000" stroke-opacity="1" stroke-width="3.2"/>
<circle clip-path="url(#clip582)" cx="1063.33" cy="1022.4" r="14.4" fill="#009af9" fill-rule="evenodd" fill-opacity="1" stroke="#000000" stroke-opacity="1" stroke-width="3.2"/>
<circle clip-path="url(#clip582)" cx="1077.5" cy="1028.04" r="14.4" fill="#009af9" fill-rule="evenodd" fill-opacity="1" stroke="#000000" stroke-opacity="1" stroke-width="3.2"/>
<circle clip-path="url(#clip582)" cx="1091.67" cy="1048.04" r="14.4" fill="#009af9" fill-rule="evenodd" fill-opacity="1" stroke="#000000" stroke-opacity="1" stroke-width="3.2"/>
<circle clip-path="url(#clip582)" cx="1105.84" cy="1040.86" r="14.4" fill="#009af9" fill-rule="evenodd" fill-opacity="1" stroke="#000000" stroke-opacity="1" stroke-width="3.2"/>
<circle clip-path="url(#clip582)" cx="1120.01" cy="1020.35" r="14.4" fill="#009af9" fill-rule="evenodd" fill-opacity="1" stroke="#000000" stroke-opacity="1" stroke-width="3.2"/>
<circle clip-path="url(#clip582)" cx="1134.18" cy="1022.4" r="14.4" fill="#009af9" fill-rule="evenodd" fill-opacity="1" stroke="#000000" stroke-opacity="1" stroke-width="3.2"/>
<circle clip-path="url(#clip582)" cx="1148.35" cy="993.172" r="14.4" fill="#009af9" fill-rule="evenodd" fill-opacity="1" stroke="#000000" stroke-opacity="1" stroke-width="3.2"/>
<circle clip-path="url(#clip582)" cx="1162.53" cy="971.123" r="14.4" fill="#009af9" fill-rule="evenodd" fill-opacity="1" stroke="#000000" stroke-opacity="1" stroke-width="3.2"/>
<circle clip-path="url(#clip582)" cx="1176.7" cy="998.812" r="14.4" fill="#009af9" fill-rule="evenodd" fill-opacity="1" stroke="#000000" stroke-opacity="1" stroke-width="3.2"/>
<circle clip-path="url(#clip582)" cx="1190.87" cy="970.098" r="14.4" fill="#009af9" fill-rule="evenodd" fill-opacity="1" stroke="#000000" stroke-opacity="1" stroke-width="3.2"/>
<circle clip-path="url(#clip582)" cx="1205.04" cy="990.095" r="14.4" fill="#009af9" fill-rule="evenodd" fill-opacity="1" stroke="#000000" stroke-opacity="1" stroke-width="3.2"/>
<circle clip-path="url(#clip582)" cx="1219.21" cy="960.868" r="14.4" fill="#009af9" fill-rule="evenodd" fill-opacity="1" stroke="#000000" stroke-opacity="1" stroke-width="3.2"/>
<circle clip-path="url(#clip582)" cx="1233.38" cy="947.537" r="14.4" fill="#009af9" fill-rule="evenodd" fill-opacity="1" stroke="#000000" stroke-opacity="1" stroke-width="3.2"/>
<circle clip-path="url(#clip582)" cx="1247.55" cy="920.873" r="14.4" fill="#009af9" fill-rule="evenodd" fill-opacity="1" stroke="#000000" stroke-opacity="1" stroke-width="3.2"/>
<circle clip-path="url(#clip582)" cx="1261.72" cy="948.049" r="14.4" fill="#009af9" fill-rule="evenodd" fill-opacity="1" stroke="#000000" stroke-opacity="1" stroke-width="3.2"/>
<circle clip-path="url(#clip582)" cx="1275.89" cy="885.493" r="14.4" fill="#009af9" fill-rule="evenodd" fill-opacity="1" stroke="#000000" stroke-opacity="1" stroke-width="3.2"/>
<circle clip-path="url(#clip582)" cx="1290.07" cy="885.493" r="14.4" fill="#009af9" fill-rule="evenodd" fill-opacity="1" stroke="#000000" stroke-opacity="1" stroke-width="3.2"/>
<circle clip-path="url(#clip582)" cx="1304.24" cy="885.493" r="14.4" fill="#009af9" fill-rule="evenodd" fill-opacity="1" stroke="#000000" stroke-opacity="1" stroke-width="3.2"/>
<circle clip-path="url(#clip582)" cx="1318.41" cy="918.31" r="14.4" fill="#009af9" fill-rule="evenodd" fill-opacity="1" stroke="#000000" stroke-opacity="1" stroke-width="3.2"/>
<circle clip-path="url(#clip582)" cx="1332.58" cy="903.952" r="14.4" fill="#009af9" fill-rule="evenodd" fill-opacity="1" stroke="#000000" stroke-opacity="1" stroke-width="3.2"/>
<circle clip-path="url(#clip582)" cx="1346.75" cy="865.496" r="14.4" fill="#009af9" fill-rule="evenodd" fill-opacity="1" stroke="#000000" stroke-opacity="1" stroke-width="3.2"/>
<circle clip-path="url(#clip582)" cx="1360.92" cy="849.601" r="14.4" fill="#009af9" fill-rule="evenodd" fill-opacity="1" stroke="#000000" stroke-opacity="1" stroke-width="3.2"/>
<circle clip-path="url(#clip582)" cx="1375.09" cy="824.988" r="14.4" fill="#009af9" fill-rule="evenodd" fill-opacity="1" stroke="#000000" stroke-opacity="1" stroke-width="3.2"/>
<circle clip-path="url(#clip582)" cx="1389.26" cy="831.654" r="14.4" fill="#009af9" fill-rule="evenodd" fill-opacity="1" stroke="#000000" stroke-opacity="1" stroke-width="3.2"/>
<circle clip-path="url(#clip582)" cx="1403.43" cy="820.374" r="14.4" fill="#009af9" fill-rule="evenodd" fill-opacity="1" stroke="#000000" stroke-opacity="1" stroke-width="3.2"/>
<circle clip-path="url(#clip582)" cx="1417.61" cy="771.662" r="14.4" fill="#009af9" fill-rule="evenodd" fill-opacity="1" stroke="#000000" stroke-opacity="1" stroke-width="3.2"/>
<circle clip-path="url(#clip582)" cx="1431.78" cy="784.994" r="14.4" fill="#009af9" fill-rule="evenodd" fill-opacity="1" stroke="#000000" stroke-opacity="1" stroke-width="3.2"/>
<circle clip-path="url(#clip582)" cx="1445.95" cy="762.433" r="14.4" fill="#009af9" fill-rule="evenodd" fill-opacity="1" stroke="#000000" stroke-opacity="1" stroke-width="3.2"/>
<circle clip-path="url(#clip582)" cx="1460.12" cy="777.302" r="14.4" fill="#009af9" fill-rule="evenodd" fill-opacity="1" stroke="#000000" stroke-opacity="1" stroke-width="3.2"/>
<circle clip-path="url(#clip582)" cx="1474.29" cy="772.688" r="14.4" fill="#009af9" fill-rule="evenodd" fill-opacity="1" stroke="#000000" stroke-opacity="1" stroke-width="3.2"/>
<circle clip-path="url(#clip582)" cx="1488.46" cy="798.838" r="14.4" fill="#009af9" fill-rule="evenodd" fill-opacity="1" stroke="#000000" stroke-opacity="1" stroke-width="3.2"/>
<circle clip-path="url(#clip582)" cx="1502.63" cy="730.129" r="14.4" fill="#009af9" fill-rule="evenodd" fill-opacity="1" stroke="#000000" stroke-opacity="1" stroke-width="3.2"/>
<circle clip-path="url(#clip582)" cx="1516.8" cy="722.951" r="14.4" fill="#009af9" fill-rule="evenodd" fill-opacity="1" stroke="#000000" stroke-opacity="1" stroke-width="3.2"/>
<circle clip-path="url(#clip582)" cx="1530.97" cy="721.412" r="14.4" fill="#009af9" fill-rule="evenodd" fill-opacity="1" stroke="#000000" stroke-opacity="1" stroke-width="3.2"/>
<circle clip-path="url(#clip582)" cx="1545.15" cy="702.44" r="14.4" fill="#009af9" fill-rule="evenodd" fill-opacity="1" stroke="#000000" stroke-opacity="1" stroke-width="3.2"/>
<circle clip-path="url(#clip582)" cx="1559.32" cy="670.65" r="14.4" fill="#009af9" fill-rule="evenodd" fill-opacity="1" stroke="#000000" stroke-opacity="1" stroke-width="3.2"/>
<circle clip-path="url(#clip582)" cx="1573.49" cy="697.313" r="14.4" fill="#009af9" fill-rule="evenodd" fill-opacity="1" stroke="#000000" stroke-opacity="1" stroke-width="3.2"/>
<circle clip-path="url(#clip582)" cx="1587.66" cy="705.517" r="14.4" fill="#009af9" fill-rule="evenodd" fill-opacity="1" stroke="#000000" stroke-opacity="1" stroke-width="3.2"/>
<circle clip-path="url(#clip582)" cx="1601.83" cy="746.024" r="14.4" fill="#009af9" fill-rule="evenodd" fill-opacity="1" stroke="#000000" stroke-opacity="1" stroke-width="3.2"/>
<circle clip-path="url(#clip582)" cx="1616" cy="688.596" r="14.4" fill="#009af9" fill-rule="evenodd" fill-opacity="1" stroke="#000000" stroke-opacity="1" stroke-width="3.2"/>
<circle clip-path="url(#clip582)" cx="1630.17" cy="716.285" r="14.4" fill="#009af9" fill-rule="evenodd" fill-opacity="1" stroke="#000000" stroke-opacity="1" stroke-width="3.2"/>
<circle clip-path="url(#clip582)" cx="1644.34" cy="709.106" r="14.4" fill="#009af9" fill-rule="evenodd" fill-opacity="1" stroke="#000000" stroke-opacity="1" stroke-width="3.2"/>
<circle clip-path="url(#clip582)" cx="1658.51" cy="705.004" r="14.4" fill="#009af9" fill-rule="evenodd" fill-opacity="1" stroke="#000000" stroke-opacity="1" stroke-width="3.2"/>
<circle clip-path="url(#clip582)" cx="1672.68" cy="670.137" r="14.4" fill="#009af9" fill-rule="evenodd" fill-opacity="1" stroke="#000000" stroke-opacity="1" stroke-width="3.2"/>
<circle clip-path="url(#clip582)" cx="1686.86" cy="679.879" r="14.4" fill="#009af9" fill-rule="evenodd" fill-opacity="1" stroke="#000000" stroke-opacity="1" stroke-width="3.2"/>
<circle clip-path="url(#clip582)" cx="1701.03" cy="653.216" r="14.4" fill="#009af9" fill-rule="evenodd" fill-opacity="1" stroke="#000000" stroke-opacity="1" stroke-width="3.2"/>
<circle clip-path="url(#clip582)" cx="1715.2" cy="606.555" r="14.4" fill="#009af9" fill-rule="evenodd" fill-opacity="1" stroke="#000000" stroke-opacity="1" stroke-width="3.2"/>
<circle clip-path="url(#clip582)" cx="1729.37" cy="637.321" r="14.4" fill="#009af9" fill-rule="evenodd" fill-opacity="1" stroke="#000000" stroke-opacity="1" stroke-width="3.2"/>
<circle clip-path="url(#clip582)" cx="1743.54" cy="576.303" r="14.4" fill="#009af9" fill-rule="evenodd" fill-opacity="1" stroke="#000000" stroke-opacity="1" stroke-width="3.2"/>
<circle clip-path="url(#clip582)" cx="1757.71" cy="584.507" r="14.4" fill="#009af9" fill-rule="evenodd" fill-opacity="1" stroke="#000000" stroke-opacity="1" stroke-width="3.2"/>
<circle clip-path="url(#clip582)" cx="1771.88" cy="589.635" r="14.4" fill="#009af9" fill-rule="evenodd" fill-opacity="1" stroke="#000000" stroke-opacity="1" stroke-width="3.2"/>
<circle clip-path="url(#clip582)" cx="1786.05" cy="598.351" r="14.4" fill="#009af9" fill-rule="evenodd" fill-opacity="1" stroke="#000000" stroke-opacity="1" stroke-width="3.2"/>
<circle clip-path="url(#clip582)" cx="1800.22" cy="565.535" r="14.4" fill="#009af9" fill-rule="evenodd" fill-opacity="1" stroke="#000000" stroke-opacity="1" stroke-width="3.2"/>
<circle clip-path="url(#clip582)" cx="1814.4" cy="590.66" r="14.4" fill="#009af9" fill-rule="evenodd" fill-opacity="1" stroke="#000000" stroke-opacity="1" stroke-width="3.2"/>
<circle clip-path="url(#clip582)" cx="1828.57" cy="559.895" r="14.4" fill="#009af9" fill-rule="evenodd" fill-opacity="1" stroke="#000000" stroke-opacity="1" stroke-width="3.2"/>
<circle clip-path="url(#clip582)" cx="1842.74" cy="496.314" r="14.4" fill="#009af9" fill-rule="evenodd" fill-opacity="1" stroke="#000000" stroke-opacity="1" stroke-width="3.2"/>
<circle clip-path="url(#clip582)" cx="1856.91" cy="526.053" r="14.4" fill="#009af9" fill-rule="evenodd" fill-opacity="1" stroke="#000000" stroke-opacity="1" stroke-width="3.2"/>
<circle clip-path="url(#clip582)" cx="1871.08" cy="482.982" r="14.4" fill="#009af9" fill-rule="evenodd" fill-opacity="1" stroke="#000000" stroke-opacity="1" stroke-width="3.2"/>
<circle clip-path="url(#clip582)" cx="1885.25" cy="487.597" r="14.4" fill="#009af9" fill-rule="evenodd" fill-opacity="1" stroke="#000000" stroke-opacity="1" stroke-width="3.2"/>
<circle clip-path="url(#clip582)" cx="1899.42" cy="540.41" r="14.4" fill="#009af9" fill-rule="evenodd" fill-opacity="1" stroke="#000000" stroke-opacity="1" stroke-width="3.2"/>
<circle clip-path="url(#clip582)" cx="1913.59" cy="537.334" r="14.4" fill="#009af9" fill-rule="evenodd" fill-opacity="1" stroke="#000000" stroke-opacity="1" stroke-width="3.2"/>
<circle clip-path="url(#clip582)" cx="1927.76" cy="534.257" r="14.4" fill="#009af9" fill-rule="evenodd" fill-opacity="1" stroke="#000000" stroke-opacity="1" stroke-width="3.2"/>
<circle clip-path="url(#clip582)" cx="1941.94" cy="510.158" r="14.4" fill="#009af9" fill-rule="evenodd" fill-opacity="1" stroke="#000000" stroke-opacity="1" stroke-width="3.2"/>
<circle clip-path="url(#clip582)" cx="1956.11" cy="487.084" r="14.4" fill="#009af9" fill-rule="evenodd" fill-opacity="1" stroke="#000000" stroke-opacity="1" stroke-width="3.2"/>
<circle clip-path="url(#clip582)" cx="1970.28" cy="475.291" r="14.4" fill="#009af9" fill-rule="evenodd" fill-opacity="1" stroke="#000000" stroke-opacity="1" stroke-width="3.2"/>
<circle clip-path="url(#clip582)" cx="1984.45" cy="462.472" r="14.4" fill="#009af9" fill-rule="evenodd" fill-opacity="1" stroke="#000000" stroke-opacity="1" stroke-width="3.2"/>
<circle clip-path="url(#clip582)" cx="1998.62" cy="458.883" r="14.4" fill="#009af9" fill-rule="evenodd" fill-opacity="1" stroke="#000000" stroke-opacity="1" stroke-width="3.2"/>
<circle clip-path="url(#clip582)" cx="2012.79" cy="468.112" r="14.4" fill="#009af9" fill-rule="evenodd" fill-opacity="1" stroke="#000000" stroke-opacity="1" stroke-width="3.2"/>
<circle clip-path="url(#clip582)" cx="2026.96" cy="441.449" r="14.4" fill="#009af9" fill-rule="evenodd" fill-opacity="1" stroke="#000000" stroke-opacity="1" stroke-width="3.2"/>
<circle clip-path="url(#clip582)" cx="2041.13" cy="426.579" r="14.4" fill="#009af9" fill-rule="evenodd" fill-opacity="1" stroke="#000000" stroke-opacity="1" stroke-width="3.2"/>
<circle clip-path="url(#clip582)" cx="2055.3" cy="405.556" r="14.4" fill="#009af9" fill-rule="evenodd" fill-opacity="1" stroke="#000000" stroke-opacity="1" stroke-width="3.2"/>
<circle clip-path="url(#clip582)" cx="2069.48" cy="369.663" r="14.4" fill="#009af9" fill-rule="evenodd" fill-opacity="1" stroke="#000000" stroke-opacity="1" stroke-width="3.2"/>
<circle clip-path="url(#clip582)" cx="2083.65" cy="420.426" r="14.4" fill="#009af9" fill-rule="evenodd" fill-opacity="1" stroke="#000000" stroke-opacity="1" stroke-width="3.2"/>
<circle clip-path="url(#clip582)" cx="2097.82" cy="376.842" r="14.4" fill="#009af9" fill-rule="evenodd" fill-opacity="1" stroke="#000000" stroke-opacity="1" stroke-width="3.2"/>
<circle clip-path="url(#clip582)" cx="2111.99" cy="370.176" r="14.4" fill="#009af9" fill-rule="evenodd" fill-opacity="1" stroke="#000000" stroke-opacity="1" stroke-width="3.2"/>
<circle clip-path="url(#clip582)" cx="2126.16" cy="341.975" r="14.4" fill="#009af9" fill-rule="evenodd" fill-opacity="1" stroke="#000000" stroke-opacity="1" stroke-width="3.2"/>
<circle clip-path="url(#clip582)" cx="2140.33" cy="329.669" r="14.4" fill="#009af9" fill-rule="evenodd" fill-opacity="1" stroke="#000000" stroke-opacity="1" stroke-width="3.2"/>
<circle clip-path="url(#clip582)" cx="2154.5" cy="282.495" r="14.4" fill="#009af9" fill-rule="evenodd" fill-opacity="1" stroke="#000000" stroke-opacity="1" stroke-width="3.2"/>
<circle clip-path="url(#clip582)" cx="2168.67" cy="284.546" r="14.4" fill="#009af9" fill-rule="evenodd" fill-opacity="1" stroke="#000000" stroke-opacity="1" stroke-width="3.2"/>
<circle clip-path="url(#clip582)" cx="2182.84" cy="284.034" r="14.4" fill="#009af9" fill-rule="evenodd" fill-opacity="1" stroke="#000000" stroke-opacity="1" stroke-width="3.2"/>
<circle clip-path="url(#clip582)" cx="2197.02" cy="261.985" r="14.4" fill="#009af9" fill-rule="evenodd" fill-opacity="1" stroke="#000000" stroke-opacity="1" stroke-width="3.2"/>
<circle clip-path="url(#clip582)" cx="2211.19" cy="252.243" r="14.4" fill="#009af9" fill-rule="evenodd" fill-opacity="1" stroke="#000000" stroke-opacity="1" stroke-width="3.2"/>
<circle clip-path="url(#clip582)" cx="2225.36" cy="207.633" r="14.4" fill="#009af9" fill-rule="evenodd" fill-opacity="1" stroke="#000000" stroke-opacity="1" stroke-width="3.2"/>
<circle clip-path="url(#clip582)" cx="2239.53" cy="177.894" r="14.4" fill="#009af9" fill-rule="evenodd" fill-opacity="1" stroke="#000000" stroke-opacity="1" stroke-width="3.2"/>
<circle clip-path="url(#clip582)" cx="2253.7" cy="138.412" r="14.4" fill="#009af9" fill-rule="evenodd" fill-opacity="1" stroke="#000000" stroke-opacity="1" stroke-width="3.2"/>
<circle clip-path="url(#clip582)" cx="2267.87" cy="130.208" r="14.4" fill="#009af9" fill-rule="evenodd" fill-opacity="1" stroke="#000000" stroke-opacity="1" stroke-width="3.2"/>
<circle clip-path="url(#clip582)" cx="2282.04" cy="85.0853" r="14.4" fill="#009af9" fill-rule="evenodd" fill-opacity="1" stroke="#000000" stroke-opacity="1" stroke-width="3.2"/>
<circle clip-path="url(#clip582)" cx="2296.21" cy="128.157" r="14.4" fill="#009af9" fill-rule="evenodd" fill-opacity="1" stroke="#000000" stroke-opacity="1" stroke-width="3.2"/>
<polyline clip-path="url(#clip582)" style="stroke:#ff0000; stroke-linecap:round; stroke-linejoin:round; stroke-width:12; stroke-opacity:1; fill:none" points="
  411.457,1264.66 425.629,1260.72 439.8,1256.7 453.971,1252.63 468.142,1248.49 482.313,1244.28 496.484,1240.02 510.655,1235.68 524.826,1231.29 538.997,1226.83 
  553.168,1222.3 567.339,1217.71 581.511,1213.06 595.682,1208.34 609.853,1203.56 624.024,1198.71 638.195,1193.8 652.366,1188.82 666.537,1183.78 680.708,1178.68 
  694.879,1173.51 709.05,1168.28 723.222,1162.98 737.393,1157.62 751.564,1152.2 765.735,1146.71 779.906,1141.15 794.077,1135.53 808.248,1129.85 822.419,1124.1 
  836.59,1118.29 850.761,1112.42 864.932,1106.48 879.104,1100.48 893.275,1094.41 907.446,1088.28 921.617,1082.08 935.788,1075.82 949.959,1069.49 964.13,1063.1 
  978.301,1056.65 992.472,1050.13 1006.64,1043.55 1020.81,1036.9 1034.99,1030.19 1049.16,1023.42 1063.33,1016.58 1077.5,1009.67 1091.67,1002.71 1105.84,995.675 
  1120.01,988.578 1134.18,981.418 1148.35,974.193 1162.53,966.903 1176.7,959.55 1190.87,952.132 1205.04,944.65 1219.21,937.104 1233.38,929.493 1247.55,921.819 
  1261.72,914.08 1275.89,906.276 1290.07,898.409 1304.24,890.477 1318.41,882.48 1332.58,874.42 1346.75,866.295 1360.92,858.106 1375.09,849.853 1389.26,841.535 
  1403.43,833.154 1417.61,824.707 1431.78,816.197 1445.95,807.622 1460.12,798.984 1474.29,790.28 1488.46,781.513 1502.63,772.681 1516.8,763.785 1530.97,754.825 
  1545.15,745.8 1559.32,736.712 1573.49,727.558 1587.66,718.341 1601.83,709.059 1616,699.713 1630.17,690.303 1644.34,680.829 1658.51,671.29 1672.68,661.687 
  1686.86,652.02 1701.03,642.288 1715.2,632.492 1729.37,622.632 1743.54,612.708 1757.71,602.719 1771.88,592.666 1786.05,582.549 1800.22,572.368 1814.4,562.122 
  1828.57,551.812 1842.74,541.438 1856.91,530.999 1871.08,520.496 1885.25,509.929 1899.42,499.298 1913.59,488.602 1927.76,477.842 1941.94,467.018 1956.11,456.13 
  1970.28,445.177 1984.45,434.16 1998.62,423.079 2012.79,411.933 2026.96,400.723 2041.13,389.449 2055.3,378.111 2069.48,366.708 2083.65,355.241 2097.82,343.71 
  2111.99,332.115 2126.16,320.455 2140.33,308.731 2154.5,296.943 2168.67,285.09 2182.84,273.173 2197.02,261.192 2211.19,249.147 2225.36,237.037 2239.53,224.863 
  2253.7,212.625 2267.87,200.323 2282.04,187.956 2296.21,175.525 
  "/>
<path clip-path="url(#clip580)" d="
M421.509 363.973 L1352.81 363.973 L1352.81 91.8126 L421.509 91.8126  Z
  " fill="#ffffff" fill-rule="evenodd" fill-opacity="1"/>
<polyline clip-path="url(#clip580)" style="stroke:#000000; stroke-linecap:round; stroke-linejoin:round; stroke-width:4; stroke-opacity:1; fill:none" points="
  421.509,363.973 1352.81,363.973 1352.81,91.8126 421.509,91.8126 421.509,363.973 
  "/>
<circle clip-path="url(#clip580)" cx="510.302" cy="182.533" r="40.32" fill="#009af9" fill-rule="evenodd" fill-opacity="1" stroke="#000000" stroke-opacity="1" stroke-width="8.96"/>
<path clip-path="url(#clip580)" d="M638.025 154.278 L638.025 162.258 Q633.366 160.03 629.234 158.936 Q625.102 157.842 621.254 157.842 Q614.57 157.842 610.924 160.435 Q607.319 163.028 607.319 167.808 Q607.319 171.818 609.709 173.884 Q612.139 175.909 618.864 177.165 L623.806 178.178 Q632.961 179.92 637.295 184.335 Q641.67 188.71 641.67 196.083 Q641.67 204.873 635.756 209.41 Q629.882 213.947 618.499 213.947 Q614.205 213.947 609.344 212.975 Q604.524 212.003 599.338 210.099 L599.338 201.673 Q604.321 204.468 609.101 205.886 Q613.881 207.304 618.499 207.304 Q625.507 207.304 629.315 204.549 Q633.123 201.795 633.123 196.691 Q633.123 192.235 630.368 189.723 Q627.654 187.211 621.416 185.956 L616.433 184.983 Q607.278 183.161 603.187 179.272 Q599.095 175.383 599.095 168.456 Q599.095 160.435 604.726 155.817 Q610.397 151.199 620.322 151.199 Q624.576 151.199 628.991 151.969 Q633.406 152.738 638.025 154.278 Z" fill="#000000" fill-rule="evenodd" fill-opacity="1" /><path clip-path="url(#clip580)" d="M692.914 188.224 L692.914 191.87 L658.644 191.87 Q659.13 199.567 663.262 203.618 Q667.434 207.628 674.847 207.628 Q679.141 207.628 683.152 206.575 Q687.202 205.522 691.172 203.415 L691.172 210.464 Q687.162 212.165 682.949 213.056 Q678.736 213.947 674.402 213.947 Q663.545 213.947 657.185 207.628 Q650.866 201.309 650.866 190.533 Q650.866 179.393 656.861 172.871 Q662.897 166.309 673.105 166.309 Q682.26 166.309 687.567 172.223 Q692.914 178.097 692.914 188.224 M685.461 186.037 Q685.38 179.92 682.017 176.274 Q678.696 172.628 673.186 172.628 Q666.948 172.628 663.181 176.152 Q659.454 179.677 658.887 186.077 L685.461 186.037 Z" fill="#000000" fill-rule="evenodd" fill-opacity="1" /><path clip-path="url(#clip580)" d="M725.767 189.966 Q716.734 189.966 713.25 192.032 Q709.766 194.098 709.766 199.081 Q709.766 203.05 712.359 205.4 Q714.992 207.709 719.488 207.709 Q725.686 207.709 729.413 203.334 Q733.18 198.919 733.18 191.627 L733.18 189.966 L725.767 189.966 M740.634 186.887 L740.634 212.773 L733.18 212.773 L733.18 205.886 Q730.628 210.018 726.82 212.003 Q723.012 213.947 717.503 213.947 Q710.536 213.947 706.404 210.059 Q702.312 206.129 702.312 199.567 Q702.312 191.91 707.416 188.022 Q712.561 184.133 722.729 184.133 L733.18 184.133 L733.18 183.404 Q733.18 178.259 729.777 175.464 Q726.415 172.628 720.298 172.628 Q716.41 172.628 712.723 173.56 Q709.037 174.492 705.634 176.355 L705.634 169.468 Q709.726 167.889 713.574 167.119 Q717.422 166.309 721.068 166.309 Q730.912 166.309 735.773 171.413 Q740.634 176.517 740.634 186.887 Z" fill="#000000" fill-rule="evenodd" fill-opacity="1" /><path clip-path="url(#clip580)" d="M752.219 186.725 L774.054 186.725 L774.054 193.369 L752.219 193.369 L752.219 186.725 Z" fill="#000000" fill-rule="evenodd" fill-opacity="1" /><path clip-path="url(#clip580)" d="M786.247 152.293 L794.43 152.293 L794.43 205.886 L823.88 205.886 L823.88 212.773 L786.247 212.773 L786.247 152.293 Z" fill="#000000" fill-rule="evenodd" fill-opacity="1" /><path clip-path="url(#clip580)" d="M869.493 188.224 L869.493 191.87 L835.223 191.87 Q835.709 199.567 839.841 203.618 Q844.013 207.628 851.426 207.628 Q855.72 207.628 859.73 206.575 Q863.781 205.522 867.751 203.415 L867.751 210.464 Q863.741 212.165 859.528 213.056 Q855.315 213.947 850.981 213.947 Q840.124 213.947 833.764 207.628 Q827.445 201.309 827.445 190.533 Q827.445 179.393 833.44 172.871 Q839.476 166.309 849.684 166.309 Q858.839 166.309 864.146 172.223 Q869.493 178.097 869.493 188.224 M862.04 186.037 Q861.958 179.92 858.596 176.274 Q855.275 172.628 849.765 172.628 Q843.527 172.628 839.76 176.152 Q836.033 179.677 835.466 186.077 L862.04 186.037 Z" fill="#000000" fill-rule="evenodd" fill-opacity="1" /><path clip-path="url(#clip580)" d="M876.38 167.402 L884.279 167.402 L898.457 205.481 L912.635 167.402 L920.535 167.402 L903.521 212.773 L893.394 212.773 L876.38 167.402 Z" fill="#000000" fill-rule="evenodd" fill-opacity="1" /><path clip-path="url(#clip580)" d="M969.632 188.224 L969.632 191.87 L935.361 191.87 Q935.847 199.567 939.979 203.618 Q944.151 207.628 951.564 207.628 Q955.858 207.628 959.869 206.575 Q963.92 205.522 967.89 203.415 L967.89 210.464 Q963.879 212.165 959.666 213.056 Q955.453 213.947 951.119 213.947 Q940.262 213.947 933.903 207.628 Q927.583 201.309 927.583 190.533 Q927.583 179.393 933.578 172.871 Q939.614 166.309 949.823 166.309 Q958.978 166.309 964.284 172.223 Q969.632 178.097 969.632 188.224 M962.178 186.037 Q962.097 179.92 958.735 176.274 Q955.413 172.628 949.904 172.628 Q943.665 172.628 939.898 176.152 Q936.171 179.677 935.604 186.077 L962.178 186.037 Z" fill="#000000" fill-rule="evenodd" fill-opacity="1" /><path clip-path="url(#clip580)" d="M981.865 149.741 L989.319 149.741 L989.319 212.773 L981.865 212.773 L981.865 149.741 Z" fill="#000000" fill-rule="evenodd" fill-opacity="1" /><path clip-path="url(#clip580)" d="M1039.79 159.017 L1039.79 206.048 L1049.68 206.048 Q1062.19 206.048 1067.99 200.377 Q1073.82 194.706 1073.82 182.472 Q1073.82 170.319 1067.99 164.688 Q1062.19 159.017 1049.68 159.017 L1039.79 159.017 M1031.61 152.293 L1048.42 152.293 Q1066 152.293 1074.23 159.625 Q1082.45 166.916 1082.45 182.472 Q1082.45 198.108 1074.19 205.44 Q1065.92 212.773 1048.42 212.773 L1031.61 212.773 L1031.61 152.293 Z" fill="#000000" fill-rule="evenodd" fill-opacity="1" /><path clip-path="url(#clip580)" d="M1115.79 189.966 Q1106.75 189.966 1103.27 192.032 Q1099.79 194.098 1099.79 199.081 Q1099.79 203.05 1102.38 205.4 Q1105.01 207.709 1109.51 207.709 Q1115.71 207.709 1119.43 203.334 Q1123.2 198.919 1123.2 191.627 L1123.2 189.966 L1115.79 189.966 M1130.65 186.887 L1130.65 212.773 L1123.2 212.773 L1123.2 205.886 Q1120.65 210.018 1116.84 212.003 Q1113.03 213.947 1107.52 213.947 Q1100.56 213.947 1096.42 210.059 Q1092.33 206.129 1092.33 199.567 Q1092.33 191.91 1097.44 188.022 Q1102.58 184.133 1112.75 184.133 L1123.2 184.133 L1123.2 183.404 Q1123.2 178.259 1119.8 175.464 Q1116.44 172.628 1110.32 172.628 Q1106.43 172.628 1102.74 173.56 Q1099.06 174.492 1095.66 176.355 L1095.66 169.468 Q1099.75 167.889 1103.59 167.119 Q1107.44 166.309 1111.09 166.309 Q1120.93 166.309 1125.79 171.413 Q1130.65 176.517 1130.65 186.887 Z" fill="#000000" fill-rule="evenodd" fill-opacity="1" /><path clip-path="url(#clip580)" d="M1153.38 154.521 L1153.38 167.402 L1168.73 167.402 L1168.73 173.195 L1153.38 173.195 L1153.38 197.825 Q1153.38 203.375 1154.88 204.954 Q1156.42 206.534 1161.08 206.534 L1168.73 206.534 L1168.73 212.773 L1161.08 212.773 Q1152.45 212.773 1149.17 209.572 Q1145.89 206.332 1145.89 197.825 L1145.89 173.195 L1140.42 173.195 L1140.42 167.402 L1145.89 167.402 L1145.89 154.521 L1153.38 154.521 Z" fill="#000000" fill-rule="evenodd" fill-opacity="1" /><path clip-path="url(#clip580)" d="M1199.16 189.966 Q1190.12 189.966 1186.64 192.032 Q1183.15 194.098 1183.15 199.081 Q1183.15 203.05 1185.75 205.4 Q1188.38 207.709 1192.88 207.709 Q1199.07 207.709 1202.8 203.334 Q1206.57 198.919 1206.57 191.627 L1206.57 189.966 L1199.16 189.966 M1214.02 186.887 L1214.02 212.773 L1206.57 212.773 L1206.57 205.886 Q1204.02 210.018 1200.21 212.003 Q1196.4 213.947 1190.89 213.947 Q1183.92 213.947 1179.79 210.059 Q1175.7 206.129 1175.7 199.567 Q1175.7 191.91 1180.81 188.022 Q1185.95 184.133 1196.12 184.133 L1206.57 184.133 L1206.57 183.404 Q1206.57 178.259 1203.17 175.464 Q1199.8 172.628 1193.69 172.628 Q1189.8 172.628 1186.11 173.56 Q1182.43 174.492 1179.02 176.355 L1179.02 169.468 Q1183.11 167.889 1186.96 167.119 Q1190.81 166.309 1194.46 166.309 Q1204.3 166.309 1209.16 171.413 Q1214.02 176.517 1214.02 186.887 Z" fill="#000000" fill-rule="evenodd" fill-opacity="1" /><polyline clip-path="url(#clip580)" style="stroke:#ff0000; stroke-linecap:round; stroke-linejoin:round; stroke-width:21; stroke-opacity:1; fill:none" points="
  443.708,273.253 576.897,273.253 
  "/>
<path clip-path="url(#clip580)" d="M607.278 274.61 L607.278 296.768 L620.403 296.768 Q627.006 296.768 630.166 294.054 Q633.366 291.299 633.366 285.669 Q633.366 279.997 630.166 277.324 Q627.006 274.61 620.403 274.61 L607.278 274.61 M607.278 249.737 L607.278 267.966 L619.39 267.966 Q625.386 267.966 628.302 265.738 Q631.259 263.47 631.259 258.852 Q631.259 254.274 628.302 252.006 Q625.386 249.737 619.39 249.737 L607.278 249.737 M599.095 243.013 L619.998 243.013 Q629.356 243.013 634.419 246.901 Q639.483 250.79 639.483 257.96 Q639.483 263.51 636.89 266.791 Q634.298 270.073 629.275 270.883 Q635.31 272.179 638.632 276.311 Q641.994 280.402 641.994 286.56 Q641.994 294.662 636.485 299.077 Q630.976 303.493 620.808 303.493 L599.095 303.493 L599.095 243.013 Z" fill="#000000" fill-rule="evenodd" fill-opacity="1" /><path clip-path="url(#clip580)" d="M694.494 278.944 L694.494 282.59 L660.223 282.59 Q660.71 290.287 664.841 294.338 Q669.014 298.348 676.427 298.348 Q680.721 298.348 684.731 297.295 Q688.782 296.242 692.752 294.135 L692.752 301.184 Q688.742 302.885 684.529 303.776 Q680.316 304.667 675.981 304.667 Q665.125 304.667 658.765 298.348 Q652.446 292.029 652.446 281.253 Q652.446 270.113 658.441 263.591 Q664.477 257.029 674.685 257.029 Q683.84 257.029 689.147 262.943 Q694.494 268.817 694.494 278.944 M687.04 276.757 Q686.959 270.64 683.597 266.994 Q680.275 263.348 674.766 263.348 Q668.528 263.348 664.76 266.872 Q661.034 270.397 660.467 276.797 L687.04 276.757 Z" fill="#000000" fill-rule="evenodd" fill-opacity="1" /><path clip-path="url(#clip580)" d="M735.651 259.459 L735.651 266.508 Q732.492 264.888 729.089 264.077 Q725.686 263.267 722.04 263.267 Q716.491 263.267 713.695 264.969 Q710.941 266.67 710.941 270.073 Q710.941 272.665 712.926 274.164 Q714.911 275.622 720.906 276.959 L723.458 277.526 Q731.398 279.228 734.72 282.347 Q738.082 285.426 738.082 290.975 Q738.082 297.295 733.059 300.981 Q728.076 304.667 719.326 304.667 Q715.68 304.667 711.71 303.938 Q707.781 303.25 703.406 301.832 L703.406 294.135 Q707.538 296.282 711.548 297.376 Q715.559 298.429 719.488 298.429 Q724.754 298.429 727.59 296.647 Q730.426 294.824 730.426 291.542 Q730.426 288.504 728.36 286.884 Q726.334 285.264 719.407 283.765 L716.815 283.157 Q709.888 281.699 706.809 278.701 Q703.73 275.663 703.73 270.397 Q703.73 263.996 708.267 260.513 Q712.804 257.029 721.149 257.029 Q725.281 257.029 728.927 257.636 Q732.573 258.244 735.651 259.459 Z" fill="#000000" fill-rule="evenodd" fill-opacity="1" /><path clip-path="url(#clip580)" d="M757.324 245.241 L757.324 258.122 L772.677 258.122 L772.677 263.915 L757.324 263.915 L757.324 288.545 Q757.324 294.095 758.822 295.674 Q760.362 297.254 765.02 297.254 L772.677 297.254 L772.677 303.493 L765.02 303.493 Q756.392 303.493 753.111 300.292 Q749.829 297.052 749.829 288.545 L749.829 263.915 L744.361 263.915 L744.361 258.122 L749.829 258.122 L749.829 245.241 L757.324 245.241 Z" fill="#000000" fill-rule="evenodd" fill-opacity="1" /><path clip-path="url(#clip580)" d="M778.712 277.445 L800.547 277.445 L800.547 284.089 L778.712 284.089 L778.712 277.445 Z" fill="#000000" fill-rule="evenodd" fill-opacity="1" /><path clip-path="url(#clip580)" d="M812.74 243.013 L847.497 243.013 L847.497 249.899 L820.923 249.899 L820.923 267.723 L844.904 267.723 L844.904 274.61 L820.923 274.61 L820.923 303.493 L812.74 303.493 L812.74 243.013 Z" fill="#000000" fill-rule="evenodd" fill-opacity="1" /><path clip-path="url(#clip580)" d="M854.1 258.122 L861.553 258.122 L861.553 303.493 L854.1 303.493 L854.1 258.122 M854.1 240.461 L861.553 240.461 L861.553 249.899 L854.1 249.899 L854.1 240.461 Z" fill="#000000" fill-rule="evenodd" fill-opacity="1" /><path clip-path="url(#clip580)" d="M884.522 245.241 L884.522 258.122 L899.875 258.122 L899.875 263.915 L884.522 263.915 L884.522 288.545 Q884.522 294.095 886.021 295.674 Q887.56 297.254 892.219 297.254 L899.875 297.254 L899.875 303.493 L892.219 303.493 Q883.59 303.493 880.309 300.292 Q877.028 297.052 877.028 288.545 L877.028 263.915 L871.559 263.915 L871.559 258.122 L877.028 258.122 L877.028 245.241 L884.522 245.241 Z" fill="#000000" fill-rule="evenodd" fill-opacity="1" /><path clip-path="url(#clip580)" d="M960.922 248.562 Q952.01 248.562 946.744 255.206 Q941.518 261.849 941.518 273.313 Q941.518 284.737 946.744 291.38 Q952.01 298.024 960.922 298.024 Q969.834 298.024 975.019 291.38 Q980.245 284.737 980.245 273.313 Q980.245 261.849 975.019 255.206 Q969.834 248.562 960.922 248.562 M972.386 302.399 L983.162 314.187 L973.277 314.187 L964.325 304.505 Q962.988 304.586 962.259 304.627 Q961.57 304.667 960.922 304.667 Q948.162 304.667 940.506 296.16 Q932.89 287.613 932.89 273.313 Q932.89 258.973 940.506 250.466 Q948.162 241.919 960.922 241.919 Q973.642 241.919 981.258 250.466 Q988.873 258.973 988.873 273.313 Q988.873 283.846 984.62 291.34 Q980.407 298.834 972.386 302.399 Z" fill="#000000" fill-rule="evenodd" fill-opacity="1" /><path clip-path="url(#clip580)" d="M1000.58 285.588 L1000.58 258.122 L1008.03 258.122 L1008.03 285.304 Q1008.03 291.745 1010.55 294.986 Q1013.06 298.186 1018.08 298.186 Q1024.12 298.186 1027.6 294.338 Q1031.12 290.489 1031.12 283.846 L1031.12 258.122 L1038.58 258.122 L1038.58 303.493 L1031.12 303.493 L1031.12 296.525 Q1028.41 300.657 1024.8 302.682 Q1021.24 304.667 1016.5 304.667 Q1008.68 304.667 1004.63 299.806 Q1000.58 294.945 1000.58 285.588 M1019.34 257.029 L1019.34 257.029 Z" fill="#000000" fill-rule="evenodd" fill-opacity="1" /><path clip-path="url(#clip580)" d="M1074.55 280.686 Q1065.52 280.686 1062.03 282.752 Q1058.55 284.818 1058.55 289.801 Q1058.55 293.77 1061.14 296.12 Q1063.77 298.429 1068.27 298.429 Q1074.47 298.429 1078.2 294.054 Q1081.96 289.639 1081.96 282.347 L1081.96 280.686 L1074.55 280.686 M1089.42 277.607 L1089.42 303.493 L1081.96 303.493 L1081.96 296.606 Q1079.41 300.738 1075.6 302.723 Q1071.8 304.667 1066.29 304.667 Q1059.32 304.667 1055.19 300.779 Q1051.1 296.849 1051.1 290.287 Q1051.1 282.63 1056.2 278.742 Q1061.34 274.853 1071.51 274.853 L1081.96 274.853 L1081.96 274.124 Q1081.96 268.979 1078.56 266.184 Q1075.2 263.348 1069.08 263.348 Q1065.19 263.348 1061.51 264.28 Q1057.82 265.212 1054.42 267.075 L1054.42 260.188 Q1058.51 258.609 1062.36 257.839 Q1066.21 257.029 1069.85 257.029 Q1079.69 257.029 1084.56 262.133 Q1089.42 267.237 1089.42 277.607 Z" fill="#000000" fill-rule="evenodd" fill-opacity="1" /><path clip-path="url(#clip580)" d="M1134.62 265.009 L1134.62 240.461 L1142.08 240.461 L1142.08 303.493 L1134.62 303.493 L1134.62 296.687 Q1132.28 300.738 1128.67 302.723 Q1125.11 304.667 1120.08 304.667 Q1111.86 304.667 1106.67 298.105 Q1101.53 291.542 1101.53 280.848 Q1101.53 270.154 1106.67 263.591 Q1111.86 257.029 1120.08 257.029 Q1125.11 257.029 1128.67 259.014 Q1132.28 260.958 1134.62 265.009 M1109.23 280.848 Q1109.23 289.071 1112.59 293.77 Q1115.99 298.429 1121.91 298.429 Q1127.82 298.429 1131.22 293.77 Q1134.62 289.071 1134.62 280.848 Q1134.62 272.625 1131.22 267.966 Q1127.82 263.267 1121.91 263.267 Q1115.99 263.267 1112.59 267.966 Q1109.23 272.625 1109.23 280.848 Z" fill="#000000" fill-rule="evenodd" fill-opacity="1" /><path clip-path="url(#clip580)" d="M1183.72 265.09 Q1182.47 264.361 1180.97 264.037 Q1179.51 263.672 1177.73 263.672 Q1171.41 263.672 1168 267.804 Q1164.64 271.896 1164.64 279.592 L1164.64 303.493 L1157.15 303.493 L1157.15 258.122 L1164.64 258.122 L1164.64 265.171 Q1166.99 261.039 1170.76 259.054 Q1174.53 257.029 1179.91 257.029 Q1180.68 257.029 1181.62 257.15 Q1182.55 257.231 1183.68 257.434 L1183.72 265.09 Z" fill="#000000" fill-rule="evenodd" fill-opacity="1" /><path clip-path="url(#clip580)" d="M1212.16 280.686 Q1203.13 280.686 1199.64 282.752 Q1196.16 284.818 1196.16 289.801 Q1196.16 293.77 1198.75 296.12 Q1201.38 298.429 1205.88 298.429 Q1212.08 298.429 1215.8 294.054 Q1219.57 289.639 1219.57 282.347 L1219.57 280.686 L1212.16 280.686 M1227.03 277.607 L1227.03 303.493 L1219.57 303.493 L1219.57 296.606 Q1217.02 300.738 1213.21 302.723 Q1209.4 304.667 1203.9 304.667 Q1196.93 304.667 1192.8 300.779 Q1188.7 296.849 1188.7 290.287 Q1188.7 282.63 1193.81 278.742 Q1198.95 274.853 1209.12 274.853 L1219.57 274.853 L1219.57 274.124 Q1219.57 268.979 1216.17 266.184 Q1212.81 263.348 1206.69 263.348 Q1202.8 263.348 1199.12 264.28 Q1195.43 265.212 1192.03 267.075 L1192.03 260.188 Q1196.12 258.609 1199.97 257.839 Q1203.81 257.029 1207.46 257.029 Q1217.3 257.029 1222.16 262.133 Q1227.03 267.237 1227.03 277.607 Z" fill="#000000" fill-rule="evenodd" fill-opacity="1" /><path clip-path="url(#clip580)" d="M1249.75 245.241 L1249.75 258.122 L1265.1 258.122 L1265.1 263.915 L1249.75 263.915 L1249.75 288.545 Q1249.75 294.095 1251.25 295.674 Q1252.79 297.254 1257.45 297.254 L1265.1 297.254 L1265.1 303.493 L1257.45 303.493 Q1248.82 303.493 1245.54 300.292 Q1242.26 297.052 1242.26 288.545 L1242.26 263.915 L1236.79 263.915 L1236.79 258.122 L1242.26 258.122 L1242.26 245.241 L1249.75 245.241 Z" fill="#000000" fill-rule="evenodd" fill-opacity="1" /><path clip-path="url(#clip580)" d="M1274.91 258.122 L1282.36 258.122 L1282.36 303.493 L1274.91 303.493 L1274.91 258.122 M1274.91 240.461 L1282.36 240.461 L1282.36 249.899 L1274.91 249.899 L1274.91 240.461 Z" fill="#000000" fill-rule="evenodd" fill-opacity="1" /><path clip-path="url(#clip580)" d="M1330.61 259.864 L1330.61 266.832 Q1327.45 265.09 1324.25 264.239 Q1321.09 263.348 1317.85 263.348 Q1310.6 263.348 1306.59 267.966 Q1302.58 272.544 1302.58 280.848 Q1302.58 289.152 1306.59 293.77 Q1310.6 298.348 1317.85 298.348 Q1321.09 298.348 1324.25 297.497 Q1327.45 296.606 1330.61 294.864 L1330.61 301.751 Q1327.49 303.209 1324.13 303.938 Q1320.8 304.667 1317.04 304.667 Q1306.79 304.667 1300.75 298.226 Q1294.72 291.786 1294.72 280.848 Q1294.72 269.749 1300.79 263.389 Q1306.91 257.029 1317.52 257.029 Q1320.97 257.029 1324.25 257.758 Q1327.53 258.447 1330.61 259.864 Z" fill="#000000" fill-rule="evenodd" fill-opacity="1" /></svg>
