<?xml version="1.0" encoding="utf-8"?>
<svg xmlns="http://www.w3.org/2000/svg" xmlns:xlink="http://www.w3.org/1999/xlink" width="600" height="400" viewBox="0 0 2400 1600">
<defs>
  <clipPath id="clip330">
    <rect x="0" y="0" width="2400" height="1600"/>
  </clipPath>
</defs>
<path clip-path="url(#clip330)" d="
M0 1600 L2400 1600 L2400 0 L0 0  Z
  " fill="#ffffff" fill-rule="evenodd" fill-opacity="1"/>
<defs>
  <clipPath id="clip331">
    <rect x="480" y="0" width="1681" height="1600"/>
  </clipPath>
</defs>
<path clip-path="url(#clip330)" d="
M354.915 1384.3 L2352.76 1384.3 L2352.76 132.112 L354.915 132.112  Z
  " fill="#ffffff" fill-rule="evenodd" fill-opacity="1"/>
<defs>
  <clipPath id="clip332">
    <rect x="354" y="132" width="1999" height="1253"/>
  </clipPath>
</defs>
<polyline clip-path="url(#clip332)" style="stroke:#000000; stroke-linecap:round; stroke-linejoin:round; stroke-width:2; stroke-opacity:0.1; fill:none" points="
  687.794,1384.3 687.794,132.112 
  "/>
<polyline clip-path="url(#clip332)" style="stroke:#000000; stroke-linecap:round; stroke-linejoin:round; stroke-width:2; stroke-opacity:0.1; fill:none" points="
  1042.07,1384.3 1042.07,132.112 
  "/>
<polyline clip-path="url(#clip332)" style="stroke:#000000; stroke-linecap:round; stroke-linejoin:round; stroke-width:2; stroke-opacity:0.1; fill:none" points="
  1396.35,1384.3 1396.35,132.112 
  "/>
<polyline clip-path="url(#clip332)" style="stroke:#000000; stroke-linecap:round; stroke-linejoin:round; stroke-width:2; stroke-opacity:0.1; fill:none" points="
  1750.63,1384.3 1750.63,132.112 
  "/>
<polyline clip-path="url(#clip332)" style="stroke:#000000; stroke-linecap:round; stroke-linejoin:round; stroke-width:2; stroke-opacity:0.1; fill:none" points="
  2104.9,1384.3 2104.9,132.112 
  "/>
<polyline clip-path="url(#clip330)" style="stroke:#000000; stroke-linecap:round; stroke-linejoin:round; stroke-width:4; stroke-opacity:1; fill:none" points="
  354.915,1384.3 2352.76,1384.3 
  "/>
<polyline clip-path="url(#clip330)" style="stroke:#000000; stroke-linecap:round; stroke-linejoin:round; stroke-width:4; stroke-opacity:1; fill:none" points="
  687.794,1384.3 687.794,1365.4 
  "/>
<polyline clip-path="url(#clip330)" style="stroke:#000000; stroke-linecap:round; stroke-linejoin:round; stroke-width:4; stroke-opacity:1; fill:none" points="
  1042.07,1384.3 1042.07,1365.4 
  "/>
<polyline clip-path="url(#clip330)" style="stroke:#000000; stroke-linecap:round; stroke-linejoin:round; stroke-width:4; stroke-opacity:1; fill:none" points="
  1396.35,1384.3 1396.35,1365.4 
  "/>
<polyline clip-path="url(#clip330)" style="stroke:#000000; stroke-linecap:round; stroke-linejoin:round; stroke-width:4; stroke-opacity:1; fill:none" points="
  1750.63,1384.3 1750.63,1365.4 
  "/>
<polyline clip-path="url(#clip330)" style="stroke:#000000; stroke-linecap:round; stroke-linejoin:round; stroke-width:4; stroke-opacity:1; fill:none" points="
  2104.9,1384.3 2104.9,1365.4 
  "/>
<path clip-path="url(#clip330)" d="M604.582 1462.4 L616.041 1462.4 L616.041 1422.85 L603.575 1425.35 L603.575 1418.96 L615.971 1416.46 L622.985 1416.46 L622.985 1462.4 L634.443 1462.4 L634.443 1468.3 L604.582 1468.3 L604.582 1462.4 Z" fill="#000000" fill-rule="evenodd" fill-opacity="1" /><path clip-path="url(#clip330)" d="M648.818 1467.22 L648.818 1460.83 Q651.457 1462.08 654.165 1462.74 Q656.874 1463.4 659.478 1463.4 Q666.422 1463.4 670.068 1458.75 Q673.749 1454.06 674.27 1444.55 Q672.256 1447.54 669.165 1449.13 Q666.075 1450.73 662.325 1450.73 Q654.547 1450.73 649.999 1446.04 Q645.485 1441.32 645.485 1433.16 Q645.485 1425.18 650.207 1420.35 Q654.929 1415.52 662.777 1415.52 Q671.77 1415.52 676.492 1422.43 Q681.249 1429.31 681.249 1442.43 Q681.249 1454.69 675.415 1462.02 Q669.617 1469.31 659.79 1469.31 Q657.152 1469.31 654.443 1468.79 Q651.735 1468.27 648.818 1467.22 M662.777 1445.24 Q667.499 1445.24 670.242 1442.02 Q673.02 1438.79 673.02 1433.16 Q673.02 1427.57 670.242 1424.34 Q667.499 1421.08 662.777 1421.08 Q658.054 1421.08 655.277 1424.34 Q652.534 1427.57 652.534 1433.16 Q652.534 1438.79 655.277 1442.02 Q658.054 1445.24 662.777 1445.24 Z" fill="#000000" fill-rule="evenodd" fill-opacity="1" /><path clip-path="url(#clip330)" d="M708.853 1421.08 Q703.436 1421.08 700.693 1426.43 Q697.985 1431.74 697.985 1442.43 Q697.985 1453.09 700.693 1458.44 Q703.436 1463.75 708.853 1463.75 Q714.304 1463.75 717.012 1458.44 Q719.755 1453.09 719.755 1442.43 Q719.755 1431.74 717.012 1426.43 Q714.304 1421.08 708.853 1421.08 M708.853 1415.52 Q717.568 1415.52 722.151 1422.43 Q726.769 1429.31 726.769 1442.43 Q726.769 1455.52 722.151 1462.43 Q717.568 1469.31 708.853 1469.31 Q700.137 1469.31 695.519 1462.43 Q690.936 1455.52 690.936 1442.43 Q690.936 1429.31 695.519 1422.43 Q700.137 1415.52 708.853 1415.52 Z" fill="#000000" fill-rule="evenodd" fill-opacity="1" /><path clip-path="url(#clip330)" d="M754.096 1421.08 Q748.679 1421.08 745.936 1426.43 Q743.228 1431.74 743.228 1442.43 Q743.228 1453.09 745.936 1458.44 Q748.679 1463.75 754.096 1463.75 Q759.547 1463.75 762.255 1458.44 Q764.998 1453.09 764.998 1442.43 Q764.998 1431.74 762.255 1426.43 Q759.547 1421.08 754.096 1421.08 M754.096 1415.52 Q762.811 1415.52 767.394 1422.43 Q772.012 1429.31 772.012 1442.43 Q772.012 1455.52 767.394 1462.43 Q762.811 1469.31 754.096 1469.31 Q745.38 1469.31 740.762 1462.43 Q736.179 1455.52 736.179 1442.43 Q736.179 1429.31 740.762 1422.43 Q745.38 1415.52 754.096 1415.52 Z" fill="#000000" fill-rule="evenodd" fill-opacity="1" /><path clip-path="url(#clip330)" d="M959.606 1462.4 L971.065 1462.4 L971.065 1422.85 L958.599 1425.35 L958.599 1418.96 L970.995 1416.46 L978.009 1416.46 L978.009 1462.4 L989.467 1462.4 L989.467 1468.3 L959.606 1468.3 L959.606 1462.4 Z" fill="#000000" fill-rule="evenodd" fill-opacity="1" /><path clip-path="url(#clip330)" d="M1003.84 1467.22 L1003.84 1460.83 Q1006.48 1462.08 1009.19 1462.74 Q1011.9 1463.4 1014.5 1463.4 Q1021.45 1463.4 1025.09 1458.75 Q1028.77 1454.06 1029.29 1444.55 Q1027.28 1447.54 1024.19 1449.13 Q1021.1 1450.73 1017.35 1450.73 Q1009.57 1450.73 1005.02 1446.04 Q1000.51 1441.32 1000.51 1433.16 Q1000.51 1425.18 1005.23 1420.35 Q1009.95 1415.52 1017.8 1415.52 Q1026.79 1415.52 1031.52 1422.43 Q1036.27 1429.31 1036.27 1442.43 Q1036.27 1454.69 1030.44 1462.02 Q1024.64 1469.31 1014.81 1469.31 Q1012.18 1469.31 1009.47 1468.79 Q1006.76 1468.27 1003.84 1467.22 M1017.8 1445.24 Q1022.52 1445.24 1025.27 1442.02 Q1028.04 1438.79 1028.04 1433.16 Q1028.04 1427.57 1025.27 1424.34 Q1022.52 1421.08 1017.8 1421.08 Q1013.08 1421.08 1010.3 1424.34 Q1007.56 1427.57 1007.56 1433.16 Q1007.56 1438.79 1010.3 1442.02 Q1013.08 1445.24 1017.8 1445.24 Z" fill="#000000" fill-rule="evenodd" fill-opacity="1" /><path clip-path="url(#clip330)" d="M1054.92 1462.4 L1079.4 1462.4 L1079.4 1468.3 L1046.48 1468.3 L1046.48 1462.4 Q1050.47 1458.27 1057.35 1451.32 Q1064.26 1444.34 1066.03 1442.33 Q1069.4 1438.54 1070.72 1435.94 Q1072.07 1433.3 1072.07 1430.77 Q1072.07 1426.63 1069.15 1424.03 Q1066.27 1421.43 1061.62 1421.43 Q1058.32 1421.43 1054.64 1422.57 Q1050.99 1423.72 1046.83 1426.04 L1046.83 1418.96 Q1051.06 1417.26 1054.74 1416.39 Q1058.43 1415.52 1061.48 1415.52 Q1069.54 1415.52 1074.33 1419.55 Q1079.12 1423.58 1079.12 1430.31 Q1079.12 1433.51 1077.9 1436.39 Q1076.72 1439.24 1073.56 1443.13 Q1072.7 1444.13 1068.04 1448.96 Q1063.39 1453.75 1054.92 1462.4 Z" fill="#000000" fill-rule="evenodd" fill-opacity="1" /><path clip-path="url(#clip330)" d="M1094.19 1416.46 L1121.72 1416.46 L1121.72 1422.36 L1100.61 1422.36 L1100.61 1435.07 Q1102.14 1434.55 1103.67 1434.31 Q1105.2 1434.03 1106.72 1434.03 Q1115.4 1434.03 1120.47 1438.79 Q1125.54 1443.54 1125.54 1451.67 Q1125.54 1460.04 1120.33 1464.69 Q1115.13 1469.31 1105.65 1469.31 Q1102.38 1469.31 1098.98 1468.75 Q1095.61 1468.2 1092 1467.08 L1092 1460.04 Q1095.13 1461.74 1098.46 1462.57 Q1101.79 1463.4 1105.51 1463.4 Q1111.52 1463.4 1115.02 1460.24 Q1118.53 1457.08 1118.53 1451.67 Q1118.53 1446.25 1115.02 1443.09 Q1111.52 1439.93 1105.51 1439.93 Q1102.7 1439.93 1099.88 1440.56 Q1097.11 1441.18 1094.19 1442.5 L1094.19 1416.46 Z" fill="#000000" fill-rule="evenodd" fill-opacity="1" /><path clip-path="url(#clip330)" d="M1313.14 1462.4 L1324.6 1462.4 L1324.6 1422.85 L1312.13 1425.35 L1312.13 1418.96 L1324.53 1416.46 L1331.54 1416.46 L1331.54 1462.4 L1343 1462.4 L1343 1468.3 L1313.14 1468.3 L1313.14 1462.4 Z" fill="#000000" fill-rule="evenodd" fill-opacity="1" /><path clip-path="url(#clip330)" d="M1357.37 1467.22 L1357.37 1460.83 Q1360.01 1462.08 1362.72 1462.74 Q1365.43 1463.4 1368.03 1463.4 Q1374.98 1463.4 1378.62 1458.75 Q1382.3 1454.06 1382.82 1444.55 Q1380.81 1447.54 1377.72 1449.13 Q1374.63 1450.73 1370.88 1450.73 Q1363.1 1450.73 1358.55 1446.04 Q1354.04 1441.32 1354.04 1433.16 Q1354.04 1425.18 1358.76 1420.35 Q1363.48 1415.52 1371.33 1415.52 Q1380.32 1415.52 1385.05 1422.43 Q1389.8 1429.31 1389.8 1442.43 Q1389.8 1454.69 1383.97 1462.02 Q1378.17 1469.31 1368.35 1469.31 Q1365.71 1469.31 1363 1468.79 Q1360.29 1468.27 1357.37 1467.22 M1371.33 1445.24 Q1376.05 1445.24 1378.8 1442.02 Q1381.57 1438.79 1381.57 1433.16 Q1381.57 1427.57 1378.8 1424.34 Q1376.05 1421.08 1371.33 1421.08 Q1366.61 1421.08 1363.83 1424.34 Q1361.09 1427.57 1361.09 1433.16 Q1361.09 1438.79 1363.83 1442.02 Q1366.61 1445.24 1371.33 1445.24 Z" fill="#000000" fill-rule="evenodd" fill-opacity="1" /><path clip-path="url(#clip330)" d="M1402.48 1416.46 L1430.01 1416.46 L1430.01 1422.36 L1408.9 1422.36 L1408.9 1435.07 Q1410.43 1434.55 1411.96 1434.31 Q1413.48 1434.03 1415.01 1434.03 Q1423.69 1434.03 1428.76 1438.79 Q1433.83 1443.54 1433.83 1451.67 Q1433.83 1460.04 1428.62 1464.69 Q1423.41 1469.31 1413.94 1469.31 Q1410.67 1469.31 1407.27 1468.75 Q1403.9 1468.2 1400.29 1467.08 L1400.29 1460.04 Q1403.41 1461.74 1406.75 1462.57 Q1410.08 1463.4 1413.8 1463.4 Q1419.8 1463.4 1423.31 1460.24 Q1426.82 1457.08 1426.82 1451.67 Q1426.82 1446.25 1423.31 1443.09 Q1419.8 1439.93 1413.8 1439.93 Q1410.98 1439.93 1408.17 1440.56 Q1405.39 1441.18 1402.48 1442.5 L1402.48 1416.46 Z" fill="#000000" fill-rule="evenodd" fill-opacity="1" /><path clip-path="url(#clip330)" d="M1462.65 1421.08 Q1457.23 1421.08 1454.49 1426.43 Q1451.78 1431.74 1451.78 1442.43 Q1451.78 1453.09 1454.49 1458.44 Q1457.23 1463.75 1462.65 1463.75 Q1468.1 1463.75 1470.81 1458.44 Q1473.55 1453.09 1473.55 1442.43 Q1473.55 1431.74 1470.81 1426.43 Q1468.1 1421.08 1462.65 1421.08 M1462.65 1415.52 Q1471.37 1415.52 1475.95 1422.43 Q1480.57 1429.31 1480.57 1442.43 Q1480.57 1455.52 1475.95 1462.43 Q1471.37 1469.31 1462.65 1469.31 Q1453.94 1469.31 1449.32 1462.43 Q1444.73 1455.52 1444.73 1442.43 Q1444.73 1429.31 1449.32 1422.43 Q1453.94 1415.52 1462.65 1415.52 Z" fill="#000000" fill-rule="evenodd" fill-opacity="1" /><path clip-path="url(#clip330)" d="M1668.16 1462.4 L1679.62 1462.4 L1679.62 1422.85 L1667.15 1425.35 L1667.15 1418.96 L1679.55 1416.46 L1686.56 1416.46 L1686.56 1462.4 L1698.02 1462.4 L1698.02 1468.3 L1668.16 1468.3 L1668.16 1462.4 Z" fill="#000000" fill-rule="evenodd" fill-opacity="1" /><path clip-path="url(#clip330)" d="M1712.4 1467.22 L1712.4 1460.83 Q1715.04 1462.08 1717.74 1462.74 Q1720.45 1463.4 1723.06 1463.4 Q1730 1463.4 1733.65 1458.75 Q1737.33 1454.06 1737.85 1444.55 Q1735.83 1447.54 1732.74 1449.13 Q1729.65 1450.73 1725.9 1450.73 Q1718.13 1450.73 1713.58 1446.04 Q1709.06 1441.32 1709.06 1433.16 Q1709.06 1425.18 1713.79 1420.35 Q1718.51 1415.52 1726.36 1415.52 Q1735.35 1415.52 1740.07 1422.43 Q1744.83 1429.31 1744.83 1442.43 Q1744.83 1454.69 1738.99 1462.02 Q1733.2 1469.31 1723.37 1469.31 Q1720.73 1469.31 1718.02 1468.79 Q1715.31 1468.27 1712.4 1467.22 M1726.36 1445.24 Q1731.08 1445.24 1733.82 1442.02 Q1736.6 1438.79 1736.6 1433.16 Q1736.6 1427.57 1733.82 1424.34 Q1731.08 1421.08 1726.36 1421.08 Q1721.63 1421.08 1718.86 1424.34 Q1716.11 1427.57 1716.11 1433.16 Q1716.11 1438.79 1718.86 1442.02 Q1721.63 1445.24 1726.36 1445.24 Z" fill="#000000" fill-rule="evenodd" fill-opacity="1" /><path clip-path="url(#clip330)" d="M1755.66 1416.46 L1788.99 1416.46 L1788.99 1419.45 L1770.17 1468.3 L1762.85 1468.3 L1780.56 1422.36 L1755.66 1422.36 L1755.66 1416.46 Z" fill="#000000" fill-rule="evenodd" fill-opacity="1" /><path clip-path="url(#clip330)" d="M1802.74 1416.46 L1830.28 1416.46 L1830.28 1422.36 L1809.17 1422.36 L1809.17 1435.07 Q1810.7 1434.55 1812.22 1434.31 Q1813.75 1434.03 1815.28 1434.03 Q1823.96 1434.03 1829.03 1438.79 Q1834.1 1443.54 1834.1 1451.67 Q1834.1 1460.04 1828.89 1464.69 Q1823.68 1469.31 1814.2 1469.31 Q1810.94 1469.31 1807.54 1468.75 Q1804.17 1468.2 1800.56 1467.08 L1800.56 1460.04 Q1803.68 1461.74 1807.01 1462.57 Q1810.35 1463.4 1814.06 1463.4 Q1820.07 1463.4 1823.58 1460.24 Q1827.08 1457.08 1827.08 1451.67 Q1827.08 1446.25 1823.58 1443.09 Q1820.07 1439.93 1814.06 1439.93 Q1811.25 1439.93 1808.44 1440.56 Q1805.66 1441.18 1802.74 1442.5 L1802.74 1416.46 Z" fill="#000000" fill-rule="evenodd" fill-opacity="1" /><path clip-path="url(#clip330)" d="M2027.82 1462.4 L2052.3 1462.4 L2052.3 1468.3 L2019.38 1468.3 L2019.38 1462.4 Q2023.38 1458.27 2030.25 1451.32 Q2037.16 1444.34 2038.93 1442.33 Q2042.3 1438.54 2043.62 1435.94 Q2044.97 1433.3 2044.97 1430.77 Q2044.97 1426.63 2042.06 1424.03 Q2039.17 1421.43 2034.52 1421.43 Q2031.22 1421.43 2027.54 1422.57 Q2023.9 1423.72 2019.73 1426.04 L2019.73 1418.96 Q2023.97 1417.26 2027.65 1416.39 Q2031.33 1415.52 2034.38 1415.52 Q2042.44 1415.52 2047.23 1419.55 Q2052.02 1423.58 2052.02 1430.31 Q2052.02 1433.51 2050.81 1436.39 Q2049.63 1439.24 2046.47 1443.13 Q2045.6 1444.13 2040.95 1448.96 Q2036.29 1453.75 2027.82 1462.4 Z" fill="#000000" fill-rule="evenodd" fill-opacity="1" /><path clip-path="url(#clip330)" d="M2082.02 1421.08 Q2076.6 1421.08 2073.86 1426.43 Q2071.15 1431.74 2071.15 1442.43 Q2071.15 1453.09 2073.86 1458.44 Q2076.6 1463.75 2082.02 1463.75 Q2087.47 1463.75 2090.18 1458.44 Q2092.92 1453.09 2092.92 1442.43 Q2092.92 1431.74 2090.18 1426.43 Q2087.47 1421.08 2082.02 1421.08 M2082.02 1415.52 Q2090.74 1415.52 2095.32 1422.43 Q2099.94 1429.31 2099.94 1442.43 Q2099.94 1455.52 2095.32 1462.43 Q2090.74 1469.31 2082.02 1469.31 Q2073.31 1469.31 2068.69 1462.43 Q2064.11 1455.52 2064.11 1442.43 Q2064.11 1429.31 2068.69 1422.43 Q2073.31 1415.52 2082.02 1415.52 Z" fill="#000000" fill-rule="evenodd" fill-opacity="1" /><path clip-path="url(#clip330)" d="M2127.26 1421.08 Q2121.85 1421.08 2119.1 1426.43 Q2116.4 1431.74 2116.4 1442.43 Q2116.4 1453.09 2119.1 1458.44 Q2121.85 1463.75 2127.26 1463.75 Q2132.72 1463.75 2135.42 1458.44 Q2138.17 1453.09 2138.17 1442.43 Q2138.17 1431.74 2135.42 1426.43 Q2132.72 1421.08 2127.26 1421.08 M2127.26 1415.52 Q2135.98 1415.52 2140.56 1422.43 Q2145.18 1429.31 2145.18 1442.43 Q2145.18 1455.52 2140.56 1462.43 Q2135.98 1469.31 2127.26 1469.31 Q2118.55 1469.31 2113.93 1462.43 Q2109.35 1455.52 2109.35 1442.43 Q2109.35 1429.31 2113.93 1422.43 Q2118.55 1415.52 2127.26 1415.52 Z" fill="#000000" fill-rule="evenodd" fill-opacity="1" /><path clip-path="url(#clip330)" d="M2172.51 1421.08 Q2167.09 1421.08 2164.35 1426.43 Q2161.64 1431.74 2161.64 1442.43 Q2161.64 1453.09 2164.35 1458.44 Q2167.09 1463.75 2172.51 1463.75 Q2177.96 1463.75 2180.67 1458.44 Q2183.41 1453.09 2183.41 1442.43 Q2183.41 1431.74 2180.67 1426.43 Q2177.96 1421.08 2172.51 1421.08 M2172.51 1415.52 Q2181.22 1415.52 2185.81 1422.43 Q2190.42 1429.31 2190.42 1442.43 Q2190.42 1455.52 2185.81 1462.43 Q2181.22 1469.31 2172.51 1469.31 Q2163.79 1469.31 2159.17 1462.43 Q2154.59 1455.52 2154.59 1442.43 Q2154.59 1429.31 2159.17 1422.43 Q2163.79 1415.52 2172.51 1415.52 Z" fill="#000000" fill-rule="evenodd" fill-opacity="1" /><path clip-path="url(#clip330)" d="M1253.37 1511.88 L1263.42 1511.88 L1282.59 1540.31 L1301.61 1511.88 L1311.66 1511.88 L1287.22 1548.09 L1287.22 1581 L1277.82 1581 L1277.82 1548.09 L1253.37 1511.88 Z" fill="#000000" fill-rule="evenodd" fill-opacity="1" /><path clip-path="url(#clip330)" d="M1352.17 1552.95 L1352.17 1557.12 L1313 1557.12 Q1313.56 1565.91 1318.28 1570.54 Q1323.05 1575.12 1331.52 1575.12 Q1336.43 1575.12 1341.01 1573.92 Q1345.64 1572.72 1350.18 1570.31 L1350.18 1578.36 Q1345.59 1580.31 1340.78 1581.33 Q1335.97 1582.35 1331.01 1582.35 Q1318.6 1582.35 1311.34 1575.12 Q1304.11 1567.9 1304.11 1555.59 Q1304.11 1542.86 1310.97 1535.4 Q1317.86 1527.9 1329.53 1527.9 Q1339.99 1527.9 1346.06 1534.66 Q1352.17 1541.37 1352.17 1552.95 M1343.65 1550.45 Q1343.56 1543.46 1339.72 1539.29 Q1335.92 1535.12 1329.62 1535.12 Q1322.49 1535.12 1318.19 1539.15 Q1313.93 1543.18 1313.28 1550.49 L1343.65 1550.45 Z" fill="#000000" fill-rule="evenodd" fill-opacity="1" /><path clip-path="url(#clip330)" d="M1389.71 1554.94 Q1379.39 1554.94 1375.41 1557.3 Q1371.43 1559.66 1371.43 1565.36 Q1371.43 1569.89 1374.39 1572.58 Q1377.4 1575.22 1382.54 1575.22 Q1389.62 1575.22 1393.88 1570.22 Q1398.19 1565.17 1398.19 1556.84 L1398.19 1554.94 L1389.71 1554.94 M1406.71 1551.42 L1406.71 1581 L1398.19 1581 L1398.19 1573.13 Q1395.27 1577.86 1390.92 1580.12 Q1386.57 1582.35 1380.27 1582.35 Q1372.31 1582.35 1367.59 1577.9 Q1362.91 1573.41 1362.91 1565.91 Q1362.91 1557.16 1368.74 1552.72 Q1374.62 1548.27 1386.24 1548.27 L1398.19 1548.27 L1398.19 1547.44 Q1398.19 1541.56 1394.3 1538.37 Q1390.46 1535.12 1383.46 1535.12 Q1379.02 1535.12 1374.81 1536.19 Q1370.59 1537.25 1366.71 1539.38 L1366.71 1531.51 Q1371.38 1529.71 1375.78 1528.83 Q1380.18 1527.9 1384.34 1527.9 Q1395.59 1527.9 1401.15 1533.74 Q1406.71 1539.57 1406.71 1551.42 Z" fill="#000000" fill-rule="evenodd" fill-opacity="1" /><path clip-path="url(#clip330)" d="M1454.3 1537.12 Q1452.86 1536.28 1451.15 1535.91 Q1449.48 1535.49 1447.45 1535.49 Q1440.22 1535.49 1436.33 1540.22 Q1432.49 1544.89 1432.49 1553.69 L1432.49 1581 L1423.93 1581 L1423.93 1529.15 L1432.49 1529.15 L1432.49 1537.21 Q1435.18 1532.49 1439.48 1530.22 Q1443.79 1527.9 1449.95 1527.9 Q1450.83 1527.9 1451.89 1528.04 Q1452.96 1528.13 1454.25 1528.37 L1454.3 1537.12 Z" fill="#000000" fill-rule="evenodd" fill-opacity="1" /><polyline clip-path="url(#clip332)" style="stroke:#000000; stroke-linecap:round; stroke-linejoin:round; stroke-width:2; stroke-opacity:0.1; fill:none" points="
  354.915,1277.21 2352.76,1277.21 
  "/>
<polyline clip-path="url(#clip332)" style="stroke:#000000; stroke-linecap:round; stroke-linejoin:round; stroke-width:2; stroke-opacity:0.1; fill:none" points="
  354.915,1031.82 2352.76,1031.82 
  "/>
<polyline clip-path="url(#clip332)" style="stroke:#000000; stroke-linecap:round; stroke-linejoin:round; stroke-width:2; stroke-opacity:0.1; fill:none" points="
  354.915,786.426 2352.76,786.426 
  "/>
<polyline clip-path="url(#clip332)" style="stroke:#000000; stroke-linecap:round; stroke-linejoin:round; stroke-width:2; stroke-opacity:0.1; fill:none" points="
  354.915,541.036 2352.76,541.036 
  "/>
<polyline clip-path="url(#clip332)" style="stroke:#000000; stroke-linecap:round; stroke-linejoin:round; stroke-width:2; stroke-opacity:0.1; fill:none" points="
  354.915,295.645 2352.76,295.645 
  "/>
<polyline clip-path="url(#clip330)" style="stroke:#000000; stroke-linecap:round; stroke-linejoin:round; stroke-width:4; stroke-opacity:1; fill:none" points="
  354.915,1384.3 354.915,132.112 
  "/>
<polyline clip-path="url(#clip330)" style="stroke:#000000; stroke-linecap:round; stroke-linejoin:round; stroke-width:4; stroke-opacity:1; fill:none" points="
  354.915,1277.21 373.812,1277.21 
  "/>
<polyline clip-path="url(#clip330)" style="stroke:#000000; stroke-linecap:round; stroke-linejoin:round; stroke-width:4; stroke-opacity:1; fill:none" points="
  354.915,1031.82 373.812,1031.82 
  "/>
<polyline clip-path="url(#clip330)" style="stroke:#000000; stroke-linecap:round; stroke-linejoin:round; stroke-width:4; stroke-opacity:1; fill:none" points="
  354.915,786.426 373.812,786.426 
  "/>
<polyline clip-path="url(#clip330)" style="stroke:#000000; stroke-linecap:round; stroke-linejoin:round; stroke-width:4; stroke-opacity:1; fill:none" points="
  354.915,541.036 373.812,541.036 
  "/>
<polyline clip-path="url(#clip330)" style="stroke:#000000; stroke-linecap:round; stroke-linejoin:round; stroke-width:4; stroke-opacity:1; fill:none" points="
  354.915,295.645 373.812,295.645 
  "/>
<path clip-path="url(#clip330)" d="M135.86 1277.88 L180.374 1277.88 L180.374 1283.79 L135.86 1283.79 L135.86 1277.88 Z" fill="#000000" fill-rule="evenodd" fill-opacity="1" /><path clip-path="url(#clip330)" d="M196.728 1297.22 L208.186 1297.22 L208.186 1257.68 L195.721 1260.18 L195.721 1253.79 L208.117 1251.29 L215.131 1251.29 L215.131 1297.22 L226.589 1297.22 L226.589 1303.13 L196.728 1303.13 L196.728 1297.22 Z" fill="#000000" fill-rule="evenodd" fill-opacity="1" /><path clip-path="url(#clip330)" d="M240.825 1251.29 L268.359 1251.29 L268.359 1257.19 L247.248 1257.19 L247.248 1269.9 Q248.776 1269.38 250.304 1269.13 Q251.832 1268.86 253.36 1268.86 Q262.04 1268.86 267.109 1273.61 Q272.179 1278.37 272.179 1286.49 Q272.179 1294.86 266.971 1299.52 Q261.762 1304.13 252.283 1304.13 Q249.019 1304.13 245.617 1303.58 Q242.248 1303.02 238.637 1301.91 L238.637 1294.86 Q241.762 1296.56 245.096 1297.4 Q248.429 1298.23 252.144 1298.23 Q258.151 1298.23 261.658 1295.07 Q265.165 1291.91 265.165 1286.49 Q265.165 1281.08 261.658 1277.92 Q258.151 1274.76 252.144 1274.76 Q249.332 1274.76 246.519 1275.38 Q243.742 1276.01 240.825 1277.33 L240.825 1251.29 Z" fill="#000000" fill-rule="evenodd" fill-opacity="1" /><path clip-path="url(#clip330)" d="M300.998 1255.9 Q295.582 1255.9 292.838 1261.25 Q290.13 1266.56 290.13 1277.26 Q290.13 1287.92 292.838 1293.27 Q295.582 1298.58 300.998 1298.58 Q306.45 1298.58 309.158 1293.27 Q311.901 1287.92 311.901 1277.26 Q311.901 1266.56 309.158 1261.25 Q306.45 1255.9 300.998 1255.9 M300.998 1250.35 Q309.713 1250.35 314.297 1257.26 Q318.915 1264.13 318.915 1277.26 Q318.915 1290.35 314.297 1297.26 Q309.713 1304.13 300.998 1304.13 Q292.283 1304.13 287.665 1297.26 Q283.082 1290.35 283.082 1277.26 Q283.082 1264.13 287.665 1257.26 Q292.283 1250.35 300.998 1250.35 Z" fill="#000000" fill-rule="evenodd" fill-opacity="1" /><path clip-path="url(#clip330)" d="M135.86 1032.49 L180.374 1032.49 L180.374 1038.4 L135.86 1038.4 L135.86 1032.49 Z" fill="#000000" fill-rule="evenodd" fill-opacity="1" /><path clip-path="url(#clip330)" d="M196.728 1051.83 L208.186 1051.83 L208.186 1012.29 L195.721 1014.79 L195.721 1008.4 L208.117 1005.9 L215.131 1005.9 L215.131 1051.83 L226.589 1051.83 L226.589 1057.74 L196.728 1057.74 L196.728 1051.83 Z" fill="#000000" fill-rule="evenodd" fill-opacity="1" /><path clip-path="url(#clip330)" d="M255.755 1010.51 Q250.339 1010.51 247.596 1015.86 Q244.887 1021.17 244.887 1031.87 Q244.887 1042.53 247.596 1047.88 Q250.339 1053.19 255.755 1053.19 Q261.207 1053.19 263.915 1047.88 Q266.658 1042.53 266.658 1031.87 Q266.658 1021.17 263.915 1015.86 Q261.207 1010.51 255.755 1010.51 M255.755 1004.96 Q264.471 1004.96 269.054 1011.87 Q273.672 1018.74 273.672 1031.87 Q273.672 1044.96 269.054 1051.87 Q264.471 1058.74 255.755 1058.74 Q247.04 1058.74 242.422 1051.87 Q237.839 1044.96 237.839 1031.87 Q237.839 1018.74 242.422 1011.87 Q247.04 1004.96 255.755 1004.96 Z" fill="#000000" fill-rule="evenodd" fill-opacity="1" /><path clip-path="url(#clip330)" d="M300.998 1010.51 Q295.582 1010.51 292.838 1015.86 Q290.13 1021.17 290.13 1031.87 Q290.13 1042.53 292.838 1047.88 Q295.582 1053.19 300.998 1053.19 Q306.45 1053.19 309.158 1047.88 Q311.901 1042.53 311.901 1031.87 Q311.901 1021.17 309.158 1015.86 Q306.45 1010.51 300.998 1010.51 M300.998 1004.96 Q309.713 1004.96 314.297 1011.87 Q318.915 1018.74 318.915 1031.87 Q318.915 1044.96 314.297 1051.87 Q309.713 1058.74 300.998 1058.74 Q292.283 1058.74 287.665 1051.87 Q283.082 1044.96 283.082 1031.87 Q283.082 1018.74 287.665 1011.87 Q292.283 1004.96 300.998 1004.96 Z" fill="#000000" fill-rule="evenodd" fill-opacity="1" /><path clip-path="url(#clip330)" d="M181.103 787.103 L225.617 787.103 L225.617 793.006 L181.103 793.006 L181.103 787.103 Z" fill="#000000" fill-rule="evenodd" fill-opacity="1" /><path clip-path="url(#clip330)" d="M240.825 760.506 L268.359 760.506 L268.359 766.409 L247.248 766.409 L247.248 779.117 Q248.776 778.596 250.304 778.353 Q251.832 778.075 253.36 778.075 Q262.04 778.075 267.109 782.832 Q272.179 787.589 272.179 795.714 Q272.179 804.082 266.971 808.735 Q261.762 813.353 252.283 813.353 Q249.019 813.353 245.617 812.797 Q242.248 812.242 238.637 811.131 L238.637 804.082 Q241.762 805.783 245.096 806.617 Q248.429 807.45 252.144 807.45 Q258.151 807.45 261.658 804.29 Q265.165 801.131 265.165 795.714 Q265.165 790.297 261.658 787.138 Q258.151 783.978 252.144 783.978 Q249.332 783.978 246.519 784.603 Q243.742 785.228 240.825 786.547 L240.825 760.506 Z" fill="#000000" fill-rule="evenodd" fill-opacity="1" /><path clip-path="url(#clip330)" d="M300.998 765.124 Q295.582 765.124 292.838 770.471 Q290.13 775.784 290.13 786.478 Q290.13 797.138 292.838 802.485 Q295.582 807.797 300.998 807.797 Q306.45 807.797 309.158 802.485 Q311.901 797.138 311.901 786.478 Q311.901 775.784 309.158 770.471 Q306.45 765.124 300.998 765.124 M300.998 759.568 Q309.713 759.568 314.297 766.478 Q318.915 773.353 318.915 786.478 Q318.915 799.568 314.297 806.478 Q309.713 813.353 300.998 813.353 Q292.283 813.353 287.665 806.478 Q283.082 799.568 283.082 786.478 Q283.082 773.353 287.665 766.478 Q292.283 759.568 300.998 759.568 Z" fill="#000000" fill-rule="evenodd" fill-opacity="1" /><path clip-path="url(#clip330)" d="M300.998 519.734 Q295.582 519.734 292.838 525.081 Q290.13 530.393 290.13 541.088 Q290.13 551.747 292.838 557.094 Q295.582 562.407 300.998 562.407 Q306.45 562.407 309.158 557.094 Q311.901 551.747 311.901 541.088 Q311.901 530.393 309.158 525.081 Q306.45 519.734 300.998 519.734 M300.998 514.178 Q309.713 514.178 314.297 521.088 Q318.915 527.963 318.915 541.088 Q318.915 554.178 314.297 561.087 Q309.713 567.962 300.998 567.962 Q292.283 567.962 287.665 561.087 Q283.082 554.178 283.082 541.088 Q283.082 527.963 287.665 521.088 Q292.283 514.178 300.998 514.178 Z" fill="#000000" fill-rule="evenodd" fill-opacity="1" /><path clip-path="url(#clip330)" d="M240.825 269.725 L268.359 269.725 L268.359 275.628 L247.248 275.628 L247.248 288.336 Q248.776 287.815 250.304 287.572 Q251.832 287.295 253.36 287.295 Q262.04 287.295 267.109 292.051 Q272.179 296.808 272.179 304.933 Q272.179 313.301 266.971 317.954 Q261.762 322.572 252.283 322.572 Q249.019 322.572 245.617 322.017 Q242.248 321.461 238.637 320.35 L238.637 313.301 Q241.762 315.003 245.096 315.836 Q248.429 316.669 252.144 316.669 Q258.151 316.669 261.658 313.51 Q265.165 310.35 265.165 304.933 Q265.165 299.517 261.658 296.357 Q258.151 293.197 252.144 293.197 Q249.332 293.197 246.519 293.822 Q243.742 294.447 240.825 295.767 L240.825 269.725 Z" fill="#000000" fill-rule="evenodd" fill-opacity="1" /><path clip-path="url(#clip330)" d="M300.998 274.343 Q295.582 274.343 292.838 279.69 Q290.13 285.003 290.13 295.697 Q290.13 306.357 292.838 311.704 Q295.582 317.017 300.998 317.017 Q306.45 317.017 309.158 311.704 Q311.901 306.357 311.901 295.697 Q311.901 285.003 309.158 279.69 Q306.45 274.343 300.998 274.343 M300.998 268.788 Q309.713 268.788 314.297 275.697 Q318.915 282.572 318.915 295.697 Q318.915 308.787 314.297 315.697 Q309.713 322.572 300.998 322.572 Q292.283 322.572 287.665 315.697 Q283.082 308.787 283.082 295.697 Q283.082 282.572 287.665 275.697 Q292.283 268.788 300.998 268.788 Z" fill="#000000" fill-rule="evenodd" fill-opacity="1" /><path clip-path="url(#clip330)" d="M69.2631 978.922 L50.6984 978.922 L50.6984 994.2 L43.0132 994.2 L43.0132 969.663 L72.689 969.663 Q76.5316 975.08 78.5223 981.608 Q80.4667 988.135 80.4667 995.543 Q80.4667 1011.75 71.0223 1020.91 Q61.5317 1030.03 44.6336 1030.03 Q27.6892 1030.03 18.2449 1020.91 Q8.75416 1011.75 8.75416 995.543 Q8.75416 988.783 10.4208 982.719 Q12.0875 976.608 15.3282 971.469 L25.2819 971.469 Q20.8837 976.654 18.6615 982.487 Q16.4393 988.32 16.4393 994.756 Q16.4393 1007.44 23.5226 1013.83 Q30.6059 1020.17 44.6336 1020.17 Q58.615 1020.17 65.6983 1013.83 Q72.7816 1007.44 72.7816 994.756 Q72.7816 989.802 71.9483 985.913 Q71.0686 982.024 69.2631 978.922 Z" fill="#000000" fill-rule="evenodd" fill-opacity="1" /><path clip-path="url(#clip330)" d="M10.0042 952.58 L10.0042 938.645 L57.0409 921.006 L10.0042 903.275 L10.0042 889.34 L79.1242 889.34 L79.1242 898.46 L18.43 898.46 L65.8372 916.284 L65.8372 925.682 L18.43 943.506 L79.1242 943.506 L79.1242 952.58 L10.0042 952.58 Z" fill="#000000" fill-rule="evenodd" fill-opacity="1" /><path clip-path="url(#clip330)" d="M12.2727 829.34 L21.393 829.34 Q18.8467 834.664 17.5967 839.386 Q16.3467 844.108 16.3467 848.506 Q16.3467 856.145 19.3097 860.312 Q22.2726 864.432 27.7355 864.432 Q32.3189 864.432 34.68 861.701 Q36.9948 858.923 38.4299 851.238 L39.5873 845.59 Q41.5781 835.127 46.6243 830.173 Q51.6243 825.173 60.0502 825.173 Q70.0964 825.173 75.2816 831.932 Q80.4667 838.645 80.4667 851.655 Q80.4667 856.562 79.3556 862.117 Q78.2445 867.627 76.0686 873.553 L66.439 873.553 Q69.6335 867.858 71.2538 862.395 Q72.8742 856.932 72.8742 851.655 Q72.8742 843.645 69.7261 839.294 Q66.5779 834.942 60.7446 834.942 Q55.6521 834.942 52.7817 838.09 Q49.9114 841.192 48.4762 848.321 L47.3651 854.016 Q45.2817 864.479 40.8373 869.154 Q36.3929 873.83 28.4763 873.83 Q19.3097 873.83 14.0319 867.395 Q8.75416 860.914 8.75416 849.571 Q8.75416 844.71 9.63379 839.664 Q10.5134 834.618 12.2727 829.34 Z" fill="#000000" fill-rule="evenodd" fill-opacity="1" /><path clip-path="url(#clip330)" d="M10.0042 810.59 L10.0042 801.238 L71.2538 801.238 L71.2538 767.581 L79.1242 767.581 L79.1242 810.59 L10.0042 810.59 Z" fill="#000000" fill-rule="evenodd" fill-opacity="1" /><path clip-path="url(#clip330)" d="M7.1801 707.535 Q17.8282 713.739 28.2448 716.748 Q38.6614 719.757 49.3558 719.757 Q60.0502 719.757 70.5594 716.748 Q81.0223 713.692 91.6241 707.535 L91.6241 714.942 Q80.7445 721.887 70.2353 725.359 Q59.7261 728.785 49.3558 728.785 Q39.0318 728.785 28.5689 725.359 Q18.106 721.933 7.1801 714.942 L7.1801 707.535 Z" fill="#000000" fill-rule="evenodd" fill-opacity="1" /><path clip-path="url(#clip330)" d="M37.2262 650.637 Q31.4855 647.443 28.7541 642.998 Q26.0226 638.554 26.0226 632.535 Q26.0226 624.434 31.717 620.035 Q37.3651 615.637 47.828 615.637 L79.1242 615.637 L79.1242 624.202 L48.1058 624.202 Q40.6521 624.202 37.041 626.841 Q33.43 629.48 33.43 634.896 Q33.43 641.517 37.8281 645.359 Q42.2262 649.202 49.8188 649.202 L79.1242 649.202 L79.1242 657.767 L48.1058 657.767 Q40.6058 657.767 37.041 660.406 Q33.43 663.044 33.43 668.554 Q33.43 675.081 37.8744 678.924 Q42.2725 682.767 49.8188 682.767 L79.1242 682.767 L79.1242 691.331 L27.2726 691.331 L27.2726 682.767 L35.3281 682.767 Q30.5596 679.85 28.2911 675.776 Q26.0226 671.702 26.0226 666.1 Q26.0226 660.452 28.8929 656.517 Q31.7633 652.535 37.2262 650.637 Z" fill="#000000" fill-rule="evenodd" fill-opacity="1" /><path clip-path="url(#clip330)" d="M37.2262 558.276 Q31.4855 555.082 28.7541 550.638 Q26.0226 546.193 26.0226 540.175 Q26.0226 532.073 31.717 527.675 Q37.3651 523.277 47.828 523.277 L79.1242 523.277 L79.1242 531.841 L48.1058 531.841 Q40.6521 531.841 37.041 534.48 Q33.43 537.119 33.43 542.536 Q33.43 549.156 37.8281 552.999 Q42.2262 556.841 49.8188 556.841 L79.1242 556.841 L79.1242 565.406 L48.1058 565.406 Q40.6058 565.406 37.041 568.045 Q33.43 570.684 33.43 576.193 Q33.43 582.721 37.8744 586.563 Q42.2725 590.406 49.8188 590.406 L79.1242 590.406 L79.1242 598.971 L27.2726 598.971 L27.2726 590.406 L35.3281 590.406 Q30.5596 587.489 28.2911 583.415 Q26.0226 579.341 26.0226 573.739 Q26.0226 568.091 28.8929 564.156 Q31.7633 560.175 37.2262 558.276 Z" fill="#000000" fill-rule="evenodd" fill-opacity="1" /><path clip-path="url(#clip330)" d="M7.1801 507.629 L7.1801 500.221 Q18.106 493.277 28.5689 489.851 Q39.0318 486.379 49.3558 486.379 Q59.7261 486.379 70.2353 489.851 Q80.7445 493.277 91.6241 500.221 L91.6241 507.629 Q81.0223 501.471 70.5594 498.462 Q60.0502 495.406 49.3558 495.406 Q38.6614 495.406 28.2448 498.462 Q17.8282 501.471 7.1801 507.629 Z" fill="#000000" fill-rule="evenodd" fill-opacity="1" /><path clip-path="url(#clip330)" d="M810.968 16.0925 L810.968 25.2128 Q805.644 22.6665 800.922 21.4166 Q796.199 20.1666 791.801 20.1666 Q784.162 20.1666 779.996 23.1295 Q775.875 26.0925 775.875 31.5554 Q775.875 36.1387 778.607 38.4998 Q781.385 40.8146 789.07 42.2498 L794.718 43.4072 Q805.181 45.3979 810.135 50.4442 Q815.135 55.4441 815.135 63.87 Q815.135 73.9163 808.375 79.1014 Q801.662 84.2866 788.653 84.2866 Q783.746 84.2866 778.19 83.1755 Q772.681 82.0644 766.755 79.8885 L766.755 70.2589 Q772.45 73.4533 777.912 75.0737 Q783.375 76.694 788.653 76.694 Q796.662 76.694 801.014 73.5459 Q805.366 70.3978 805.366 64.5645 Q805.366 59.4719 802.218 56.6015 Q799.116 53.7312 791.986 52.296 L786.292 51.1849 Q775.829 49.1016 771.153 44.6572 Q766.477 40.2127 766.477 32.2961 Q766.477 23.1295 772.913 17.8518 Q779.394 12.574 790.736 12.574 Q795.598 12.574 800.644 13.4536 Q805.69 14.3333 810.968 16.0925 Z" fill="#000000" fill-rule="evenodd" fill-opacity="1" /><path clip-path="url(#clip330)" d="M873.699 54.8886 L873.699 59.0552 L834.533 59.0552 Q835.088 67.8515 839.81 72.4811 Q844.579 77.0644 853.051 77.0644 Q857.958 77.0644 862.542 75.8607 Q867.171 74.657 871.708 72.2496 L871.708 80.3051 Q867.125 82.2496 862.31 83.2681 Q857.495 84.2866 852.542 84.2866 Q840.134 84.2866 832.866 77.0644 Q825.644 69.8422 825.644 57.5275 Q825.644 44.7961 832.496 37.3424 Q839.394 29.8424 851.06 29.8424 Q861.523 29.8424 867.588 36.6017 Q873.699 43.3146 873.699 54.8886 M865.181 52.3886 Q865.088 45.3979 861.245 41.2313 Q857.449 37.0646 851.153 37.0646 Q844.023 37.0646 839.718 41.0924 Q835.458 45.1201 834.81 52.4349 L865.181 52.3886 Z" fill="#000000" fill-rule="evenodd" fill-opacity="1" /><path clip-path="url(#clip330)" d="M911.245 56.8793 Q900.921 56.8793 896.94 59.2404 Q892.958 61.6015 892.958 67.2959 Q892.958 71.8329 895.921 74.5181 Q898.93 77.157 904.069 77.157 Q911.153 77.157 915.412 72.157 Q919.717 67.1108 919.717 58.7775 L919.717 56.8793 L911.245 56.8793 M928.236 53.3608 L928.236 82.944 L919.717 82.944 L919.717 75.0737 Q916.801 79.7959 912.449 82.0644 Q908.097 84.2866 901.801 84.2866 Q893.838 84.2866 889.116 79.8422 Q884.44 75.3514 884.44 67.8515 Q884.44 59.1015 890.273 54.6571 Q896.153 50.2127 907.773 50.2127 L919.717 50.2127 L919.717 49.3794 Q919.717 43.4998 915.828 40.3053 Q911.986 37.0646 904.995 37.0646 Q900.551 37.0646 896.338 38.1294 Q892.125 39.1942 888.236 41.3239 L888.236 33.4535 Q892.912 31.648 897.31 30.7684 Q901.708 29.8424 905.875 29.8424 Q917.125 29.8424 922.68 35.6757 Q928.236 41.509 928.236 53.3608 Z" fill="#000000" fill-rule="evenodd" fill-opacity="1" /><path clip-path="url(#clip330)" d="M941.476 53.1756 L966.43 53.1756 L966.43 60.7682 L941.476 60.7682 L941.476 53.1756 Z" fill="#000000" fill-rule="evenodd" fill-opacity="1" /><path clip-path="url(#clip330)" d="M980.365 13.824 L989.717 13.824 L989.717 75.0737 L1023.37 75.0737 L1023.37 82.944 L980.365 82.944 L980.365 13.824 Z" fill="#000000" fill-rule="evenodd" fill-opacity="1" /><path clip-path="url(#clip330)" d="M1075.5 54.8886 L1075.5 59.0552 L1036.34 59.0552 Q1036.89 67.8515 1041.61 72.4811 Q1046.38 77.0644 1054.86 77.0644 Q1059.76 77.0644 1064.35 75.8607 Q1068.98 74.657 1073.51 72.2496 L1073.51 80.3051 Q1068.93 82.2496 1064.11 83.2681 Q1059.3 84.2866 1054.35 84.2866 Q1041.94 84.2866 1034.67 77.0644 Q1027.45 69.8422 1027.45 57.5275 Q1027.45 44.7961 1034.3 37.3424 Q1041.2 29.8424 1052.86 29.8424 Q1063.33 29.8424 1069.39 36.6017 Q1075.5 43.3146 1075.5 54.8886 M1066.99 52.3886 Q1066.89 45.3979 1063.05 41.2313 Q1059.25 37.0646 1052.96 37.0646 Q1045.83 37.0646 1041.52 41.0924 Q1037.26 45.1201 1036.61 52.4349 L1066.99 52.3886 Z" fill="#000000" fill-rule="evenodd" fill-opacity="1" /><path clip-path="url(#clip330)" d="M1083.37 31.0924 L1092.4 31.0924 L1108.61 74.6107 L1124.81 31.0924 L1133.84 31.0924 L1114.39 82.944 L1102.82 82.944 L1083.37 31.0924 Z" fill="#000000" fill-rule="evenodd" fill-opacity="1" /><path clip-path="url(#clip330)" d="M1189.95 54.8886 L1189.95 59.0552 L1150.78 59.0552 Q1151.34 67.8515 1156.06 72.4811 Q1160.83 77.0644 1169.3 77.0644 Q1174.21 77.0644 1178.79 75.8607 Q1183.42 74.657 1187.96 72.2496 L1187.96 80.3051 Q1183.37 82.2496 1178.56 83.2681 Q1173.74 84.2866 1168.79 84.2866 Q1156.38 84.2866 1149.11 77.0644 Q1141.89 69.8422 1141.89 57.5275 Q1141.89 44.7961 1148.74 37.3424 Q1155.64 29.8424 1167.31 29.8424 Q1177.77 29.8424 1183.84 36.6017 Q1189.95 43.3146 1189.95 54.8886 M1181.43 52.3886 Q1181.34 45.3979 1177.49 41.2313 Q1173.7 37.0646 1167.4 37.0646 Q1160.27 37.0646 1155.97 41.0924 Q1151.71 45.1201 1151.06 52.4349 L1181.43 52.3886 Z" fill="#000000" fill-rule="evenodd" fill-opacity="1" /><path clip-path="url(#clip330)" d="M1203.93 10.9073 L1212.45 10.9073 L1212.45 82.944 L1203.93 82.944 L1203.93 10.9073 Z" fill="#000000" fill-rule="evenodd" fill-opacity="1" /><path clip-path="url(#clip330)" d="M1293.56 50.5368 Q1296.57 51.5553 1299.39 54.8886 Q1302.26 58.2219 1305.13 64.0552 L1314.62 82.944 L1304.58 82.944 L1295.73 65.2126 Q1292.31 58.2682 1289.07 55.9997 Q1285.87 53.7312 1280.32 53.7312 L1270.13 53.7312 L1270.13 82.944 L1260.78 82.944 L1260.78 13.824 L1281.89 13.824 Q1293.74 13.824 1299.58 18.7777 Q1305.41 23.7314 1305.41 33.7313 Q1305.41 40.259 1302.35 44.5646 Q1299.34 48.8701 1293.56 50.5368 M1270.13 21.5091 L1270.13 46.046 L1281.89 46.046 Q1288.65 46.046 1292.08 42.9442 Q1295.55 39.7961 1295.55 33.7313 Q1295.55 27.6665 1292.08 24.611 Q1288.65 21.5091 1281.89 21.5091 L1270.13 21.5091 Z" fill="#000000" fill-rule="evenodd" fill-opacity="1" /><path clip-path="url(#clip330)" d="M1326.29 31.0924 L1334.81 31.0924 L1334.81 82.944 L1326.29 82.944 L1326.29 31.0924 M1326.29 10.9073 L1334.81 10.9073 L1334.81 21.6943 L1326.29 21.6943 L1326.29 10.9073 Z" fill="#000000" fill-rule="evenodd" fill-opacity="1" /><path clip-path="url(#clip330)" d="M1385.69 32.6202 L1385.69 40.6757 Q1382.08 38.8239 1378.19 37.8979 Q1374.3 36.972 1370.13 36.972 Q1363.79 36.972 1360.59 38.9165 Q1357.45 40.8609 1357.45 44.7498 Q1357.45 47.7127 1359.71 49.4257 Q1361.98 51.0923 1368.84 52.6201 L1371.75 53.2682 Q1380.83 55.2127 1384.62 58.7775 Q1388.46 62.296 1388.46 68.6385 Q1388.46 75.8607 1382.72 80.0736 Q1377.03 84.2866 1367.03 84.2866 Q1362.86 84.2866 1358.33 83.4533 Q1353.84 82.6662 1348.84 81.0459 L1348.84 72.2496 Q1353.56 74.7033 1358.14 75.9533 Q1362.72 77.157 1367.21 77.157 Q1373.23 77.157 1376.47 75.12 Q1379.71 73.0366 1379.71 69.2867 Q1379.71 65.8145 1377.35 63.9626 Q1375.04 62.1108 1367.12 60.3978 L1364.16 59.7034 Q1356.24 58.0367 1352.72 54.6108 Q1349.21 51.1386 1349.21 45.1201 Q1349.21 37.8054 1354.39 33.8239 Q1359.58 29.8424 1369.11 29.8424 Q1373.84 29.8424 1378 30.5369 Q1382.17 31.2313 1385.69 32.6202 Z" fill="#000000" fill-rule="evenodd" fill-opacity="1" /><path clip-path="url(#clip330)" d="M1446.38 54.8886 L1446.38 59.0552 L1407.21 59.0552 Q1407.77 67.8515 1412.49 72.4811 Q1417.26 77.0644 1425.73 77.0644 Q1430.64 77.0644 1435.22 75.8607 Q1439.85 74.657 1444.39 72.2496 L1444.39 80.3051 Q1439.81 82.2496 1434.99 83.2681 Q1430.18 84.2866 1425.22 84.2866 Q1412.82 84.2866 1405.55 77.0644 Q1398.33 69.8422 1398.33 57.5275 Q1398.33 44.7961 1405.18 37.3424 Q1412.08 29.8424 1423.74 29.8424 Q1434.21 29.8424 1440.27 36.6017 Q1446.38 43.3146 1446.38 54.8886 M1437.86 52.3886 Q1437.77 45.3979 1433.93 41.2313 Q1430.13 37.0646 1423.83 37.0646 Q1416.71 37.0646 1412.4 41.0924 Q1408.14 45.1201 1407.49 52.4349 L1437.86 52.3886 Z" fill="#000000" fill-rule="evenodd" fill-opacity="1" /><path clip-path="url(#clip330)" d="M1523.65 50.5368 Q1526.66 51.5553 1529.48 54.8886 Q1532.35 58.2219 1535.22 64.0552 L1544.71 82.944 L1534.67 82.944 L1525.83 65.2126 Q1522.4 58.2682 1519.16 55.9997 Q1515.96 53.7312 1510.41 53.7312 L1500.22 53.7312 L1500.22 82.944 L1490.87 82.944 L1490.87 13.824 L1511.98 13.824 Q1523.83 13.824 1529.67 18.7777 Q1535.5 23.7314 1535.5 33.7313 Q1535.5 40.259 1532.45 44.5646 Q1529.44 48.8701 1523.65 50.5368 M1500.22 21.5091 L1500.22 46.046 L1511.98 46.046 Q1518.74 46.046 1522.17 42.9442 Q1525.64 39.7961 1525.64 33.7313 Q1525.64 27.6665 1522.17 24.611 Q1518.74 21.5091 1511.98 21.5091 L1500.22 21.5091 Z" fill="#000000" fill-rule="evenodd" fill-opacity="1" /><path clip-path="url(#clip330)" d="M1596.47 54.8886 L1596.47 59.0552 L1557.31 59.0552 Q1557.86 67.8515 1562.58 72.4811 Q1567.35 77.0644 1575.82 77.0644 Q1580.73 77.0644 1585.32 75.8607 Q1589.95 74.657 1594.48 72.2496 L1594.48 80.3051 Q1589.9 82.2496 1585.08 83.2681 Q1580.27 84.2866 1575.32 84.2866 Q1562.91 84.2866 1555.64 77.0644 Q1548.42 69.8422 1548.42 57.5275 Q1548.42 44.7961 1555.27 37.3424 Q1562.17 29.8424 1573.83 29.8424 Q1584.3 29.8424 1590.36 36.6017 Q1596.47 43.3146 1596.47 54.8886 M1587.95 52.3886 Q1587.86 45.3979 1584.02 41.2313 Q1580.22 37.0646 1573.93 37.0646 Q1566.8 37.0646 1562.49 41.0924 Q1558.23 45.1201 1557.58 52.4349 L1587.95 52.3886 Z" fill="#000000" fill-rule="evenodd" fill-opacity="1" /><path clip-path="url(#clip330)" d="M1643.51 32.6202 L1643.51 40.6757 Q1639.9 38.8239 1636.01 37.8979 Q1632.12 36.972 1627.95 36.972 Q1621.61 36.972 1618.42 38.9165 Q1615.27 40.8609 1615.27 44.7498 Q1615.27 47.7127 1617.54 49.4257 Q1619.81 51.0923 1626.66 52.6201 L1629.57 53.2682 Q1638.65 55.2127 1642.44 58.7775 Q1646.29 62.296 1646.29 68.6385 Q1646.29 75.8607 1640.55 80.0736 Q1634.85 84.2866 1624.85 84.2866 Q1620.69 84.2866 1616.15 83.4533 Q1611.66 82.6662 1606.66 81.0459 L1606.66 72.2496 Q1611.38 74.7033 1615.96 75.9533 Q1620.55 77.157 1625.04 77.157 Q1631.06 77.157 1634.3 75.12 Q1637.54 73.0366 1637.54 69.2867 Q1637.54 65.8145 1635.18 63.9626 Q1632.86 62.1108 1624.94 60.3978 L1621.98 59.7034 Q1614.07 58.0367 1610.55 54.6108 Q1607.03 51.1386 1607.03 45.1201 Q1607.03 37.8054 1612.21 33.8239 Q1617.4 29.8424 1626.94 29.8424 Q1631.66 29.8424 1635.82 30.5369 Q1639.99 31.2313 1643.51 32.6202 Z" fill="#000000" fill-rule="evenodd" fill-opacity="1" /><path clip-path="url(#clip330)" d="M1683.42 56.8793 Q1673.09 56.8793 1669.11 59.2404 Q1665.13 61.6015 1665.13 67.2959 Q1665.13 71.8329 1668.09 74.5181 Q1671.1 77.157 1676.24 77.157 Q1683.32 77.157 1687.58 72.157 Q1691.89 67.1108 1691.89 58.7775 L1691.89 56.8793 L1683.42 56.8793 M1700.41 53.3608 L1700.41 82.944 L1691.89 82.944 L1691.89 75.0737 Q1688.97 79.7959 1684.62 82.0644 Q1680.27 84.2866 1673.97 84.2866 Q1666.01 84.2866 1661.29 79.8422 Q1656.61 75.3514 1656.61 67.8515 Q1656.61 59.1015 1662.44 54.6571 Q1668.32 50.2127 1679.94 50.2127 L1691.89 50.2127 L1691.89 49.3794 Q1691.89 43.4998 1688 40.3053 Q1684.16 37.0646 1677.17 37.0646 Q1672.72 37.0646 1668.51 38.1294 Q1664.3 39.1942 1660.41 41.3239 L1660.41 33.4535 Q1665.08 31.648 1669.48 30.7684 Q1673.88 29.8424 1678.05 29.8424 Q1689.3 29.8424 1694.85 35.6757 Q1700.41 41.509 1700.41 53.3608 Z" fill="#000000" fill-rule="evenodd" fill-opacity="1" /><path clip-path="url(#clip330)" d="M1758.32 41.0461 Q1761.52 35.3054 1765.96 32.5739 Q1770.41 29.8424 1776.43 29.8424 Q1784.53 29.8424 1788.93 35.5368 Q1793.32 41.185 1793.32 51.6479 L1793.32 82.944 L1784.76 82.944 L1784.76 51.9256 Q1784.76 44.472 1782.12 40.8609 Q1779.48 37.2498 1774.06 37.2498 Q1767.44 37.2498 1763.6 41.6479 Q1759.76 46.046 1759.76 53.6386 L1759.76 82.944 L1751.19 82.944 L1751.19 51.9256 Q1751.19 44.4257 1748.56 40.8609 Q1745.92 37.2498 1740.41 37.2498 Q1733.88 37.2498 1730.04 41.6942 Q1726.19 46.0923 1726.19 53.6386 L1726.19 82.944 L1717.63 82.944 L1717.63 31.0924 L1726.19 31.0924 L1726.19 39.1479 Q1729.11 34.3794 1733.19 32.1109 Q1737.26 29.8424 1742.86 29.8424 Q1748.51 29.8424 1752.44 32.7128 Q1756.43 35.5831 1758.32 41.0461 Z" fill="#000000" fill-rule="evenodd" fill-opacity="1" /><path clip-path="url(#clip330)" d="M1818.56 75.1663 L1818.56 102.666 L1809.99 102.666 L1809.99 31.0924 L1818.56 31.0924 L1818.56 38.9628 Q1821.24 34.3331 1825.31 32.1109 Q1829.43 29.8424 1835.13 29.8424 Q1844.57 29.8424 1850.45 37.3424 Q1856.38 44.8424 1856.38 57.0645 Q1856.38 69.2867 1850.45 76.7866 Q1844.57 84.2866 1835.13 84.2866 Q1829.43 84.2866 1825.31 82.0644 Q1821.24 79.7959 1818.56 75.1663 M1847.54 57.0645 Q1847.54 47.6664 1843.65 42.3424 Q1839.8 36.972 1833.05 36.972 Q1826.29 36.972 1822.4 42.3424 Q1818.56 47.6664 1818.56 57.0645 Q1818.56 66.4626 1822.4 71.8329 Q1826.29 77.157 1833.05 77.157 Q1839.8 77.157 1843.65 71.8329 Q1847.54 66.4626 1847.54 57.0645 Z" fill="#000000" fill-rule="evenodd" fill-opacity="1" /><path clip-path="url(#clip330)" d="M1870.5 10.9073 L1879.02 10.9073 L1879.02 82.944 L1870.5 82.944 L1870.5 10.9073 Z" fill="#000000" fill-rule="evenodd" fill-opacity="1" /><path clip-path="url(#clip330)" d="M1941.19 54.8886 L1941.19 59.0552 L1902.03 59.0552 Q1902.58 67.8515 1907.3 72.4811 Q1912.07 77.0644 1920.55 77.0644 Q1925.45 77.0644 1930.04 75.8607 Q1934.67 74.657 1939.2 72.2496 L1939.2 80.3051 Q1934.62 82.2496 1929.8 83.2681 Q1924.99 84.2866 1920.04 84.2866 Q1907.63 84.2866 1900.36 77.0644 Q1893.14 69.8422 1893.14 57.5275 Q1893.14 44.7961 1899.99 37.3424 Q1906.89 29.8424 1918.55 29.8424 Q1929.02 29.8424 1935.08 36.6017 Q1941.19 43.3146 1941.19 54.8886 M1932.67 52.3886 Q1932.58 45.3979 1928.74 41.2313 Q1924.94 37.0646 1918.65 37.0646 Q1911.52 37.0646 1907.21 41.0924 Q1902.95 45.1201 1902.3 52.4349 L1932.67 52.3886 Z" fill="#000000" fill-rule="evenodd" fill-opacity="1" /><polyline clip-path="url(#clip332)" style="stroke:#009af9; stroke-linecap:round; stroke-linejoin:round; stroke-width:8; stroke-opacity:1; fill:none" points="
  411.457,825.688 425.629,899.305 439.8,1096.6 453.971,1235.98 468.142,401.654 482.313,218.593 496.484,446.806 510.655,1282.61 524.826,650.48 538.997,1096.6 
  553.168,548.397 567.339,764.832 581.511,666.675 595.682,218.593 609.853,1014.64 624.024,1163.84 638.195,552.323 652.366,1064.7 666.537,1120.65 680.708,208.777 
  694.879,1135.86 709.05,637.719 723.222,637.719 737.393,1082.37 751.564,993.535 765.735,933.66 779.906,1096.6 794.077,446.806 808.248,758.451 822.419,1182.98 
  836.59,1189.85 850.761,666.675 864.932,1096.6 879.104,1348.86 893.275,548.397 907.446,1170.22 921.617,1082.37 935.788,1153.04 949.959,439.935 964.13,358.465 
  978.301,439.935 992.472,1348.86 1006.64,1057.34 1020.81,1182.98 1034.99,1348.86 1049.16,1127.03 1063.33,552.814 1077.5,1096.6 1091.67,1119.67 1105.84,1274.75 
  1120.01,951.328 1134.18,1015.62 1148.35,967.524 1162.53,825.688 1176.7,650.48 1190.87,597.475 1205.04,528.766 1219.21,1014.64 1233.38,167.551 1247.55,776.61 
  1261.72,965.07 1275.89,1282.61 1290.07,1274.75 1304.24,358.465 1318.41,167.551 1332.58,933.66 1346.75,561.158 1360.92,951.328 1375.09,875.748 1389.26,1234.51 
  1403.43,784.954 1417.61,728.023 1431.78,1170.71 1445.95,256.383 1460.12,761.396 1474.29,1170.22 1488.46,1181.5 1502.63,1282.11 1516.8,914.52 1530.97,1076.48 
  1545.15,1179.54 1559.32,1319.9 1573.49,208.777 1587.66,494.411 1601.83,1264.94 1616,622.014 1630.17,1015.62 1644.34,474.289 1658.51,474.289 1672.68,1170.71 
  1686.86,1070.1 1701.03,760.905 1715.2,875.748 1729.37,711.336 1743.54,1033.78 1757.71,830.105 1771.88,1096.11 1786.05,1160.89 1800.22,525.331 1814.4,1072.06 
  1828.57,637.719 1842.74,658.823 1856.91,1257.58 1871.08,1106.41 1885.25,1066.66 1899.42,589.623 1913.59,933.66 1927.76,1088.75 1941.94,658.823 1956.11,358.465 
  1970.28,933.66 1984.45,815.873 1998.62,745.2 2012.79,1153.04 2026.96,761.396 2041.13,761.396 2055.3,1066.66 2069.48,1170.71 2083.65,439.935 2097.82,357.974 
  2111.99,561.158 2126.16,728.023 2140.33,284.848 2154.5,1064.7 2168.67,413.433 2182.84,837.467 2197.02,1348.86 2211.19,993.045 2225.36,1096.6 2239.53,1197.21 
  2253.7,1224.2 2267.87,440.425 2282.04,1274.75 2296.21,1158.93 
  "/>
</svg>
