<?xml version="1.0" encoding="utf-8"?>
<svg xmlns="http://www.w3.org/2000/svg" xmlns:xlink="http://www.w3.org/1999/xlink" width="600" height="400" viewBox="0 0 2400 1600">
<defs>
  <clipPath id="clip640">
    <rect x="0" y="0" width="2400" height="1600"/>
  </clipPath>
</defs>
<path clip-path="url(#clip640)" d="
M0 1600 L2400 1600 L2400 0 L0 0  Z
  " fill="#ffffff" fill-rule="evenodd" fill-opacity="1"/>
<defs>
  <clipPath id="clip641">
    <rect x="480" y="0" width="1681" height="1600"/>
  </clipPath>
</defs>
<path clip-path="url(#clip640)" d="
M276.269 1384.3 L2352.76 1384.3 L2352.76 47.2441 L276.269 47.2441  Z
  " fill="#ffffff" fill-rule="evenodd" fill-opacity="1"/>
<defs>
  <clipPath id="clip642">
    <rect x="276" y="47" width="2077" height="1338"/>
  </clipPath>
</defs>
<polyline clip-path="url(#clip642)" style="stroke:#000000; stroke-linecap:round; stroke-linejoin:round; stroke-width:2; stroke-opacity:0.1; fill:none" points="
  335.038,1384.3 335.038,47.2441 
  "/>
<polyline clip-path="url(#clip642)" style="stroke:#000000; stroke-linecap:round; stroke-linejoin:round; stroke-width:2; stroke-opacity:0.1; fill:none" points="
  824.775,1384.3 824.775,47.2441 
  "/>
<polyline clip-path="url(#clip642)" style="stroke:#000000; stroke-linecap:round; stroke-linejoin:round; stroke-width:2; stroke-opacity:0.1; fill:none" points="
  1314.51,1384.3 1314.51,47.2441 
  "/>
<polyline clip-path="url(#clip642)" style="stroke:#000000; stroke-linecap:round; stroke-linejoin:round; stroke-width:2; stroke-opacity:0.1; fill:none" points="
  1804.25,1384.3 1804.25,47.2441 
  "/>
<polyline clip-path="url(#clip642)" style="stroke:#000000; stroke-linecap:round; stroke-linejoin:round; stroke-width:2; stroke-opacity:0.1; fill:none" points="
  2293.99,1384.3 2293.99,47.2441 
  "/>
<polyline clip-path="url(#clip640)" style="stroke:#000000; stroke-linecap:round; stroke-linejoin:round; stroke-width:4; stroke-opacity:1; fill:none" points="
  276.269,1384.3 2352.76,1384.3 
  "/>
<polyline clip-path="url(#clip640)" style="stroke:#000000; stroke-linecap:round; stroke-linejoin:round; stroke-width:4; stroke-opacity:1; fill:none" points="
  335.038,1384.3 335.038,1365.4 
  "/>
<polyline clip-path="url(#clip640)" style="stroke:#000000; stroke-linecap:round; stroke-linejoin:round; stroke-width:4; stroke-opacity:1; fill:none" points="
  824.775,1384.3 824.775,1365.4 
  "/>
<polyline clip-path="url(#clip640)" style="stroke:#000000; stroke-linecap:round; stroke-linejoin:round; stroke-width:4; stroke-opacity:1; fill:none" points="
  1314.51,1384.3 1314.51,1365.4 
  "/>
<polyline clip-path="url(#clip640)" style="stroke:#000000; stroke-linecap:round; stroke-linejoin:round; stroke-width:4; stroke-opacity:1; fill:none" points="
  1804.25,1384.3 1804.25,1365.4 
  "/>
<polyline clip-path="url(#clip640)" style="stroke:#000000; stroke-linecap:round; stroke-linejoin:round; stroke-width:4; stroke-opacity:1; fill:none" points="
  2293.99,1384.3 2293.99,1365.4 
  "/>
<path clip-path="url(#clip640)" d="M320.611 1462.4 L332.069 1462.4 L332.069 1422.85 L319.604 1425.35 L319.604 1418.96 L332 1416.46 L339.013 1416.46 L339.013 1462.4 L350.472 1462.4 L350.472 1468.3 L320.611 1468.3 L320.611 1462.4 Z" fill="#000000" fill-rule="evenodd" fill-opacity="1" /><path clip-path="url(#clip640)" d="M816.754 1462.4 L841.233 1462.4 L841.233 1468.3 L808.317 1468.3 L808.317 1462.4 Q812.31 1458.27 819.185 1451.32 Q826.095 1444.34 827.865 1442.33 Q831.234 1438.54 832.553 1435.94 Q833.907 1433.3 833.907 1430.77 Q833.907 1426.63 830.99 1424.03 Q828.109 1421.43 823.456 1421.43 Q820.157 1421.43 816.477 1422.57 Q812.831 1423.72 808.664 1426.04 L808.664 1418.96 Q812.9 1417.26 816.581 1416.39 Q820.261 1415.52 823.317 1415.52 Q831.372 1415.52 836.164 1419.55 Q840.956 1423.58 840.956 1430.31 Q840.956 1433.51 839.74 1436.39 Q838.56 1439.24 835.4 1443.13 Q834.532 1444.13 829.879 1448.96 Q825.227 1453.75 816.754 1462.4 Z" fill="#000000" fill-rule="evenodd" fill-opacity="1" /><path clip-path="url(#clip640)" d="M1320.88 1440.35 Q1325.92 1441.42 1328.73 1444.83 Q1331.58 1448.23 1331.58 1453.23 Q1331.58 1460.9 1326.3 1465.11 Q1321.02 1469.31 1311.3 1469.31 Q1308.04 1469.31 1304.56 1468.65 Q1301.13 1468.02 1297.45 1466.74 L1297.45 1459.97 Q1300.36 1461.67 1303.84 1462.54 Q1307.31 1463.4 1311.09 1463.4 Q1317.69 1463.4 1321.13 1460.8 Q1324.6 1458.2 1324.6 1453.23 Q1324.6 1448.65 1321.37 1446.08 Q1318.18 1443.47 1312.45 1443.47 L1306.41 1443.47 L1306.41 1437.71 L1312.72 1437.71 Q1317.9 1437.71 1320.64 1435.66 Q1323.38 1433.58 1323.38 1429.69 Q1323.38 1425.7 1320.54 1423.58 Q1317.72 1421.43 1312.45 1421.43 Q1309.56 1421.43 1306.27 1422.05 Q1302.97 1422.68 1299.01 1423.99 L1299.01 1417.74 Q1303 1416.63 1306.47 1416.08 Q1309.98 1415.52 1313.07 1415.52 Q1321.06 1415.52 1325.71 1419.17 Q1330.36 1422.78 1330.36 1428.96 Q1330.36 1433.27 1327.9 1436.25 Q1325.43 1439.2 1320.88 1440.35 Z" fill="#000000" fill-rule="evenodd" fill-opacity="1" /><path clip-path="url(#clip640)" d="M1808.76 1422.57 L1791.06 1450.24 L1808.76 1450.24 L1808.76 1422.57 M1806.92 1416.46 L1815.74 1416.46 L1815.74 1450.24 L1823.14 1450.24 L1823.14 1456.08 L1815.74 1456.08 L1815.74 1468.3 L1808.76 1468.3 L1808.76 1456.08 L1785.36 1456.08 L1785.36 1449.31 L1806.92 1416.46 Z" fill="#000000" fill-rule="evenodd" fill-opacity="1" /><path clip-path="url(#clip640)" d="M2279.4 1416.46 L2306.94 1416.46 L2306.94 1422.36 L2285.83 1422.36 L2285.83 1435.07 Q2287.36 1434.55 2288.88 1434.31 Q2290.41 1434.03 2291.94 1434.03 Q2300.62 1434.03 2305.69 1438.79 Q2310.76 1443.54 2310.76 1451.67 Q2310.76 1460.04 2305.55 1464.69 Q2300.34 1469.31 2290.86 1469.31 Q2287.6 1469.31 2284.2 1468.75 Q2280.83 1468.2 2277.22 1467.08 L2277.22 1460.04 Q2280.34 1461.74 2283.67 1462.57 Q2287.01 1463.4 2290.72 1463.4 Q2296.73 1463.4 2300.24 1460.24 Q2303.74 1457.08 2303.74 1451.67 Q2303.74 1446.25 2300.24 1443.09 Q2296.73 1439.93 2290.72 1439.93 Q2287.91 1439.93 2285.1 1440.56 Q2282.32 1441.18 2279.4 1442.5 L2279.4 1416.46 Z" fill="#000000" fill-rule="evenodd" fill-opacity="1" /><path clip-path="url(#clip640)" d="M1237.92 1511.88 L1247.27 1511.88 L1247.27 1573.13 L1280.92 1573.13 L1280.92 1581 L1237.92 1581 L1237.92 1511.88 Z" fill="#000000" fill-rule="evenodd" fill-opacity="1" /><path clip-path="url(#clip640)" d="M1313.93 1554.94 Q1303.61 1554.94 1299.63 1557.3 Q1295.65 1559.66 1295.65 1565.36 Q1295.65 1569.89 1298.61 1572.58 Q1301.62 1575.22 1306.76 1575.22 Q1313.84 1575.22 1318.1 1570.22 Q1322.41 1565.17 1322.41 1556.84 L1322.41 1554.94 L1313.93 1554.94 M1330.92 1551.42 L1330.92 1581 L1322.41 1581 L1322.41 1573.13 Q1319.49 1577.86 1315.14 1580.12 Q1310.79 1582.35 1304.49 1582.35 Q1296.53 1582.35 1291.8 1577.9 Q1287.13 1573.41 1287.13 1565.91 Q1287.13 1557.16 1292.96 1552.72 Q1298.84 1548.27 1310.46 1548.27 L1322.41 1548.27 L1322.41 1547.44 Q1322.41 1541.56 1318.52 1538.37 Q1314.67 1535.12 1307.68 1535.12 Q1303.24 1535.12 1299.03 1536.19 Q1294.81 1537.25 1290.92 1539.38 L1290.92 1531.51 Q1295.6 1529.71 1300 1528.83 Q1304.4 1527.9 1308.56 1527.9 Q1319.81 1527.9 1325.37 1533.74 Q1330.92 1539.57 1330.92 1551.42 Z" fill="#000000" fill-rule="evenodd" fill-opacity="1" /><path clip-path="url(#clip640)" d="M1382.59 1554.48 Q1382.59 1545.22 1378.75 1540.12 Q1374.95 1535.03 1368.05 1535.03 Q1361.2 1535.03 1357.36 1540.12 Q1353.56 1545.22 1353.56 1554.48 Q1353.56 1563.69 1357.36 1568.78 Q1361.2 1573.87 1368.05 1573.87 Q1374.95 1573.87 1378.75 1568.78 Q1382.59 1563.69 1382.59 1554.48 M1391.11 1574.57 Q1391.11 1587.81 1385.23 1594.24 Q1379.35 1600.73 1367.22 1600.73 Q1362.73 1600.73 1358.75 1600.03 Q1354.77 1599.38 1351.02 1597.99 L1351.02 1589.71 Q1354.77 1591.74 1358.42 1592.72 Q1362.08 1593.69 1365.88 1593.69 Q1374.26 1593.69 1378.42 1589.29 Q1382.59 1584.94 1382.59 1576.1 L1382.59 1571.88 Q1379.95 1576.47 1375.83 1578.74 Q1371.71 1581 1365.97 1581 Q1356.43 1581 1350.6 1573.74 Q1344.77 1566.47 1344.77 1554.48 Q1344.77 1542.44 1350.6 1535.17 Q1356.43 1527.9 1365.97 1527.9 Q1371.71 1527.9 1375.83 1530.17 Q1379.95 1532.44 1382.59 1537.02 L1382.59 1529.15 L1391.11 1529.15 L1391.11 1574.57 Z" fill="#000000" fill-rule="evenodd" fill-opacity="1" /><polyline clip-path="url(#clip642)" style="stroke:#000000; stroke-linecap:round; stroke-linejoin:round; stroke-width:2; stroke-opacity:0.1; fill:none" points="
  276.269,1234.23 2352.76,1234.23 
  "/>
<polyline clip-path="url(#clip642)" style="stroke:#000000; stroke-linecap:round; stroke-linejoin:round; stroke-width:2; stroke-opacity:0.1; fill:none" points="
  276.269,1052.62 2352.76,1052.62 
  "/>
<polyline clip-path="url(#clip642)" style="stroke:#000000; stroke-linecap:round; stroke-linejoin:round; stroke-width:2; stroke-opacity:0.1; fill:none" points="
  276.269,871.01 2352.76,871.01 
  "/>
<polyline clip-path="url(#clip642)" style="stroke:#000000; stroke-linecap:round; stroke-linejoin:round; stroke-width:2; stroke-opacity:0.1; fill:none" points="
  276.269,689.401 2352.76,689.401 
  "/>
<polyline clip-path="url(#clip642)" style="stroke:#000000; stroke-linecap:round; stroke-linejoin:round; stroke-width:2; stroke-opacity:0.1; fill:none" points="
  276.269,507.792 2352.76,507.792 
  "/>
<polyline clip-path="url(#clip642)" style="stroke:#000000; stroke-linecap:round; stroke-linejoin:round; stroke-width:2; stroke-opacity:0.1; fill:none" points="
  276.269,326.183 2352.76,326.183 
  "/>
<polyline clip-path="url(#clip642)" style="stroke:#000000; stroke-linecap:round; stroke-linejoin:round; stroke-width:2; stroke-opacity:0.1; fill:none" points="
  276.269,144.574 2352.76,144.574 
  "/>
<polyline clip-path="url(#clip640)" style="stroke:#000000; stroke-linecap:round; stroke-linejoin:round; stroke-width:4; stroke-opacity:1; fill:none" points="
  276.269,1384.3 276.269,47.2441 
  "/>
<polyline clip-path="url(#clip640)" style="stroke:#000000; stroke-linecap:round; stroke-linejoin:round; stroke-width:4; stroke-opacity:1; fill:none" points="
  276.269,1234.23 295.167,1234.23 
  "/>
<polyline clip-path="url(#clip640)" style="stroke:#000000; stroke-linecap:round; stroke-linejoin:round; stroke-width:4; stroke-opacity:1; fill:none" points="
  276.269,1052.62 295.167,1052.62 
  "/>
<polyline clip-path="url(#clip640)" style="stroke:#000000; stroke-linecap:round; stroke-linejoin:round; stroke-width:4; stroke-opacity:1; fill:none" points="
  276.269,871.01 295.167,871.01 
  "/>
<polyline clip-path="url(#clip640)" style="stroke:#000000; stroke-linecap:round; stroke-linejoin:round; stroke-width:4; stroke-opacity:1; fill:none" points="
  276.269,689.401 295.167,689.401 
  "/>
<polyline clip-path="url(#clip640)" style="stroke:#000000; stroke-linecap:round; stroke-linejoin:round; stroke-width:4; stroke-opacity:1; fill:none" points="
  276.269,507.792 295.167,507.792 
  "/>
<polyline clip-path="url(#clip640)" style="stroke:#000000; stroke-linecap:round; stroke-linejoin:round; stroke-width:4; stroke-opacity:1; fill:none" points="
  276.269,326.183 295.167,326.183 
  "/>
<polyline clip-path="url(#clip640)" style="stroke:#000000; stroke-linecap:round; stroke-linejoin:round; stroke-width:4; stroke-opacity:1; fill:none" points="
  276.269,144.574 295.167,144.574 
  "/>
<path clip-path="url(#clip640)" d="M154.506 1212.93 Q149.089 1212.93 146.346 1218.27 Q143.638 1223.59 143.638 1234.28 Q143.638 1244.94 146.346 1250.29 Q149.089 1255.6 154.506 1255.6 Q159.957 1255.6 162.666 1250.29 Q165.409 1244.94 165.409 1234.28 Q165.409 1223.59 162.666 1218.27 Q159.957 1212.93 154.506 1212.93 M154.506 1207.37 Q163.221 1207.37 167.804 1214.28 Q172.422 1221.16 172.422 1234.28 Q172.422 1247.37 167.804 1254.28 Q163.221 1261.16 154.506 1261.16 Q145.791 1261.16 141.173 1254.28 Q136.589 1247.37 136.589 1234.28 Q136.589 1221.16 141.173 1214.28 Q145.791 1207.37 154.506 1207.37 Z" fill="#000000" fill-rule="evenodd" fill-opacity="1" /><path clip-path="url(#clip640)" d="M184.749 1251.33 L192.075 1251.33 L192.075 1260.15 L184.749 1260.15 L184.749 1251.33 Z" fill="#000000" fill-rule="evenodd" fill-opacity="1" /><path clip-path="url(#clip640)" d="M222.353 1212.93 Q216.936 1212.93 214.193 1218.27 Q211.485 1223.59 211.485 1234.28 Q211.485 1244.94 214.193 1250.29 Q216.936 1255.6 222.353 1255.6 Q227.804 1255.6 230.512 1250.29 Q233.255 1244.94 233.255 1234.28 Q233.255 1223.59 230.512 1218.27 Q227.804 1212.93 222.353 1212.93 M222.353 1207.37 Q231.068 1207.37 235.651 1214.28 Q240.269 1221.16 240.269 1234.28 Q240.269 1247.37 235.651 1254.28 Q231.068 1261.16 222.353 1261.16 Q213.638 1261.16 209.019 1254.28 Q204.436 1247.37 204.436 1234.28 Q204.436 1221.16 209.019 1214.28 Q213.638 1207.37 222.353 1207.37 Z" fill="#000000" fill-rule="evenodd" fill-opacity="1" /><path clip-path="url(#clip640)" d="M156.346 1031.32 Q150.93 1031.32 148.186 1036.66 Q145.478 1041.98 145.478 1052.67 Q145.478 1063.33 148.186 1068.68 Q150.93 1073.99 156.346 1073.99 Q161.798 1073.99 164.506 1068.68 Q167.249 1063.33 167.249 1052.67 Q167.249 1041.98 164.506 1036.66 Q161.798 1031.32 156.346 1031.32 M156.346 1025.76 Q165.061 1025.76 169.645 1032.67 Q174.263 1039.55 174.263 1052.67 Q174.263 1065.76 169.645 1072.67 Q165.061 1079.55 156.346 1079.55 Q147.631 1079.55 143.013 1072.67 Q138.43 1065.76 138.43 1052.67 Q138.43 1039.55 143.013 1032.67 Q147.631 1025.76 156.346 1025.76 Z" fill="#000000" fill-rule="evenodd" fill-opacity="1" /><path clip-path="url(#clip640)" d="M186.589 1069.72 L193.915 1069.72 L193.915 1078.54 L186.589 1078.54 L186.589 1069.72 Z" fill="#000000" fill-rule="evenodd" fill-opacity="1" /><path clip-path="url(#clip640)" d="M210.408 1072.64 L221.867 1072.64 L221.867 1033.09 L209.401 1035.59 L209.401 1029.2 L221.797 1026.7 L228.811 1026.7 L228.811 1072.64 L240.269 1072.64 L240.269 1078.54 L210.408 1078.54 L210.408 1072.64 Z" fill="#000000" fill-rule="evenodd" fill-opacity="1" /><path clip-path="url(#clip640)" d="M156.902 849.708 Q151.485 849.708 148.742 855.055 Q146.034 860.368 146.034 871.062 Q146.034 881.722 148.742 887.069 Q151.485 892.381 156.902 892.381 Q162.353 892.381 165.061 887.069 Q167.804 881.722 167.804 871.062 Q167.804 860.368 165.061 855.055 Q162.353 849.708 156.902 849.708 M156.902 844.152 Q165.617 844.152 170.2 851.062 Q174.818 857.937 174.818 871.062 Q174.818 884.152 170.2 891.062 Q165.617 897.937 156.902 897.937 Q148.186 897.937 143.568 891.062 Q138.985 884.152 138.985 871.062 Q138.985 857.937 143.568 851.062 Q148.186 844.152 156.902 844.152 Z" fill="#000000" fill-rule="evenodd" fill-opacity="1" /><path clip-path="url(#clip640)" d="M187.145 888.111 L194.471 888.111 L194.471 896.93 L187.145 896.93 L187.145 888.111 Z" fill="#000000" fill-rule="evenodd" fill-opacity="1" /><path clip-path="url(#clip640)" d="M215.79 891.027 L240.269 891.027 L240.269 896.93 L207.353 896.93 L207.353 891.027 Q211.346 886.895 218.221 879.951 Q225.131 872.972 226.901 870.958 Q230.269 867.173 231.589 864.569 Q232.943 861.93 232.943 859.395 Q232.943 855.264 230.026 852.659 Q227.144 850.055 222.492 850.055 Q219.193 850.055 215.513 851.201 Q211.867 852.347 207.7 854.673 L207.7 847.59 Q211.936 845.889 215.617 845.021 Q219.297 844.152 222.353 844.152 Q230.408 844.152 235.2 848.18 Q239.992 852.208 239.992 858.944 Q239.992 862.138 238.776 865.02 Q237.596 867.868 234.436 871.756 Q233.568 872.763 228.915 877.59 Q224.262 882.381 215.79 891.027 Z" fill="#000000" fill-rule="evenodd" fill-opacity="1" /><path clip-path="url(#clip640)" d="M155.478 668.099 Q150.061 668.099 147.318 673.446 Q144.61 678.759 144.61 689.453 Q144.61 700.113 147.318 705.46 Q150.061 710.772 155.478 710.772 Q160.929 710.772 163.638 705.46 Q166.381 700.113 166.381 689.453 Q166.381 678.759 163.638 673.446 Q160.929 668.099 155.478 668.099 M155.478 662.543 Q164.193 662.543 168.777 669.453 Q173.395 676.328 173.395 689.453 Q173.395 702.543 168.777 709.453 Q164.193 716.328 155.478 716.328 Q146.763 716.328 142.145 709.453 Q137.562 702.543 137.562 689.453 Q137.562 676.328 142.145 669.453 Q146.763 662.543 155.478 662.543 Z" fill="#000000" fill-rule="evenodd" fill-opacity="1" /><path clip-path="url(#clip640)" d="M185.721 706.502 L193.047 706.502 L193.047 715.321 L185.721 715.321 L185.721 706.502 Z" fill="#000000" fill-rule="evenodd" fill-opacity="1" /><path clip-path="url(#clip640)" d="M229.575 687.37 Q234.61 688.446 237.422 691.849 Q240.269 695.252 240.269 700.252 Q240.269 707.925 234.992 712.126 Q229.714 716.328 219.992 716.328 Q216.728 716.328 213.256 715.668 Q209.818 715.043 206.138 713.758 L206.138 706.988 Q209.054 708.689 212.526 709.557 Q215.999 710.425 219.783 710.425 Q226.381 710.425 229.818 707.821 Q233.29 705.217 233.29 700.252 Q233.29 695.668 230.061 693.099 Q226.867 690.495 221.137 690.495 L215.096 690.495 L215.096 684.731 L221.415 684.731 Q226.589 684.731 229.332 682.682 Q232.075 680.599 232.075 676.71 Q232.075 672.717 229.228 670.599 Q226.415 668.446 221.137 668.446 Q218.256 668.446 214.957 669.071 Q211.658 669.696 207.7 671.016 L207.7 664.766 Q211.693 663.655 215.165 663.099 Q218.672 662.543 221.762 662.543 Q229.749 662.543 234.401 666.189 Q239.054 669.8 239.054 675.981 Q239.054 680.286 236.589 683.272 Q234.124 686.224 229.575 687.37 Z" fill="#000000" fill-rule="evenodd" fill-opacity="1" /><path clip-path="url(#clip640)" d="M153.777 486.49 Q148.36 486.49 145.617 491.837 Q142.909 497.15 142.909 507.844 Q142.909 518.504 145.617 523.851 Q148.36 529.163 153.777 529.163 Q159.228 529.163 161.936 523.851 Q164.679 518.504 164.679 507.844 Q164.679 497.15 161.936 491.837 Q159.228 486.49 153.777 486.49 M153.777 480.934 Q162.492 480.934 167.075 487.844 Q171.693 494.719 171.693 507.844 Q171.693 520.934 167.075 527.844 Q162.492 534.719 153.777 534.719 Q145.061 534.719 140.443 527.844 Q135.86 520.934 135.86 507.844 Q135.86 494.719 140.443 487.844 Q145.061 480.934 153.777 480.934 Z" fill="#000000" fill-rule="evenodd" fill-opacity="1" /><path clip-path="url(#clip640)" d="M184.02 524.892 L191.346 524.892 L191.346 533.712 L184.02 533.712 L184.02 524.892 Z" fill="#000000" fill-rule="evenodd" fill-opacity="1" /><path clip-path="url(#clip640)" d="M225.894 487.983 L208.186 515.656 L225.894 515.656 L225.894 487.983 M224.054 481.872 L232.874 481.872 L232.874 515.656 L240.269 515.656 L240.269 521.49 L232.874 521.49 L232.874 533.712 L225.894 533.712 L225.894 521.49 L202.492 521.49 L202.492 514.719 L224.054 481.872 Z" fill="#000000" fill-rule="evenodd" fill-opacity="1" /><path clip-path="url(#clip640)" d="M155.999 304.881 Q150.582 304.881 147.839 310.228 Q145.131 315.54 145.131 326.235 Q145.131 336.895 147.839 342.242 Q150.582 347.554 155.999 347.554 Q161.45 347.554 164.159 342.242 Q166.902 336.895 166.902 326.235 Q166.902 315.54 164.159 310.228 Q161.45 304.881 155.999 304.881 M155.999 299.325 Q164.714 299.325 169.297 306.235 Q173.916 313.11 173.916 326.235 Q173.916 339.325 169.297 346.235 Q164.714 353.11 155.999 353.11 Q147.284 353.11 142.666 346.235 Q138.082 339.325 138.082 326.235 Q138.082 313.11 142.666 306.235 Q147.284 299.325 155.999 299.325 Z" fill="#000000" fill-rule="evenodd" fill-opacity="1" /><path clip-path="url(#clip640)" d="M186.242 343.283 L193.568 343.283 L193.568 352.103 L186.242 352.103 L186.242 343.283 Z" fill="#000000" fill-rule="evenodd" fill-opacity="1" /><path clip-path="url(#clip640)" d="M208.915 300.263 L236.45 300.263 L236.45 306.166 L215.339 306.166 L215.339 318.874 Q216.867 318.353 218.394 318.11 Q219.922 317.832 221.45 317.832 Q230.13 317.832 235.2 322.589 Q240.269 327.346 240.269 335.471 Q240.269 343.839 235.061 348.492 Q229.853 353.11 220.374 353.11 Q217.11 353.11 213.707 352.554 Q210.339 351.999 206.728 350.888 L206.728 343.839 Q209.853 345.54 213.186 346.374 Q216.519 347.207 220.235 347.207 Q226.242 347.207 229.749 344.047 Q233.255 340.888 233.255 335.471 Q233.255 330.054 229.749 326.895 Q226.242 323.735 220.235 323.735 Q217.422 323.735 214.61 324.36 Q211.832 324.985 208.915 326.304 L208.915 300.263 Z" fill="#000000" fill-rule="evenodd" fill-opacity="1" /><path clip-path="url(#clip640)" d="M154.263 123.272 Q148.846 123.272 146.103 128.619 Q143.395 133.931 143.395 144.626 Q143.395 155.285 146.103 160.633 Q148.846 165.945 154.263 165.945 Q159.714 165.945 162.423 160.633 Q165.166 155.285 165.166 144.626 Q165.166 133.931 162.423 128.619 Q159.714 123.272 154.263 123.272 M154.263 117.716 Q162.978 117.716 167.561 124.626 Q172.179 131.501 172.179 144.626 Q172.179 157.716 167.561 164.626 Q162.978 171.501 154.263 171.501 Q145.548 171.501 140.93 164.626 Q136.346 157.716 136.346 144.626 Q136.346 131.501 140.93 124.626 Q145.548 117.716 154.263 117.716 Z" fill="#000000" fill-rule="evenodd" fill-opacity="1" /><path clip-path="url(#clip640)" d="M184.506 161.674 L191.832 161.674 L191.832 170.494 L184.506 170.494 L184.506 161.674 Z" fill="#000000" fill-rule="evenodd" fill-opacity="1" /><path clip-path="url(#clip640)" d="M222.978 141.779 Q218.256 141.779 215.478 145.008 Q212.735 148.237 212.735 153.862 Q212.735 159.452 215.478 162.716 Q218.256 165.945 222.978 165.945 Q227.7 165.945 230.443 162.716 Q233.221 159.452 233.221 153.862 Q233.221 148.237 230.443 145.008 Q227.7 141.779 222.978 141.779 M236.901 119.8 L236.901 126.188 Q234.262 124.938 231.554 124.279 Q228.88 123.619 226.242 123.619 Q219.297 123.619 215.617 128.306 Q211.971 132.994 211.45 142.473 Q213.499 139.452 216.589 137.855 Q219.679 136.223 223.394 136.223 Q231.207 136.223 235.721 140.98 Q240.269 145.702 240.269 153.862 Q240.269 161.848 235.547 166.674 Q230.825 171.501 222.978 171.501 Q213.985 171.501 209.228 164.626 Q204.471 157.716 204.471 144.626 Q204.471 132.334 210.304 125.043 Q216.138 117.716 225.964 117.716 Q228.603 117.716 231.276 118.237 Q233.985 118.758 236.901 119.8 Z" fill="#000000" fill-rule="evenodd" fill-opacity="1" /><path clip-path="url(#clip640)" d="M17.6893 1226.23 L43.6614 1226.23 L43.6614 1214.47 Q43.6614 1207.95 40.2818 1204.38 Q36.9022 1200.82 30.6522 1200.82 Q24.4485 1200.82 21.0689 1204.38 Q17.6893 1207.95 17.6893 1214.47 L17.6893 1226.23 M10.0042 1235.58 L10.0042 1214.47 Q10.0042 1202.85 15.2819 1196.93 Q20.5134 1190.95 30.6522 1190.95 Q40.8836 1190.95 46.1151 1196.93 Q51.3465 1202.85 51.3465 1214.47 L51.3465 1226.23 L79.1242 1226.23 L79.1242 1235.58 L10.0042 1235.58 Z" fill="#000000" fill-rule="evenodd" fill-opacity="1" /><path clip-path="url(#clip640)" d="M53.0595 1159.47 Q53.0595 1169.8 55.4206 1173.78 Q57.7817 1177.76 63.4761 1177.76 Q68.0131 1177.76 70.6983 1174.8 Q73.3372 1171.79 73.3372 1166.65 Q73.3372 1159.57 68.3372 1155.31 Q63.2909 1151 54.9576 1151 L53.0595 1151 L53.0595 1159.47 M49.541 1142.48 L79.1242 1142.48 L79.1242 1151 L71.2538 1151 Q75.976 1153.92 78.2445 1158.27 Q80.4667 1162.62 80.4667 1168.92 Q80.4667 1176.88 76.0223 1181.6 Q71.5316 1186.28 64.0316 1186.28 Q55.2817 1186.28 50.8373 1180.45 Q46.3929 1174.57 46.3929 1162.95 L46.3929 1151 L45.5595 1151 Q39.6799 1151 36.4855 1154.89 Q33.2448 1158.73 33.2448 1165.72 Q33.2448 1170.17 34.3096 1174.38 Q35.3744 1178.59 37.504 1182.48 L29.6337 1182.48 Q27.8281 1177.81 26.9485 1173.41 Q26.0226 1169.01 26.0226 1164.84 Q26.0226 1153.59 31.8559 1148.04 Q37.6892 1142.48 49.541 1142.48 Z" fill="#000000" fill-rule="evenodd" fill-opacity="1" /><path clip-path="url(#clip640)" d="M35.2355 1094.89 Q34.4022 1096.33 34.0318 1098.04 Q33.6151 1099.71 33.6151 1101.74 Q33.6151 1108.96 38.3373 1112.85 Q43.0132 1116.7 51.8095 1116.7 L79.1242 1116.7 L79.1242 1125.26 L27.2726 1125.26 L27.2726 1116.7 L35.3281 1116.7 Q30.6059 1114.01 28.3374 1109.71 Q26.0226 1105.4 26.0226 1099.24 Q26.0226 1098.36 26.1615 1097.3 Q26.2541 1096.23 26.4856 1094.94 L35.2355 1094.89 Z" fill="#000000" fill-rule="evenodd" fill-opacity="1" /><path clip-path="url(#clip640)" d="M12.5504 1077.53 L27.2726 1077.53 L27.2726 1059.98 L33.8929 1059.98 L33.8929 1077.53 L62.0409 1077.53 Q68.3835 1077.53 70.189 1075.82 Q71.9946 1074.06 71.9946 1068.73 L71.9946 1059.98 L79.1242 1059.98 L79.1242 1068.73 Q79.1242 1078.59 75.4668 1082.34 Q71.7631 1086.09 62.0409 1086.09 L33.8929 1086.09 L33.8929 1092.34 L27.2726 1092.34 L27.2726 1086.09 L12.5504 1086.09 L12.5504 1077.53 Z" fill="#000000" fill-rule="evenodd" fill-opacity="1" /><path clip-path="url(#clip640)" d="M27.2726 1048.78 L27.2726 1040.26 L79.1242 1040.26 L79.1242 1048.78 L27.2726 1048.78 M7.08751 1048.78 L7.08751 1040.26 L17.8745 1040.26 L17.8745 1048.78 L7.08751 1048.78 Z" fill="#000000" fill-rule="evenodd" fill-opacity="1" /><path clip-path="url(#clip640)" d="M53.0595 998.872 Q53.0595 1009.2 55.4206 1013.18 Q57.7817 1017.16 63.4761 1017.16 Q68.0131 1017.16 70.6983 1014.2 Q73.3372 1011.19 73.3372 1006.05 Q73.3372 998.965 68.3372 994.706 Q63.2909 990.4 54.9576 990.4 L53.0595 990.4 L53.0595 998.872 M49.541 981.882 L79.1242 981.882 L79.1242 990.4 L71.2538 990.4 Q75.976 993.317 78.2445 997.669 Q80.4667 1002.02 80.4667 1008.32 Q80.4667 1016.28 76.0223 1021 Q71.5316 1025.68 64.0316 1025.68 Q55.2817 1025.68 50.8373 1019.84 Q46.3929 1013.96 46.3929 1002.34 L46.3929 990.4 L45.5595 990.4 Q39.6799 990.4 36.4855 994.289 Q33.2448 998.132 33.2448 1005.12 Q33.2448 1009.57 34.3096 1013.78 Q35.3744 1017.99 37.504 1021.88 L29.6337 1021.88 Q27.8281 1017.21 26.9485 1012.81 Q26.0226 1008.41 26.0226 1004.24 Q26.0226 992.993 31.8559 987.437 Q37.6892 981.882 49.541 981.882 Z" fill="#000000" fill-rule="evenodd" fill-opacity="1" /><path clip-path="url(#clip640)" d="M7.08751 964.335 L7.08751 955.817 L79.1242 955.817 L79.1242 964.335 L7.08751 964.335 Z" fill="#000000" fill-rule="evenodd" fill-opacity="1" /><path clip-path="url(#clip640)" d="M19.2171 884.382 L53.615 897.067 L53.615 871.651 L19.2171 884.382 M10.0042 889.66 L10.0042 879.058 L79.1242 852.716 L79.1242 862.438 L61.3928 868.734 L61.3928 899.891 L79.1242 906.188 L79.1242 916.049 L10.0042 889.66 Z" fill="#000000" fill-rule="evenodd" fill-opacity="1" /><path clip-path="url(#clip640)" d="M58.6613 843.873 L27.2726 843.873 L27.2726 835.355 L58.3372 835.355 Q65.6983 835.355 69.402 832.484 Q73.0594 829.614 73.0594 823.873 Q73.0594 816.975 68.6613 812.994 Q64.2631 808.966 56.6706 808.966 L27.2726 808.966 L27.2726 800.447 L79.1242 800.447 L79.1242 808.966 L71.1612 808.966 Q75.8834 812.068 78.1982 816.188 Q80.4667 820.262 80.4667 825.679 Q80.4667 834.614 74.9112 839.244 Q69.3557 843.873 58.6613 843.873 M26.0226 822.438 L26.0226 822.438 Z" fill="#000000" fill-rule="evenodd" fill-opacity="1" /><path clip-path="url(#clip640)" d="M12.5504 774.475 L27.2726 774.475 L27.2726 756.929 L33.8929 756.929 L33.8929 774.475 L62.0409 774.475 Q68.3835 774.475 70.189 772.762 Q71.9946 771.003 71.9946 765.679 L71.9946 756.929 L79.1242 756.929 L79.1242 765.679 Q79.1242 775.54 75.4668 779.29 Q71.7631 783.04 62.0409 783.04 L33.8929 783.04 L33.8929 789.29 L27.2726 789.29 L27.2726 783.04 L12.5504 783.04 L12.5504 774.475 Z" fill="#000000" fill-rule="evenodd" fill-opacity="1" /><path clip-path="url(#clip640)" d="M33.2448 725.633 Q33.2448 732.485 38.6151 736.466 Q43.9392 740.448 53.2447 740.448 Q62.5502 740.448 67.9205 736.513 Q73.2446 732.531 73.2446 725.633 Q73.2446 718.828 67.8742 714.846 Q62.5039 710.865 53.2447 710.865 Q44.0318 710.865 38.6614 714.846 Q33.2448 718.828 33.2448 725.633 M26.0226 725.633 Q26.0226 714.522 33.2448 708.179 Q40.467 701.837 53.2447 701.837 Q65.9761 701.837 73.2446 708.179 Q80.4667 714.522 80.4667 725.633 Q80.4667 736.79 73.2446 743.133 Q65.9761 749.429 53.2447 749.429 Q40.467 749.429 33.2448 743.133 Q26.0226 736.79 26.0226 725.633 Z" fill="#000000" fill-rule="evenodd" fill-opacity="1" /><path clip-path="url(#clip640)" d="M29.2633 650.402 L37.2262 650.402 Q35.2355 654.013 34.2633 657.67 Q33.2448 661.282 33.2448 664.985 Q33.2448 673.272 38.5225 677.856 Q43.754 682.439 53.2447 682.439 Q62.7354 682.439 68.0131 677.856 Q73.2446 673.272 73.2446 664.985 Q73.2446 661.282 72.2723 657.67 Q71.2538 654.013 69.2631 650.402 L77.1334 650.402 Q78.8001 653.967 79.6334 657.809 Q80.4667 661.606 80.4667 665.911 Q80.4667 677.624 73.1057 684.522 Q65.7446 691.42 53.2447 691.42 Q40.5595 691.42 33.2911 684.476 Q26.0226 677.485 26.0226 665.356 Q26.0226 661.42 26.8559 657.67 Q27.643 653.92 29.2633 650.402 Z" fill="#000000" fill-rule="evenodd" fill-opacity="1" /><path clip-path="url(#clip640)" d="M33.2448 615.495 Q33.2448 622.347 38.6151 626.328 Q43.9392 630.309 53.2447 630.309 Q62.5502 630.309 67.9205 626.374 Q73.2446 622.393 73.2446 615.495 Q73.2446 608.689 67.8742 604.708 Q62.5039 600.726 53.2447 600.726 Q44.0318 600.726 38.6614 604.708 Q33.2448 608.689 33.2448 615.495 M26.0226 615.495 Q26.0226 604.384 33.2448 598.041 Q40.467 591.699 53.2447 591.699 Q65.9761 591.699 73.2446 598.041 Q80.4667 604.384 80.4667 615.495 Q80.4667 626.652 73.2446 632.995 Q65.9761 639.291 53.2447 639.291 Q40.467 639.291 33.2448 632.995 Q26.0226 626.652 26.0226 615.495 Z" fill="#000000" fill-rule="evenodd" fill-opacity="1" /><path clip-path="url(#clip640)" d="M35.2355 547.532 Q34.4022 548.967 34.0318 550.68 Q33.6151 552.347 33.6151 554.384 Q33.6151 561.606 38.3373 565.495 Q43.0132 569.338 51.8095 569.338 L79.1242 569.338 L79.1242 577.902 L27.2726 577.902 L27.2726 569.338 L35.3281 569.338 Q30.6059 566.652 28.3374 562.347 Q26.0226 558.041 26.0226 551.884 Q26.0226 551.004 26.1615 549.94 Q26.2541 548.875 26.4856 547.578 L35.2355 547.532 Z" fill="#000000" fill-rule="evenodd" fill-opacity="1" /><path clip-path="url(#clip640)" d="M35.2355 510.218 Q34.4022 511.653 34.0318 513.366 Q33.6151 515.032 33.6151 517.069 Q33.6151 524.292 38.3373 528.18 Q43.0132 532.023 51.8095 532.023 L79.1242 532.023 L79.1242 540.588 L27.2726 540.588 L27.2726 532.023 L35.3281 532.023 Q30.6059 529.338 28.3374 525.032 Q26.0226 520.727 26.0226 514.569 Q26.0226 513.69 26.1615 512.625 Q26.2541 511.56 26.4856 510.264 L35.2355 510.218 Z" fill="#000000" fill-rule="evenodd" fill-opacity="1" /><path clip-path="url(#clip640)" d="M51.0688 459.014 L55.2354 459.014 L55.2354 498.181 Q64.0316 497.625 68.6613 492.903 Q73.2446 488.134 73.2446 479.662 Q73.2446 474.755 72.0409 470.171 Q70.8372 465.542 68.4298 461.005 L76.4853 461.005 Q78.4297 465.588 79.4482 470.403 Q80.4667 475.218 80.4667 480.171 Q80.4667 492.579 73.2446 499.847 Q66.0224 507.069 53.7076 507.069 Q40.9762 507.069 33.5225 500.218 Q26.0226 493.319 26.0226 481.653 Q26.0226 471.19 32.7818 465.125 Q39.4947 459.014 51.0688 459.014 M48.5688 467.533 Q41.5781 467.625 37.4114 471.468 Q33.2448 475.264 33.2448 481.56 Q33.2448 488.69 37.2725 492.995 Q41.3003 497.255 48.6151 497.903 L48.5688 467.533 Z" fill="#000000" fill-rule="evenodd" fill-opacity="1" /><path clip-path="url(#clip640)" d="M7.08751 445.033 L7.08751 436.514 L79.1242 436.514 L79.1242 445.033 L7.08751 445.033 Z" fill="#000000" fill-rule="evenodd" fill-opacity="1" /><path clip-path="url(#clip640)" d="M53.0595 395.126 Q53.0595 405.45 55.4206 409.431 Q57.7817 413.412 63.4761 413.412 Q68.0131 413.412 70.6983 410.45 Q73.3372 407.44 73.3372 402.301 Q73.3372 395.218 68.3372 390.959 Q63.2909 386.653 54.9576 386.653 L53.0595 386.653 L53.0595 395.126 M49.541 378.135 L79.1242 378.135 L79.1242 386.653 L71.2538 386.653 Q75.976 389.57 78.2445 393.922 Q80.4667 398.274 80.4667 404.57 Q80.4667 412.533 76.0223 417.255 Q71.5316 421.931 64.0316 421.931 Q55.2817 421.931 50.8373 416.098 Q46.3929 410.218 46.3929 398.598 L46.3929 386.653 L45.5595 386.653 Q39.6799 386.653 36.4855 390.542 Q33.2448 394.385 33.2448 401.376 Q33.2448 405.82 34.3096 410.033 Q35.3744 414.246 37.504 418.135 L29.6337 418.135 Q27.8281 413.459 26.9485 409.061 Q26.0226 404.663 26.0226 400.496 Q26.0226 389.246 31.8559 383.69 Q37.6892 378.135 49.541 378.135 Z" fill="#000000" fill-rule="evenodd" fill-opacity="1" /><path clip-path="url(#clip640)" d="M12.5504 352.163 L27.2726 352.163 L27.2726 334.617 L33.8929 334.617 L33.8929 352.163 L62.0409 352.163 Q68.3835 352.163 70.189 350.45 Q71.9946 348.691 71.9946 343.367 L71.9946 334.617 L79.1242 334.617 L79.1242 343.367 Q79.1242 353.228 75.4668 356.978 Q71.7631 360.728 62.0409 360.728 L33.8929 360.728 L33.8929 366.978 L27.2726 366.978 L27.2726 360.728 L12.5504 360.728 L12.5504 352.163 Z" fill="#000000" fill-rule="evenodd" fill-opacity="1" /><path clip-path="url(#clip640)" d="M27.2726 323.413 L27.2726 314.894 L79.1242 314.894 L79.1242 323.413 L27.2726 323.413 M7.08751 323.413 L7.08751 314.894 L17.8745 314.894 L17.8745 323.413 L7.08751 323.413 Z" fill="#000000" fill-rule="evenodd" fill-opacity="1" /><path clip-path="url(#clip640)" d="M33.2448 276.978 Q33.2448 283.83 38.6151 287.811 Q43.9392 291.793 53.2447 291.793 Q62.5502 291.793 67.9205 287.858 Q73.2446 283.876 73.2446 276.978 Q73.2446 270.173 67.8742 266.191 Q62.5039 262.21 53.2447 262.21 Q44.0318 262.21 38.6614 266.191 Q33.2448 270.173 33.2448 276.978 M26.0226 276.978 Q26.0226 265.867 33.2448 259.524 Q40.467 253.182 53.2447 253.182 Q65.9761 253.182 73.2446 259.524 Q80.4667 265.867 80.4667 276.978 Q80.4667 288.135 73.2446 294.478 Q65.9761 300.774 53.2447 300.774 Q40.467 300.774 33.2448 294.478 Q26.0226 288.135 26.0226 276.978 Z" fill="#000000" fill-rule="evenodd" fill-opacity="1" /><path clip-path="url(#clip640)" d="M47.828 195.96 L79.1242 195.96 L79.1242 204.478 L48.1058 204.478 Q40.7447 204.478 37.0873 207.349 Q33.43 210.219 33.43 215.96 Q33.43 222.858 37.8281 226.839 Q42.2262 230.821 49.8188 230.821 L79.1242 230.821 L79.1242 239.386 L27.2726 239.386 L27.2726 230.821 L35.3281 230.821 Q30.6522 227.765 28.3374 223.645 Q26.0226 219.478 26.0226 214.062 Q26.0226 205.127 31.5781 200.543 Q37.0873 195.96 47.828 195.96 Z" fill="#000000" fill-rule="evenodd" fill-opacity="1" /><circle clip-path="url(#clip642)" cx="335.038" cy="85.0853" r="18" fill="#009af9" fill-rule="evenodd" fill-opacity="1" stroke="#000000" stroke-opacity="1" stroke-width="3.2"/>
<circle clip-path="url(#clip642)" cx="824.775" cy="991.397" r="18" fill="#009af9" fill-rule="evenodd" fill-opacity="1" stroke="#000000" stroke-opacity="1" stroke-width="3.2"/>
<circle clip-path="url(#clip642)" cx="1314.51" cy="1122.34" r="18" fill="#009af9" fill-rule="evenodd" fill-opacity="1" stroke="#000000" stroke-opacity="1" stroke-width="3.2"/>
<circle clip-path="url(#clip642)" cx="1804.25" cy="1129.58" r="18" fill="#009af9" fill-rule="evenodd" fill-opacity="1" stroke="#000000" stroke-opacity="1" stroke-width="3.2"/>
<circle clip-path="url(#clip642)" cx="2293.99" cy="1346.46" r="18" fill="#009af9" fill-rule="evenodd" fill-opacity="1" stroke="#000000" stroke-opacity="1" stroke-width="3.2"/>
<polyline clip-path="url(#clip642)" style="stroke:#009af9; stroke-linecap:round; stroke-linejoin:round; stroke-width:4; stroke-opacity:1; fill:none" points="
  335.038,1234.23 335.038,85.0853 
  "/>
<polyline clip-path="url(#clip642)" style="stroke:#009af9; stroke-linecap:round; stroke-linejoin:round; stroke-width:4; stroke-opacity:1; fill:none" points="
  824.775,1234.23 824.775,991.397 
  "/>
<polyline clip-path="url(#clip642)" style="stroke:#009af9; stroke-linecap:round; stroke-linejoin:round; stroke-width:4; stroke-opacity:1; fill:none" points="
  1314.51,1234.23 1314.51,1122.34 
  "/>
<polyline clip-path="url(#clip642)" style="stroke:#009af9; stroke-linecap:round; stroke-linejoin:round; stroke-width:4; stroke-opacity:1; fill:none" points="
  1804.25,1234.23 1804.25,1129.58 
  "/>
<polyline clip-path="url(#clip642)" style="stroke:#009af9; stroke-linecap:round; stroke-linejoin:round; stroke-width:4; stroke-opacity:1; fill:none" points="
  2293.99,1234.23 2293.99,1346.46 
  "/>
</svg>
