<?xml version="1.0" encoding="utf-8"?>
<svg xmlns="http://www.w3.org/2000/svg" xmlns:xlink="http://www.w3.org/1999/xlink" width="600" height="400" viewBox="0 0 2400 1600">
<defs>
  <clipPath id="clip700">
    <rect x="0" y="0" width="2400" height="1600"/>
  </clipPath>
</defs>
<path clip-path="url(#clip700)" d="
M0 1600 L2400 1600 L2400 0 L0 0  Z
  " fill="#ffffff" fill-rule="evenodd" fill-opacity="1"/>
<defs>
  <clipPath id="clip701">
    <rect x="480" y="0" width="1681" height="1600"/>
  </clipPath>
</defs>
<path clip-path="url(#clip700)" d="
M354.915 1384.3 L2352.76 1384.3 L2352.76 47.2441 L354.915 47.2441  Z
  " fill="#ffffff" fill-rule="evenodd" fill-opacity="1"/>
<defs>
  <clipPath id="clip702">
    <rect x="354" y="47" width="1999" height="1338"/>
  </clipPath>
</defs>
<polyline clip-path="url(#clip702)" style="stroke:#000000; stroke-linecap:round; stroke-linejoin:round; stroke-width:2; stroke-opacity:0.1; fill:none" points="
  687.794,1384.3 687.794,47.2441 
  "/>
<polyline clip-path="url(#clip702)" style="stroke:#000000; stroke-linecap:round; stroke-linejoin:round; stroke-width:2; stroke-opacity:0.1; fill:none" points="
  1042.07,1384.3 1042.07,47.2441 
  "/>
<polyline clip-path="url(#clip702)" style="stroke:#000000; stroke-linecap:round; stroke-linejoin:round; stroke-width:2; stroke-opacity:0.1; fill:none" points="
  1396.35,1384.3 1396.35,47.2441 
  "/>
<polyline clip-path="url(#clip702)" style="stroke:#000000; stroke-linecap:round; stroke-linejoin:round; stroke-width:2; stroke-opacity:0.1; fill:none" points="
  1750.63,1384.3 1750.63,47.2441 
  "/>
<polyline clip-path="url(#clip702)" style="stroke:#000000; stroke-linecap:round; stroke-linejoin:round; stroke-width:2; stroke-opacity:0.1; fill:none" points="
  2104.9,1384.3 2104.9,47.2441 
  "/>
<polyline clip-path="url(#clip700)" style="stroke:#000000; stroke-linecap:round; stroke-linejoin:round; stroke-width:4; stroke-opacity:1; fill:none" points="
  354.915,1384.3 2352.76,1384.3 
  "/>
<polyline clip-path="url(#clip700)" style="stroke:#000000; stroke-linecap:round; stroke-linejoin:round; stroke-width:4; stroke-opacity:1; fill:none" points="
  687.794,1384.3 687.794,1365.4 
  "/>
<polyline clip-path="url(#clip700)" style="stroke:#000000; stroke-linecap:round; stroke-linejoin:round; stroke-width:4; stroke-opacity:1; fill:none" points="
  1042.07,1384.3 1042.07,1365.4 
  "/>
<polyline clip-path="url(#clip700)" style="stroke:#000000; stroke-linecap:round; stroke-linejoin:round; stroke-width:4; stroke-opacity:1; fill:none" points="
  1396.35,1384.3 1396.35,1365.4 
  "/>
<polyline clip-path="url(#clip700)" style="stroke:#000000; stroke-linecap:round; stroke-linejoin:round; stroke-width:4; stroke-opacity:1; fill:none" points="
  1750.63,1384.3 1750.63,1365.4 
  "/>
<polyline clip-path="url(#clip700)" style="stroke:#000000; stroke-linecap:round; stroke-linejoin:round; stroke-width:4; stroke-opacity:1; fill:none" points="
  2104.9,1384.3 2104.9,1365.4 
  "/>
<path clip-path="url(#clip700)" d="M604.582 1462.4 L616.041 1462.4 L616.041 1422.85 L603.575 1425.35 L603.575 1418.96 L615.971 1416.46 L622.985 1416.46 L622.985 1462.4 L634.443 1462.4 L634.443 1468.3 L604.582 1468.3 L604.582 1462.4 Z" fill="#000000" fill-rule="evenodd" fill-opacity="1" /><path clip-path="url(#clip700)" d="M648.818 1467.22 L648.818 1460.83 Q651.457 1462.08 654.165 1462.74 Q656.874 1463.4 659.478 1463.4 Q666.422 1463.4 670.068 1458.75 Q673.749 1454.06 674.27 1444.55 Q672.256 1447.54 669.165 1449.13 Q666.075 1450.73 662.325 1450.73 Q654.547 1450.73 649.999 1446.04 Q645.485 1441.32 645.485 1433.16 Q645.485 1425.18 650.207 1420.35 Q654.929 1415.52 662.777 1415.52 Q671.77 1415.52 676.492 1422.43 Q681.249 1429.31 681.249 1442.43 Q681.249 1454.69 675.415 1462.02 Q669.617 1469.31 659.79 1469.31 Q657.152 1469.31 654.443 1468.79 Q651.735 1468.27 648.818 1467.22 M662.777 1445.24 Q667.499 1445.24 670.242 1442.02 Q673.02 1438.79 673.02 1433.16 Q673.02 1427.57 670.242 1424.34 Q667.499 1421.08 662.777 1421.08 Q658.054 1421.08 655.277 1424.34 Q652.534 1427.57 652.534 1433.16 Q652.534 1438.79 655.277 1442.02 Q658.054 1445.24 662.777 1445.24 Z" fill="#000000" fill-rule="evenodd" fill-opacity="1" /><path clip-path="url(#clip700)" d="M708.853 1421.08 Q703.436 1421.08 700.693 1426.43 Q697.985 1431.74 697.985 1442.43 Q697.985 1453.09 700.693 1458.44 Q703.436 1463.75 708.853 1463.75 Q714.304 1463.75 717.012 1458.44 Q719.755 1453.09 719.755 1442.43 Q719.755 1431.74 717.012 1426.43 Q714.304 1421.08 708.853 1421.08 M708.853 1415.52 Q717.568 1415.52 722.151 1422.43 Q726.769 1429.31 726.769 1442.43 Q726.769 1455.52 722.151 1462.43 Q717.568 1469.31 708.853 1469.31 Q700.137 1469.31 695.519 1462.43 Q690.936 1455.52 690.936 1442.43 Q690.936 1429.31 695.519 1422.43 Q700.137 1415.52 708.853 1415.52 Z" fill="#000000" fill-rule="evenodd" fill-opacity="1" /><path clip-path="url(#clip700)" d="M754.096 1421.08 Q748.679 1421.08 745.936 1426.43 Q743.228 1431.74 743.228 1442.43 Q743.228 1453.09 745.936 1458.44 Q748.679 1463.75 754.096 1463.75 Q759.547 1463.75 762.255 1458.44 Q764.998 1453.09 764.998 1442.43 Q764.998 1431.74 762.255 1426.43 Q759.547 1421.08 754.096 1421.08 M754.096 1415.52 Q762.811 1415.52 767.394 1422.43 Q772.012 1429.31 772.012 1442.43 Q772.012 1455.52 767.394 1462.43 Q762.811 1469.31 754.096 1469.31 Q745.38 1469.31 740.762 1462.43 Q736.179 1455.52 736.179 1442.43 Q736.179 1429.31 740.762 1422.43 Q745.38 1415.52 754.096 1415.52 Z" fill="#000000" fill-rule="evenodd" fill-opacity="1" /><path clip-path="url(#clip700)" d="M959.606 1462.4 L971.065 1462.4 L971.065 1422.85 L958.599 1425.35 L958.599 1418.96 L970.995 1416.46 L978.009 1416.46 L978.009 1462.4 L989.467 1462.4 L989.467 1468.3 L959.606 1468.3 L959.606 1462.4 Z" fill="#000000" fill-rule="evenodd" fill-opacity="1" /><path clip-path="url(#clip700)" d="M1003.84 1467.22 L1003.84 1460.83 Q1006.48 1462.08 1009.19 1462.74 Q1011.9 1463.4 1014.5 1463.4 Q1021.45 1463.4 1025.09 1458.75 Q1028.77 1454.06 1029.29 1444.55 Q1027.28 1447.54 1024.19 1449.13 Q1021.1 1450.73 1017.35 1450.73 Q1009.57 1450.73 1005.02 1446.04 Q1000.51 1441.32 1000.51 1433.16 Q1000.51 1425.18 1005.23 1420.35 Q1009.95 1415.52 1017.8 1415.52 Q1026.79 1415.52 1031.52 1422.43 Q1036.27 1429.31 1036.27 1442.43 Q1036.27 1454.69 1030.44 1462.02 Q1024.64 1469.31 1014.81 1469.31 Q1012.18 1469.31 1009.47 1468.79 Q1006.76 1468.27 1003.84 1467.22 M1017.8 1445.24 Q1022.52 1445.24 1025.27 1442.02 Q1028.04 1438.79 1028.04 1433.16 Q1028.04 1427.57 1025.27 1424.34 Q1022.52 1421.08 1017.8 1421.08 Q1013.08 1421.08 1010.3 1424.34 Q1007.56 1427.57 1007.56 1433.16 Q1007.56 1438.79 1010.3 1442.02 Q1013.08 1445.24 1017.8 1445.24 Z" fill="#000000" fill-rule="evenodd" fill-opacity="1" /><path clip-path="url(#clip700)" d="M1054.92 1462.4 L1079.4 1462.4 L1079.4 1468.3 L1046.48 1468.3 L1046.48 1462.4 Q1050.47 1458.27 1057.35 1451.32 Q1064.26 1444.34 1066.03 1442.33 Q1069.4 1438.54 1070.72 1435.94 Q1072.07 1433.3 1072.07 1430.77 Q1072.07 1426.63 1069.15 1424.03 Q1066.27 1421.43 1061.62 1421.43 Q1058.32 1421.43 1054.64 1422.57 Q1050.99 1423.72 1046.83 1426.04 L1046.83 1418.96 Q1051.06 1417.26 1054.74 1416.39 Q1058.43 1415.52 1061.48 1415.52 Q1069.54 1415.52 1074.33 1419.55 Q1079.12 1423.58 1079.12 1430.31 Q1079.12 1433.51 1077.9 1436.39 Q1076.72 1439.24 1073.56 1443.13 Q1072.7 1444.13 1068.04 1448.96 Q1063.39 1453.75 1054.92 1462.4 Z" fill="#000000" fill-rule="evenodd" fill-opacity="1" /><path clip-path="url(#clip700)" d="M1094.19 1416.46 L1121.72 1416.46 L1121.72 1422.36 L1100.61 1422.36 L1100.61 1435.07 Q1102.14 1434.55 1103.67 1434.31 Q1105.2 1434.03 1106.72 1434.03 Q1115.4 1434.03 1120.47 1438.79 Q1125.54 1443.54 1125.54 1451.67 Q1125.54 1460.04 1120.33 1464.69 Q1115.13 1469.31 1105.65 1469.31 Q1102.38 1469.31 1098.98 1468.75 Q1095.61 1468.2 1092 1467.08 L1092 1460.04 Q1095.13 1461.74 1098.46 1462.57 Q1101.79 1463.4 1105.51 1463.4 Q1111.52 1463.4 1115.02 1460.24 Q1118.53 1457.08 1118.53 1451.67 Q1118.53 1446.25 1115.02 1443.09 Q1111.52 1439.93 1105.51 1439.93 Q1102.7 1439.93 1099.88 1440.56 Q1097.11 1441.18 1094.19 1442.5 L1094.19 1416.46 Z" fill="#000000" fill-rule="evenodd" fill-opacity="1" /><path clip-path="url(#clip700)" d="M1313.14 1462.4 L1324.6 1462.4 L1324.6 1422.85 L1312.13 1425.35 L1312.13 1418.96 L1324.53 1416.46 L1331.54 1416.46 L1331.54 1462.4 L1343 1462.4 L1343 1468.3 L1313.14 1468.3 L1313.14 1462.4 Z" fill="#000000" fill-rule="evenodd" fill-opacity="1" /><path clip-path="url(#clip700)" d="M1357.37 1467.22 L1357.37 1460.83 Q1360.01 1462.08 1362.72 1462.74 Q1365.43 1463.4 1368.03 1463.4 Q1374.98 1463.4 1378.62 1458.75 Q1382.3 1454.06 1382.82 1444.55 Q1380.81 1447.54 1377.72 1449.13 Q1374.63 1450.73 1370.88 1450.73 Q1363.1 1450.73 1358.55 1446.04 Q1354.04 1441.32 1354.04 1433.16 Q1354.04 1425.18 1358.76 1420.35 Q1363.48 1415.52 1371.33 1415.52 Q1380.32 1415.52 1385.05 1422.43 Q1389.8 1429.31 1389.8 1442.43 Q1389.8 1454.69 1383.97 1462.02 Q1378.17 1469.31 1368.35 1469.31 Q1365.71 1469.31 1363 1468.79 Q1360.29 1468.27 1357.37 1467.22 M1371.33 1445.24 Q1376.05 1445.24 1378.8 1442.02 Q1381.57 1438.79 1381.57 1433.16 Q1381.57 1427.57 1378.8 1424.34 Q1376.05 1421.08 1371.33 1421.08 Q1366.61 1421.08 1363.83 1424.34 Q1361.09 1427.57 1361.09 1433.16 Q1361.09 1438.79 1363.83 1442.02 Q1366.61 1445.24 1371.33 1445.24 Z" fill="#000000" fill-rule="evenodd" fill-opacity="1" /><path clip-path="url(#clip700)" d="M1402.48 1416.46 L1430.01 1416.46 L1430.01 1422.36 L1408.9 1422.36 L1408.9 1435.07 Q1410.43 1434.55 1411.96 1434.31 Q1413.48 1434.03 1415.01 1434.03 Q1423.69 1434.03 1428.76 1438.79 Q1433.83 1443.54 1433.83 1451.67 Q1433.83 1460.04 1428.62 1464.69 Q1423.41 1469.31 1413.94 1469.31 Q1410.67 1469.31 1407.27 1468.75 Q1403.9 1468.2 1400.29 1467.08 L1400.29 1460.04 Q1403.41 1461.74 1406.75 1462.57 Q1410.08 1463.4 1413.8 1463.4 Q1419.8 1463.4 1423.31 1460.24 Q1426.82 1457.08 1426.82 1451.67 Q1426.82 1446.25 1423.31 1443.09 Q1419.8 1439.93 1413.8 1439.93 Q1410.98 1439.93 1408.17 1440.56 Q1405.39 1441.18 1402.48 1442.5 L1402.48 1416.46 Z" fill="#000000" fill-rule="evenodd" fill-opacity="1" /><path clip-path="url(#clip700)" d="M1462.65 1421.08 Q1457.23 1421.08 1454.49 1426.43 Q1451.78 1431.74 1451.78 1442.43 Q1451.78 1453.09 1454.49 1458.44 Q1457.23 1463.75 1462.65 1463.75 Q1468.1 1463.75 1470.81 1458.44 Q1473.55 1453.09 1473.55 1442.43 Q1473.55 1431.74 1470.81 1426.43 Q1468.1 1421.08 1462.65 1421.08 M1462.65 1415.52 Q1471.37 1415.52 1475.95 1422.43 Q1480.57 1429.31 1480.57 1442.43 Q1480.57 1455.52 1475.95 1462.43 Q1471.37 1469.31 1462.65 1469.31 Q1453.94 1469.31 1449.32 1462.43 Q1444.73 1455.52 1444.73 1442.43 Q1444.73 1429.31 1449.32 1422.43 Q1453.94 1415.52 1462.65 1415.52 Z" fill="#000000" fill-rule="evenodd" fill-opacity="1" /><path clip-path="url(#clip700)" d="M1668.16 1462.4 L1679.62 1462.4 L1679.62 1422.85 L1667.15 1425.35 L1667.15 1418.96 L1679.55 1416.46 L1686.56 1416.46 L1686.56 1462.4 L1698.02 1462.4 L1698.02 1468.3 L1668.16 1468.3 L1668.16 1462.4 Z" fill="#000000" fill-rule="evenodd" fill-opacity="1" /><path clip-path="url(#clip700)" d="M1712.4 1467.22 L1712.4 1460.83 Q1715.04 1462.08 1717.74 1462.74 Q1720.45 1463.4 1723.06 1463.4 Q1730 1463.4 1733.65 1458.75 Q1737.33 1454.06 1737.85 1444.55 Q1735.83 1447.54 1732.74 1449.13 Q1729.65 1450.73 1725.9 1450.73 Q1718.13 1450.73 1713.58 1446.04 Q1709.06 1441.32 1709.06 1433.16 Q1709.06 1425.18 1713.79 1420.35 Q1718.51 1415.52 1726.36 1415.52 Q1735.35 1415.52 1740.07 1422.43 Q1744.83 1429.31 1744.83 1442.43 Q1744.83 1454.69 1738.99 1462.02 Q1733.2 1469.31 1723.37 1469.31 Q1720.73 1469.31 1718.02 1468.79 Q1715.31 1468.27 1712.4 1467.22 M1726.36 1445.24 Q1731.08 1445.24 1733.82 1442.02 Q1736.6 1438.79 1736.6 1433.16 Q1736.6 1427.57 1733.82 1424.34 Q1731.08 1421.08 1726.36 1421.08 Q1721.63 1421.08 1718.86 1424.34 Q1716.11 1427.57 1716.11 1433.16 Q1716.11 1438.79 1718.86 1442.02 Q1721.63 1445.24 1726.36 1445.24 Z" fill="#000000" fill-rule="evenodd" fill-opacity="1" /><path clip-path="url(#clip700)" d="M1755.66 1416.46 L1788.99 1416.46 L1788.99 1419.45 L1770.17 1468.3 L1762.85 1468.3 L1780.56 1422.36 L1755.66 1422.36 L1755.66 1416.46 Z" fill="#000000" fill-rule="evenodd" fill-opacity="1" /><path clip-path="url(#clip700)" d="M1802.74 1416.46 L1830.28 1416.46 L1830.28 1422.36 L1809.17 1422.36 L1809.17 1435.07 Q1810.7 1434.55 1812.22 1434.31 Q1813.75 1434.03 1815.28 1434.03 Q1823.96 1434.03 1829.03 1438.79 Q1834.1 1443.54 1834.1 1451.67 Q1834.1 1460.04 1828.89 1464.69 Q1823.68 1469.31 1814.2 1469.31 Q1810.94 1469.31 1807.54 1468.75 Q1804.17 1468.2 1800.56 1467.08 L1800.56 1460.04 Q1803.68 1461.74 1807.01 1462.57 Q1810.35 1463.4 1814.06 1463.4 Q1820.07 1463.4 1823.58 1460.24 Q1827.08 1457.08 1827.08 1451.67 Q1827.08 1446.25 1823.58 1443.09 Q1820.07 1439.93 1814.06 1439.93 Q1811.25 1439.93 1808.44 1440.56 Q1805.66 1441.18 1802.74 1442.5 L1802.74 1416.46 Z" fill="#000000" fill-rule="evenodd" fill-opacity="1" /><path clip-path="url(#clip700)" d="M2027.82 1462.4 L2052.3 1462.4 L2052.3 1468.3 L2019.38 1468.3 L2019.38 1462.4 Q2023.38 1458.27 2030.25 1451.32 Q2037.16 1444.34 2038.93 1442.33 Q2042.3 1438.54 2043.62 1435.94 Q2044.97 1433.3 2044.97 1430.77 Q2044.97 1426.63 2042.06 1424.03 Q2039.17 1421.43 2034.52 1421.43 Q2031.22 1421.43 2027.54 1422.57 Q2023.9 1423.72 2019.73 1426.04 L2019.73 1418.96 Q2023.97 1417.26 2027.65 1416.39 Q2031.33 1415.52 2034.38 1415.52 Q2042.44 1415.52 2047.23 1419.55 Q2052.02 1423.58 2052.02 1430.31 Q2052.02 1433.51 2050.81 1436.39 Q2049.63 1439.24 2046.47 1443.13 Q2045.6 1444.13 2040.95 1448.96 Q2036.29 1453.75 2027.82 1462.4 Z" fill="#000000" fill-rule="evenodd" fill-opacity="1" /><path clip-path="url(#clip700)" d="M2082.02 1421.08 Q2076.6 1421.08 2073.86 1426.43 Q2071.15 1431.74 2071.15 1442.43 Q2071.15 1453.09 2073.86 1458.44 Q2076.6 1463.75 2082.02 1463.75 Q2087.47 1463.75 2090.18 1458.44 Q2092.92 1453.09 2092.92 1442.43 Q2092.92 1431.74 2090.18 1426.43 Q2087.47 1421.08 2082.02 1421.08 M2082.02 1415.52 Q2090.74 1415.52 2095.32 1422.43 Q2099.94 1429.31 2099.94 1442.43 Q2099.94 1455.52 2095.32 1462.43 Q2090.74 1469.31 2082.02 1469.31 Q2073.31 1469.31 2068.69 1462.43 Q2064.11 1455.52 2064.11 1442.43 Q2064.11 1429.31 2068.69 1422.43 Q2073.31 1415.52 2082.02 1415.52 Z" fill="#000000" fill-rule="evenodd" fill-opacity="1" /><path clip-path="url(#clip700)" d="M2127.26 1421.08 Q2121.85 1421.08 2119.1 1426.43 Q2116.4 1431.74 2116.4 1442.43 Q2116.4 1453.09 2119.1 1458.44 Q2121.85 1463.75 2127.26 1463.75 Q2132.72 1463.75 2135.42 1458.44 Q2138.17 1453.09 2138.17 1442.43 Q2138.17 1431.74 2135.42 1426.43 Q2132.72 1421.08 2127.26 1421.08 M2127.26 1415.52 Q2135.98 1415.52 2140.56 1422.43 Q2145.18 1429.31 2145.18 1442.43 Q2145.18 1455.52 2140.56 1462.43 Q2135.98 1469.31 2127.26 1469.31 Q2118.55 1469.31 2113.93 1462.43 Q2109.35 1455.52 2109.35 1442.43 Q2109.35 1429.31 2113.93 1422.43 Q2118.55 1415.52 2127.26 1415.52 Z" fill="#000000" fill-rule="evenodd" fill-opacity="1" /><path clip-path="url(#clip700)" d="M2172.51 1421.08 Q2167.09 1421.08 2164.35 1426.43 Q2161.64 1431.74 2161.64 1442.43 Q2161.64 1453.09 2164.35 1458.44 Q2167.09 1463.75 2172.51 1463.75 Q2177.96 1463.75 2180.67 1458.44 Q2183.41 1453.09 2183.41 1442.43 Q2183.41 1431.74 2180.67 1426.43 Q2177.96 1421.08 2172.51 1421.08 M2172.51 1415.52 Q2181.22 1415.52 2185.81 1422.43 Q2190.42 1429.31 2190.42 1442.43 Q2190.42 1455.52 2185.81 1462.43 Q2181.22 1469.31 2172.51 1469.31 Q2163.79 1469.31 2159.17 1462.43 Q2154.59 1455.52 2154.59 1442.43 Q2154.59 1429.31 2159.17 1422.43 Q2163.79 1415.52 2172.51 1415.52 Z" fill="#000000" fill-rule="evenodd" fill-opacity="1" /><path clip-path="url(#clip700)" d="M1253.37 1511.88 L1263.42 1511.88 L1282.59 1540.31 L1301.61 1511.88 L1311.66 1511.88 L1287.22 1548.09 L1287.22 1581 L1277.82 1581 L1277.82 1548.09 L1253.37 1511.88 Z" fill="#000000" fill-rule="evenodd" fill-opacity="1" /><path clip-path="url(#clip700)" d="M1352.17 1552.95 L1352.17 1557.12 L1313 1557.12 Q1313.56 1565.91 1318.28 1570.54 Q1323.05 1575.12 1331.52 1575.12 Q1336.43 1575.12 1341.01 1573.92 Q1345.64 1572.72 1350.18 1570.31 L1350.18 1578.36 Q1345.59 1580.31 1340.78 1581.33 Q1335.97 1582.35 1331.01 1582.35 Q1318.6 1582.35 1311.34 1575.12 Q1304.11 1567.9 1304.11 1555.59 Q1304.11 1542.86 1310.97 1535.4 Q1317.86 1527.9 1329.53 1527.9 Q1339.99 1527.9 1346.06 1534.66 Q1352.17 1541.37 1352.17 1552.95 M1343.65 1550.45 Q1343.56 1543.46 1339.72 1539.29 Q1335.92 1535.12 1329.62 1535.12 Q1322.49 1535.12 1318.19 1539.15 Q1313.93 1543.18 1313.28 1550.49 L1343.65 1550.45 Z" fill="#000000" fill-rule="evenodd" fill-opacity="1" /><path clip-path="url(#clip700)" d="M1389.71 1554.94 Q1379.39 1554.94 1375.41 1557.3 Q1371.43 1559.66 1371.43 1565.36 Q1371.43 1569.89 1374.39 1572.58 Q1377.4 1575.22 1382.54 1575.22 Q1389.62 1575.22 1393.88 1570.22 Q1398.19 1565.17 1398.19 1556.84 L1398.19 1554.94 L1389.71 1554.94 M1406.71 1551.42 L1406.71 1581 L1398.19 1581 L1398.19 1573.13 Q1395.27 1577.86 1390.92 1580.12 Q1386.57 1582.35 1380.27 1582.35 Q1372.31 1582.35 1367.59 1577.9 Q1362.91 1573.41 1362.91 1565.91 Q1362.91 1557.16 1368.74 1552.72 Q1374.62 1548.27 1386.24 1548.27 L1398.19 1548.27 L1398.19 1547.44 Q1398.19 1541.56 1394.3 1538.37 Q1390.46 1535.12 1383.46 1535.12 Q1379.02 1535.12 1374.81 1536.19 Q1370.59 1537.25 1366.71 1539.38 L1366.71 1531.51 Q1371.38 1529.71 1375.78 1528.83 Q1380.18 1527.9 1384.34 1527.9 Q1395.59 1527.9 1401.15 1533.74 Q1406.71 1539.57 1406.71 1551.42 Z" fill="#000000" fill-rule="evenodd" fill-opacity="1" /><path clip-path="url(#clip700)" d="M1454.3 1537.12 Q1452.86 1536.28 1451.15 1535.91 Q1449.48 1535.49 1447.45 1535.49 Q1440.22 1535.49 1436.33 1540.22 Q1432.49 1544.89 1432.49 1553.69 L1432.49 1581 L1423.93 1581 L1423.93 1529.15 L1432.49 1529.15 L1432.49 1537.21 Q1435.18 1532.49 1439.48 1530.22 Q1443.79 1527.9 1449.95 1527.9 Q1450.83 1527.9 1451.89 1528.04 Q1452.96 1528.13 1454.25 1528.37 L1454.3 1537.12 Z" fill="#000000" fill-rule="evenodd" fill-opacity="1" /><polyline clip-path="url(#clip702)" style="stroke:#000000; stroke-linecap:round; stroke-linejoin:round; stroke-width:2; stroke-opacity:0.1; fill:none" points="
  354.915,1240.79 2352.76,1240.79 
  "/>
<polyline clip-path="url(#clip702)" style="stroke:#000000; stroke-linecap:round; stroke-linejoin:round; stroke-width:2; stroke-opacity:0.1; fill:none" points="
  354.915,916.096 2352.76,916.096 
  "/>
<polyline clip-path="url(#clip702)" style="stroke:#000000; stroke-linecap:round; stroke-linejoin:round; stroke-width:2; stroke-opacity:0.1; fill:none" points="
  354.915,591.399 2352.76,591.399 
  "/>
<polyline clip-path="url(#clip702)" style="stroke:#000000; stroke-linecap:round; stroke-linejoin:round; stroke-width:2; stroke-opacity:0.1; fill:none" points="
  354.915,266.702 2352.76,266.702 
  "/>
<polyline clip-path="url(#clip700)" style="stroke:#000000; stroke-linecap:round; stroke-linejoin:round; stroke-width:4; stroke-opacity:1; fill:none" points="
  354.915,1384.3 354.915,47.2441 
  "/>
<polyline clip-path="url(#clip700)" style="stroke:#000000; stroke-linecap:round; stroke-linejoin:round; stroke-width:4; stroke-opacity:1; fill:none" points="
  354.915,1240.79 373.812,1240.79 
  "/>
<polyline clip-path="url(#clip700)" style="stroke:#000000; stroke-linecap:round; stroke-linejoin:round; stroke-width:4; stroke-opacity:1; fill:none" points="
  354.915,916.096 373.812,916.096 
  "/>
<polyline clip-path="url(#clip700)" style="stroke:#000000; stroke-linecap:round; stroke-linejoin:round; stroke-width:4; stroke-opacity:1; fill:none" points="
  354.915,591.399 373.812,591.399 
  "/>
<polyline clip-path="url(#clip700)" style="stroke:#000000; stroke-linecap:round; stroke-linejoin:round; stroke-width:4; stroke-opacity:1; fill:none" points="
  354.915,266.702 373.812,266.702 
  "/>
<path clip-path="url(#clip700)" d="M135.86 1241.47 L180.374 1241.47 L180.374 1247.37 L135.86 1247.37 L135.86 1241.47 Z" fill="#000000" fill-rule="evenodd" fill-opacity="1" /><path clip-path="url(#clip700)" d="M201.554 1260.81 L226.033 1260.81 L226.033 1266.71 L193.117 1266.71 L193.117 1260.81 Q197.11 1256.68 203.985 1249.73 Q210.894 1242.76 212.665 1240.74 Q216.033 1236.96 217.353 1234.35 Q218.707 1231.71 218.707 1229.18 Q218.707 1225.05 215.79 1222.44 Q212.908 1219.84 208.256 1219.84 Q204.957 1219.84 201.276 1220.98 Q197.631 1222.13 193.464 1224.46 L193.464 1217.37 Q197.7 1215.67 201.381 1214.8 Q205.061 1213.94 208.117 1213.94 Q216.172 1213.94 220.964 1217.96 Q225.756 1221.99 225.756 1228.73 Q225.756 1231.92 224.54 1234.8 Q223.36 1237.65 220.2 1241.54 Q219.332 1242.55 214.679 1247.37 Q210.026 1252.16 201.554 1260.81 Z" fill="#000000" fill-rule="evenodd" fill-opacity="1" /><path clip-path="url(#clip700)" d="M255.755 1219.49 Q250.339 1219.49 247.596 1224.84 Q244.887 1230.15 244.887 1240.85 Q244.887 1251.51 247.596 1256.85 Q250.339 1262.16 255.755 1262.16 Q261.207 1262.16 263.915 1256.85 Q266.658 1251.51 266.658 1240.85 Q266.658 1230.15 263.915 1224.84 Q261.207 1219.49 255.755 1219.49 M255.755 1213.94 Q264.471 1213.94 269.054 1220.85 Q273.672 1227.72 273.672 1240.85 Q273.672 1253.94 269.054 1260.85 Q264.471 1267.72 255.755 1267.72 Q247.04 1267.72 242.422 1260.85 Q237.839 1253.94 237.839 1240.85 Q237.839 1227.72 242.422 1220.85 Q247.04 1213.94 255.755 1213.94 Z" fill="#000000" fill-rule="evenodd" fill-opacity="1" /><path clip-path="url(#clip700)" d="M300.998 1219.49 Q295.582 1219.49 292.838 1224.84 Q290.13 1230.15 290.13 1240.85 Q290.13 1251.51 292.838 1256.85 Q295.582 1262.16 300.998 1262.16 Q306.45 1262.16 309.158 1256.85 Q311.901 1251.51 311.901 1240.85 Q311.901 1230.15 309.158 1224.84 Q306.45 1219.49 300.998 1219.49 M300.998 1213.94 Q309.713 1213.94 314.297 1220.85 Q318.915 1227.72 318.915 1240.85 Q318.915 1253.94 314.297 1260.85 Q309.713 1267.72 300.998 1267.72 Q292.283 1267.72 287.665 1260.85 Q283.082 1253.94 283.082 1240.85 Q283.082 1227.72 287.665 1220.85 Q292.283 1213.94 300.998 1213.94 Z" fill="#000000" fill-rule="evenodd" fill-opacity="1" /><path clip-path="url(#clip700)" d="M135.86 916.773 L180.374 916.773 L180.374 922.676 L135.86 922.676 L135.86 916.773 Z" fill="#000000" fill-rule="evenodd" fill-opacity="1" /><path clip-path="url(#clip700)" d="M196.728 936.114 L208.186 936.114 L208.186 896.565 L195.721 899.065 L195.721 892.676 L208.117 890.176 L215.131 890.176 L215.131 936.114 L226.589 936.114 L226.589 942.016 L196.728 942.016 L196.728 936.114 Z" fill="#000000" fill-rule="evenodd" fill-opacity="1" /><path clip-path="url(#clip700)" d="M255.755 894.794 Q250.339 894.794 247.596 900.141 Q244.887 905.454 244.887 916.148 Q244.887 926.808 247.596 932.155 Q250.339 937.468 255.755 937.468 Q261.207 937.468 263.915 932.155 Q266.658 926.808 266.658 916.148 Q266.658 905.454 263.915 900.141 Q261.207 894.794 255.755 894.794 M255.755 889.239 Q264.471 889.239 269.054 896.148 Q273.672 903.023 273.672 916.148 Q273.672 929.239 269.054 936.148 Q264.471 943.023 255.755 943.023 Q247.04 943.023 242.422 936.148 Q237.839 929.239 237.839 916.148 Q237.839 903.023 242.422 896.148 Q247.04 889.239 255.755 889.239 Z" fill="#000000" fill-rule="evenodd" fill-opacity="1" /><path clip-path="url(#clip700)" d="M300.998 894.794 Q295.582 894.794 292.838 900.141 Q290.13 905.454 290.13 916.148 Q290.13 926.808 292.838 932.155 Q295.582 937.468 300.998 937.468 Q306.45 937.468 309.158 932.155 Q311.901 926.808 311.901 916.148 Q311.901 905.454 309.158 900.141 Q306.45 894.794 300.998 894.794 M300.998 889.239 Q309.713 889.239 314.297 896.148 Q318.915 903.023 318.915 916.148 Q318.915 929.239 314.297 936.148 Q309.713 943.023 300.998 943.023 Q292.283 943.023 287.665 936.148 Q283.082 929.239 283.082 916.148 Q283.082 903.023 287.665 896.148 Q292.283 889.239 300.998 889.239 Z" fill="#000000" fill-rule="evenodd" fill-opacity="1" /><path clip-path="url(#clip700)" d="M300.998 570.097 Q295.582 570.097 292.838 575.444 Q290.13 580.757 290.13 591.451 Q290.13 602.111 292.838 607.458 Q295.582 612.771 300.998 612.771 Q306.45 612.771 309.158 607.458 Q311.901 602.111 311.901 591.451 Q311.901 580.757 309.158 575.444 Q306.45 570.097 300.998 570.097 M300.998 564.542 Q309.713 564.542 314.297 571.451 Q318.915 578.326 318.915 591.451 Q318.915 604.542 314.297 611.451 Q309.713 618.326 300.998 618.326 Q292.283 618.326 287.665 611.451 Q283.082 604.542 283.082 591.451 Q283.082 578.326 287.665 571.451 Q292.283 564.542 300.998 564.542 Z" fill="#000000" fill-rule="evenodd" fill-opacity="1" /><path clip-path="url(#clip700)" d="M196.728 286.719 L208.186 286.719 L208.186 247.171 L195.721 249.671 L195.721 243.282 L208.117 240.782 L215.131 240.782 L215.131 286.719 L226.589 286.719 L226.589 292.622 L196.728 292.622 L196.728 286.719 Z" fill="#000000" fill-rule="evenodd" fill-opacity="1" /><path clip-path="url(#clip700)" d="M255.755 245.4 Q250.339 245.4 247.596 250.747 Q244.887 256.06 244.887 266.754 Q244.887 277.414 247.596 282.761 Q250.339 288.074 255.755 288.074 Q261.207 288.074 263.915 282.761 Q266.658 277.414 266.658 266.754 Q266.658 256.06 263.915 250.747 Q261.207 245.4 255.755 245.4 M255.755 239.845 Q264.471 239.845 269.054 246.754 Q273.672 253.629 273.672 266.754 Q273.672 279.844 269.054 286.754 Q264.471 293.629 255.755 293.629 Q247.04 293.629 242.422 286.754 Q237.839 279.844 237.839 266.754 Q237.839 253.629 242.422 246.754 Q247.04 239.845 255.755 239.845 Z" fill="#000000" fill-rule="evenodd" fill-opacity="1" /><path clip-path="url(#clip700)" d="M300.998 245.4 Q295.582 245.4 292.838 250.747 Q290.13 256.06 290.13 266.754 Q290.13 277.414 292.838 282.761 Q295.582 288.074 300.998 288.074 Q306.45 288.074 309.158 282.761 Q311.901 277.414 311.901 266.754 Q311.901 256.06 309.158 250.747 Q306.45 245.4 300.998 245.4 M300.998 239.845 Q309.713 239.845 314.297 246.754 Q318.915 253.629 318.915 266.754 Q318.915 279.844 314.297 286.754 Q309.713 293.629 300.998 293.629 Q292.283 293.629 287.665 286.754 Q283.082 279.844 283.082 266.754 Q283.082 253.629 287.665 246.754 Q292.283 239.845 300.998 239.845 Z" fill="#000000" fill-rule="evenodd" fill-opacity="1" /><path clip-path="url(#clip700)" d="M69.2631 936.488 L50.6984 936.488 L50.6984 951.766 L43.0132 951.766 L43.0132 927.229 L72.689 927.229 Q76.5316 932.646 78.5223 939.174 Q80.4667 945.701 80.4667 953.109 Q80.4667 969.312 71.0223 978.479 Q61.5317 987.599 44.6336 987.599 Q27.6892 987.599 18.2449 978.479 Q8.75416 969.312 8.75416 953.109 Q8.75416 946.349 10.4208 940.285 Q12.0875 934.174 15.3282 929.035 L25.2819 929.035 Q20.8837 934.22 18.6615 940.053 Q16.4393 945.886 16.4393 952.322 Q16.4393 965.007 23.5226 971.396 Q30.6059 977.738 44.6336 977.738 Q58.615 977.738 65.6983 971.396 Q72.7816 965.007 72.7816 952.322 Q72.7816 947.368 71.9483 943.479 Q71.0686 939.59 69.2631 936.488 Z" fill="#000000" fill-rule="evenodd" fill-opacity="1" /><path clip-path="url(#clip700)" d="M10.0042 910.146 L10.0042 896.211 L57.0409 878.572 L10.0042 860.841 L10.0042 846.906 L79.1242 846.906 L79.1242 856.026 L18.43 856.026 L65.8372 873.85 L65.8372 883.248 L18.43 901.072 L79.1242 901.072 L79.1242 910.146 L10.0042 910.146 Z" fill="#000000" fill-rule="evenodd" fill-opacity="1" /><path clip-path="url(#clip700)" d="M12.2727 786.906 L21.393 786.906 Q18.8467 792.23 17.5967 796.952 Q16.3467 801.674 16.3467 806.072 Q16.3467 813.711 19.3097 817.878 Q22.2726 821.998 27.7355 821.998 Q32.3189 821.998 34.68 819.267 Q36.9948 816.489 38.4299 808.804 L39.5873 803.156 Q41.5781 792.693 46.6243 787.739 Q51.6243 782.739 60.0502 782.739 Q70.0964 782.739 75.2816 789.498 Q80.4667 796.211 80.4667 809.221 Q80.4667 814.128 79.3556 819.683 Q78.2445 825.193 76.0686 831.119 L66.439 831.119 Q69.6335 825.424 71.2538 819.961 Q72.8742 814.498 72.8742 809.221 Q72.8742 801.211 69.7261 796.859 Q66.5779 792.508 60.7446 792.508 Q55.6521 792.508 52.7817 795.656 Q49.9114 798.758 48.4762 805.887 L47.3651 811.582 Q45.2817 822.045 40.8373 826.72 Q36.3929 831.396 28.4763 831.396 Q19.3097 831.396 14.0319 824.961 Q8.75416 818.48 8.75416 807.137 Q8.75416 802.276 9.63379 797.23 Q10.5134 792.184 12.2727 786.906 Z" fill="#000000" fill-rule="evenodd" fill-opacity="1" /><path clip-path="url(#clip700)" d="M10.0042 768.156 L10.0042 758.804 L71.2538 758.804 L71.2538 725.147 L79.1242 725.147 L79.1242 768.156 L10.0042 768.156 Z" fill="#000000" fill-rule="evenodd" fill-opacity="1" /><path clip-path="url(#clip700)" d="M7.1801 665.101 Q17.8282 671.305 28.2448 674.314 Q38.6614 677.323 49.3558 677.323 Q60.0502 677.323 70.5594 674.314 Q81.0223 671.258 91.6241 665.101 L91.6241 672.508 Q80.7445 679.453 70.2353 682.925 Q59.7261 686.351 49.3558 686.351 Q39.0318 686.351 28.5689 682.925 Q18.106 679.499 7.1801 672.508 L7.1801 665.101 Z" fill="#000000" fill-rule="evenodd" fill-opacity="1" /><path clip-path="url(#clip700)" d="M37.2262 608.203 Q31.4855 605.009 28.7541 600.564 Q26.0226 596.12 26.0226 590.101 Q26.0226 582 31.717 577.601 Q37.3651 573.203 47.828 573.203 L79.1242 573.203 L79.1242 581.768 L48.1058 581.768 Q40.6521 581.768 37.041 584.407 Q33.43 587.046 33.43 592.462 Q33.43 599.083 37.8281 602.925 Q42.2262 606.768 49.8188 606.768 L79.1242 606.768 L79.1242 615.333 L48.1058 615.333 Q40.6058 615.333 37.041 617.972 Q33.43 620.61 33.43 626.12 Q33.43 632.647 37.8744 636.49 Q42.2725 640.333 49.8188 640.333 L79.1242 640.333 L79.1242 648.897 L27.2726 648.897 L27.2726 640.333 L35.3281 640.333 Q30.5596 637.416 28.2911 633.342 Q26.0226 629.268 26.0226 623.666 Q26.0226 618.018 28.8929 614.083 Q31.7633 610.101 37.2262 608.203 Z" fill="#000000" fill-rule="evenodd" fill-opacity="1" /><path clip-path="url(#clip700)" d="M37.2262 515.842 Q31.4855 512.648 28.7541 508.204 Q26.0226 503.759 26.0226 497.741 Q26.0226 489.639 31.717 485.241 Q37.3651 480.843 47.828 480.843 L79.1242 480.843 L79.1242 489.407 L48.1058 489.407 Q40.6521 489.407 37.041 492.046 Q33.43 494.685 33.43 500.102 Q33.43 506.722 37.8281 510.565 Q42.2262 514.407 49.8188 514.407 L79.1242 514.407 L79.1242 522.972 L48.1058 522.972 Q40.6058 522.972 37.041 525.611 Q33.43 528.25 33.43 533.759 Q33.43 540.287 37.8744 544.129 Q42.2725 547.972 49.8188 547.972 L79.1242 547.972 L79.1242 556.537 L27.2726 556.537 L27.2726 547.972 L35.3281 547.972 Q30.5596 545.055 28.2911 540.981 Q26.0226 536.907 26.0226 531.305 Q26.0226 525.657 28.8929 521.722 Q31.7633 517.741 37.2262 515.842 Z" fill="#000000" fill-rule="evenodd" fill-opacity="1" /><path clip-path="url(#clip700)" d="M7.1801 465.195 L7.1801 457.787 Q18.106 450.843 28.5689 447.417 Q39.0318 443.945 49.3558 443.945 Q59.7261 443.945 70.2353 447.417 Q80.7445 450.843 91.6241 457.787 L91.6241 465.195 Q81.0223 459.037 70.5594 456.028 Q60.0502 452.972 49.3558 452.972 Q38.6614 452.972 28.2448 456.028 Q17.8282 459.037 7.1801 465.195 Z" fill="#000000" fill-rule="evenodd" fill-opacity="1" /><polyline clip-path="url(#clip702)" style="stroke:#009af9; stroke-linecap:round; stroke-linejoin:round; stroke-width:4; stroke-opacity:1; fill:none" points="
  411.457,1002.28 425.629,789.955 439.8,948.7 453.971,970.082 468.142,1274.08 482.313,1083.07 496.484,1074.68 510.655,998.043 524.826,943.251 538.997,1107.39 
  553.168,879.35 567.339,993.833 581.511,931.205 595.682,1040.65 609.853,1084.66 624.024,980.368 638.195,968.444 652.366,779.34 666.537,963.819 680.708,1103.86 
  694.879,1142.38 709.05,858.759 723.222,1039 737.393,986.586 751.564,1044.19 765.735,881.751 779.906,841.217 794.077,792.489 808.248,1062.73 822.419,829.86 
  836.59,721.325 850.761,884.016 864.932,835.266 879.104,1076.32 893.275,937.598 907.446,1066.16 921.617,829.353 935.788,877.719 949.959,1152.88 964.13,674.265 
  978.301,582.813 992.472,880.642 1006.64,870.272 1020.81,903.933 1034.99,839.306 1049.16,771.317 1063.33,915.93 1077.5,893.318 1091.67,949.111 1105.84,1098.04 
  1120.01,960.91 1134.18,965.619 1148.35,910.747 1162.53,813.249 1176.7,836.945 1190.87,969.931 1205.04,760.241 1219.21,953.29 1233.38,669.767 1247.55,884.633 
  1261.72,818.285 1275.89,797.063 1290.07,848.482 1304.24,597.175 1318.41,703.857 1332.58,799.616 1346.75,643.451 1360.92,630.492 1375.09,627.582 1389.26,555.439 
  1403.43,674.07 1417.61,713.398 1431.78,411.987 1445.95,708.424 1460.12,830.964 1474.29,469.021 1488.46,790.587 1502.63,841.794 1516.8,601.105 1530.97,872.829 
  1545.15,848.141 1559.32,663.725 1573.49,657.111 1587.66,519.351 1601.83,447.901 1616,546.864 1630.17,630.395 1644.34,798.82 1658.51,816.14 1672.68,708.667 
  1686.86,436.473 1701.03,443.292 1715.2,692.15 1729.37,285.571 1743.54,408.556 1757.71,694.598 1771.88,778.111 1786.05,378.244 1800.22,439.794 1814.4,676.76 
  1828.57,415.064 1842.74,659.002 1856.91,498.425 1871.08,514.46 1885.25,749.162 1899.42,594.417 1913.59,678.978 1927.76,633.227 1941.94,486.779 1956.11,540.875 
  1970.28,293.445 1984.45,323.335 1998.62,530.7 2012.79,526.037 2026.96,502.036 2041.13,695.66 2055.3,488.233 2069.48,560.173 2083.65,180.923 2097.82,286.895 
  2111.99,473.426 2126.16,495.607 2140.33,632.478 2154.5,308.043 2168.67,506.224 2182.84,214.85 2197.02,367.845 2211.19,356.878 2225.36,455.063 2239.53,85.0853 
  2253.7,264.403 2267.87,218.399 2282.04,375.364 2296.21,238.409 
  "/>
<polyline clip-path="url(#clip702)" style="stroke:#e26f46; stroke-linecap:round; stroke-linejoin:round; stroke-width:4; stroke-opacity:1; fill:none" points="
  411.457,1048.07 425.629,1049.79 439.8,826.688 453.971,1020.56 468.142,1156.04 482.313,811.822 496.484,1128.36 510.655,1001.81 524.826,949.892 538.997,804.65 
  553.168,888.506 567.339,918.54 581.511,992.166 595.682,1161.97 609.853,892.659 624.024,864.923 638.195,821.593 652.366,884.69 666.537,962.501 680.708,863.571 
  694.879,1003.3 709.05,1119.99 723.222,980.439 737.393,1077.37 751.564,1027.01 765.735,848.634 779.906,971.612 794.077,804.399 808.248,832.176 822.419,1026.58 
  836.59,894.269 850.761,1058.35 864.932,999.688 879.104,1001.88 893.275,1038.2 907.446,913.817 921.617,897.068 935.788,903.271 949.959,1047.26 964.13,753.137 
  978.301,1021.86 992.472,915.954 1006.64,947.998 1020.81,951.964 1034.99,606.905 1049.16,1150.97 1063.33,830.093 1077.5,672.448 1091.67,924.62 1105.84,1009.05 
  1120.01,1012.04 1134.18,978.48 1148.35,1026.11 1162.53,963.949 1176.7,993.709 1190.87,913.316 1205.04,862.146 1219.21,903.22 1233.38,771.344 1247.55,649.71 
  1261.72,799.9 1275.89,692.403 1290.07,781.782 1304.24,837.725 1318.41,857.853 1332.58,855.915 1346.75,744.23 1360.92,778.351 1375.09,818.782 1389.26,772.694 
  1403.43,743.643 1417.61,1019.2 1431.78,895.757 1445.95,871.193 1460.12,649.589 1474.29,731.893 1488.46,562.641 1502.63,690.348 1516.8,697.79 1530.97,676.21 
  1545.15,826.05 1559.32,649.923 1573.49,562.598 1587.66,776.591 1601.83,897.165 1616,833.593 1630.17,846.886 1644.34,566.898 1658.51,549.492 1672.68,643.626 
  1686.86,597.897 1701.03,499.769 1715.2,721.798 1729.37,696.929 1743.54,785.244 1757.71,859.745 1771.88,725.207 1786.05,578.418 1800.22,690.591 1814.4,668.756 
  1828.57,594.958 1842.74,643.165 1856.91,579.521 1871.08,515.534 1885.25,466.13 1899.42,532.558 1913.59,536.107 1927.76,561.816 1941.94,614.799 1956.11,628.076 
  1970.28,536.518 1984.45,626.421 1998.62,209.65 2012.79,530.305 2026.96,574.923 2041.13,550.582 2055.3,512.052 2069.48,393.643 2083.65,446.372 2097.82,398.592 
  2111.99,555.301 2126.16,471.819 2140.33,588.247 2154.5,284.992 2168.67,297.056 2182.84,178.863 2197.02,318.767 2211.19,595.532 2225.36,319.647 2239.53,183.212 
  2253.7,356.217 2267.87,377.097 2282.04,438.383 2296.21,203.203 
  "/>
<polyline clip-path="url(#clip702)" style="stroke:#3da44d; stroke-linecap:round; stroke-linejoin:round; stroke-width:4; stroke-opacity:1; fill:none" points="
  411.457,1149.81 425.629,1174.17 439.8,1223.81 453.971,1270.25 468.142,1054.64 482.313,960.9 496.484,1025.43 510.655,1069.17 524.826,849.965 538.997,1209.26 
  553.168,1022.38 567.339,1108.54 581.511,953.114 595.682,1194.64 609.853,1189.9 624.024,1183.55 638.195,1070.11 652.366,1091.77 666.537,960.869 680.708,1005.57 
  694.879,1346.46 709.05,1094.33 723.222,943.747 737.393,939.498 751.564,1140.09 765.735,1138.38 779.906,1107.85 794.077,1105.78 808.248,1048.89 822.419,1059.11 
  836.59,1158.57 850.761,1278.34 864.932,1055.98 879.104,897.33 893.275,1281.55 907.446,1003.86 921.617,1124.23 935.788,1339.35 949.959,1131.22 964.13,833.278 
  978.301,927.87 992.472,1041.76 1006.64,962.4 1020.81,909.196 1034.99,1099.89 1049.16,919.907 1063.33,1287.18 1077.5,936.541 1091.67,1018.56 1105.84,1183.12 
  1120.01,858.688 1134.18,760.79 1148.35,814.516 1162.53,914.767 1176.7,1084.28 1190.87,818.763 1205.04,1037.86 1219.21,864.915 1233.38,792.306 1247.55,1113.81 
  1261.72,923.589 1275.89,1041.76 1290.07,1038.98 1304.24,856.505 1318.41,903.315 1332.58,1084.51 1346.75,942.932 1360.92,1021.95 1375.09,972.11 1389.26,710.519 
  1403.43,752.258 1417.61,727.608 1431.78,908.216 1445.95,787.667 1460.12,876.615 1474.29,811.715 1488.46,941.563 1502.63,1017.87 1516.8,838.282 1530.97,689.072 
  1545.15,836.504 1559.32,697.3 1573.49,872.401 1587.66,808.835 1601.83,917.252 1616,726.002 1630.17,667.871 1644.34,787.793 1658.51,733.719 1672.68,829.029 
  1686.86,721.778 1701.03,841.045 1715.2,920.349 1729.37,863.417 1743.54,619.413 1757.71,715.657 1771.88,758.375 1786.05,528.756 1800.22,594.081 1814.4,775.6 
  1828.57,703.344 1842.74,693.86 1856.91,786.233 1871.08,566.734 1885.25,735.788 1899.42,555.812 1913.59,899.267 1927.76,844.268 1941.94,732.854 1956.11,773.404 
  1970.28,511.104 1984.45,645.03 1998.62,543.796 2012.79,631.445 2026.96,546.844 2041.13,629.117 2055.3,439.69 2069.48,646.279 2083.65,372.202 2097.82,515.731 
  2111.99,652.944 2126.16,640.132 2140.33,690.472 2154.5,438.467 2168.67,401.777 2182.84,602.868 2197.02,471.772 2211.19,410.719 2225.36,568.531 2239.53,488.443 
  2253.7,462.632 2267.87,441.033 2282.04,469.265 2296.21,643.114 
  "/>
<polyline clip-path="url(#clip702)" style="stroke:#c271d2; stroke-linecap:round; stroke-linejoin:round; stroke-width:4; stroke-opacity:1; fill:none" points="
  411.457,1066.64 425.629,884.48 439.8,1133.87 453.971,1124.04 468.142,1043.69 482.313,961.104 496.484,909.696 510.655,1107.91 524.826,967.769 538.997,1060.32 
  553.168,1252.98 567.339,1118.75 581.511,1054.59 595.682,1074.08 609.853,876.86 624.024,979.9 638.195,1111.58 652.366,961.404 666.537,1075.33 680.708,999.513 
  694.879,852.815 709.05,1316.96 723.222,1035.9 737.393,772.26 751.564,875.764 765.735,1050.64 779.906,1045.69 794.077,926.185 808.248,906.418 822.419,1013.95 
  836.59,1103.57 850.761,957.542 864.932,1224.06 879.104,918.5 893.275,956.504 907.446,988.175 921.617,1013.39 935.788,890.76 949.959,844.318 964.13,951.021 
  978.301,914.973 992.472,965.538 1006.64,1058.64 1020.81,888.712 1034.99,834.211 1049.16,984.399 1063.33,899.615 1077.5,922.395 1091.67,870.404 1105.84,1033.59 
  1120.01,1133.3 1134.18,742.355 1148.35,723.473 1162.53,867.404 1176.7,861.016 1190.87,1038.42 1205.04,906.735 1219.21,798.65 1233.38,940.372 1247.55,980.553 
  1261.72,727.862 1275.89,842.166 1290.07,875.245 1304.24,686.305 1318.41,898.447 1332.58,816.755 1346.75,773.622 1360.92,854.122 1375.09,716.406 1389.26,564.323 
  1403.43,850.016 1417.61,817.345 1431.78,661.909 1445.95,786.797 1460.12,748.228 1474.29,852.455 1488.46,777.138 1502.63,696.83 1516.8,746.858 1530.97,918.384 
  1545.15,685.619 1559.32,763.765 1573.49,635.223 1587.66,700.19 1601.83,631.59 1616,646.142 1630.17,800.918 1644.34,588.506 1658.51,749.481 1672.68,608.576 
  1686.86,669.825 1701.03,637.543 1715.2,686.024 1729.37,560.559 1743.54,792.346 1757.71,745.451 1771.88,370.672 1786.05,701.993 1800.22,578.823 1814.4,603.112 
  1828.57,634.153 1842.74,774.074 1856.91,545.532 1871.08,605.172 1885.25,690.532 1899.42,486.879 1913.59,655.343 1927.76,507.927 1941.94,535.079 1956.11,830.816 
  1970.28,699.215 1984.45,338.73 1998.62,424.281 2012.79,401.647 2026.96,496.03 2041.13,618.382 2055.3,323.887 2069.48,555.352 2083.65,597.812 2097.82,606.58 
  2111.99,769.454 2126.16,527.4 2140.33,510.609 2154.5,459.239 2168.67,704.912 2182.84,614.328 2197.02,237.711 2211.19,337.977 2225.36,297.959 2239.53,342.447 
  2253.7,502.705 2267.87,175.352 2282.04,206.521 2296.21,353.015 
  "/>
<polyline clip-path="url(#clip702)" style="stroke:#ac8d18; stroke-linecap:round; stroke-linejoin:round; stroke-width:4; stroke-opacity:1; fill:none" points="
  411.457,1171.14 425.629,1180.13 439.8,1138.16 453.971,1148.76 468.142,1133.38 482.313,1185.8 496.484,1080.77 510.655,911.075 524.826,979.751 538.997,1202.26 
  553.168,1065.19 567.339,1125.85 581.511,1189.9 595.682,1052.58 609.853,1087.14 624.024,1058.54 638.195,1152.94 652.366,1162.95 666.537,1206.16 680.708,978.498 
  694.879,1086.91 709.05,1006.3 723.222,1046.71 737.393,1326.2 751.564,1031.18 765.735,1074.88 779.906,921.821 794.077,1092.2 808.248,1013.46 822.419,1171.67 
  836.59,1062.08 850.761,1024 864.932,1188.9 879.104,1191.14 893.275,1045.25 907.446,1035.83 921.617,982.874 935.788,1089.08 949.959,997.604 964.13,1109.55 
  978.301,911.623 992.472,785.621 1006.64,946.844 1020.81,1162.92 1034.99,1026.55 1049.16,903.762 1063.33,1016.38 1077.5,991.178 1091.67,894.901 1105.84,886.492 
  1120.01,757.803 1134.18,942.757 1148.35,826.787 1162.53,1063.62 1176.7,929.559 1190.87,897.159 1205.04,871.615 1219.21,1122.32 1233.38,1149.2 1247.55,1128.95 
  1261.72,952.11 1275.89,1009.18 1290.07,1027.83 1304.24,953.099 1318.41,972.196 1332.58,1069.56 1346.75,790.867 1360.92,668.533 1375.09,1085.33 1389.26,945.493 
  1403.43,930.507 1417.61,851.216 1431.78,727.499 1445.95,982.124 1460.12,915.245 1474.29,884.556 1488.46,698.319 1502.63,712.786 1516.8,784.364 1530.97,682.681 
  1545.15,1069.43 1559.32,749.998 1573.49,571.625 1587.66,939.396 1601.83,731.172 1616,736.801 1630.17,624.738 1644.34,875.78 1658.51,873.926 1672.68,696.054 
  1686.86,808.834 1701.03,671.849 1715.2,584.781 1729.37,764.572 1743.54,708.81 1757.71,533.734 1771.88,902.777 1786.05,836.146 1800.22,740.679 1814.4,780.615 
  1828.57,878.233 1842.74,772.803 1856.91,736.252 1871.08,605.03 1885.25,829.919 1899.42,547.175 1913.59,758.624 1927.76,596.435 1941.94,746.704 1956.11,355.872 
  1970.28,601.166 1984.45,621.838 1998.62,690.434 2012.79,396.228 2026.96,375.638 2041.13,791.384 2055.3,651.031 2069.48,845.369 2083.65,629.445 2097.82,763.954 
  2111.99,635.155 2126.16,584.523 2140.33,481.106 2154.5,467.321 2168.67,407.951 2182.84,525.693 2197.02,388.321 2211.19,722.443 2225.36,515.211 2239.53,737.046 
  2253.7,282.786 2267.87,582.834 2282.04,540.866 2296.21,491.558 
  "/>
<circle clip-path="url(#clip702)" cx="411.457" cy="1106.69" r="14.4" fill="#000000" fill-rule="evenodd" fill-opacity="1" stroke="none"/>
<circle clip-path="url(#clip702)" cx="425.629" cy="1088.51" r="14.4" fill="#000000" fill-rule="evenodd" fill-opacity="1" stroke="none"/>
<circle clip-path="url(#clip702)" cx="439.8" cy="1143.06" r="14.4" fill="#000000" fill-rule="evenodd" fill-opacity="1" stroke="none"/>
<circle clip-path="url(#clip702)" cx="453.971" cy="1125.85" r="14.4" fill="#000000" fill-rule="evenodd" fill-opacity="1" stroke="none"/>
<circle clip-path="url(#clip702)" cx="468.142" cy="1057.99" r="14.4" fill="#000000" fill-rule="evenodd" fill-opacity="1" stroke="none"/>
<circle clip-path="url(#clip702)" cx="482.313" cy="1062.86" r="14.4" fill="#000000" fill-rule="evenodd" fill-opacity="1" stroke="none"/>
<circle clip-path="url(#clip702)" cx="496.484" cy="1070.65" r="14.4" fill="#000000" fill-rule="evenodd" fill-opacity="1" stroke="none"/>
<circle clip-path="url(#clip702)" cx="510.655" cy="1088.84" r="14.4" fill="#000000" fill-rule="evenodd" fill-opacity="1" stroke="none"/>
<circle clip-path="url(#clip702)" cx="524.826" cy="1082.02" r="14.4" fill="#000000" fill-rule="evenodd" fill-opacity="1" stroke="none"/>
<circle clip-path="url(#clip702)" cx="538.997" cy="1076.82" r="14.4" fill="#000000" fill-rule="evenodd" fill-opacity="1" stroke="none"/>
<circle clip-path="url(#clip702)" cx="553.168" cy="1070.33" r="14.4" fill="#000000" fill-rule="evenodd" fill-opacity="1" stroke="none"/>
<circle clip-path="url(#clip702)" cx="567.339" cy="1075.85" r="14.4" fill="#000000" fill-rule="evenodd" fill-opacity="1" stroke="none"/>
<circle clip-path="url(#clip702)" cx="581.511" cy="1065.46" r="14.4" fill="#000000" fill-rule="evenodd" fill-opacity="1" stroke="none"/>
<circle clip-path="url(#clip702)" cx="595.682" cy="1050.2" r="14.4" fill="#000000" fill-rule="evenodd" fill-opacity="1" stroke="none"/>
<circle clip-path="url(#clip702)" cx="609.853" cy="1081.69" r="14.4" fill="#000000" fill-rule="evenodd" fill-opacity="1" stroke="none"/>
<circle clip-path="url(#clip702)" cx="624.024" cy="1043.38" r="14.4" fill="#000000" fill-rule="evenodd" fill-opacity="1" stroke="none"/>
<circle clip-path="url(#clip702)" cx="638.195" cy="1068.05" r="14.4" fill="#000000" fill-rule="evenodd" fill-opacity="1" stroke="none"/>
<circle clip-path="url(#clip702)" cx="652.366" cy="1051.17" r="14.4" fill="#000000" fill-rule="evenodd" fill-opacity="1" stroke="none"/>
<circle clip-path="url(#clip702)" cx="666.537" cy="1020.65" r="14.4" fill="#000000" fill-rule="evenodd" fill-opacity="1" stroke="none"/>
<circle clip-path="url(#clip702)" cx="680.708" cy="996.296" r="14.4" fill="#000000" fill-rule="evenodd" fill-opacity="1" stroke="none"/>
<circle clip-path="url(#clip702)" cx="694.879" cy="1013.83" r="14.4" fill="#000000" fill-rule="evenodd" fill-opacity="1" stroke="none"/>
<circle clip-path="url(#clip702)" cx="709.05" cy="1015.13" r="14.4" fill="#000000" fill-rule="evenodd" fill-opacity="1" stroke="none"/>
<circle clip-path="url(#clip702)" cx="723.222" cy="1000.19" r="14.4" fill="#000000" fill-rule="evenodd" fill-opacity="1" stroke="none"/>
<circle clip-path="url(#clip702)" cx="737.393" cy="974.217" r="14.4" fill="#000000" fill-rule="evenodd" fill-opacity="1" stroke="none"/>
<circle clip-path="url(#clip702)" cx="751.564" cy="1007.66" r="14.4" fill="#000000" fill-rule="evenodd" fill-opacity="1" stroke="none"/>
<circle clip-path="url(#clip702)" cx="765.735" cy="1025.52" r="14.4" fill="#000000" fill-rule="evenodd" fill-opacity="1" stroke="none"/>
<circle clip-path="url(#clip702)" cx="779.906" cy="1003.44" r="14.4" fill="#000000" fill-rule="evenodd" fill-opacity="1" stroke="none"/>
<circle clip-path="url(#clip702)" cx="794.077" cy="1007.99" r="14.4" fill="#000000" fill-rule="evenodd" fill-opacity="1" stroke="none"/>
<circle clip-path="url(#clip702)" cx="808.248" cy="1016.1" r="14.4" fill="#000000" fill-rule="evenodd" fill-opacity="1" stroke="none"/>
<circle clip-path="url(#clip702)" cx="822.419" cy="1001.49" r="14.4" fill="#000000" fill-rule="evenodd" fill-opacity="1" stroke="none"/>
<circle clip-path="url(#clip702)" cx="836.59" cy="1001.82" r="14.4" fill="#000000" fill-rule="evenodd" fill-opacity="1" stroke="none"/>
<circle clip-path="url(#clip702)" cx="850.761" cy="974.866" r="14.4" fill="#000000" fill-rule="evenodd" fill-opacity="1" stroke="none"/>
<circle clip-path="url(#clip702)" cx="864.932" cy="984.932" r="14.4" fill="#000000" fill-rule="evenodd" fill-opacity="1" stroke="none"/>
<circle clip-path="url(#clip702)" cx="879.104" cy="979.087" r="14.4" fill="#000000" fill-rule="evenodd" fill-opacity="1" stroke="none"/>
<circle clip-path="url(#clip702)" cx="893.275" cy="958.632" r="14.4" fill="#000000" fill-rule="evenodd" fill-opacity="1" stroke="none"/>
<circle clip-path="url(#clip702)" cx="907.446" cy="932.981" r="14.4" fill="#000000" fill-rule="evenodd" fill-opacity="1" stroke="none"/>
<circle clip-path="url(#clip702)" cx="921.617" cy="939.15" r="14.4" fill="#000000" fill-rule="evenodd" fill-opacity="1" stroke="none"/>
<circle clip-path="url(#clip702)" cx="935.788" cy="953.761" r="14.4" fill="#000000" fill-rule="evenodd" fill-opacity="1" stroke="none"/>
<circle clip-path="url(#clip702)" cx="949.959" cy="958.956" r="14.4" fill="#000000" fill-rule="evenodd" fill-opacity="1" stroke="none"/>
<circle clip-path="url(#clip702)" cx="964.13" cy="953.761" r="14.4" fill="#000000" fill-rule="evenodd" fill-opacity="1" stroke="none"/>
<circle clip-path="url(#clip702)" cx="978.301" cy="949.54" r="14.4" fill="#000000" fill-rule="evenodd" fill-opacity="1" stroke="none"/>
<circle clip-path="url(#clip702)" cx="992.472" cy="942.721" r="14.4" fill="#000000" fill-rule="evenodd" fill-opacity="1" stroke="none"/>
<circle clip-path="url(#clip702)" cx="1006.64" cy="945.644" r="14.4" fill="#000000" fill-rule="evenodd" fill-opacity="1" stroke="none"/>
<circle clip-path="url(#clip702)" cx="1020.81" cy="941.747" r="14.4" fill="#000000" fill-rule="evenodd" fill-opacity="1" stroke="none"/>
<circle clip-path="url(#clip702)" cx="1034.99" cy="965.45" r="14.4" fill="#000000" fill-rule="evenodd" fill-opacity="1" stroke="none"/>
<circle clip-path="url(#clip702)" cx="1049.16" cy="958.956" r="14.4" fill="#000000" fill-rule="evenodd" fill-opacity="1" stroke="none"/>
<circle clip-path="url(#clip702)" cx="1063.33" cy="937.851" r="14.4" fill="#000000" fill-rule="evenodd" fill-opacity="1" stroke="none"/>
<circle clip-path="url(#clip702)" cx="1077.5" cy="941.423" r="14.4" fill="#000000" fill-rule="evenodd" fill-opacity="1" stroke="none"/>
<circle clip-path="url(#clip702)" cx="1091.67" cy="954.086" r="14.4" fill="#000000" fill-rule="evenodd" fill-opacity="1" stroke="none"/>
<circle clip-path="url(#clip702)" cx="1105.84" cy="949.54" r="14.4" fill="#000000" fill-rule="evenodd" fill-opacity="1" stroke="none"/>
<circle clip-path="url(#clip702)" cx="1120.01" cy="936.552" r="14.4" fill="#000000" fill-rule="evenodd" fill-opacity="1" stroke="none"/>
<circle clip-path="url(#clip702)" cx="1134.18" cy="937.851" r="14.4" fill="#000000" fill-rule="evenodd" fill-opacity="1" stroke="none"/>
<circle clip-path="url(#clip702)" cx="1148.35" cy="919.343" r="14.4" fill="#000000" fill-rule="evenodd" fill-opacity="1" stroke="none"/>
<circle clip-path="url(#clip702)" cx="1162.53" cy="905.381" r="14.4" fill="#000000" fill-rule="evenodd" fill-opacity="1" stroke="none"/>
<circle clip-path="url(#clip702)" cx="1176.7" cy="922.915" r="14.4" fill="#000000" fill-rule="evenodd" fill-opacity="1" stroke="none"/>
<circle clip-path="url(#clip702)" cx="1190.87" cy="904.732" r="14.4" fill="#000000" fill-rule="evenodd" fill-opacity="1" stroke="none"/>
<circle clip-path="url(#clip702)" cx="1205.04" cy="917.395" r="14.4" fill="#000000" fill-rule="evenodd" fill-opacity="1" stroke="none"/>
<circle clip-path="url(#clip702)" cx="1219.21" cy="898.887" r="14.4" fill="#000000" fill-rule="evenodd" fill-opacity="1" stroke="none"/>
<circle clip-path="url(#clip702)" cx="1233.38" cy="890.445" r="14.4" fill="#000000" fill-rule="evenodd" fill-opacity="1" stroke="none"/>
<circle clip-path="url(#clip702)" cx="1247.55" cy="873.561" r="14.4" fill="#000000" fill-rule="evenodd" fill-opacity="1" stroke="none"/>
<circle clip-path="url(#clip702)" cx="1261.72" cy="890.77" r="14.4" fill="#000000" fill-rule="evenodd" fill-opacity="1" stroke="none"/>
<circle clip-path="url(#clip702)" cx="1275.89" cy="851.157" r="14.4" fill="#000000" fill-rule="evenodd" fill-opacity="1" stroke="none"/>
<circle clip-path="url(#clip702)" cx="1290.07" cy="851.157" r="14.4" fill="#000000" fill-rule="evenodd" fill-opacity="1" stroke="none"/>
<circle clip-path="url(#clip702)" cx="1304.24" cy="851.157" r="14.4" fill="#000000" fill-rule="evenodd" fill-opacity="1" stroke="none"/>
<circle clip-path="url(#clip702)" cx="1318.41" cy="871.937" r="14.4" fill="#000000" fill-rule="evenodd" fill-opacity="1" stroke="none"/>
<circle clip-path="url(#clip702)" cx="1332.58" cy="862.846" r="14.4" fill="#000000" fill-rule="evenodd" fill-opacity="1" stroke="none"/>
<circle clip-path="url(#clip702)" cx="1346.75" cy="838.494" r="14.4" fill="#000000" fill-rule="evenodd" fill-opacity="1" stroke="none"/>
<circle clip-path="url(#clip702)" cx="1360.92" cy="828.428" r="14.4" fill="#000000" fill-rule="evenodd" fill-opacity="1" stroke="none"/>
<circle clip-path="url(#clip702)" cx="1375.09" cy="812.843" r="14.4" fill="#000000" fill-rule="evenodd" fill-opacity="1" stroke="none"/>
<circle clip-path="url(#clip702)" cx="1389.26" cy="817.064" r="14.4" fill="#000000" fill-rule="evenodd" fill-opacity="1" stroke="none"/>
<circle clip-path="url(#clip702)" cx="1403.43" cy="809.92" r="14.4" fill="#000000" fill-rule="evenodd" fill-opacity="1" stroke="none"/>
<circle clip-path="url(#clip702)" cx="1417.61" cy="779.074" r="14.4" fill="#000000" fill-rule="evenodd" fill-opacity="1" stroke="none"/>
<circle clip-path="url(#clip702)" cx="1431.78" cy="787.516" r="14.4" fill="#000000" fill-rule="evenodd" fill-opacity="1" stroke="none"/>
<circle clip-path="url(#clip702)" cx="1445.95" cy="773.23" r="14.4" fill="#000000" fill-rule="evenodd" fill-opacity="1" stroke="none"/>
<circle clip-path="url(#clip702)" cx="1460.12" cy="782.646" r="14.4" fill="#000000" fill-rule="evenodd" fill-opacity="1" stroke="none"/>
<circle clip-path="url(#clip702)" cx="1474.29" cy="779.724" r="14.4" fill="#000000" fill-rule="evenodd" fill-opacity="1" stroke="none"/>
<circle clip-path="url(#clip702)" cx="1488.46" cy="796.283" r="14.4" fill="#000000" fill-rule="evenodd" fill-opacity="1" stroke="none"/>
<circle clip-path="url(#clip702)" cx="1502.63" cy="752.774" r="14.4" fill="#000000" fill-rule="evenodd" fill-opacity="1" stroke="none"/>
<circle clip-path="url(#clip702)" cx="1516.8" cy="748.228" r="14.4" fill="#000000" fill-rule="evenodd" fill-opacity="1" stroke="none"/>
<circle clip-path="url(#clip702)" cx="1530.97" cy="747.254" r="14.4" fill="#000000" fill-rule="evenodd" fill-opacity="1" stroke="none"/>
<circle clip-path="url(#clip702)" cx="1545.15" cy="735.24" r="14.4" fill="#000000" fill-rule="evenodd" fill-opacity="1" stroke="none"/>
<circle clip-path="url(#clip702)" cx="1559.32" cy="715.109" r="14.4" fill="#000000" fill-rule="evenodd" fill-opacity="1" stroke="none"/>
<circle clip-path="url(#clip702)" cx="1573.49" cy="731.993" r="14.4" fill="#000000" fill-rule="evenodd" fill-opacity="1" stroke="none"/>
<circle clip-path="url(#clip702)" cx="1587.66" cy="737.188" r="14.4" fill="#000000" fill-rule="evenodd" fill-opacity="1" stroke="none"/>
<circle clip-path="url(#clip702)" cx="1601.83" cy="762.839" r="14.4" fill="#000000" fill-rule="evenodd" fill-opacity="1" stroke="none"/>
<circle clip-path="url(#clip702)" cx="1616" cy="726.473" r="14.4" fill="#000000" fill-rule="evenodd" fill-opacity="1" stroke="none"/>
<circle clip-path="url(#clip702)" cx="1630.17" cy="744.007" r="14.4" fill="#000000" fill-rule="evenodd" fill-opacity="1" stroke="none"/>
<circle clip-path="url(#clip702)" cx="1644.34" cy="739.461" r="14.4" fill="#000000" fill-rule="evenodd" fill-opacity="1" stroke="none"/>
<circle clip-path="url(#clip702)" cx="1658.51" cy="736.864" r="14.4" fill="#000000" fill-rule="evenodd" fill-opacity="1" stroke="none"/>
<circle clip-path="url(#clip702)" cx="1672.68" cy="714.784" r="14.4" fill="#000000" fill-rule="evenodd" fill-opacity="1" stroke="none"/>
<circle clip-path="url(#clip702)" cx="1686.86" cy="720.953" r="14.4" fill="#000000" fill-rule="evenodd" fill-opacity="1" stroke="none"/>
<circle clip-path="url(#clip702)" cx="1701.03" cy="704.069" r="14.4" fill="#000000" fill-rule="evenodd" fill-opacity="1" stroke="none"/>
<circle clip-path="url(#clip702)" cx="1715.2" cy="674.522" r="14.4" fill="#000000" fill-rule="evenodd" fill-opacity="1" stroke="none"/>
<circle clip-path="url(#clip702)" cx="1729.37" cy="694.003" r="14.4" fill="#000000" fill-rule="evenodd" fill-opacity="1" stroke="none"/>
<circle clip-path="url(#clip702)" cx="1743.54" cy="655.365" r="14.4" fill="#000000" fill-rule="evenodd" fill-opacity="1" stroke="none"/>
<circle clip-path="url(#clip702)" cx="1757.71" cy="660.56" r="14.4" fill="#000000" fill-rule="evenodd" fill-opacity="1" stroke="none"/>
<circle clip-path="url(#clip702)" cx="1771.88" cy="663.807" r="14.4" fill="#000000" fill-rule="evenodd" fill-opacity="1" stroke="none"/>
<circle clip-path="url(#clip702)" cx="1786.05" cy="669.327" r="14.4" fill="#000000" fill-rule="evenodd" fill-opacity="1" stroke="none"/>
<circle clip-path="url(#clip702)" cx="1800.22" cy="648.546" r="14.4" fill="#000000" fill-rule="evenodd" fill-opacity="1" stroke="none"/>
<circle clip-path="url(#clip702)" cx="1814.4" cy="664.456" r="14.4" fill="#000000" fill-rule="evenodd" fill-opacity="1" stroke="none"/>
<circle clip-path="url(#clip702)" cx="1828.57" cy="644.974" r="14.4" fill="#000000" fill-rule="evenodd" fill-opacity="1" stroke="none"/>
<circle clip-path="url(#clip702)" cx="1842.74" cy="604.712" r="14.4" fill="#000000" fill-rule="evenodd" fill-opacity="1" stroke="none"/>
<circle clip-path="url(#clip702)" cx="1856.91" cy="623.544" r="14.4" fill="#000000" fill-rule="evenodd" fill-opacity="1" stroke="none"/>
<circle clip-path="url(#clip702)" cx="1871.08" cy="596.27" r="14.4" fill="#000000" fill-rule="evenodd" fill-opacity="1" stroke="none"/>
<circle clip-path="url(#clip702)" cx="1885.25" cy="599.192" r="14.4" fill="#000000" fill-rule="evenodd" fill-opacity="1" stroke="none"/>
<circle clip-path="url(#clip702)" cx="1899.42" cy="632.636" r="14.4" fill="#000000" fill-rule="evenodd" fill-opacity="1" stroke="none"/>
<circle clip-path="url(#clip702)" cx="1913.59" cy="630.688" r="14.4" fill="#000000" fill-rule="evenodd" fill-opacity="1" stroke="none"/>
<circle clip-path="url(#clip702)" cx="1927.76" cy="628.739" r="14.4" fill="#000000" fill-rule="evenodd" fill-opacity="1" stroke="none"/>
<circle clip-path="url(#clip702)" cx="1941.94" cy="613.479" r="14.4" fill="#000000" fill-rule="evenodd" fill-opacity="1" stroke="none"/>
<circle clip-path="url(#clip702)" cx="1956.11" cy="598.867" r="14.4" fill="#000000" fill-rule="evenodd" fill-opacity="1" stroke="none"/>
<circle clip-path="url(#clip702)" cx="1970.28" cy="591.399" r="14.4" fill="#000000" fill-rule="evenodd" fill-opacity="1" stroke="none"/>
<circle clip-path="url(#clip702)" cx="1984.45" cy="583.282" r="14.4" fill="#000000" fill-rule="evenodd" fill-opacity="1" stroke="none"/>
<circle clip-path="url(#clip702)" cx="1998.62" cy="581.009" r="14.4" fill="#000000" fill-rule="evenodd" fill-opacity="1" stroke="none"/>
<circle clip-path="url(#clip702)" cx="2012.79" cy="586.853" r="14.4" fill="#000000" fill-rule="evenodd" fill-opacity="1" stroke="none"/>
<circle clip-path="url(#clip702)" cx="2026.96" cy="569.969" r="14.4" fill="#000000" fill-rule="evenodd" fill-opacity="1" stroke="none"/>
<circle clip-path="url(#clip702)" cx="2041.13" cy="560.553" r="14.4" fill="#000000" fill-rule="evenodd" fill-opacity="1" stroke="none"/>
<circle clip-path="url(#clip702)" cx="2055.3" cy="547.24" r="14.4" fill="#000000" fill-rule="evenodd" fill-opacity="1" stroke="none"/>
<circle clip-path="url(#clip702)" cx="2069.48" cy="524.512" r="14.4" fill="#000000" fill-rule="evenodd" fill-opacity="1" stroke="none"/>
<circle clip-path="url(#clip702)" cx="2083.65" cy="556.657" r="14.4" fill="#000000" fill-rule="evenodd" fill-opacity="1" stroke="none"/>
<circle clip-path="url(#clip702)" cx="2097.82" cy="529.057" r="14.4" fill="#000000" fill-rule="evenodd" fill-opacity="1" stroke="none"/>
<circle clip-path="url(#clip702)" cx="2111.99" cy="524.836" r="14.4" fill="#000000" fill-rule="evenodd" fill-opacity="1" stroke="none"/>
<circle clip-path="url(#clip702)" cx="2126.16" cy="506.978" r="14.4" fill="#000000" fill-rule="evenodd" fill-opacity="1" stroke="none"/>
<circle clip-path="url(#clip702)" cx="2140.33" cy="499.185" r="14.4" fill="#000000" fill-rule="evenodd" fill-opacity="1" stroke="none"/>
<circle clip-path="url(#clip702)" cx="2154.5" cy="469.313" r="14.4" fill="#000000" fill-rule="evenodd" fill-opacity="1" stroke="none"/>
<circle clip-path="url(#clip702)" cx="2168.67" cy="470.612" r="14.4" fill="#000000" fill-rule="evenodd" fill-opacity="1" stroke="none"/>
<circle clip-path="url(#clip702)" cx="2182.84" cy="470.287" r="14.4" fill="#000000" fill-rule="evenodd" fill-opacity="1" stroke="none"/>
<circle clip-path="url(#clip702)" cx="2197.02" cy="456.325" r="14.4" fill="#000000" fill-rule="evenodd" fill-opacity="1" stroke="none"/>
<circle clip-path="url(#clip702)" cx="2211.19" cy="450.156" r="14.4" fill="#000000" fill-rule="evenodd" fill-opacity="1" stroke="none"/>
<circle clip-path="url(#clip702)" cx="2225.36" cy="421.907" r="14.4" fill="#000000" fill-rule="evenodd" fill-opacity="1" stroke="none"/>
<circle clip-path="url(#clip702)" cx="2239.53" cy="403.075" r="14.4" fill="#000000" fill-rule="evenodd" fill-opacity="1" stroke="none"/>
<circle clip-path="url(#clip702)" cx="2253.7" cy="378.073" r="14.4" fill="#000000" fill-rule="evenodd" fill-opacity="1" stroke="none"/>
<circle clip-path="url(#clip702)" cx="2267.87" cy="372.878" r="14.4" fill="#000000" fill-rule="evenodd" fill-opacity="1" stroke="none"/>
<circle clip-path="url(#clip702)" cx="2282.04" cy="344.305" r="14.4" fill="#000000" fill-rule="evenodd" fill-opacity="1" stroke="none"/>
<circle clip-path="url(#clip702)" cx="2296.21" cy="371.579" r="14.4" fill="#000000" fill-rule="evenodd" fill-opacity="1" stroke="none"/>
<path clip-path="url(#clip700)" d="
M421.509 273.253 L1236.22 273.253 L1236.22 91.8126 L421.509 91.8126  Z
  " fill="#ffffff" fill-rule="evenodd" fill-opacity="1"/>
<polyline clip-path="url(#clip700)" style="stroke:#000000; stroke-linecap:round; stroke-linejoin:round; stroke-width:4; stroke-opacity:1; fill:none" points="
  421.509,273.253 1236.22,273.253 1236.22,91.8126 421.509,91.8126 421.509,273.253 
  "/>
<circle clip-path="url(#clip700)" cx="510.302" cy="182.533" r="40.32" fill="#000000" fill-rule="evenodd" fill-opacity="1" stroke="none"/>
<path clip-path="url(#clip700)" d="M638.025 154.278 L638.025 162.258 Q633.366 160.03 629.234 158.936 Q625.102 157.842 621.254 157.842 Q614.57 157.842 610.924 160.435 Q607.319 163.028 607.319 167.808 Q607.319 171.818 609.709 173.884 Q612.139 175.909 618.864 177.165 L623.806 178.178 Q632.961 179.92 637.295 184.335 Q641.67 188.71 641.67 196.083 Q641.67 204.873 635.756 209.41 Q629.882 213.947 618.499 213.947 Q614.205 213.947 609.344 212.975 Q604.524 212.003 599.338 210.099 L599.338 201.673 Q604.321 204.468 609.101 205.886 Q613.881 207.304 618.499 207.304 Q625.507 207.304 629.315 204.549 Q633.123 201.795 633.123 196.691 Q633.123 192.235 630.368 189.723 Q627.654 187.211 621.416 185.956 L616.433 184.983 Q607.278 183.161 603.187 179.272 Q599.095 175.383 599.095 168.456 Q599.095 160.435 604.726 155.817 Q610.397 151.199 620.322 151.199 Q624.576 151.199 628.991 151.969 Q633.406 152.738 638.025 154.278 Z" fill="#000000" fill-rule="evenodd" fill-opacity="1" /><path clip-path="url(#clip700)" d="M692.914 188.224 L692.914 191.87 L658.644 191.87 Q659.13 199.567 663.262 203.618 Q667.434 207.628 674.847 207.628 Q679.141 207.628 683.152 206.575 Q687.202 205.522 691.172 203.415 L691.172 210.464 Q687.162 212.165 682.949 213.056 Q678.736 213.947 674.402 213.947 Q663.545 213.947 657.185 207.628 Q650.866 201.309 650.866 190.533 Q650.866 179.393 656.861 172.871 Q662.897 166.309 673.105 166.309 Q682.26 166.309 687.567 172.223 Q692.914 178.097 692.914 188.224 M685.461 186.037 Q685.38 179.92 682.017 176.274 Q678.696 172.628 673.186 172.628 Q666.948 172.628 663.181 176.152 Q659.454 179.677 658.887 186.077 L685.461 186.037 Z" fill="#000000" fill-rule="evenodd" fill-opacity="1" /><path clip-path="url(#clip700)" d="M725.767 189.966 Q716.734 189.966 713.25 192.032 Q709.766 194.098 709.766 199.081 Q709.766 203.05 712.359 205.4 Q714.992 207.709 719.488 207.709 Q725.686 207.709 729.413 203.334 Q733.18 198.919 733.18 191.627 L733.18 189.966 L725.767 189.966 M740.634 186.887 L740.634 212.773 L733.18 212.773 L733.18 205.886 Q730.628 210.018 726.82 212.003 Q723.012 213.947 717.503 213.947 Q710.536 213.947 706.404 210.059 Q702.312 206.129 702.312 199.567 Q702.312 191.91 707.416 188.022 Q712.561 184.133 722.729 184.133 L733.18 184.133 L733.18 183.404 Q733.18 178.259 729.777 175.464 Q726.415 172.628 720.298 172.628 Q716.41 172.628 712.723 173.56 Q709.037 174.492 705.634 176.355 L705.634 169.468 Q709.726 167.889 713.574 167.119 Q717.422 166.309 721.068 166.309 Q730.912 166.309 735.773 171.413 Q740.634 176.517 740.634 186.887 Z" fill="#000000" fill-rule="evenodd" fill-opacity="1" /><path clip-path="url(#clip700)" d="M752.219 186.725 L774.054 186.725 L774.054 193.369 L752.219 193.369 L752.219 186.725 Z" fill="#000000" fill-rule="evenodd" fill-opacity="1" /><path clip-path="url(#clip700)" d="M786.247 152.293 L794.43 152.293 L794.43 205.886 L823.88 205.886 L823.88 212.773 L786.247 212.773 L786.247 152.293 Z" fill="#000000" fill-rule="evenodd" fill-opacity="1" /><path clip-path="url(#clip700)" d="M869.493 188.224 L869.493 191.87 L835.223 191.87 Q835.709 199.567 839.841 203.618 Q844.013 207.628 851.426 207.628 Q855.72 207.628 859.73 206.575 Q863.781 205.522 867.751 203.415 L867.751 210.464 Q863.741 212.165 859.528 213.056 Q855.315 213.947 850.981 213.947 Q840.124 213.947 833.764 207.628 Q827.445 201.309 827.445 190.533 Q827.445 179.393 833.44 172.871 Q839.476 166.309 849.684 166.309 Q858.839 166.309 864.146 172.223 Q869.493 178.097 869.493 188.224 M862.04 186.037 Q861.958 179.92 858.596 176.274 Q855.275 172.628 849.765 172.628 Q843.527 172.628 839.76 176.152 Q836.033 179.677 835.466 186.077 L862.04 186.037 Z" fill="#000000" fill-rule="evenodd" fill-opacity="1" /><path clip-path="url(#clip700)" d="M876.38 167.402 L884.279 167.402 L898.457 205.481 L912.635 167.402 L920.535 167.402 L903.521 212.773 L893.394 212.773 L876.38 167.402 Z" fill="#000000" fill-rule="evenodd" fill-opacity="1" /><path clip-path="url(#clip700)" d="M969.632 188.224 L969.632 191.87 L935.361 191.87 Q935.847 199.567 939.979 203.618 Q944.151 207.628 951.564 207.628 Q955.858 207.628 959.869 206.575 Q963.92 205.522 967.89 203.415 L967.89 210.464 Q963.879 212.165 959.666 213.056 Q955.453 213.947 951.119 213.947 Q940.262 213.947 933.903 207.628 Q927.583 201.309 927.583 190.533 Q927.583 179.393 933.578 172.871 Q939.614 166.309 949.823 166.309 Q958.978 166.309 964.284 172.223 Q969.632 178.097 969.632 188.224 M962.178 186.037 Q962.097 179.92 958.735 176.274 Q955.413 172.628 949.904 172.628 Q943.665 172.628 939.898 176.152 Q936.171 179.677 935.604 186.077 L962.178 186.037 Z" fill="#000000" fill-rule="evenodd" fill-opacity="1" /><path clip-path="url(#clip700)" d="M981.865 149.741 L989.319 149.741 L989.319 212.773 L981.865 212.773 L981.865 149.741 Z" fill="#000000" fill-rule="evenodd" fill-opacity="1" /><path clip-path="url(#clip700)" d="M1039.79 159.017 L1039.79 206.048 L1049.68 206.048 Q1062.19 206.048 1067.99 200.377 Q1073.82 194.706 1073.82 182.472 Q1073.82 170.319 1067.99 164.688 Q1062.19 159.017 1049.68 159.017 L1039.79 159.017 M1031.61 152.293 L1048.42 152.293 Q1066 152.293 1074.23 159.625 Q1082.45 166.916 1082.45 182.472 Q1082.45 198.108 1074.19 205.44 Q1065.92 212.773 1048.42 212.773 L1031.61 212.773 L1031.61 152.293 Z" fill="#000000" fill-rule="evenodd" fill-opacity="1" /><path clip-path="url(#clip700)" d="M1115.79 189.966 Q1106.75 189.966 1103.27 192.032 Q1099.79 194.098 1099.79 199.081 Q1099.79 203.05 1102.38 205.4 Q1105.01 207.709 1109.51 207.709 Q1115.71 207.709 1119.43 203.334 Q1123.2 198.919 1123.2 191.627 L1123.2 189.966 L1115.79 189.966 M1130.65 186.887 L1130.65 212.773 L1123.2 212.773 L1123.2 205.886 Q1120.65 210.018 1116.84 212.003 Q1113.03 213.947 1107.52 213.947 Q1100.56 213.947 1096.42 210.059 Q1092.33 206.129 1092.33 199.567 Q1092.33 191.91 1097.44 188.022 Q1102.58 184.133 1112.75 184.133 L1123.2 184.133 L1123.2 183.404 Q1123.2 178.259 1119.8 175.464 Q1116.44 172.628 1110.32 172.628 Q1106.43 172.628 1102.74 173.56 Q1099.06 174.492 1095.66 176.355 L1095.66 169.468 Q1099.75 167.889 1103.59 167.119 Q1107.44 166.309 1111.09 166.309 Q1120.93 166.309 1125.79 171.413 Q1130.65 176.517 1130.65 186.887 Z" fill="#000000" fill-rule="evenodd" fill-opacity="1" /><path clip-path="url(#clip700)" d="M1153.38 154.521 L1153.38 167.402 L1168.73 167.402 L1168.73 173.195 L1153.38 173.195 L1153.38 197.825 Q1153.38 203.375 1154.88 204.954 Q1156.42 206.534 1161.08 206.534 L1168.73 206.534 L1168.73 212.773 L1161.08 212.773 Q1152.45 212.773 1149.17 209.572 Q1145.89 206.332 1145.89 197.825 L1145.89 173.195 L1140.42 173.195 L1140.42 167.402 L1145.89 167.402 L1145.89 154.521 L1153.38 154.521 Z" fill="#000000" fill-rule="evenodd" fill-opacity="1" /><path clip-path="url(#clip700)" d="M1199.16 189.966 Q1190.12 189.966 1186.64 192.032 Q1183.15 194.098 1183.15 199.081 Q1183.15 203.05 1185.75 205.4 Q1188.38 207.709 1192.88 207.709 Q1199.07 207.709 1202.8 203.334 Q1206.57 198.919 1206.57 191.627 L1206.57 189.966 L1199.16 189.966 M1214.02 186.887 L1214.02 212.773 L1206.57 212.773 L1206.57 205.886 Q1204.02 210.018 1200.21 212.003 Q1196.4 213.947 1190.89 213.947 Q1183.92 213.947 1179.79 210.059 Q1175.7 206.129 1175.7 199.567 Q1175.7 191.91 1180.81 188.022 Q1185.95 184.133 1196.12 184.133 L1206.57 184.133 L1206.57 183.404 Q1206.57 178.259 1203.17 175.464 Q1199.8 172.628 1193.69 172.628 Q1189.8 172.628 1186.11 173.56 Q1182.43 174.492 1179.02 176.355 L1179.02 169.468 Q1183.11 167.889 1186.96 167.119 Q1190.81 166.309 1194.46 166.309 Q1204.3 166.309 1209.16 171.413 Q1214.02 176.517 1214.02 186.887 Z" fill="#000000" fill-rule="evenodd" fill-opacity="1" /></svg>
