<?xml version="1.0" encoding="utf-8"?>
<svg xmlns="http://www.w3.org/2000/svg" xmlns:xlink="http://www.w3.org/1999/xlink" width="600" height="400" viewBox="0 0 2400 1600">
<defs>
  <clipPath id="clip670">
    <rect x="0" y="0" width="2400" height="1600"/>
  </clipPath>
</defs>
<path clip-path="url(#clip670)" d="
M0 1600 L2400 1600 L2400 0 L0 0  Z
  " fill="#ffffff" fill-rule="evenodd" fill-opacity="1"/>
<defs>
  <clipPath id="clip671">
    <rect x="480" y="0" width="1681" height="1600"/>
  </clipPath>
</defs>
<path clip-path="url(#clip670)" d="
M354.915 1384.3 L2352.76 1384.3 L2352.76 47.2441 L354.915 47.2441  Z
  " fill="#ffffff" fill-rule="evenodd" fill-opacity="1"/>
<defs>
  <clipPath id="clip672">
    <rect x="354" y="47" width="1999" height="1338"/>
  </clipPath>
</defs>
<polyline clip-path="url(#clip672)" style="stroke:#000000; stroke-linecap:round; stroke-linejoin:round; stroke-width:2; stroke-opacity:0.1; fill:none" points="
  687.794,1384.3 687.794,47.2441 
  "/>
<polyline clip-path="url(#clip672)" style="stroke:#000000; stroke-linecap:round; stroke-linejoin:round; stroke-width:2; stroke-opacity:0.1; fill:none" points="
  1042.07,1384.3 1042.07,47.2441 
  "/>
<polyline clip-path="url(#clip672)" style="stroke:#000000; stroke-linecap:round; stroke-linejoin:round; stroke-width:2; stroke-opacity:0.1; fill:none" points="
  1396.35,1384.3 1396.35,47.2441 
  "/>
<polyline clip-path="url(#clip672)" style="stroke:#000000; stroke-linecap:round; stroke-linejoin:round; stroke-width:2; stroke-opacity:0.1; fill:none" points="
  1750.63,1384.3 1750.63,47.2441 
  "/>
<polyline clip-path="url(#clip672)" style="stroke:#000000; stroke-linecap:round; stroke-linejoin:round; stroke-width:2; stroke-opacity:0.1; fill:none" points="
  2104.9,1384.3 2104.9,47.2441 
  "/>
<polyline clip-path="url(#clip670)" style="stroke:#000000; stroke-linecap:round; stroke-linejoin:round; stroke-width:4; stroke-opacity:1; fill:none" points="
  354.915,1384.3 2352.76,1384.3 
  "/>
<polyline clip-path="url(#clip670)" style="stroke:#000000; stroke-linecap:round; stroke-linejoin:round; stroke-width:4; stroke-opacity:1; fill:none" points="
  687.794,1384.3 687.794,1365.4 
  "/>
<polyline clip-path="url(#clip670)" style="stroke:#000000; stroke-linecap:round; stroke-linejoin:round; stroke-width:4; stroke-opacity:1; fill:none" points="
  1042.07,1384.3 1042.07,1365.4 
  "/>
<polyline clip-path="url(#clip670)" style="stroke:#000000; stroke-linecap:round; stroke-linejoin:round; stroke-width:4; stroke-opacity:1; fill:none" points="
  1396.35,1384.3 1396.35,1365.4 
  "/>
<polyline clip-path="url(#clip670)" style="stroke:#000000; stroke-linecap:round; stroke-linejoin:round; stroke-width:4; stroke-opacity:1; fill:none" points="
  1750.63,1384.3 1750.63,1365.4 
  "/>
<polyline clip-path="url(#clip670)" style="stroke:#000000; stroke-linecap:round; stroke-linejoin:round; stroke-width:4; stroke-opacity:1; fill:none" points="
  2104.9,1384.3 2104.9,1365.4 
  "/>
<path clip-path="url(#clip670)" d="M604.582 1462.4 L616.041 1462.4 L616.041 1422.85 L603.575 1425.35 L603.575 1418.96 L615.971 1416.46 L622.985 1416.46 L622.985 1462.4 L634.443 1462.4 L634.443 1468.3 L604.582 1468.3 L604.582 1462.4 Z" fill="#000000" fill-rule="evenodd" fill-opacity="1" /><path clip-path="url(#clip670)" d="M648.818 1467.22 L648.818 1460.83 Q651.457 1462.08 654.165 1462.74 Q656.874 1463.4 659.478 1463.4 Q666.422 1463.4 670.068 1458.75 Q673.749 1454.06 674.27 1444.55 Q672.256 1447.54 669.165 1449.13 Q666.075 1450.73 662.325 1450.73 Q654.547 1450.73 649.999 1446.04 Q645.485 1441.32 645.485 1433.16 Q645.485 1425.18 650.207 1420.35 Q654.929 1415.52 662.777 1415.52 Q671.77 1415.52 676.492 1422.43 Q681.249 1429.31 681.249 1442.43 Q681.249 1454.69 675.415 1462.02 Q669.617 1469.31 659.79 1469.31 Q657.152 1469.31 654.443 1468.79 Q651.735 1468.27 648.818 1467.22 M662.777 1445.24 Q667.499 1445.24 670.242 1442.02 Q673.02 1438.79 673.02 1433.16 Q673.02 1427.57 670.242 1424.34 Q667.499 1421.08 662.777 1421.08 Q658.054 1421.08 655.277 1424.34 Q652.534 1427.57 652.534 1433.16 Q652.534 1438.79 655.277 1442.02 Q658.054 1445.24 662.777 1445.24 Z" fill="#000000" fill-rule="evenodd" fill-opacity="1" /><path clip-path="url(#clip670)" d="M708.853 1421.08 Q703.436 1421.08 700.693 1426.43 Q697.985 1431.74 697.985 1442.43 Q697.985 1453.09 700.693 1458.44 Q703.436 1463.75 708.853 1463.75 Q714.304 1463.75 717.012 1458.44 Q719.755 1453.09 719.755 1442.43 Q719.755 1431.74 717.012 1426.43 Q714.304 1421.08 708.853 1421.08 M708.853 1415.52 Q717.568 1415.52 722.151 1422.43 Q726.769 1429.31 726.769 1442.43 Q726.769 1455.52 722.151 1462.43 Q717.568 1469.31 708.853 1469.31 Q700.137 1469.31 695.519 1462.43 Q690.936 1455.52 690.936 1442.43 Q690.936 1429.31 695.519 1422.43 Q700.137 1415.52 708.853 1415.52 Z" fill="#000000" fill-rule="evenodd" fill-opacity="1" /><path clip-path="url(#clip670)" d="M754.096 1421.08 Q748.679 1421.08 745.936 1426.43 Q743.228 1431.74 743.228 1442.43 Q743.228 1453.09 745.936 1458.44 Q748.679 1463.75 754.096 1463.75 Q759.547 1463.75 762.255 1458.44 Q764.998 1453.09 764.998 1442.43 Q764.998 1431.74 762.255 1426.43 Q759.547 1421.08 754.096 1421.08 M754.096 1415.52 Q762.811 1415.52 767.394 1422.43 Q772.012 1429.31 772.012 1442.43 Q772.012 1455.52 767.394 1462.43 Q762.811 1469.31 754.096 1469.31 Q745.38 1469.31 740.762 1462.43 Q736.179 1455.52 736.179 1442.43 Q736.179 1429.31 740.762 1422.43 Q745.38 1415.52 754.096 1415.52 Z" fill="#000000" fill-rule="evenodd" fill-opacity="1" /><path clip-path="url(#clip670)" d="M959.606 1462.4 L971.065 1462.4 L971.065 1422.85 L958.599 1425.35 L958.599 1418.96 L970.995 1416.46 L978.009 1416.46 L978.009 1462.4 L989.467 1462.4 L989.467 1468.3 L959.606 1468.3 L959.606 1462.4 Z" fill="#000000" fill-rule="evenodd" fill-opacity="1" /><path clip-path="url(#clip670)" d="M1003.84 1467.22 L1003.84 1460.83 Q1006.48 1462.08 1009.19 1462.74 Q1011.9 1463.4 1014.5 1463.4 Q1021.45 1463.4 1025.09 1458.75 Q1028.77 1454.06 1029.29 1444.55 Q1027.28 1447.54 1024.19 1449.13 Q1021.1 1450.73 1017.35 1450.73 Q1009.57 1450.73 1005.02 1446.04 Q1000.51 1441.32 1000.51 1433.16 Q1000.51 1425.18 1005.23 1420.35 Q1009.95 1415.52 1017.8 1415.52 Q1026.79 1415.52 1031.52 1422.43 Q1036.27 1429.31 1036.27 1442.43 Q1036.27 1454.69 1030.44 1462.02 Q1024.64 1469.31 1014.81 1469.31 Q1012.18 1469.31 1009.47 1468.79 Q1006.76 1468.27 1003.84 1467.22 M1017.8 1445.24 Q1022.52 1445.24 1025.27 1442.02 Q1028.04 1438.79 1028.04 1433.16 Q1028.04 1427.57 1025.27 1424.34 Q1022.52 1421.08 1017.8 1421.08 Q1013.08 1421.08 1010.3 1424.34 Q1007.56 1427.57 1007.56 1433.16 Q1007.56 1438.79 1010.3 1442.02 Q1013.08 1445.24 1017.8 1445.24 Z" fill="#000000" fill-rule="evenodd" fill-opacity="1" /><path clip-path="url(#clip670)" d="M1054.92 1462.4 L1079.4 1462.4 L1079.4 1468.3 L1046.48 1468.3 L1046.48 1462.4 Q1050.47 1458.27 1057.35 1451.32 Q1064.26 1444.34 1066.03 1442.33 Q1069.4 1438.54 1070.72 1435.94 Q1072.07 1433.3 1072.07 1430.77 Q1072.07 1426.63 1069.15 1424.03 Q1066.27 1421.43 1061.62 1421.43 Q1058.32 1421.43 1054.64 1422.57 Q1050.99 1423.72 1046.83 1426.04 L1046.83 1418.96 Q1051.06 1417.26 1054.74 1416.39 Q1058.43 1415.52 1061.48 1415.52 Q1069.54 1415.52 1074.33 1419.55 Q1079.12 1423.58 1079.12 1430.31 Q1079.12 1433.51 1077.9 1436.39 Q1076.72 1439.24 1073.56 1443.13 Q1072.7 1444.13 1068.04 1448.96 Q1063.39 1453.75 1054.92 1462.4 Z" fill="#000000" fill-rule="evenodd" fill-opacity="1" /><path clip-path="url(#clip670)" d="M1094.19 1416.46 L1121.72 1416.46 L1121.72 1422.36 L1100.61 1422.36 L1100.61 1435.07 Q1102.14 1434.55 1103.67 1434.31 Q1105.2 1434.03 1106.72 1434.03 Q1115.4 1434.03 1120.47 1438.79 Q1125.54 1443.54 1125.54 1451.67 Q1125.54 1460.04 1120.33 1464.69 Q1115.13 1469.31 1105.65 1469.31 Q1102.38 1469.31 1098.98 1468.75 Q1095.61 1468.2 1092 1467.08 L1092 1460.04 Q1095.13 1461.74 1098.46 1462.57 Q1101.79 1463.4 1105.51 1463.4 Q1111.52 1463.4 1115.02 1460.24 Q1118.53 1457.08 1118.53 1451.67 Q1118.53 1446.25 1115.02 1443.09 Q1111.52 1439.93 1105.51 1439.93 Q1102.7 1439.93 1099.88 1440.56 Q1097.11 1441.18 1094.19 1442.5 L1094.19 1416.46 Z" fill="#000000" fill-rule="evenodd" fill-opacity="1" /><path clip-path="url(#clip670)" d="M1313.14 1462.4 L1324.6 1462.4 L1324.6 1422.85 L1312.13 1425.35 L1312.13 1418.96 L1324.53 1416.46 L1331.54 1416.46 L1331.54 1462.4 L1343 1462.4 L1343 1468.3 L1313.14 1468.3 L1313.14 1462.4 Z" fill="#000000" fill-rule="evenodd" fill-opacity="1" /><path clip-path="url(#clip670)" d="M1357.37 1467.22 L1357.37 1460.83 Q1360.01 1462.08 1362.72 1462.74 Q1365.43 1463.4 1368.03 1463.4 Q1374.98 1463.4 1378.62 1458.75 Q1382.3 1454.06 1382.82 1444.55 Q1380.81 1447.54 1377.72 1449.13 Q1374.63 1450.73 1370.88 1450.73 Q1363.1 1450.73 1358.55 1446.04 Q1354.04 1441.32 1354.04 1433.16 Q1354.04 1425.18 1358.76 1420.35 Q1363.48 1415.52 1371.33 1415.52 Q1380.32 1415.52 1385.05 1422.43 Q1389.8 1429.31 1389.8 1442.43 Q1389.8 1454.69 1383.97 1462.02 Q1378.17 1469.31 1368.35 1469.31 Q1365.71 1469.31 1363 1468.79 Q1360.29 1468.27 1357.37 1467.22 M1371.33 1445.24 Q1376.05 1445.24 1378.8 1442.02 Q1381.57 1438.79 1381.57 1433.16 Q1381.57 1427.57 1378.8 1424.34 Q1376.05 1421.08 1371.33 1421.08 Q1366.61 1421.08 1363.83 1424.34 Q1361.09 1427.57 1361.09 1433.16 Q1361.09 1438.79 1363.83 1442.02 Q1366.61 1445.24 1371.33 1445.24 Z" fill="#000000" fill-rule="evenodd" fill-opacity="1" /><path clip-path="url(#clip670)" d="M1402.48 1416.46 L1430.01 1416.46 L1430.01 1422.36 L1408.9 1422.36 L1408.9 1435.07 Q1410.43 1434.55 1411.96 1434.31 Q1413.48 1434.03 1415.01 1434.03 Q1423.69 1434.03 1428.76 1438.79 Q1433.83 1443.54 1433.83 1451.67 Q1433.83 1460.04 1428.62 1464.69 Q1423.41 1469.31 1413.94 1469.31 Q1410.67 1469.31 1407.27 1468.75 Q1403.9 1468.2 1400.29 1467.08 L1400.29 1460.04 Q1403.41 1461.74 1406.75 1462.57 Q1410.08 1463.4 1413.8 1463.4 Q1419.8 1463.4 1423.31 1460.24 Q1426.82 1457.08 1426.82 1451.67 Q1426.82 1446.25 1423.31 1443.09 Q1419.8 1439.93 1413.8 1439.93 Q1410.98 1439.93 1408.17 1440.56 Q1405.39 1441.18 1402.48 1442.5 L1402.48 1416.46 Z" fill="#000000" fill-rule="evenodd" fill-opacity="1" /><path clip-path="url(#clip670)" d="M1462.65 1421.08 Q1457.23 1421.08 1454.49 1426.43 Q1451.78 1431.74 1451.78 1442.43 Q1451.78 1453.09 1454.49 1458.44 Q1457.23 1463.75 1462.65 1463.75 Q1468.1 1463.75 1470.81 1458.44 Q1473.55 1453.09 1473.55 1442.43 Q1473.55 1431.74 1470.81 1426.43 Q1468.1 1421.08 1462.65 1421.08 M1462.65 1415.52 Q1471.37 1415.52 1475.95 1422.43 Q1480.57 1429.31 1480.57 1442.43 Q1480.57 1455.52 1475.95 1462.43 Q1471.37 1469.31 1462.65 1469.31 Q1453.94 1469.31 1449.32 1462.43 Q1444.73 1455.52 1444.73 1442.43 Q1444.73 1429.31 1449.32 1422.43 Q1453.94 1415.52 1462.65 1415.52 Z" fill="#000000" fill-rule="evenodd" fill-opacity="1" /><path clip-path="url(#clip670)" d="M1668.16 1462.4 L1679.62 1462.4 L1679.62 1422.85 L1667.15 1425.35 L1667.15 1418.96 L1679.55 1416.46 L1686.56 1416.46 L1686.56 1462.4 L1698.02 1462.4 L1698.02 1468.3 L1668.16 1468.3 L1668.16 1462.4 Z" fill="#000000" fill-rule="evenodd" fill-opacity="1" /><path clip-path="url(#clip670)" d="M1712.4 1467.22 L1712.4 1460.83 Q1715.04 1462.08 1717.74 1462.74 Q1720.45 1463.4 1723.06 1463.4 Q1730 1463.4 1733.65 1458.75 Q1737.33 1454.06 1737.85 1444.55 Q1735.83 1447.54 1732.74 1449.13 Q1729.65 1450.73 1725.9 1450.73 Q1718.13 1450.73 1713.58 1446.04 Q1709.06 1441.32 1709.06 1433.16 Q1709.06 1425.18 1713.79 1420.35 Q1718.51 1415.52 1726.36 1415.52 Q1735.35 1415.52 1740.07 1422.43 Q1744.83 1429.31 1744.83 1442.43 Q1744.83 1454.69 1738.99 1462.02 Q1733.2 1469.31 1723.37 1469.31 Q1720.73 1469.31 1718.02 1468.79 Q1715.31 1468.27 1712.4 1467.22 M1726.36 1445.24 Q1731.08 1445.24 1733.82 1442.02 Q1736.6 1438.79 1736.6 1433.16 Q1736.6 1427.57 1733.82 1424.34 Q1731.08 1421.08 1726.36 1421.08 Q1721.63 1421.08 1718.86 1424.34 Q1716.11 1427.57 1716.11 1433.16 Q1716.11 1438.79 1718.86 1442.02 Q1721.63 1445.24 1726.36 1445.24 Z" fill="#000000" fill-rule="evenodd" fill-opacity="1" /><path clip-path="url(#clip670)" d="M1755.66 1416.46 L1788.99 1416.46 L1788.99 1419.45 L1770.17 1468.3 L1762.85 1468.3 L1780.56 1422.36 L1755.66 1422.36 L1755.66 1416.46 Z" fill="#000000" fill-rule="evenodd" fill-opacity="1" /><path clip-path="url(#clip670)" d="M1802.74 1416.46 L1830.28 1416.46 L1830.28 1422.36 L1809.17 1422.36 L1809.17 1435.07 Q1810.7 1434.55 1812.22 1434.31 Q1813.75 1434.03 1815.28 1434.03 Q1823.96 1434.03 1829.03 1438.79 Q1834.1 1443.54 1834.1 1451.67 Q1834.1 1460.04 1828.89 1464.69 Q1823.68 1469.31 1814.2 1469.31 Q1810.94 1469.31 1807.54 1468.75 Q1804.17 1468.2 1800.56 1467.08 L1800.56 1460.04 Q1803.68 1461.74 1807.01 1462.57 Q1810.35 1463.4 1814.06 1463.4 Q1820.07 1463.4 1823.58 1460.24 Q1827.08 1457.08 1827.08 1451.67 Q1827.08 1446.25 1823.58 1443.09 Q1820.07 1439.93 1814.06 1439.93 Q1811.25 1439.93 1808.44 1440.56 Q1805.66 1441.18 1802.74 1442.5 L1802.74 1416.46 Z" fill="#000000" fill-rule="evenodd" fill-opacity="1" /><path clip-path="url(#clip670)" d="M2027.82 1462.4 L2052.3 1462.4 L2052.3 1468.3 L2019.38 1468.3 L2019.38 1462.4 Q2023.38 1458.27 2030.25 1451.32 Q2037.16 1444.34 2038.93 1442.33 Q2042.3 1438.54 2043.62 1435.94 Q2044.97 1433.3 2044.97 1430.77 Q2044.97 1426.63 2042.06 1424.03 Q2039.17 1421.43 2034.52 1421.43 Q2031.22 1421.43 2027.54 1422.57 Q2023.9 1423.72 2019.73 1426.04 L2019.73 1418.96 Q2023.97 1417.26 2027.65 1416.39 Q2031.33 1415.52 2034.38 1415.52 Q2042.44 1415.52 2047.23 1419.55 Q2052.02 1423.58 2052.02 1430.31 Q2052.02 1433.51 2050.81 1436.39 Q2049.63 1439.24 2046.47 1443.13 Q2045.6 1444.13 2040.95 1448.96 Q2036.29 1453.75 2027.82 1462.4 Z" fill="#000000" fill-rule="evenodd" fill-opacity="1" /><path clip-path="url(#clip670)" d="M2082.02 1421.08 Q2076.6 1421.08 2073.86 1426.43 Q2071.15 1431.74 2071.15 1442.43 Q2071.15 1453.09 2073.86 1458.44 Q2076.6 1463.75 2082.02 1463.75 Q2087.47 1463.75 2090.18 1458.44 Q2092.92 1453.09 2092.92 1442.43 Q2092.92 1431.74 2090.18 1426.43 Q2087.47 1421.08 2082.02 1421.08 M2082.02 1415.52 Q2090.74 1415.52 2095.32 1422.43 Q2099.94 1429.31 2099.94 1442.43 Q2099.94 1455.52 2095.32 1462.43 Q2090.74 1469.31 2082.02 1469.31 Q2073.31 1469.31 2068.69 1462.43 Q2064.11 1455.52 2064.11 1442.43 Q2064.11 1429.31 2068.69 1422.43 Q2073.31 1415.52 2082.02 1415.52 Z" fill="#000000" fill-rule="evenodd" fill-opacity="1" /><path clip-path="url(#clip670)" d="M2127.26 1421.08 Q2121.85 1421.08 2119.1 1426.43 Q2116.4 1431.74 2116.4 1442.43 Q2116.4 1453.09 2119.1 1458.44 Q2121.85 1463.75 2127.26 1463.75 Q2132.72 1463.75 2135.42 1458.44 Q2138.17 1453.09 2138.17 1442.43 Q2138.17 1431.74 2135.42 1426.43 Q2132.72 1421.08 2127.26 1421.08 M2127.26 1415.52 Q2135.98 1415.52 2140.56 1422.43 Q2145.18 1429.31 2145.18 1442.43 Q2145.18 1455.52 2140.56 1462.43 Q2135.98 1469.31 2127.26 1469.31 Q2118.55 1469.31 2113.93 1462.43 Q2109.35 1455.52 2109.35 1442.43 Q2109.35 1429.31 2113.93 1422.43 Q2118.55 1415.52 2127.26 1415.52 Z" fill="#000000" fill-rule="evenodd" fill-opacity="1" /><path clip-path="url(#clip670)" d="M2172.51 1421.08 Q2167.09 1421.08 2164.35 1426.43 Q2161.64 1431.74 2161.64 1442.43 Q2161.64 1453.09 2164.35 1458.44 Q2167.09 1463.75 2172.51 1463.75 Q2177.96 1463.75 2180.67 1458.44 Q2183.41 1453.09 2183.41 1442.43 Q2183.41 1431.74 2180.67 1426.43 Q2177.96 1421.08 2172.51 1421.08 M2172.51 1415.52 Q2181.22 1415.52 2185.81 1422.43 Q2190.42 1429.31 2190.42 1442.43 Q2190.42 1455.52 2185.81 1462.43 Q2181.22 1469.31 2172.51 1469.31 Q2163.79 1469.31 2159.17 1462.43 Q2154.59 1455.52 2154.59 1442.43 Q2154.59 1429.31 2159.17 1422.43 Q2163.79 1415.52 2172.51 1415.52 Z" fill="#000000" fill-rule="evenodd" fill-opacity="1" /><path clip-path="url(#clip670)" d="M1253.37 1511.88 L1263.42 1511.88 L1282.59 1540.31 L1301.61 1511.88 L1311.66 1511.88 L1287.22 1548.09 L1287.22 1581 L1277.82 1581 L1277.82 1548.09 L1253.37 1511.88 Z" fill="#000000" fill-rule="evenodd" fill-opacity="1" /><path clip-path="url(#clip670)" d="M1352.17 1552.95 L1352.17 1557.12 L1313 1557.12 Q1313.56 1565.91 1318.28 1570.54 Q1323.05 1575.12 1331.52 1575.12 Q1336.43 1575.12 1341.01 1573.92 Q1345.64 1572.72 1350.18 1570.31 L1350.18 1578.36 Q1345.59 1580.31 1340.78 1581.33 Q1335.97 1582.35 1331.01 1582.35 Q1318.6 1582.35 1311.34 1575.12 Q1304.11 1567.9 1304.11 1555.59 Q1304.11 1542.86 1310.97 1535.4 Q1317.86 1527.9 1329.53 1527.9 Q1339.99 1527.9 1346.06 1534.66 Q1352.17 1541.37 1352.17 1552.95 M1343.65 1550.45 Q1343.56 1543.46 1339.72 1539.29 Q1335.92 1535.12 1329.62 1535.12 Q1322.49 1535.12 1318.19 1539.15 Q1313.93 1543.18 1313.28 1550.49 L1343.65 1550.45 Z" fill="#000000" fill-rule="evenodd" fill-opacity="1" /><path clip-path="url(#clip670)" d="M1389.71 1554.94 Q1379.39 1554.94 1375.41 1557.3 Q1371.43 1559.66 1371.43 1565.36 Q1371.43 1569.89 1374.39 1572.58 Q1377.4 1575.22 1382.54 1575.22 Q1389.62 1575.22 1393.88 1570.22 Q1398.19 1565.17 1398.19 1556.84 L1398.19 1554.94 L1389.71 1554.94 M1406.71 1551.42 L1406.71 1581 L1398.19 1581 L1398.19 1573.13 Q1395.27 1577.86 1390.92 1580.12 Q1386.57 1582.35 1380.27 1582.35 Q1372.31 1582.35 1367.59 1577.9 Q1362.91 1573.41 1362.91 1565.91 Q1362.91 1557.16 1368.74 1552.72 Q1374.62 1548.27 1386.24 1548.27 L1398.19 1548.27 L1398.19 1547.44 Q1398.19 1541.56 1394.3 1538.37 Q1390.46 1535.12 1383.46 1535.12 Q1379.02 1535.12 1374.81 1536.19 Q1370.59 1537.25 1366.71 1539.38 L1366.71 1531.51 Q1371.38 1529.71 1375.78 1528.83 Q1380.18 1527.9 1384.34 1527.9 Q1395.59 1527.9 1401.15 1533.74 Q1406.71 1539.57 1406.71 1551.42 Z" fill="#000000" fill-rule="evenodd" fill-opacity="1" /><path clip-path="url(#clip670)" d="M1454.3 1537.12 Q1452.86 1536.28 1451.15 1535.91 Q1449.48 1535.49 1447.45 1535.49 Q1440.22 1535.49 1436.33 1540.22 Q1432.49 1544.89 1432.49 1553.69 L1432.49 1581 L1423.93 1581 L1423.93 1529.15 L1432.49 1529.15 L1432.49 1537.21 Q1435.18 1532.49 1439.48 1530.22 Q1443.79 1527.9 1449.95 1527.9 Q1450.83 1527.9 1451.89 1528.04 Q1452.96 1528.13 1454.25 1528.37 L1454.3 1537.12 Z" fill="#000000" fill-rule="evenodd" fill-opacity="1" /><polyline clip-path="url(#clip672)" style="stroke:#000000; stroke-linecap:round; stroke-linejoin:round; stroke-width:2; stroke-opacity:0.1; fill:none" points="
  354.915,1210.76 2352.76,1210.76 
  "/>
<polyline clip-path="url(#clip672)" style="stroke:#000000; stroke-linecap:round; stroke-linejoin:round; stroke-width:2; stroke-opacity:0.1; fill:none" points="
  354.915,882.399 2352.76,882.399 
  "/>
<polyline clip-path="url(#clip672)" style="stroke:#000000; stroke-linecap:round; stroke-linejoin:round; stroke-width:2; stroke-opacity:0.1; fill:none" points="
  354.915,554.037 2352.76,554.037 
  "/>
<polyline clip-path="url(#clip672)" style="stroke:#000000; stroke-linecap:round; stroke-linejoin:round; stroke-width:2; stroke-opacity:0.1; fill:none" points="
  354.915,225.675 2352.76,225.675 
  "/>
<polyline clip-path="url(#clip670)" style="stroke:#000000; stroke-linecap:round; stroke-linejoin:round; stroke-width:4; stroke-opacity:1; fill:none" points="
  354.915,1384.3 354.915,47.2441 
  "/>
<polyline clip-path="url(#clip670)" style="stroke:#000000; stroke-linecap:round; stroke-linejoin:round; stroke-width:4; stroke-opacity:1; fill:none" points="
  354.915,1210.76 373.812,1210.76 
  "/>
<polyline clip-path="url(#clip670)" style="stroke:#000000; stroke-linecap:round; stroke-linejoin:round; stroke-width:4; stroke-opacity:1; fill:none" points="
  354.915,882.399 373.812,882.399 
  "/>
<polyline clip-path="url(#clip670)" style="stroke:#000000; stroke-linecap:round; stroke-linejoin:round; stroke-width:4; stroke-opacity:1; fill:none" points="
  354.915,554.037 373.812,554.037 
  "/>
<polyline clip-path="url(#clip670)" style="stroke:#000000; stroke-linecap:round; stroke-linejoin:round; stroke-width:4; stroke-opacity:1; fill:none" points="
  354.915,225.675 373.812,225.675 
  "/>
<path clip-path="url(#clip670)" d="M135.86 1211.44 L180.374 1211.44 L180.374 1217.34 L135.86 1217.34 L135.86 1211.44 Z" fill="#000000" fill-rule="evenodd" fill-opacity="1" /><path clip-path="url(#clip670)" d="M201.554 1230.78 L226.033 1230.78 L226.033 1236.68 L193.117 1236.68 L193.117 1230.78 Q197.11 1226.65 203.985 1219.7 Q210.894 1212.72 212.665 1210.71 Q216.033 1206.92 217.353 1204.32 Q218.707 1201.68 218.707 1199.15 Q218.707 1195.01 215.79 1192.41 Q212.908 1189.81 208.256 1189.81 Q204.957 1189.81 201.276 1190.95 Q197.631 1192.1 193.464 1194.42 L193.464 1187.34 Q197.7 1185.64 201.381 1184.77 Q205.061 1183.9 208.117 1183.9 Q216.172 1183.9 220.964 1187.93 Q225.756 1191.96 225.756 1198.69 Q225.756 1201.89 224.54 1204.77 Q223.36 1207.62 220.2 1211.51 Q219.332 1212.51 214.679 1217.34 Q210.026 1222.13 201.554 1230.78 Z" fill="#000000" fill-rule="evenodd" fill-opacity="1" /><path clip-path="url(#clip670)" d="M255.755 1189.46 Q250.339 1189.46 247.596 1194.81 Q244.887 1200.12 244.887 1210.81 Q244.887 1221.47 247.596 1226.82 Q250.339 1232.13 255.755 1232.13 Q261.207 1232.13 263.915 1226.82 Q266.658 1221.47 266.658 1210.81 Q266.658 1200.12 263.915 1194.81 Q261.207 1189.46 255.755 1189.46 M255.755 1183.9 Q264.471 1183.9 269.054 1190.81 Q273.672 1197.69 273.672 1210.81 Q273.672 1223.9 269.054 1230.81 Q264.471 1237.69 255.755 1237.69 Q247.04 1237.69 242.422 1230.81 Q237.839 1223.9 237.839 1210.81 Q237.839 1197.69 242.422 1190.81 Q247.04 1183.9 255.755 1183.9 Z" fill="#000000" fill-rule="evenodd" fill-opacity="1" /><path clip-path="url(#clip670)" d="M300.998 1189.46 Q295.582 1189.46 292.838 1194.81 Q290.13 1200.12 290.13 1210.81 Q290.13 1221.47 292.838 1226.82 Q295.582 1232.13 300.998 1232.13 Q306.45 1232.13 309.158 1226.82 Q311.901 1221.47 311.901 1210.81 Q311.901 1200.12 309.158 1194.81 Q306.45 1189.46 300.998 1189.46 M300.998 1183.9 Q309.713 1183.9 314.297 1190.81 Q318.915 1197.69 318.915 1210.81 Q318.915 1223.9 314.297 1230.81 Q309.713 1237.69 300.998 1237.69 Q292.283 1237.69 287.665 1230.81 Q283.082 1223.9 283.082 1210.81 Q283.082 1197.69 287.665 1190.81 Q292.283 1183.9 300.998 1183.9 Z" fill="#000000" fill-rule="evenodd" fill-opacity="1" /><path clip-path="url(#clip670)" d="M135.86 883.076 L180.374 883.076 L180.374 888.979 L135.86 888.979 L135.86 883.076 Z" fill="#000000" fill-rule="evenodd" fill-opacity="1" /><path clip-path="url(#clip670)" d="M196.728 902.416 L208.186 902.416 L208.186 862.868 L195.721 865.368 L195.721 858.979 L208.117 856.479 L215.131 856.479 L215.131 902.416 L226.589 902.416 L226.589 908.319 L196.728 908.319 L196.728 902.416 Z" fill="#000000" fill-rule="evenodd" fill-opacity="1" /><path clip-path="url(#clip670)" d="M255.755 861.097 Q250.339 861.097 247.596 866.444 Q244.887 871.757 244.887 882.451 Q244.887 893.111 247.596 898.458 Q250.339 903.77 255.755 903.77 Q261.207 903.77 263.915 898.458 Q266.658 893.111 266.658 882.451 Q266.658 871.757 263.915 866.444 Q261.207 861.097 255.755 861.097 M255.755 855.541 Q264.471 855.541 269.054 862.451 Q273.672 869.326 273.672 882.451 Q273.672 895.541 269.054 902.451 Q264.471 909.326 255.755 909.326 Q247.04 909.326 242.422 902.451 Q237.839 895.541 237.839 882.451 Q237.839 869.326 242.422 862.451 Q247.04 855.541 255.755 855.541 Z" fill="#000000" fill-rule="evenodd" fill-opacity="1" /><path clip-path="url(#clip670)" d="M300.998 861.097 Q295.582 861.097 292.838 866.444 Q290.13 871.757 290.13 882.451 Q290.13 893.111 292.838 898.458 Q295.582 903.77 300.998 903.77 Q306.45 903.77 309.158 898.458 Q311.901 893.111 311.901 882.451 Q311.901 871.757 309.158 866.444 Q306.45 861.097 300.998 861.097 M300.998 855.541 Q309.713 855.541 314.297 862.451 Q318.915 869.326 318.915 882.451 Q318.915 895.541 314.297 902.451 Q309.713 909.326 300.998 909.326 Q292.283 909.326 287.665 902.451 Q283.082 895.541 283.082 882.451 Q283.082 869.326 287.665 862.451 Q292.283 855.541 300.998 855.541 Z" fill="#000000" fill-rule="evenodd" fill-opacity="1" /><path clip-path="url(#clip670)" d="M300.998 532.735 Q295.582 532.735 292.838 538.082 Q290.13 543.395 290.13 554.089 Q290.13 564.749 292.838 570.096 Q295.582 575.408 300.998 575.408 Q306.45 575.408 309.158 570.096 Q311.901 564.749 311.901 554.089 Q311.901 543.395 309.158 538.082 Q306.45 532.735 300.998 532.735 M300.998 527.18 Q309.713 527.18 314.297 534.089 Q318.915 540.964 318.915 554.089 Q318.915 567.179 314.297 574.089 Q309.713 580.964 300.998 580.964 Q292.283 580.964 287.665 574.089 Q283.082 567.179 283.082 554.089 Q283.082 540.964 287.665 534.089 Q292.283 527.18 300.998 527.18 Z" fill="#000000" fill-rule="evenodd" fill-opacity="1" /><path clip-path="url(#clip670)" d="M196.728 245.693 L208.186 245.693 L208.186 206.144 L195.721 208.644 L195.721 202.255 L208.117 199.755 L215.131 199.755 L215.131 245.693 L226.589 245.693 L226.589 251.595 L196.728 251.595 L196.728 245.693 Z" fill="#000000" fill-rule="evenodd" fill-opacity="1" /><path clip-path="url(#clip670)" d="M255.755 204.373 Q250.339 204.373 247.596 209.72 Q244.887 215.033 244.887 225.727 Q244.887 236.387 247.596 241.734 Q250.339 247.047 255.755 247.047 Q261.207 247.047 263.915 241.734 Q266.658 236.387 266.658 225.727 Q266.658 215.033 263.915 209.72 Q261.207 204.373 255.755 204.373 M255.755 198.818 Q264.471 198.818 269.054 205.727 Q273.672 212.602 273.672 225.727 Q273.672 238.818 269.054 245.727 Q264.471 252.602 255.755 252.602 Q247.04 252.602 242.422 245.727 Q237.839 238.818 237.839 225.727 Q237.839 212.602 242.422 205.727 Q247.04 198.818 255.755 198.818 Z" fill="#000000" fill-rule="evenodd" fill-opacity="1" /><path clip-path="url(#clip670)" d="M300.998 204.373 Q295.582 204.373 292.838 209.72 Q290.13 215.033 290.13 225.727 Q290.13 236.387 292.838 241.734 Q295.582 247.047 300.998 247.047 Q306.45 247.047 309.158 241.734 Q311.901 236.387 311.901 225.727 Q311.901 215.033 309.158 209.72 Q306.45 204.373 300.998 204.373 M300.998 198.818 Q309.713 198.818 314.297 205.727 Q318.915 212.602 318.915 225.727 Q318.915 238.818 314.297 245.727 Q309.713 252.602 300.998 252.602 Q292.283 252.602 287.665 245.727 Q283.082 238.818 283.082 225.727 Q283.082 212.602 287.665 205.727 Q292.283 198.818 300.998 198.818 Z" fill="#000000" fill-rule="evenodd" fill-opacity="1" /><path clip-path="url(#clip670)" d="M69.2631 936.488 L50.6984 936.488 L50.6984 951.766 L43.0132 951.766 L43.0132 927.229 L72.689 927.229 Q76.5316 932.646 78.5223 939.174 Q80.4667 945.701 80.4667 953.109 Q80.4667 969.312 71.0223 978.479 Q61.5317 987.599 44.6336 987.599 Q27.6892 987.599 18.2449 978.479 Q8.75416 969.312 8.75416 953.109 Q8.75416 946.349 10.4208 940.285 Q12.0875 934.174 15.3282 929.035 L25.2819 929.035 Q20.8837 934.22 18.6615 940.053 Q16.4393 945.886 16.4393 952.322 Q16.4393 965.007 23.5226 971.396 Q30.6059 977.738 44.6336 977.738 Q58.615 977.738 65.6983 971.396 Q72.7816 965.007 72.7816 952.322 Q72.7816 947.368 71.9483 943.479 Q71.0686 939.59 69.2631 936.488 Z" fill="#000000" fill-rule="evenodd" fill-opacity="1" /><path clip-path="url(#clip670)" d="M10.0042 910.146 L10.0042 896.211 L57.0409 878.572 L10.0042 860.841 L10.0042 846.906 L79.1242 846.906 L79.1242 856.026 L18.43 856.026 L65.8372 873.85 L65.8372 883.248 L18.43 901.072 L79.1242 901.072 L79.1242 910.146 L10.0042 910.146 Z" fill="#000000" fill-rule="evenodd" fill-opacity="1" /><path clip-path="url(#clip670)" d="M12.2727 786.906 L21.393 786.906 Q18.8467 792.23 17.5967 796.952 Q16.3467 801.674 16.3467 806.072 Q16.3467 813.711 19.3097 817.878 Q22.2726 821.998 27.7355 821.998 Q32.3189 821.998 34.68 819.267 Q36.9948 816.489 38.4299 808.804 L39.5873 803.156 Q41.5781 792.693 46.6243 787.739 Q51.6243 782.739 60.0502 782.739 Q70.0964 782.739 75.2816 789.498 Q80.4667 796.211 80.4667 809.221 Q80.4667 814.128 79.3556 819.683 Q78.2445 825.193 76.0686 831.119 L66.439 831.119 Q69.6335 825.424 71.2538 819.961 Q72.8742 814.498 72.8742 809.221 Q72.8742 801.211 69.7261 796.859 Q66.5779 792.508 60.7446 792.508 Q55.6521 792.508 52.7817 795.656 Q49.9114 798.758 48.4762 805.887 L47.3651 811.582 Q45.2817 822.045 40.8373 826.72 Q36.3929 831.396 28.4763 831.396 Q19.3097 831.396 14.0319 824.961 Q8.75416 818.48 8.75416 807.137 Q8.75416 802.276 9.63379 797.23 Q10.5134 792.184 12.2727 786.906 Z" fill="#000000" fill-rule="evenodd" fill-opacity="1" /><path clip-path="url(#clip670)" d="M10.0042 768.156 L10.0042 758.804 L71.2538 758.804 L71.2538 725.147 L79.1242 725.147 L79.1242 768.156 L10.0042 768.156 Z" fill="#000000" fill-rule="evenodd" fill-opacity="1" /><path clip-path="url(#clip670)" d="M7.1801 665.101 Q17.8282 671.305 28.2448 674.314 Q38.6614 677.323 49.3558 677.323 Q60.0502 677.323 70.5594 674.314 Q81.0223 671.258 91.6241 665.101 L91.6241 672.508 Q80.7445 679.453 70.2353 682.925 Q59.7261 686.351 49.3558 686.351 Q39.0318 686.351 28.5689 682.925 Q18.106 679.499 7.1801 672.508 L7.1801 665.101 Z" fill="#000000" fill-rule="evenodd" fill-opacity="1" /><path clip-path="url(#clip670)" d="M37.2262 608.203 Q31.4855 605.009 28.7541 600.564 Q26.0226 596.12 26.0226 590.101 Q26.0226 582 31.717 577.601 Q37.3651 573.203 47.828 573.203 L79.1242 573.203 L79.1242 581.768 L48.1058 581.768 Q40.6521 581.768 37.041 584.407 Q33.43 587.046 33.43 592.462 Q33.43 599.083 37.8281 602.925 Q42.2262 606.768 49.8188 606.768 L79.1242 606.768 L79.1242 615.333 L48.1058 615.333 Q40.6058 615.333 37.041 617.972 Q33.43 620.61 33.43 626.12 Q33.43 632.647 37.8744 636.49 Q42.2725 640.333 49.8188 640.333 L79.1242 640.333 L79.1242 648.897 L27.2726 648.897 L27.2726 640.333 L35.3281 640.333 Q30.5596 637.416 28.2911 633.342 Q26.0226 629.268 26.0226 623.666 Q26.0226 618.018 28.8929 614.083 Q31.7633 610.101 37.2262 608.203 Z" fill="#000000" fill-rule="evenodd" fill-opacity="1" /><path clip-path="url(#clip670)" d="M37.2262 515.842 Q31.4855 512.648 28.7541 508.204 Q26.0226 503.759 26.0226 497.741 Q26.0226 489.639 31.717 485.241 Q37.3651 480.843 47.828 480.843 L79.1242 480.843 L79.1242 489.407 L48.1058 489.407 Q40.6521 489.407 37.041 492.046 Q33.43 494.685 33.43 500.102 Q33.43 506.722 37.8281 510.565 Q42.2262 514.407 49.8188 514.407 L79.1242 514.407 L79.1242 522.972 L48.1058 522.972 Q40.6058 522.972 37.041 525.611 Q33.43 528.25 33.43 533.759 Q33.43 540.287 37.8744 544.129 Q42.2725 547.972 49.8188 547.972 L79.1242 547.972 L79.1242 556.537 L27.2726 556.537 L27.2726 547.972 L35.3281 547.972 Q30.5596 545.055 28.2911 540.981 Q26.0226 536.907 26.0226 531.305 Q26.0226 525.657 28.8929 521.722 Q31.7633 517.741 37.2262 515.842 Z" fill="#000000" fill-rule="evenodd" fill-opacity="1" /><path clip-path="url(#clip670)" d="M7.1801 465.195 L7.1801 457.787 Q18.106 450.843 28.5689 447.417 Q39.0318 443.945 49.3558 443.945 Q59.7261 443.945 70.2353 447.417 Q80.7445 450.843 91.6241 457.787 L91.6241 465.195 Q81.0223 459.037 70.5594 456.028 Q60.0502 452.972 49.3558 452.972 Q38.6614 452.972 28.2448 456.028 Q17.8282 459.037 7.1801 465.195 Z" fill="#000000" fill-rule="evenodd" fill-opacity="1" /><path clip-path="url(#clip672)" d="
M411.457 1203.78 L425.629 1329.38 L439.8 1331.83 L453.971 1346.46 L468.142 1314.53 L482.313 1332.85 L496.484 1308.62 L510.655 1323.54 L524.826 1314.07 L538.997 1301.6 
  L553.168 1313.92 L567.339 1296.42 L581.511 1298.91 L595.682 1294.77 L609.853 1296.98 L624.024 1288.18 L638.195 1277.69 L652.366 1277.95 L666.537 1297.45 L680.708 1268.86 
  L694.879 1284.07 L709.05 1268.18 L723.222 1257.53 L737.393 1250.58 L751.564 1273.69 L765.735 1264.3 L779.906 1246.54 L794.077 1255.03 L808.248 1261.34 L822.419 1245.43 
  L836.59 1223.96 L850.761 1235.27 L864.932 1240.17 L879.104 1222.28 L893.275 1222.47 L907.446 1210.34 L921.617 1206.36 L935.788 1218.28 L949.959 1197.9 L964.13 1206.12 
  L978.301 1174.15 L992.472 1187.88 L1006.64 1198.18 L1020.81 1194.18 L1034.99 1180.35 L1049.16 1151.62 L1063.33 1176.53 L1077.5 1187.81 L1091.67 1160.65 L1105.84 1177.72 
  L1120.01 1154.97 L1134.18 1150.49 L1148.35 1151.58 L1162.53 1147.59 L1176.7 1131.74 L1190.87 1129.25 L1205.04 1116.19 L1219.21 1127.42 L1233.38 1120.7 L1247.55 1117.62 
  L1261.72 1091.73 L1275.89 1105.47 L1290.07 1100.37 L1304.24 1105.25 L1318.41 1077.35 L1332.58 1092.47 L1346.75 1080.54 L1360.92 1059.61 L1375.09 1083.72 L1389.26 1075.38 
  L1403.43 1067.9 L1417.61 1040.29 L1431.78 1063.16 L1445.95 1048.98 L1460.12 1042.32 L1474.29 1034.92 L1488.46 1002.77 L1502.63 1000.33 L1516.8 1004.17 L1530.97 991.7 
  L1545.15 990.037 L1559.32 1001.61 L1573.49 970.854 L1587.66 987.31 L1601.83 977.541 L1616 987.396 L1630.17 966.709 L1644.34 956.398 L1658.51 964.44 L1672.68 939.998 
  L1686.86 940.353 L1701.03 948.918 L1715.2 927.834 L1729.37 917.252 L1743.54 926.582 L1757.71 908.033 L1771.88 900.011 L1786.05 903.072 L1800.22 897.492 L1814.4 875.854 
  L1828.57 868.849 L1842.74 862.295 L1856.91 874.465 L1871.08 861.719 L1885.25 856.508 L1899.42 821.822 L1913.59 821.806 L1927.76 824.68 L1941.94 814.291 L1956.11 798.152 
  L1970.28 818.956 L1984.45 798.639 L1998.62 806.9 L2012.79 772.835 L2026.96 766.323 L2041.13 756.285 L2055.3 767.532 L2069.48 741.211 L2083.65 738.574 L2097.82 747.594 
  L2111.99 755.457 L2126.16 737.449 L2140.33 710.056 L2154.5 686.676 L2168.67 708.565 L2182.84 702.549 L2197.02 697.951 L2211.19 667.144 L2225.36 655.187 L2239.53 655.706 
  L2253.7 684.217 L2267.87 663.675 L2282.04 621.801 L2296.21 623.897 L2296.21 85.0853 L2282.04 94.8915 L2267.87 109.902 L2253.7 128.127 L2239.53 134.767 L2225.36 145.752 
  L2211.19 117.117 L2197.02 130.135 L2182.84 152.485 L2168.67 173.134 L2154.5 159.171 L2140.33 171.811 L2126.16 192.098 L2111.99 196.545 L2097.82 217.537 L2083.65 186.565 
  L2069.48 219.229 L2055.3 223.778 L2041.13 214.442 L2026.96 243.777 L2012.79 242.117 L1998.62 238.984 L1984.45 246.893 L1970.28 252.646 L1956.11 260.272 L1941.94 273.022 
  L1927.76 280.787 L1913.59 292.117 L1899.42 306.737 L1885.25 301.745 L1871.08 297.969 L1856.91 311.438 L1842.74 313.434 L1828.57 350.614 L1814.4 322.623 L1800.22 344.142 
  L1786.05 359.71 L1771.88 370.124 L1757.71 378.63 L1743.54 362.577 L1729.37 370.165 L1715.2 384.707 L1701.03 389.571 L1686.86 380.475 L1672.68 399.453 L1658.51 414.021 
  L1644.34 425.783 L1630.17 428.802 L1616 408.377 L1601.83 448.271 L1587.66 443.592 L1573.49 428.521 L1559.32 448.914 L1545.15 466.212 L1530.97 489.333 L1516.8 452.574 
  L1502.63 469.126 L1488.46 479.898 L1474.29 467.125 L1460.12 499.726 L1445.95 509.345 L1431.78 501.24 L1417.61 500.556 L1403.43 482.962 L1389.26 511.711 L1375.09 525.338 
  L1360.92 530.761 L1346.75 533.48 L1332.58 549.079 L1318.41 525.773 L1304.24 534.425 L1290.07 534.68 L1275.89 564.121 L1261.72 562.735 L1247.55 582.361 L1233.38 569.229 
  L1219.21 580.732 L1205.04 575.571 L1190.87 579.435 L1176.7 598.352 L1162.53 594.356 L1148.35 599.088 L1134.18 607.236 L1120.01 608.67 L1105.84 614.194 L1091.67 627.439 
  L1077.5 626.835 L1063.33 624.198 L1049.16 631.986 L1034.99 627.357 L1020.81 646.349 L1006.64 668.363 L992.472 659.112 L978.301 653.061 L964.13 653.214 L949.959 650.079 
  L935.788 675.225 L921.617 654.529 L907.446 661.052 L893.275 673.581 L879.104 668.181 L864.932 699.307 L850.761 684.042 L836.59 689.391 L822.419 680.684 L808.248 692.084 
  L794.077 708.017 L779.906 703.202 L765.735 713.151 L751.564 724.638 L737.393 707.798 L723.222 703.339 L709.05 728.234 L694.879 737.937 L680.708 732.835 L666.537 751.86 
  L652.366 728.895 L638.195 750.507 L624.024 740.801 L609.853 740.762 L595.682 740.656 L581.511 743.292 L567.339 767.824 L553.168 761.005 L538.997 755.288 L524.826 775.265 
  L510.655 786.054 L496.484 766.595 L482.313 755.169 L468.142 787.468 L453.971 778.514 L439.8 761.406 L425.629 783.238 L411.457 918.953  Z
  " fill="#009af9" fill-rule="evenodd" fill-opacity="0.2"/>
<polyline clip-path="url(#clip672)" style="stroke:#009af9; stroke-linecap:round; stroke-linejoin:round; stroke-width:4; stroke-opacity:0.2; fill:none" points="
  411.457,1203.78 425.629,1329.38 439.8,1331.83 453.971,1346.46 468.142,1314.53 482.313,1332.85 496.484,1308.62 510.655,1323.54 524.826,1314.07 538.997,1301.6 
  553.168,1313.92 567.339,1296.42 581.511,1298.91 595.682,1294.77 609.853,1296.98 624.024,1288.18 638.195,1277.69 652.366,1277.95 666.537,1297.45 680.708,1268.86 
  694.879,1284.07 709.05,1268.18 723.222,1257.53 737.393,1250.58 751.564,1273.69 765.735,1264.3 779.906,1246.54 794.077,1255.03 808.248,1261.34 822.419,1245.43 
  836.59,1223.96 850.761,1235.27 864.932,1240.17 879.104,1222.28 893.275,1222.47 907.446,1210.34 921.617,1206.36 935.788,1218.28 949.959,1197.9 964.13,1206.12 
  978.301,1174.15 992.472,1187.88 1006.64,1198.18 1020.81,1194.18 1034.99,1180.35 1049.16,1151.62 1063.33,1176.53 1077.5,1187.81 1091.67,1160.65 1105.84,1177.72 
  1120.01,1154.97 1134.18,1150.49 1148.35,1151.58 1162.53,1147.59 1176.7,1131.74 1190.87,1129.25 1205.04,1116.19 1219.21,1127.42 1233.38,1120.7 1247.55,1117.62 
  1261.72,1091.73 1275.89,1105.47 1290.07,1100.37 1304.24,1105.25 1318.41,1077.35 1332.58,1092.47 1346.75,1080.54 1360.92,1059.61 1375.09,1083.72 1389.26,1075.38 
  1403.43,1067.9 1417.61,1040.29 1431.78,1063.16 1445.95,1048.98 1460.12,1042.32 1474.29,1034.92 1488.46,1002.77 1502.63,1000.33 1516.8,1004.17 1530.97,991.7 
  1545.15,990.037 1559.32,1001.61 1573.49,970.854 1587.66,987.31 1601.83,977.541 1616,987.396 1630.17,966.709 1644.34,956.398 1658.51,964.44 1672.68,939.998 
  1686.86,940.353 1701.03,948.918 1715.2,927.834 1729.37,917.252 1743.54,926.582 1757.71,908.033 1771.88,900.011 1786.05,903.072 1800.22,897.492 1814.4,875.854 
  1828.57,868.849 1842.74,862.295 1856.91,874.465 1871.08,861.719 1885.25,856.508 1899.42,821.822 1913.59,821.806 1927.76,824.68 1941.94,814.291 1956.11,798.152 
  1970.28,818.956 1984.45,798.639 1998.62,806.9 2012.79,772.835 2026.96,766.323 2041.13,756.285 2055.3,767.532 2069.48,741.211 2083.65,738.574 2097.82,747.594 
  2111.99,755.457 2126.16,737.449 2140.33,710.056 2154.5,686.676 2168.67,708.565 2182.84,702.549 2197.02,697.951 2211.19,667.144 2225.36,655.187 2239.53,655.706 
  2253.7,684.217 2267.87,663.675 2282.04,621.801 2296.21,623.897 
  "/>
<circle clip-path="url(#clip672)" cx="411.457" cy="1075.15" r="14.4" fill="#000000" fill-rule="evenodd" fill-opacity="1" stroke="none"/>
<circle clip-path="url(#clip672)" cx="425.629" cy="1056.76" r="14.4" fill="#000000" fill-rule="evenodd" fill-opacity="1" stroke="none"/>
<circle clip-path="url(#clip672)" cx="439.8" cy="1111.92" r="14.4" fill="#000000" fill-rule="evenodd" fill-opacity="1" stroke="none"/>
<circle clip-path="url(#clip672)" cx="453.971" cy="1094.52" r="14.4" fill="#000000" fill-rule="evenodd" fill-opacity="1" stroke="none"/>
<circle clip-path="url(#clip672)" cx="468.142" cy="1025.89" r="14.4" fill="#000000" fill-rule="evenodd" fill-opacity="1" stroke="none"/>
<circle clip-path="url(#clip672)" cx="482.313" cy="1030.82" r="14.4" fill="#000000" fill-rule="evenodd" fill-opacity="1" stroke="none"/>
<circle clip-path="url(#clip672)" cx="496.484" cy="1038.7" r="14.4" fill="#000000" fill-rule="evenodd" fill-opacity="1" stroke="none"/>
<circle clip-path="url(#clip672)" cx="510.655" cy="1057.09" r="14.4" fill="#000000" fill-rule="evenodd" fill-opacity="1" stroke="none"/>
<circle clip-path="url(#clip672)" cx="524.826" cy="1050.19" r="14.4" fill="#000000" fill-rule="evenodd" fill-opacity="1" stroke="none"/>
<circle clip-path="url(#clip672)" cx="538.997" cy="1044.94" r="14.4" fill="#000000" fill-rule="evenodd" fill-opacity="1" stroke="none"/>
<circle clip-path="url(#clip672)" cx="553.168" cy="1038.37" r="14.4" fill="#000000" fill-rule="evenodd" fill-opacity="1" stroke="none"/>
<circle clip-path="url(#clip672)" cx="567.339" cy="1043.95" r="14.4" fill="#000000" fill-rule="evenodd" fill-opacity="1" stroke="none"/>
<circle clip-path="url(#clip672)" cx="581.511" cy="1033.45" r="14.4" fill="#000000" fill-rule="evenodd" fill-opacity="1" stroke="none"/>
<circle clip-path="url(#clip672)" cx="595.682" cy="1018.01" r="14.4" fill="#000000" fill-rule="evenodd" fill-opacity="1" stroke="none"/>
<circle clip-path="url(#clip672)" cx="609.853" cy="1049.86" r="14.4" fill="#000000" fill-rule="evenodd" fill-opacity="1" stroke="none"/>
<circle clip-path="url(#clip672)" cx="624.024" cy="1011.12" r="14.4" fill="#000000" fill-rule="evenodd" fill-opacity="1" stroke="none"/>
<circle clip-path="url(#clip672)" cx="638.195" cy="1036.07" r="14.4" fill="#000000" fill-rule="evenodd" fill-opacity="1" stroke="none"/>
<circle clip-path="url(#clip672)" cx="652.366" cy="1019" r="14.4" fill="#000000" fill-rule="evenodd" fill-opacity="1" stroke="none"/>
<circle clip-path="url(#clip672)" cx="666.537" cy="988.131" r="14.4" fill="#000000" fill-rule="evenodd" fill-opacity="1" stroke="none"/>
<circle clip-path="url(#clip672)" cx="680.708" cy="963.504" r="14.4" fill="#000000" fill-rule="evenodd" fill-opacity="1" stroke="none"/>
<circle clip-path="url(#clip672)" cx="694.879" cy="981.236" r="14.4" fill="#000000" fill-rule="evenodd" fill-opacity="1" stroke="none"/>
<circle clip-path="url(#clip672)" cx="709.05" cy="982.549" r="14.4" fill="#000000" fill-rule="evenodd" fill-opacity="1" stroke="none"/>
<circle clip-path="url(#clip672)" cx="723.222" cy="967.445" r="14.4" fill="#000000" fill-rule="evenodd" fill-opacity="1" stroke="none"/>
<circle clip-path="url(#clip672)" cx="737.393" cy="941.176" r="14.4" fill="#000000" fill-rule="evenodd" fill-opacity="1" stroke="none"/>
<circle clip-path="url(#clip672)" cx="751.564" cy="974.997" r="14.4" fill="#000000" fill-rule="evenodd" fill-opacity="1" stroke="none"/>
<circle clip-path="url(#clip672)" cx="765.735" cy="993.057" r="14.4" fill="#000000" fill-rule="evenodd" fill-opacity="1" stroke="none"/>
<circle clip-path="url(#clip672)" cx="779.906" cy="970.728" r="14.4" fill="#000000" fill-rule="evenodd" fill-opacity="1" stroke="none"/>
<circle clip-path="url(#clip672)" cx="794.077" cy="975.325" r="14.4" fill="#000000" fill-rule="evenodd" fill-opacity="1" stroke="none"/>
<circle clip-path="url(#clip672)" cx="808.248" cy="983.534" r="14.4" fill="#000000" fill-rule="evenodd" fill-opacity="1" stroke="none"/>
<circle clip-path="url(#clip672)" cx="822.419" cy="968.758" r="14.4" fill="#000000" fill-rule="evenodd" fill-opacity="1" stroke="none"/>
<circle clip-path="url(#clip672)" cx="836.59" cy="969.086" r="14.4" fill="#000000" fill-rule="evenodd" fill-opacity="1" stroke="none"/>
<circle clip-path="url(#clip672)" cx="850.761" cy="941.832" r="14.4" fill="#000000" fill-rule="evenodd" fill-opacity="1" stroke="none"/>
<circle clip-path="url(#clip672)" cx="864.932" cy="952.012" r="14.4" fill="#000000" fill-rule="evenodd" fill-opacity="1" stroke="none"/>
<circle clip-path="url(#clip672)" cx="879.104" cy="946.101" r="14.4" fill="#000000" fill-rule="evenodd" fill-opacity="1" stroke="none"/>
<circle clip-path="url(#clip672)" cx="893.275" cy="925.414" r="14.4" fill="#000000" fill-rule="evenodd" fill-opacity="1" stroke="none"/>
<circle clip-path="url(#clip672)" cx="907.446" cy="899.474" r="14.4" fill="#000000" fill-rule="evenodd" fill-opacity="1" stroke="none"/>
<circle clip-path="url(#clip672)" cx="921.617" cy="905.713" r="14.4" fill="#000000" fill-rule="evenodd" fill-opacity="1" stroke="none"/>
<circle clip-path="url(#clip672)" cx="935.788" cy="920.489" r="14.4" fill="#000000" fill-rule="evenodd" fill-opacity="1" stroke="none"/>
<circle clip-path="url(#clip672)" cx="949.959" cy="925.743" r="14.4" fill="#000000" fill-rule="evenodd" fill-opacity="1" stroke="none"/>
<circle clip-path="url(#clip672)" cx="964.13" cy="920.489" r="14.4" fill="#000000" fill-rule="evenodd" fill-opacity="1" stroke="none"/>
<circle clip-path="url(#clip672)" cx="978.301" cy="916.22" r="14.4" fill="#000000" fill-rule="evenodd" fill-opacity="1" stroke="none"/>
<circle clip-path="url(#clip672)" cx="992.472" cy="909.324" r="14.4" fill="#000000" fill-rule="evenodd" fill-opacity="1" stroke="none"/>
<circle clip-path="url(#clip672)" cx="1006.64" cy="912.28" r="14.4" fill="#000000" fill-rule="evenodd" fill-opacity="1" stroke="none"/>
<circle clip-path="url(#clip672)" cx="1020.81" cy="908.339" r="14.4" fill="#000000" fill-rule="evenodd" fill-opacity="1" stroke="none"/>
<circle clip-path="url(#clip672)" cx="1034.99" cy="932.31" r="14.4" fill="#000000" fill-rule="evenodd" fill-opacity="1" stroke="none"/>
<circle clip-path="url(#clip672)" cx="1049.16" cy="925.743" r="14.4" fill="#000000" fill-rule="evenodd" fill-opacity="1" stroke="none"/>
<circle clip-path="url(#clip672)" cx="1063.33" cy="904.399" r="14.4" fill="#000000" fill-rule="evenodd" fill-opacity="1" stroke="none"/>
<circle clip-path="url(#clip672)" cx="1077.5" cy="908.011" r="14.4" fill="#000000" fill-rule="evenodd" fill-opacity="1" stroke="none"/>
<circle clip-path="url(#clip672)" cx="1091.67" cy="920.817" r="14.4" fill="#000000" fill-rule="evenodd" fill-opacity="1" stroke="none"/>
<circle clip-path="url(#clip672)" cx="1105.84" cy="916.22" r="14.4" fill="#000000" fill-rule="evenodd" fill-opacity="1" stroke="none"/>
<circle clip-path="url(#clip672)" cx="1120.01" cy="903.086" r="14.4" fill="#000000" fill-rule="evenodd" fill-opacity="1" stroke="none"/>
<circle clip-path="url(#clip672)" cx="1134.18" cy="904.399" r="14.4" fill="#000000" fill-rule="evenodd" fill-opacity="1" stroke="none"/>
<circle clip-path="url(#clip672)" cx="1148.35" cy="885.682" r="14.4" fill="#000000" fill-rule="evenodd" fill-opacity="1" stroke="none"/>
<circle clip-path="url(#clip672)" cx="1162.53" cy="871.563" r="14.4" fill="#000000" fill-rule="evenodd" fill-opacity="1" stroke="none"/>
<circle clip-path="url(#clip672)" cx="1176.7" cy="889.294" r="14.4" fill="#000000" fill-rule="evenodd" fill-opacity="1" stroke="none"/>
<circle clip-path="url(#clip672)" cx="1190.87" cy="870.906" r="14.4" fill="#000000" fill-rule="evenodd" fill-opacity="1" stroke="none"/>
<circle clip-path="url(#clip672)" cx="1205.04" cy="883.712" r="14.4" fill="#000000" fill-rule="evenodd" fill-opacity="1" stroke="none"/>
<circle clip-path="url(#clip672)" cx="1219.21" cy="864.996" r="14.4" fill="#000000" fill-rule="evenodd" fill-opacity="1" stroke="none"/>
<circle clip-path="url(#clip672)" cx="1233.38" cy="856.458" r="14.4" fill="#000000" fill-rule="evenodd" fill-opacity="1" stroke="none"/>
<circle clip-path="url(#clip672)" cx="1247.55" cy="839.383" r="14.4" fill="#000000" fill-rule="evenodd" fill-opacity="1" stroke="none"/>
<circle clip-path="url(#clip672)" cx="1261.72" cy="856.787" r="14.4" fill="#000000" fill-rule="evenodd" fill-opacity="1" stroke="none"/>
<circle clip-path="url(#clip672)" cx="1275.89" cy="816.726" r="14.4" fill="#000000" fill-rule="evenodd" fill-opacity="1" stroke="none"/>
<circle clip-path="url(#clip672)" cx="1290.07" cy="816.726" r="14.4" fill="#000000" fill-rule="evenodd" fill-opacity="1" stroke="none"/>
<circle clip-path="url(#clip672)" cx="1304.24" cy="816.726" r="14.4" fill="#000000" fill-rule="evenodd" fill-opacity="1" stroke="none"/>
<circle clip-path="url(#clip672)" cx="1318.41" cy="837.742" r="14.4" fill="#000000" fill-rule="evenodd" fill-opacity="1" stroke="none"/>
<circle clip-path="url(#clip672)" cx="1332.58" cy="828.547" r="14.4" fill="#000000" fill-rule="evenodd" fill-opacity="1" stroke="none"/>
<circle clip-path="url(#clip672)" cx="1346.75" cy="803.92" r="14.4" fill="#000000" fill-rule="evenodd" fill-opacity="1" stroke="none"/>
<circle clip-path="url(#clip672)" cx="1360.92" cy="793.741" r="14.4" fill="#000000" fill-rule="evenodd" fill-opacity="1" stroke="none"/>
<circle clip-path="url(#clip672)" cx="1375.09" cy="777.98" r="14.4" fill="#000000" fill-rule="evenodd" fill-opacity="1" stroke="none"/>
<circle clip-path="url(#clip672)" cx="1389.26" cy="782.248" r="14.4" fill="#000000" fill-rule="evenodd" fill-opacity="1" stroke="none"/>
<circle clip-path="url(#clip672)" cx="1403.43" cy="775.025" r="14.4" fill="#000000" fill-rule="evenodd" fill-opacity="1" stroke="none"/>
<circle clip-path="url(#clip672)" cx="1417.61" cy="743.83" r="14.4" fill="#000000" fill-rule="evenodd" fill-opacity="1" stroke="none"/>
<circle clip-path="url(#clip672)" cx="1431.78" cy="752.368" r="14.4" fill="#000000" fill-rule="evenodd" fill-opacity="1" stroke="none"/>
<circle clip-path="url(#clip672)" cx="1445.95" cy="737.92" r="14.4" fill="#000000" fill-rule="evenodd" fill-opacity="1" stroke="none"/>
<circle clip-path="url(#clip672)" cx="1460.12" cy="747.442" r="14.4" fill="#000000" fill-rule="evenodd" fill-opacity="1" stroke="none"/>
<circle clip-path="url(#clip672)" cx="1474.29" cy="744.487" r="14.4" fill="#000000" fill-rule="evenodd" fill-opacity="1" stroke="none"/>
<circle clip-path="url(#clip672)" cx="1488.46" cy="761.233" r="14.4" fill="#000000" fill-rule="evenodd" fill-opacity="1" stroke="none"/>
<circle clip-path="url(#clip672)" cx="1502.63" cy="717.233" r="14.4" fill="#000000" fill-rule="evenodd" fill-opacity="1" stroke="none"/>
<circle clip-path="url(#clip672)" cx="1516.8" cy="712.636" r="14.4" fill="#000000" fill-rule="evenodd" fill-opacity="1" stroke="none"/>
<circle clip-path="url(#clip672)" cx="1530.97" cy="711.651" r="14.4" fill="#000000" fill-rule="evenodd" fill-opacity="1" stroke="none"/>
<circle clip-path="url(#clip672)" cx="1545.15" cy="699.501" r="14.4" fill="#000000" fill-rule="evenodd" fill-opacity="1" stroke="none"/>
<circle clip-path="url(#clip672)" cx="1559.32" cy="679.143" r="14.4" fill="#000000" fill-rule="evenodd" fill-opacity="1" stroke="none"/>
<circle clip-path="url(#clip672)" cx="1573.49" cy="696.218" r="14.4" fill="#000000" fill-rule="evenodd" fill-opacity="1" stroke="none"/>
<circle clip-path="url(#clip672)" cx="1587.66" cy="701.471" r="14.4" fill="#000000" fill-rule="evenodd" fill-opacity="1" stroke="none"/>
<circle clip-path="url(#clip672)" cx="1601.83" cy="727.412" r="14.4" fill="#000000" fill-rule="evenodd" fill-opacity="1" stroke="none"/>
<circle clip-path="url(#clip672)" cx="1616" cy="690.636" r="14.4" fill="#000000" fill-rule="evenodd" fill-opacity="1" stroke="none"/>
<circle clip-path="url(#clip672)" cx="1630.17" cy="708.367" r="14.4" fill="#000000" fill-rule="evenodd" fill-opacity="1" stroke="none"/>
<circle clip-path="url(#clip672)" cx="1644.34" cy="703.77" r="14.4" fill="#000000" fill-rule="evenodd" fill-opacity="1" stroke="none"/>
<circle clip-path="url(#clip672)" cx="1658.51" cy="701.143" r="14.4" fill="#000000" fill-rule="evenodd" fill-opacity="1" stroke="none"/>
<circle clip-path="url(#clip672)" cx="1672.68" cy="678.815" r="14.4" fill="#000000" fill-rule="evenodd" fill-opacity="1" stroke="none"/>
<circle clip-path="url(#clip672)" cx="1686.86" cy="685.053" r="14.4" fill="#000000" fill-rule="evenodd" fill-opacity="1" stroke="none"/>
<circle clip-path="url(#clip672)" cx="1701.03" cy="667.979" r="14.4" fill="#000000" fill-rule="evenodd" fill-opacity="1" stroke="none"/>
<circle clip-path="url(#clip672)" cx="1715.2" cy="638.098" r="14.4" fill="#000000" fill-rule="evenodd" fill-opacity="1" stroke="none"/>
<circle clip-path="url(#clip672)" cx="1729.37" cy="657.799" r="14.4" fill="#000000" fill-rule="evenodd" fill-opacity="1" stroke="none"/>
<circle clip-path="url(#clip672)" cx="1743.54" cy="618.724" r="14.4" fill="#000000" fill-rule="evenodd" fill-opacity="1" stroke="none"/>
<circle clip-path="url(#clip672)" cx="1757.71" cy="623.978" r="14.4" fill="#000000" fill-rule="evenodd" fill-opacity="1" stroke="none"/>
<circle clip-path="url(#clip672)" cx="1771.88" cy="627.262" r="14.4" fill="#000000" fill-rule="evenodd" fill-opacity="1" stroke="none"/>
<circle clip-path="url(#clip672)" cx="1786.05" cy="632.844" r="14.4" fill="#000000" fill-rule="evenodd" fill-opacity="1" stroke="none"/>
<circle clip-path="url(#clip672)" cx="1800.22" cy="611.829" r="14.4" fill="#000000" fill-rule="evenodd" fill-opacity="1" stroke="none"/>
<circle clip-path="url(#clip672)" cx="1814.4" cy="627.918" r="14.4" fill="#000000" fill-rule="evenodd" fill-opacity="1" stroke="none"/>
<circle clip-path="url(#clip672)" cx="1828.57" cy="608.217" r="14.4" fill="#000000" fill-rule="evenodd" fill-opacity="1" stroke="none"/>
<circle clip-path="url(#clip672)" cx="1842.74" cy="567.5" r="14.4" fill="#000000" fill-rule="evenodd" fill-opacity="1" stroke="none"/>
<circle clip-path="url(#clip672)" cx="1856.91" cy="586.545" r="14.4" fill="#000000" fill-rule="evenodd" fill-opacity="1" stroke="none"/>
<circle clip-path="url(#clip672)" cx="1871.08" cy="558.962" r="14.4" fill="#000000" fill-rule="evenodd" fill-opacity="1" stroke="none"/>
<circle clip-path="url(#clip672)" cx="1885.25" cy="561.918" r="14.4" fill="#000000" fill-rule="evenodd" fill-opacity="1" stroke="none"/>
<circle clip-path="url(#clip672)" cx="1899.42" cy="595.739" r="14.4" fill="#000000" fill-rule="evenodd" fill-opacity="1" stroke="none"/>
<circle clip-path="url(#clip672)" cx="1913.59" cy="593.769" r="14.4" fill="#000000" fill-rule="evenodd" fill-opacity="1" stroke="none"/>
<circle clip-path="url(#clip672)" cx="1927.76" cy="591.799" r="14.4" fill="#000000" fill-rule="evenodd" fill-opacity="1" stroke="none"/>
<circle clip-path="url(#clip672)" cx="1941.94" cy="576.366" r="14.4" fill="#000000" fill-rule="evenodd" fill-opacity="1" stroke="none"/>
<circle clip-path="url(#clip672)" cx="1956.11" cy="561.589" r="14.4" fill="#000000" fill-rule="evenodd" fill-opacity="1" stroke="none"/>
<circle clip-path="url(#clip672)" cx="1970.28" cy="554.037" r="14.4" fill="#000000" fill-rule="evenodd" fill-opacity="1" stroke="none"/>
<circle clip-path="url(#clip672)" cx="1984.45" cy="545.828" r="14.4" fill="#000000" fill-rule="evenodd" fill-opacity="1" stroke="none"/>
<circle clip-path="url(#clip672)" cx="1998.62" cy="543.529" r="14.4" fill="#000000" fill-rule="evenodd" fill-opacity="1" stroke="none"/>
<circle clip-path="url(#clip672)" cx="2012.79" cy="549.44" r="14.4" fill="#000000" fill-rule="evenodd" fill-opacity="1" stroke="none"/>
<circle clip-path="url(#clip672)" cx="2026.96" cy="532.365" r="14.4" fill="#000000" fill-rule="evenodd" fill-opacity="1" stroke="none"/>
<circle clip-path="url(#clip672)" cx="2041.13" cy="522.843" r="14.4" fill="#000000" fill-rule="evenodd" fill-opacity="1" stroke="none"/>
<circle clip-path="url(#clip672)" cx="2055.3" cy="509.38" r="14.4" fill="#000000" fill-rule="evenodd" fill-opacity="1" stroke="none"/>
<circle clip-path="url(#clip672)" cx="2069.48" cy="486.395" r="14.4" fill="#000000" fill-rule="evenodd" fill-opacity="1" stroke="none"/>
<circle clip-path="url(#clip672)" cx="2083.65" cy="518.902" r="14.4" fill="#000000" fill-rule="evenodd" fill-opacity="1" stroke="none"/>
<circle clip-path="url(#clip672)" cx="2097.82" cy="490.992" r="14.4" fill="#000000" fill-rule="evenodd" fill-opacity="1" stroke="none"/>
<circle clip-path="url(#clip672)" cx="2111.99" cy="486.723" r="14.4" fill="#000000" fill-rule="evenodd" fill-opacity="1" stroke="none"/>
<circle clip-path="url(#clip672)" cx="2126.16" cy="468.663" r="14.4" fill="#000000" fill-rule="evenodd" fill-opacity="1" stroke="none"/>
<circle clip-path="url(#clip672)" cx="2140.33" cy="460.782" r="14.4" fill="#000000" fill-rule="evenodd" fill-opacity="1" stroke="none"/>
<circle clip-path="url(#clip672)" cx="2154.5" cy="430.573" r="14.4" fill="#000000" fill-rule="evenodd" fill-opacity="1" stroke="none"/>
<circle clip-path="url(#clip672)" cx="2168.67" cy="431.886" r="14.4" fill="#000000" fill-rule="evenodd" fill-opacity="1" stroke="none"/>
<circle clip-path="url(#clip672)" cx="2182.84" cy="431.558" r="14.4" fill="#000000" fill-rule="evenodd" fill-opacity="1" stroke="none"/>
<circle clip-path="url(#clip672)" cx="2197.02" cy="417.439" r="14.4" fill="#000000" fill-rule="evenodd" fill-opacity="1" stroke="none"/>
<circle clip-path="url(#clip672)" cx="2211.19" cy="411.2" r="14.4" fill="#000000" fill-rule="evenodd" fill-opacity="1" stroke="none"/>
<circle clip-path="url(#clip672)" cx="2225.36" cy="382.632" r="14.4" fill="#000000" fill-rule="evenodd" fill-opacity="1" stroke="none"/>
<circle clip-path="url(#clip672)" cx="2239.53" cy="363.587" r="14.4" fill="#000000" fill-rule="evenodd" fill-opacity="1" stroke="none"/>
<circle clip-path="url(#clip672)" cx="2253.7" cy="338.303" r="14.4" fill="#000000" fill-rule="evenodd" fill-opacity="1" stroke="none"/>
<circle clip-path="url(#clip672)" cx="2267.87" cy="333.05" r="14.4" fill="#000000" fill-rule="evenodd" fill-opacity="1" stroke="none"/>
<circle clip-path="url(#clip672)" cx="2282.04" cy="304.154" r="14.4" fill="#000000" fill-rule="evenodd" fill-opacity="1" stroke="none"/>
<circle clip-path="url(#clip672)" cx="2296.21" cy="331.736" r="14.4" fill="#000000" fill-rule="evenodd" fill-opacity="1" stroke="none"/>
<polyline clip-path="url(#clip672)" style="stroke:#ff0000; stroke-linecap:round; stroke-linejoin:round; stroke-width:12; stroke-opacity:1; fill:none" points="
  411.457,1059.54 425.629,1057.01 439.8,1054.45 453.971,1051.84 468.142,1049.19 482.313,1046.49 496.484,1043.76 510.655,1040.98 524.826,1038.17 538.997,1035.31 
  553.168,1032.41 567.339,1029.47 581.511,1026.49 595.682,1023.47 609.853,1020.41 624.024,1017.31 638.195,1014.16 652.366,1010.98 666.537,1007.75 680.708,1004.48 
  694.879,1001.17 709.05,997.819 723.222,994.427 737.393,990.994 751.564,987.52 765.735,984.004 779.906,980.447 794.077,976.85 808.248,973.211 822.419,969.531 
  836.59,965.809 850.761,962.047 864.932,958.243 879.104,954.399 893.275,950.513 907.446,946.586 921.617,942.618 935.788,938.608 949.959,934.558 964.13,930.466 
  978.301,926.333 992.472,922.159 1006.64,917.944 1020.81,913.688 1034.99,909.39 1049.16,905.052 1063.33,900.672 1077.5,896.251 1091.67,891.789 1105.84,887.285 
  1120.01,882.741 1134.18,878.155 1148.35,873.529 1162.53,868.861 1176.7,864.152 1190.87,859.401 1205.04,854.61 1219.21,849.777 1233.38,844.904 1247.55,839.989 
  1261.72,835.033 1275.89,830.036 1290.07,824.997 1304.24,819.918 1318.41,814.797 1332.58,809.635 1346.75,804.432 1360.92,799.188 1375.09,793.903 1389.26,788.576 
  1403.43,783.209 1417.61,777.8 1431.78,772.35 1445.95,766.859 1460.12,761.327 1474.29,755.753 1488.46,750.139 1502.63,744.483 1516.8,738.786 1530.97,733.048 
  1545.15,727.269 1559.32,721.448 1573.49,715.587 1587.66,709.684 1601.83,703.74 1616,697.755 1630.17,691.729 1644.34,685.662 1658.51,679.553 1672.68,673.403 
  1686.86,667.213 1701.03,660.981 1715.2,654.707 1729.37,648.393 1743.54,642.038 1757.71,635.641 1771.88,629.203 1786.05,622.724 1800.22,616.204 1814.4,609.643 
  1828.57,603.041 1842.74,596.397 1856.91,589.712 1871.08,582.986 1885.25,576.219 1899.42,569.411 1913.59,562.562 1927.76,555.671 1941.94,548.74 1956.11,541.767 
  1970.28,534.753 1984.45,527.697 1998.62,520.601 2012.79,513.464 2026.96,506.285 2041.13,499.065 2055.3,491.804 2069.48,484.502 2083.65,477.159 2097.82,469.774 
  2111.99,462.349 2126.16,454.882 2140.33,447.374 2154.5,439.825 2168.67,432.235 2182.84,424.603 2197.02,416.931 2211.19,409.217 2225.36,401.462 2239.53,393.666 
  2253.7,385.829 2267.87,377.951 2282.04,370.031 2296.21,362.07 
  "/>
<path clip-path="url(#clip670)" d="
M421.509 454.693 L1567.46 454.693 L1567.46 91.8126 L421.509 91.8126  Z
  " fill="#ffffff" fill-rule="evenodd" fill-opacity="1"/>
<polyline clip-path="url(#clip670)" style="stroke:#000000; stroke-linecap:round; stroke-linejoin:round; stroke-width:4; stroke-opacity:1; fill:none" points="
  421.509,454.693 1567.46,454.693 1567.46,91.8126 421.509,91.8126 421.509,454.693 
  "/>
<path clip-path="url(#clip670)" d="
M443.708 218.821 L576.897 218.821 L576.897 146.245 L443.708 146.245 L443.708 218.821  Z
  " fill="#009af9" fill-rule="evenodd" fill-opacity="0.2"/>
<polyline clip-path="url(#clip670)" style="stroke:#009af9; stroke-linecap:round; stroke-linejoin:round; stroke-width:7; stroke-opacity:0.2; fill:none" points="
  443.708,146.245 576.897,146.245 
  "/>
<path clip-path="url(#clip670)" d="M602.984 211.517 L602.984 204.063 Q606.063 205.522 609.223 206.291 Q612.382 207.061 615.42 207.061 Q623.522 207.061 627.776 201.633 Q632.07 196.164 632.677 185.064 Q630.328 188.548 626.722 190.412 Q623.117 192.275 618.742 192.275 Q609.668 192.275 604.361 186.806 Q599.095 181.297 599.095 171.777 Q599.095 162.46 604.605 156.83 Q610.114 151.199 619.269 151.199 Q629.761 151.199 635.27 159.26 Q640.82 167.281 640.82 182.593 Q640.82 196.893 634.014 205.44 Q627.249 213.947 615.785 213.947 Q612.706 213.947 609.547 213.34 Q606.387 212.732 602.984 211.517 M619.269 185.875 Q624.778 185.875 627.978 182.107 Q631.219 178.34 631.219 171.777 Q631.219 165.256 627.978 161.488 Q624.778 157.68 619.269 157.68 Q613.76 157.68 610.519 161.488 Q607.319 165.256 607.319 171.777 Q607.319 178.34 610.519 182.107 Q613.76 185.875 619.269 185.875 Z" fill="#000000" fill-rule="evenodd" fill-opacity="1" /><path clip-path="url(#clip670)" d="M655.605 152.293 L687.729 152.293 L687.729 159.179 L663.1 159.179 L663.1 174.005 Q664.882 173.398 666.664 173.114 Q668.447 172.79 670.229 172.79 Q680.356 172.79 686.271 178.34 Q692.185 183.89 692.185 193.369 Q692.185 203.131 686.109 208.56 Q680.032 213.947 668.973 213.947 Q665.166 213.947 661.196 213.299 Q657.266 212.651 653.053 211.355 L653.053 203.131 Q656.699 205.116 660.588 206.089 Q664.477 207.061 668.811 207.061 Q675.819 207.061 679.911 203.375 Q684.002 199.688 684.002 193.369 Q684.002 187.049 679.911 183.363 Q675.819 179.677 668.811 179.677 Q665.53 179.677 662.249 180.406 Q659.008 181.135 655.605 182.674 L655.605 152.293 Z" fill="#000000" fill-rule="evenodd" fill-opacity="1" /><path clip-path="url(#clip670)" d="M759.754 186.158 Q756.23 186.158 754.204 189.156 Q752.219 192.154 752.219 197.501 Q752.219 202.767 754.204 205.805 Q756.23 208.803 759.754 208.803 Q763.197 208.803 765.182 205.805 Q767.208 202.767 767.208 197.501 Q767.208 192.194 765.182 189.196 Q763.197 186.158 759.754 186.158 M759.754 181.014 Q766.155 181.014 769.922 185.47 Q773.689 189.926 773.689 197.501 Q773.689 205.076 769.881 209.532 Q766.114 213.947 759.754 213.947 Q753.273 213.947 749.505 209.532 Q745.738 205.076 745.738 197.501 Q745.738 189.885 749.505 185.47 Q753.313 181.014 759.754 181.014 M717.949 156.344 Q714.465 156.344 712.44 159.382 Q710.455 162.379 710.455 167.646 Q710.455 172.993 712.44 175.99 Q714.425 178.988 717.949 178.988 Q721.473 178.988 723.458 175.99 Q725.484 172.993 725.484 167.646 Q725.484 162.42 723.458 159.382 Q721.433 156.344 717.949 156.344 M754.529 151.199 L761.01 151.199 L723.175 213.947 L716.693 213.947 L754.529 151.199 M717.949 151.199 Q724.349 151.199 728.157 155.655 Q731.965 160.07 731.965 167.646 Q731.965 175.302 728.157 179.717 Q724.39 184.133 717.949 184.133 Q711.508 184.133 707.741 179.717 Q704.014 175.261 704.014 167.646 Q704.014 160.111 707.781 155.655 Q711.548 151.199 717.949 151.199 Z" fill="#000000" fill-rule="evenodd" fill-opacity="1" /><path clip-path="url(#clip670)" d="M820.963 183.89 L820.963 206.048 L834.088 206.048 Q840.691 206.048 843.851 203.334 Q847.051 200.579 847.051 194.949 Q847.051 189.277 843.851 186.604 Q840.691 183.89 834.088 183.89 L820.963 183.89 M820.963 159.017 L820.963 177.246 L833.076 177.246 Q839.071 177.246 841.988 175.018 Q844.945 172.75 844.945 168.132 Q844.945 163.554 841.988 161.286 Q839.071 159.017 833.076 159.017 L820.963 159.017 M812.781 152.293 L833.683 152.293 Q843.041 152.293 848.104 156.181 Q853.168 160.07 853.168 167.24 Q853.168 172.79 850.575 176.071 Q847.983 179.353 842.96 180.163 Q848.996 181.459 852.317 185.591 Q855.68 189.682 855.68 195.84 Q855.68 203.942 850.17 208.357 Q844.661 212.773 834.493 212.773 L812.781 212.773 L812.781 152.293 Z" fill="#000000" fill-rule="evenodd" fill-opacity="1" /><path clip-path="url(#clip670)" d="M886.953 172.628 Q880.957 172.628 877.473 177.327 Q873.99 181.986 873.99 190.128 Q873.99 198.27 877.433 202.969 Q880.917 207.628 886.953 207.628 Q892.907 207.628 896.391 202.929 Q899.875 198.23 899.875 190.128 Q899.875 182.067 896.391 177.368 Q892.907 172.628 886.953 172.628 M886.953 166.309 Q896.675 166.309 902.224 172.628 Q907.774 178.948 907.774 190.128 Q907.774 201.268 902.224 207.628 Q896.675 213.947 886.953 213.947 Q877.19 213.947 871.64 207.628 Q866.131 201.268 866.131 190.128 Q866.131 178.948 871.64 172.628 Q877.19 166.309 886.953 166.309 Z" fill="#000000" fill-rule="evenodd" fill-opacity="1" /><path clip-path="url(#clip670)" d="M937.71 172.628 Q931.715 172.628 928.231 177.327 Q924.748 181.986 924.748 190.128 Q924.748 198.27 928.191 202.969 Q931.675 207.628 937.71 207.628 Q943.665 207.628 947.149 202.929 Q950.633 198.23 950.633 190.128 Q950.633 182.067 947.149 177.368 Q943.665 172.628 937.71 172.628 M937.71 166.309 Q947.433 166.309 952.982 172.628 Q958.532 178.948 958.532 190.128 Q958.532 201.268 952.982 207.628 Q947.433 213.947 937.71 213.947 Q927.948 213.947 922.398 207.628 Q916.889 201.268 916.889 190.128 Q916.889 178.948 922.398 172.628 Q927.948 166.309 937.71 166.309 Z" fill="#000000" fill-rule="evenodd" fill-opacity="1" /><path clip-path="url(#clip670)" d="M978.26 154.521 L978.26 167.402 L993.613 167.402 L993.613 173.195 L978.26 173.195 L978.26 197.825 Q978.26 203.375 979.759 204.954 Q981.298 206.534 985.957 206.534 L993.613 206.534 L993.613 212.773 L985.957 212.773 Q977.328 212.773 974.047 209.572 Q970.766 206.332 970.766 197.825 L970.766 173.195 L965.297 173.195 L965.297 167.402 L970.766 167.402 L970.766 154.521 L978.26 154.521 Z" fill="#000000" fill-rule="evenodd" fill-opacity="1" /><path clip-path="url(#clip670)" d="M1032.34 168.739 L1032.34 175.788 Q1029.18 174.168 1025.78 173.357 Q1022.37 172.547 1018.73 172.547 Q1013.18 172.547 1010.38 174.249 Q1007.63 175.95 1007.63 179.353 Q1007.63 181.945 1009.61 183.444 Q1011.6 184.902 1017.59 186.239 L1020.15 186.806 Q1028.09 188.508 1031.41 191.627 Q1034.77 194.706 1034.77 200.255 Q1034.77 206.575 1029.75 210.261 Q1024.76 213.947 1016.01 213.947 Q1012.37 213.947 1008.4 213.218 Q1004.47 212.53 1000.09 211.112 L1000.09 203.415 Q1004.23 205.562 1008.24 206.656 Q1012.25 207.709 1016.18 207.709 Q1021.44 207.709 1024.28 205.927 Q1027.11 204.104 1027.11 200.822 Q1027.11 197.784 1025.05 196.164 Q1023.02 194.544 1016.1 193.045 L1013.5 192.437 Q1006.58 190.979 1003.5 187.981 Q1000.42 184.943 1000.42 179.677 Q1000.42 173.276 1004.96 169.793 Q1009.49 166.309 1017.84 166.309 Q1021.97 166.309 1025.62 166.916 Q1029.26 167.524 1032.34 168.739 Z" fill="#000000" fill-rule="evenodd" fill-opacity="1" /><path clip-path="url(#clip670)" d="M1054.01 154.521 L1054.01 167.402 L1069.36 167.402 L1069.36 173.195 L1054.01 173.195 L1054.01 197.825 Q1054.01 203.375 1055.51 204.954 Q1057.05 206.534 1061.71 206.534 L1069.36 206.534 L1069.36 212.773 L1061.71 212.773 Q1053.08 212.773 1049.8 209.572 Q1046.52 206.332 1046.52 197.825 L1046.52 173.195 L1041.05 173.195 L1041.05 167.402 L1046.52 167.402 L1046.52 154.521 L1054.01 154.521 Z" fill="#000000" fill-rule="evenodd" fill-opacity="1" /><path clip-path="url(#clip670)" d="M1105.46 174.37 Q1104.2 173.641 1102.7 173.317 Q1101.25 172.952 1099.46 172.952 Q1093.14 172.952 1089.74 177.084 Q1086.38 181.176 1086.38 188.872 L1086.38 212.773 L1078.88 212.773 L1078.88 167.402 L1086.38 167.402 L1086.38 174.451 Q1088.73 170.319 1092.5 168.334 Q1096.26 166.309 1101.65 166.309 Q1102.42 166.309 1103.35 166.43 Q1104.28 166.511 1105.42 166.714 L1105.46 174.37 Z" fill="#000000" fill-rule="evenodd" fill-opacity="1" /><path clip-path="url(#clip670)" d="M1133.9 189.966 Q1124.86 189.966 1121.38 192.032 Q1117.89 194.098 1117.89 199.081 Q1117.89 203.05 1120.49 205.4 Q1123.12 207.709 1127.62 207.709 Q1133.81 207.709 1137.54 203.334 Q1141.31 198.919 1141.31 191.627 L1141.31 189.966 L1133.9 189.966 M1148.76 186.887 L1148.76 212.773 L1141.31 212.773 L1141.31 205.886 Q1138.76 210.018 1134.95 212.003 Q1131.14 213.947 1125.63 213.947 Q1118.66 213.947 1114.53 210.059 Q1110.44 206.129 1110.44 199.567 Q1110.44 191.91 1115.55 188.022 Q1120.69 184.133 1130.86 184.133 L1141.31 184.133 L1141.31 183.404 Q1141.31 178.259 1137.91 175.464 Q1134.54 172.628 1128.43 172.628 Q1124.54 172.628 1120.85 173.56 Q1117.17 174.492 1113.76 176.355 L1113.76 169.468 Q1117.85 167.889 1121.7 167.119 Q1125.55 166.309 1129.2 166.309 Q1139.04 166.309 1143.9 171.413 Q1148.76 176.517 1148.76 186.887 Z" fill="#000000" fill-rule="evenodd" fill-opacity="1" /><path clip-path="url(#clip670)" d="M1171.33 205.967 L1171.33 230.029 L1163.83 230.029 L1163.83 167.402 L1171.33 167.402 L1171.33 174.289 Q1173.68 170.238 1177.24 168.294 Q1180.85 166.309 1185.83 166.309 Q1194.09 166.309 1199.24 172.871 Q1204.42 179.434 1204.42 190.128 Q1204.42 200.822 1199.24 207.385 Q1194.09 213.947 1185.83 213.947 Q1180.85 213.947 1177.24 212.003 Q1173.68 210.018 1171.33 205.967 M1196.68 190.128 Q1196.68 181.905 1193.28 177.246 Q1189.92 172.547 1184.01 172.547 Q1178.09 172.547 1174.69 177.246 Q1171.33 181.905 1171.33 190.128 Q1171.33 198.351 1174.69 203.05 Q1178.09 207.709 1184.01 207.709 Q1189.92 207.709 1193.28 203.05 Q1196.68 198.351 1196.68 190.128 Z" fill="#000000" fill-rule="evenodd" fill-opacity="1" /><path clip-path="url(#clip670)" d="M1243.47 152.293 L1251.66 152.293 L1251.66 212.773 L1243.47 212.773 L1243.47 152.293 Z" fill="#000000" fill-rule="evenodd" fill-opacity="1" /><path clip-path="url(#clip670)" d="M1305.33 185.389 L1305.33 212.773 L1297.88 212.773 L1297.88 185.632 Q1297.88 179.191 1295.36 175.99 Q1292.85 172.79 1287.83 172.79 Q1281.79 172.79 1278.31 176.639 Q1274.83 180.487 1274.83 187.13 L1274.83 212.773 L1267.33 212.773 L1267.33 167.402 L1274.83 167.402 L1274.83 174.451 Q1277.5 170.36 1281.11 168.334 Q1284.75 166.309 1289.49 166.309 Q1297.31 166.309 1301.32 171.17 Q1305.33 175.99 1305.33 185.389 Z" fill="#000000" fill-rule="evenodd" fill-opacity="1" /><path clip-path="url(#clip670)" d="M1327.57 154.521 L1327.57 167.402 L1342.92 167.402 L1342.92 173.195 L1327.57 173.195 L1327.57 197.825 Q1327.57 203.375 1329.07 204.954 Q1330.61 206.534 1335.27 206.534 L1342.92 206.534 L1342.92 212.773 L1335.27 212.773 Q1326.64 212.773 1323.36 209.572 Q1320.08 206.332 1320.08 197.825 L1320.08 173.195 L1314.61 173.195 L1314.61 167.402 L1320.08 167.402 L1320.08 154.521 L1327.57 154.521 Z" fill="#000000" fill-rule="evenodd" fill-opacity="1" /><path clip-path="url(#clip670)" d="M1391.53 188.224 L1391.53 191.87 L1357.26 191.87 Q1357.75 199.567 1361.88 203.618 Q1366.05 207.628 1373.47 207.628 Q1377.76 207.628 1381.77 206.575 Q1385.82 205.522 1389.79 203.415 L1389.79 210.464 Q1385.78 212.165 1381.57 213.056 Q1377.36 213.947 1373.02 213.947 Q1362.16 213.947 1355.8 207.628 Q1349.48 201.309 1349.48 190.533 Q1349.48 179.393 1355.48 172.871 Q1361.52 166.309 1371.72 166.309 Q1380.88 166.309 1386.19 172.223 Q1391.53 178.097 1391.53 188.224 M1384.08 186.037 Q1384 179.92 1380.64 176.274 Q1377.31 172.628 1371.81 172.628 Q1365.57 172.628 1361.8 176.152 Q1358.07 179.677 1357.51 186.077 L1384.08 186.037 Z" fill="#000000" fill-rule="evenodd" fill-opacity="1" /><path clip-path="url(#clip670)" d="M1430.06 174.37 Q1428.8 173.641 1427.3 173.317 Q1425.84 172.952 1424.06 172.952 Q1417.74 172.952 1414.34 177.084 Q1410.98 181.176 1410.98 188.872 L1410.98 212.773 L1403.48 212.773 L1403.48 167.402 L1410.98 167.402 L1410.98 174.451 Q1413.33 170.319 1417.09 168.334 Q1420.86 166.309 1426.25 166.309 Q1427.02 166.309 1427.95 166.43 Q1428.88 166.511 1430.02 166.714 L1430.06 174.37 Z" fill="#000000" fill-rule="evenodd" fill-opacity="1" /><path clip-path="url(#clip670)" d="M1432.53 167.402 L1440.43 167.402 L1454.61 205.481 L1468.78 167.402 L1476.68 167.402 L1459.67 212.773 L1449.54 212.773 L1432.53 167.402 Z" fill="#000000" fill-rule="evenodd" fill-opacity="1" /><path clip-path="url(#clip670)" d="M1507.59 189.966 Q1498.56 189.966 1495.07 192.032 Q1491.59 194.098 1491.59 199.081 Q1491.59 203.05 1494.18 205.4 Q1496.82 207.709 1501.31 207.709 Q1507.51 207.709 1511.24 203.334 Q1515 198.919 1515 191.627 L1515 189.966 L1507.59 189.966 M1522.46 186.887 L1522.46 212.773 L1515 212.773 L1515 205.886 Q1512.45 210.018 1508.64 212.003 Q1504.84 213.947 1499.33 213.947 Q1492.36 213.947 1488.23 210.059 Q1484.14 206.129 1484.14 199.567 Q1484.14 191.91 1489.24 188.022 Q1494.39 184.133 1504.55 184.133 L1515 184.133 L1515 183.404 Q1515 178.259 1511.6 175.464 Q1508.24 172.628 1502.12 172.628 Q1498.23 172.628 1494.55 173.56 Q1490.86 174.492 1487.46 176.355 L1487.46 169.468 Q1491.55 167.889 1495.4 167.119 Q1499.25 166.309 1502.89 166.309 Q1512.74 166.309 1517.6 171.413 Q1522.46 176.517 1522.46 186.887 Z" fill="#000000" fill-rule="evenodd" fill-opacity="1" /><path clip-path="url(#clip670)" d="M1537.81 149.741 L1545.27 149.741 L1545.27 212.773 L1537.81 212.773 L1537.81 149.741 Z" fill="#000000" fill-rule="evenodd" fill-opacity="1" /><circle clip-path="url(#clip670)" cx="510.302" cy="273.253" r="40.32" fill="#000000" fill-rule="evenodd" fill-opacity="1" stroke="none"/>
<path clip-path="url(#clip670)" d="M638.025 244.998 L638.025 252.978 Q633.366 250.75 629.234 249.656 Q625.102 248.562 621.254 248.562 Q614.57 248.562 610.924 251.155 Q607.319 253.748 607.319 258.528 Q607.319 262.538 609.709 264.604 Q612.139 266.629 618.864 267.885 L623.806 268.898 Q632.961 270.64 637.295 275.055 Q641.67 279.43 641.67 286.803 Q641.67 295.593 635.756 300.13 Q629.882 304.667 618.499 304.667 Q614.205 304.667 609.344 303.695 Q604.524 302.723 599.338 300.819 L599.338 292.393 Q604.321 295.188 609.101 296.606 Q613.881 298.024 618.499 298.024 Q625.507 298.024 629.315 295.269 Q633.123 292.515 633.123 287.411 Q633.123 282.955 630.368 280.443 Q627.654 277.931 621.416 276.676 L616.433 275.703 Q607.278 273.881 603.187 269.992 Q599.095 266.103 599.095 259.176 Q599.095 251.155 604.726 246.537 Q610.397 241.919 620.322 241.919 Q624.576 241.919 628.991 242.689 Q633.406 243.458 638.025 244.998 Z" fill="#000000" fill-rule="evenodd" fill-opacity="1" /><path clip-path="url(#clip670)" d="M692.914 278.944 L692.914 282.59 L658.644 282.59 Q659.13 290.287 663.262 294.338 Q667.434 298.348 674.847 298.348 Q679.141 298.348 683.152 297.295 Q687.202 296.242 691.172 294.135 L691.172 301.184 Q687.162 302.885 682.949 303.776 Q678.736 304.667 674.402 304.667 Q663.545 304.667 657.185 298.348 Q650.866 292.029 650.866 281.253 Q650.866 270.113 656.861 263.591 Q662.897 257.029 673.105 257.029 Q682.26 257.029 687.567 262.943 Q692.914 268.817 692.914 278.944 M685.461 276.757 Q685.38 270.64 682.017 266.994 Q678.696 263.348 673.186 263.348 Q666.948 263.348 663.181 266.872 Q659.454 270.397 658.887 276.797 L685.461 276.757 Z" fill="#000000" fill-rule="evenodd" fill-opacity="1" /><path clip-path="url(#clip670)" d="M725.767 280.686 Q716.734 280.686 713.25 282.752 Q709.766 284.818 709.766 289.801 Q709.766 293.77 712.359 296.12 Q714.992 298.429 719.488 298.429 Q725.686 298.429 729.413 294.054 Q733.18 289.639 733.18 282.347 L733.18 280.686 L725.767 280.686 M740.634 277.607 L740.634 303.493 L733.18 303.493 L733.18 296.606 Q730.628 300.738 726.82 302.723 Q723.012 304.667 717.503 304.667 Q710.536 304.667 706.404 300.779 Q702.312 296.849 702.312 290.287 Q702.312 282.63 707.416 278.742 Q712.561 274.853 722.729 274.853 L733.18 274.853 L733.18 274.124 Q733.18 268.979 729.777 266.184 Q726.415 263.348 720.298 263.348 Q716.41 263.348 712.723 264.28 Q709.037 265.212 705.634 267.075 L705.634 260.188 Q709.726 258.609 713.574 257.839 Q717.422 257.029 721.068 257.029 Q730.912 257.029 735.773 262.133 Q740.634 267.237 740.634 277.607 Z" fill="#000000" fill-rule="evenodd" fill-opacity="1" /><path clip-path="url(#clip670)" d="M752.219 277.445 L774.054 277.445 L774.054 284.089 L752.219 284.089 L752.219 277.445 Z" fill="#000000" fill-rule="evenodd" fill-opacity="1" /><path clip-path="url(#clip670)" d="M786.247 243.013 L794.43 243.013 L794.43 296.606 L823.88 296.606 L823.88 303.493 L786.247 303.493 L786.247 243.013 Z" fill="#000000" fill-rule="evenodd" fill-opacity="1" /><path clip-path="url(#clip670)" d="M869.493 278.944 L869.493 282.59 L835.223 282.59 Q835.709 290.287 839.841 294.338 Q844.013 298.348 851.426 298.348 Q855.72 298.348 859.73 297.295 Q863.781 296.242 867.751 294.135 L867.751 301.184 Q863.741 302.885 859.528 303.776 Q855.315 304.667 850.981 304.667 Q840.124 304.667 833.764 298.348 Q827.445 292.029 827.445 281.253 Q827.445 270.113 833.44 263.591 Q839.476 257.029 849.684 257.029 Q858.839 257.029 864.146 262.943 Q869.493 268.817 869.493 278.944 M862.04 276.757 Q861.958 270.64 858.596 266.994 Q855.275 263.348 849.765 263.348 Q843.527 263.348 839.76 266.872 Q836.033 270.397 835.466 276.797 L862.04 276.757 Z" fill="#000000" fill-rule="evenodd" fill-opacity="1" /><path clip-path="url(#clip670)" d="M876.38 258.122 L884.279 258.122 L898.457 296.201 L912.635 258.122 L920.535 258.122 L903.521 303.493 L893.394 303.493 L876.38 258.122 Z" fill="#000000" fill-rule="evenodd" fill-opacity="1" /><path clip-path="url(#clip670)" d="M969.632 278.944 L969.632 282.59 L935.361 282.59 Q935.847 290.287 939.979 294.338 Q944.151 298.348 951.564 298.348 Q955.858 298.348 959.869 297.295 Q963.92 296.242 967.89 294.135 L967.89 301.184 Q963.879 302.885 959.666 303.776 Q955.453 304.667 951.119 304.667 Q940.262 304.667 933.903 298.348 Q927.583 292.029 927.583 281.253 Q927.583 270.113 933.578 263.591 Q939.614 257.029 949.823 257.029 Q958.978 257.029 964.284 262.943 Q969.632 268.817 969.632 278.944 M962.178 276.757 Q962.097 270.64 958.735 266.994 Q955.413 263.348 949.904 263.348 Q943.665 263.348 939.898 266.872 Q936.171 270.397 935.604 276.797 L962.178 276.757 Z" fill="#000000" fill-rule="evenodd" fill-opacity="1" /><path clip-path="url(#clip670)" d="M981.865 240.461 L989.319 240.461 L989.319 303.493 L981.865 303.493 L981.865 240.461 Z" fill="#000000" fill-rule="evenodd" fill-opacity="1" /><path clip-path="url(#clip670)" d="M1039.79 249.737 L1039.79 296.768 L1049.68 296.768 Q1062.19 296.768 1067.99 291.097 Q1073.82 285.426 1073.82 273.192 Q1073.82 261.039 1067.99 255.408 Q1062.19 249.737 1049.68 249.737 L1039.79 249.737 M1031.61 243.013 L1048.42 243.013 Q1066 243.013 1074.23 250.345 Q1082.45 257.636 1082.45 273.192 Q1082.45 288.828 1074.19 296.16 Q1065.92 303.493 1048.42 303.493 L1031.61 303.493 L1031.61 243.013 Z" fill="#000000" fill-rule="evenodd" fill-opacity="1" /><path clip-path="url(#clip670)" d="M1115.79 280.686 Q1106.75 280.686 1103.27 282.752 Q1099.79 284.818 1099.79 289.801 Q1099.79 293.77 1102.38 296.12 Q1105.01 298.429 1109.51 298.429 Q1115.71 298.429 1119.43 294.054 Q1123.2 289.639 1123.2 282.347 L1123.2 280.686 L1115.79 280.686 M1130.65 277.607 L1130.65 303.493 L1123.2 303.493 L1123.2 296.606 Q1120.65 300.738 1116.84 302.723 Q1113.03 304.667 1107.52 304.667 Q1100.56 304.667 1096.42 300.779 Q1092.33 296.849 1092.33 290.287 Q1092.33 282.63 1097.44 278.742 Q1102.58 274.853 1112.75 274.853 L1123.2 274.853 L1123.2 274.124 Q1123.2 268.979 1119.8 266.184 Q1116.44 263.348 1110.32 263.348 Q1106.43 263.348 1102.74 264.28 Q1099.06 265.212 1095.66 267.075 L1095.66 260.188 Q1099.75 258.609 1103.59 257.839 Q1107.44 257.029 1111.09 257.029 Q1120.93 257.029 1125.79 262.133 Q1130.65 267.237 1130.65 277.607 Z" fill="#000000" fill-rule="evenodd" fill-opacity="1" /><path clip-path="url(#clip670)" d="M1153.38 245.241 L1153.38 258.122 L1168.73 258.122 L1168.73 263.915 L1153.38 263.915 L1153.38 288.545 Q1153.38 294.095 1154.88 295.674 Q1156.42 297.254 1161.08 297.254 L1168.73 297.254 L1168.73 303.493 L1161.08 303.493 Q1152.45 303.493 1149.17 300.292 Q1145.89 297.052 1145.89 288.545 L1145.89 263.915 L1140.42 263.915 L1140.42 258.122 L1145.89 258.122 L1145.89 245.241 L1153.38 245.241 Z" fill="#000000" fill-rule="evenodd" fill-opacity="1" /><path clip-path="url(#clip670)" d="M1199.16 280.686 Q1190.12 280.686 1186.64 282.752 Q1183.15 284.818 1183.15 289.801 Q1183.15 293.77 1185.75 296.12 Q1188.38 298.429 1192.88 298.429 Q1199.07 298.429 1202.8 294.054 Q1206.57 289.639 1206.57 282.347 L1206.57 280.686 L1199.16 280.686 M1214.02 277.607 L1214.02 303.493 L1206.57 303.493 L1206.57 296.606 Q1204.02 300.738 1200.21 302.723 Q1196.4 304.667 1190.89 304.667 Q1183.92 304.667 1179.79 300.779 Q1175.7 296.849 1175.7 290.287 Q1175.7 282.63 1180.81 278.742 Q1185.95 274.853 1196.12 274.853 L1206.57 274.853 L1206.57 274.124 Q1206.57 268.979 1203.17 266.184 Q1199.8 263.348 1193.69 263.348 Q1189.8 263.348 1186.11 264.28 Q1182.43 265.212 1179.02 267.075 L1179.02 260.188 Q1183.11 258.609 1186.96 257.839 Q1190.81 257.029 1194.46 257.029 Q1204.3 257.029 1209.16 262.133 Q1214.02 267.237 1214.02 277.607 Z" fill="#000000" fill-rule="evenodd" fill-opacity="1" /><polyline clip-path="url(#clip670)" style="stroke:#ff0000; stroke-linecap:round; stroke-linejoin:round; stroke-width:21; stroke-opacity:1; fill:none" points="
  443.708,363.973 576.897,363.973 
  "/>
<path clip-path="url(#clip670)" d="M607.278 365.33 L607.278 387.488 L620.403 387.488 Q627.006 387.488 630.166 384.774 Q633.366 382.019 633.366 376.389 Q633.366 370.717 630.166 368.044 Q627.006 365.33 620.403 365.33 L607.278 365.33 M607.278 340.457 L607.278 358.686 L619.39 358.686 Q625.386 358.686 628.302 356.458 Q631.259 354.19 631.259 349.572 Q631.259 344.994 628.302 342.726 Q625.386 340.457 619.39 340.457 L607.278 340.457 M599.095 333.733 L619.998 333.733 Q629.356 333.733 634.419 337.621 Q639.483 341.51 639.483 348.68 Q639.483 354.23 636.89 357.511 Q634.298 360.793 629.275 361.603 Q635.31 362.899 638.632 367.031 Q641.994 371.122 641.994 377.28 Q641.994 385.382 636.485 389.797 Q630.976 394.213 620.808 394.213 L599.095 394.213 L599.095 333.733 Z" fill="#000000" fill-rule="evenodd" fill-opacity="1" /><path clip-path="url(#clip670)" d="M694.494 369.664 L694.494 373.31 L660.223 373.31 Q660.71 381.007 664.841 385.058 Q669.014 389.068 676.427 389.068 Q680.721 389.068 684.731 388.015 Q688.782 386.962 692.752 384.855 L692.752 391.904 Q688.742 393.605 684.529 394.496 Q680.316 395.387 675.981 395.387 Q665.125 395.387 658.765 389.068 Q652.446 382.749 652.446 371.973 Q652.446 360.833 658.441 354.311 Q664.477 347.749 674.685 347.749 Q683.84 347.749 689.147 353.663 Q694.494 359.537 694.494 369.664 M687.04 367.477 Q686.959 361.36 683.597 357.714 Q680.275 354.068 674.766 354.068 Q668.528 354.068 664.76 357.592 Q661.034 361.117 660.467 367.517 L687.04 367.477 Z" fill="#000000" fill-rule="evenodd" fill-opacity="1" /><path clip-path="url(#clip670)" d="M735.651 350.179 L735.651 357.228 Q732.492 355.608 729.089 354.797 Q725.686 353.987 722.04 353.987 Q716.491 353.987 713.695 355.689 Q710.941 357.39 710.941 360.793 Q710.941 363.385 712.926 364.884 Q714.911 366.342 720.906 367.679 L723.458 368.246 Q731.398 369.948 734.72 373.067 Q738.082 376.146 738.082 381.695 Q738.082 388.015 733.059 391.701 Q728.076 395.387 719.326 395.387 Q715.68 395.387 711.71 394.658 Q707.781 393.97 703.406 392.552 L703.406 384.855 Q707.538 387.002 711.548 388.096 Q715.559 389.149 719.488 389.149 Q724.754 389.149 727.59 387.367 Q730.426 385.544 730.426 382.262 Q730.426 379.224 728.36 377.604 Q726.334 375.984 719.407 374.485 L716.815 373.877 Q709.888 372.419 706.809 369.421 Q703.73 366.383 703.73 361.117 Q703.73 354.716 708.267 351.233 Q712.804 347.749 721.149 347.749 Q725.281 347.749 728.927 348.356 Q732.573 348.964 735.651 350.179 Z" fill="#000000" fill-rule="evenodd" fill-opacity="1" /><path clip-path="url(#clip670)" d="M757.324 335.961 L757.324 348.842 L772.677 348.842 L772.677 354.635 L757.324 354.635 L757.324 379.265 Q757.324 384.815 758.822 386.394 Q760.362 387.974 765.02 387.974 L772.677 387.974 L772.677 394.213 L765.02 394.213 Q756.392 394.213 753.111 391.012 Q749.829 387.772 749.829 379.265 L749.829 354.635 L744.361 354.635 L744.361 348.842 L749.829 348.842 L749.829 335.961 L757.324 335.961 Z" fill="#000000" fill-rule="evenodd" fill-opacity="1" /><path clip-path="url(#clip670)" d="M778.712 368.165 L800.547 368.165 L800.547 374.809 L778.712 374.809 L778.712 368.165 Z" fill="#000000" fill-rule="evenodd" fill-opacity="1" /><path clip-path="url(#clip670)" d="M812.74 333.733 L847.497 333.733 L847.497 340.619 L820.923 340.619 L820.923 358.443 L844.904 358.443 L844.904 365.33 L820.923 365.33 L820.923 394.213 L812.74 394.213 L812.74 333.733 Z" fill="#000000" fill-rule="evenodd" fill-opacity="1" /><path clip-path="url(#clip670)" d="M854.1 348.842 L861.553 348.842 L861.553 394.213 L854.1 394.213 L854.1 348.842 M854.1 331.181 L861.553 331.181 L861.553 340.619 L854.1 340.619 L854.1 331.181 Z" fill="#000000" fill-rule="evenodd" fill-opacity="1" /><path clip-path="url(#clip670)" d="M884.522 335.961 L884.522 348.842 L899.875 348.842 L899.875 354.635 L884.522 354.635 L884.522 379.265 Q884.522 384.815 886.021 386.394 Q887.56 387.974 892.219 387.974 L899.875 387.974 L899.875 394.213 L892.219 394.213 Q883.59 394.213 880.309 391.012 Q877.028 387.772 877.028 379.265 L877.028 354.635 L871.559 354.635 L871.559 348.842 L877.028 348.842 L877.028 335.961 L884.522 335.961 Z" fill="#000000" fill-rule="evenodd" fill-opacity="1" /><path clip-path="url(#clip670)" d="M960.922 339.282 Q952.01 339.282 946.744 345.926 Q941.518 352.569 941.518 364.033 Q941.518 375.457 946.744 382.1 Q952.01 388.744 960.922 388.744 Q969.834 388.744 975.019 382.1 Q980.245 375.457 980.245 364.033 Q980.245 352.569 975.019 345.926 Q969.834 339.282 960.922 339.282 M972.386 393.119 L983.162 404.907 L973.277 404.907 L964.325 395.225 Q962.988 395.306 962.259 395.347 Q961.57 395.387 960.922 395.387 Q948.162 395.387 940.506 386.88 Q932.89 378.333 932.89 364.033 Q932.89 349.693 940.506 341.186 Q948.162 332.639 960.922 332.639 Q973.642 332.639 981.258 341.186 Q988.873 349.693 988.873 364.033 Q988.873 374.566 984.62 382.06 Q980.407 389.554 972.386 393.119 Z" fill="#000000" fill-rule="evenodd" fill-opacity="1" /><path clip-path="url(#clip670)" d="M1000.58 376.308 L1000.58 348.842 L1008.03 348.842 L1008.03 376.024 Q1008.03 382.465 1010.55 385.706 Q1013.06 388.906 1018.08 388.906 Q1024.12 388.906 1027.6 385.058 Q1031.12 381.209 1031.12 374.566 L1031.12 348.842 L1038.58 348.842 L1038.58 394.213 L1031.12 394.213 L1031.12 387.245 Q1028.41 391.377 1024.8 393.402 Q1021.24 395.387 1016.5 395.387 Q1008.68 395.387 1004.63 390.526 Q1000.58 385.665 1000.58 376.308 M1019.34 347.749 L1019.34 347.749 Z" fill="#000000" fill-rule="evenodd" fill-opacity="1" /><path clip-path="url(#clip670)" d="M1074.55 371.406 Q1065.52 371.406 1062.03 373.472 Q1058.55 375.538 1058.55 380.521 Q1058.55 384.49 1061.14 386.84 Q1063.77 389.149 1068.27 389.149 Q1074.47 389.149 1078.2 384.774 Q1081.96 380.359 1081.96 373.067 L1081.96 371.406 L1074.55 371.406 M1089.42 368.327 L1089.42 394.213 L1081.96 394.213 L1081.96 387.326 Q1079.41 391.458 1075.6 393.443 Q1071.8 395.387 1066.29 395.387 Q1059.32 395.387 1055.19 391.499 Q1051.1 387.569 1051.1 381.007 Q1051.1 373.35 1056.2 369.462 Q1061.34 365.573 1071.51 365.573 L1081.96 365.573 L1081.96 364.844 Q1081.96 359.699 1078.56 356.904 Q1075.2 354.068 1069.08 354.068 Q1065.19 354.068 1061.51 355 Q1057.82 355.932 1054.42 357.795 L1054.42 350.908 Q1058.51 349.329 1062.36 348.559 Q1066.21 347.749 1069.85 347.749 Q1079.69 347.749 1084.56 352.853 Q1089.42 357.957 1089.42 368.327 Z" fill="#000000" fill-rule="evenodd" fill-opacity="1" /><path clip-path="url(#clip670)" d="M1134.62 355.729 L1134.62 331.181 L1142.08 331.181 L1142.08 394.213 L1134.62 394.213 L1134.62 387.407 Q1132.28 391.458 1128.67 393.443 Q1125.11 395.387 1120.08 395.387 Q1111.86 395.387 1106.67 388.825 Q1101.53 382.262 1101.53 371.568 Q1101.53 360.874 1106.67 354.311 Q1111.86 347.749 1120.08 347.749 Q1125.11 347.749 1128.67 349.734 Q1132.28 351.678 1134.62 355.729 M1109.23 371.568 Q1109.23 379.791 1112.59 384.49 Q1115.99 389.149 1121.91 389.149 Q1127.82 389.149 1131.22 384.49 Q1134.62 379.791 1134.62 371.568 Q1134.62 363.345 1131.22 358.686 Q1127.82 353.987 1121.91 353.987 Q1115.99 353.987 1112.59 358.686 Q1109.23 363.345 1109.23 371.568 Z" fill="#000000" fill-rule="evenodd" fill-opacity="1" /><path clip-path="url(#clip670)" d="M1183.72 355.81 Q1182.47 355.081 1180.97 354.757 Q1179.51 354.392 1177.73 354.392 Q1171.41 354.392 1168 358.524 Q1164.64 362.616 1164.64 370.312 L1164.64 394.213 L1157.15 394.213 L1157.15 348.842 L1164.64 348.842 L1164.64 355.891 Q1166.99 351.759 1170.76 349.774 Q1174.53 347.749 1179.91 347.749 Q1180.68 347.749 1181.62 347.87 Q1182.55 347.951 1183.68 348.154 L1183.72 355.81 Z" fill="#000000" fill-rule="evenodd" fill-opacity="1" /><path clip-path="url(#clip670)" d="M1212.16 371.406 Q1203.13 371.406 1199.64 373.472 Q1196.16 375.538 1196.16 380.521 Q1196.16 384.49 1198.75 386.84 Q1201.38 389.149 1205.88 389.149 Q1212.08 389.149 1215.8 384.774 Q1219.57 380.359 1219.57 373.067 L1219.57 371.406 L1212.16 371.406 M1227.03 368.327 L1227.03 394.213 L1219.57 394.213 L1219.57 387.326 Q1217.02 391.458 1213.21 393.443 Q1209.4 395.387 1203.9 395.387 Q1196.93 395.387 1192.8 391.499 Q1188.7 387.569 1188.7 381.007 Q1188.7 373.35 1193.81 369.462 Q1198.95 365.573 1209.12 365.573 L1219.57 365.573 L1219.57 364.844 Q1219.57 359.699 1216.17 356.904 Q1212.81 354.068 1206.69 354.068 Q1202.8 354.068 1199.12 355 Q1195.43 355.932 1192.03 357.795 L1192.03 350.908 Q1196.12 349.329 1199.97 348.559 Q1203.81 347.749 1207.46 347.749 Q1217.3 347.749 1222.16 352.853 Q1227.03 357.957 1227.03 368.327 Z" fill="#000000" fill-rule="evenodd" fill-opacity="1" /><path clip-path="url(#clip670)" d="M1249.75 335.961 L1249.75 348.842 L1265.1 348.842 L1265.1 354.635 L1249.75 354.635 L1249.75 379.265 Q1249.75 384.815 1251.25 386.394 Q1252.79 387.974 1257.45 387.974 L1265.1 387.974 L1265.1 394.213 L1257.45 394.213 Q1248.82 394.213 1245.54 391.012 Q1242.26 387.772 1242.26 379.265 L1242.26 354.635 L1236.79 354.635 L1236.79 348.842 L1242.26 348.842 L1242.26 335.961 L1249.75 335.961 Z" fill="#000000" fill-rule="evenodd" fill-opacity="1" /><path clip-path="url(#clip670)" d="M1274.91 348.842 L1282.36 348.842 L1282.36 394.213 L1274.91 394.213 L1274.91 348.842 M1274.91 331.181 L1282.36 331.181 L1282.36 340.619 L1274.91 340.619 L1274.91 331.181 Z" fill="#000000" fill-rule="evenodd" fill-opacity="1" /><path clip-path="url(#clip670)" d="M1330.61 350.584 L1330.61 357.552 Q1327.45 355.81 1324.25 354.959 Q1321.09 354.068 1317.85 354.068 Q1310.6 354.068 1306.59 358.686 Q1302.58 363.264 1302.58 371.568 Q1302.58 379.872 1306.59 384.49 Q1310.6 389.068 1317.85 389.068 Q1321.09 389.068 1324.25 388.217 Q1327.45 387.326 1330.61 385.584 L1330.61 392.471 Q1327.49 393.929 1324.13 394.658 Q1320.8 395.387 1317.04 395.387 Q1306.79 395.387 1300.75 388.946 Q1294.72 382.506 1294.72 371.568 Q1294.72 360.469 1300.79 354.109 Q1306.91 347.749 1317.52 347.749 Q1320.97 347.749 1324.25 348.478 Q1327.53 349.167 1330.61 350.584 Z" fill="#000000" fill-rule="evenodd" fill-opacity="1" /></svg>
