<?xml version="1.0" encoding="utf-8"?>
<svg xmlns="http://www.w3.org/2000/svg" xmlns:xlink="http://www.w3.org/1999/xlink" width="600" height="400" viewBox="0 0 2400 1600">
<defs>
  <clipPath id="clip300">
    <rect x="0" y="0" width="2400" height="1600"/>
  </clipPath>
</defs>
<path clip-path="url(#clip300)" d="
M0 1600 L2400 1600 L2400 0 L0 0  Z
  " fill="#ffffff" fill-rule="evenodd" fill-opacity="1"/>
<defs>
  <clipPath id="clip301">
    <rect x="480" y="0" width="1681" height="1600"/>
  </clipPath>
</defs>
<path clip-path="url(#clip300)" d="
M354.915 1384.3 L2352.76 1384.3 L2352.76 132.112 L354.915 132.112  Z
  " fill="#ffffff" fill-rule="evenodd" fill-opacity="1"/>
<defs>
  <clipPath id="clip302">
    <rect x="354" y="132" width="1999" height="1253"/>
  </clipPath>
</defs>
<polyline clip-path="url(#clip302)" style="stroke:#000000; stroke-linecap:round; stroke-linejoin:round; stroke-width:2; stroke-opacity:0.1; fill:none" points="
  687.794,1384.3 687.794,132.112 
  "/>
<polyline clip-path="url(#clip302)" style="stroke:#000000; stroke-linecap:round; stroke-linejoin:round; stroke-width:2; stroke-opacity:0.1; fill:none" points="
  1042.07,1384.3 1042.07,132.112 
  "/>
<polyline clip-path="url(#clip302)" style="stroke:#000000; stroke-linecap:round; stroke-linejoin:round; stroke-width:2; stroke-opacity:0.1; fill:none" points="
  1396.35,1384.3 1396.35,132.112 
  "/>
<polyline clip-path="url(#clip302)" style="stroke:#000000; stroke-linecap:round; stroke-linejoin:round; stroke-width:2; stroke-opacity:0.1; fill:none" points="
  1750.63,1384.3 1750.63,132.112 
  "/>
<polyline clip-path="url(#clip302)" style="stroke:#000000; stroke-linecap:round; stroke-linejoin:round; stroke-width:2; stroke-opacity:0.1; fill:none" points="
  2104.9,1384.3 2104.9,132.112 
  "/>
<polyline clip-path="url(#clip300)" style="stroke:#000000; stroke-linecap:round; stroke-linejoin:round; stroke-width:4; stroke-opacity:1; fill:none" points="
  354.915,1384.3 2352.76,1384.3 
  "/>
<polyline clip-path="url(#clip300)" style="stroke:#000000; stroke-linecap:round; stroke-linejoin:round; stroke-width:4; stroke-opacity:1; fill:none" points="
  687.794,1384.3 687.794,1365.4 
  "/>
<polyline clip-path="url(#clip300)" style="stroke:#000000; stroke-linecap:round; stroke-linejoin:round; stroke-width:4; stroke-opacity:1; fill:none" points="
  1042.07,1384.3 1042.07,1365.4 
  "/>
<polyline clip-path="url(#clip300)" style="stroke:#000000; stroke-linecap:round; stroke-linejoin:round; stroke-width:4; stroke-opacity:1; fill:none" points="
  1396.35,1384.3 1396.35,1365.4 
  "/>
<polyline clip-path="url(#clip300)" style="stroke:#000000; stroke-linecap:round; stroke-linejoin:round; stroke-width:4; stroke-opacity:1; fill:none" points="
  1750.63,1384.3 1750.63,1365.4 
  "/>
<polyline clip-path="url(#clip300)" style="stroke:#000000; stroke-linecap:round; stroke-linejoin:round; stroke-width:4; stroke-opacity:1; fill:none" points="
  2104.9,1384.3 2104.9,1365.4 
  "/>
<path clip-path="url(#clip300)" d="M604.582 1462.4 L616.041 1462.4 L616.041 1422.85 L603.575 1425.35 L603.575 1418.96 L615.971 1416.46 L622.985 1416.46 L622.985 1462.4 L634.443 1462.4 L634.443 1468.3 L604.582 1468.3 L604.582 1462.4 Z" fill="#000000" fill-rule="evenodd" fill-opacity="1" /><path clip-path="url(#clip300)" d="M648.818 1467.22 L648.818 1460.83 Q651.457 1462.08 654.165 1462.74 Q656.874 1463.4 659.478 1463.4 Q666.422 1463.4 670.068 1458.75 Q673.749 1454.06 674.27 1444.55 Q672.256 1447.54 669.165 1449.13 Q666.075 1450.73 662.325 1450.73 Q654.547 1450.73 649.999 1446.04 Q645.485 1441.32 645.485 1433.16 Q645.485 1425.18 650.207 1420.35 Q654.929 1415.52 662.777 1415.52 Q671.77 1415.52 676.492 1422.43 Q681.249 1429.31 681.249 1442.43 Q681.249 1454.69 675.415 1462.02 Q669.617 1469.31 659.79 1469.31 Q657.152 1469.31 654.443 1468.79 Q651.735 1468.27 648.818 1467.22 M662.777 1445.24 Q667.499 1445.24 670.242 1442.02 Q673.02 1438.79 673.02 1433.16 Q673.02 1427.57 670.242 1424.34 Q667.499 1421.08 662.777 1421.08 Q658.054 1421.08 655.277 1424.34 Q652.534 1427.57 652.534 1433.16 Q652.534 1438.79 655.277 1442.02 Q658.054 1445.24 662.777 1445.24 Z" fill="#000000" fill-rule="evenodd" fill-opacity="1" /><path clip-path="url(#clip300)" d="M708.853 1421.08 Q703.436 1421.08 700.693 1426.43 Q697.985 1431.74 697.985 1442.43 Q697.985 1453.09 700.693 1458.44 Q703.436 1463.75 708.853 1463.75 Q714.304 1463.75 717.012 1458.44 Q719.755 1453.09 719.755 1442.43 Q719.755 1431.74 717.012 1426.43 Q714.304 1421.08 708.853 1421.08 M708.853 1415.52 Q717.568 1415.52 722.151 1422.43 Q726.769 1429.31 726.769 1442.43 Q726.769 1455.52 722.151 1462.43 Q717.568 1469.31 708.853 1469.31 Q700.137 1469.31 695.519 1462.43 Q690.936 1455.52 690.936 1442.43 Q690.936 1429.31 695.519 1422.43 Q700.137 1415.52 708.853 1415.52 Z" fill="#000000" fill-rule="evenodd" fill-opacity="1" /><path clip-path="url(#clip300)" d="M754.096 1421.08 Q748.679 1421.08 745.936 1426.43 Q743.228 1431.74 743.228 1442.43 Q743.228 1453.09 745.936 1458.44 Q748.679 1463.75 754.096 1463.75 Q759.547 1463.75 762.255 1458.44 Q764.998 1453.09 764.998 1442.43 Q764.998 1431.74 762.255 1426.43 Q759.547 1421.08 754.096 1421.08 M754.096 1415.52 Q762.811 1415.52 767.394 1422.43 Q772.012 1429.31 772.012 1442.43 Q772.012 1455.52 767.394 1462.43 Q762.811 1469.31 754.096 1469.31 Q745.38 1469.31 740.762 1462.43 Q736.179 1455.52 736.179 1442.43 Q736.179 1429.31 740.762 1422.43 Q745.38 1415.52 754.096 1415.52 Z" fill="#000000" fill-rule="evenodd" fill-opacity="1" /><path clip-path="url(#clip300)" d="M959.606 1462.4 L971.065 1462.4 L971.065 1422.85 L958.599 1425.35 L958.599 1418.96 L970.995 1416.46 L978.009 1416.46 L978.009 1462.4 L989.467 1462.4 L989.467 1468.3 L959.606 1468.3 L959.606 1462.4 Z" fill="#000000" fill-rule="evenodd" fill-opacity="1" /><path clip-path="url(#clip300)" d="M1003.84 1467.22 L1003.84 1460.83 Q1006.48 1462.08 1009.19 1462.74 Q1011.9 1463.4 1014.5 1463.4 Q1021.45 1463.4 1025.09 1458.75 Q1028.77 1454.06 1029.29 1444.55 Q1027.28 1447.54 1024.19 1449.13 Q1021.1 1450.73 1017.35 1450.73 Q1009.57 1450.73 1005.02 1446.04 Q1000.51 1441.32 1000.51 1433.16 Q1000.51 1425.18 1005.23 1420.35 Q1009.95 1415.52 1017.8 1415.52 Q1026.79 1415.52 1031.52 1422.43 Q1036.27 1429.31 1036.27 1442.43 Q1036.27 1454.69 1030.44 1462.02 Q1024.64 1469.31 1014.81 1469.31 Q1012.18 1469.31 1009.47 1468.79 Q1006.76 1468.27 1003.84 1467.22 M1017.8 1445.24 Q1022.52 1445.24 1025.27 1442.02 Q1028.04 1438.79 1028.04 1433.16 Q1028.04 1427.57 1025.27 1424.34 Q1022.52 1421.08 1017.8 1421.08 Q1013.08 1421.08 1010.3 1424.34 Q1007.56 1427.57 1007.56 1433.16 Q1007.56 1438.79 1010.3 1442.02 Q1013.08 1445.24 1017.8 1445.24 Z" fill="#000000" fill-rule="evenodd" fill-opacity="1" /><path clip-path="url(#clip300)" d="M1054.92 1462.4 L1079.4 1462.4 L1079.4 1468.3 L1046.48 1468.3 L1046.48 1462.4 Q1050.47 1458.27 1057.35 1451.32 Q1064.26 1444.34 1066.03 1442.33 Q1069.4 1438.54 1070.72 1435.94 Q1072.07 1433.3 1072.07 1430.77 Q1072.07 1426.63 1069.15 1424.03 Q1066.27 1421.43 1061.62 1421.43 Q1058.32 1421.43 1054.64 1422.57 Q1050.99 1423.72 1046.83 1426.04 L1046.83 1418.96 Q1051.06 1417.26 1054.74 1416.39 Q1058.43 1415.52 1061.48 1415.52 Q1069.54 1415.52 1074.33 1419.55 Q1079.12 1423.58 1079.12 1430.31 Q1079.12 1433.51 1077.9 1436.39 Q1076.72 1439.24 1073.56 1443.13 Q1072.7 1444.13 1068.04 1448.96 Q1063.39 1453.75 1054.92 1462.4 Z" fill="#000000" fill-rule="evenodd" fill-opacity="1" /><path clip-path="url(#clip300)" d="M1094.19 1416.46 L1121.72 1416.46 L1121.72 1422.36 L1100.61 1422.36 L1100.61 1435.07 Q1102.14 1434.55 1103.67 1434.31 Q1105.2 1434.03 1106.72 1434.03 Q1115.4 1434.03 1120.47 1438.79 Q1125.54 1443.54 1125.54 1451.67 Q1125.54 1460.04 1120.33 1464.69 Q1115.13 1469.31 1105.65 1469.31 Q1102.38 1469.31 1098.98 1468.75 Q1095.61 1468.2 1092 1467.08 L1092 1460.04 Q1095.13 1461.74 1098.46 1462.57 Q1101.79 1463.4 1105.51 1463.4 Q1111.52 1463.4 1115.02 1460.24 Q1118.53 1457.08 1118.53 1451.67 Q1118.53 1446.25 1115.02 1443.09 Q1111.52 1439.93 1105.51 1439.93 Q1102.7 1439.93 1099.88 1440.56 Q1097.11 1441.18 1094.19 1442.5 L1094.19 1416.46 Z" fill="#000000" fill-rule="evenodd" fill-opacity="1" /><path clip-path="url(#clip300)" d="M1313.14 1462.4 L1324.6 1462.4 L1324.6 1422.85 L1312.13 1425.35 L1312.13 1418.96 L1324.53 1416.46 L1331.54 1416.46 L1331.54 1462.4 L1343 1462.4 L1343 1468.3 L1313.14 1468.3 L1313.14 1462.4 Z" fill="#000000" fill-rule="evenodd" fill-opacity="1" /><path clip-path="url(#clip300)" d="M1357.37 1467.22 L1357.37 1460.83 Q1360.01 1462.08 1362.72 1462.74 Q1365.43 1463.4 1368.03 1463.4 Q1374.98 1463.4 1378.62 1458.75 Q1382.3 1454.06 1382.82 1444.55 Q1380.81 1447.54 1377.72 1449.13 Q1374.63 1450.73 1370.88 1450.73 Q1363.1 1450.73 1358.55 1446.04 Q1354.04 1441.32 1354.04 1433.16 Q1354.04 1425.18 1358.76 1420.35 Q1363.48 1415.52 1371.33 1415.52 Q1380.32 1415.52 1385.05 1422.43 Q1389.8 1429.31 1389.8 1442.43 Q1389.8 1454.69 1383.97 1462.02 Q1378.17 1469.31 1368.35 1469.31 Q1365.71 1469.31 1363 1468.79 Q1360.29 1468.27 1357.37 1467.22 M1371.33 1445.24 Q1376.05 1445.24 1378.8 1442.02 Q1381.57 1438.79 1381.57 1433.16 Q1381.57 1427.57 1378.8 1424.34 Q1376.05 1421.08 1371.33 1421.08 Q1366.61 1421.08 1363.83 1424.34 Q1361.09 1427.57 1361.09 1433.16 Q1361.09 1438.79 1363.83 1442.02 Q1366.61 1445.24 1371.33 1445.24 Z" fill="#000000" fill-rule="evenodd" fill-opacity="1" /><path clip-path="url(#clip300)" d="M1402.48 1416.46 L1430.01 1416.46 L1430.01 1422.36 L1408.9 1422.36 L1408.9 1435.07 Q1410.43 1434.55 1411.96 1434.31 Q1413.48 1434.03 1415.01 1434.03 Q1423.69 1434.03 1428.76 1438.79 Q1433.83 1443.54 1433.83 1451.67 Q1433.83 1460.04 1428.62 1464.69 Q1423.41 1469.31 1413.94 1469.31 Q1410.67 1469.31 1407.27 1468.75 Q1403.9 1468.2 1400.29 1467.08 L1400.29 1460.04 Q1403.41 1461.74 1406.75 1462.57 Q1410.08 1463.4 1413.8 1463.4 Q1419.8 1463.4 1423.31 1460.24 Q1426.82 1457.08 1426.82 1451.67 Q1426.82 1446.25 1423.31 1443.09 Q1419.8 1439.93 1413.8 1439.93 Q1410.98 1439.93 1408.17 1440.56 Q1405.39 1441.18 1402.48 1442.5 L1402.48 1416.46 Z" fill="#000000" fill-rule="evenodd" fill-opacity="1" /><path clip-path="url(#clip300)" d="M1462.65 1421.08 Q1457.23 1421.08 1454.49 1426.43 Q1451.78 1431.74 1451.78 1442.43 Q1451.78 1453.09 1454.49 1458.44 Q1457.23 1463.75 1462.65 1463.75 Q1468.1 1463.75 1470.81 1458.44 Q1473.55 1453.09 1473.55 1442.43 Q1473.55 1431.74 1470.81 1426.43 Q1468.1 1421.08 1462.65 1421.08 M1462.65 1415.52 Q1471.37 1415.52 1475.95 1422.43 Q1480.57 1429.31 1480.57 1442.43 Q1480.57 1455.52 1475.95 1462.43 Q1471.37 1469.31 1462.65 1469.31 Q1453.94 1469.31 1449.32 1462.43 Q1444.73 1455.52 1444.73 1442.43 Q1444.73 1429.31 1449.32 1422.43 Q1453.94 1415.52 1462.65 1415.52 Z" fill="#000000" fill-rule="evenodd" fill-opacity="1" /><path clip-path="url(#clip300)" d="M1668.16 1462.4 L1679.62 1462.4 L1679.62 1422.85 L1667.15 1425.35 L1667.15 1418.96 L1679.55 1416.46 L1686.56 1416.46 L1686.56 1462.4 L1698.02 1462.4 L1698.02 1468.3 L1668.16 1468.3 L1668.16 1462.4 Z" fill="#000000" fill-rule="evenodd" fill-opacity="1" /><path clip-path="url(#clip300)" d="M1712.4 1467.22 L1712.4 1460.83 Q1715.04 1462.08 1717.74 1462.74 Q1720.45 1463.4 1723.06 1463.4 Q1730 1463.4 1733.65 1458.75 Q1737.33 1454.06 1737.85 1444.55 Q1735.83 1447.54 1732.74 1449.13 Q1729.65 1450.73 1725.9 1450.73 Q1718.13 1450.73 1713.58 1446.04 Q1709.06 1441.32 1709.06 1433.16 Q1709.06 1425.18 1713.79 1420.35 Q1718.51 1415.52 1726.36 1415.52 Q1735.35 1415.52 1740.07 1422.43 Q1744.83 1429.31 1744.83 1442.43 Q1744.83 1454.69 1738.99 1462.02 Q1733.2 1469.31 1723.37 1469.31 Q1720.73 1469.31 1718.02 1468.79 Q1715.31 1468.27 1712.4 1467.22 M1726.36 1445.24 Q1731.08 1445.24 1733.82 1442.02 Q1736.6 1438.79 1736.6 1433.16 Q1736.6 1427.57 1733.82 1424.34 Q1731.08 1421.08 1726.36 1421.08 Q1721.63 1421.08 1718.86 1424.34 Q1716.11 1427.57 1716.11 1433.16 Q1716.11 1438.79 1718.86 1442.02 Q1721.63 1445.24 1726.36 1445.24 Z" fill="#000000" fill-rule="evenodd" fill-opacity="1" /><path clip-path="url(#clip300)" d="M1755.66 1416.46 L1788.99 1416.46 L1788.99 1419.45 L1770.17 1468.3 L1762.85 1468.3 L1780.56 1422.36 L1755.66 1422.36 L1755.66 1416.46 Z" fill="#000000" fill-rule="evenodd" fill-opacity="1" /><path clip-path="url(#clip300)" d="M1802.74 1416.46 L1830.28 1416.46 L1830.28 1422.36 L1809.17 1422.36 L1809.17 1435.07 Q1810.7 1434.55 1812.22 1434.31 Q1813.75 1434.03 1815.28 1434.03 Q1823.96 1434.03 1829.03 1438.79 Q1834.1 1443.54 1834.1 1451.67 Q1834.1 1460.04 1828.89 1464.69 Q1823.68 1469.31 1814.2 1469.31 Q1810.94 1469.31 1807.54 1468.75 Q1804.17 1468.2 1800.56 1467.08 L1800.56 1460.04 Q1803.68 1461.74 1807.01 1462.57 Q1810.35 1463.4 1814.06 1463.4 Q1820.07 1463.4 1823.58 1460.24 Q1827.08 1457.08 1827.08 1451.67 Q1827.08 1446.25 1823.58 1443.09 Q1820.07 1439.93 1814.06 1439.93 Q1811.25 1439.93 1808.44 1440.56 Q1805.66 1441.18 1802.74 1442.5 L1802.74 1416.46 Z" fill="#000000" fill-rule="evenodd" fill-opacity="1" /><path clip-path="url(#clip300)" d="M2027.82 1462.4 L2052.3 1462.4 L2052.3 1468.3 L2019.38 1468.3 L2019.38 1462.4 Q2023.38 1458.27 2030.25 1451.32 Q2037.16 1444.34 2038.93 1442.33 Q2042.3 1438.54 2043.62 1435.94 Q2044.97 1433.3 2044.97 1430.77 Q2044.97 1426.63 2042.06 1424.03 Q2039.17 1421.43 2034.52 1421.43 Q2031.22 1421.43 2027.54 1422.57 Q2023.9 1423.72 2019.73 1426.04 L2019.73 1418.96 Q2023.97 1417.26 2027.65 1416.39 Q2031.33 1415.52 2034.38 1415.52 Q2042.44 1415.52 2047.23 1419.55 Q2052.02 1423.58 2052.02 1430.31 Q2052.02 1433.51 2050.81 1436.39 Q2049.63 1439.24 2046.47 1443.13 Q2045.6 1444.13 2040.95 1448.96 Q2036.29 1453.75 2027.82 1462.4 Z" fill="#000000" fill-rule="evenodd" fill-opacity="1" /><path clip-path="url(#clip300)" d="M2082.02 1421.08 Q2076.6 1421.08 2073.86 1426.43 Q2071.15 1431.74 2071.15 1442.43 Q2071.15 1453.09 2073.86 1458.44 Q2076.6 1463.75 2082.02 1463.75 Q2087.47 1463.75 2090.18 1458.44 Q2092.92 1453.09 2092.92 1442.43 Q2092.92 1431.74 2090.18 1426.43 Q2087.47 1421.08 2082.02 1421.08 M2082.02 1415.52 Q2090.74 1415.52 2095.32 1422.43 Q2099.94 1429.31 2099.94 1442.43 Q2099.94 1455.52 2095.32 1462.43 Q2090.74 1469.31 2082.02 1469.31 Q2073.31 1469.31 2068.69 1462.43 Q2064.11 1455.52 2064.11 1442.43 Q2064.11 1429.31 2068.69 1422.43 Q2073.31 1415.52 2082.02 1415.52 Z" fill="#000000" fill-rule="evenodd" fill-opacity="1" /><path clip-path="url(#clip300)" d="M2127.26 1421.08 Q2121.85 1421.08 2119.1 1426.43 Q2116.4 1431.74 2116.4 1442.43 Q2116.4 1453.09 2119.1 1458.44 Q2121.85 1463.75 2127.26 1463.75 Q2132.72 1463.75 2135.42 1458.44 Q2138.17 1453.09 2138.17 1442.43 Q2138.17 1431.74 2135.42 1426.43 Q2132.72 1421.08 2127.26 1421.08 M2127.26 1415.52 Q2135.98 1415.52 2140.56 1422.43 Q2145.18 1429.31 2145.18 1442.43 Q2145.18 1455.52 2140.56 1462.43 Q2135.98 1469.31 2127.26 1469.31 Q2118.55 1469.31 2113.93 1462.43 Q2109.35 1455.52 2109.35 1442.43 Q2109.35 1429.31 2113.93 1422.43 Q2118.55 1415.52 2127.26 1415.52 Z" fill="#000000" fill-rule="evenodd" fill-opacity="1" /><path clip-path="url(#clip300)" d="M2172.51 1421.08 Q2167.09 1421.08 2164.35 1426.43 Q2161.64 1431.74 2161.64 1442.43 Q2161.64 1453.09 2164.35 1458.44 Q2167.09 1463.75 2172.51 1463.75 Q2177.96 1463.75 2180.67 1458.44 Q2183.41 1453.09 2183.41 1442.43 Q2183.41 1431.74 2180.67 1426.43 Q2177.96 1421.08 2172.51 1421.08 M2172.51 1415.52 Q2181.22 1415.52 2185.81 1422.43 Q2190.42 1429.31 2190.42 1442.43 Q2190.42 1455.52 2185.81 1462.43 Q2181.22 1469.31 2172.51 1469.31 Q2163.79 1469.31 2159.17 1462.43 Q2154.59 1455.52 2154.59 1442.43 Q2154.59 1429.31 2159.17 1422.43 Q2163.79 1415.52 2172.51 1415.52 Z" fill="#000000" fill-rule="evenodd" fill-opacity="1" /><path clip-path="url(#clip300)" d="M1253.37 1511.88 L1263.42 1511.88 L1282.59 1540.31 L1301.61 1511.88 L1311.66 1511.88 L1287.22 1548.09 L1287.22 1581 L1277.82 1581 L1277.82 1548.09 L1253.37 1511.88 Z" fill="#000000" fill-rule="evenodd" fill-opacity="1" /><path clip-path="url(#clip300)" d="M1352.17 1552.95 L1352.17 1557.12 L1313 1557.12 Q1313.56 1565.91 1318.28 1570.54 Q1323.05 1575.12 1331.52 1575.12 Q1336.43 1575.12 1341.01 1573.92 Q1345.64 1572.72 1350.18 1570.31 L1350.18 1578.36 Q1345.59 1580.31 1340.78 1581.33 Q1335.97 1582.35 1331.01 1582.35 Q1318.6 1582.35 1311.34 1575.12 Q1304.11 1567.9 1304.11 1555.59 Q1304.11 1542.86 1310.97 1535.4 Q1317.86 1527.9 1329.53 1527.9 Q1339.99 1527.9 1346.06 1534.66 Q1352.17 1541.37 1352.17 1552.95 M1343.65 1550.45 Q1343.56 1543.46 1339.72 1539.29 Q1335.92 1535.12 1329.62 1535.12 Q1322.49 1535.12 1318.19 1539.15 Q1313.93 1543.18 1313.28 1550.49 L1343.65 1550.45 Z" fill="#000000" fill-rule="evenodd" fill-opacity="1" /><path clip-path="url(#clip300)" d="M1389.71 1554.94 Q1379.39 1554.94 1375.41 1557.3 Q1371.43 1559.66 1371.43 1565.36 Q1371.43 1569.89 1374.39 1572.58 Q1377.4 1575.22 1382.54 1575.22 Q1389.62 1575.22 1393.88 1570.22 Q1398.19 1565.17 1398.19 1556.84 L1398.19 1554.94 L1389.71 1554.94 M1406.71 1551.42 L1406.71 1581 L1398.19 1581 L1398.19 1573.13 Q1395.27 1577.86 1390.92 1580.12 Q1386.57 1582.35 1380.27 1582.35 Q1372.31 1582.35 1367.59 1577.9 Q1362.91 1573.41 1362.91 1565.91 Q1362.91 1557.16 1368.74 1552.72 Q1374.62 1548.27 1386.24 1548.27 L1398.19 1548.27 L1398.19 1547.44 Q1398.19 1541.56 1394.3 1538.37 Q1390.46 1535.12 1383.46 1535.12 Q1379.02 1535.12 1374.81 1536.19 Q1370.59 1537.25 1366.71 1539.38 L1366.71 1531.51 Q1371.38 1529.71 1375.78 1528.83 Q1380.18 1527.9 1384.34 1527.9 Q1395.59 1527.9 1401.15 1533.74 Q1406.71 1539.57 1406.71 1551.42 Z" fill="#000000" fill-rule="evenodd" fill-opacity="1" /><path clip-path="url(#clip300)" d="M1454.3 1537.12 Q1452.86 1536.28 1451.15 1535.91 Q1449.48 1535.49 1447.45 1535.49 Q1440.22 1535.49 1436.33 1540.22 Q1432.49 1544.89 1432.49 1553.69 L1432.49 1581 L1423.93 1581 L1423.93 1529.15 L1432.49 1529.15 L1432.49 1537.21 Q1435.18 1532.49 1439.48 1530.22 Q1443.79 1527.9 1449.95 1527.9 Q1450.83 1527.9 1451.89 1528.04 Q1452.96 1528.13 1454.25 1528.37 L1454.3 1537.12 Z" fill="#000000" fill-rule="evenodd" fill-opacity="1" /><polyline clip-path="url(#clip302)" style="stroke:#000000; stroke-linecap:round; stroke-linejoin:round; stroke-width:2; stroke-opacity:0.1; fill:none" points="
  354.915,1253.3 2352.76,1253.3 
  "/>
<polyline clip-path="url(#clip302)" style="stroke:#000000; stroke-linecap:round; stroke-linejoin:round; stroke-width:2; stroke-opacity:0.1; fill:none" points="
  354.915,1013.2 2352.76,1013.2 
  "/>
<polyline clip-path="url(#clip302)" style="stroke:#000000; stroke-linecap:round; stroke-linejoin:round; stroke-width:2; stroke-opacity:0.1; fill:none" points="
  354.915,773.092 2352.76,773.092 
  "/>
<polyline clip-path="url(#clip302)" style="stroke:#000000; stroke-linecap:round; stroke-linejoin:round; stroke-width:2; stroke-opacity:0.1; fill:none" points="
  354.915,532.989 2352.76,532.989 
  "/>
<polyline clip-path="url(#clip302)" style="stroke:#000000; stroke-linecap:round; stroke-linejoin:round; stroke-width:2; stroke-opacity:0.1; fill:none" points="
  354.915,292.885 2352.76,292.885 
  "/>
<polyline clip-path="url(#clip300)" style="stroke:#000000; stroke-linecap:round; stroke-linejoin:round; stroke-width:4; stroke-opacity:1; fill:none" points="
  354.915,1384.3 354.915,132.112 
  "/>
<polyline clip-path="url(#clip300)" style="stroke:#000000; stroke-linecap:round; stroke-linejoin:round; stroke-width:4; stroke-opacity:1; fill:none" points="
  354.915,1253.3 373.812,1253.3 
  "/>
<polyline clip-path="url(#clip300)" style="stroke:#000000; stroke-linecap:round; stroke-linejoin:round; stroke-width:4; stroke-opacity:1; fill:none" points="
  354.915,1013.2 373.812,1013.2 
  "/>
<polyline clip-path="url(#clip300)" style="stroke:#000000; stroke-linecap:round; stroke-linejoin:round; stroke-width:4; stroke-opacity:1; fill:none" points="
  354.915,773.092 373.812,773.092 
  "/>
<polyline clip-path="url(#clip300)" style="stroke:#000000; stroke-linecap:round; stroke-linejoin:round; stroke-width:4; stroke-opacity:1; fill:none" points="
  354.915,532.989 373.812,532.989 
  "/>
<polyline clip-path="url(#clip300)" style="stroke:#000000; stroke-linecap:round; stroke-linejoin:round; stroke-width:4; stroke-opacity:1; fill:none" points="
  354.915,292.885 373.812,292.885 
  "/>
<path clip-path="url(#clip300)" d="M135.86 1253.98 L180.374 1253.98 L180.374 1259.88 L135.86 1259.88 L135.86 1253.98 Z" fill="#000000" fill-rule="evenodd" fill-opacity="1" /><path clip-path="url(#clip300)" d="M196.728 1273.32 L208.186 1273.32 L208.186 1233.77 L195.721 1236.27 L195.721 1229.88 L208.117 1227.38 L215.131 1227.38 L215.131 1273.32 L226.589 1273.32 L226.589 1279.22 L196.728 1279.22 L196.728 1273.32 Z" fill="#000000" fill-rule="evenodd" fill-opacity="1" /><path clip-path="url(#clip300)" d="M240.825 1227.38 L268.359 1227.38 L268.359 1233.28 L247.248 1233.28 L247.248 1245.99 Q248.776 1245.47 250.304 1245.23 Q251.832 1244.95 253.36 1244.95 Q262.04 1244.95 267.109 1249.71 Q272.179 1254.46 272.179 1262.59 Q272.179 1270.96 266.971 1275.61 Q261.762 1280.23 252.283 1280.23 Q249.019 1280.23 245.617 1279.67 Q242.248 1279.12 238.637 1278 L238.637 1270.96 Q241.762 1272.66 245.096 1273.49 Q248.429 1274.32 252.144 1274.32 Q258.151 1274.32 261.658 1271.16 Q265.165 1268 265.165 1262.59 Q265.165 1257.17 261.658 1254.01 Q258.151 1250.85 252.144 1250.85 Q249.332 1250.85 246.519 1251.48 Q243.742 1252.1 240.825 1253.42 L240.825 1227.38 Z" fill="#000000" fill-rule="evenodd" fill-opacity="1" /><path clip-path="url(#clip300)" d="M300.998 1232 Q295.582 1232 292.838 1237.34 Q290.13 1242.66 290.13 1253.35 Q290.13 1264.01 292.838 1269.36 Q295.582 1274.67 300.998 1274.67 Q306.45 1274.67 309.158 1269.36 Q311.901 1264.01 311.901 1253.35 Q311.901 1242.66 309.158 1237.34 Q306.45 1232 300.998 1232 M300.998 1226.44 Q309.713 1226.44 314.297 1233.35 Q318.915 1240.23 318.915 1253.35 Q318.915 1266.44 314.297 1273.35 Q309.713 1280.23 300.998 1280.23 Q292.283 1280.23 287.665 1273.35 Q283.082 1266.44 283.082 1253.35 Q283.082 1240.23 287.665 1233.35 Q292.283 1226.44 300.998 1226.44 Z" fill="#000000" fill-rule="evenodd" fill-opacity="1" /><path clip-path="url(#clip300)" d="M135.86 1013.87 L180.374 1013.87 L180.374 1019.78 L135.86 1019.78 L135.86 1013.87 Z" fill="#000000" fill-rule="evenodd" fill-opacity="1" /><path clip-path="url(#clip300)" d="M196.728 1033.21 L208.186 1033.21 L208.186 993.665 L195.721 996.165 L195.721 989.776 L208.117 987.276 L215.131 987.276 L215.131 1033.21 L226.589 1033.21 L226.589 1039.12 L196.728 1039.12 L196.728 1033.21 Z" fill="#000000" fill-rule="evenodd" fill-opacity="1" /><path clip-path="url(#clip300)" d="M255.755 991.894 Q250.339 991.894 247.596 997.241 Q244.887 1002.55 244.887 1013.25 Q244.887 1023.91 247.596 1029.25 Q250.339 1034.57 255.755 1034.57 Q261.207 1034.57 263.915 1029.25 Q266.658 1023.91 266.658 1013.25 Q266.658 1002.55 263.915 997.241 Q261.207 991.894 255.755 991.894 M255.755 986.338 Q264.471 986.338 269.054 993.248 Q273.672 1000.12 273.672 1013.25 Q273.672 1026.34 269.054 1033.25 Q264.471 1040.12 255.755 1040.12 Q247.04 1040.12 242.422 1033.25 Q237.839 1026.34 237.839 1013.25 Q237.839 1000.12 242.422 993.248 Q247.04 986.338 255.755 986.338 Z" fill="#000000" fill-rule="evenodd" fill-opacity="1" /><path clip-path="url(#clip300)" d="M300.998 991.894 Q295.582 991.894 292.838 997.241 Q290.13 1002.55 290.13 1013.25 Q290.13 1023.91 292.838 1029.25 Q295.582 1034.57 300.998 1034.57 Q306.45 1034.57 309.158 1029.25 Q311.901 1023.91 311.901 1013.25 Q311.901 1002.55 309.158 997.241 Q306.45 991.894 300.998 991.894 M300.998 986.338 Q309.713 986.338 314.297 993.248 Q318.915 1000.12 318.915 1013.25 Q318.915 1026.34 314.297 1033.25 Q309.713 1040.12 300.998 1040.12 Q292.283 1040.12 287.665 1033.25 Q283.082 1026.34 283.082 1013.25 Q283.082 1000.12 287.665 993.248 Q292.283 986.338 300.998 986.338 Z" fill="#000000" fill-rule="evenodd" fill-opacity="1" /><path clip-path="url(#clip300)" d="M181.103 773.769 L225.617 773.769 L225.617 779.672 L181.103 779.672 L181.103 773.769 Z" fill="#000000" fill-rule="evenodd" fill-opacity="1" /><path clip-path="url(#clip300)" d="M240.825 747.172 L268.359 747.172 L268.359 753.075 L247.248 753.075 L247.248 765.783 Q248.776 765.263 250.304 765.02 Q251.832 764.742 253.36 764.742 Q262.04 764.742 267.109 769.499 Q272.179 774.256 272.179 782.381 Q272.179 790.749 266.971 795.401 Q261.762 800.019 252.283 800.019 Q249.019 800.019 245.617 799.464 Q242.248 798.908 238.637 797.797 L238.637 790.749 Q241.762 792.45 245.096 793.283 Q248.429 794.117 252.144 794.117 Q258.151 794.117 261.658 790.957 Q265.165 787.797 265.165 782.381 Q265.165 776.964 261.658 773.804 Q258.151 770.644 252.144 770.644 Q249.332 770.644 246.519 771.269 Q243.742 771.894 240.825 773.214 L240.825 747.172 Z" fill="#000000" fill-rule="evenodd" fill-opacity="1" /><path clip-path="url(#clip300)" d="M300.998 751.79 Q295.582 751.79 292.838 757.138 Q290.13 762.45 290.13 773.144 Q290.13 783.804 292.838 789.151 Q295.582 794.464 300.998 794.464 Q306.45 794.464 309.158 789.151 Q311.901 783.804 311.901 773.144 Q311.901 762.45 309.158 757.138 Q306.45 751.79 300.998 751.79 M300.998 746.235 Q309.713 746.235 314.297 753.145 Q318.915 760.02 318.915 773.144 Q318.915 786.235 314.297 793.144 Q309.713 800.019 300.998 800.019 Q292.283 800.019 287.665 793.144 Q283.082 786.235 283.082 773.144 Q283.082 760.02 287.665 753.145 Q292.283 746.235 300.998 746.235 Z" fill="#000000" fill-rule="evenodd" fill-opacity="1" /><path clip-path="url(#clip300)" d="M300.998 511.687 Q295.582 511.687 292.838 517.034 Q290.13 522.347 290.13 533.041 Q290.13 543.701 292.838 549.048 Q295.582 554.36 300.998 554.36 Q306.45 554.36 309.158 549.048 Q311.901 543.701 311.901 533.041 Q311.901 522.347 309.158 517.034 Q306.45 511.687 300.998 511.687 M300.998 506.131 Q309.713 506.131 314.297 513.041 Q318.915 519.916 318.915 533.041 Q318.915 546.131 314.297 553.041 Q309.713 559.916 300.998 559.916 Q292.283 559.916 287.665 553.041 Q283.082 546.131 283.082 533.041 Q283.082 519.916 287.665 513.041 Q292.283 506.131 300.998 506.131 Z" fill="#000000" fill-rule="evenodd" fill-opacity="1" /><path clip-path="url(#clip300)" d="M240.825 266.965 L268.359 266.965 L268.359 272.868 L247.248 272.868 L247.248 285.576 Q248.776 285.056 250.304 284.813 Q251.832 284.535 253.36 284.535 Q262.04 284.535 267.109 289.292 Q272.179 294.049 272.179 302.174 Q272.179 310.542 266.971 315.194 Q261.762 319.812 252.283 319.812 Q249.019 319.812 245.617 319.257 Q242.248 318.701 238.637 317.59 L238.637 310.542 Q241.762 312.243 245.096 313.076 Q248.429 313.91 252.144 313.91 Q258.151 313.91 261.658 310.75 Q265.165 307.59 265.165 302.174 Q265.165 296.757 261.658 293.597 Q258.151 290.438 252.144 290.438 Q249.332 290.438 246.519 291.063 Q243.742 291.688 240.825 293.007 L240.825 266.965 Z" fill="#000000" fill-rule="evenodd" fill-opacity="1" /><path clip-path="url(#clip300)" d="M300.998 271.583 Q295.582 271.583 292.838 276.931 Q290.13 282.243 290.13 292.938 Q290.13 303.597 292.838 308.944 Q295.582 314.257 300.998 314.257 Q306.45 314.257 309.158 308.944 Q311.901 303.597 311.901 292.938 Q311.901 282.243 309.158 276.931 Q306.45 271.583 300.998 271.583 M300.998 266.028 Q309.713 266.028 314.297 272.938 Q318.915 279.813 318.915 292.938 Q318.915 306.028 314.297 312.937 Q309.713 319.812 300.998 319.812 Q292.283 319.812 287.665 312.937 Q283.082 306.028 283.082 292.938 Q283.082 279.813 287.665 272.938 Q292.283 266.028 300.998 266.028 Z" fill="#000000" fill-rule="evenodd" fill-opacity="1" /><path clip-path="url(#clip300)" d="M69.2631 978.922 L50.6984 978.922 L50.6984 994.2 L43.0132 994.2 L43.0132 969.663 L72.689 969.663 Q76.5316 975.08 78.5223 981.608 Q80.4667 988.135 80.4667 995.543 Q80.4667 1011.75 71.0223 1020.91 Q61.5317 1030.03 44.6336 1030.03 Q27.6892 1030.03 18.2449 1020.91 Q8.75416 1011.75 8.75416 995.543 Q8.75416 988.783 10.4208 982.719 Q12.0875 976.608 15.3282 971.469 L25.2819 971.469 Q20.8837 976.654 18.6615 982.487 Q16.4393 988.32 16.4393 994.756 Q16.4393 1007.44 23.5226 1013.83 Q30.6059 1020.17 44.6336 1020.17 Q58.615 1020.17 65.6983 1013.83 Q72.7816 1007.44 72.7816 994.756 Q72.7816 989.802 71.9483 985.913 Q71.0686 982.024 69.2631 978.922 Z" fill="#000000" fill-rule="evenodd" fill-opacity="1" /><path clip-path="url(#clip300)" d="M10.0042 952.58 L10.0042 938.645 L57.0409 921.006 L10.0042 903.275 L10.0042 889.34 L79.1242 889.34 L79.1242 898.46 L18.43 898.46 L65.8372 916.284 L65.8372 925.682 L18.43 943.506 L79.1242 943.506 L79.1242 952.58 L10.0042 952.58 Z" fill="#000000" fill-rule="evenodd" fill-opacity="1" /><path clip-path="url(#clip300)" d="M12.2727 829.34 L21.393 829.34 Q18.8467 834.664 17.5967 839.386 Q16.3467 844.108 16.3467 848.506 Q16.3467 856.145 19.3097 860.312 Q22.2726 864.432 27.7355 864.432 Q32.3189 864.432 34.68 861.701 Q36.9948 858.923 38.4299 851.238 L39.5873 845.59 Q41.5781 835.127 46.6243 830.173 Q51.6243 825.173 60.0502 825.173 Q70.0964 825.173 75.2816 831.932 Q80.4667 838.645 80.4667 851.655 Q80.4667 856.562 79.3556 862.117 Q78.2445 867.627 76.0686 873.553 L66.439 873.553 Q69.6335 867.858 71.2538 862.395 Q72.8742 856.932 72.8742 851.655 Q72.8742 843.645 69.7261 839.294 Q66.5779 834.942 60.7446 834.942 Q55.6521 834.942 52.7817 838.09 Q49.9114 841.192 48.4762 848.321 L47.3651 854.016 Q45.2817 864.479 40.8373 869.154 Q36.3929 873.83 28.4763 873.83 Q19.3097 873.83 14.0319 867.395 Q8.75416 860.914 8.75416 849.571 Q8.75416 844.71 9.63379 839.664 Q10.5134 834.618 12.2727 829.34 Z" fill="#000000" fill-rule="evenodd" fill-opacity="1" /><path clip-path="url(#clip300)" d="M10.0042 810.59 L10.0042 801.238 L71.2538 801.238 L71.2538 767.581 L79.1242 767.581 L79.1242 810.59 L10.0042 810.59 Z" fill="#000000" fill-rule="evenodd" fill-opacity="1" /><path clip-path="url(#clip300)" d="M7.1801 707.535 Q17.8282 713.739 28.2448 716.748 Q38.6614 719.757 49.3558 719.757 Q60.0502 719.757 70.5594 716.748 Q81.0223 713.692 91.6241 707.535 L91.6241 714.942 Q80.7445 721.887 70.2353 725.359 Q59.7261 728.785 49.3558 728.785 Q39.0318 728.785 28.5689 725.359 Q18.106 721.933 7.1801 714.942 L7.1801 707.535 Z" fill="#000000" fill-rule="evenodd" fill-opacity="1" /><path clip-path="url(#clip300)" d="M37.2262 650.637 Q31.4855 647.443 28.7541 642.998 Q26.0226 638.554 26.0226 632.535 Q26.0226 624.434 31.717 620.035 Q37.3651 615.637 47.828 615.637 L79.1242 615.637 L79.1242 624.202 L48.1058 624.202 Q40.6521 624.202 37.041 626.841 Q33.43 629.48 33.43 634.896 Q33.43 641.517 37.8281 645.359 Q42.2262 649.202 49.8188 649.202 L79.1242 649.202 L79.1242 657.767 L48.1058 657.767 Q40.6058 657.767 37.041 660.406 Q33.43 663.044 33.43 668.554 Q33.43 675.081 37.8744 678.924 Q42.2725 682.767 49.8188 682.767 L79.1242 682.767 L79.1242 691.331 L27.2726 691.331 L27.2726 682.767 L35.3281 682.767 Q30.5596 679.85 28.2911 675.776 Q26.0226 671.702 26.0226 666.1 Q26.0226 660.452 28.8929 656.517 Q31.7633 652.535 37.2262 650.637 Z" fill="#000000" fill-rule="evenodd" fill-opacity="1" /><path clip-path="url(#clip300)" d="M37.2262 558.276 Q31.4855 555.082 28.7541 550.638 Q26.0226 546.193 26.0226 540.175 Q26.0226 532.073 31.717 527.675 Q37.3651 523.277 47.828 523.277 L79.1242 523.277 L79.1242 531.841 L48.1058 531.841 Q40.6521 531.841 37.041 534.48 Q33.43 537.119 33.43 542.536 Q33.43 549.156 37.8281 552.999 Q42.2262 556.841 49.8188 556.841 L79.1242 556.841 L79.1242 565.406 L48.1058 565.406 Q40.6058 565.406 37.041 568.045 Q33.43 570.684 33.43 576.193 Q33.43 582.721 37.8744 586.563 Q42.2725 590.406 49.8188 590.406 L79.1242 590.406 L79.1242 598.971 L27.2726 598.971 L27.2726 590.406 L35.3281 590.406 Q30.5596 587.489 28.2911 583.415 Q26.0226 579.341 26.0226 573.739 Q26.0226 568.091 28.8929 564.156 Q31.7633 560.175 37.2262 558.276 Z" fill="#000000" fill-rule="evenodd" fill-opacity="1" /><path clip-path="url(#clip300)" d="M7.1801 507.629 L7.1801 500.221 Q18.106 493.277 28.5689 489.851 Q39.0318 486.379 49.3558 486.379 Q59.7261 486.379 70.2353 489.851 Q80.7445 493.277 91.6241 500.221 L91.6241 507.629 Q81.0223 501.471 70.5594 498.462 Q60.0502 495.406 49.3558 495.406 Q38.6614 495.406 28.2448 498.462 Q17.8282 501.471 7.1801 507.629 Z" fill="#000000" fill-rule="evenodd" fill-opacity="1" /><path clip-path="url(#clip300)" d="M729.718 16.0925 L729.718 25.2128 Q724.394 22.6665 719.672 21.4166 Q714.95 20.1666 710.552 20.1666 Q702.913 20.1666 698.746 23.1295 Q694.626 26.0925 694.626 31.5554 Q694.626 36.1387 697.357 38.4998 Q700.135 40.8146 707.82 42.2498 L713.468 43.4072 Q723.931 45.3979 728.885 50.4442 Q733.885 55.4441 733.885 63.87 Q733.885 73.9163 727.126 79.1014 Q720.413 84.2866 707.404 84.2866 Q702.496 84.2866 696.941 83.1755 Q691.431 82.0644 685.506 79.8885 L685.506 70.2589 Q691.2 73.4533 696.663 75.0737 Q702.126 76.694 707.404 76.694 Q715.413 76.694 719.765 73.5459 Q724.116 70.3978 724.116 64.5645 Q724.116 59.4719 720.968 56.6015 Q717.867 53.7312 710.737 52.296 L705.042 51.1849 Q694.58 49.1016 689.904 44.6572 Q685.228 40.2127 685.228 32.2961 Q685.228 23.1295 691.663 17.8518 Q698.144 12.574 709.487 12.574 Q714.348 12.574 719.394 13.4536 Q724.441 14.3333 729.718 16.0925 Z" fill="#000000" fill-rule="evenodd" fill-opacity="1" /><path clip-path="url(#clip300)" d="M792.449 54.8886 L792.449 59.0552 L753.283 59.0552 Q753.839 67.8515 758.561 72.4811 Q763.329 77.0644 771.801 77.0644 Q776.709 77.0644 781.292 75.8607 Q785.922 74.657 790.459 72.2496 L790.459 80.3051 Q785.875 82.2496 781.061 83.2681 Q776.246 84.2866 771.292 84.2866 Q758.885 84.2866 751.616 77.0644 Q744.394 69.8422 744.394 57.5275 Q744.394 44.7961 751.246 37.3424 Q758.144 29.8424 769.811 29.8424 Q780.274 29.8424 786.338 36.6017 Q792.449 43.3146 792.449 54.8886 M783.931 52.3886 Q783.838 45.3979 779.996 41.2313 Q776.2 37.0646 769.903 37.0646 Q762.774 37.0646 758.468 41.0924 Q754.209 45.1201 753.561 52.4349 L783.931 52.3886 Z" fill="#000000" fill-rule="evenodd" fill-opacity="1" /><path clip-path="url(#clip300)" d="M829.996 56.8793 Q819.672 56.8793 815.69 59.2404 Q811.709 61.6015 811.709 67.2959 Q811.709 71.8329 814.672 74.5181 Q817.681 77.157 822.82 77.157 Q829.903 77.157 834.162 72.157 Q838.468 67.1108 838.468 58.7775 L838.468 56.8793 L829.996 56.8793 M846.986 53.3608 L846.986 82.944 L838.468 82.944 L838.468 75.0737 Q835.551 79.7959 831.199 82.0644 Q826.847 84.2866 820.551 84.2866 Q812.588 84.2866 807.866 79.8422 Q803.19 75.3514 803.19 67.8515 Q803.19 59.1015 809.023 54.6571 Q814.903 50.2127 826.523 50.2127 L838.468 50.2127 L838.468 49.3794 Q838.468 43.4998 834.579 40.3053 Q830.736 37.0646 823.746 37.0646 Q819.301 37.0646 815.088 38.1294 Q810.875 39.1942 806.986 41.3239 L806.986 33.4535 Q811.662 31.648 816.06 30.7684 Q820.459 29.8424 824.625 29.8424 Q835.875 29.8424 841.431 35.6757 Q846.986 41.509 846.986 53.3608 Z" fill="#000000" fill-rule="evenodd" fill-opacity="1" /><path clip-path="url(#clip300)" d="M860.227 53.1756 L885.18 53.1756 L885.18 60.7682 L860.227 60.7682 L860.227 53.1756 Z" fill="#000000" fill-rule="evenodd" fill-opacity="1" /><path clip-path="url(#clip300)" d="M899.116 13.824 L908.467 13.824 L908.467 75.0737 L942.125 75.0737 L942.125 82.944 L899.116 82.944 L899.116 13.824 Z" fill="#000000" fill-rule="evenodd" fill-opacity="1" /><path clip-path="url(#clip300)" d="M994.254 54.8886 L994.254 59.0552 L955.087 59.0552 Q955.643 67.8515 960.365 72.4811 Q965.134 77.0644 973.606 77.0644 Q978.513 77.0644 983.097 75.8607 Q987.726 74.657 992.263 72.2496 L992.263 80.3051 Q987.68 82.2496 982.865 83.2681 Q978.05 84.2866 973.097 84.2866 Q960.689 84.2866 953.421 77.0644 Q946.199 69.8422 946.199 57.5275 Q946.199 44.7961 953.05 37.3424 Q959.949 29.8424 971.615 29.8424 Q982.078 29.8424 988.143 36.6017 Q994.254 43.3146 994.254 54.8886 M985.735 52.3886 Q985.643 45.3979 981.8 41.2313 Q978.004 37.0646 971.708 37.0646 Q964.578 37.0646 960.273 41.0924 Q956.013 45.1201 955.365 52.4349 L985.735 52.3886 Z" fill="#000000" fill-rule="evenodd" fill-opacity="1" /><path clip-path="url(#clip300)" d="M1002.12 31.0924 L1011.15 31.0924 L1027.36 74.6107 L1043.56 31.0924 L1052.59 31.0924 L1033.14 82.944 L1021.57 82.944 L1002.12 31.0924 Z" fill="#000000" fill-rule="evenodd" fill-opacity="1" /><path clip-path="url(#clip300)" d="M1108.7 54.8886 L1108.7 59.0552 L1069.53 59.0552 Q1070.09 67.8515 1074.81 72.4811 Q1079.58 77.0644 1088.05 77.0644 Q1092.96 77.0644 1097.54 75.8607 Q1102.17 74.657 1106.71 72.2496 L1106.71 80.3051 Q1102.12 82.2496 1097.31 83.2681 Q1092.49 84.2866 1087.54 84.2866 Q1075.13 84.2866 1067.86 77.0644 Q1060.64 69.8422 1060.64 57.5275 Q1060.64 44.7961 1067.49 37.3424 Q1074.39 29.8424 1086.06 29.8424 Q1096.52 29.8424 1102.59 36.6017 Q1108.7 43.3146 1108.7 54.8886 M1100.18 52.3886 Q1100.09 45.3979 1096.24 41.2313 Q1092.45 37.0646 1086.15 37.0646 Q1079.02 37.0646 1074.72 41.0924 Q1070.46 45.1201 1069.81 52.4349 L1100.18 52.3886 Z" fill="#000000" fill-rule="evenodd" fill-opacity="1" /><path clip-path="url(#clip300)" d="M1122.68 10.9073 L1131.2 10.9073 L1131.2 82.944 L1122.68 82.944 L1122.68 10.9073 Z" fill="#000000" fill-rule="evenodd" fill-opacity="1" /><path clip-path="url(#clip300)" d="M1212.31 50.5368 Q1215.32 51.5553 1218.14 54.8886 Q1221.01 58.2219 1223.88 64.0552 L1233.37 82.944 L1223.33 82.944 L1214.48 65.2126 Q1211.06 58.2682 1207.82 55.9997 Q1204.62 53.7312 1199.07 53.7312 L1188.88 53.7312 L1188.88 82.944 L1179.53 82.944 L1179.53 13.824 L1200.64 13.824 Q1212.49 13.824 1218.33 18.7777 Q1224.16 23.7314 1224.16 33.7313 Q1224.16 40.259 1221.1 44.5646 Q1218.1 48.8701 1212.31 50.5368 M1188.88 21.5091 L1188.88 46.046 L1200.64 46.046 Q1207.4 46.046 1210.83 42.9442 Q1214.3 39.7961 1214.3 33.7313 Q1214.3 27.6665 1210.83 24.611 Q1207.4 21.5091 1200.64 21.5091 L1188.88 21.5091 Z" fill="#000000" fill-rule="evenodd" fill-opacity="1" /><path clip-path="url(#clip300)" d="M1245.04 31.0924 L1253.56 31.0924 L1253.56 82.944 L1245.04 82.944 L1245.04 31.0924 M1245.04 10.9073 L1253.56 10.9073 L1253.56 21.6943 L1245.04 21.6943 L1245.04 10.9073 Z" fill="#000000" fill-rule="evenodd" fill-opacity="1" /><path clip-path="url(#clip300)" d="M1304.44 32.6202 L1304.44 40.6757 Q1300.83 38.8239 1296.94 37.8979 Q1293.05 36.972 1288.88 36.972 Q1282.54 36.972 1279.34 38.9165 Q1276.2 40.8609 1276.2 44.7498 Q1276.2 47.7127 1278.47 49.4257 Q1280.73 51.0923 1287.59 52.6201 L1290.5 53.2682 Q1299.58 55.2127 1303.37 58.7775 Q1307.22 62.296 1307.22 68.6385 Q1307.22 75.8607 1301.47 80.0736 Q1295.78 84.2866 1285.78 84.2866 Q1281.61 84.2866 1277.08 83.4533 Q1272.59 82.6662 1267.59 81.0459 L1267.59 72.2496 Q1272.31 74.7033 1276.89 75.9533 Q1281.47 77.157 1285.97 77.157 Q1291.98 77.157 1295.22 75.12 Q1298.47 73.0366 1298.47 69.2867 Q1298.47 65.8145 1296.1 63.9626 Q1293.79 62.1108 1285.87 60.3978 L1282.91 59.7034 Q1274.99 58.0367 1271.47 54.6108 Q1267.96 51.1386 1267.96 45.1201 Q1267.96 37.8054 1273.14 33.8239 Q1278.33 29.8424 1287.86 29.8424 Q1292.59 29.8424 1296.75 30.5369 Q1300.92 31.2313 1304.44 32.6202 Z" fill="#000000" fill-rule="evenodd" fill-opacity="1" /><path clip-path="url(#clip300)" d="M1365.13 54.8886 L1365.13 59.0552 L1325.97 59.0552 Q1326.52 67.8515 1331.24 72.4811 Q1336.01 77.0644 1344.48 77.0644 Q1349.39 77.0644 1353.97 75.8607 Q1358.6 74.657 1363.14 72.2496 L1363.14 80.3051 Q1358.56 82.2496 1353.74 83.2681 Q1348.93 84.2866 1343.97 84.2866 Q1331.57 84.2866 1324.3 77.0644 Q1317.08 69.8422 1317.08 57.5275 Q1317.08 44.7961 1323.93 37.3424 Q1330.83 29.8424 1342.49 29.8424 Q1352.96 29.8424 1359.02 36.6017 Q1365.13 43.3146 1365.13 54.8886 M1356.61 52.3886 Q1356.52 45.3979 1352.68 41.2313 Q1348.88 37.0646 1342.59 37.0646 Q1335.46 37.0646 1331.15 41.0924 Q1326.89 45.1201 1326.24 52.4349 L1356.61 52.3886 Z" fill="#000000" fill-rule="evenodd" fill-opacity="1" /><path clip-path="url(#clip300)" d="M1437.68 20.1666 Q1427.49 20.1666 1421.47 27.7591 Q1415.5 35.3517 1415.5 48.4534 Q1415.5 61.5089 1421.47 69.1015 Q1427.49 76.694 1437.68 76.694 Q1447.86 76.694 1453.79 69.1015 Q1459.76 61.5089 1459.76 48.4534 Q1459.76 35.3517 1453.79 27.7591 Q1447.86 20.1666 1437.68 20.1666 M1437.68 12.574 Q1452.21 12.574 1460.92 22.3425 Q1469.62 32.0646 1469.62 48.4534 Q1469.62 64.7959 1460.92 74.5644 Q1452.21 84.2866 1437.68 84.2866 Q1423.09 84.2866 1414.34 74.5644 Q1405.64 64.8422 1405.64 48.4534 Q1405.64 32.0646 1414.34 22.3425 Q1423.09 12.574 1437.68 12.574 Z" fill="#000000" fill-rule="evenodd" fill-opacity="1" /><path clip-path="url(#clip300)" d="M1521.1 57.0645 Q1521.1 47.6664 1517.21 42.3424 Q1513.37 36.972 1506.61 36.972 Q1499.85 36.972 1495.96 42.3424 Q1492.12 47.6664 1492.12 57.0645 Q1492.12 66.4626 1495.96 71.8329 Q1499.85 77.157 1506.61 77.157 Q1513.37 77.157 1517.21 71.8329 Q1521.1 66.4626 1521.1 57.0645 M1492.12 38.9628 Q1494.81 34.3331 1498.88 32.1109 Q1503 29.8424 1508.7 29.8424 Q1518.14 29.8424 1524.02 37.3424 Q1529.95 44.8424 1529.95 57.0645 Q1529.95 69.2867 1524.02 76.7866 Q1518.14 84.2866 1508.7 84.2866 Q1503 84.2866 1498.88 82.0644 Q1494.81 79.7959 1492.12 75.1663 L1492.12 82.944 L1483.56 82.944 L1483.56 10.9073 L1492.12 10.9073 L1492.12 38.9628 Z" fill="#000000" fill-rule="evenodd" fill-opacity="1" /><path clip-path="url(#clip300)" d="M1577.12 32.6202 L1577.12 40.6757 Q1573.51 38.8239 1569.62 37.8979 Q1565.73 36.972 1561.57 36.972 Q1555.22 36.972 1552.03 38.9165 Q1548.88 40.8609 1548.88 44.7498 Q1548.88 47.7127 1551.15 49.4257 Q1553.42 51.0923 1560.27 52.6201 L1563.19 53.2682 Q1572.26 55.2127 1576.06 58.7775 Q1579.9 62.296 1579.9 68.6385 Q1579.9 75.8607 1574.16 80.0736 Q1568.46 84.2866 1558.46 84.2866 Q1554.3 84.2866 1549.76 83.4533 Q1545.27 82.6662 1540.27 81.0459 L1540.27 72.2496 Q1544.99 74.7033 1549.58 75.9533 Q1554.16 77.157 1558.65 77.157 Q1564.67 77.157 1567.91 75.12 Q1571.15 73.0366 1571.15 69.2867 Q1571.15 65.8145 1568.79 63.9626 Q1566.47 62.1108 1558.56 60.3978 L1555.59 59.7034 Q1547.68 58.0367 1544.16 54.6108 Q1540.64 51.1386 1540.64 45.1201 Q1540.64 37.8054 1545.83 33.8239 Q1551.01 29.8424 1560.55 29.8424 Q1565.27 29.8424 1569.44 30.5369 Q1573.6 31.2313 1577.12 32.6202 Z" fill="#000000" fill-rule="evenodd" fill-opacity="1" /><path clip-path="url(#clip300)" d="M1637.82 54.8886 L1637.82 59.0552 L1598.65 59.0552 Q1599.2 67.8515 1603.93 72.4811 Q1608.7 77.0644 1617.17 77.0644 Q1622.07 77.0644 1626.66 75.8607 Q1631.29 74.657 1635.82 72.2496 L1635.82 80.3051 Q1631.24 82.2496 1626.43 83.2681 Q1621.61 84.2866 1616.66 84.2866 Q1604.25 84.2866 1596.98 77.0644 Q1589.76 69.8422 1589.76 57.5275 Q1589.76 44.7961 1596.61 37.3424 Q1603.51 29.8424 1615.18 29.8424 Q1625.64 29.8424 1631.7 36.6017 Q1637.82 43.3146 1637.82 54.8886 M1629.3 52.3886 Q1629.2 45.3979 1625.36 41.2313 Q1621.57 37.0646 1615.27 37.0646 Q1608.14 37.0646 1603.83 41.0924 Q1599.57 45.1201 1598.93 52.4349 L1629.3 52.3886 Z" fill="#000000" fill-rule="evenodd" fill-opacity="1" /><path clip-path="url(#clip300)" d="M1681.84 39.0553 Q1680.41 38.222 1678.69 37.8516 Q1677.03 37.435 1674.99 37.435 Q1667.77 37.435 1663.88 42.1572 Q1660.04 46.8331 1660.04 55.6293 L1660.04 82.944 L1651.47 82.944 L1651.47 31.0924 L1660.04 31.0924 L1660.04 39.1479 Q1662.72 34.4257 1667.03 32.1572 Q1671.33 29.8424 1677.49 29.8424 Q1678.37 29.8424 1679.44 29.9813 Q1680.5 30.0739 1681.8 30.3054 L1681.84 39.0553 Z" fill="#000000" fill-rule="evenodd" fill-opacity="1" /><path clip-path="url(#clip300)" d="M1684.67 31.0924 L1693.69 31.0924 L1709.9 74.6107 L1726.1 31.0924 L1735.13 31.0924 L1715.69 82.944 L1704.11 82.944 L1684.67 31.0924 Z" fill="#000000" fill-rule="evenodd" fill-opacity="1" /><path clip-path="url(#clip300)" d="M1770.45 56.8793 Q1760.13 56.8793 1756.15 59.2404 Q1752.17 61.6015 1752.17 67.2959 Q1752.17 71.8329 1755.13 74.5181 Q1758.14 77.157 1763.28 77.157 Q1770.36 77.157 1774.62 72.157 Q1778.93 67.1108 1778.93 58.7775 L1778.93 56.8793 L1770.45 56.8793 M1787.44 53.3608 L1787.44 82.944 L1778.93 82.944 L1778.93 75.0737 Q1776.01 79.7959 1771.66 82.0644 Q1767.31 84.2866 1761.01 84.2866 Q1753.05 84.2866 1748.32 79.8422 Q1743.65 75.3514 1743.65 67.8515 Q1743.65 59.1015 1749.48 54.6571 Q1755.36 50.2127 1766.98 50.2127 L1778.93 50.2127 L1778.93 49.3794 Q1778.93 43.4998 1775.04 40.3053 Q1771.19 37.0646 1764.2 37.0646 Q1759.76 37.0646 1755.55 38.1294 Q1751.33 39.1942 1747.44 41.3239 L1747.44 33.4535 Q1752.12 31.648 1756.52 30.7684 Q1760.92 29.8424 1765.08 29.8424 Q1776.33 29.8424 1781.89 35.6757 Q1787.44 41.509 1787.44 53.3608 Z" fill="#000000" fill-rule="evenodd" fill-opacity="1" /><path clip-path="url(#clip300)" d="M1813.42 16.3703 L1813.42 31.0924 L1830.96 31.0924 L1830.96 37.7128 L1813.42 37.7128 L1813.42 65.8608 Q1813.42 72.2033 1815.13 74.0089 Q1816.89 75.8144 1822.21 75.8144 L1830.96 75.8144 L1830.96 82.944 L1822.21 82.944 Q1812.35 82.944 1808.6 79.2866 Q1804.85 75.5829 1804.85 65.8608 L1804.85 37.7128 L1798.6 37.7128 L1798.6 31.0924 L1804.85 31.0924 L1804.85 16.3703 L1813.42 16.3703 Z" fill="#000000" fill-rule="evenodd" fill-opacity="1" /><path clip-path="url(#clip300)" d="M1842.17 31.0924 L1850.68 31.0924 L1850.68 82.944 L1842.17 82.944 L1842.17 31.0924 M1842.17 10.9073 L1850.68 10.9073 L1850.68 21.6943 L1842.17 21.6943 L1842.17 10.9073 Z" fill="#000000" fill-rule="evenodd" fill-opacity="1" /><path clip-path="url(#clip300)" d="M1888.6 37.0646 Q1881.75 37.0646 1877.77 42.435 Q1873.79 47.759 1873.79 57.0645 Q1873.79 66.37 1877.72 71.7404 Q1881.7 77.0644 1888.6 77.0644 Q1895.41 77.0644 1899.39 71.6941 Q1903.37 66.3237 1903.37 57.0645 Q1903.37 47.8516 1899.39 42.4813 Q1895.41 37.0646 1888.6 37.0646 M1888.6 29.8424 Q1899.71 29.8424 1906.05 37.0646 Q1912.4 44.2868 1912.4 57.0645 Q1912.4 69.7959 1906.05 77.0644 Q1899.71 84.2866 1888.6 84.2866 Q1877.44 84.2866 1871.1 77.0644 Q1864.8 69.7959 1864.8 57.0645 Q1864.8 44.2868 1871.1 37.0646 Q1877.44 29.8424 1888.6 29.8424 Z" fill="#000000" fill-rule="evenodd" fill-opacity="1" /><path clip-path="url(#clip300)" d="M1969.62 51.6479 L1969.62 82.944 L1961.1 82.944 L1961.1 51.9256 Q1961.1 44.5646 1958.23 40.9072 Q1955.36 37.2498 1949.62 37.2498 Q1942.72 37.2498 1938.74 41.6479 Q1934.76 46.046 1934.76 53.6386 L1934.76 82.944 L1926.19 82.944 L1926.19 31.0924 L1934.76 31.0924 L1934.76 39.1479 Q1937.81 34.472 1941.93 32.1572 Q1946.1 29.8424 1951.52 29.8424 Q1960.45 29.8424 1965.04 35.398 Q1969.62 40.9072 1969.62 51.6479 Z" fill="#000000" fill-rule="evenodd" fill-opacity="1" /><path clip-path="url(#clip300)" d="M2019.67 32.6202 L2019.67 40.6757 Q2016.05 38.8239 2012.17 37.8979 Q2008.28 36.972 2004.11 36.972 Q1997.77 36.972 1994.57 38.9165 Q1991.42 40.8609 1991.42 44.7498 Q1991.42 47.7127 1993.69 49.4257 Q1995.96 51.0923 2002.81 52.6201 L2005.73 53.2682 Q2014.8 55.2127 2018.6 58.7775 Q2022.44 62.296 2022.44 68.6385 Q2022.44 75.8607 2016.7 80.0736 Q2011.01 84.2866 2001.01 84.2866 Q1996.84 84.2866 1992.3 83.4533 Q1987.81 82.6662 1982.81 81.0459 L1982.81 72.2496 Q1987.54 74.7033 1992.12 75.9533 Q1996.7 77.157 2001.19 77.157 Q2007.21 77.157 2010.45 75.12 Q2013.69 73.0366 2013.69 69.2867 Q2013.69 65.8145 2011.33 63.9626 Q2009.02 62.1108 2001.1 60.3978 L1998.14 59.7034 Q1990.22 58.0367 1986.7 54.6108 Q1983.18 51.1386 1983.18 45.1201 Q1983.18 37.8054 1988.37 33.8239 Q1993.55 29.8424 2003.09 29.8424 Q2007.81 29.8424 2011.98 30.5369 Q2016.15 31.2313 2019.67 32.6202 Z" fill="#000000" fill-rule="evenodd" fill-opacity="1" /><polyline clip-path="url(#clip302)" style="stroke:#009af9; stroke-linecap:round; stroke-linejoin:round; stroke-width:8; stroke-opacity:1; fill:none" points="
  411.457,1295.08 425.629,1268.19 439.8,1348.86 453.971,1323.41 468.142,1223.05 482.313,1230.25 496.484,1241.77 510.655,1268.67 524.826,1258.58 538.997,1250.9 
  553.168,1241.29 567.339,1249.46 581.511,1234.09 595.682,1211.52 609.853,1258.1 624.024,1201.44 638.195,1237.93 652.366,1212.96 666.537,1167.82 680.708,1131.81 
  694.879,1157.74 709.05,1159.66 723.222,1137.57 737.393,1099.15 751.564,1148.61 765.735,1175.03 779.906,1142.37 794.077,1149.09 808.248,1161.1 822.419,1139.49 
  836.59,1139.97 850.761,1100.11 864.932,1115 879.104,1106.36 893.275,1076.1 907.446,1038.17 921.617,1047.29 935.788,1068.9 949.959,1076.58 964.13,1068.9 
  978.301,1062.66 992.472,1052.57 1006.64,1056.89 1020.81,1051.13 1034.99,1086.19 1049.16,1076.58 1063.33,1045.37 1077.5,1050.65 1091.67,1069.38 1105.84,1062.66 
  1120.01,1043.45 1134.18,1045.37 1148.35,1018 1162.53,997.349 1176.7,1023.28 1190.87,996.389 1205.04,1015.12 1219.21,987.745 1233.38,975.26 1247.55,950.289 
  1261.72,975.74 1275.89,917.154 1290.07,917.154 1304.24,917.154 1318.41,947.888 1332.58,934.442 1346.75,898.426 1360.92,883.54 1375.09,860.49 1389.26,866.733 
  1403.43,856.168 1417.61,810.549 1431.78,823.034 1445.95,801.905 1460.12,815.831 1474.29,811.509 1488.46,836 1502.63,771.652 1516.8,764.929 1530.97,763.488 
  1545.15,745.721 1559.32,715.948 1573.49,740.919 1587.66,748.602 1601.83,786.538 1616,732.755 1630.17,758.686 1644.34,751.963 1658.51,748.122 1672.68,715.468 
  1686.86,724.591 1701.03,699.621 1715.2,655.922 1729.37,684.734 1743.54,627.59 1757.71,635.273 1771.88,640.075 1786.05,648.239 1800.22,617.505 1814.4,641.035 
  1828.57,612.223 1842.74,552.677 1856.91,580.529 1871.08,540.192 1885.25,544.514 1899.42,593.975 1913.59,591.094 1927.76,588.213 1941.94,565.643 1956.11,544.034 
  1970.28,532.989 1984.45,520.984 1998.62,517.622 2012.79,526.266 2026.96,501.295 2041.13,487.369 2055.3,467.681 2069.48,434.066 2083.65,481.607 2097.82,440.789 
  2111.99,434.546 2126.16,408.135 2140.33,396.61 2154.5,352.431 2168.67,354.352 2182.84,353.872 2197.02,333.223 2211.19,324.099 2225.36,282.321 2239.53,254.469 
  2253.7,217.493 2267.87,209.81 2282.04,167.551 2296.21,207.889 
  "/>
</svg>
