<?xml version="1.0" encoding="utf-8"?>
<svg xmlns="http://www.w3.org/2000/svg" xmlns:xlink="http://www.w3.org/1999/xlink" width="1650" height="1050" viewBox="0 0 6600 4200">
<defs>
  <clipPath id="clip150">
    <rect x="0" y="0" width="6600" height="4200"/>
  </clipPath>
</defs>
<path clip-path="url(#clip150)" d="M0 4200 L6600 4200 L6600 0 L0 0  Z" fill="#ffffff" fill-rule="evenodd" fill-opacity="1"/>
<defs>
  <clipPath id="clip151">
    <rect x="1320" y="0" width="4621" height="4200"/>
  </clipPath>
</defs>
<path clip-path="url(#clip150)" d="M211.121 2399.42 L6552.76 2399.42 L6552.76 47.2441 L211.121 47.2441  Z" fill="#ffffff" fill-rule="evenodd" fill-opacity="1"/>
<defs>
  <clipPath id="clip152">
    <rect x="211" y="47" width="6343" height="2353"/>
  </clipPath>
</defs>
<path clip-path="url(#clip152)" d="M955.747 2174.21 L875.747 2174.21 L915.747 2254.21 L955.747 2174.21 Z" fill="#0000ff" fill-rule="evenodd" fill-opacity="1" stroke="#000000" stroke-opacity="1" stroke-width="8.4"/>
<path clip-path="url(#clip152)" d="M1660.37 2174.21 L1580.37 2174.21 L1620.37 2254.21 L1660.37 2174.21 Z" fill="#0000ff" fill-rule="evenodd" fill-opacity="1" stroke="#000000" stroke-opacity="1" stroke-width="8.4"/>
<path clip-path="url(#clip152)" d="M2365 2174.21 L2285 2174.21 L2325 2254.21 L2365 2174.21 Z" fill="#0000ff" fill-rule="evenodd" fill-opacity="1" stroke="#000000" stroke-opacity="1" stroke-width="8.4"/>
<path clip-path="url(#clip152)" d="M3069.63 2174.21 L2989.63 2174.21 L3029.63 2254.21 L3069.63 2174.21 Z" fill="#0000ff" fill-rule="evenodd" fill-opacity="1" stroke="#000000" stroke-opacity="1" stroke-width="8.4"/>
<path clip-path="url(#clip152)" d="M3774.25 2174.21 L3694.25 2174.21 L3734.25 2254.21 L3774.25 2174.21 Z" fill="#0000ff" fill-rule="evenodd" fill-opacity="1" stroke="#000000" stroke-opacity="1" stroke-width="8.4"/>
<path clip-path="url(#clip152)" d="M4478.88 2174.21 L4398.88 2174.21 L4438.88 2254.21 L4478.88 2174.21 Z" fill="#0000ff" fill-rule="evenodd" fill-opacity="1" stroke="#000000" stroke-opacity="1" stroke-width="8.4"/>
<path clip-path="url(#clip152)" d="M5183.5 2174.21 L5103.5 2174.21 L5143.5 2254.21 L5183.5 2174.21 Z" fill="#0000ff" fill-rule="evenodd" fill-opacity="1" stroke="#000000" stroke-opacity="1" stroke-width="8.4"/>
<path clip-path="url(#clip152)" d="M5888.13 2174.21 L5808.13 2174.21 L5848.13 2254.21 L5888.13 2174.21 Z" fill="#0000ff" fill-rule="evenodd" fill-opacity="1" stroke="#000000" stroke-opacity="1" stroke-width="8.4"/>
<path clip-path="url(#clip152)" d="M1308.06 1909.62 L1228.06 1909.62 L1268.06 1989.62 L1308.06 1909.62 Z" fill="#0000ff" fill-rule="evenodd" fill-opacity="1" stroke="#000000" stroke-opacity="1" stroke-width="8.4"/>
<path clip-path="url(#clip152)" d="M2012.69 1909.62 L1932.69 1909.62 L1972.69 1989.62 L2012.69 1909.62 Z" fill="#0000ff" fill-rule="evenodd" fill-opacity="1" stroke="#000000" stroke-opacity="1" stroke-width="8.4"/>
<path clip-path="url(#clip152)" d="M2717.31 1909.62 L2637.31 1909.62 L2677.31 1989.62 L2717.31 1909.62 Z" fill="#0000ff" fill-rule="evenodd" fill-opacity="1" stroke="#000000" stroke-opacity="1" stroke-width="8.4"/>
<path clip-path="url(#clip152)" d="M3421.94 1909.62 L3341.94 1909.62 L3381.94 1989.62 L3421.94 1909.62 Z" fill="#0000ff" fill-rule="evenodd" fill-opacity="1" stroke="#000000" stroke-opacity="1" stroke-width="8.4"/>
<path clip-path="url(#clip152)" d="M4126.56 1909.62 L4046.56 1909.62 L4086.56 1989.62 L4126.56 1909.62 Z" fill="#0000ff" fill-rule="evenodd" fill-opacity="1" stroke="#000000" stroke-opacity="1" stroke-width="8.4"/>
<path clip-path="url(#clip152)" d="M4831.19 1909.62 L4751.19 1909.62 L4791.19 1989.62 L4831.19 1909.62 Z" fill="#0000ff" fill-rule="evenodd" fill-opacity="1" stroke="#000000" stroke-opacity="1" stroke-width="8.4"/>
<path clip-path="url(#clip152)" d="M5535.82 1909.62 L5455.82 1909.62 L5495.82 1989.62 L5535.82 1909.62 Z" fill="#0000ff" fill-rule="evenodd" fill-opacity="1" stroke="#000000" stroke-opacity="1" stroke-width="8.4"/>
<path clip-path="url(#clip152)" d="M1660.37 1645.03 L1580.37 1645.03 L1620.37 1725.03 L1660.37 1645.03 Z" fill="#0000ff" fill-rule="evenodd" fill-opacity="1" stroke="#000000" stroke-opacity="1" stroke-width="8.4"/>
<path clip-path="url(#clip152)" d="M2365 1645.03 L2285 1645.03 L2325 1725.03 L2365 1645.03 Z" fill="#0000ff" fill-rule="evenodd" fill-opacity="1" stroke="#000000" stroke-opacity="1" stroke-width="8.4"/>
<path clip-path="url(#clip152)" d="M3069.63 1645.03 L2989.63 1645.03 L3029.63 1725.03 L3069.63 1645.03 Z" fill="#0000ff" fill-rule="evenodd" fill-opacity="1" stroke="#000000" stroke-opacity="1" stroke-width="8.4"/>
<path clip-path="url(#clip152)" d="M3774.25 1645.03 L3694.25 1645.03 L3734.25 1725.03 L3774.25 1645.03 Z" fill="#0000ff" fill-rule="evenodd" fill-opacity="1" stroke="#000000" stroke-opacity="1" stroke-width="8.4"/>
<path clip-path="url(#clip152)" d="M4478.88 1645.03 L4398.88 1645.03 L4438.88 1725.03 L4478.88 1645.03 Z" fill="#0000ff" fill-rule="evenodd" fill-opacity="1" stroke="#000000" stroke-opacity="1" stroke-width="8.4"/>
<path clip-path="url(#clip152)" d="M5183.5 1645.03 L5103.5 1645.03 L5143.5 1725.03 L5183.5 1645.03 Z" fill="#0000ff" fill-rule="evenodd" fill-opacity="1" stroke="#000000" stroke-opacity="1" stroke-width="8.4"/>
<path clip-path="url(#clip152)" d="M2012.69 1380.45 L1932.69 1380.45 L1972.69 1460.45 L2012.69 1380.45 Z" fill="#0000ff" fill-rule="evenodd" fill-opacity="1" stroke="#000000" stroke-opacity="1" stroke-width="8.4"/>
<path clip-path="url(#clip152)" d="M2717.31 1380.45 L2637.31 1380.45 L2677.31 1460.45 L2717.31 1380.45 Z" fill="#0000ff" fill-rule="evenodd" fill-opacity="1" stroke="#000000" stroke-opacity="1" stroke-width="8.4"/>
<path clip-path="url(#clip152)" d="M3421.94 1380.45 L3341.94 1380.45 L3381.94 1460.45 L3421.94 1380.45 Z" fill="#0000ff" fill-rule="evenodd" fill-opacity="1" stroke="#000000" stroke-opacity="1" stroke-width="8.4"/>
<path clip-path="url(#clip152)" d="M4126.56 1380.45 L4046.56 1380.45 L4086.56 1460.45 L4126.56 1380.45 Z" fill="#0000ff" fill-rule="evenodd" fill-opacity="1" stroke="#000000" stroke-opacity="1" stroke-width="8.4"/>
<path clip-path="url(#clip152)" d="M4831.19 1380.45 L4751.19 1380.45 L4791.19 1460.45 L4831.19 1380.45 Z" fill="#0000ff" fill-rule="evenodd" fill-opacity="1" stroke="#000000" stroke-opacity="1" stroke-width="8.4"/>
<path clip-path="url(#clip152)" d="M2365 1115.86 L2285 1115.86 L2325 1195.86 L2365 1115.86 Z" fill="#0000ff" fill-rule="evenodd" fill-opacity="1" stroke="#000000" stroke-opacity="1" stroke-width="8.4"/>
<path clip-path="url(#clip152)" d="M3069.63 1115.86 L2989.63 1115.86 L3029.63 1195.86 L3069.63 1115.86 Z" fill="#0000ff" fill-rule="evenodd" fill-opacity="1" stroke="#000000" stroke-opacity="1" stroke-width="8.4"/>
<path clip-path="url(#clip152)" d="M3774.25 1115.86 L3694.25 1115.86 L3734.25 1195.86 L3774.25 1115.86 Z" fill="#0000ff" fill-rule="evenodd" fill-opacity="1" stroke="#000000" stroke-opacity="1" stroke-width="8.4"/>
<path clip-path="url(#clip152)" d="M4478.88 1115.86 L4398.88 1115.86 L4438.88 1195.86 L4478.88 1115.86 Z" fill="#0000ff" fill-rule="evenodd" fill-opacity="1" stroke="#000000" stroke-opacity="1" stroke-width="8.4"/>
<path clip-path="url(#clip152)" d="M2717.31 851.274 L2637.31 851.274 L2677.31 931.274 L2717.31 851.274 Z" fill="#0000ff" fill-rule="evenodd" fill-opacity="1" stroke="#000000" stroke-opacity="1" stroke-width="8.4"/>
<path clip-path="url(#clip152)" d="M3421.94 851.274 L3341.94 851.274 L3381.94 931.274 L3421.94 851.274 Z" fill="#0000ff" fill-rule="evenodd" fill-opacity="1" stroke="#000000" stroke-opacity="1" stroke-width="8.4"/>
<path clip-path="url(#clip152)" d="M4126.56 851.274 L4046.56 851.274 L4086.56 931.274 L4126.56 851.274 Z" fill="#0000ff" fill-rule="evenodd" fill-opacity="1" stroke="#000000" stroke-opacity="1" stroke-width="8.4"/>
<path clip-path="url(#clip152)" d="M3069.63 586.688 L2989.63 586.688 L3029.63 666.688 L3069.63 586.688 Z" fill="#0000ff" fill-rule="evenodd" fill-opacity="1" stroke="#000000" stroke-opacity="1" stroke-width="8.4"/>
<path clip-path="url(#clip152)" d="M3774.25 586.688 L3694.25 586.688 L3734.25 666.688 L3774.25 586.688 Z" fill="#0000ff" fill-rule="evenodd" fill-opacity="1" stroke="#000000" stroke-opacity="1" stroke-width="8.4"/>
<path clip-path="url(#clip152)" d="M3421.94 322.102 L3341.94 322.102 L3381.94 402.102 L3421.94 322.102 Z" fill="#0000ff" fill-rule="evenodd" fill-opacity="1" stroke="#000000" stroke-opacity="1" stroke-width="8.4"/>
<circle clip-path="url(#clip152)" cx="3381.94" cy="158.37" r="25.2" fill="#ff0000" fill-rule="evenodd" fill-opacity="1" stroke="#000000" stroke-opacity="1" stroke-width="8.4"/>
<circle clip-path="url(#clip152)" cx="3029.63" cy="422.957" r="25.2" fill="#ff0000" fill-rule="evenodd" fill-opacity="0.6" stroke="#000000" stroke-opacity="0.6" stroke-width="8.4"/>
<circle clip-path="url(#clip152)" cx="3381.94" cy="687.543" r="25.2" fill="#ff0000" fill-rule="evenodd" fill-opacity="0.6" stroke="#000000" stroke-opacity="0.6" stroke-width="8.4"/>
<circle clip-path="url(#clip152)" cx="3029.63" cy="952.129" r="25.2" fill="#ff0000" fill-rule="evenodd" fill-opacity="0.6" stroke="#000000" stroke-opacity="0.6" stroke-width="8.4"/>
<circle clip-path="url(#clip152)" cx="3381.94" cy="1216.72" r="25.2" fill="#ff0000" fill-rule="evenodd" fill-opacity="0.6" stroke="#000000" stroke-opacity="0.6" stroke-width="8.4"/>
<circle clip-path="url(#clip152)" cx="3734.25" cy="1481.3" r="25.2" fill="#ff0000" fill-rule="evenodd" fill-opacity="0.6" stroke="#000000" stroke-opacity="0.6" stroke-width="8.4"/>
<circle clip-path="url(#clip152)" cx="3381.94" cy="1745.89" r="25.2" fill="#ff0000" fill-rule="evenodd" fill-opacity="0.6" stroke="#000000" stroke-opacity="0.6" stroke-width="8.4"/>
<circle clip-path="url(#clip152)" cx="3734.25" cy="2010.47" r="25.2" fill="#ff0000" fill-rule="evenodd" fill-opacity="0.6" stroke="#000000" stroke-opacity="0.6" stroke-width="8.4"/>
<circle clip-path="url(#clip152)" cx="3381.94" cy="2275.06" r="25.2" fill="#ff0000" fill-rule="evenodd" fill-opacity="0.6" stroke="#000000" stroke-opacity="0.6" stroke-width="8.4"/>
<path clip-path="url(#clip150)" d="M211.121 4152.76 L6552.76 4152.76 L6552.76 2584.64 L211.121 2584.64  Z" fill="#ffffff" fill-rule="evenodd" fill-opacity="1"/>
<defs>
  <clipPath id="clip153">
    <rect x="211" y="2584" width="6343" height="1569"/>
  </clipPath>
</defs>
<path clip-path="url(#clip153)" d="M211.121 4152.76 L211.121 4152.76 L915.747 4152.76 L915.747 4152.76 L211.121 4152.76 L211.121 4152.76  Z" fill="#009af9" fill-rule="evenodd" fill-opacity="1"/>
<polyline clip-path="url(#clip153)" style="stroke:#000000; stroke-linecap:round; stroke-linejoin:round; stroke-width:4; stroke-opacity:1; fill:none" points="211.121,4152.76 211.121,4152.76 915.747,4152.76 211.121,4152.76 "/>
<path clip-path="url(#clip153)" d="M915.747 3968.27 L915.747 4152.76 L1620.37 4152.76 L1620.37 3968.27 L915.747 3968.27 L915.747 3968.27  Z" fill="#009af9" fill-rule="evenodd" fill-opacity="1"/>
<polyline clip-path="url(#clip153)" style="stroke:#000000; stroke-linecap:round; stroke-linejoin:round; stroke-width:4; stroke-opacity:1; fill:none" points="915.747,3968.27 915.747,4152.76 1620.37,4152.76 1620.37,3968.27 915.747,3968.27 "/>
<path clip-path="url(#clip153)" d="M1620.37 3384.07 L1620.37 4152.76 L2325 4152.76 L2325 3384.07 L1620.37 3384.07 L1620.37 3384.07  Z" fill="#009af9" fill-rule="evenodd" fill-opacity="1"/>
<polyline clip-path="url(#clip153)" style="stroke:#000000; stroke-linecap:round; stroke-linejoin:round; stroke-width:4; stroke-opacity:1; fill:none" points="1620.37,3384.07 1620.37,4152.76 2325,4152.76 2325,3384.07 1620.37,3384.07 "/>
<path clip-path="url(#clip153)" d="M2325 2646.14 L2325 4152.76 L3029.63 4152.76 L3029.63 2646.14 L2325 2646.14 L2325 2646.14  Z" fill="#009af9" fill-rule="evenodd" fill-opacity="1"/>
<polyline clip-path="url(#clip153)" style="stroke:#000000; stroke-linecap:round; stroke-linejoin:round; stroke-width:4; stroke-opacity:1; fill:none" points="2325,2646.14 2325,4152.76 3029.63,4152.76 3029.63,2646.14 2325,2646.14 "/>
<path clip-path="url(#clip153)" d="M3029.63 2584.64 L3029.63 4152.76 L3734.25 4152.76 L3734.25 2584.64 L3029.63 2584.64 L3029.63 2584.64  Z" fill="#009af9" fill-rule="evenodd" fill-opacity="1"/>
<polyline clip-path="url(#clip153)" style="stroke:#000000; stroke-linecap:round; stroke-linejoin:round; stroke-width:4; stroke-opacity:1; fill:none" points="3029.63,2584.64 3029.63,4152.76 3734.25,4152.76 3734.25,2584.64 3029.63,2584.64 "/>
<path clip-path="url(#clip153)" d="M3734.25 2953.61 L3734.25 4152.76 L4438.88 4152.76 L4438.88 2953.61 L3734.25 2953.61 L3734.25 2953.61  Z" fill="#009af9" fill-rule="evenodd" fill-opacity="1"/>
<polyline clip-path="url(#clip153)" style="stroke:#000000; stroke-linecap:round; stroke-linejoin:round; stroke-width:4; stroke-opacity:1; fill:none" points="3734.25,2953.61 3734.25,4152.76 4438.88,4152.76 4438.88,2953.61 3734.25,2953.61 "/>
<path clip-path="url(#clip153)" d="M4438.88 3476.31 L4438.88 4152.76 L5143.5 4152.76 L5143.5 3476.31 L4438.88 3476.31 L4438.88 3476.31  Z" fill="#009af9" fill-rule="evenodd" fill-opacity="1"/>
<polyline clip-path="url(#clip153)" style="stroke:#000000; stroke-linecap:round; stroke-linejoin:round; stroke-width:4; stroke-opacity:1; fill:none" points="4438.88,3476.31 4438.88,4152.76 5143.5,4152.76 5143.5,3476.31 4438.88,3476.31 "/>
<path clip-path="url(#clip153)" d="M5143.5 3937.52 L5143.5 4152.76 L5848.13 4152.76 L5848.13 3937.52 L5143.5 3937.52 L5143.5 3937.52  Z" fill="#009af9" fill-rule="evenodd" fill-opacity="1"/>
<polyline clip-path="url(#clip153)" style="stroke:#000000; stroke-linecap:round; stroke-linejoin:round; stroke-width:4; stroke-opacity:1; fill:none" points="5143.5,3937.52 5143.5,4152.76 5848.13,4152.76 5848.13,3937.52 5143.5,3937.52 "/>
<path clip-path="url(#clip153)" d="M5848.13 4122.01 L5848.13 4152.76 L6552.76 4152.76 L6552.76 4122.01 L5848.13 4122.01 L5848.13 4122.01  Z" fill="#009af9" fill-rule="evenodd" fill-opacity="1"/>
<polyline clip-path="url(#clip153)" style="stroke:#000000; stroke-linecap:round; stroke-linejoin:round; stroke-width:4; stroke-opacity:1; fill:none" points="5848.13,4122.01 5848.13,4152.76 6552.76,4152.76 6552.76,4122.01 5848.13,4122.01 "/>
<circle clip-path="url(#clip153)" style="fill:#009af9; stroke:none; fill-opacity:0" cx="563.434" cy="4152.76" r="2"/>
<circle clip-path="url(#clip153)" style="fill:#009af9; stroke:none; fill-opacity:0" cx="1268.06" cy="3968.27" r="2"/>
<circle clip-path="url(#clip153)" style="fill:#009af9; stroke:none; fill-opacity:0" cx="1972.69" cy="3384.07" r="2"/>
<circle clip-path="url(#clip153)" style="fill:#009af9; stroke:none; fill-opacity:0" cx="2677.31" cy="2646.14" r="2"/>
<circle clip-path="url(#clip153)" style="fill:#009af9; stroke:none; fill-opacity:0" cx="3381.94" cy="2584.64" r="2"/>
<circle clip-path="url(#clip153)" style="fill:#009af9; stroke:none; fill-opacity:0" cx="4086.56" cy="2953.61" r="2"/>
<circle clip-path="url(#clip153)" style="fill:#009af9; stroke:none; fill-opacity:0" cx="4791.19" cy="3476.31" r="2"/>
<circle clip-path="url(#clip153)" style="fill:#009af9; stroke:none; fill-opacity:0" cx="5495.82" cy="3937.52" r="2"/>
<circle clip-path="url(#clip153)" style="fill:#009af9; stroke:none; fill-opacity:0" cx="6200.44" cy="4122.01" r="2"/>
<polyline clip-path="url(#clip153)" style="stroke:#000000; stroke-linecap:round; stroke-linejoin:round; stroke-width:8; stroke-opacity:1; fill:none" points="211.121,5720.87 211.121,1016.53 "/>
<polyline clip-path="url(#clip153)" style="stroke:#000000; stroke-linecap:round; stroke-linejoin:round; stroke-width:8; stroke-opacity:1; fill:none" points="915.747,5720.87 915.747,1016.53 "/>
<polyline clip-path="url(#clip153)" style="stroke:#000000; stroke-linecap:round; stroke-linejoin:round; stroke-width:8; stroke-opacity:1; fill:none" points="1620.37,5720.87 1620.37,1016.53 "/>
<polyline clip-path="url(#clip153)" style="stroke:#000000; stroke-linecap:round; stroke-linejoin:round; stroke-width:8; stroke-opacity:1; fill:none" points="2325,5720.87 2325,1016.53 "/>
<polyline clip-path="url(#clip153)" style="stroke:#000000; stroke-linecap:round; stroke-linejoin:round; stroke-width:8; stroke-opacity:1; fill:none" points="3029.63,5720.87 3029.63,1016.53 "/>
<polyline clip-path="url(#clip153)" style="stroke:#000000; stroke-linecap:round; stroke-linejoin:round; stroke-width:8; stroke-opacity:1; fill:none" points="3734.25,5720.87 3734.25,1016.53 "/>
<polyline clip-path="url(#clip153)" style="stroke:#000000; stroke-linecap:round; stroke-linejoin:round; stroke-width:8; stroke-opacity:1; fill:none" points="4438.88,5720.87 4438.88,1016.53 "/>
<polyline clip-path="url(#clip153)" style="stroke:#000000; stroke-linecap:round; stroke-linejoin:round; stroke-width:8; stroke-opacity:1; fill:none" points="5143.5,5720.87 5143.5,1016.53 "/>
<polyline clip-path="url(#clip153)" style="stroke:#000000; stroke-linecap:round; stroke-linejoin:round; stroke-width:8; stroke-opacity:1; fill:none" points="5848.13,5720.87 5848.13,1016.53 "/>
<polyline clip-path="url(#clip153)" style="stroke:#000000; stroke-linecap:round; stroke-linejoin:round; stroke-width:8; stroke-opacity:1; fill:none" points="6552.76,5720.87 6552.76,1016.53 "/>
<polyline clip-path="url(#clip153)" style="stroke:#000000; stroke-linecap:round; stroke-linejoin:round; stroke-width:8; stroke-opacity:1; fill:none" points="-6130.51,4152.76 12894.4,4152.76 "/>
</svg>
